<?xml version="1.0" ?>
<svg xmlns:inkscape="http://www.inkscape.org/namespaces/inkscape" xmlns:sodipodi="http://sodipodi.sourceforge.net/DTD/sodipodi-0.dtd" xmlns="http://www.w3.org/2000/svg" width="512" height="512" viewBox="0 0 512 512" version="1.1" id="Comp_1" sodipodi:docname="Comp 1" inkscape:export-xdpi="96" inkscape:export-ydpi="96" style="fill: none; stroke: none">
   <defs>
      <linearGradient x1="-73.608" y1="117.233" x2="48.151" y2="119.058" id="Gradient_Fill_3" inkscape:label="Gradient Fill 3" gradientUnits="userSpaceOnUse">
         <stop offset="0.1%" stop-color="rgb(53, 86, 0)" stop-opacity="1"/>
         <stop offset="10.8%" stop-color="rgb(42, 69, 1)" stop-opacity="1"/>
         <stop offset="28.199999999999996%" stop-color="rgb(30, 52, 1)" stop-opacity="1"/>
         <stop offset="55.300000000000004%" stop-color="rgb(71, 97, 22)" stop-opacity="1"/>
         <stop offset="72.39999999999999%" stop-color="rgb(113, 143, 44)" stop-opacity="1"/>
         <stop offset="94.1%" stop-color="rgb(100, 134, 22)" stop-opacity="1"/>
         <stop offset="100%" stop-color="rgb(87, 126, 0)" stop-opacity="1"/>
      </linearGradient>
      <linearGradient x1="-73.608" y1="117.233" x2="48.151" y2="119.058" id="linearGradient_77" inkscape:label="Gradient Fill 3" gradientUnits="userSpaceOnUse">
         <stop offset="0.1%" stop-color="rgb(53, 86, 0)" stop-opacity="1"/>
         <stop offset="10.8%" stop-color="rgb(42, 69, 1)" stop-opacity="1"/>
         <stop offset="28.199999999999996%" stop-color="rgb(30, 52, 1)" stop-opacity="1"/>
         <stop offset="55.300000000000004%" stop-color="rgb(71, 97, 22)" stop-opacity="1"/>
         <stop offset="72.39999999999999%" stop-color="rgb(113, 143, 44)" stop-opacity="1"/>
         <stop offset="94.1%" stop-color="rgb(100, 134, 22)" stop-opacity="1"/>
         <stop offset="100%" stop-color="rgb(87, 126, 0)" stop-opacity="1"/>
      </linearGradient>
      <linearGradient x1="-76.485" y1="180.523" x2="54.839" y2="181.689" id="Gradient_Fill_2" inkscape:label="Gradient Fill 2" gradientUnits="userSpaceOnUse">
         <stop offset="21.3%" stop-color="rgb(121, 100, 63)" stop-opacity="1"/>
         <stop offset="41.4%" stop-color="rgb(148, 120, 72)" stop-opacity="1"/>
         <stop offset="50.4%" stop-color="rgb(175, 139, 81)" stop-opacity="1"/>
         <stop offset="75.0%" stop-color="rgb(201, 171, 116)" stop-opacity="1"/>
         <stop offset="78.8%" stop-color="rgb(228, 203, 150)" stop-opacity="1"/>
         <stop offset="88.7%" stop-color="rgb(236, 211, 157)" stop-opacity="1"/>
         <stop offset="100%" stop-color="rgb(244, 220, 164)" stop-opacity="1"/>
      </linearGradient>
      <linearGradient x1="-76.485" y1="180.523" x2="54.839" y2="181.689" id="linearGradient_87" inkscape:label="Gradient Fill 2" gradientUnits="userSpaceOnUse">
         <stop offset="21.3%" stop-color="rgb(121, 100, 63)" stop-opacity="1"/>
         <stop offset="41.4%" stop-color="rgb(148, 120, 72)" stop-opacity="1"/>
         <stop offset="50.4%" stop-color="rgb(175, 139, 81)" stop-opacity="1"/>
         <stop offset="75.0%" stop-color="rgb(201, 171, 116)" stop-opacity="1"/>
         <stop offset="78.8%" stop-color="rgb(228, 203, 150)" stop-opacity="1"/>
         <stop offset="88.7%" stop-color="rgb(236, 211, 157)" stop-opacity="1"/>
         <stop offset="100%" stop-color="rgb(244, 220, 164)" stop-opacity="1"/>
      </linearGradient>
      <linearGradient x1="-44.02" y1="-12.084" x2="19.991" y2="-11.427" id="Gradient_Fill_4" inkscape:label="Gradient Fill 4" gradientUnits="userSpaceOnUse">
         <stop offset="13.100000000000001%" stop-color="rgb(121, 100, 63)" stop-opacity="1"/>
         <stop offset="22.7%" stop-color="rgb(148, 120, 72)" stop-opacity="1"/>
         <stop offset="31.900000000000002%" stop-color="rgb(175, 139, 81)" stop-opacity="1"/>
         <stop offset="42.0%" stop-color="rgb(199, 169, 113)" stop-opacity="1"/>
         <stop offset="55.7%" stop-color="rgb(223, 198, 146)" stop-opacity="1"/>
         <stop offset="76.4%" stop-color="rgb(231, 206, 154)" stop-opacity="1"/>
         <stop offset="90.4%" stop-color="rgb(238, 214, 161)" stop-opacity="1"/>
      </linearGradient>
      <linearGradient x1="-44.02" y1="-12.084" x2="19.991" y2="-11.427" id="linearGradient_94" inkscape:label="Gradient Fill 4" gradientUnits="userSpaceOnUse">
         <stop offset="13.100000000000001%" stop-color="rgb(121, 100, 63)" stop-opacity="1"/>
         <stop offset="22.7%" stop-color="rgb(148, 120, 72)" stop-opacity="1"/>
         <stop offset="31.900000000000002%" stop-color="rgb(175, 139, 81)" stop-opacity="1"/>
         <stop offset="42.0%" stop-color="rgb(199, 169, 113)" stop-opacity="1"/>
         <stop offset="55.7%" stop-color="rgb(223, 198, 146)" stop-opacity="1"/>
         <stop offset="76.4%" stop-color="rgb(231, 206, 154)" stop-opacity="1"/>
         <stop offset="90.4%" stop-color="rgb(238, 214, 161)" stop-opacity="1"/>
      </linearGradient>
      <linearGradient x1="-39.655" y1="-67.713" x2="16.996" y2="-67.192" id="Gradient_Fill_10" inkscape:label="Gradient Fill 10" gradientUnits="userSpaceOnUse">
         <stop offset="0.1%" stop-color="rgb(53, 107, 0)" stop-opacity="1"/>
         <stop offset="11.899999999999999%" stop-color="rgb(49, 102, 0)" stop-opacity="1"/>
         <stop offset="31.1%" stop-color="rgb(46, 97, 0)" stop-opacity="1"/>
         <stop offset="51.6%" stop-color="rgb(85, 133, 4)" stop-opacity="1"/>
         <stop offset="72.39999999999999%" stop-color="rgb(124, 168, 7)" stop-opacity="1"/>
         <stop offset="94.1%" stop-color="rgb(106, 147, 4)" stop-opacity="1"/>
         <stop offset="100%" stop-color="rgb(87, 126, 0)" stop-opacity="1"/>
      </linearGradient>
      <linearGradient x1="-39.655" y1="-67.713" x2="16.996" y2="-67.192" id="linearGradient_103" inkscape:label="Gradient Fill 10" gradientUnits="userSpaceOnUse">
         <stop offset="0.1%" stop-color="rgb(53, 107, 0)" stop-opacity="1"/>
         <stop offset="11.899999999999999%" stop-color="rgb(49, 102, 0)" stop-opacity="1"/>
         <stop offset="31.1%" stop-color="rgb(46, 97, 0)" stop-opacity="1"/>
         <stop offset="51.6%" stop-color="rgb(85, 133, 4)" stop-opacity="1"/>
         <stop offset="72.39999999999999%" stop-color="rgb(124, 168, 7)" stop-opacity="1"/>
         <stop offset="94.1%" stop-color="rgb(106, 147, 4)" stop-opacity="1"/>
         <stop offset="100%" stop-color="rgb(87, 126, 0)" stop-opacity="1"/>
      </linearGradient>
   </defs>
   <sodipodi:namedview inkscape:pagecheckerboard="true" borderlayer="true" bordercolor="#666666" pagecolor="#ffffff"/>
   <g inkscape:groupmode="layer" id="Null_2" inkscape:label="Null 2" transform="matrix(1.06, 0.0, 0.0, 1.06, 176.509, 189.529)" opacity="1">
      <g inkscape:groupmode="layer" id="Cork_2" inkscape:label="Cork 2" transform="matrix(0.7071067811865476, -0.7071067811865476, 0.7071067811865476, 0.7071067811865476, 73.12060159025371, 57.8754293865963)" style="">
         <g inkscape:groupmode="layer" id="Group_2" inkscape:label="Group 2" transform="matrix(1.0, 0.0, 0.0, 1.0, 0.0, 0.0)" style="">
            <g id="Group_4" inkscape:label="Group 4" transform="matrix(1.0, 0.0, 0.0, 1.0, 0.0, 0.0)" style="fill-opacity:1.0;fill:rgb(197, 148, 92);fill-rule:nonzero">
               <path d="M 7.829,-144.919 C 1.0149999999999997,-143.482 -30.647000000000002,-140.65699999999998 -32.06,-151.843 C -33.473,-163.029 -36.506,-185.834 -32.06,-190.089 C -27.614000000000004,-194.344 9.291,-193.44 12.752,-190.088 C 16.213,-186.736 14.643,-146.35600000000002 7.829,-144.919 Z" id="Path_1" inkscape:label="Path 1" style="fill-opacity:1.0;fill:rgb(197, 148, 92);fill-rule:nonzero"/>
            </g>
            <g id="Group_3" inkscape:label="Group 3" transform="matrix(1.0, 0.0, 0.0, 1.0, 0.0, 0.0)" opacity="0.3" style="fill-opacity:1.0;fill:rgb(97, 61, 33);fill-rule:nonzero">
               <path d="M 10.311,-172.212 C -9.574000000000002,-184.809 -12.915000000000001,-146.398 1.811,-148.772 C 3.9939999999999998,-149.124 -28.247,-146.301 -28.247,-146.301 C -39.191,-148.40699999999998 -32.059,-190.092 -32.059,-190.092 C -31.368999999999996,-202.282 6.299,-193.555 6.299,-193.555 C 17.795,-193.49 10.311,-172.212 10.311,-172.212 Z" id="path_1" inkscape:label="Path 1" style="fill-opacity:1.0;fill:rgb(97, 61, 33);fill-rule:nonzero"/>
            </g>
            <g id="g_2" inkscape:label="Group 2" transform="matrix(1.0, 0.0, 0.0, 1.0, 0.0, 0.0)" style="stroke:rgb(102, 69, 31);stroke-opacity:1.0;stroke-width:8.0;stroke-miterlimit:0;stroke-linecap:round;stroke-linejoin:round">
               <path d="M 7.829,-144.919 C 7.829,-144.919 -27.137,-144.919 -27.137,-144.919 C -30.961,-144.919 -34.06,-148.01899999999998 -34.06,-151.843 C -34.06,-151.843 -32.06,-190.089 -32.06,-190.089 C -32.06,-193.912 12.752,-193.912 12.752,-190.088 C 12.752,-190.088 14.752,-151.842 14.752,-151.842 C 14.752,-148.019 11.652999999999999,-144.919 7.829,-144.919 Z" id="path_3" inkscape:label="Path 1" style=""/>
            </g>
            <g id="Group_1" inkscape:label="Group 1" transform="matrix(1.0, 0.0, 0.0, 1.0, 0.0, 0.0)" opacity="0.6" style="">
               <g id="g_4" inkscape:label="Group 4" transform="matrix(1.0, 0.0, 0.0, 1.0, 0.0, 0.0)" style="fill-opacity:1.0;fill:rgb(111, 60, 18);fill-rule:nonzero">
                  <path d="M -11.608,-179.253 C -16.334,-181.278 -14.71,-176.627 -11.435,-174.947 C -8.16,-173.267 -4.924,-176.39 -11.608,-179.253 Z" id="path_5" inkscape:label="Path 1" style="fill-opacity:1.0;fill:rgb(111, 60, 18);fill-rule:nonzero"/>
               </g>
               <g id="g_6" inkscape:label="Group 3" transform="matrix(1.0, 0.0, 0.0, 1.0, 0.0, 0.0)" style="fill-opacity:1.0;fill:rgb(111, 60, 18);fill-rule:nonzero">
                  <path d="M 1.077,-155.64 C -0.766,-157.314 -5.083,-158.921 -5.474,-155.64 C -5.865,-152.35899999999998 4.890000000000001,-152.177 1.077,-155.64 Z" id="path_7" inkscape:label="Path 1" style="fill-opacity:1.0;fill:rgb(111, 60, 18);fill-rule:nonzero"/>
               </g>
               <g id="g_8" inkscape:label="Group 2" transform="matrix(1.0, 0.0, 0.0, 1.0, 0.0, 0.0)" style="fill-opacity:1.0;fill:rgb(111, 60, 18);fill-rule:nonzero">
                  <path d="M 1.027,-172.181 C -0.403,-172.065 -1.2679999999999998,-168.062 2.032,-168.113 C 5.332,-168.163 6.336,-172.61100000000002 1.027,-172.181 Z" id="path_9" inkscape:label="Path 1" style="fill-opacity:1.0;fill:rgb(111, 60, 18);fill-rule:nonzero"/>
               </g>
               <g id="g_10" inkscape:label="Group 1" transform="matrix(1.0, 0.0, 0.0, 1.0, 0.0, 0.0)" style="fill-opacity:1.0;fill:rgb(111, 60, 18);fill-rule:nonzero">
                  <path d="M -23.007,-162.642 C -25.467000000000002,-164.195 -25.951,-159.353 -24.206,-157.69 C -22.461,-156.027 -17.081000000000003,-158.903 -23.007,-162.642 Z" id="path_11" inkscape:label="Path 1" style="fill-opacity:1.0;fill:rgb(111, 60, 18);fill-rule:nonzero"/>
               </g>
            </g>
         </g>
         <g inkscape:groupmode="layer" id="g_12" inkscape:label="Group 1" transform="matrix(1.0, 0.0, 0.0, 1.0, 0.0, 0.0)" style="">
            <g inkscape:groupmode="layer" id="Group_6" inkscape:label="Group 6" transform="matrix(1.0, 0.0, 0.0, 1.0, 0.0, 0.0)" style="fill-opacity:1.0;fill:rgb(197, 148, 92);fill-rule:nonzero">
               <path d="M 23.307,-217.512 C 14.655999999999999,-227.653 -30.453,-234.691 -42.616,-217.512 C -44.76,-214.484 -48.672,-193.313 -37.294,-188.515 C -31.348,-186.00799999999998 12.084999999999997,-186.091 17.987,-188.511 C 27.833999999999996,-192.548 25.715,-214.689 23.307,-217.512 Z" id="path_13" inkscape:label="Path 1" style="fill-opacity:1.0;fill:rgb(197, 148, 92);fill-rule:nonzero"/>
            </g>
            <g inkscape:groupmode="layer" id="Group_5" inkscape:label="Group 5" transform="matrix(1.0, 0.0, 0.0, 1.0, 0.0, 0.0)" opacity="0.5" style="fill-opacity:1.0;fill:rgb(255, 244, 198);fill-rule:nonzero">
               <path d="M 21.341,-188.662 C 14.0,-186.127 3.0610000000000004,-190.43200000000002 5.091,-190.852 C 17.761,-193.46200000000002 15.32,-211.55499999999998 9.094,-216.093 C 2.087999999999999,-221.19899999999998 -30.833,-222.278 -39.619,-216.512 C -39.619,-216.512 -42.208999999999996,-227.172 -9.659,-227.172 C 16.411,-227.172 21.231,-222.652 23.311,-217.512 C 24.691,-214.072 24.511000000000003,-189.756 21.341,-188.662 Z" id="path_14" inkscape:label="Path 1" style="fill-opacity:1.0;fill:rgb(255, 244, 198);fill-rule:nonzero"/>
            </g>
            <g inkscape:groupmode="layer" id="g_15" inkscape:label="Group 4" transform="matrix(1.0, 0.0, 0.0, 1.0, 0.0, 0.0)" opacity="0.6" style="">
               <g id="Group_8" inkscape:label="Group 8" transform="matrix(1.0, 0.0, 0.0, 1.0, 0.0, 0.0)" style="fill-opacity:1.0;fill:rgb(111, 60, 18);fill-rule:nonzero">
                  <path d="M -14.115,-212.636 C -17.281,-212.79399999999998 -19.247,-217.362 -20.432,-212.623 C -21.616999999999997,-207.884 -14.846,-206.19 -10.926,-207.926 C -7.006,-209.66199999999998 -10.155000000000001,-212.439 -14.115,-212.636 Z" id="path_16" inkscape:label="Path 1" style="fill-opacity:1.0;fill:rgb(111, 60, 18);fill-rule:nonzero"/>
               </g>
               <g id="Group_7" inkscape:label="Group 7" transform="matrix(1.0, 0.0, 0.0, 1.0, 0.0, 0.0)" style="fill-opacity:1.0;fill:rgb(111, 60, 18);fill-rule:nonzero">
                  <path d="M 4.342,-209.221 C 0.43299999999999983,-209.779 2.565,-206.65400000000002 5.329,-206.062 C 8.093,-205.47 9.870999999999999,-208.431 4.342,-209.221 Z" id="path_17" inkscape:label="Path 1" style="fill-opacity:1.0;fill:rgb(111, 60, 18);fill-rule:nonzero"/>
               </g>
               <g id="g_18" inkscape:label="Group 6" transform="matrix(1.0, 0.0, 0.0, 1.0, 0.0, 0.0)" style="fill-opacity:1.0;fill:rgb(111, 60, 18);fill-rule:nonzero">
                  <path d="M -32.06,-214.692 C -34.759,-215.21800000000002 -35.929,-210.42000000000002 -34.061,-210.054 C -32.193,-209.688 -29.361000000000004,-214.166 -32.06,-214.692 Z" id="path_19" inkscape:label="Path 1" style="fill-opacity:1.0;fill:rgb(111, 60, 18);fill-rule:nonzero"/>
               </g>
               <g id="g_20" inkscape:label="Group 5" transform="matrix(1.0, 0.0, 0.0, 1.0, 0.0, 0.0)" style="fill-opacity:1.0;fill:rgb(111, 60, 18);fill-rule:nonzero">
                  <path d="M -14.474,-198.707 C -17.245,-198.296 -14.353,-190.487 -11.275,-192.051 C -8.197000000000001,-193.61499999999998 -8.634,-199.573 -14.474,-198.707 Z" id="path_21" inkscape:label="Path 1" style="fill-opacity:1.0;fill:rgb(111, 60, 18);fill-rule:nonzero"/>
               </g>
               <g id="g_22" inkscape:label="Group 4" transform="matrix(1.0, 0.0, 0.0, 1.0, 0.0, 0.0)" style="fill-opacity:1.0;fill:rgb(111, 60, 18);fill-rule:nonzero">
                  <path d="M -31.86,-199.71 C -33.703,-200.907 -38.02,-202.056 -38.411,-199.71 C -38.802,-197.364 -28.047,-197.233 -31.86,-199.71 Z" id="path_23" inkscape:label="Path 1" style="fill-opacity:1.0;fill:rgb(111, 60, 18);fill-rule:nonzero"/>
               </g>
               <g id="g_24" inkscape:label="Group 3" transform="matrix(1.0, 0.0, 0.0, 1.0, 0.0, 0.0)" style="fill-opacity:1.0;fill:rgb(111, 60, 18);fill-rule:nonzero">
                  <path d="M -2.484,-221.006 C -6.662,-222.229 -8.874,-217.82 -6.581,-216.12 C -4.288,-214.42000000000002 1.87,-219.731 -2.484,-221.006 Z" id="path_25" inkscape:label="Path 1" style="fill-opacity:1.0;fill:rgb(111, 60, 18);fill-rule:nonzero"/>
               </g>
               <g id="g_26" inkscape:label="Group 2" transform="matrix(1.0, 0.0, 0.0, 1.0, 0.0, 0.0)" style="fill-opacity:1.0;fill:rgb(111, 60, 18);fill-rule:nonzero">
                  <path d="M 13.362,-199.713 C 11.269,-200.227 9.053,-197.316 13.83,-195.953 C 18.607,-194.59 21.131,-197.80599999999998 13.362,-199.713 Z" id="path_27" inkscape:label="Path 1" style="fill-opacity:1.0;fill:rgb(111, 60, 18);fill-rule:nonzero"/>
               </g>
               <g id="g_28" inkscape:label="Group 1" transform="matrix(1.0, 0.0, 0.0, 1.0, 0.0, 0.0)" style="fill-opacity:1.0;fill:rgb(111, 60, 18);fill-rule:nonzero">
                  <path d="M 17.751,-219.243 C 15.290000000000001,-220.795 14.806999999999999,-215.954 16.552,-214.291 C 18.297,-212.628 23.677,-215.504 17.751,-219.243 Z" id="path_29" inkscape:label="Path 1" style="fill-opacity:1.0;fill:rgb(111, 60, 18);fill-rule:nonzero"/>
               </g>
            </g>
            <g inkscape:groupmode="layer" id="g_30" inkscape:label="Group 3" transform="matrix(1.0, 0.0, 0.0, 1.0, 0.0, 0.0)" opacity="0.4" style="fill-opacity:1.0;fill:rgb(97, 61, 33);fill-rule:nonzero">
               <path d="M -16.099,-191.222 C -15.504,-191.14000000000001 -32.709,-188.312 -37.299,-188.512 C -40.649,-188.662 -50.259,-200.388 -42.619,-217.512 C -40.36,-222.576 -28.444000000000003,-230.215 -8.659,-223.172 C -24.393,-226.01 -31.559,-193.345 -16.099,-191.222 Z" id="path_31" inkscape:label="Path 1" style="fill-opacity:1.0;fill:rgb(97, 61, 33);fill-rule:nonzero"/>
            </g>
            <g inkscape:groupmode="layer" id="g_32" inkscape:label="Group 2" transform="matrix(1.0, 0.0, 0.0, 1.0, 0.0, 0.0)" style="stroke:rgb(142, 88, 31);stroke-opacity:1.0;stroke-width:8.0;stroke-miterlimit:0;stroke-linecap:round;stroke-linejoin:round">
               <path d="M 23.307,-217.512 C 21.235,-222.657 16.408,-227.167 -9.654,-227.167 C -35.716,-227.167 -40.544,-222.657 -42.616,-217.512 C -44.002,-214.071 -44.5,-202.422 -43.719,-194.587 C -43.386,-191.24599999999998 -40.648999999999994,-188.66199999999998 -37.294,-188.515 C -30.846999999999998,-188.23299999999998 8.028999999999998,-187.39499999999998 17.987,-188.511 C 21.322999999999997,-188.885 24.077,-191.242 24.41,-194.582 C 25.192,-202.417 24.692999999999998,-214.07 23.307,-217.512 Z" id="path_33" inkscape:label="Path 1" style=""/>
            </g>
            <g inkscape:groupmode="layer" id="g_34" inkscape:label="Group 1" transform="matrix(1.0, 0.0, 0.0, 1.0, 0.0, 0.0)" style="stroke:rgb(102, 69, 31);stroke-opacity:1.0;stroke-width:8.0;stroke-miterlimit:0;stroke-linecap:round;stroke-linejoin:round">
               <path d="M -9.654,-227.167 C -35.716,-227.167 -40.544,-222.657 -42.616,-217.512 C -44.002,-214.071 -44.5,-202.422 -43.719,-194.587 C -43.386,-191.24599999999998 -40.648999999999994,-188.66199999999998 -37.294,-188.515 C -30.846999999999998,-188.23299999999998 3.273999999999999,-187.505 17.987,-188.511 " id="path_35" inkscape:label="Path 1" style=""/>
            </g>
         </g>
      </g>
      <g inkscape:groupmode="layer" id="Null_1" inkscape:label="Null 1" transform="matrix(1.0, 0.0, 0.0, 1.0, 85.49100000000001, 86.471)" opacity="1">
         <g inkscape:groupmode="layer" id="BOTTLE" inkscape:label="BOTTLE" transform="matrix(0.7071067811865476, -0.7071067811865476, 0.7071067811865476, 0.7071067811865476, -12.371377618693145, -28.596008984003603)" style="">
            <g inkscape:groupmode="layer" id="g_36" inkscape:label="Group 4" transform="matrix(1.0, 0.0, 0.0, 1.0, 0.0, 0.0)" style="">
               <g id="g_37" inkscape:label="Group 4" transform="matrix(1.0, 0.0, 0.0, 1.0, 0.0, 0.0)" style="">
                  <g id="g_38" inkscape:label="Group 2" transform="matrix(1.0, 0.0, 0.0, 1.0, 0.0, 0.0)" style="">
                     <g id="g_39" inkscape:label="Group 1" transform="matrix(1.0, 0.0, 0.0, 1.0, 0.0, 0.0)" style="fill-opacity:1.0;fill:rgb(247, 240, 226);fill-rule:nonzero;stroke:rgb(205, 194, 179);stroke-opacity:1.0;stroke-width:5.0;stroke-miterlimit:0;stroke-linecap:round;stroke-linejoin:round">
                        <path d="M 93.758,-182.421 C 94.42099999999999,-186.641 80.403,-191.218 76.334,-187.583 C 72.265,-183.948 91.661,-169.08499999999998 93.758,-182.421 Z" id="path_40" inkscape:label="Path 1" style="fill-opacity:1.0;fill:rgb(247, 240, 226);fill-rule:nonzero"/>
                     </g>
                  </g>
                  <g id="g_41" inkscape:label="Group 1" transform="matrix(1.0, 0.0, 0.0, 1.0, 0.0, 0.0)" opacity="0.4" style="stroke:rgb(143, 149, 132);stroke-opacity:1.0;stroke-width:5.0;stroke-miterlimit:0;stroke-linecap:round;stroke-linejoin:round">
                     <path d="M 76.334,-187.583 C 73.943,-185.447 79.65299999999999,-179.43599999999998 85.195,-177.545 " id="path_42" inkscape:label="Path 1" style=""/>
                  </g>
               </g>
            </g>
            <g inkscape:groupmode="layer" id="Foam_FAR" inkscape:label="Foam FAR" transform="matrix(1.0, 0.0, 0.0, 1.0, 0.0, 0.0)" style="">
               <g id="g_43" inkscape:label="Group 1" transform="matrix(1.0, 0.0, 0.0, 1.0, 0.0, 0.0)" style="fill-opacity:1.0;fill:rgb(162, 183, 166);fill-rule:nonzero;stroke:rgb(137, 160, 147);stroke-opacity:1.0;stroke-width:5.0;stroke-miterlimit:0;stroke-linecap:round;stroke-linejoin:round">
                  <path d="M 12.752,-113.957 C 12.752,-113.957 -5.088000000000001,-130.957 3.046,-163.072 C 11.41,-196.094 -33.093,-186.898 -25.434,-163.072 C -21.384,-150.473 -21.68,-123.78899999999999 -32.06,-111.499 C -45.391000000000005,-95.71499999999999 21.122,-88.532 12.752,-113.957 Z" id="path_44" inkscape:label="Path 1" style="fill-opacity:1.0;fill:rgb(162, 183, 166);fill-rule:nonzero"/>
               </g>
            </g>
            <g inkscape:groupmode="layer" id="g_45" inkscape:label="Group 2" transform="matrix(1.0, 0.0, 0.0, 1.0, 0.0, 0.0)" style="">
               <g id="g_46" inkscape:label="Group 2" transform="matrix(1.0, 0.0, 0.0, 1.0, 0.0, 0.0)" style="fill-opacity:1.0;fill:rgb(162, 183, 166);fill-rule:nonzero;stroke:rgb(143, 149, 132);stroke-opacity:1.0;stroke-width:5.0;stroke-miterlimit:0;stroke-linecap:round;stroke-linejoin:round">
                  <path d="M -50.389,-146.01 C -54.615,-153.63899999999998 -68.10600000000001,-167.549 -80.072,-159.857 C -85.741,-156.213 -81.29899999999999,-145.763 -70.258,-147.317 C -54.730999999999995,-149.502 -52.137,-142.298 -43.923,-131.386 C -43.923,-131.386 -50.389,-146.01 -50.389,-146.01 Z" id="path_47" inkscape:label="Path 1" style="fill-opacity:1.0;fill:rgb(162, 183, 166);fill-rule:nonzero"/>
               </g>
            </g>
            <g inkscape:groupmode="layer" id="Foam_FRONT_2" inkscape:label="Foam FRONT 2" transform="matrix(1.0, 0.0, 0.0, 1.0, 0.0, 0.0)" style="">
               <g id="g_48" inkscape:label="Group 5" transform="matrix(1.0, 0.0, 0.0, 1.0, 0.0, 0.0)" style="fill-opacity:1.0;fill:rgb(247, 240, 226);fill-rule:nonzero">
                  <path d="M -12.601,-71.879 C -39.921,-72.426 -43.815,-96.857 -39.985,-113.27 C -36.155,-129.683 -56.397999999999996,-141.72 -54.757,-159.774 C -53.949,-168.662 -49.877,-173.32500000000002 -45.085,-172.723 C -33.047,-171.21200000000002 -43.682,-137.587 -27.402,-126.401 C -16.507,-118.91499999999999 -17.795,-138.078 -20.263,-148.352 C -24.03,-164.034 -43.556999999999995,-178.969 -33.727,-188.224 C -29.331999999999997,-192.362 -23.365000000000002,-186.319 -21.079,-184.101 C -11.055000000000001,-174.375 -14.067,-118.847 1.689,-116.553 C 9.971,-115.347 14.545,-131.561 15.328,-148.512 C 16.203,-167.436 24.705,-175.662 29.497,-173.452 C 43.022999999999996,-167.215 15.827,-152.40800000000002 19.555,-109.441 C 20.02,-104.07900000000001 17.58,-71.275 -12.601,-71.879 Z" id="path_49" inkscape:label="Path 1" style="fill-opacity:1.0;fill:rgb(247, 240, 226);fill-rule:nonzero"/>
               </g>
               <g id="g_50" inkscape:label="Group 4" transform="matrix(1.0, 0.0, 0.0, 1.0, 0.0, 0.0)" opacity="0.5" style="fill-opacity:1.0;fill:rgb(162, 183, 166);fill-rule:nonzero">
                  <path d="M -33.837,-80.041 C -40.019000000000005,-86.24799999999999 -43.815,-96.863 -39.982,-113.268 C -36.157,-129.68 -56.4,-141.722 -54.753,-159.775 C -53.954,-168.663 -47.888,-175.73399999999998 -44.047,-171.938 C -53.271,-167.33399999999997 -45.705,-135.416 -27.402,-126.399 C -15.541,-120.556 -17.793,-138.074 -20.261,-148.348 C -23.945,-163.67100000000002 -41.24,-176.852 -32.96,-186.15 C -32.96,-186.15 -32.953,-186.142 -32.953,-186.142 C -32.953,-186.142 -29.847,-187.661 -23.86,-177.94 C -16.717,-166.341 -11.786999999999999,-141.34199999999998 -16.705,-117.848 C -22.491,-90.205 4.7989999999999995,-77.991 17.718,-97.203 C 6.6419999999999995,-60.686 -25.889000000000003,-72.06099999999999 -33.837,-80.041 Z" id="path_51" inkscape:label="Path 1" style="fill-opacity:1.0;fill:rgb(162, 183, 166);fill-rule:nonzero"/>
               </g>
               <g id="g_52" inkscape:label="Group 3" transform="matrix(1.0, 0.0, 0.0, 1.0, 0.0, 0.0)" style="stroke:rgb(197, 185, 175);stroke-opacity:1.0;stroke-width:5.0;stroke-miterlimit:0;stroke-linecap:round;stroke-linejoin:round">
                  <path d="M -12.601,-71.879 C -25.770000000000003,-71.644 -30.314999999999998,-75.58200000000001 -33.833,-80.043 C -39.256,-86.921 -43.815,-96.857 -39.985,-113.27 C -36.155,-129.683 -56.397999999999996,-141.72 -54.757,-159.774 C -53.949,-168.662 -49.883,-173.275 -45.085,-172.723 C -35.66,-171.638 -39.391,-153.096 -36.44,-141.233 C -35.019999999999996,-135.524 -31.628,-129.182 -27.402,-126.401 C -16.36,-119.134 -17.795,-138.078 -20.263,-148.352 C -24.03,-164.034 -43.92399999999999,-179.37599999999998 -33.727,-188.224 C -23.502999999999997,-197.095 -14.690999999999999,-172.565 -13.308,-161.256 C -12.094999999999999,-151.336 -10.241999999999999,-116.072 1.689,-116.553 C 10.051,-116.89 14.545,-131.561 15.328,-148.512 C 16.203,-167.436 24.305,-174.396 29.497,-173.452 C 35.253,-172.405 33.263,-165.964 27.376,-154.236 C 19.323,-138.19199999999998 20.608,-126.843 19.555,-109.441 C 19.23,-104.069 17.580999999999996,-72.418 -12.601,-71.879 Z" id="path_53" inkscape:label="Path 1" style=""/>
               </g>
               <g id="g_54" inkscape:label="Group 2" transform="matrix(1.0, 0.0, 0.0, 1.0, 0.0, 0.0)" style="">
                  <g id="g_55" inkscape:label="Group 3" transform="matrix(1.0, 0.0, 0.0, 1.0, 0.0, 0.0)" opacity="0.6" style="stroke:rgb(137, 160, 147);stroke-opacity:1.0;stroke-width:5.0;stroke-miterlimit:0;stroke-linecap:round;stroke-linejoin:round">
                     <path d="M -27.402,-126.401 C -16.36,-119.134 -17.795,-138.078 -20.263,-148.352 C -24.03,-164.034 -43.556999999999995,-178.969 -33.727,-188.224 " id="path_56" inkscape:label="Path 1" style=""/>
                  </g>
                  <g id="g_57" inkscape:label="Group 2" transform="matrix(1.0, 0.0, 0.0, 1.0, 0.0, 0.0)" opacity="0.6" style="stroke:rgb(137, 160, 147);stroke-opacity:1.0;stroke-width:5.0;stroke-miterlimit:0;stroke-linecap:round;stroke-linejoin:round">
                     <path d="M -7.335,-126.891 C -4.916,-120.117 -1.806,-115.854 1.689,-116.553 C 9.896,-118.194 14.545,-131.561 15.328,-148.512 C 16.203,-167.436 24.305,-174.396 29.497,-173.452 " id="path_58" inkscape:label="Path 1" style=""/>
                  </g>
                  <g id="g_59" inkscape:label="Group 1" transform="matrix(1.0, 0.0, 0.0, 1.0, 0.0, 0.0)" style="stroke:rgb(143, 149, 132);stroke-opacity:1.0;stroke-width:5.0;stroke-miterlimit:0;stroke-linecap:round;stroke-linejoin:round">
                     <path d="M -12.601,-71.879 C -35.06,-69.039 -45.711,-93.124 -39.985,-113.27 C -35.377,-129.482 -56.397999999999996,-141.72 -54.757,-159.774 C -54.068,-167.352 -51.154,-171.954 -46.191,-172.681 " id="path_60" inkscape:label="Path 1" style=""/>
                  </g>
               </g>
               <g id="g_61" inkscape:label="Group 1" transform="matrix(1.0, 0.0, 0.0, 1.0, 0.0, 0.0)" style="">
                  <g id="g_62" inkscape:label="Group 2" transform="matrix(1.0, 0.0, 0.0, 1.0, 0.0, 0.0)" opacity="0.3" style="fill-opacity:1.0;fill:rgb(203, 187, 170);fill-rule:nonzero">
                     <path d="M -2.476,-107.208 C -6.704,-112.252 -12.347,-108.213 -8.847,-99.526 C -5.347999999999999,-90.839 7.796,-94.953 -2.476,-107.208 Z" id="path_63" inkscape:label="Path 1" style="fill-opacity:1.0;fill:rgb(203, 187, 170);fill-rule:nonzero"/>
                  </g>
                  <g id="g_64" inkscape:label="Group 1" transform="matrix(1.0, 0.0, 0.0, 1.0, 0.0, 0.0)" opacity="0.3" style="fill-opacity:1.0;fill:rgb(203, 187, 170);fill-rule:nonzero">
                     <path d="M 7.098,-108.185 C 4.397,-108.426 2.8840000000000003,-104.28 6.323,-102.327 C 9.762,-100.374 12.571,-107.697 7.098,-108.185 Z" id="path_65" inkscape:label="Path 1" style="fill-opacity:1.0;fill:rgb(203, 187, 170);fill-rule:nonzero"/>
                  </g>
               </g>
            </g>
            <g inkscape:groupmode="layer" id="g_66" inkscape:label="Group 3" transform="matrix(1.0, 0.0, 0.0, 1.0, 0.0, 0.0)" style="">
               <g id="g_67" inkscape:label="Group 3" transform="matrix(1.0, 0.0, 0.0, 1.0, 0.0, 0.0)" style="fill-opacity:1.0;fill:rgb(224, 216, 204);fill-rule:nonzero;stroke:rgb(193, 187, 178);stroke-opacity:1.0;stroke-width:5.0;stroke-miterlimit:0;stroke-linecap:round;stroke-linejoin:round">
                  <path d="M -82.592,-186.726 C -76.328,-188.613 -91.76299999999999,-202.579 -97.984,-196.358 C -102.859,-191.483 -92.63,-183.702 -82.592,-186.726 Z" id="path_68" inkscape:label="Path 1" style="fill-opacity:1.0;fill:rgb(224, 216, 204);fill-rule:nonzero"/>
               </g>
            </g>
            <g inkscape:groupmode="layer" id="g_69" inkscape:label="Group 5" transform="matrix(1.0, 0.0, 0.0, 1.0, 0.0, 0.0)" style="">
               <g id="g_70" inkscape:label="Group 5" transform="matrix(1.0, 0.0, 0.0, 1.0, 0.0, 0.0)" style="">
                  <g id="g_71" inkscape:label="Group 2" transform="matrix(1.0, 0.0, 0.0, 1.0, 0.0, 0.0)" style="fill-opacity:1.0;fill:rgb(224, 216, 204);fill-rule:nonzero;stroke:rgb(193, 187, 178);stroke-opacity:1.0;stroke-width:5.0;stroke-miterlimit:0;stroke-linecap:round;stroke-linejoin:round">
                     <path d="M -78.8,-95.535 C -76.83,-98.776 -98.1,-99.154 -100.512,-90.309 C -102.924,-81.463 -91.264,-75.029 -78.8,-95.535 Z" id="path_72" inkscape:label="Path 1" style="fill-opacity:1.0;fill:rgb(224, 216, 204);fill-rule:nonzero"/>
                  </g>
                  <g id="g_73" inkscape:label="Group 1" transform="matrix(1.0, 0.0, 0.0, 1.0, 0.0, 0.0)" opacity="0.4" style="stroke:rgb(143, 149, 132);stroke-opacity:1.0;stroke-width:5.0;stroke-miterlimit:0;stroke-linecap:round;stroke-linejoin:round">
                     <path d="M -94.798,-95.784 C -97.589,-94.614 -99.822,-92.839 -100.512,-90.309 C -102.17,-84.228 -97.178,-79.28699999999999 -89.846,-83.455 " id="path_74" inkscape:label="Path 1" style=""/>
                  </g>
               </g>
            </g>
            <g inkscape:groupmode="layer" id="Group_27" inkscape:label="Group 27" transform="matrix(1.0, 0.0, 0.0, 1.0, 0.0, 0.0)" style="fill-opacity:1.0;fill:rgb(74, 129, 0);fill-rule:nonzero">
               <path d="M 54.424,72.107 C 42.684,41.525999999999996 -67.863,41.631 -79.603,72.212 C -91.34299999999999,102.793 -90.136,128.26 -89.223,151.212 C -88.192,177.131 -87.383,209.42600000000002 -79.954,220.019 C -72.04299999999999,231.3 46.865,231.195 54.776,219.914 C 62.204,209.321 63.014,177.026 64.045,151.107 C 64.958,128.155 66.164,102.688 54.424,72.107 Z" id="path_75" inkscape:label="Path 1" style="fill-opacity:1.0;fill:rgb(74, 129, 0);fill-rule:nonzero"/>
            </g>
            <g inkscape:groupmode="layer" id="Gradient_Big" inkscape:label="Gradient Big" transform="matrix(1.0, 0.0, 0.0, 1.0, 0.0, 0.0)" style="fill-opacity:1.0;fill:url(#Gradient_Fill_3);fill-rule:nonzero">
               <path d="M -45.669,-4.712 C -49.009,14.228000000000002 -65.92,42.44499999999999 -79.599,72.208 C -99.73400000000001,116.019 -87.379,209.428 -79.959,220.018 C -72.039,231.298 -51.259,239.768 -12.599,239.768 C 26.051,239.768 46.861,231.198 54.781,219.918 C 62.201,209.318 75.425,120.46600000000001 54.421,72.108 C 41.370999999999995,42.06400000000001 23.831,14.118000000000002 20.491,-4.822 C 20.491,-4.822 -45.669,-4.712 -45.669,-4.712 Z" id="path_76" inkscape:label="Path 1" style="fill-opacity:1.0;fill:url(#linearGradient_77);fill-rule:nonzero"/>
            </g>
            <g inkscape:groupmode="layer" id="Group_25" inkscape:label="Group 25" transform="matrix(1.0, 0.0, 0.0, 1.0, 0.0, 0.0)" style="fill-opacity:1.0;fill:rgb(32, 51, 31);fill-rule:nonzero">
               <path d="M 61.631,192.968 C 60.361,204.858 58.806,215.235 54.781,219.918 C 26.458,252.872 -63.345,241.204 -79.959,220.018 C -83.22,215.859 -83.36099999999999,201.19 -84.651,191.52 C -79.92099999999999,202.37 55.351,204.768 61.631,192.968 Z" id="path_78" inkscape:label="Path 1" style="fill-opacity:1.0;fill:rgb(32, 51, 31);fill-rule:nonzero"/>
            </g>
            <g inkscape:groupmode="layer" id="Group_24" inkscape:label="Group 24" transform="matrix(1.0, 0.0, 0.0, 1.0, 0.0, 0.0)" opacity="0.5" style="fill-opacity:1.0;fill:rgb(86, 101, 112);fill-rule:nonzero">
               <path d="M 24.621,210.818 C 26.404999999999998,219.88400000000001 26.073999999999998,232.82999999999998 16.971,235.998 C -8.25,242.56 -42.219,235.328 -42.219,235.328 C -42.219,235.328 -37.428,230.59799999999998 -39.169,214.158 C -31.568999999999996,214.85799999999998 14.960999999999999,212.858 24.621,210.818 Z" id="path_79" inkscape:label="Path 1" style="fill-opacity:1.0;fill:rgb(86, 101, 112);fill-rule:nonzero"/>
            </g>
            <g inkscape:groupmode="layer" id="Group_23" inkscape:label="Group 23" transform="matrix(1.0, 0.0, 0.0, 1.0, 0.0, 0.0)" opacity="0.3" style="fill-opacity:1.0;fill:rgb(255, 255, 255);fill-rule:nonzero">
               <path d="M -39.139,15.578 C -58.029,47.598 -77.009,85.188 -78.629,117.248 C -79.93900000000001,143.108 -78.009,222.548 -68.629,227.738 C -65.699,229.358 -75.819,225.918 -79.959,220.018 C -87.379,209.428 -96.166,112.923 -79.599,72.208 C -67.253,41.867 -49.009,14.228000000000002 -45.669,-4.712 C -42.379,-23.342 -34.04900000000001,6.947999999999999 -39.139,15.578 Z" id="path_80" inkscape:label="Path 1" style="fill-opacity:1.0;fill:rgb(255, 255, 255);fill-rule:nonzero"/>
            </g>
            <g inkscape:groupmode="layer" id="Group_22" inkscape:label="Group 22" transform="matrix(1.0, 0.0, 0.0, 1.0, 0.0, 0.0)" opacity="0.4" style="fill-opacity:1.0;fill:rgb(29, 49, 6);fill-rule:nonzero">
               <path d="M 13.962,15.578 C 32.852000000000004,47.598 51.832,85.188 53.452,117.248 C 54.762,143.108 52.832,222.548 43.452,227.738 C 69.297,218.989 61.318,177.005 64.042,151.208 C 71.669,78.968 23.832,14.228000000000002 20.492,-4.712 C 17.202,-23.342 8.872,6.947999999999999 13.962,15.578 Z" id="path_81" inkscape:label="Path 1" style="fill-opacity:1.0;fill:rgb(29, 49, 6);fill-rule:nonzero"/>
            </g>
            <g inkscape:groupmode="layer" id="Group_16" inkscape:label="Group 16" transform="matrix(1.0, 0.0, 0.0, 1.0, 0.0, 0.0)" style="stroke:rgb(29, 60, 29);stroke-opacity:1.0;stroke-width:8.0;stroke-miterlimit:0;stroke-linecap:round;stroke-linejoin:round">
               <path d="M -45.666,-4.715 C -49.006,14.228000000000002 -67.863,41.631 -79.603,72.212 C -91.34299999999999,102.793 -90.136,128.26 -89.223,151.212 C -88.192,177.131 -87.383,209.42600000000002 -79.954,220.019 C -72.04299999999999,231.3 -51.255,239.769 -12.601,239.769 C 26.053000000000004,239.769 46.865,231.195 54.776,219.914 C 62.204,209.321 63.014,177.026 64.045,151.107 C 64.958,128.155 66.164,102.688 54.424,72.107 C 42.684,41.525999999999996 23.828,14.123000000000001 20.488,-4.82 " id="path_82" inkscape:label="Path 1" style=""/>
            </g>
            <g inkscape:groupmode="layer" id="Group_15" inkscape:label="Group 15" transform="matrix(1.0, 0.0, 0.0, 1.0, 0.0, 0.0)" style="stroke:rgb(0, 49, 0);stroke-opacity:1.0;stroke-width:8.0;stroke-miterlimit:0;stroke-linecap:round;stroke-linejoin:round">
               <path d="M -43.557,-52.445 C -43.518,-51.496 -42.382,-23.337 -45.666,-4.715 C -49.006,14.228000000000002 -67.863,41.631 -79.603,72.212 C -91.34299999999999,102.793 -90.136,128.26 -89.223,151.212 C -88.192,177.131 -87.383,209.42600000000002 -79.954,220.019 C -72.04299999999999,231.3 -51.255,239.769 -12.601,239.769 C 26.053000000000004,239.769 46.865,231.195 54.776,219.914 " id="path_83" inkscape:label="Path 1" style=""/>
            </g>
            <g inkscape:groupmode="layer" id="Group_14" inkscape:label="Group 14" transform="matrix(1.0, 0.0, 0.0, 1.0, 0.0, 0.0)" style="stroke:rgb(18, 29, 5);stroke-opacity:1.0;stroke-width:8.0;stroke-miterlimit:0;stroke-linecap:round;stroke-linejoin:round">
               <path d="M -86.651,194.52 C -85.369,205.77200000000002 -83.35499999999999,215.17000000000002 -79.954,220.019 C -72.04299999999999,231.3 -51.255,239.769 -12.601,239.769 C 26.053000000000004,239.769 46.865,231.195 54.776,219.914 C 57.728,215.70499999999998 59.634,208.07 60.925,198.769 " id="path_84" inkscape:label="Path 1" style=""/>
            </g>
            <g inkscape:groupmode="layer" id="Shadow_Label" inkscape:label="Shadow Label" transform="matrix(1.0, 0.0, 0.0, 1.0, 0.0, 0.0)" opacity="0.4" style="fill-opacity:1.0;fill:rgb(0, 49, 0);fill-rule:nonzero">
               <path d="M 57.814,135.691 C 57.743,140.872 56.195,193.99099999999999 53.863,207.195 C 28.579,229.183 -41.777,230.951 -75.586,207.195 C -77.9,194.0 -79.449,140.899 -79.52,135.682 C -48.101,142.25099999999998 11.432000000000002,144.861 57.814,135.691 Z" id="path_85" inkscape:label="Path 1" style="fill-opacity:1.0;fill:rgb(0, 49, 0);fill-rule:nonzero"/>
            </g>
            <g inkscape:groupmode="layer" id="Label" inkscape:label="Label" transform="matrix(1.0, 0.0, 0.0, 1.0, 0.0, 0.0)" style="fill-opacity:1.0;fill:url(#Gradient_Fill_2);fill-rule:nonzero">
               <path d="M 57.814,137.691 C 57.743,142.872 56.195,193.99099999999999 53.863,207.195 C 53.863,207.195 34.391,220.774 -10.862,220.774 C -55.519,220.774 -75.586,207.195 -75.586,207.195 C -77.9,194.0 -79.449,142.899 -79.52,137.682 C -79.52,137.682 -54.754999999999995,147.44 -10.328,147.102 C 36.288,146.747 57.182,138.078 57.814,137.691 Z" id="path_86" inkscape:label="Path 1" style="fill-opacity:1.0;fill:url(#linearGradient_87);fill-rule:nonzero"/>
            </g>
            <g inkscape:groupmode="layer" id="Shine" inkscape:label="Shine" transform="matrix(1.0, 0.0, 0.0, 1.0, 0.0, 0.0)" style="">
               <g id="g_88" inkscape:label="Group 3" transform="matrix(1.0, 0.0, 0.0, 1.0, 0.0, 0.0)" opacity="0.2" style="fill-opacity:1.0;fill:rgb(255, 255, 255);fill-rule:nonzero">
                  <path d="M 35.599,63.066 C 29.004999999999995,45.69 14.501,28.659 12.498,42.504 C 10.495,56.349 24.846000000000004,96.913 36.651,96.479 C 48.456,96.045 40.931,77.116 35.599,63.066 Z" id="path_89" inkscape:label="Path 1" style="fill-opacity:1.0;fill:rgb(255, 255, 255);fill-rule:nonzero"/>
               </g>
               <g id="g_90" inkscape:label="Group 2" transform="matrix(1.0, 0.0, 0.0, 1.0, 0.0, 0.0)" opacity="0.66" style="stroke:rgb(255, 255, 255);stroke-opacity:1.0;stroke-width:6.0;stroke-miterlimit:0;stroke-linecap:round;stroke-linejoin:round">
                  <path d="M 27.615,62.904 C 28.636,65.805 29.741,69.262 30.865,73.31 " id="path_91" inkscape:label="Path 1" style=""/>
               </g>
            </g>
            <g inkscape:groupmode="layer" id="Top_Bottle" inkscape:label="Top Bottle" transform="matrix(1.0, 0.0, 0.0, 1.0, 0.0, 0.0)" style="">
               <g id="Group_21" inkscape:label="Group 21" transform="matrix(1.0, 0.0, 0.0, 1.0, 0.0, 0.0)" opacity="0.4" style="fill-opacity:1.0;fill:rgb(0, 49, 0);fill-rule:nonzero">
                  <path d="M -14.614,51.041 C -22.993000000000002,46.507 -47.78,29.695 -54.552,21.417 C -54.552,21.417 30.864,22.17 30.864,22.17 C 30.864,22.17 2.447000000000001,43.541999999999994 -9.151,50.858 C -10.807,51.903 -12.892000000000001,51.973 -14.614,51.041 Z" id="path_92" inkscape:label="Path 1" style="fill-opacity:1.0;fill:rgb(0, 49, 0);fill-rule:nonzero"/>
               </g>
               <g id="Gradient_Top" inkscape:label="Gradient Top" transform="matrix(1.0, 0.0, 0.0, 1.0, 0.0, 0.0)" style="fill-opacity:1.0;fill:url(#Gradient_Fill_4);fill-rule:nonzero">
                  <path d="M -14.614,46.041 C -22.993000000000002,41.507 -47.78,27.695 -54.552,19.417 C -54.552,19.417 -43.708000000000006,-7.817 -43.557,-27.458 C -43.406,-47.099 -47.919,-52.446 -32.991,-52.445 C -18.063,-52.444 18.337999999999997,-55.253 18.249,-48.224 C 18.16,-41.19499999999999 17.351,-15.715 20.488,-4.82 C 23.625,6.074999999999999 30.864,20.17 30.864,20.17 C 30.864,20.17 2.447000000000001,38.541999999999994 -9.151,45.858 C -10.807,46.903 -12.892000000000001,46.973 -14.614,46.041 Z" id="path_93" inkscape:label="Path 1" style="fill-opacity:1.0;fill:url(#linearGradient_94);fill-rule:nonzero"/>
               </g>
               <g id="Group_19" inkscape:label="Group 19" transform="matrix(1.0, 0.0, 0.0, 1.0, 0.0, 0.0)" opacity="0.05" style="fill-opacity:1.0;fill:rgb(255, 255, 255);fill-rule:nonzero">
                  <path d="M -45.768,27.063 C -45.768,27.063 -45.775,27.07 -45.775,27.07 C -49.565,24.312 -52.726,21.661 -54.557,19.419 C -54.557,19.419 -43.71,-7.818999999999999 -43.554,-27.462 C -43.413000000000004,-46.313 -47.563,-51.992 -34.694,-52.416 C -24.684000000000005,-5.9339999999999975 -45.768,27.063 -45.768,27.063 Z" id="path_95" inkscape:label="Path 1" style="fill-opacity:1.0;fill:rgb(255, 255, 255);fill-rule:nonzero"/>
               </g>
               <g id="Group_18" inkscape:label="Group 18" transform="matrix(1.0, 0.0, 0.0, 1.0, 0.0, 0.0)" opacity="0.1" style="fill-opacity:1.0;fill:rgb(164, 128, 80);fill-rule:nonzero">
                  <path d="M 30.861,20.168 C 30.861,20.168 26.491,22.997 20.474,26.865 C 20.205000000000002,26.285 10.235,4.420999999999999 8.786,-16.078 C 8.014999999999999,-26.96 7.775,-41.937 8.397,-53.067 C 13.898,-52.416 18.593,-50.431 18.247,-48.223 C 12.375,-10.701999999999998 30.861,20.168 30.861,20.168 Z" id="path_96" inkscape:label="Path 1" style="fill-opacity:1.0;fill:rgb(164, 128, 80);fill-rule:nonzero"/>
               </g>
               <g id="Group_17" inkscape:label="Group 17" transform="matrix(1.0, 0.0, 0.0, 1.0, 0.0, 0.0)" opacity="0.3" style="fill-opacity:1.0;fill:rgb(89, 68, 47);fill-rule:nonzero">
                  <path d="M -43.979,-55.321 C -44.824999999999996,-54.370999999999995 -44.825,-44.038 -41.874,-42.821 C -26.224000000000004,-36.367 9.817,-38.952 16.658,-42.821 C 19.437,-44.393 19.609,-54.370999999999995 18.763,-55.321 C 18.032,-56.161 -43.248,-56.161 -43.979,-55.321 Z" id="path_97" inkscape:label="Path 1" style="fill-opacity:1.0;fill:rgb(89, 68, 47);fill-rule:nonzero"/>
               </g>
               <g id="Group_13" inkscape:label="Group 13" transform="matrix(1.0, 0.0, 0.0, 1.0, 0.0, 0.0)" style="">
                  <g id="g_98" inkscape:label="Group 2" transform="matrix(1.0, 0.0, 0.0, 1.0, 0.0, 0.0)" style="stroke:rgb(164, 128, 80);stroke-opacity:1.0;stroke-width:8.0;stroke-miterlimit:10.0;stroke-linecap:butt;stroke-linejoin:miter">
                     <path d="M 18.374,-52.443 C 18.288,-50.293 17.281,-23.007 20.488,-4.82 C 21.712,2.122 25.021,10.202 29.299,19.157 " id="path_99" inkscape:label="Path 1" style=""/>
                  </g>
                  <g id="g_100" inkscape:label="Group 1" transform="matrix(1.0, 0.0, 0.0, 1.0, 0.0, 0.0)" style="stroke:rgb(89, 68, 47);stroke-opacity:1.0;stroke-width:8.0;stroke-miterlimit:10.0;stroke-linecap:butt;stroke-linejoin:miter">
                     <path d="M -54.552,19.417 C -50.238,10.399000000000001 -46.897,2.268 -45.666,-4.715 C -42.382,-23.337 -43.518,-51.496 -43.557,-52.445 " id="path_101" inkscape:label="Path 1" style=""/>
                  </g>
               </g>
               <g id="Group_12" inkscape:label="Group 12" transform="matrix(1.0, 0.0, 0.0, 1.0, 0.0, 0.0)" style="fill-opacity:1.0;fill:url(#Gradient_Fill_10);fill-rule:nonzero">
                  <path d="M 16.993,-85.662 C 16.993,-85.662 -42.209,-85.662 -42.209,-85.662 C -49.733000000000004,-85.774 -55.68,-56.667 -43.559,-52.442 C -39.113,-50.892 13.825,-51.117 18.343,-52.442 C 31.938000000000002,-56.429 26.281,-84.477 16.993,-85.662 Z" id="path_102" inkscape:label="Path 1" style="fill-opacity:1.0;fill:url(#linearGradient_103);fill-rule:nonzero"/>
               </g>
               <g id="Group_11" inkscape:label="Group 11" transform="matrix(1.0, 0.0, 0.0, 1.0, 0.0, 0.0)" opacity="0.7" style="fill-opacity:1.0;fill:rgb(0, 70, 0);fill-rule:nonzero">
                  <path d="M -8.559,-50.662 C -9.838999999999999,-50.652 -38.968999999999994,-51.394 -43.559,-52.442 C -50.44,-54.013 -54.86,-86.363 -42.209,-85.662 C -42.209,-85.662 -12.149,-84.952 -12.149,-84.952 C -12.149,-84.952 -23.789,-82.042 -23.039,-77.462 C -22.192,-72.293 -13.668999999999999,-69.33200000000001 10.351,-70.042 C 10.351,-70.042 -21.209,-63.212 -21.209,-63.212 C -21.209,-63.212 -28.749000000000002,-58.494 -14.169,-54.132 C -10.878,-53.147999999999996 -9.088999999999999,-52.502 -8.559,-50.662 Z" id="path_104" inkscape:label="Path 1" style="fill-opacity:1.0;fill:rgb(0, 70, 0);fill-rule:nonzero"/>
               </g>
               <g id="Group_10" inkscape:label="Group 10" transform="matrix(1.0, 0.0, 0.0, 1.0, 0.0, 0.0)" style="stroke:rgb(0, 49, 0);stroke-opacity:1.0;stroke-width:8.0;stroke-miterlimit:0;stroke-linecap:round;stroke-linejoin:round">
                  <path d="M 24.963,-78.972 C 24.255000000000003,-82.286 21.162999999999997,-85.662 16.993,-85.662 C 16.993,-85.662 7.283000000000001,-84.952 -12.587,-84.952 C -12.587,-84.952 -12.629,-84.952 -12.629,-84.952 C -32.499,-84.952 -42.209,-85.662 -42.209,-85.662 C -46.379000000000005,-85.662 -49.337,-82.255 -50.179,-78.972 C -51.442,-74.047 -48.789,-69.732 -48.219,-69.032 C -47.469,-68.122 -47.389,-66.782 -48.219,-65.942 C -49.179,-64.99199999999999 -50.248999999999995,-62.262 -49.769,-59.322 C -49.278999999999996,-56.332 -46.897999999999996,-53.76 -43.559,-52.442 C -35.298,-49.183 7.176,-48.873 18.343,-52.442 C 21.762,-53.535 24.063000000000002,-56.332 24.553,-59.322 C 25.033,-62.262 23.963,-64.99199999999999 23.003,-65.942 C 22.173000000000002,-66.782 22.253,-68.122 23.003,-69.032 C 23.573,-69.732 25.927,-74.46 24.963,-78.972 Z" id="path_105" inkscape:label="Path 1" style=""/>
               </g>
               <g id="g_106" inkscape:label="Group 7" transform="matrix(1.0, 0.0, 0.0, 1.0, 0.0, 0.0)" style="stroke:rgb(0, 49, 0);stroke-opacity:1.0;stroke-width:8.0;stroke-miterlimit:0;stroke-linecap:round;stroke-linejoin:round">
                  <path d="M 19.381,-67.365 C 19.381,-67.365 -8.979,-64.201 -45.778,-67.365 " id="path_107" inkscape:label="Path 1" style=""/>
               </g>
               <g id="g_108" inkscape:label="Group 5" transform="matrix(1.0, 0.0, 0.0, 1.0, 0.0, 0.0)" style="fill-opacity:1.0;fill:rgb(89, 68, 47);fill-rule:nonzero">
                  <path d="M -51.58,22.446 C -51.58,22.446 -58.135,17.68 -58.135,17.68 C -58.135,17.68 -50.599,20.414 -50.599,20.414 C -50.599,20.414 -51.58,22.446 -51.58,22.446 Z" id="path_109" inkscape:label="Path 1" style="fill-opacity:1.0;fill:rgb(89, 68, 47);fill-rule:nonzero"/>
               </g>
               <g id="g_110" inkscape:label="Group 4" transform="matrix(1.0, 0.0, 0.0, 1.0, 0.0, 0.0)" style="fill-opacity:1.0;fill:rgb(164, 128, 80);fill-rule:nonzero">
                  <path d="M 26.659,22.887 C 26.659,22.887 25.682,20.865 25.682,20.865 C 25.682,20.865 32.906,17.419 32.906,17.419 C 32.906,17.419 26.659,22.887 26.659,22.887 Z" id="path_111" inkscape:label="Path 1" style="fill-opacity:1.0;fill:rgb(164, 128, 80);fill-rule:nonzero"/>
               </g>
               <g id="White_Top_Lines" inkscape:label="White Top Lines" transform="matrix(1.0, 0.0, 0.0, 1.0, -0.49, 0.1010000000000133)" opacity="0.66" style="">
                  <g id="g_112" inkscape:label="Group 2" transform="matrix(1.0, 0.0, 0.0, 1.0, 0.0, 0.0)" style="stroke:rgb(255, 255, 255);stroke-opacity:1.0;stroke-width:6.0;stroke-miterlimit:0;stroke-linecap:round;stroke-linejoin:round">
                     <path d="M -3.228,-77.038 C -3.228,-77.038 0.4509999999999996,-76.843 5.375,-77.293 " id="path_113" inkscape:label="Path 1" style=""/>
                  </g>
                  <g id="g_114" inkscape:label="Group 1" transform="matrix(1.0, 0.0, 0.0, 1.0, 0.0, 0.0)" style="stroke:rgb(255, 255, 255);stroke-opacity:1.0;stroke-width:6.0;stroke-miterlimit:0;stroke-linecap:round;stroke-linejoin:round">
                     <path d="M 4.692,-59.555 C 4.692,-59.555 5.546,-59.589 5.546,-59.589 " id="path_115" inkscape:label="Path 1" style=""/>
                  </g>
               </g>
               <g id="g_116" inkscape:label="Group 3" transform="matrix(1.0, 0.0, 0.0, 1.0, 0.0, 0.0)" style="stroke:rgb(56, 86, 31);stroke-opacity:1.0;stroke-width:8.0;stroke-miterlimit:0;stroke-linecap:round;stroke-linejoin:round">
                  <path d="M 24.553,-59.322 C 25.033,-62.262 23.963,-64.99199999999999 23.003,-65.942 C 22.173000000000002,-66.782 22.253,-68.122 23.003,-69.032 C 23.573,-69.732 26.142,-74.127 24.963,-78.972 C 24.161,-82.265 21.162999999999997,-85.662 16.993,-85.662 C 16.993,-85.662 7.283000000000001,-84.952 -12.587,-84.952 C -12.587,-84.952 -12.629,-84.952 -12.629,-84.952 C -32.499,-84.952 -42.209,-85.662 -42.209,-85.662 " id="path_117" inkscape:label="Path 1" style=""/>
               </g>
            </g>
            <g inkscape:groupmode="layer" id="Splash_Line" inkscape:label="Splash Line" transform="matrix(0.565917090901958, 0.8244621557264258, -0.8244621557264258, 0.565917090901958, -36.071782216319136, 47.41041356417195)" opacity="0.0" style="">
               <g id="Ellipse_1" inkscape:label="Ellipse 1" transform="matrix(1.0, 0.0, 0.0, 1.0, -110.75, -99.75)" style="stroke:rgb(197, 185, 175);stroke-opacity:1.0;stroke-width:10;stroke-miterlimit:0;stroke-linecap:round;stroke-linejoin:round">
                  <path d="M -10.389,38.144 C -37.367000000000004,42.855999999999995 -64.221,20.785 -61.546,-7.858 C -58.839999999999996,-36.839999999999996 -33.944,-59.702 -7.686,-58.536 C 14.428999999999998,-57.554 30.016,-43.527 36.41,-29.655 " id="path_118" inkscape:label="Path 1" style=""/>
               </g>
            </g>
         </g>
      </g>
   </g>
</svg>
