<?xml version="1.0" ?>
<svg xmlns:inkscape="http://www.inkscape.org/namespaces/inkscape" xmlns:sodipodi="http://sodipodi.sourceforge.net/DTD/sodipodi-0.dtd" xmlns="http://www.w3.org/2000/svg" width="512" height="512" viewBox="0 0 512 512" version="1.1" id="cookies" sodipodi:docname="cookies" inkscape:export-xdpi="96" inkscape:export-ydpi="96" style="fill: none; stroke: none">
   <defs>
      <radialGradient cx="-14.699" cy="7.04" r="93.22" fx="-14.699" fy="7.04" id="Gradient_iAA9hEZobq" inkscape:label="Gradient_iAA9hEZobq" gradientUnits="userSpaceOnUse">
         <stop offset="0%" stop-color="rgb(202, 144, 84)" stop-opacity="1"/>
         <stop offset="50.0%" stop-color="rgb(203, 146, 85)" stop-opacity="0.5"/>
         <stop offset="100%" stop-color="rgb(205, 147, 87)" stop-opacity="0"/>
      </radialGradient>
      <radialGradient cx="-14.699" cy="7.04" r="93.22" fx="-14.699" fy="7.04" id="radialGradient_1" inkscape:label="Gradient_iAA9hEZobq" gradientUnits="userSpaceOnUse">
         <stop offset="0%" stop-color="rgb(202, 144, 84)" stop-opacity="1"/>
         <stop offset="50.0%" stop-color="rgb(203, 146, 85)" stop-opacity="0.5"/>
         <stop offset="100%" stop-color="rgb(205, 147, 87)" stop-opacity="0"/>
      </radialGradient>
      <linearGradient x1="-237.202" y1="0.495" x2="235.237" y2="0.495" id="Gradient_czyQhxrgNw" inkscape:label="Gradient_czyQhxrgNw" gradientUnits="userSpaceOnUse">
         <stop offset="0%" stop-color="rgb(132, 68, 34)" stop-opacity="1"/>
         <stop offset="33.1%" stop-color="rgb(128, 58, 31)" stop-opacity="1"/>
         <stop offset="66.3%" stop-color="rgb(123, 48, 27)" stop-opacity="1"/>
         <stop offset="81.6%" stop-color="rgb(138, 59, 28)" stop-opacity="1"/>
         <stop offset="96.89999999999999%" stop-color="rgb(153, 71, 29)" stop-opacity="1"/>
      </linearGradient>
      <linearGradient x1="-237.202" y1="0.495" x2="235.237" y2="0.495" id="linearGradient_3" inkscape:label="Gradient_czyQhxrgNw" gradientUnits="userSpaceOnUse">
         <stop offset="0%" stop-color="rgb(132, 68, 34)" stop-opacity="1"/>
         <stop offset="33.1%" stop-color="rgb(128, 58, 31)" stop-opacity="1"/>
         <stop offset="66.3%" stop-color="rgb(123, 48, 27)" stop-opacity="1"/>
         <stop offset="81.6%" stop-color="rgb(138, 59, 28)" stop-opacity="1"/>
         <stop offset="96.89999999999999%" stop-color="rgb(153, 71, 29)" stop-opacity="1"/>
      </linearGradient>
      <radialGradient cx="-0.81" cy="0.012" r="262.129" fx="-0.81" fy="0.012" id="Gradient_sEWzJAoKgB" inkscape:label="Gradient_sEWzJAoKgB" gradientUnits="userSpaceOnUse">
         <stop offset="36.1%" stop-color="rgb(212, 115, 56)" stop-opacity="1"/>
         <stop offset="68.0%" stop-color="rgb(196, 102, 45)" stop-opacity="1"/>
         <stop offset="100%" stop-color="rgb(180, 89, 34)" stop-opacity="1"/>
      </radialGradient>
      <radialGradient cx="-0.81" cy="0.012" r="262.129" fx="-0.81" fy="0.012" id="radialGradient_5" inkscape:label="Gradient_sEWzJAoKgB" gradientUnits="userSpaceOnUse">
         <stop offset="36.1%" stop-color="rgb(212, 115, 56)" stop-opacity="1"/>
         <stop offset="68.0%" stop-color="rgb(196, 102, 45)" stop-opacity="1"/>
         <stop offset="100%" stop-color="rgb(180, 89, 34)" stop-opacity="1"/>
      </radialGradient>
      <radialGradient cx="3.979" cy="-18.768" r="93.31400000000001" fx="3.979" fy="-18.768" id="Gradient_rW2uuVAiFg" inkscape:label="Gradient_rW2uuVAiFg" gradientUnits="userSpaceOnUse">
         <stop offset="0%" stop-color="rgb(202, 144, 84)" stop-opacity="1"/>
         <stop offset="50.0%" stop-color="rgb(203, 146, 85)" stop-opacity="0.5"/>
         <stop offset="100%" stop-color="rgb(205, 147, 87)" stop-opacity="0"/>
      </radialGradient>
      <radialGradient cx="3.979" cy="-18.768" r="93.31400000000001" fx="3.979" fy="-18.768" id="radialGradient_7" inkscape:label="Gradient_rW2uuVAiFg" gradientUnits="userSpaceOnUse">
         <stop offset="0%" stop-color="rgb(202, 144, 84)" stop-opacity="1"/>
         <stop offset="50.0%" stop-color="rgb(203, 146, 85)" stop-opacity="0.5"/>
         <stop offset="100%" stop-color="rgb(205, 147, 87)" stop-opacity="0"/>
      </radialGradient>
      <radialGradient cx="-18.263" cy="-29.03" r="483.22499999999997" fx="-18.263" fy="-29.03" id="Gradient_OpStHLIopK" inkscape:label="Gradient_OpStHLIopK" gradientUnits="userSpaceOnUse">
         <stop offset="36.1%" stop-color="rgb(202, 127, 60)" stop-opacity="0"/>
         <stop offset="57.599999999999994%" stop-color="rgb(162, 87, 44)" stop-opacity="0.5"/>
         <stop offset="79.2%" stop-color="rgb(122, 47, 28)" stop-opacity="1"/>
      </radialGradient>
      <radialGradient cx="-18.263" cy="-29.03" r="483.22499999999997" fx="-18.263" fy="-29.03" id="radialGradient_9" inkscape:label="Gradient_OpStHLIopK" gradientUnits="userSpaceOnUse">
         <stop offset="36.1%" stop-color="rgb(202, 127, 60)" stop-opacity="0"/>
         <stop offset="57.599999999999994%" stop-color="rgb(162, 87, 44)" stop-opacity="0.5"/>
         <stop offset="79.2%" stop-color="rgb(122, 47, 28)" stop-opacity="1"/>
      </radialGradient>
      <radialGradient cx="-2.892" cy="45.662" r="166.254" fx="-2.892" fy="45.662" id="Gradient_WI9wslVi5g" inkscape:label="Gradient_WI9wslVi5g" gradientUnits="userSpaceOnUse">
         <stop offset="58.8%" stop-color="rgb(217, 142, 67)" stop-opacity="0"/>
         <stop offset="79.4%" stop-color="rgb(211, 152, 84)" stop-opacity="0.5"/>
         <stop offset="100%" stop-color="rgb(205, 163, 101)" stop-opacity="1"/>
      </radialGradient>
      <radialGradient cx="-2.892" cy="45.662" r="166.254" fx="-2.892" fy="45.662" id="radialGradient_11" inkscape:label="Gradient_WI9wslVi5g" gradientUnits="userSpaceOnUse">
         <stop offset="58.8%" stop-color="rgb(217, 142, 67)" stop-opacity="0"/>
         <stop offset="79.4%" stop-color="rgb(211, 152, 84)" stop-opacity="0.5"/>
         <stop offset="100%" stop-color="rgb(205, 163, 101)" stop-opacity="1"/>
      </radialGradient>
      <radialGradient cx="-54.246" cy="-95.69" r="477.35448295789575" fx="-54.246" fy="-95.69" id="Gradient_LzcbyyrJdA" inkscape:label="Gradient_LzcbyyrJdA" gradientUnits="userSpaceOnUse">
         <stop offset="36.1%" stop-color="rgb(122, 47, 28)" stop-opacity="0"/>
         <stop offset="50.8%" stop-color="rgb(122, 47, 27)" stop-opacity="0.5"/>
         <stop offset="65.5%" stop-color="rgb(123, 48, 26)" stop-opacity="1"/>
      </radialGradient>
      <radialGradient cx="-54.246" cy="-95.69" r="477.35448295789575" fx="-54.246" fy="-95.69" id="radialGradient_13" inkscape:label="Gradient_LzcbyyrJdA" gradientUnits="userSpaceOnUse">
         <stop offset="36.1%" stop-color="rgb(122, 47, 28)" stop-opacity="0"/>
         <stop offset="50.8%" stop-color="rgb(122, 47, 27)" stop-opacity="0.5"/>
         <stop offset="65.5%" stop-color="rgb(123, 48, 26)" stop-opacity="1"/>
      </radialGradient>
      <radialGradient cx="-0.798" cy="-1.83" r="75.748" fx="-0.798" fy="-1.83" id="Gradient_tsbyKJj7Q4" inkscape:label="Gradient_tsbyKJj7Q4" gradientUnits="userSpaceOnUse">
         <stop offset="0%" stop-color="rgb(236, 155, 71)" stop-opacity="1"/>
         <stop offset="50.0%" stop-color="rgb(235, 150, 62)" stop-opacity="0.5"/>
         <stop offset="100%" stop-color="rgb(233, 145, 53)" stop-opacity="0"/>
      </radialGradient>
      <radialGradient cx="-0.798" cy="-1.83" r="75.748" fx="-0.798" fy="-1.83" id="radialGradient_15" inkscape:label="Gradient_tsbyKJj7Q4" gradientUnits="userSpaceOnUse">
         <stop offset="0%" stop-color="rgb(236, 155, 71)" stop-opacity="1"/>
         <stop offset="50.0%" stop-color="rgb(235, 150, 62)" stop-opacity="0.5"/>
         <stop offset="100%" stop-color="rgb(233, 145, 53)" stop-opacity="0"/>
      </radialGradient>
      <linearGradient x1="20.243" y1="-196.21" x2="-27.077" y2="152.555" id="Gradient_YYjH3fa0jN" inkscape:label="Gradient_YYjH3fa0jN" gradientUnits="userSpaceOnUse">
         <stop offset="0%" stop-color="rgb(255, 165, 81)" stop-opacity="0.8"/>
         <stop offset="50.0%" stop-color="rgb(255, 170, 91)" stop-opacity="0.4"/>
         <stop offset="100%" stop-color="rgb(255, 174, 100)" stop-opacity="0"/>
      </linearGradient>
      <radialGradient cx="-4.487" cy="4.763" r="67.0028294999547" fx="-4.487" fy="4.763" id="Gradient_raVbH1S59B" inkscape:label="Gradient_raVbH1S59B" gradientUnits="userSpaceOnUse">
         <stop offset="0%" stop-color="rgb(109, 59, 17)" stop-opacity="0.498"/>
         <stop offset="50.0%" stop-color="rgb(105, 58, 15)" stop-opacity="0.249"/>
         <stop offset="100%" stop-color="rgb(100, 57, 12)" stop-opacity="0"/>
      </radialGradient>
      <radialGradient cx="3.339" cy="10.418" r="64.07109848441807" fx="3.339" fy="10.418" id="Gradient_VuOPzIrSyg" inkscape:label="Gradient_VuOPzIrSyg" gradientUnits="userSpaceOnUse">
         <stop offset="0%" stop-color="rgb(109, 59, 17)" stop-opacity="0.498"/>
         <stop offset="50.0%" stop-color="rgb(105, 58, 15)" stop-opacity="0.249"/>
         <stop offset="100%" stop-color="rgb(100, 57, 12)" stop-opacity="0"/>
      </radialGradient>
      <radialGradient cx="-3.54" cy="-3.924" r="78.5929014224567" fx="-3.54" fy="-3.924" id="Gradient_ozWcn8dKWs" inkscape:label="Gradient_ozWcn8dKWs" gradientUnits="userSpaceOnUse">
         <stop offset="0%" stop-color="rgb(109, 59, 17)" stop-opacity="0.498"/>
         <stop offset="50.0%" stop-color="rgb(105, 58, 15)" stop-opacity="0.249"/>
         <stop offset="100%" stop-color="rgb(100, 57, 12)" stop-opacity="0"/>
      </radialGradient>
      <linearGradient x1="-129.543" y1="0.458" x2="129.154" y2="0.458" id="Gradient_j6oYNedlNj" inkscape:label="Gradient_j6oYNedlNj" gradientUnits="userSpaceOnUse">
         <stop offset="0%" stop-color="rgb(166, 6, 0)" stop-opacity="1"/>
         <stop offset="32.7%" stop-color="rgb(154, 4, 0)" stop-opacity="1"/>
         <stop offset="65.5%" stop-color="rgb(142, 1, 0)" stop-opacity="1"/>
         <stop offset="82.69999999999999%" stop-color="rgb(149, 8, 7)" stop-opacity="1"/>
         <stop offset="100%" stop-color="rgb(156, 15, 15)" stop-opacity="1"/>
      </linearGradient>
      <linearGradient x1="-129.543" y1="0.458" x2="129.154" y2="0.458" id="linearGradient_107" inkscape:label="Gradient_j6oYNedlNj" gradientUnits="userSpaceOnUse">
         <stop offset="0%" stop-color="rgb(166, 6, 0)" stop-opacity="1"/>
         <stop offset="32.7%" stop-color="rgb(154, 4, 0)" stop-opacity="1"/>
         <stop offset="65.5%" stop-color="rgb(142, 1, 0)" stop-opacity="1"/>
         <stop offset="82.69999999999999%" stop-color="rgb(149, 8, 7)" stop-opacity="1"/>
         <stop offset="100%" stop-color="rgb(156, 15, 15)" stop-opacity="1"/>
      </linearGradient>
      <radialGradient cx="-0.765" cy="0.014" r="265.161" fx="-0.765" fy="0.014" id="Gradient_yhzLhlSFdP" inkscape:label="Gradient_yhzLhlSFdP" gradientUnits="userSpaceOnUse">
         <stop offset="34.9%" stop-color="rgb(255, 2, 33)" stop-opacity="1"/>
         <stop offset="67.5%" stop-color="rgb(232, 1, 18)" stop-opacity="1"/>
         <stop offset="100%" stop-color="rgb(209, 0, 2)" stop-opacity="1"/>
      </radialGradient>
      <radialGradient cx="-0.765" cy="0.014" r="265.161" fx="-0.765" fy="0.014" id="radialGradient_110" inkscape:label="Gradient_yhzLhlSFdP" gradientUnits="userSpaceOnUse">
         <stop offset="34.9%" stop-color="rgb(255, 2, 33)" stop-opacity="1"/>
         <stop offset="67.5%" stop-color="rgb(232, 1, 18)" stop-opacity="1"/>
         <stop offset="100%" stop-color="rgb(209, 0, 2)" stop-opacity="1"/>
      </radialGradient>
      <radialGradient cx="-10.208" cy="-15.366" r="477.65900000000005" fx="-10.208" fy="-15.366" id="Gradient_w03SGR2qwT" inkscape:label="Gradient_w03SGR2qwT" gradientUnits="userSpaceOnUse">
         <stop offset="36.1%" stop-color="rgb(159, 0, 0)" stop-opacity="0"/>
         <stop offset="57.599999999999994%" stop-color="rgb(164, 1, 1)" stop-opacity="0.5"/>
         <stop offset="79.2%" stop-color="rgb(169, 1, 1)" stop-opacity="1"/>
      </radialGradient>
      <radialGradient cx="-10.208" cy="-15.366" r="477.65900000000005" fx="-10.208" fy="-15.366" id="radialGradient_114" inkscape:label="Gradient_w03SGR2qwT" gradientUnits="userSpaceOnUse">
         <stop offset="36.1%" stop-color="rgb(159, 0, 0)" stop-opacity="0"/>
         <stop offset="57.599999999999994%" stop-color="rgb(164, 1, 1)" stop-opacity="0.5"/>
         <stop offset="79.2%" stop-color="rgb(169, 1, 1)" stop-opacity="1"/>
      </radialGradient>
      <linearGradient x1="7.498" y1="45.582" x2="-10.99" y2="-21.668" id="Gradient_Bq4hLBA5zU" inkscape:label="Gradient_Bq4hLBA5zU" gradientUnits="userSpaceOnUse">
         <stop offset="58.8%" stop-color="rgb(253, 139, 130)" stop-opacity="0"/>
         <stop offset="79.4%" stop-color="rgb(254, 98, 95)" stop-opacity="0.5"/>
         <stop offset="100%" stop-color="rgb(255, 58, 60)" stop-opacity="1"/>
      </linearGradient>
      <linearGradient x1="7.498" y1="45.582" x2="-10.99" y2="-21.668" id="linearGradient_117" inkscape:label="Gradient_Bq4hLBA5zU" gradientUnits="userSpaceOnUse">
         <stop offset="58.8%" stop-color="rgb(253, 139, 130)" stop-opacity="0"/>
         <stop offset="79.4%" stop-color="rgb(254, 98, 95)" stop-opacity="0.5"/>
         <stop offset="100%" stop-color="rgb(255, 58, 60)" stop-opacity="1"/>
      </linearGradient>
      <linearGradient x1="-18.239" y1="0.342" x2="24.009" y2="-22.908" id="Gradient_Jbk5nHd8vm" inkscape:label="Gradient_Jbk5nHd8vm" gradientUnits="userSpaceOnUse">
         <stop offset="58.8%" stop-color="rgb(253, 139, 130)" stop-opacity="0"/>
         <stop offset="79.4%" stop-color="rgb(254, 98, 95)" stop-opacity="0.5"/>
         <stop offset="100%" stop-color="rgb(255, 58, 60)" stop-opacity="1"/>
      </linearGradient>
      <linearGradient x1="-18.239" y1="0.342" x2="24.009" y2="-22.908" id="linearGradient_120" inkscape:label="Gradient_Jbk5nHd8vm" gradientUnits="userSpaceOnUse">
         <stop offset="58.8%" stop-color="rgb(253, 139, 130)" stop-opacity="0"/>
         <stop offset="79.4%" stop-color="rgb(254, 98, 95)" stop-opacity="0.5"/>
         <stop offset="100%" stop-color="rgb(255, 58, 60)" stop-opacity="1"/>
      </linearGradient>
      <radialGradient cx="-18.389" cy="-18.176" r="235.64909609204955" fx="-18.389" fy="-18.176" id="Gradient_1vfwaBrtEf" inkscape:label="Gradient_1vfwaBrtEf" gradientUnits="userSpaceOnUse">
         <stop offset="36.1%" stop-color="rgb(161, 23, 23)" stop-opacity="0"/>
         <stop offset="50.8%" stop-color="rgb(162, 11, 11)" stop-opacity="0.5"/>
         <stop offset="65.5%" stop-color="rgb(164, 0, 0)" stop-opacity="1"/>
      </radialGradient>
      <radialGradient cx="-18.389" cy="-18.176" r="235.64909609204955" fx="-18.389" fy="-18.176" id="radialGradient_123" inkscape:label="Gradient_1vfwaBrtEf" gradientUnits="userSpaceOnUse">
         <stop offset="36.1%" stop-color="rgb(161, 23, 23)" stop-opacity="0"/>
         <stop offset="50.8%" stop-color="rgb(162, 11, 11)" stop-opacity="0.5"/>
         <stop offset="65.5%" stop-color="rgb(164, 0, 0)" stop-opacity="1"/>
      </radialGradient>
      <linearGradient x1="-12.197" y1="3.391" x2="10.415" y2="-2.791" id="Gradient_w6LNVksfSY" inkscape:label="Gradient_w6LNVksfSY" gradientUnits="userSpaceOnUse">
         <stop offset="0%" stop-color="rgb(255, 255, 255)" stop-opacity="0"/>
         <stop offset="50.0%" stop-color="rgb(255, 255, 255)" stop-opacity="0.5"/>
         <stop offset="100%" stop-color="rgb(255, 255, 255)" stop-opacity="1"/>
      </linearGradient>
      <linearGradient x1="-12.197" y1="3.391" x2="10.415" y2="-2.791" id="linearGradient_127" inkscape:label="Gradient_w6LNVksfSY" gradientUnits="userSpaceOnUse">
         <stop offset="0%" stop-color="rgb(255, 255, 255)" stop-opacity="0"/>
         <stop offset="50.0%" stop-color="rgb(255, 255, 255)" stop-opacity="0.5"/>
         <stop offset="100%" stop-color="rgb(255, 255, 255)" stop-opacity="1"/>
      </linearGradient>
      <linearGradient x1="-10.899" y1="5.171" x2="10.536" y2="-4.214" id="Gradient_Y4NP6dWkZp" inkscape:label="Gradient_Y4NP6dWkZp" gradientUnits="userSpaceOnUse">
         <stop offset="0%" stop-color="rgb(255, 255, 255)" stop-opacity="0"/>
         <stop offset="50.0%" stop-color="rgb(255, 255, 255)" stop-opacity="0.5"/>
         <stop offset="100%" stop-color="rgb(255, 255, 255)" stop-opacity="1"/>
      </linearGradient>
      <linearGradient x1="-10.899" y1="5.171" x2="10.536" y2="-4.214" id="linearGradient_130" inkscape:label="Gradient_Y4NP6dWkZp" gradientUnits="userSpaceOnUse">
         <stop offset="0%" stop-color="rgb(255, 255, 255)" stop-opacity="0"/>
         <stop offset="50.0%" stop-color="rgb(255, 255, 255)" stop-opacity="0.5"/>
         <stop offset="100%" stop-color="rgb(255, 255, 255)" stop-opacity="1"/>
      </linearGradient>
      <radialGradient cx="-0.12" cy="0.319" r="45.535999999999994" fx="-0.12" fy="0.319" id="Gradient_BjKtC99KGJ" inkscape:label="Gradient_BjKtC99KGJ" gradientUnits="userSpaceOnUse">
         <stop offset="0%" stop-color="rgb(154, 2, 2)" stop-opacity="1"/>
         <stop offset="50.0%" stop-color="rgb(156, 1, 1)" stop-opacity="0.5"/>
         <stop offset="100%" stop-color="rgb(158, 0, 0)" stop-opacity="0"/>
      </radialGradient>
      <radialGradient cx="-0.12" cy="0.319" r="45.535999999999994" fx="-0.12" fy="0.319" id="radialGradient_133" inkscape:label="Gradient_BjKtC99KGJ" gradientUnits="userSpaceOnUse">
         <stop offset="0%" stop-color="rgb(154, 2, 2)" stop-opacity="1"/>
         <stop offset="50.0%" stop-color="rgb(156, 1, 1)" stop-opacity="0.5"/>
         <stop offset="100%" stop-color="rgb(158, 0, 0)" stop-opacity="0"/>
      </radialGradient>
      <linearGradient x1="8.45" y1="10.943" x2="-15.55" y2="-8.124" id="Gradient_GQE1BbksIu" inkscape:label="Gradient_GQE1BbksIu" gradientUnits="userSpaceOnUse">
         <stop offset="0%" stop-color="rgb(255, 255, 255)" stop-opacity="0"/>
         <stop offset="50.0%" stop-color="rgb(255, 255, 255)" stop-opacity="0.5"/>
         <stop offset="100%" stop-color="rgb(255, 255, 255)" stop-opacity="1"/>
      </linearGradient>
      <linearGradient x1="-11.613" y1="3.71" x2="13.121" y2="-6.688" id="Gradient_HyFPjPkv1C" inkscape:label="Gradient_HyFPjPkv1C" gradientUnits="userSpaceOnUse">
         <stop offset="0%" stop-color="rgb(255, 255, 255)" stop-opacity="0"/>
         <stop offset="50.0%" stop-color="rgb(255, 255, 255)" stop-opacity="0.5"/>
         <stop offset="100%" stop-color="rgb(255, 255, 255)" stop-opacity="1"/>
      </linearGradient>
      <linearGradient x1="-17.974" y1="45.194" x2="2.98" y2="-31.904" id="Gradient_c45ol99q9U" inkscape:label="Gradient_c45ol99q9U" gradientUnits="userSpaceOnUse">
         <stop offset="0%" stop-color="rgb(255, 255, 255)" stop-opacity="0"/>
         <stop offset="50.0%" stop-color="rgb(255, 255, 255)" stop-opacity="0.5"/>
         <stop offset="100%" stop-color="rgb(255, 255, 255)" stop-opacity="1"/>
      </linearGradient>
      <linearGradient x1="18.136" y1="-194.186" x2="5.346" y2="138.522" id="Gradient_WQFhTtRB8I" inkscape:label="Gradient_WQFhTtRB8I" gradientUnits="userSpaceOnUse">
         <stop offset="0%" stop-color="rgb(154, 66, 0)" stop-opacity="1"/>
         <stop offset="50.0%" stop-color="rgb(125, 46, 0)" stop-opacity="1"/>
         <stop offset="100%" stop-color="rgb(97, 26, 0)" stop-opacity="1"/>
      </linearGradient>
      <linearGradient x1="176.498" y1="-0.195" x2="55.131" y2="54.805" id="Gradient_Y1eueHfTaw" inkscape:label="Gradient_Y1eueHfTaw" gradientUnits="userSpaceOnUse">
         <stop offset="0%" stop-color="rgb(237, 208, 192)" stop-opacity="1"/>
         <stop offset="50.0%" stop-color="rgb(236, 203, 188)" stop-opacity="1"/>
         <stop offset="100%" stop-color="rgb(236, 198, 184)" stop-opacity="1"/>
      </linearGradient>
      <linearGradient x1="-251.802" y1="109.405" x2="-198.481" y2="-94.663" id="Gradient_yV56atOn0m" inkscape:label="Gradient_yV56atOn0m" gradientUnits="userSpaceOnUse">
         <stop offset="0%" stop-color="rgb(255, 255, 255)" stop-opacity="0.298"/>
         <stop offset="27.3%" stop-color="rgb(255, 255, 255)" stop-opacity="0.649"/>
         <stop offset="54.50000000000001%" stop-color="rgb(255, 255, 255)" stop-opacity="1"/>
         <stop offset="77.3%" stop-color="rgb(255, 255, 255)" stop-opacity="0.649"/>
         <stop offset="100%" stop-color="rgb(255, 255, 255)" stop-opacity="0.298"/>
      </linearGradient>
      <linearGradient x1="-22.202" y1="-161.329" x2="76.981" y2="92.916" id="Gradient_FCkWnJw33O" inkscape:label="Gradient_FCkWnJw33O" gradientUnits="userSpaceOnUse">
         <stop offset="0%" stop-color="rgb(237, 208, 192)" stop-opacity="1"/>
         <stop offset="50.0%" stop-color="rgb(236, 203, 188)" stop-opacity="1"/>
         <stop offset="100%" stop-color="rgb(236, 198, 184)" stop-opacity="1"/>
      </linearGradient>
      <linearGradient x1="-113.976" y1="-2.735" x2="291.984" y2="168.059" id="Gradient_VF2oBgn4hY" inkscape:label="Gradient_VF2oBgn4hY" gradientUnits="userSpaceOnUse">
         <stop offset="0%" stop-color="rgb(255, 255, 255)" stop-opacity="0.298"/>
         <stop offset="27.3%" stop-color="rgb(255, 255, 255)" stop-opacity="0.649"/>
         <stop offset="54.50000000000001%" stop-color="rgb(255, 255, 255)" stop-opacity="1"/>
         <stop offset="77.3%" stop-color="rgb(255, 255, 255)" stop-opacity="0.649"/>
         <stop offset="100%" stop-color="rgb(255, 255, 255)" stop-opacity="0.298"/>
      </linearGradient>
   </defs>
   <sodipodi:namedview inkscape:pagecheckerboard="true" borderlayer="true" bordercolor="#666666" pagecolor="#ffffff"/>
   <g inkscape:groupmode="layer" id="main_herz" inkscape:label="main_herz" transform="matrix(1.0, 0.0, 0.0, 1.0, 206.10700000000003, 209.55633333333333)" opacity="1">
      <g inkscape:groupmode="layer" id="s" inkscape:label="s" transform="matrix(1.0, 0.0, 0.0, 1.0, -206.106, -213.223)" style="">
         <g id="Group_26" inkscape:label="Group 26" transform="matrix(1.0, 0.0, 0.0, 1.0, 330.699, 346.96)" style="fill-opacity:1.0;fill:url(#Gradient_iAA9hEZobq);fill-rule:nonzero">
            <path d="M 98.551,-18.56 C 142.915,-77.545 14.588000000000001,-84.369 -14.448,-86.412 C -64.32900000000001,-87.69300000000001 -108.944,-44.186 -107.699,5.79 C -110.064,58.251 -63.584,73.303 -80.049,86.44 C -45.526,86.303 57.483999999999995,30.323999999999998 91.026,-8.185 C 94.192,-11.82 96.739,-15.297999999999998 98.551,-18.56 Z" id="Path_1" inkscape:label="Path 1" style="fill-opacity:1.0;fill:url(#radialGradient_1);fill-rule:nonzero"/>
         </g>
         <g id="Group_24" inkscape:label="Group 24" transform="matrix(1.0, 0.0, 0.0, 1.0, 257.202, 272.505)" style="fill-opacity:1.0;fill:url(#Gradient_czyQhxrgNw);fill-rule:nonzero">
            <path d="M 48.959,-143.705 C 30.540000000000003,-132.585 8.443,-106.41999999999999 -2.618,-139.356 C -4.303,-152.279 -6.658000000000001,-158.49300000000002 -18.294,-182.455 C -41.183,-223.58800000000002 -129.358,-229.714 -170.901,-200.606 C -200.30100000000002,-182.555 -218.876,-156.072 -228.497,-122.505 C -250.592,-50.399 -222.482,33.843999999999994 -179.553,108.029 C -160.4,141.127 -138.298,172.223 -116.389,199.345 C -104.02199999999999,213.502 -90.687,221.112 -73.006,217.945 C -65.12,215.906 -57.241,213.62 -49.434,211.175 C -36.427,207.101 -23.619,202.587 -11.316,198.046 C 41.068999999999996,177.731 96.89699999999999,150.546 142.158,115.963 C 158.74599999999998,103.288 173.916,89.62 186.975,74.931 C 208.024,51.256 223.594,24.93 230.795,-4.155 C 230.795,-4.155 230.694,-4.155 230.694,-4.155 C 263.28999999999996,-112.166 145.075,-202.99200000000002 48.959,-143.705 Z" id="path_2" inkscape:label="Path 1" style="fill-opacity:1.0;fill:url(#linearGradient_3);fill-rule:nonzero"/>
         </g>
         <g id="Group_23" inkscape:label="Group 23" transform="matrix(1.0, 0.0, 0.0, 1.0, 251.81, 248.988)" style="fill-opacity:1.0;fill:url(#Gradient_sEWzJAoKgB);fill-rule:nonzero">
            <path d="M 148.49,-152.438 C 45.182,-187.653 18.156,-105.97400000000002 6.29,-139.336 C -16.405,-207.714 -107.37099999999998,-234.678 -166.861,-195.838 C -224.958,-156.402 -238.713,-93.013 -227.356,-26.894 C -220.915,10.603000000000002 -206.399,48.978 -187.313,84.361 C -169.446,114.303 -121.584,201.496 -90.012,212.514 C -81.519,214.61800000000002 -72.053,213.762 -62.344,211.483 C -44.471000000000004,207.288 -25.776,198.26999999999998 -10.81,194.015 C 52.317,169.511 120.55,134.831 168.261,88.979 C 176.014,81.528 183.225,73.782 189.784,65.737 C 201.10399999999998,51.852999999999994 210.483,37.077 217.355,21.389 C 220.916,13.258999999999999 223.804,4.885 225.94,-3.738 C 225.94,-3.738 225.84,-3.738 225.84,-3.738 C 244.868,-64.206 209.654,-135.399 148.49,-152.438 Z" id="path_4" inkscape:label="Path 1" style="fill-opacity:1.0;fill:url(#radialGradient_5);fill-rule:nonzero"/>
         </g>
         <g id="Group_22" inkscape:label="Group 22" transform="matrix(1.0, 0.0, 0.0, 1.0, 396.021, 160.768)" style="fill-opacity:1.0;fill:url(#Gradient_rW2uuVAiFg);fill-rule:nonzero">
            <path d="M -2.271,-66.018 C -26.616,-73.075 -50.924,-75.72 -73.271,-69.868 C -141.685,42.598 29.050000000000004,135.53300000000002 89.179,20.032 C 74.20400000000001,-22.135 44.324999999999996,-53.439 -2.271,-66.018 Z" id="path_6" inkscape:label="Path 1" style="fill-opacity:1.0;fill:url(#radialGradient_7);fill-rule:nonzero"/>
         </g>
         <g id="Group_21" inkscape:label="Group 21" transform="matrix(1.0, 0.0, 0.0, 1.0, 253.263, 277.03)" style="fill-opacity:1.0;fill:url(#Gradient_OpStHLIopK);fill-rule:nonzero">
            <path d="M 148.487,-152.43 C 44.93899999999999,-187.63 18.204,-105.923 6.287,-139.328 C -16.463,-207.755 -107.412,-234.64700000000002 -166.864,-195.83 C -215.937,-162.524 -233.37199999999999,-112.101 -230.754,-57.379 C -228.516,-10.600999999999999 -211.625,39.318 -187.316,84.369 C -169.465,114.194 -121.524,201.554 -90.015,212.472 C -86.919,213.255 -83.69099999999999,213.638 -80.365,213.699 C -77.72399999999999,213.74800000000002 -75.021,213.593 -72.276,213.272 C -63.781,212.279 -54.877,209.69699999999997 -46.103,206.652 C -33.543,202.29299999999998 -21.252000000000002,196.984 -10.813,194.023 C 39.629,174.442 93.321,148.377 137.203,115.304 C 156.082,101.075 173.14600000000002,85.55 187.353,68.685 C 205.767,46.826 219.383,22.718 225.937,-3.73 C 225.937,-3.73 225.837,-3.73 225.837,-3.73 C 244.86499999999998,-64.19800000000001 209.651,-135.39100000000002 148.487,-152.43 Z" id="path_8" inkscape:label="Path 1" style="fill-opacity:1.0;fill:url(#radialGradient_9);fill-rule:nonzero"/>
         </g>
         <g id="Group_20" inkscape:label="Group 20" transform="matrix(1.0, 0.0, 0.0, 1.0, 140.892, 112.338)" style="fill-opacity:1.0;fill:url(#Gradient_WI9wslVi5g);fill-rule:nonzero">
            <path d="M 118.514,13.937 C 110.133,7.864999999999999 108.222,-7.134 102.079,-16.041 C 66.413,-82.862 -33.494,-85.701 -82.956,-31.88 C -108.95700000000001,-5.683 -118.631,33.0 -118.513,69.473 C -118.513,69.473 118.514,13.937 118.514,13.937 Z" id="path_10" inkscape:label="Path 1" style="fill-opacity:1.0;fill:url(#radialGradient_11);fill-rule:nonzero"/>
         </g>
         <g id="Group_19" inkscape:label="Group 19" transform="matrix(1.0, 0.0, 0.0, 1.0, 290.246, 327.69)" style="fill-opacity:1.0;fill:url(#Gradient_LzcbyyrJdA);fill-rule:nonzero">
            <path d="M 186.321,-149.19 C 184.049,-153.382 181.60500000000002,-157.36499999999998 178.989,-161.14 C 178.989,-161.14 141.197,-212.652 141.197,-212.652 C 141.197,-212.652 111.334,-235.21800000000002 67.044,-235.954 C 22.753999999999998,-236.69 -25.22,-205.324 -25.22,-205.324 C -25.22,-205.324 -84.523,-279.127 -84.523,-279.127 C -84.523,-279.127 -177.741,-283.319 -177.741,-283.319 C -177.741,-283.319 -237.94,-246.869 -237.94,-246.869 C -237.94,-246.869 -264.699,-181.216 -264.699,-181.216 C -264.699,-181.216 -266.881,-115.996 -266.881,-115.996 C -266.881,-115.996 -267.819,-87.972 -267.819,-87.972 C -267.819,-87.972 -235.496,-5.668 -235.496,-5.668 C -235.496,-5.668 -201.218,59.21 -201.218,59.21 C -184.059,84.866 -147.921,150.324 -119.757,159.911 C -116.95100000000001,160.618 -114.03500000000001,160.998 -111.037,161.107 C -102.06700000000001,161.434 -92.35900000000001,159.34 -82.641,156.33 C -67.77000000000001,151.723 -52.877,144.97 -40.569,141.462 C 11.381999999999998,121.31799999999998 66.809,94.268 111.4,59.762 C 127.349,47.42 141.911,34.125 154.433,19.851 C 174.469,-2.9890000000000008 189.27900000000002,-28.335 196.181,-56.29 C 196.181,-56.29 196.08,-56.29 196.08,-56.29 C 205.288,-88.425 202.167,-120.366 186.321,-149.19 Z" id="path_12" inkscape:label="Path 1" style="fill-opacity:1.0;fill:url(#radialGradient_13);fill-rule:nonzero"/>
         </g>
         <g id="Group_18" inkscape:label="Group 18" transform="matrix(1.0, 0.0, 0.0, 1.0, 113.798, 109.83)" style="fill-opacity:1.0;fill:url(#Gradient_tsbyKJj7Q4);fill-rule:nonzero">
            <path d="M 53.102,49.77 C 82.858,21.730000000000004 82.293,-27.860000000000003 53.152,-56.38 C 22.693,-89.988 -17.599,-59.654 -49.299,-45.231 C -85.59,-26.990000000000002 -80.745,24.614000000000004 -53.397,49.77 C -25.406,78.887 25.162999999999997,78.95100000000001 53.102,49.77 Z" id="path_14" inkscape:label="Path 1" style="fill-opacity:1.0;fill:url(#radialGradient_15);fill-rule:nonzero"/>
         </g>
         <g id="Layer0_36_1_STROKES" inkscape:label="Layer0 36 1 STROKES" transform="matrix(1.0, 0.0, 0.0, 1.0, 252.757, 250.36)" style="stroke:url(#Gradient_YYjH3fa0jN);stroke-opacity:1.0;stroke-width:8.0;stroke-miterlimit:0;stroke-linecap:round;stroke-linejoin:round">
            <path d="M 230.793,-9.31 C 229.686,4.083 227.155,16.976 223.343,29.74 
M 223.343,29.74 C 217.97899999999998,45.58 211.25699999999998,59.830999999999996 202.343,74.94 
M 134.493,-147.71 C 183.82,-134.651 214.925,-98.251 227.143,-52.36 C 232.495,-22.438 231.027,4.7429999999999986 223.934,29.537 C 219.063,46.563 211.539,62.462999999999994 201.75,77.353 C 166.201,131.42399999999998 100.773,172.165 23.993,205.064 
M -180.682,118.64 C -204.214,81.98599999999999 -223.257,29.032 -229.008,-23.535 C -237.63400000000001,-102.38 -216.35399999999998,-180.356 -135.457,-201.162 C -77.746,-215.798 -16.788,-188.423 2.243,-133.21 C 14.018,-100.64200000000001 39.534000000000006,-180.09 140.943,-146.06 " id="path_16" inkscape:label="Path 1" style=""/>
         </g>
      </g>
      <g inkscape:groupmode="layer" id="Layer0_5_1_STROKES" inkscape:label="Layer0 5 1 STROKES" transform="matrix(1.0, 0.0, 0.0, 1.0, -206.106, -213.22400000000002)" style="">
         <g id="g_17" inkscape:label="Layer0 5 1 STROKES" transform="matrix(1.0, 0.0, 0.0, 1.0, 391.935, 158.413)" style="stroke:url(#Gradient_raVbH1S59B);stroke-opacity:1.0;stroke-width:6.0;stroke-miterlimit:0;stroke-linecap:round;stroke-linejoin:round">
            <path d="M -43.525,44.538 C -27.221999999999998,31.002999999999997 -10.36,0.4299999999999997 12.553,9.836 C 17.347,12.792 28.892,26.41 35.156,28.887 C 48.436,38.101 68.67699999999999,28.131 73.738,47.787 C 73.809,48.874 82.77300000000001,64.547 82.183,66.988 
M -99.451,-16.963 C -90.02199999999999,-21.089000000000002 -86.024,-20.278000000000002 -67.139,-22.763 C -39.971,-24.478 -25.608,-30.070999999999998 -6.915,-15.513 C 4.412,-22.012999999999998 10.733,-25.463 10.733,-25.463 C 16.830000000000002,-27.200000000000003 23.273,-15.588999999999999 29.695,-20.813 C 30.184,-20.945999999999998 39.42,-25.272 57.405,-33.788 
M -26.433,-27.213 C -25.82,-29.576 -3.29,-48.845 -2.717,-53.312 C -3.321,-55.858 -6.784,-61.23799999999999 -11.238,-66.987 
M -4.589,-65.237 C -4.960000000000001,-64.89999999999999 -5.33,-64.559 -5.701,-64.213 
M 46.685,-25.312 C 55.553000000000004,-12.475000000000001 96.619,25.819 99.451,46.762 " id="path_18" inkscape:label="Path 1" style=""/>
         </g>
      </g>
      <g inkscape:groupmode="layer" id="Layer0_10_1_STROKES" inkscape:label="Layer0 10 1 STROKES" transform="matrix(1.0, 0.0, 0.0, 1.0, -206.107, -213.223)" style="">
         <g id="g_19" inkscape:label="Layer0 10 1 STROKES" transform="matrix(1.0, 0.0, 0.0, 1.0, 112.661, 120.125)" style="stroke:url(#Gradient_VuOPzIrSyg);stroke-opacity:1.0;stroke-width:6.0;stroke-miterlimit:0;stroke-linecap:round;stroke-linejoin:round">
            <path d="M -60.486,-43.778 C -55.343999999999994,-38.902 -48.308,-28.286 -39.377,-11.933 
M -14.524,11.749 C -16.214,10.753 -26.817999999999998,-10.654 -30.174,-11.978 C -61.668,-3.317 -49.823,-2.0229999999999997 -82.497,-12.469 
M -21.695,70.265 C -23.0,62.099000000000004 -21.494,59.20100000000001 -19.531,44.084 C -15.187999999999999,22.747000000000003 -16.467,10.438 -1.218,-0.873 C -3.984,-10.953 -5.367,-16.527 -5.367,-16.527 C -5.499,-21.631 5.061,-24.128999999999998 2.255,-30.22 C 2.256,-30.724999999999998 -0.01499999999999968,-42.961 -4.556,-66.926 
M 2.255,-44.269 C 12.451999999999998,-47.961 56.47599999999999,-72.834 70.228,-70.048 
M 38.52,39.937 C 31.321000000000005,24.607999999999997 10.664000000000001,5.193999999999999 22.867,-10.551 C 26.186,-13.628 39.356,-19.678 42.624,-24.02 C 51.899,-31.441 49.84799999999999,-50.681 65.582,-49.799 C 66.457,-49.621 80.714,-53.304 82.497,-52.341 " id="path_20" inkscape:label="Path 1" style=""/>
         </g>
      </g>
      <g inkscape:groupmode="layer" id="Layer0_11_1_STROKES" inkscape:label="Layer0 11 1 STROKES" transform="matrix(1.0, 0.0, 0.0, 1.0, -206.10700000000003, -213.22400000000002)" style="">
         <g id="g_21" inkscape:label="Layer0 11 1 STROKES" transform="matrix(1.0, 0.0, 0.0, 1.0, 324.85, 355.462)" style="stroke:url(#Gradient_ozWcn8dKWs);stroke-opacity:1.0;stroke-width:6.0;stroke-miterlimit:0;stroke-linecap:round;stroke-linejoin:round">
            <path d="M -102.35,50.838 C -98.583,73.338 -95.75,83.888 -93.85,82.488 C -89.67599999999999,79.039 -55.619,8.973 -45.1,9.038 
M -35.35,-82.612 C -23.283,-67.012 -16.483,-54.528999999999996 -14.95,-45.162 
M -59.15,-24.912 C -58.332,-31.686 -65.62700000000001,-38.507 -67.049,-43.412 C -68.894,-47.498999999999995 -80.1,-71.359 -82.35,-74.262 
M 34.15,-54.462 C 27.482999999999997,-44.82900000000001 22.083,-37.029 17.95,-31.062 C 45.626,-17.805 86.39599999999999,-9.626999999999999 102.35,7.538 
M -11.8,1.588 C -13.353000000000002,-23.509999999999998 -0.2789999999999999,-4.988000000000001 7.651,-16.411 C 7.651,-16.411 11.35,-21.562 17.95,-31.062 C 7.649999999999999,-35.329 -3.317,-40.028999999999996 -14.95,-45.162 C -12.216999999999999,-28.095 -26.949999999999996,-21.345 -59.15,-24.912 C -60.161,-16.506 -73.276,-5.341 -58.999,-0.862 C -51.767,1.6709999999999998 -47.133,4.971 -45.1,9.038 C -32.588,20.267 -2.1940000000000004,41.999 0.05,63.838 " id="path_22" inkscape:label="Path 1" style=""/>
         </g>
      </g>
      <g inkscape:groupmode="layer" id="crc_-_14" inkscape:label="crc - 14" transform="matrix(1.0, 0.0, 0.0, 1.0, -206.107, -213.22400000000002)" style="">
         <g id="Group_17" inkscape:label="Group 17" transform="matrix(1.0, 0.0, 0.0, 1.0, 0.0, 0.0)" style="">
            <g id="Group_3" inkscape:label="Group 3" transform="matrix(1.0, 0.0, 0.0, 1.0, 99.6, 82.626)" opacity="0.41" style="fill-opacity:1.0;fill:rgb(97, 59, 26);fill-rule:nonzero">
               <path d="M 9,-0.026 C 9.2,-11.705 -9.218,-11.698 -9,-0.025 C -9.249,11.714 9.234,11.721 9,-0.026 " id="path_23" inkscape:label="Path 1" style="fill-opacity:1.0;fill:rgb(97, 59, 26);fill-rule:nonzero"/>
            </g>
            <g id="Group_2" inkscape:label="Group 2" transform="matrix(1.0, 0.0, 0.0, 1.0, 98.8, 76.126)" style="fill-opacity:1.0;fill:rgb(233, 223, 208);fill-rule:nonzero">
               <path d="M 9,-0.026 C 9.2,-11.705 -9.218,-11.698 -9,-0.025 C -9.249,11.714 9.234,11.721 9,-0.026 " id="path_24" inkscape:label="Path 1" style="fill-opacity:1.0;fill:rgb(233, 223, 208);fill-rule:nonzero"/>
            </g>
            <g id="Group_1" inkscape:label="Group 1" transform="matrix(1.0, 0.0, 0.0, 1.0, 97.126, 75.154)" style="fill-opacity:1.0;fill:rgb(255, 255, 255);fill-rule:nonzero">
               <path d="M 3.5,0 C 3.613,-4.552 -3.614,-4.553 -3.5,0 C -3.613,4.552 3.614,4.552 3.5,0 Z" id="path_25" inkscape:label="Path 1" style="fill-opacity:1.0;fill:rgb(255, 255, 255);fill-rule:nonzero"/>
            </g>
         </g>
      </g>
      <g inkscape:groupmode="layer" id="crc_-_13" inkscape:label="crc - 13" transform="matrix(1.0, 0.0, 0.0, 1.0, -206.10699999999997, -213.224)" style="">
         <g id="Group_16" inkscape:label="Group 16" transform="matrix(1.0, 0.0, 0.0, 1.0, 0.0, 0.0)" style="">
            <g id="g_26" inkscape:label="Group 3" transform="matrix(1.0, 0.0, 0.0, 1.0, 76.1, 134.276)" opacity="0.41" style="fill-opacity:1.0;fill:rgb(97, 59, 26);fill-rule:nonzero">
               <path d="M 9,-0.026 C 9.2,-11.705 -9.218,-11.698 -9,-0.025 C -9.249,11.714 9.234,11.721 9,-0.026 " id="path_27" inkscape:label="Path 1" style="fill-opacity:1.0;fill:rgb(97, 59, 26);fill-rule:nonzero"/>
            </g>
            <g id="g_28" inkscape:label="Group 2" transform="matrix(1.0, 0.0, 0.0, 1.0, 72.75, 126.926)" style="fill-opacity:1.0;fill:rgb(233, 223, 208);fill-rule:nonzero">
               <path d="M 9,-0.026 C 9.2,-11.705 -9.218,-11.698 -9,-0.025 C -9.249,11.714 9.234,11.721 9,-0.026 " id="path_29" inkscape:label="Path 1" style="fill-opacity:1.0;fill:rgb(233, 223, 208);fill-rule:nonzero"/>
            </g>
            <g id="g_30" inkscape:label="Group 1" transform="matrix(1.0, 0.0, 0.0, 1.0, 70.426, 125.004)" style="fill-opacity:1.0;fill:rgb(255, 255, 255);fill-rule:nonzero">
               <path d="M 3.5,0 C 3.613,-4.552 -3.614,-4.553 -3.5,0 C -3.613,4.552 3.614,4.552 3.5,0 Z" id="path_31" inkscape:label="Path 1" style="fill-opacity:1.0;fill:rgb(255, 255, 255);fill-rule:nonzero"/>
            </g>
         </g>
      </g>
      <g inkscape:groupmode="layer" id="crc_-_8" inkscape:label="crc - 8" transform="matrix(1.0, 0.0, 0.0, 1.0, -206.107, -213.22400000000002)" style="">
         <g id="Group_11" inkscape:label="Group 11" transform="matrix(1.0, 0.0, 0.0, 1.0, 0.0, 0.0)" style="">
            <g id="g_32" inkscape:label="Group 3" transform="matrix(1.0, 0.0, 0.0, 1.0, 198.65, 87.876)" opacity="0.41" style="fill-opacity:1.0;fill:rgb(97, 59, 26);fill-rule:nonzero">
               <path d="M 9,-0.026 C 9.2,-11.705 -9.218,-11.698 -9,-0.025 C -9.249,11.714 9.234,11.721 9,-0.026 " id="path_33" inkscape:label="Path 1" style="fill-opacity:1.0;fill:rgb(97, 59, 26);fill-rule:nonzero"/>
            </g>
            <g id="g_34" inkscape:label="Group 2" transform="matrix(1.0, 0.0, 0.0, 1.0, 198.7, 81.376)" style="fill-opacity:1.0;fill:rgb(233, 223, 208);fill-rule:nonzero">
               <path d="M 9,-0.026 C 9.2,-11.705 -9.218,-11.698 -9,-0.025 C -9.249,11.714 9.234,11.721 9,-0.026 " id="path_35" inkscape:label="Path 1" style="fill-opacity:1.0;fill:rgb(233, 223, 208);fill-rule:nonzero"/>
            </g>
            <g id="g_36" inkscape:label="Group 1" transform="matrix(1.0, 0.0, 0.0, 1.0, 197.426, 78.754)" style="fill-opacity:1.0;fill:rgb(255, 255, 255);fill-rule:nonzero">
               <path d="M 3.5,0 C 3.613,-4.552 -3.614,-4.553 -3.5,0 C -3.613,4.552 3.614,4.552 3.5,0 Z" id="path_37" inkscape:label="Path 1" style="fill-opacity:1.0;fill:rgb(255, 255, 255);fill-rule:nonzero"/>
            </g>
         </g>
      </g>
      <g inkscape:groupmode="layer" id="crc_-_12" inkscape:label="crc - 12" transform="matrix(1.0, 0.0, 0.0, 1.0, -206.107, -213.224)" style="">
         <g id="Group_15" inkscape:label="Group 15" transform="matrix(1.0, 0.0, 0.0, 1.0, 0.0, 0.0)" style="">
            <g id="g_38" inkscape:label="Group 3" transform="matrix(1.0, 0.0, 0.0, 1.0, 57.15, 191.576)" opacity="0.41" style="fill-opacity:1.0;fill:rgb(97, 59, 26);fill-rule:nonzero">
               <path d="M 9,-0.026 C 9.2,-11.705 -9.218,-11.698 -9,-0.025 C -9.249,11.714 9.234,11.721 9,-0.026 " id="path_39" inkscape:label="Path 1" style="fill-opacity:1.0;fill:rgb(97, 59, 26);fill-rule:nonzero"/>
            </g>
            <g id="g_40" inkscape:label="Group 2" transform="matrix(1.0, 0.0, 0.0, 1.0, 54.65, 185.926)" style="fill-opacity:1.0;fill:rgb(233, 223, 208);fill-rule:nonzero">
               <path d="M 9,-0.026 C 9.199,-11.705 -9.218,-11.698 -9,-0.025 C -9.249,11.714 9.234,11.721 9,-0.026 " id="path_41" inkscape:label="Path 1" style="fill-opacity:1.0;fill:rgb(233, 223, 208);fill-rule:nonzero"/>
            </g>
            <g id="g_42" inkscape:label="Group 1" transform="matrix(1.0, 0.0, 0.0, 1.0, 52.126, 182.504)" style="fill-opacity:1.0;fill:rgb(255, 255, 255);fill-rule:nonzero">
               <path d="M 3.5,0 C 3.613,-4.552 -3.614,-4.553 -3.5,0 C -3.613,4.552 3.614,4.552 3.5,0 Z" id="path_43" inkscape:label="Path 1" style="fill-opacity:1.0;fill:rgb(255, 255, 255);fill-rule:nonzero"/>
            </g>
         </g>
      </g>
      <g inkscape:groupmode="layer" id="crc_-_11" inkscape:label="crc - 11" transform="matrix(1.0, 0.0, 0.0, 1.0, -206.107, -213.224)" style="">
         <g id="Group_14" inkscape:label="Group 14" transform="matrix(1.0, 0.0, 0.0, 1.0, 0.0, 0.0)" style="">
            <g id="g_44" inkscape:label="Group 3" transform="matrix(1.0, 0.0, 0.0, 1.0, 83.45, 245.926)" opacity="0.41" style="fill-opacity:1.0;fill:rgb(97, 59, 26);fill-rule:nonzero">
               <path d="M 9,-0.026 C 9.199,-11.705 -9.218,-11.698 -9,-0.025 C -9.249,11.714 9.234,11.721 9,-0.026 " id="path_45" inkscape:label="Path 1" style="fill-opacity:1.0;fill:rgb(97, 59, 26);fill-rule:nonzero"/>
            </g>
            <g id="g_46" inkscape:label="Group 2" transform="matrix(1.0, 0.0, 0.0, 1.0, 82.65, 239.426)" style="fill-opacity:1.0;fill:rgb(233, 223, 208);fill-rule:nonzero">
               <path d="M 9,-0.026 C 9.199,-11.705 -9.218,-11.698 -9,-0.025 C -9.249,11.714 9.234,11.721 9,-0.026 " id="path_47" inkscape:label="Path 1" style="fill-opacity:1.0;fill:rgb(233, 223, 208);fill-rule:nonzero"/>
            </g>
            <g id="g_48" inkscape:label="Group 1" transform="matrix(1.0, 0.0, 0.0, 1.0, 80.376, 236.804)" style="fill-opacity:1.0;fill:rgb(255, 255, 255);fill-rule:nonzero">
               <path d="M 3.5,0 C 3.613,-4.552 -3.614,-4.553 -3.5,0 C -3.613,4.552 3.614,4.552 3.5,0 Z" id="path_49" inkscape:label="Path 1" style="fill-opacity:1.0;fill:rgb(255, 255, 255);fill-rule:nonzero"/>
            </g>
         </g>
      </g>
      <g inkscape:groupmode="layer" id="crc_-_10" inkscape:label="crc - 10" transform="matrix(1.0, 0.0, 0.0, 1.0, -206.106, -213.22299999999998)" style="">
         <g id="Group_13" inkscape:label="Group 13" transform="matrix(1.0, 0.0, 0.0, 1.0, 0.0, 0.0)" style="">
            <g id="g_50" inkscape:label="Group 3" transform="matrix(1.0, 0.0, 0.0, 1.0, 79.502, 309.776)" opacity="0.41" style="fill-opacity:1.0;fill:rgb(97, 59, 26);fill-rule:nonzero">
               <path d="M 6.348,-6.376 C -1.7719999999999994,-14.857 -14.794,-1.6809999999999992 -6.352,6.375 C 1.6929999999999996,14.853 14.821000000000002,1.697 6.348,-6.376 " id="path_51" inkscape:label="Path 1" style="fill-opacity:1.0;fill:rgb(97, 59, 26);fill-rule:nonzero"/>
            </g>
            <g id="g_52" inkscape:label="Group 2" transform="matrix(1.0, 0.0, 0.0, 1.0, 77.0, 303.276)" style="fill-opacity:1.0;fill:rgb(233, 223, 208);fill-rule:nonzero">
               <path d="M 9,-0.026 C 9.2,-11.705 -9.218,-11.698 -9,-0.025 C -9.249,11.714 9.234,11.721 9,-0.026 " id="path_53" inkscape:label="Path 1" style="fill-opacity:1.0;fill:rgb(233, 223, 208);fill-rule:nonzero"/>
            </g>
            <g id="g_54" inkscape:label="Group 1" transform="matrix(1.0, 0.0, 0.0, 1.0, 74.676, 301.054)" style="fill-opacity:1.0;fill:rgb(255, 255, 255);fill-rule:nonzero">
               <path d="M 3.5,0 C 3.613,-4.552 -3.614,-4.553 -3.5,0 C -3.613,4.552 3.614,4.552 3.5,0 Z" id="path_55" inkscape:label="Path 1" style="fill-opacity:1.0;fill:rgb(255, 255, 255);fill-rule:nonzero"/>
            </g>
         </g>
      </g>
      <g inkscape:groupmode="layer" id="crc_-_7" inkscape:label="crc - 7" transform="matrix(1.0, 0.0, 0.0, 1.0, -206.10699999999997, -213.223)" style="">
         <g id="Group_10" inkscape:label="Group 10" transform="matrix(1.0, 0.0, 0.0, 1.0, 0.0, 0.0)" style="">
            <g id="g_56" inkscape:label="Group 3" transform="matrix(1.0, 0.0, 0.0, 1.0, 351.3, 120.826)" opacity="0.41" style="fill-opacity:1.0;fill:rgb(97, 59, 26);fill-rule:nonzero">
               <path d="M 9,-0.026 C 9.2,-11.705 -9.218,-11.698 -9,-0.025 C -9.249,11.714 9.234,11.721 9,-0.026 Z" id="path_57" inkscape:label="Path 1" style="fill-opacity:1.0;fill:rgb(97, 59, 26);fill-rule:nonzero"/>
            </g>
            <g id="g_58" inkscape:label="Group 2" transform="matrix(1.0, 0.0, 0.0, 1.0, 351.352, 115.176)" style="fill-opacity:1.0;fill:rgb(233, 223, 208);fill-rule:nonzero">
               <path d="M 6.348,-6.376 C -1.7719999999999994,-14.857 -14.794,-1.6809999999999992 -6.352,6.375 C 1.6929999999999996,14.853 14.821000000000002,1.697 6.348,-6.376 Z" id="path_59" inkscape:label="Path 1" style="fill-opacity:1.0;fill:rgb(233, 223, 208);fill-rule:nonzero"/>
            </g>
            <g id="g_60" inkscape:label="Group 1" transform="matrix(1.0, 0.0, 0.0, 1.0, 349.776, 112.154)" style="fill-opacity:1.0;fill:rgb(255, 255, 255);fill-rule:nonzero">
               <path d="M 3.5,0 C 3.613,-4.552 -3.614,-4.553 -3.5,0 C -3.613,4.552 3.614,4.552 3.5,0 Z" id="path_61" inkscape:label="Path 1" style="fill-opacity:1.0;fill:rgb(255, 255, 255);fill-rule:nonzero"/>
            </g>
         </g>
      </g>
      <g inkscape:groupmode="layer" id="crc_-_6" inkscape:label="crc - 6" transform="matrix(1.0, 0.0, 0.0, 1.0, -206.107, -213.224)" style="">
         <g id="Group_9" inkscape:label="Group 9" transform="matrix(1.0, 0.0, 0.0, 1.0, 0.0, 0.0)" style="">
            <g id="g_62" inkscape:label="Group 3" transform="matrix(1.0, 0.0, 0.0, 1.0, 443.328, 180.302)" opacity="0.41" style="fill-opacity:1.0;fill:rgb(97, 59, 26);fill-rule:nonzero">
               <path d="M 7.372,-7.402 C -2.029,-17.321 -17.237,-1.891 -7.377,7.449 C 2.0360000000000005,17.237000000000002 17.240000000000002,1.9880000000000004 7.372,-7.402 " id="path_63" inkscape:label="Path 1" style="fill-opacity:1.0;fill:rgb(97, 59, 26);fill-rule:nonzero"/>
            </g>
            <g id="g_64" inkscape:label="Group 2" transform="matrix(1.0, 0.0, 0.0, 1.0, 443.378, 174.652)" style="fill-opacity:1.0;fill:rgb(233, 223, 208);fill-rule:nonzero">
               <path d="M 7.372,-7.402 C -2.029,-17.321 -17.237,-1.891 -7.377,7.449 C 2.0360000000000005,17.237000000000002 17.240000000000002,1.9889999999999999 7.372,-7.402 " id="path_65" inkscape:label="Path 1" style="fill-opacity:1.0;fill:rgb(233, 223, 208);fill-rule:nonzero"/>
            </g>
            <g id="g_66" inkscape:label="Group 1" transform="matrix(1.0, 0.0, 0.0, 1.0, 441.926, 171.604)" style="fill-opacity:1.0;fill:rgb(255, 255, 255);fill-rule:nonzero">
               <path d="M 3.5,0 C 3.613,-4.552 -3.614,-4.553 -3.5,0 C -3.613,4.552 3.614,4.552 3.5,0 Z" id="path_67" inkscape:label="Path 1" style="fill-opacity:1.0;fill:rgb(255, 255, 255);fill-rule:nonzero"/>
            </g>
         </g>
      </g>
      <g inkscape:groupmode="layer" id="crc_-_5" inkscape:label="crc - 5" transform="matrix(1.0, 0.0, 0.0, 1.0, -206.107, -213.223)" style="">
         <g id="Group_8" inkscape:label="Group 8" transform="matrix(1.0, 0.0, 0.0, 1.0, 0.0, 0.0)" style="">
            <g id="g_68" inkscape:label="Group 3" transform="matrix(1.0, 0.0, 0.0, 1.0, 436.225, 239.058)" opacity="0.41" style="fill-opacity:1.0;fill:rgb(97, 59, 26);fill-rule:nonzero">
               <path d="M 10.475,-0.008 C 10.690999999999999,-13.623 -10.698,-13.61 -10.475,-0.007 C -10.757,13.614 10.754,13.627 10.475,-0.008 " id="path_69" inkscape:label="Path 1" style="fill-opacity:1.0;fill:rgb(97, 59, 26);fill-rule:nonzero"/>
            </g>
            <g id="g_70" inkscape:label="Group 2" transform="matrix(1.0, 0.0, 0.0, 1.0, 436.275, 233.408)" style="fill-opacity:1.0;fill:rgb(233, 223, 208);fill-rule:nonzero">
               <path d="M 10.475,-0.008 C 10.690999999999999,-13.623 -10.698,-13.61 -10.475,-0.007 C -10.757,13.614 10.754,13.627 10.475,-0.008 " id="path_71" inkscape:label="Path 1" style="fill-opacity:1.0;fill:rgb(233, 223, 208);fill-rule:nonzero"/>
            </g>
            <g id="g_72" inkscape:label="Group 1" transform="matrix(1.0, 0.0, 0.0, 1.0, 434.926, 229.004)" style="fill-opacity:1.0;fill:rgb(255, 255, 255);fill-rule:nonzero">
               <path d="M 3.5,0 C 3.613,-4.552 -3.614,-4.553 -3.5,0 C -3.613,4.552 3.614,4.552 3.5,0 Z" id="path_73" inkscape:label="Path 1" style="fill-opacity:1.0;fill:rgb(255, 255, 255);fill-rule:nonzero"/>
            </g>
         </g>
      </g>
      <g inkscape:groupmode="layer" id="crc_-_9" inkscape:label="crc - 9" transform="matrix(1.0, 0.0, 0.0, 1.0, -206.107, -213.224)" style="">
         <g id="Group_12" inkscape:label="Group 12" transform="matrix(1.0, 0.0, 0.0, 1.0, 0.0, 0.0)" style="">
            <g id="g_74" inkscape:label="Group 3" transform="matrix(1.0, 0.0, 0.0, 1.0, 127.85, 344.576)" opacity="0.41" style="fill-opacity:1.0;fill:rgb(97, 59, 26);fill-rule:nonzero">
               <path d="M 9,-0.026 C 9.199,-11.705 -9.218,-11.698 -9,-0.025 C -9.249,11.714 9.234,11.721 9,-0.026 " id="path_75" inkscape:label="Path 1" style="fill-opacity:1.0;fill:rgb(97, 59, 26);fill-rule:nonzero"/>
            </g>
            <g id="g_76" inkscape:label="Group 2" transform="matrix(1.0, 0.0, 0.0, 1.0, 127.9, 338.926)" style="fill-opacity:1.0;fill:rgb(233, 223, 208);fill-rule:nonzero">
               <path d="M 9,-0.026 C 9.2,-11.705 -9.218,-11.698 -9,-0.025 C -9.249,11.714 9.234,11.721 9,-0.026 " id="path_77" inkscape:label="Path 1" style="fill-opacity:1.0;fill:rgb(233, 223, 208);fill-rule:nonzero"/>
            </g>
            <g id="g_78" inkscape:label="Group 1" transform="matrix(1.0, 0.0, 0.0, 1.0, 125.726, 335.804)" style="fill-opacity:1.0;fill:rgb(255, 255, 255);fill-rule:nonzero">
               <path d="M 3.5,0 C 3.613,-4.552 -3.614,-4.553 -3.5,0 C -3.613,4.552 3.614,4.552 3.5,0 Z" id="path_79" inkscape:label="Path 1" style="fill-opacity:1.0;fill:rgb(255, 255, 255);fill-rule:nonzero"/>
            </g>
         </g>
      </g>
      <g inkscape:groupmode="layer" id="crc_-_4" inkscape:label="crc - 4" transform="matrix(1.0, 0.0, 0.0, 1.0, -206.10699999999997, -213.223)" style="">
         <g id="Group_7" inkscape:label="Group 7" transform="matrix(1.0, 0.0, 0.0, 1.0, 0.0, 0.0)" style="">
            <g id="g_80" inkscape:label="Group 3" transform="matrix(1.0, 0.0, 0.0, 1.0, 422.375, 301.308)" opacity="0.41" style="fill-opacity:1.0;fill:rgb(97, 59, 26);fill-rule:nonzero">
               <path d="M 10.475,-0.008 C 10.690999999999999,-13.623 -10.698,-13.61 -10.475,-0.007 C -10.757,13.614 10.754,13.627 10.475,-0.008 " id="path_81" inkscape:label="Path 1" style="fill-opacity:1.0;fill:rgb(97, 59, 26);fill-rule:nonzero"/>
            </g>
            <g id="g_82" inkscape:label="Group 2" transform="matrix(1.0, 0.0, 0.0, 1.0, 422.425, 295.658)" style="fill-opacity:1.0;fill:rgb(233, 223, 208);fill-rule:nonzero">
               <path d="M 10.475,-0.008 C 10.690999999999999,-13.623 -10.698,-13.61 -10.475,-0.007 C -10.757,13.614 10.754,13.627 10.475,-0.008 " id="path_83" inkscape:label="Path 1" style="fill-opacity:1.0;fill:rgb(233, 223, 208);fill-rule:nonzero"/>
            </g>
            <g id="g_84" inkscape:label="Group 1" transform="matrix(1.0, 0.0, 0.0, 1.0, 420.576, 291.454)" style="fill-opacity:1.0;fill:rgb(255, 255, 255);fill-rule:nonzero">
               <path d="M 3.5,0 C 3.613,-4.552 -3.614,-4.553 -3.5,0 C -3.613,4.552 3.614,4.552 3.5,0 Z" id="path_85" inkscape:label="Path 1" style="fill-opacity:1.0;fill:rgb(255, 255, 255);fill-rule:nonzero"/>
            </g>
         </g>
      </g>
      <g inkscape:groupmode="layer" id="crc_-_3" inkscape:label="crc - 3" transform="matrix(1.0, 0.0, 0.0, 1.0, -206.107, -213.22299999999998)" style="">
         <g id="Group_6" inkscape:label="Group 6" transform="matrix(1.0, 0.0, 0.0, 1.0, 0.0, 0.0)" style="">
            <g id="g_86" inkscape:label="Group 3" transform="matrix(1.0, 0.0, 0.0, 1.0, 367.175, 328.458)" opacity="0.41" style="fill-opacity:1.0;fill:rgb(97, 59, 26);fill-rule:nonzero">
               <path d="M 10.475,-0.008 C 10.690999999999999,-13.623 -10.698,-13.61 -10.475,-0.007 C -10.757,13.614 10.754,13.627 10.475,-0.008 " id="path_87" inkscape:label="Path 1" style="fill-opacity:1.0;fill:rgb(97, 59, 26);fill-rule:nonzero"/>
            </g>
            <g id="g_88" inkscape:label="Group 2" transform="matrix(1.0, 0.0, 0.0, 1.0, 367.225, 322.808)" style="fill-opacity:1.0;fill:rgb(233, 223, 208);fill-rule:nonzero">
               <path d="M 10.475,-0.008 C 10.690999999999999,-13.623 -10.698,-13.61 -10.475,-0.007 C -10.757,13.614 10.754,13.627 10.475,-0.008 " id="path_89" inkscape:label="Path 1" style="fill-opacity:1.0;fill:rgb(233, 223, 208);fill-rule:nonzero"/>
            </g>
            <g id="g_90" inkscape:label="Group 1" transform="matrix(1.0, 0.0, 0.0, 1.0, 366.076, 319.204)" style="fill-opacity:1.0;fill:rgb(255, 255, 255);fill-rule:nonzero">
               <path d="M 3.5,0 C 3.613,-4.552 -3.614,-4.553 -3.5,0 C -3.613,4.552 3.614,4.552 3.5,0 Z" id="path_91" inkscape:label="Path 1" style="fill-opacity:1.0;fill:rgb(255, 255, 255);fill-rule:nonzero"/>
            </g>
         </g>
      </g>
      <g inkscape:groupmode="layer" id="crc_-_2" inkscape:label="crc - 2" transform="matrix(1.0, 0.0, 0.0, 1.0, -206.10700000000003, -213.223)" style="">
         <g id="Group_5" inkscape:label="Group 5" transform="matrix(1.0, 0.0, 0.0, 1.0, 0.0, 0.0)" style="">
            <g id="g_92" inkscape:label="Group 3" transform="matrix(1.0, 0.0, 0.0, 1.0, 331.825, 382.908)" opacity="0.41" style="fill-opacity:1.0;fill:rgb(97, 59, 26);fill-rule:nonzero">
               <path d="M 10.475,-0.008 C 10.690999999999999,-13.623 -10.698,-13.61 -10.475,-0.007 C -10.757,13.614 10.754,13.627 10.475,-0.008 " id="path_93" inkscape:label="Path 1" style="fill-opacity:1.0;fill:rgb(97, 59, 26);fill-rule:nonzero"/>
            </g>
            <g id="g_94" inkscape:label="Group 2" transform="matrix(1.0, 0.0, 0.0, 1.0, 331.875, 377.258)" style="fill-opacity:1.0;fill:rgb(233, 223, 208);fill-rule:nonzero">
               <path d="M 10.475,-0.008 C 10.690999999999999,-13.623 -10.698,-13.61 -10.475,-0.007 C -10.757,13.614 10.754,13.627 10.475,-0.008 " id="path_95" inkscape:label="Path 1" style="fill-opacity:1.0;fill:rgb(233, 223, 208);fill-rule:nonzero"/>
            </g>
            <g id="g_96" inkscape:label="Group 1" transform="matrix(1.0, 0.0, 0.0, 1.0, 331.876, 372.704)" style="fill-opacity:1.0;fill:rgb(255, 255, 255);fill-rule:nonzero">
               <path d="M 3.5,0 C 3.613,-4.552 -3.614,-4.553 -3.5,0 C -3.613,4.552 3.614,4.552 3.5,0 Z" id="path_97" inkscape:label="Path 1" style="fill-opacity:1.0;fill:rgb(255, 255, 255);fill-rule:nonzero"/>
            </g>
         </g>
      </g>
      <g inkscape:groupmode="layer" id="crc_-_1" inkscape:label="crc - 1" transform="matrix(1.0, 0.0, 0.0, 1.0, -206.10700000000003, -213.223)" style="">
         <g id="Group_4" inkscape:label="Group 4" transform="matrix(1.0, 0.0, 0.0, 1.0, 0.0, 0.0)" style="">
            <g id="g_98" inkscape:label="Group 3" transform="matrix(1.0, 0.0, 0.0, 1.0, 272.575, 385.17)" opacity="0.41" style="fill-opacity:1.0;fill:rgb(97, 59, 26);fill-rule:nonzero">
               <path d="M 9.975,-0.02 C 10.215,-12.940999999999999 -10.222,-12.929 -9.975,-0.019 C -10.205,12.942 10.202,12.955 9.975,-0.02 " id="path_99" inkscape:label="Path 1" style="fill-opacity:1.0;fill:rgb(97, 59, 26);fill-rule:nonzero"/>
            </g>
            <g id="g_100" inkscape:label="Group 2" transform="matrix(1.0, 0.0, 0.0, 1.0, 272.625, 379.52)" style="fill-opacity:1.0;fill:rgb(233, 223, 208);fill-rule:nonzero">
               <path d="M 9.975,-0.02 C 10.215,-12.942 -10.222,-12.929 -9.975,-0.019 C -10.205,12.942 10.202,12.955 9.975,-0.02 " id="path_101" inkscape:label="Path 1" style="fill-opacity:1.0;fill:rgb(233, 223, 208);fill-rule:nonzero"/>
            </g>
            <g id="g_102" inkscape:label="Group 1" transform="matrix(1.0, 0.0, 0.0, 1.0, 270.876, 375.204)" style="fill-opacity:1.0;fill:rgb(255, 255, 255);fill-rule:nonzero">
               <path d="M 3.5,0 C 3.613,-4.552 -3.614,-4.553 -3.5,0 C -3.613,4.552 3.614,4.552 3.5,0 Z" id="path_103" inkscape:label="Path 1" style="fill-opacity:1.0;fill:rgb(255, 255, 255);fill-rule:nonzero"/>
            </g>
         </g>
      </g>
      <g inkscape:groupmode="layer" id="herz" inkscape:label="herz" transform="matrix(1.0, 0.0, 0.0, 1.0, -206.107, -213.22299999999998)" style="">
         <g inkscape:groupmode="layer" id="g_104" inkscape:label="herz" transform="matrix(1.0, 0.0, 0.0, 1.0, 0.0, 0.0)" style="">
            <g id="g_105" inkscape:label="Group 12" transform="matrix(1.0, 0.0, 0.0, 1.0, 242.543, 260.542)" style="fill-opacity:1.0;fill:url(#Gradient_j6oYNedlNj);fill-rule:nonzero">
               <path d="M 26.896,-77.603 C 4.940000000000001,-62.224999999999994 4.487,-60.593999999999994 -5.869,-85.976 C -21.787,-118.00999999999999 -63.510000000000005,-127.806 -93.328,-108.437 C -143.869,-72.443 -134.074,-12.024999999999999 -107.447,41.33 C -95.00200000000001,66.268 -78.879,89.663 -63.521,108.3 C -48.335,128.476 -24.462,112.94399999999999 -6.063,107.597 C 49.833999999999996,86.11099999999999 113.25399999999999,50.327 126.327,-1.978 C 126.327,-1.978 126.272,-1.978 126.272,-1.978 C 138.116,-40.213 114.17,-74.477 81.733,-84.7 C 64.48700000000001,-90.136 44.84,-88.776 26.896,-77.603 Z" id="path_106" inkscape:label="Path 1" style="fill-opacity:1.0;fill:url(#linearGradient_107);fill-rule:nonzero"/>
            </g>
            <g id="g_108" inkscape:label="Group 11" transform="matrix(1.0, 0.0, 0.0, 1.0, 239.765, 247.986)" style="fill-opacity:1.0;fill:url(#Gradient_yhzLhlSFdP);fill-rule:nonzero">
               <path d="M 26.301,-75.887 C 4.8309999999999995,-60.849000000000004 4.3870000000000005,-59.25599999999999 -5.74,-84.076 C -21.305,-115.401 -62.105000000000004,-124.98100000000001 -91.263,-106.04 C -144.187,-68.34700000000001 -129.454,-3.2680000000000007 -99.302,51.391 C -88.137,71.631 -74.858,90.44300000000001 -62.116,105.906 C -47.266,125.63600000000001 -23.92,110.448 -5.929,105.219 C 48.732,84.208 110.74799999999999,49.213 123.532,-1.935 C 123.532,-1.935 123.477,-1.935 123.477,-1.935 C 135.28300000000002,-40.049 110.723,-74.128 78.071,-83.383 C 61.661,-88.03399999999999 43.208,-86.415 26.301,-75.887 Z" id="path_109" inkscape:label="Path 1" style="fill-opacity:1.0;fill:url(#radialGradient_110);fill-rule:nonzero"/>
            </g>
            <g id="Layer0_14_1_STROKES" inkscape:label="Layer0 14 1 STROKES" transform="matrix(1.0, 0.0, 0.0, 1.0, 240.528, 257.832)" opacity="0.66" style="stroke:rgb(255, 95, 79);stroke-opacity:1.0;stroke-width:8.0;stroke-miterlimit:0;stroke-linecap:round;stroke-linejoin:round">
               <path d="M 123.922,-13.995 C 123.309,-6.824999999999999 121.96900000000001,0.09699999999999953 119.906,6.771 
M 119.906,6.771 C 117.07700000000001,15.238 113.42800000000001,22.816000000000003 108.629,30.861 
M 72.159,-87.734 C 113.906,-76.91399999999999 133.537,-32.544 119.906,6.771 C 102.601,54.095 70.064,75.191 7.807,102.212 C -6.872,108.47 -21.93,113.70299999999999 -37.649,117.847 C -57.547,121.18799999999999 -67.527,97.397 -77.857,84.861 C -86.402,72.095 -95.244,58.41 -102.642,44.486 C -107.22399999999999,35.861 -111.253,27.145000000000003 -114.313,18.498 C -127.172,-19.502999999999997 -130.142,-65.59899999999999 -106.906,-95.279 C -77.677,-131.49599999999998 -16.481,-123.939 -3.433,-78.2 C 6.368,-51.571 24.207000000000008,-101.08399999999999 72.159,-87.734 Z
M 72.159,-87.734 C 73.334,-87.475 74.491,-87.185 75.631,-86.864 " id="path_111" inkscape:label="Path 1" style=""/>
            </g>
            <g id="g_112" inkscape:label="Group 10" transform="matrix(1.0, 0.0, 0.0, 1.0, 240.208, 250.366)" style="fill-opacity:1.0;fill:url(#Gradient_w03SGR2qwT);fill-rule:nonzero">
               <path d="M -43.358,-113.902 C -79.53999999999999,-123.715 -117.775,-95.15299999999999 -123.516,-58.545 C -132.159,-26.28 -119.82300000000001,14.109000000000002 -100.646,49.408 C -94.33500000000001,61.025000000000006 -87.282,72.092 -79.993,82.136 C -71.50999999999999,92.947 -62.846,110.084 -49.303,115.248 C -34.705999999999996,118.301 -19.569,108.992 -6.002,105.25 C 48.649,84.22800000000001 110.713,49.264 123.457,-1.915 C 123.457,-1.915 123.402,-1.915 123.402,-1.915 C 142.193,-65.935 66.158,-111.813 16.422,-68.976 C -7.995000000000001,-50.236000000000004 4.898000000000003,-102.81700000000001 -43.358,-113.902 Z" id="path_113" inkscape:label="Path 1" style="fill-opacity:1.0;fill:url(#radialGradient_114);fill-rule:nonzero"/>
            </g>
            <g id="g_115" inkscape:label="Group 9" transform="matrix(1.0, 0.0, 0.0, 1.0, 178.752, 177.668)" style="fill-opacity:1.0;fill:url(#Gradient_Bq4hLBA5zU);fill-rule:nonzero">
               <path d="M 50.639,6.039 C 40.511,-10.700000000000001 36.564,-22.885 14.225,-28.105 C -21.335,-36.566 -52.778,-6.062999999999999 -50.524,29.529 C -50.524,29.529 50.639,6.039 50.639,6.039 Z" id="path_116" inkscape:label="Path 1" style="fill-opacity:1.0;fill:url(#linearGradient_117);fill-rule:nonzero"/>
            </g>
            <g id="g_118" inkscape:label="Group 8" transform="matrix(1.0, 0.0, 0.0, 1.0, 305.739, 235.908)" style="fill-opacity:1.0;fill:url(#Gradient_Jbk5nHd8vm);fill-rule:nonzero">
               <path d="M -36.135,-50.119 C -40.138999999999996,-47.974 -43.410999999999994,-44.402 -47.224,-42.299 C -47.224,-42.299 14.009,58.213 14.009,58.213 C 30.291,44.229 40.548,28.750999999999998 45.466,9.824 C 45.466,9.824 45.421,9.824 45.421,9.824 C 57.797,-36.041000000000004 3.8320000000000007,-75.83500000000001 -36.135,-50.119 Z" id="path_119" inkscape:label="Path 1" style="fill-opacity:1.0;fill:url(#linearGradient_120);fill-rule:nonzero"/>
            </g>
            <g id="g_121" inkscape:label="Group 7" transform="matrix(1.0, 0.0, 0.0, 1.0, 256.389, 287.176)" style="fill-opacity:1.0;fill:url(#Gradient_1vfwaBrtEf);fill-rule:nonzero">
               <path d="M 98.884,-78.974 C 97.642,-81.24600000000001 95.55499999999999,-84.904 94.124,-86.95 C 94.124,-86.95 79.98700000000001,-103.77 65.549,-109.348 C 51.111000000000004,-114.926 49.861000000000004,-116.676 28.195,-113.132 C -26.393,-104.203 -110.029,31.961 -110.029,31.961 C -100.55799999999999,47.483999999999995 -90.45,62.32899999999999 -78.646,76.859 C -72.098,84.53999999999999 -64.704,88.78399999999999 -55.171,87.074 C -2.0020000000000024,71.962 61.46,41.644999999999996 89.926,-4.029 C 95.31700000000001,-12.677999999999999 99.453,-21.878 102.026,-31.63 C 102.026,-31.63 102.97,-32.63 102.97,-32.63 C 105.361,-51.175000000000004 107.543,-63.369 98.884,-78.974 Z" id="path_122" inkscape:label="Path 1" style="fill-opacity:1.0;fill:url(#radialGradient_123);fill-rule:nonzero"/>
            </g>
            <g id="Layer0_19_1_STROKES" inkscape:label="Layer0 19 1 STROKES" transform="matrix(1.0, 0.0, 0.0, 1.0, 242.123, 255.954)" style="stroke:rgb(167, 0, 0);stroke-opacity:1.0;stroke-width:8.0;stroke-miterlimit:0;stroke-linecap:round;stroke-linejoin:round">
               <path d="M 129.193,-14.528 C 128.55300000000003,-7.049 127.15700000000001,0.1719999999999997 125.004,7.135 
M 125.004,7.135 C 122.05300000000001,15.968 118.245,23.872999999999998 113.239,32.266 
M 75.192,-91.453 C 118.744,-80.166 139.225,-33.879000000000005 125.004,7.135 C 106.95,56.504 73.007,78.511 8.058,106.699 C -7.256,113.227 -22.965999999999998,118.686 -39.364,123.009 C -60.122,126.495 -70.533,101.676 -81.31,88.598 C -90.367,75.182 -99.265,61.336999999999996 -106.865,46.974 C -116.646,28.488999999999997 -124.278,9.146 -127.334,-11.25 C -130.797,-34.104 -130.385,-57.425000000000004 -123.779,-76.861 C -116.49,-98.308 -101.657,-115.024 -76.166,-121.164 C -60.538,-124.893 -46.731,-123.831 -34.746,-117.979 C -20.130000000000003,-111.471 -8.724,-97.286 -3.667,-81.509 C 6.604000000000001,-53.708 24.987999999999992,-105.348 75.192,-91.453 Z
M 75.192,-91.453 C 76.41799999999999,-91.183 77.625,-90.88 78.814,-90.545 " id="path_124" inkscape:label="Path 1" style=""/>
            </g>
            <g id="g_125" inkscape:label="Group 6" transform="matrix(1.0, 0.0, 0.0, 1.0, 288.197, 187.609)" style="fill-opacity:1.0;fill:url(#Gradient_w6LNVksfSY);fill-rule:nonzero">
               <path d="M 11.338,-2.972 C 7.792,-9.655 -11.616999999999999,-4.635 -11.337,2.981 C -7.757,9.644 11.578,4.643000000000001 11.338,-2.972 Z" id="path_126" inkscape:label="Path 1" style="fill-opacity:1.0;fill:url(#linearGradient_127);fill-rule:nonzero"/>
            </g>
            <g id="g_128" inkscape:label="Group 5" transform="matrix(1.0, 0.0, 0.0, 1.0, 165.899, 158.829)" style="fill-opacity:1.0;fill:url(#Gradient_Y4NP6dWkZp);fill-rule:nonzero">
               <path d="M 10.788,-4.53 C 6.336,-10.641 -12.173,-2.9749999999999996 -10.785,4.54 C -6.3020000000000005,10.626000000000001 12.136000000000001,2.9899999999999993 10.788,-4.53 Z" id="path_129" inkscape:label="Path 1" style="fill-opacity:1.0;fill:url(#linearGradient_130);fill-rule:nonzero"/>
            </g>
            <g id="g_131" inkscape:label="Group 4" transform="matrix(1.0, 0.0, 0.0, 1.0, 212.12, 305.681)" style="fill-opacity:1.0;fill:url(#Gradient_BjKtC99KGJ);fill-rule:nonzero">
               <path d="M 41.903,15.434 C 67.199,-57.667 -13.814,-87.507 -41.903,-15.403 C -67.19200000000001,57.737 13.759,87.441 41.903,15.434 Z" id="path_132" inkscape:label="Path 1" style="fill-opacity:1.0;fill:url(#radialGradient_133);fill-rule:nonzero"/>
            </g>
         </g>
         <g inkscape:groupmode="layer" id="g_134" inkscape:label="Group 3" transform="matrix(1.0, 0.0, 0.0, 1.0, 0.0, 0.0)" style="">
            <g id="g_135" inkscape:label="herz" transform="matrix(1.0, 0.0, 0.0, 1.0, 0.0, 0.0)" style="">
               <g id="g_136" inkscape:label="Group 3" transform="matrix(1.0, 0.0, 0.0, 1.0, 0.0, 0.0)" style="">
                  <g id="g_137" inkscape:label="Group 2" transform="matrix(1.0, 0.0, 0.0, 1.0, 172.863, 309.419)" opacity="0.45" style="fill-opacity:1.0;fill:rgb(74, 0, 0);fill-rule:nonzero">
                     <path d="M -18.463,-2.619 C -18.463,-2.619 -18.413,-2.619 -18.413,-2.619 C -8.556000000000001,3.171 4.868,5.5600000000000005 10.737,17.381 C 10.737,17.381 10.737,17.381 10.737,17.381 C 29.115000000000002,54.548 25.653,-4.019 19.237,-10.619 C 19.237,-10.619 19.237,-10.619 19.237,-10.619 C 14.325999999999999,-20.532 8.426,-26.415 1.537,-28.269 C 1.537,-28.269 1.637,-28.269 1.637,-28.269 C -5.582000000000001,-30.508 -11.615000000000002,-30.008 -16.463,-26.769 C -16.463,-26.769 -16.413,-26.769 -16.413,-26.769 C -26.201,-21.381999999999998 -27.078000000000003,-8.129 -18.463,-2.619 " id="path_138" inkscape:label="Path 1" style="fill-opacity:1.0;fill:rgb(74, 0, 0);fill-rule:nonzero"/>
                  </g>
                  <g id="g_139" inkscape:label="Group 1" transform="matrix(1.0, 0.0, 0.0, 1.0, 173.822, 299.4)" style="fill-opacity:1.0;fill:rgb(255, 235, 224);fill-rule:nonzero">
                     <path d="M -16.272,-5.85 C 2.3480000000000025,2.6720000000000006 10.825,5.561999999999998 19.778,25.65 C 22.293,4.556999999999999 17.525000000000002,-17.233999999999998 0.428,-24.301 C -12.133,-30.223 -28.064999999999998,-15.301 -16.272,-5.85 Z" id="path_140" inkscape:label="Path 1" style="fill-opacity:1.0;fill:rgb(255, 235, 224);fill-rule:nonzero"/>
                  </g>
                  <g id="Layer0_46_1_STROKES" inkscape:label="Layer0 46 1 STROKES" transform="matrix(1.0, 0.0, 0.0, 1.0, 172.3, 292.193)" style="stroke:url(#Gradient_GQE1BbksIu);stroke-opacity:1.0;stroke-width:8.0;stroke-miterlimit:0;stroke-linecap:round;stroke-linejoin:round">
                     <path d="M 15.7,10.357 C 14.039,2.186 7.338,-7.9479999999999995 0.9,-9.443 C -6.276,-12.030999999999999 -14.302999999999999,-8.968 -15.7,-2.193 " id="path_141" inkscape:label="Path 1" style=""/>
                  </g>
               </g>
            </g>
         </g>
         <g inkscape:groupmode="layer" id="g_142" inkscape:label="Group 2" transform="matrix(1.0, 0.0, 0.0, 1.0, 0.0, 0.0)" style="">
            <g id="g_143" inkscape:label="herz" transform="matrix(1.0, 0.0, 0.0, 1.0, 0.0, 0.0)" style="">
               <g id="g_144" inkscape:label="Group 2" transform="matrix(1.0, 0.0, 0.0, 1.0, 0.0, 0.0)" style="">
                  <g id="g_145" inkscape:label="Group 2" transform="matrix(1.0, 0.0, 0.0, 1.0, 237.913, 321.767)" opacity="0.45" style="fill-opacity:1.0;fill:rgb(74, 0, 0);fill-rule:nonzero">
                     <path d="M 14.487,-20.667 C 14.487,-20.667 14.587,-20.617 14.587,-20.617 C -15.305,-28.776000000000003 -54.096000000000004,42.65 -16.213,14.783 C -5.146000000000001,7.351999999999999 7.713999999999999,11.575 19.287,11.383 C 23.982,11.119 27.582,8.686 30.087,4.083 C 30.087,4.083 30.037,4.183 30.037,4.183 C 32.702999999999996,-0.16600000000000037 32.536,-5.1000000000000005 29.537,-10.617 C 29.537,-10.617 29.537,-10.617 29.537,-10.617 C 26.919,-15.818000000000001 21.902,-19.168000000000003 14.487,-20.667 Z" id="path_146" inkscape:label="Path 1" style="fill-opacity:1.0;fill:rgb(74, 0, 0);fill-rule:nonzero"/>
                  </g>
                  <g id="g_147" inkscape:label="Group 1" transform="matrix(1.0, 0.0, 0.0, 1.0, 238.651, 312.1)" style="fill-opacity:1.0;fill:rgb(255, 235, 224);fill-rule:nonzero">
                     <path d="M 26.249,-8.95 C 8.706999999999997,-30.772 -19.404000000000003,-5.805 -28.001,17.35 C -22.701,13.928 -11.526,6.346 -3.851,6.3 C 4.8180000000000005,5.02 11.421999999999999,7.651000000000001 19.249,7.15 C 26.579,6.550000000000001 30.497,-2.174999999999999 26.249,-8.95 Z" id="path_148" inkscape:label="Path 1" style="fill-opacity:1.0;fill:rgb(255, 235, 224);fill-rule:nonzero"/>
                  </g>
                  <g id="Layer0_46_2_STROKES" inkscape:label="Layer0 46 2 STROKES" transform="matrix(1.0, 0.0, 0.0, 1.0, 240.113, 311.71)" style="stroke:url(#Gradient_HyFPjPkv1C);stroke-opacity:1.0;stroke-width:8.0;stroke-miterlimit:0;stroke-linecap:round;stroke-linejoin:round">
                     <path d="M -21.062,8.94 C -11.533000000000001,-4.687000000000001 8.356000000000002,-15.530999999999999 21.062,-4.21 " id="path_149" inkscape:label="Path 1" style=""/>
                  </g>
               </g>
            </g>
         </g>
         <g inkscape:groupmode="layer" id="g_150" inkscape:label="Group 1" transform="matrix(1.0, 0.0, 0.0, 1.0, 0.0, 0.0)" style="">
            <g id="g_151" inkscape:label="herz" transform="matrix(1.0, 0.0, 0.0, 1.0, 0.0, 0.0)" style="">
               <g id="g_152" inkscape:label="Group 1" transform="matrix(1.0, 0.0, 0.0, 1.0, 0.0, 0.0)" style="">
                  <g id="g_153" inkscape:label="Group 2" transform="matrix(1.0, 0.0, 0.0, 1.0, 219.429, 291.057)" opacity="0.45" style="fill-opacity:1.0;fill:rgb(74, 0, 0);fill-rule:nonzero">
                     <path d="M 19.271,-14.907 C 31.468,-44.084 -16.546,-56.433 -20.629,-25.557 C -21.332,-19.668 -21.445,-9.503 -20.929,5.143 C -20.468,19.315 -20.468,30.715000000000003 -20.929,39.343 C -21.298,43.21 -15.873999999999999,45.148 -13.729,41.942 C -5.594999999999999,31.281 14.744,-3.2829999999999995 19.271,-14.907 " id="path_154" inkscape:label="Path 1" style="fill-opacity:1.0;fill:rgb(74, 0, 0);fill-rule:nonzero"/>
                  </g>
                  <g id="g_155" inkscape:label="Group 1" transform="matrix(1.0, 0.0, 0.0, 1.0, 220.27, 281.145)" style="fill-opacity:1.0;fill:rgb(255, 235, 224);fill-rule:nonzero">
                     <path d="M 15.33,-30.995 C 8.0,-44.619 -15.254,-41.673 -16.52,-24.994 C -18.153,-12.82 -15.588000000000001,26.462999999999997 -16.82,39.605 C -11.72,32.605 -5.587,22.905 1.58,10.505 C 10.288,-7.2829999999999995 21.44,-17.459000000000003 15.33,-30.995 Z" id="path_156" inkscape:label="Path 1" style="fill-opacity:1.0;fill:rgb(255, 235, 224);fill-rule:nonzero"/>
                  </g>
                  <g id="Layer0_46_3_STROKES" inkscape:label="Layer0 46 3 STROKES" transform="matrix(1.0, 0.0, 0.0, 1.0, 219.474, 279.944)" style="stroke:url(#Gradient_c45ol99q9U);stroke-opacity:1.0;stroke-width:8.0;stroke-miterlimit:0;stroke-linecap:round;stroke-linejoin:round">
                     <path d="M 12.526,-13.294 C 8.833,-4.043000000000001 -7.236,23.375 -13.724,31.856 C -12.753,21.305 -14.791,-10.466 -13.475,-20.244 C -11.421,-40.324 20.991,-31.982 12.526,-13.294 Z" id="path_157" inkscape:label="Path 1" style=""/>
                  </g>
               </g>
            </g>
         </g>
      </g>
      <g inkscape:groupmode="layer" id="main_hstr" inkscape:label="main_hstr" transform="matrix(1.0, 0.0, 0.0, 1.0, -208.10500000000002, -213.311)" style="">
         <g id="g_158" inkscape:label="main_hstr" transform="matrix(1.0, 0.0, 0.0, 1.0, 255.864, 263.586)" style="stroke:url(#Gradient_WQFhTtRB8I);stroke-opacity:1.0;stroke-width:8.0;stroke-miterlimit:0;stroke-linecap:round;stroke-linejoin:round">
            <path d="M 142.851,-167.086 C 140.684,-167.71900000000002 138.484,-168.286 136.251,-168.786 C 238.518,-141.425 260.623,-20.809999999999995 205.799,59.514 C 170.893,126.893 36.251000000000005,196.82 -64.454,224.662 C -73.567,227.514 -83.473,228.99699999999999 -92.503,225.963 C -119.537,216.414 -146.653,166.322 -163.456,142.915 C -204.463,80.779 -237.321,11.921999999999997 -237.703,-62.087 C -243.463,-151.596 -196.628,-232.676 -100.401,-227.285 C 6.802999999999997,-218.959 -9.169999999999998,-123.77100000000002 19.347,-149.985 C 53.455,-176.67200000000003 94.309,-181.999 136.251,-168.786 
M 142.851,-167.086 C 140.684,-167.71900000000002 138.484,-168.286 136.251,-168.786 C 238.518,-141.425 260.623,-20.809999999999995 205.799,59.514 C 170.893,126.893 36.251000000000005,196.82 -64.454,224.662 C -73.567,227.514 -83.473,228.99699999999999 -92.503,225.963 C -119.537,216.414 -146.653,166.322 -163.456,142.915 C -204.463,80.779 -237.321,11.921999999999997 -237.703,-62.087 C -243.463,-151.596 -196.628,-232.676 -100.401,-227.285 C 6.802999999999997,-218.959 -9.169999999999998,-123.77100000000002 19.347,-149.985 C 53.455,-176.67200000000003 94.309,-181.999 136.251,-168.786 
M 142.851,-167.086 C 141.767,-167.40300000000002 140.676,-167.703 139.576,-167.986 C 138.476,-168.26899999999998 137.368,-168.536 136.251,-168.786 C 187.38400000000001,-155.106 218.477,-118.11099999999999 229.934,-74.497 C 241.391,-30.883000000000003 233.211,19.352000000000004 205.799,59.514 C 188.346,93.203 145.959,127.52999999999999 95.347,156.914 C 44.73499999999999,186.298 -14.101999999999997,210.741 -64.454,224.662 C -73.567,227.514 -83.473,228.99699999999999 -92.503,225.963 C -119.537,216.414 -146.653,166.322 -163.456,142.915 C -204.463,80.779 -237.321,11.921999999999997 -237.703,-62.087 C -243.463,-151.596 -196.628,-232.676 -100.401,-227.285 C 6.802999999999997,-218.959 -9.169999999999998,-123.77100000000002 19.347,-149.985 C 53.455,-176.67200000000003 94.309,-181.999 136.251,-168.786 " id="path_159" inkscape:label="Path 1" style=""/>
         </g>
      </g>
      <g inkscape:groupmode="layer" id="r_str" inkscape:label="r_str" transform="matrix(1.0, 0.0, 0.0, 1.0, -206.106, -213.223)" style="">
         <g id="g_160" inkscape:label="r_str" transform="matrix(1.0, 0.0, 0.0, 1.0, 0.0, 0.0)" style="">
            <g id="Layer0_20_MEMBER_0_1_STROKES" inkscape:label="Layer0 20 MEMBER 0 1 STROKES" transform="matrix(1.0, 0.0, 0.0, 1.0, 325.652, 285.455)" opacity="0.45" style="stroke:rgb(97, 59, 26);stroke-opacity:1.0;stroke-width:16.1;stroke-miterlimit:0;stroke-linecap:round;stroke-linejoin:round">
               <path d="M -113.152,138.695 C -100.469,149.774 -120.821,170.454 -133.453,159.894 C -141.17600000000002,153.196 -141.523,142.52100000000002 -138.002,131.895 C -134.41,119.37800000000001 -121.72900000000001,112.331 -109.802,111.795 C -94.4,109.435 -78.681,123.39 -66.703,129.346 C -46.57000000000001,138.866 -25.677,130.491 -26.954,107.394 C -26.983,100.986 -28.457,79.012 -19.101,73.045 C -6.764999999999999,63.031000000000006 4.555,64.83800000000001 22.847,70.495 C 45.762,79.316 73.208,75.964 74.249,48.794 C 74.00699999999999,40.111999999999995 71.54599999999999,35.384 66.848,26.295 C 57.864999999999995,9.549000000000003 53.493,-9.387 74.298,-14.806 C 89.767,-18.323999999999998 114.664,-12.601 127.947,-24.006 C 155.383,-43.679 132.761,-95.539 97.598,-70.804 C 78.203,-56.263000000000005 56.327,-65.99000000000001 56.097,-86.906 C 56.323,-106.26500000000001 78.995,-106.29899999999999 89.947,-118.806 C 111.435,-137.814 79.976,-170.37800000000001 58.247,-158.204 C 47.153999999999996,-154.65200000000002 41.144,-134.67200000000003 35.448,-128.104 C 30.52,-122.86100000000002 20.265,-117.319 13.248,-124.105 C 4.908999999999999,-128.56900000000002 2.1210000000000004,-159.37800000000001 -8.352,-161.655 C -20.514000000000003,-165.58 -36.355000000000004,-158.80300000000003 -48.002,-151.955 C -61.753,-145.54700000000003 -60.607,-119.121 -40.952,-131.605 " id="path_161" inkscape:label="Path 1" style=""/>
            </g>
            <g id="Layer0_21_1_STROKES" inkscape:label="Layer0 21 1 STROKES" transform="matrix(1.0, 0.0, 0.0, 1.0, 328.502, 279.805)" style="stroke:url(#Gradient_Y1eueHfTaw);stroke-opacity:1.0;stroke-width:16.1;stroke-miterlimit:0;stroke-linecap:round;stroke-linejoin:round">
               <path d="M -113.152,138.695 C -100.469,149.774 -120.821,170.454 -133.453,159.894 C -141.17600000000002,153.196 -141.523,142.52100000000002 -138.002,131.895 C -134.41,119.37800000000001 -121.72900000000001,112.331 -109.802,111.795 C -94.4,109.435 -78.681,123.39 -66.703,129.346 C -46.57000000000001,138.866 -25.677,130.491 -26.954,107.394 C -26.983,100.986 -28.457,79.012 -19.101,73.045 C -6.764999999999999,63.031000000000006 4.555,64.83800000000001 22.847,70.495 C 45.762,79.316 73.208,75.964 74.249,48.794 C 74.008,40.111999999999995 71.54599999999999,35.384 66.848,26.295 C 57.864999999999995,9.549000000000003 53.493,-9.387 74.298,-14.806 C 89.767,-18.323999999999998 114.664,-12.601 127.947,-24.006 C 155.383,-43.679 132.761,-95.539 97.598,-70.804 C 78.203,-56.263000000000005 56.327,-65.99000000000001 56.097,-86.906 C 56.323,-106.26500000000001 78.995,-106.29899999999999 89.947,-118.806 C 111.435,-137.814 79.976,-170.37800000000001 58.247,-158.204 C 47.153999999999996,-154.65200000000002 41.144,-134.67200000000003 35.448,-128.104 C 30.52,-122.86100000000002 20.265,-117.319 13.248,-124.105 C 4.908999999999999,-128.56900000000002 2.1210000000000004,-159.37800000000001 -8.352,-161.655 C -20.514000000000003,-165.58 -36.355000000000004,-158.80300000000003 -48.002,-151.955 C -61.753,-145.54700000000003 -60.607,-119.121 -40.952,-131.605 " id="path_162" inkscape:label="Path 1" style=""/>
            </g>
            <g id="Layer0_22_1_STROKES" inkscape:label="Layer0 22 1 STROKES" transform="matrix(1.0, 0.0, 0.0, 1.0, 327.802, 278.405)" style="stroke:url(#Gradient_yV56atOn0m);stroke-opacity:1.0;stroke-width:8.0;stroke-miterlimit:0;stroke-linecap:round;stroke-linejoin:round">
               <path d="M -113.152,138.695 C -100.469,149.774 -120.821,170.454 -133.453,159.894 C -141.17600000000002,153.196 -141.523,142.52100000000002 -138.002,131.895 C -134.41,119.37800000000001 -121.72900000000001,112.331 -109.802,111.795 C -94.4,109.435 -78.681,123.39 -66.703,129.346 C -46.57000000000001,138.866 -25.677,130.491 -26.954,107.394 C -26.983,100.986 -28.457,79.012 -19.101,73.045 C -6.764999999999999,63.031000000000006 4.555,64.83800000000001 22.847,70.495 C 45.762,79.316 73.208,75.964 74.249,48.794 C 74.00699999999999,40.111999999999995 71.54599999999999,35.384 66.848,26.295 C 57.864999999999995,9.549000000000003 53.493,-9.387 74.298,-14.806 C 89.767,-18.323999999999998 114.664,-12.601 127.947,-24.006 C 155.383,-43.679 132.761,-95.539 97.598,-70.804 C 78.203,-56.263000000000005 56.327,-65.99000000000001 56.097,-86.906 C 56.323,-106.26500000000001 78.995,-106.29899999999999 89.947,-118.806 C 111.435,-137.814 79.976,-170.37800000000001 58.247,-158.204 C 47.153999999999996,-154.65200000000002 41.143,-134.67200000000003 35.448,-128.104 C 30.52,-122.86100000000002 20.265,-117.319 13.248,-124.105 C 4.908999999999999,-128.56900000000002 2.1210000000000004,-159.37800000000001 -8.352,-161.655 C -20.514000000000003,-165.58 -36.355000000000004,-158.80300000000003 -48.002,-151.955 C -61.753,-145.54700000000003 -60.607,-119.121 -40.952,-131.605 " id="path_163" inkscape:label="Path 1" style=""/>
            </g>
         </g>
      </g>
      <g inkscape:groupmode="layer" id="l_str" inkscape:label="l_str" transform="matrix(1.0, 0.0, 0.0, 1.0, -206.107, -213.22299999999998)" style="">
         <g id="g_164" inkscape:label="l_str" transform="matrix(1.0, 0.0, 0.0, 1.0, 0.0, 0.0)" style="">
            <g id="Layer0_20_MEMBER_0_2_STROKES" inkscape:label="Layer0 20 MEMBER 0 2 STROKES" transform="matrix(1.0, 0.0, 0.0, 1.0, 146.011, 246.321)" opacity="0.45" style="stroke:rgb(97, 59, 26);stroke-opacity:1.0;stroke-width:14.0;stroke-miterlimit:0;stroke-linecap:round;stroke-linejoin:round">
               <path d="M -3.661,160.529 C -15.915,158.649 -14.96,186.653 -3.511,188.578 C 7.6000000000000005,191.843 20.683,176.332 23.689,166.03 C 28.079,153.838 22.448999999999998,141.585 13.189,134.579 C 2.5229999999999997,124.69600000000001 -16.786,128.445 -29.012,127.18 C -42.947,126.22300000000001 -56.952,113.714 -53.061,100.579 C -51.219,88.604 -31.443,71.849 -35.911,56.18 C -40.165,35.558 -64.7,35.151 -82.462,29.73 C -94.745,26.294 -110.155,11.33 -104.811,-2.221 C -99.572,-16.847 -92.32900000000001,-17.534 -79.311,-26.121 C -67.87800000000001,-33.571 -46.843,-49.422 -61.311,-64.32 C -71.713,-76.452 -96.10600000000001,-82.258 -102.361,-101.371 C -110.081,-117.86699999999999 -96.023,-145.80999999999997 -75.361,-143.42 C -64.628,-142.987 -57.244,-136.888 -53.211,-125.121 C -46.396,-99.213 -21.409,-97.351 -9.61,-114.921 C 3.521000000000001,-137.005 -31.451999999999998,-151.962 -20.66,-174.771 C -16.09,-190.1 12.994000000000002,-194.57 22.289,-180.67 C 33.543,-169.72299999999998 26.939999999999998,-149.24599999999998 27.738,-138.57 C 28.919999999999998,-121.085 57.926,-114.172 66.039,-132.821 C 78.825,-162.3 112.101,-125.11099999999999 104.889,-105.821 C 101.05199999999999,-88.43599999999999 83.011,-97.61500000000001 88.439,-111.421 " id="path_165" inkscape:label="Path 1" style=""/>
            </g>
            <g id="Layer0_21_2_STROKES" inkscape:label="Layer0 21 2 STROKES" transform="matrix(1.0, 0.0, 0.0, 1.0, 147.202, 240.671)" style="stroke:url(#Gradient_FCkWnJw33O);stroke-opacity:1.0;stroke-width:14.0;stroke-miterlimit:0;stroke-linecap:round;stroke-linejoin:round">
               <path d="M -3.652,160.529 C -15.899000000000001,158.634 -14.902000000000001,186.642 -3.502,188.577 C 7.609000000000001,191.84199999999998 20.691,176.331 23.697,166.029 C 28.087,153.837 22.458,141.585 13.198,134.579 C 2.532,124.697 -16.777,128.445 -29.003,127.18 C -42.933,126.206 -56.938,113.68299999999999 -53.002,100.579 C -51.211000000000006,88.61699999999999 -31.43,71.82600000000001 -35.902,56.179 C -40.074,35.58 -64.706,35.157 -82.403,29.73 C -94.72300000000001,26.295 -110.11200000000001,11.315 -104.802,-2.221 C -99.48400000000001,-16.819000000000003 -92.346,-17.525 -79.303,-26.122 C -67.823,-33.565 -46.759,-49.411 -61.302,-64.321 C -71.703,-76.45 -96.095,-82.303 -102.352,-101.372 C -110.033,-117.908 -95.98400000000001,-145.816 -75.302,-143.421 C -64.602,-142.988 -57.235,-136.888 -53.202,-125.121 C -46.387,-99.213 -21.4,-97.351 -9.601,-114.921 C 3.5299999999999994,-137.005 -31.442999999999998,-151.962 -20.651,-174.771 C -16.088,-190.05999999999997 12.989,-194.596 22.297,-180.671 C 33.551,-169.724 26.948,-149.24699999999999 27.746,-138.571 C 28.927999999999997,-121.086 57.935,-114.173 66.048,-132.822 C 78.821,-162.297 112.145,-125.115 104.848,-105.821 C 101.002,-88.446 83.012,-97.595 88.448,-111.421 " id="path_166" inkscape:label="Path 1" style=""/>
            </g>
            <g id="Layer0_22_2_STROKES" inkscape:label="Layer0 22 2 STROKES" transform="matrix(1.0, 0.0, 0.0, 1.0, 148.976, 239.265)" style="stroke:url(#Gradient_VF2oBgn4hY);stroke-opacity:1.0;stroke-width:8.0;stroke-miterlimit:0;stroke-linecap:round;stroke-linejoin:round">
               <path d="M -3.576,160.535 C -15.617,158.726 -14.588000000000001,186.611 -3.426,188.584 C 7.5649999999999995,191.82 20.289,176.216 23.174,166.035 C 27.491999999999997,153.898 22.046999999999997,141.64100000000002 12.924,134.585 C 2.485999999999999,124.721 -16.345,128.443 -28.377,127.186 C -42.225,126.167 -55.715,113.604 -51.926,100.585 C -50.088,88.613 -30.714000000000002,71.808 -35.176,56.185 C -39.313,35.548 -63.03800000000001,35.246 -80.677,29.736 C -92.846,26.253 -107.806,11.165000000000001 -102.576,-2.215 C -97.466,-16.776 -90.417,-17.506 -77.627,-26.115 C -66.29599999999999,-33.622 -45.843,-49.528999999999996 -60.026,-64.315 C -70.24900000000001,-76.484 -94.096,-82.32499999999999 -100.176,-101.365 C -107.647,-117.618 -94.185,-145.759 -73.726,-143.415 C -63.26,-142.982 -56.043,-136.882 -52.076,-125.115 C -45.421,-99.26899999999999 -21.036,-97.293 -9.425,-114.915 C 3.5109999999999992,-136.967 -30.791000000000004,-152.005 -20.225,-174.765 C -15.738000000000001,-190.036 12.618,-194.60999999999999 21.823,-180.665 C 32.809,-169.753 26.368000000000002,-149.163 27.172,-138.565 C 28.442,-121.10499999999999 56.459999999999994,-114.065 64.624,-132.815 C 77.309,-162.397 109.80799999999999,-124.834 102.624,-105.815 C 98.84299999999999,-88.377 81.21,-97.67800000000001 86.574,-111.415 " id="path_167" inkscape:label="Path 1" style=""/>
            </g>
         </g>
      </g>
   </g>
   <g inkscape:groupmode="layer" id="Primary_Null_1" inkscape:label="Primary Null 1" transform="matrix(1.0, 0.0, 0.0, 1.0, 206.107, 213.223)" opacity="1">
      <g inkscape:groupmode="layer" id="main_herz_2" inkscape:label="main_herz 2" transform="matrix(1.0009304461000998, -0.010918890504761615, 0.010918890504761615, 1.0009304461000998, 0.17653316975692235, -3.957911113100245)" opacity="1"/>
   </g>
</svg>
