<?xml version="1.0" ?>
<svg xmlns:inkscape="http://www.inkscape.org/namespaces/inkscape" xmlns:sodipodi="http://sodipodi.sourceforge.net/DTD/sodipodi-0.dtd" xmlns="http://www.w3.org/2000/svg" width="512" height="512" viewBox="0 0 512 512" version="1.1" id="Comp_1" sodipodi:docname="Comp 1" inkscape:export-xdpi="96" inkscape:export-ydpi="96" style="fill: none; stroke: none">
   <defs>
      <radialGradient cx="189.949" cy="868.854" r="63.13138424745649" fx="189.949" fy="868.854" id="Gradient_s4QF2Nouh3" inkscape:label="Gradient_s4QF2Nouh3" gradientUnits="userSpaceOnUse">
         <stop offset="0%" stop-color="rgb(255, 255, 141)" stop-opacity="1"/>
         <stop offset="50.0%" stop-color="rgb(255, 227, 70)" stop-opacity="1"/>
         <stop offset="100%" stop-color="rgb(255, 200, 0)" stop-opacity="1"/>
      </radialGradient>
      <linearGradient x1="-19.043" y1="139.586" x2="-8.65" y2="54.368" id="Gradient_7hmN17ipkm" inkscape:label="Gradient_7hmN17ipkm" gradientUnits="userSpaceOnUse">
         <stop offset="0%" stop-color="rgb(255, 255, 255)" stop-opacity="1"/>
         <stop offset="44.7%" stop-color="rgb(243, 241, 249)" stop-opacity="1"/>
         <stop offset="89.4%" stop-color="rgb(231, 228, 242)" stop-opacity="1"/>
      </linearGradient>
      <linearGradient x1="-19.043" y1="139.586" x2="-8.65" y2="54.368" id="linearGradient_3" inkscape:label="Gradient_7hmN17ipkm" gradientUnits="userSpaceOnUse">
         <stop offset="0%" stop-color="rgb(255, 255, 255)" stop-opacity="1"/>
         <stop offset="44.7%" stop-color="rgb(243, 241, 249)" stop-opacity="1"/>
         <stop offset="89.4%" stop-color="rgb(231, 228, 242)" stop-opacity="1"/>
      </linearGradient>
      <linearGradient x1="2.407" y1="-83.262" x2="0.243" y2="49.474" id="Gradient_VTGOx2MFk8" inkscape:label="Gradient_VTGOx2MFk8" gradientUnits="userSpaceOnUse">
         <stop offset="32.6%" stop-color="rgb(253, 255, 4)" stop-opacity="1"/>
         <stop offset="77.10000000000001%" stop-color="rgb(254, 205, 2)" stop-opacity="1"/>
         <stop offset="94.19999999999999%" stop-color="rgb(255, 154, 0)" stop-opacity="1"/>
      </linearGradient>
      <linearGradient x1="2.407" y1="-83.262" x2="0.243" y2="49.474" id="linearGradient_37" inkscape:label="Gradient_VTGOx2MFk8" gradientUnits="userSpaceOnUse">
         <stop offset="32.6%" stop-color="rgb(253, 255, 4)" stop-opacity="1"/>
         <stop offset="77.10000000000001%" stop-color="rgb(254, 205, 2)" stop-opacity="1"/>
         <stop offset="94.19999999999999%" stop-color="rgb(255, 154, 0)" stop-opacity="1"/>
      </linearGradient>
      <linearGradient x1="1.922" y1="-72.403" x2="-0.243" y2="60.332" id="Gradient_Us8r2FLEzJ" inkscape:label="Gradient_Us8r2FLEzJ" gradientUnits="userSpaceOnUse">
         <stop offset="32.6%" stop-color="rgb(253, 255, 4)" stop-opacity="1"/>
         <stop offset="77.10000000000001%" stop-color="rgb(254, 205, 2)" stop-opacity="1"/>
         <stop offset="94.19999999999999%" stop-color="rgb(255, 154, 0)" stop-opacity="1"/>
      </linearGradient>
      <linearGradient x1="1.922" y1="-72.403" x2="-0.243" y2="60.332" id="linearGradient_42" inkscape:label="Gradient_Us8r2FLEzJ" gradientUnits="userSpaceOnUse">
         <stop offset="32.6%" stop-color="rgb(253, 255, 4)" stop-opacity="1"/>
         <stop offset="77.10000000000001%" stop-color="rgb(254, 205, 2)" stop-opacity="1"/>
         <stop offset="94.19999999999999%" stop-color="rgb(255, 154, 0)" stop-opacity="1"/>
      </linearGradient>
      <linearGradient x1="2.407" y1="-83.262" x2="0.243" y2="49.474" id="Gradient_7HtpitXsLV" inkscape:label="Gradient_7HtpitXsLV" gradientUnits="userSpaceOnUse">
         <stop offset="32.6%" stop-color="rgb(253, 255, 4)" stop-opacity="1"/>
         <stop offset="77.10000000000001%" stop-color="rgb(254, 205, 2)" stop-opacity="1"/>
         <stop offset="94.19999999999999%" stop-color="rgb(255, 154, 0)" stop-opacity="1"/>
      </linearGradient>
      <linearGradient x1="2.407" y1="-83.262" x2="0.243" y2="49.474" id="linearGradient_65" inkscape:label="Gradient_7HtpitXsLV" gradientUnits="userSpaceOnUse">
         <stop offset="32.6%" stop-color="rgb(253, 255, 4)" stop-opacity="1"/>
         <stop offset="77.10000000000001%" stop-color="rgb(254, 205, 2)" stop-opacity="1"/>
         <stop offset="94.19999999999999%" stop-color="rgb(255, 154, 0)" stop-opacity="1"/>
      </linearGradient>
      <linearGradient x1="1.922" y1="-72.403" x2="-0.243" y2="60.332" id="Gradient_dOOow24Yhe" inkscape:label="Gradient_dOOow24Yhe" gradientUnits="userSpaceOnUse">
         <stop offset="32.6%" stop-color="rgb(253, 255, 4)" stop-opacity="1"/>
         <stop offset="77.10000000000001%" stop-color="rgb(254, 205, 2)" stop-opacity="1"/>
         <stop offset="94.19999999999999%" stop-color="rgb(255, 154, 0)" stop-opacity="1"/>
      </linearGradient>
      <linearGradient x1="1.922" y1="-72.403" x2="-0.243" y2="60.332" id="linearGradient_70" inkscape:label="Gradient_dOOow24Yhe" gradientUnits="userSpaceOnUse">
         <stop offset="32.6%" stop-color="rgb(253, 255, 4)" stop-opacity="1"/>
         <stop offset="77.10000000000001%" stop-color="rgb(254, 205, 2)" stop-opacity="1"/>
         <stop offset="94.19999999999999%" stop-color="rgb(255, 154, 0)" stop-opacity="1"/>
      </linearGradient>
      <linearGradient x1="-57.739" y1="-7.253" x2="-64.334" y2="95.253" id="Gradient_gHAcT7kDzm" inkscape:label="Gradient_gHAcT7kDzm" gradientUnits="userSpaceOnUse">
         <stop offset="0%" stop-color="rgb(217, 215, 238)" stop-opacity="1"/>
         <stop offset="72.3%" stop-color="rgb(186, 184, 214)" stop-opacity="1"/>
         <stop offset="100%" stop-color="rgb(156, 152, 190)" stop-opacity="1"/>
      </linearGradient>
      <linearGradient x1="-57.739" y1="-7.253" x2="-64.334" y2="95.253" id="linearGradient_99" inkscape:label="Gradient_gHAcT7kDzm" gradientUnits="userSpaceOnUse">
         <stop offset="0%" stop-color="rgb(217, 215, 238)" stop-opacity="1"/>
         <stop offset="72.3%" stop-color="rgb(186, 184, 214)" stop-opacity="1"/>
         <stop offset="100%" stop-color="rgb(156, 152, 190)" stop-opacity="1"/>
      </linearGradient>
   </defs>
   <sodipodi:namedview inkscape:pagecheckerboard="true" borderlayer="true" bordercolor="#666666" pagecolor="#ffffff"/>
   <g inkscape:groupmode="layer" id="Layer_2" inkscape:label="Layer 2" transform="matrix(1.0, 0.0, 0.0, 1.0, 54.908, 83.528)" style="">
      <g id="Group_1" inkscape:label="Group 1" transform="matrix(1.0, 0.0, 0.0, 1.0, 0.0, 0.0)" style="fill-opacity:1.0;fill:rgb(255, 254, 215);fill-rule:nonzero;stroke:url(#Gradient_s4QF2Nouh3);stroke-opacity:1.0;stroke-width:13.0;stroke-miterlimit:0;stroke-linecap:round;stroke-linejoin:round">
         <path d="M 0.972,-66.592 C 0.972,-66.592 -1.7250000000000014,-9.796 -47.213,-8.084 C -47.213,-8.084 -1.4060000000000001,-11.530000000000001 2.302,66.592 C 2.302,66.592 -4.533000000000001,-5.651 47.213,-7.755 C 47.213,-7.755 7.893000000000001,-5.948999999999998 0.972,-66.592 Z" id="Path_1" inkscape:label="Path 1" style="fill-opacity:1.0;fill:rgb(255, 254, 215);fill-rule:nonzero"/>
      </g>
   </g>
   <g inkscape:groupmode="layer" id="Null_2" inkscape:label="Null 2" transform="matrix(1.0, 0.0, 0.0, 1.0, 256.0, 256.0)" opacity="1">
      <g inkscape:groupmode="layer" id="Null_1" inkscape:label="Null 1" transform="matrix(0.9876883405951378, 0.15643446504023087, -0.15643446504023087, 0.9876883405951378, 42.0, -82.0)" opacity="1">
         <g inkscape:groupmode="layer" id="Layer_1" inkscape:label="Layer 1" transform="matrix(0.9876883405951378, -0.15643446504023087, 0.15643446504023087, 0.9876883405951378, 265.13629210669046, -218.16238607590333)" style="">
            <g inkscape:groupmode="layer" id="Group_11" inkscape:label="Group 11" transform="matrix(1.0, 0.0, 0.0, 1.0, -308.07, 295.922)" style="fill-opacity:1.0;fill:rgb(166, 159, 191);fill-rule:nonzero;stroke:rgb(127, 118, 153);stroke-opacity:1.0;stroke-width:13.0;stroke-miterlimit:0;stroke-linecap:round;stroke-linejoin:round">
               <path d="M 198.948,-169.425 C 198.948,-169.425 198.951,-169.427 198.951,-169.427 C 198.951,-169.427 173.915,-187.858 173.915,-187.858 C 173.915,-187.858 156.77,-174.591 156.77,-174.591 C 156.77,-174.591 -103.808,-197.615 -103.808,-197.615 C -112.09700000000001,-198.347 -119.65100000000001,-192.838 -121.486,-184.721 C -121.486,-184.721 -183.276,88.55 -183.276,88.55 C -183.276,88.55 -207.512,107.305 -207.512,107.305 C -207.512,107.305 -182.146,125.879 -182.146,125.879 C -182.146,125.879 -182.131,125.867 -182.131,125.867 C -180.231,127.393 -177.977,128.539 -175.442,129.118 C -175.442,129.118 122.839,197.259 122.839,197.259 C 132.015,199.355 141.1,193.423 142.87,184.179 C 142.87,184.179 207.211,-151.76 207.211,-151.76 C 208.609,-159.059 205.012,-166.05700000000002 198.948,-169.425 Z" id="path_1" inkscape:label="Path 1" style="fill-opacity:1.0;fill:rgb(166, 159, 191);fill-rule:nonzero"/>
            </g>
            <g inkscape:groupmode="layer" id="Group_10" inkscape:label="Group 10" transform="matrix(1.0, 0.0, 0.0, 1.0, -324.141, 277.134)" style="fill-opacity:1.0;fill:url(#Gradient_7hmN17ipkm);fill-rule:nonzero">
               <path d="M -185.014,129.118 C -185.014,129.118 113.267,197.258 113.267,197.258 C 122.443,199.354 131.528,193.423 133.298,184.179 C 133.298,184.179 197.639,-151.76 197.639,-151.76 C 199.491,-161.429 192.581,-170.58 182.774,-171.447 C 182.774,-171.447 -113.38,-197.615 -113.38,-197.615 C -121.669,-198.347 -129.22299999999998,-192.838 -131.058,-184.721 C -131.058,-184.721 -197.527,109.244 -197.527,109.244 C -199.54899999999998,118.185 -193.95100000000002,127.076 -185.014,129.118 Z" id="path_2" inkscape:label="Path 1" style="fill-opacity:1.0;fill:url(#linearGradient_3);fill-rule:nonzero"/>
            </g>
            <g inkscape:groupmode="layer" id="Group_9" inkscape:label="Group 9" transform="matrix(1.0, 0.0, 0.0, 1.0, -177.966, 319.694)" opacity="0.6" style="stroke:rgb(255, 255, 255);stroke-opacity:1.0;stroke-width:13.0;stroke-miterlimit:0;stroke-linecap:round;stroke-linejoin:round">
               <path d="M 28.676,-148.96 C 28.676,-148.96 -28.676,148.96 -28.676,148.96 " id="path_4" inkscape:label="Path 1" style=""/>
            </g>
            <g inkscape:groupmode="layer" id="Group_8" inkscape:label="Group 8" transform="matrix(1.0, 0.0, 0.0, 1.0, -486.724, 279.907)" opacity="0.6" style="stroke:rgb(255, 255, 255);stroke-opacity:1.0;stroke-width:13.0;stroke-miterlimit:0;stroke-linecap:round;stroke-linejoin:round">
               <path d="M -28.858,123.32 C -28.858,123.32 28.858,-123.32 28.858,-123.32 " id="path_5" inkscape:label="Path 1" style=""/>
            </g>
            <g inkscape:groupmode="layer" id="Group_7" inkscape:label="Group 7" transform="matrix(1.0, 0.0, 0.0, 1.0, 0.0, 0.0)" style="">
               <g id="g_6" inkscape:label="Group 11" transform="matrix(1.0, 0.0, 0.0, 1.0, -446.459, 287.998)" opacity="0.4" style="fill-opacity:1.0;fill:rgb(166, 159, 191);fill-rule:nonzero">
                  <path d="M 25.739,-4.457 C 25.739,-4.457 21.256,14.324 21.256,14.324 C 19.502,21.674 12.355,26.409 4.902,25.159 C 4.902,25.159 -14.139,21.965 -14.139,21.965 C -22.345,20.588 -27.671,12.550999999999998 -25.739,4.457 C -25.739,4.457 -21.256,-14.324 -21.256,-14.324 C -19.502,-21.674 -12.355,-26.409 -4.902,-25.159 C -4.902,-25.159 14.139,-21.965 14.139,-21.965 C 22.345,-20.588 27.671,-12.550999999999998 25.739,-4.457 Z" id="path_7" inkscape:label="Path 1" style="fill-opacity:1.0;fill:rgb(166, 159, 191);fill-rule:nonzero"/>
               </g>
               <g id="g_8" inkscape:label="Group 10" transform="matrix(1.0, 0.0, 0.0, 1.0, -463.169, 358.013)" opacity="0.4" style="fill-opacity:1.0;fill:rgb(166, 159, 191);fill-rule:nonzero">
                  <path d="M 25.701,-4.304 C 25.701,-4.304 21.224,14.452 21.224,14.452 C 19.45,21.883 12.172,26.626 4.658,25.25 C 4.658,25.25 -14.313,21.775 -14.313,21.775 C -22.414,20.290999999999997 -27.613,12.315 -25.701,4.304 C -25.701,4.304 -21.224,-14.452 -21.224,-14.452 C -19.45,-21.883 -12.172,-26.626 -4.658,-25.25 C -4.658,-25.25 14.313,-21.775 14.313,-21.775 C 22.414,-20.290999999999997 27.613,-12.315 25.701,-4.304 Z" id="path_9" inkscape:label="Path 1" style="fill-opacity:1.0;fill:rgb(166, 159, 191);fill-rule:nonzero"/>
               </g>
               <g id="g_10" inkscape:label="Group 9" transform="matrix(1.0, 0.0, 0.0, 1.0, -207.954, 250.232)" opacity="0.4" style="fill-opacity:1.0;fill:rgb(166, 159, 191);fill-rule:nonzero">
                  <path d="M 25.479,-5.369 C 25.479,-5.369 21.823,13.569 21.823,13.569 C 20.369,21.102 13.253,26.164 5.66,25.067 C 5.66,25.067 -13.424,22.31 -13.424,22.31 C -21.543,21.137 -27.034,13.418 -25.479,5.364 C -25.479,5.364 -21.823,-13.569 -21.823,-13.569 C -20.369,-21.101 -13.254999999999999,-26.162 -5.663,-25.067 C -5.663,-25.067 13.421,-22.315 13.421,-22.315 C 21.540999999999997,-21.144000000000002 27.034,-13.424 25.479,-5.369 Z" id="path_11" inkscape:label="Path 1" style="fill-opacity:1.0;fill:rgb(166, 159, 191);fill-rule:nonzero"/>
               </g>
               <g id="g_12" inkscape:label="Group 8" transform="matrix(1.0, 0.0, 0.0, 1.0, -222.508, 325.575)" opacity="0.4" style="fill-opacity:1.0;fill:rgb(166, 159, 191);fill-rule:nonzero">
                  <path d="M 25.438,-5.14 C 25.438,-5.14 21.786,13.777 21.786,13.777 C 20.308,21.433999999999997 12.992,26.514000000000003 5.301,25.225 C 5.301,25.225 -13.705,22.039 -13.705,22.039 C -21.669,20.704 -26.969,13.07 -25.437,5.141 C -25.437,5.141 -21.782,-13.779 -21.782,-13.779 C -20.303,-21.436 -12.985,-26.516000000000002 -5.294,-25.225 C -5.294,-25.225 13.708,-22.034 13.708,-22.034 C 21.67,-20.697 26.968,-13.067 25.438,-5.14 Z" id="path_13" inkscape:label="Path 1" style="fill-opacity:1.0;fill:rgb(166, 159, 191);fill-rule:nonzero"/>
               </g>
               <g id="g_14" inkscape:label="Group 7" transform="matrix(1.0, 0.0, 0.0, 1.0, -236.769, 399.448)" opacity="0.4" style="fill-opacity:1.0;fill:rgb(166, 159, 191);fill-rule:nonzero">
                  <path d="M 25.41,-5.003 C 25.41,-5.003 21.757,13.917 21.757,13.917 C 20.263,21.656 12.815000000000001,26.748 5.062,25.329 C 5.062,25.329 -13.887,21.862 -13.887,21.862 C -21.747,20.424 -26.925,12.849 -25.41,5.003 C -25.41,5.003 -21.757,-13.917 -21.757,-13.917 C -20.263,-21.656 -12.815000000000001,-26.748 -5.062,-25.329 C -5.062,-25.329 13.887,-21.862 13.887,-21.862 C 21.747,-20.424 26.925,-12.849 25.41,-5.003 Z" id="path_15" inkscape:label="Path 1" style="fill-opacity:1.0;fill:rgb(166, 159, 191);fill-rule:nonzero"/>
               </g>
               <g id="Group_6" inkscape:label="Group 6" transform="matrix(1.0, 0.0, 0.0, 1.0, -282.529, 239.473)" opacity="0.4" style="fill-opacity:1.0;fill:rgb(166, 159, 191);fill-rule:nonzero">
                  <path d="M 25.555,-5.212 C 25.555,-5.212 21.706,13.7 21.706,13.7 C 20.187,21.163 13.11,26.145 5.572,25.057 C 5.572,25.057 -13.527,22.299 -13.527,22.299 C -21.701999999999998,21.119 -27.201999999999998,13.306 -25.555,5.212 C -25.555,5.212 -21.706,-13.7 -21.706,-13.7 C -20.187,-21.163 -13.11,-26.145 -5.572,-25.057 C -5.572,-25.057 13.527,-22.299 13.527,-22.299 C 21.701999999999998,-21.119 27.201999999999998,-13.306 25.555,-5.212 Z" id="path_16" inkscape:label="Path 1" style="fill-opacity:1.0;fill:rgb(166, 159, 191);fill-rule:nonzero"/>
               </g>
               <g id="Group_5" inkscape:label="Group 5" transform="matrix(1.0, 0.0, 0.0, 1.0, -297.494, 312.993)" opacity="0.4" style="fill-opacity:1.0;fill:rgb(166, 159, 191);fill-rule:nonzero">
                  <path d="M 25.508,-4.979 C 25.508,-4.979 21.664,13.902 21.664,13.902 C 20.119,21.488999999999997 12.841000000000001,26.489 5.205,25.207 C 5.205,25.207 -13.805,22.017 -13.805,22.017 C -21.823999999999998,20.671 -27.13,12.946 -25.508,4.979 C -25.508,4.979 -21.664,-13.902 -21.664,-13.902 C -20.119,-21.488999999999997 -12.841000000000001,-26.489 -5.205,-25.207 C -5.205,-25.207 13.805,-22.017 13.805,-22.017 C 21.823999999999998,-20.671 27.13,-12.946 25.508,-4.979 Z" id="path_17" inkscape:label="Path 1" style="fill-opacity:1.0;fill:rgb(166, 159, 191);fill-rule:nonzero"/>
               </g>
               <g id="Group_4" inkscape:label="Group 4" transform="matrix(1.0, 0.0, 0.0, 1.0, -312.284, 385.632)" opacity="0.4" style="fill-opacity:1.0;fill:rgb(166, 159, 191);fill-rule:nonzero">
                  <path d="M 25.48,-4.839 C 25.48,-4.839 21.636,14.041 21.636,14.041 C 20.075,21.709 12.665,26.718 4.967,25.308 C 4.967,25.308 -13.988,21.837 -13.988,21.837 C -21.904,20.387 -27.086000000000002,12.719999999999999 -25.48,4.835 C -25.48,4.835 -21.636,-14.041 -21.636,-14.041 C -20.075,-21.708 -12.667,-26.717000000000002 -4.97,-25.309 C -4.97,-25.309 13.985,-21.841 13.985,-21.841 C 21.902,-20.393 27.086000000000002,-12.725000000000001 25.48,-4.839 Z" id="path_18" inkscape:label="Path 1" style="fill-opacity:1.0;fill:rgb(166, 159, 191);fill-rule:nonzero"/>
               </g>
               <g id="Group_3" inkscape:label="Group 3" transform="matrix(1.0, 0.0, 0.0, 1.0, -359.593, 228.353)" opacity="0.4" style="fill-opacity:1.0;fill:rgb(166, 159, 191);fill-rule:nonzero">
                  <path d="M 25.587,-5.131 C 25.587,-5.131 21.642,13.761 21.642,13.761 C 20.091,21.188 13.033,26.131 5.523,25.047 C 5.523,25.047 -13.573,22.291 -13.573,22.291 C -21.778,21.107 -27.282,13.244 -25.586,5.129 C -25.586,5.129 -21.638,-13.764 -21.638,-13.764 C -20.086000000000002,-21.189999999999998 -13.028,-26.131 -5.519,-25.047 C -5.519,-25.047 13.574,-22.291 13.574,-22.291 C 21.778,-21.107 27.281,-13.245000000000001 25.587,-5.131 Z" id="path_19" inkscape:label="Path 1" style="fill-opacity:1.0;fill:rgb(166, 159, 191);fill-rule:nonzero"/>
               </g>
               <g id="Group_2" inkscape:label="Group 2" transform="matrix(1.0, 0.0, 0.0, 1.0, -374.564, 300.063)" opacity="0.4" style="fill-opacity:1.0;fill:rgb(166, 159, 191);fill-rule:nonzero">
                  <path d="M 25.539,-4.9 C 25.539,-4.9 21.599,13.965 21.599,13.965 C 20.022,21.517 12.762,26.476000000000003 5.154,25.199 C 5.154,25.199 -13.851,22.009 -13.851,22.009 C -21.898000000000003,20.659 -27.207,12.887 -25.539,4.9 C -25.539,4.9 -21.599,-13.965 -21.599,-13.965 C -20.022,-21.517 -12.762,-26.476000000000003 -5.154,-25.199 C -5.154,-25.199 13.851,-22.009 13.851,-22.009 C 21.898000000000003,-20.659 27.207,-12.887 25.539,-4.9 Z" id="path_20" inkscape:label="Path 1" style="fill-opacity:1.0;fill:rgb(166, 159, 191);fill-rule:nonzero"/>
               </g>
               <g id="g_21" inkscape:label="Group 1" transform="matrix(1.0, 0.0, 0.0, 1.0, -389.484, 371.498)" opacity="0.4" style="fill-opacity:1.0;fill:rgb(166, 159, 191);fill-rule:nonzero">
                  <path d="M 25.512,-4.757 C 25.512,-4.757 21.571,14.102 21.571,14.102 C 19.977,21.733 12.588999999999999,26.700999999999997 4.92,25.298 C 4.92,25.298 -14.032,21.831 -14.032,21.831 C -21.977,20.378 -27.164,12.663 -25.512,4.757 C -25.512,4.757 -21.571,-14.102 -21.571,-14.102 C -19.977,-21.733 -12.588999999999999,-26.700999999999997 -4.92,-25.298 C -4.92,-25.298 14.032,-21.831 14.032,-21.831 C 21.977,-20.378 27.164,-12.663 25.512,-4.757 Z" id="path_22" inkscape:label="Path 1" style="fill-opacity:1.0;fill:rgb(166, 159, 191);fill-rule:nonzero"/>
               </g>
            </g>
            <g inkscape:groupmode="layer" id="g_23" inkscape:label="Group 6" transform="matrix(1.0, 0.0, 0.0, 1.0, -324.141, 245.009)" opacity="0.2" style="fill-opacity:1.0;fill:rgb(133, 133, 204);fill-rule:nonzero">
               <path d="M 194.62,-101.937 C 194.62,-101.937 180.07,-25.937 180.07,-25.937 C 142.89,68.643 96.02000000000001,109.193 75.09,123.473 C 68.82000000000001,127.753 61.449999999999996,130.123 53.87,130.373 C -51.26,133.773 -131.2,131.833 -184.78,129.043 C -188.16,128.863 -191.44,128.693 -194.62,128.513 C -194.62,128.513 -156.7,-39.197 -156.7,-39.197 C -137.92,-82.81700000000001 -129.48,-115.857 -128.7,-118.977 C -128.7,-118.977 -128.64,-119.217 -128.64,-119.217 C -126.79999999999998,-127.327 -119.25,-132.84699999999998 -110.96,-132.117 C -110.96,-132.117 185.2,-105.947 185.2,-105.947 C 188.83999999999997,-105.617 192.08,-104.157 194.62,-101.937 Z" id="path_24" inkscape:label="Path 1" style="fill-opacity:1.0;fill:rgb(133, 133, 204);fill-rule:nonzero"/>
            </g>
            <g inkscape:groupmode="layer" id="g_25" inkscape:label="Group 5" transform="matrix(1.0, 0.0, 0.0, 1.0, -324.141, 277.134)" style="stroke:rgb(161, 158, 175);stroke-opacity:1.0;stroke-width:13.0;stroke-miterlimit:0;stroke-linecap:round;stroke-linejoin:round">
               <path d="M -185.014,129.118 C -185.014,129.118 113.267,197.258 113.267,197.258 C 122.443,199.354 131.528,193.423 133.298,184.179 C 133.298,184.179 197.639,-151.76 197.639,-151.76 C 199.491,-161.429 192.581,-170.58 182.774,-171.447 C 182.774,-171.447 -113.38,-197.615 -113.38,-197.615 C -121.669,-198.347 -129.22299999999998,-192.838 -131.058,-184.721 C -131.058,-184.721 -197.527,109.244 -197.527,109.244 C -199.54899999999998,118.185 -193.95100000000002,127.076 -185.014,129.118 Z" id="path_26" inkscape:label="Path 1" style=""/>
            </g>
            <g inkscape:groupmode="layer" id="g_27" inkscape:label="Group 4" transform="matrix(1.0, 0.0, 0.0, 1.0, -317.678, 277.134)" style="stroke:rgb(127, 118, 153);stroke-opacity:1.0;stroke-width:13.0;stroke-miterlimit:0;stroke-linecap:round;stroke-linejoin:round">
               <path d="M -191.477,129.118 C -191.477,129.118 106.804,197.258 106.804,197.258 C 115.98,199.354 125.065,193.423 126.835,184.179 C 126.835,184.179 191.176,-151.76 191.176,-151.76 C 193.028,-161.429 186.118,-170.58 176.311,-171.447 C 176.311,-171.447 -119.843,-197.615 -119.843,-197.615 C -128.132,-198.347 -135.68599999999998,-192.838 -137.521,-184.721 " id="path_28" inkscape:label="Path 1" style=""/>
            </g>
            <g inkscape:groupmode="layer" id="g_29" inkscape:label="Group 3" transform="matrix(1.0, 0.0, 0.0, 1.0, -297.544, 135.591)" style="fill-opacity:1.0;fill:rgb(255, 77, 103);fill-rule:nonzero;stroke:rgb(158, 24, 53);stroke-opacity:1.0;stroke-width:13.0;stroke-miterlimit:0;stroke-linecap:round;stroke-linejoin:round">
               <path d="M 171.045,-10.213 C 171.045,-10.213 158.335,56.137 158.335,56.137 C 158.335,56.137 -171.345,17.371 -171.345,17.371 C -171.345,17.371 -157.655,-43.183 -157.655,-43.183 C -155.815,-51.293 -148.265,-56.803 -139.975,-56.073 C -139.975,-56.073 156.175,-29.903 156.175,-29.903 C 165.985,-29.043 172.89499999999998,-19.883 171.045,-10.213 Z" id="path_30" inkscape:label="Path 1" style="fill-opacity:1.0;fill:rgb(255, 77, 103);fill-rule:nonzero"/>
            </g>
            <g inkscape:groupmode="layer" id="Group_15" inkscape:label="Group 15" transform="matrix(1.0, 0.0, 0.0, 1.0, -353.689, 212.562)" opacity="0.4" style="stroke:rgb(255, 255, 255);stroke-opacity:1.0;stroke-width:13.0;stroke-miterlimit:0;stroke-linecap:round;stroke-linejoin:round">
               <path d="M 221.082,-66.422 C 221.082,-66.422 218.239,-89.751 218.239,-89.751 C 217.90800000000002,-92.464 215.722,-94.573 213,-94.809 C 213,-94.809 -83.939,-120.536 -83.939,-120.536 C -86.722,-120.777 -89.281,-118.996 -90.013,-116.3 C -96.804,-91.286 -99.332,-69.943 -99.332,-69.943 " id="path_31" inkscape:label="Path 1" style=""/>
            </g>
            <g inkscape:groupmode="layer" id="g_32" inkscape:label="Group 2" transform="matrix(1.0, 0.0, 0.0, 1.0, -119.884, 160.203)" style="fill-opacity:1.0;fill:rgb(181, 24, 69);fill-rule:nonzero;stroke:rgb(137, 16, 47);stroke-opacity:1.0;stroke-width:13.0;stroke-miterlimit:0;stroke-linecap:round;stroke-linejoin:round">
               <path d="M 19.024,-16.045 C 19.024,-16.045 6.294,50.405 6.294,50.405 C 6.294,50.405 -19.326,31.525 -19.326,31.525 C -19.326,31.525 -6.616,-34.825 -6.616,-34.825 C -5.465999999999999,-40.845 -7.706,-46.665 -11.926,-50.405 C -11.926,-50.405 10.764,-33.705 10.764,-33.705 C 16.823999999999998,-30.334999999999997 20.424,-23.335 19.024,-16.045 Z" id="path_33" inkscape:label="Path 1" style="fill-opacity:1.0;fill:rgb(181, 24, 69);fill-rule:nonzero"/>
            </g>
            <g inkscape:groupmode="layer" id="g_34" inkscape:label="Group 1" transform="matrix(1.0, 0.0, 0.0, 1.0, -344.1, 448.417)" style="fill-opacity:1.0;fill:rgb(127, 118, 153);fill-rule:nonzero;stroke:rgb(127, 118, 153);stroke-opacity:1.0;stroke-width:13.0;stroke-miterlimit:0;stroke-linecap:round;stroke-linejoin:round">
               <path d="M 171.483,42.591 C 167.875,44.886 163.386,45.795 158.875,44.765 C 158.875,44.765 -139.408,-23.382 -139.408,-23.382 C -141.946,-23.956000000000003 -144.197,-25.099 -146.099,-26.625 C -146.099,-26.625 -146.12,-26.62 -146.12,-26.62 C -146.12,-26.62 -171.483,-45.186 -171.483,-45.186 C -169.637,-43.769 -167.472,-42.719 -165.059,-42.162 C -165.059,-42.162 133.221,25.974 133.221,25.974 C 138.28900000000002,27.135 143.332,25.841 147.131,22.904 C 147.131,22.904 171.483,42.591 171.483,42.591 Z" id="path_35" inkscape:label="Path 1" style="fill-opacity:1.0;fill:rgb(127, 118, 153);fill-rule:nonzero"/>
            </g>
         </g>
         <g inkscape:groupmode="layer" id="Layer_4" inkscape:label="Layer 4" transform="matrix(0.9876883405951378, -0.15643446504023087, 0.15643446504023087, 0.9876883405951378, 265.13606690665233, -218.16311638083275)" style="">
            <g id="Group_12" inkscape:label="Group 12" transform="matrix(1.0, 0.0, 0.0, 1.0, -230.59, 97.981)" style="fill-opacity:1.0;fill:url(#Gradient_VTGOx2MFk8);fill-rule:nonzero">
               <path d="M 34.39,2.86 C 39.629,-52.619 -5.619,-66.396 -24.904,-26.687 C -41.155,6.773999999999997 -33.924,40.31099999999999 -27.691,46.535 C -19.427,54.785999999999994 1.6549999999999998,44.077 1.073,31.749 C 0.376,16.99 0.14900000000000002,8.528 3.99,-3.113 C 8.381,-16.42 11.66,-4.036 10.906,0.785 C 10.906,0.785 34.39,2.86 34.39,2.86 Z" id="path_36" inkscape:label="Path 1" style="fill-opacity:1.0;fill:url(#linearGradient_37);fill-rule:nonzero"/>
            </g>
            <g id="g_38" inkscape:label="Group 11" transform="matrix(1.0, 0.0, 0.0, 1.0, -235.05, 93.873)" opacity="0.85" style="stroke:rgb(255, 255, 255);stroke-opacity:1.0;stroke-width:13.0;stroke-miterlimit:0;stroke-linecap:round;stroke-linejoin:round">
               <path d="M -29.418,33.245 C -29.418,33.245 -28.135,-21.927 2.054,-31.955 C 30.793999999999997,-41.501999999999995 29.408,5.045 29.408,5.045 " id="path_39" inkscape:label="Path 1" style=""/>
            </g>
            <g id="g_40" inkscape:label="Group 10" transform="matrix(1.0, 0.0, 0.0, 1.0, -376.105, 85.123)" style="fill-opacity:1.0;fill:url(#Gradient_Us8r2FLEzJ);fill-rule:nonzero">
               <path d="M 34.39,2.86 C 39.629,-52.619 -5.619,-66.396 -24.904,-26.687 C -41.155,6.773999999999997 -33.924,40.31099999999999 -27.691,46.535 C -19.427,54.785999999999994 1.6549999999999998,44.077 1.073,31.749 C 0.376,16.99 0.14900000000000002,8.528 3.99,-3.113 C 8.381,-16.42 11.66,-4.036 10.906,0.785 C 10.906,0.785 34.39,2.86 34.39,2.86 Z" id="path_41" inkscape:label="Path 1" style="fill-opacity:1.0;fill:url(#linearGradient_42);fill-rule:nonzero"/>
            </g>
            <g id="g_43" inkscape:label="Group 9" transform="matrix(1.0, 0.0, 0.0, 1.0, -380.919, 81.39)" opacity="0.85" style="stroke:rgb(255, 255, 255);stroke-opacity:1.0;stroke-width:13.0;stroke-miterlimit:0;stroke-linecap:round;stroke-linejoin:round">
               <path d="M -29.004,33.278 C -29.004,33.278 -26.852,-26.942 4.814,-32.85 C 31.995,-37.922000000000004 28.898,3.732 28.898,3.732 " id="path_44" inkscape:label="Path 1" style=""/>
            </g>
            <g id="g_45" inkscape:label="Group 8" transform="matrix(1.0, 0.0, 0.0, 1.0, -230.59, 97.981)" style="stroke:rgb(188, 89, 0);stroke-opacity:1.0;stroke-width:13.0;stroke-miterlimit:0;stroke-linecap:round;stroke-linejoin:round">
               <path d="M 34.39,2.86 C 39.629,-52.619 -5.619,-66.396 -24.904,-26.687 C -41.155,6.773999999999997 -33.924,40.31099999999999 -27.691,46.535 C -19.427,54.785999999999994 1.6549999999999998,44.077 1.073,31.749 C 0.376,16.99 0.14900000000000002,8.528 3.99,-3.113 C 8.381,-16.42 11.66,-4.036 10.906,0.785 C 10.906,0.785 34.39,2.86 34.39,2.86 Z" id="path_46" inkscape:label="Path 1" style=""/>
            </g>
            <g id="g_47" inkscape:label="Group 7" transform="matrix(1.0, 0.0, 0.0, 1.0, -376.105, 85.123)" style="stroke:rgb(188, 89, 0);stroke-opacity:1.0;stroke-width:13.0;stroke-miterlimit:0;stroke-linecap:round;stroke-linejoin:round">
               <path d="M 34.39,2.86 C 39.629,-52.619 -5.619,-66.396 -24.904,-26.687 C -41.155,6.773999999999997 -33.924,40.31099999999999 -27.691,46.535 C -19.427,54.785999999999994 1.6549999999999998,44.077 1.073,31.749 C 0.376,16.99 0.14900000000000002,8.528 3.99,-3.113 C 8.381,-16.42 11.66,-4.036 10.906,0.785 C 10.906,0.785 34.39,2.86 34.39,2.86 Z" id="path_48" inkscape:label="Path 1" style=""/>
            </g>
            <g id="g_49" inkscape:label="Group 6" transform="matrix(1.0, 0.0, 0.0, 1.0, -200.861, 100.429)" style="stroke:rgb(158, 24, 53);stroke-opacity:1.0;stroke-width:13.0;stroke-miterlimit:0;stroke-linecap:round;stroke-linejoin:round">
               <path d="M -18.823,-1.663 C -18.823,-1.663 18.823,1.663 18.823,1.663 " id="path_50" inkscape:label="Path 1" style=""/>
            </g>
            <g id="g_51" inkscape:label="Group 5" transform="matrix(1.0, 0.0, 0.0, 1.0, -336.634, 88.432)" style="stroke:rgb(158, 24, 53);stroke-opacity:1.0;stroke-width:13.0;stroke-miterlimit:0;stroke-linecap:round;stroke-linejoin:round">
               <path d="M -28.564,-2.525 C -28.564,-2.525 28.564,2.525 28.564,2.525 " id="path_52" inkscape:label="Path 1" style=""/>
            </g>
            <g id="g_53" inkscape:label="Group 4" transform="matrix(1.0, 0.0, 0.0, 1.0, -238.928, 118.157)" style="stroke:rgb(158, 64, 0);stroke-opacity:1.0;stroke-width:13.0;stroke-miterlimit:0;stroke-linecap:round;stroke-linejoin:round">
               <path d="M -19.353,26.359 C -11.089000000000002,34.61 9.993,23.902 9.411,11.574 C 8.714,-3.1850000000000005 8.486999999999998,-11.648000000000001 12.328,-23.289 C 16.719,-36.596000000000004 19.999000000000002,-24.211999999999996 19.245,-19.391 " id="path_54" inkscape:label="Path 1" style=""/>
            </g>
            <g id="g_55" inkscape:label="Group 3" transform="matrix(1.0, 0.0, 0.0, 1.0, -384.443, 105.299)" style="stroke:rgb(158, 64, 0);stroke-opacity:1.0;stroke-width:13.0;stroke-miterlimit:0;stroke-linecap:round;stroke-linejoin:round">
               <path d="M -19.353,26.359 C -11.089000000000002,34.61 9.993,23.902 9.411,11.574 C 8.714,-3.1850000000000005 8.486999999999998,-11.648000000000001 12.328,-23.289 C 16.719,-36.596000000000004 19.999000000000002,-24.211999999999996 19.245,-19.391 " id="path_56" inkscape:label="Path 1" style=""/>
            </g>
         </g>
         <g inkscape:groupmode="layer" id="Layer_3" inkscape:label="Layer 3" transform="matrix(0.9876883405951378, -0.15643446504023087, 0.15643446504023087, 0.9876883405951378, 265.13606690665233, -218.16311638083275)" style="">
            <g id="Group_17" inkscape:label="Group 17" transform="matrix(1.0, 0.0, 0.0, 1.0, -352.021, 211.632)" style="fill-opacity:1.0;fill:rgb(255, 255, 255);fill-rule:nonzero">
               <path d="M 210.657,-105.945 C 210.657,-105.945 -85.502,-132.115 -85.502,-132.115 C -93.788,-132.846 -101.342,-127.333 -103.179,-119.22 C -103.179,-119.22 -103.238,-118.976 -103.238,-118.976 C -104.803,-112.695 -137.35199999999998,14.524000000000001 -222.617,105.521 C -229.308,112.662 -224.90599999999998,124.35799999999999 -215.158,125.219 C -201.851,126.39399999999999 -183.20399999999998,127.80000000000001 -159.319,129.038 C -105.73899999999999,131.83200000000002 -25.795999999999992,133.76999999999998 79.334,130.368 C 86.915,130.123 94.286,127.747 100.551,123.472 C 125.467,106.47 187.182,52.217 225.492,-86.145 C 225.492,-86.145 225.546,-86.378 225.546,-86.378 C 227.316,-96.005 220.42200000000003,-105.07799999999999 210.657,-105.945 Z" id="path_57" inkscape:label="Path 1" style="fill-opacity:1.0;fill:rgb(255, 255, 255);fill-rule:nonzero"/>
            </g>
            <g id="Group_16" inkscape:label="Group 16" transform="matrix(1.0, 0.0, 0.0, 1.0, -301.102, 132.902)" style="fill-opacity:1.0;fill:rgb(255, 77, 103);fill-rule:nonzero">
               <path d="M 174.604,-7.531 C 168.388,14.951 161.543,35.205 154.348,53.449 C 154.348,53.449 -174.893,21.951 -174.893,21.951 C -174.893,21.951 -174.904,21.953 -174.904,21.953 C -161.175,-12.717000000000002 -154.833,-37.565000000000005 -154.157,-40.246 C -154.157,-40.246 -154.099,-40.49 -154.099,-40.49 C -152.262,-48.603 -144.708,-54.115 -136.422,-53.384 C -136.422,-53.384 159.738,-27.215 159.738,-27.215 C 169.543,-26.344 176.45200000000003,-17.201999999999998 174.604,-7.531 Z" id="path_58" inkscape:label="Path 1" style="fill-opacity:1.0;fill:rgb(255, 77, 103);fill-rule:nonzero"/>
            </g>
            <g id="g_59" inkscape:label="Group 15" transform="matrix(1.0, 0.0, 0.0, 1.0, -353.689, 212.562)" opacity="0.4" style="stroke:rgb(255, 255, 255);stroke-opacity:1.0;stroke-width:13.0;stroke-miterlimit:0;stroke-linecap:round;stroke-linejoin:round">
               <path d="M 221.082,-66.422 C 221.082,-66.422 218.239,-89.751 218.239,-89.751 C 217.90800000000002,-92.464 215.722,-94.573 213,-94.809 C 213,-94.809 -83.939,-120.536 -83.939,-120.536 C -86.722,-120.777 -89.281,-118.996 -90.013,-116.3 C -96.804,-91.286 -132.987,29.393 -221.082,120.557 " id="path_60" inkscape:label="Path 1" style=""/>
            </g>
            <g id="Group_14" inkscape:label="Group 14" transform="matrix(1.0, 0.0, 0.0, 1.0, -352.021, 211.632)" style="stroke:rgb(149, 145, 175);stroke-opacity:1.0;stroke-width:13.0;stroke-miterlimit:0;stroke-linecap:round;stroke-linejoin:round">
               <path d="M 210.657,-105.945 C 210.657,-105.945 -85.502,-132.115 -85.502,-132.115 C -93.788,-132.846 -101.342,-127.333 -103.179,-119.22 C -103.179,-119.22 -103.238,-118.976 -103.238,-118.976 C -104.803,-112.695 -137.35199999999998,14.524000000000001 -222.617,105.521 C -229.308,112.662 -224.90599999999998,124.35799999999999 -215.158,125.219 C -201.851,126.39399999999999 -183.20399999999998,127.80000000000001 -159.319,129.038 C -105.73899999999999,131.83200000000002 -25.795999999999992,133.76999999999998 79.334,130.368 C 86.915,130.123 94.286,127.747 100.551,123.472 C 125.467,106.47 187.182,52.217 225.492,-86.145 C 225.492,-86.145 225.546,-86.378 225.546,-86.378 C 227.316,-96.005 220.42200000000003,-105.07799999999999 210.657,-105.945 Z" id="path_61" inkscape:label="Path 1" style=""/>
            </g>
            <g id="Group_13" inkscape:label="Group 13" transform="matrix(1.0, 0.0, 0.0, 1.0, -301.102, 132.902)" style="stroke:rgb(158, 24, 53);stroke-opacity:1.0;stroke-width:13.0;stroke-miterlimit:0;stroke-linecap:round;stroke-linejoin:round">
               <path d="M 174.604,-7.531 C 168.388,14.951 161.543,35.205 154.348,53.449 C 154.348,53.449 -174.893,21.951 -174.893,21.951 C -174.893,21.951 -174.904,21.953 -174.904,21.953 C -161.175,-12.717000000000002 -154.833,-37.565000000000005 -154.157,-40.246 C -154.157,-40.246 -154.099,-40.49 -154.099,-40.49 C -152.262,-48.603 -144.708,-54.115 -136.422,-53.384 C -136.422,-53.384 159.738,-27.215 159.738,-27.215 C 169.543,-26.344 176.45200000000003,-17.201999999999998 174.604,-7.531 Z" id="path_62" inkscape:label="Path 1" style=""/>
            </g>
            <g id="g_63" inkscape:label="Group 12" transform="matrix(1.0, 0.0, 0.0, 1.0, -230.59, 97.981)" style="fill-opacity:1.0;fill:url(#Gradient_7HtpitXsLV);fill-rule:nonzero">
               <path d="M 34.39,2.86 C 39.629,-52.619 -5.619,-66.396 -24.904,-26.687 C -41.155,6.773999999999997 -33.924,40.31099999999999 -27.691,46.535 C -19.427,54.785999999999994 1.6549999999999998,44.077 1.073,31.749 C 0.376,16.99 0.14900000000000002,8.528 3.99,-3.113 C 8.381,-16.42 11.66,-4.036 10.906,0.785 C 10.906,0.785 34.39,2.86 34.39,2.86 Z" id="path_64" inkscape:label="Path 1" style="fill-opacity:1.0;fill:url(#linearGradient_65);fill-rule:nonzero"/>
            </g>
            <g id="g_66" inkscape:label="Group 11" transform="matrix(1.0, 0.0, 0.0, 1.0, -235.05, 93.873)" opacity="0.85" style="stroke:rgb(255, 255, 255);stroke-opacity:1.0;stroke-width:13.0;stroke-miterlimit:0;stroke-linecap:round;stroke-linejoin:round">
               <path d="M -29.418,33.245 C -29.418,33.245 -28.135,-21.927 2.054,-31.955 C 30.793999999999997,-41.501999999999995 29.408,5.045 29.408,5.045 " id="path_67" inkscape:label="Path 1" style=""/>
            </g>
            <g id="g_68" inkscape:label="Group 10" transform="matrix(1.0, 0.0, 0.0, 1.0, -376.105, 85.123)" style="fill-opacity:1.0;fill:url(#Gradient_dOOow24Yhe);fill-rule:nonzero">
               <path d="M 34.39,2.86 C 39.629,-52.619 -5.619,-66.396 -24.904,-26.687 C -41.155,6.773999999999997 -33.924,40.31099999999999 -27.691,46.535 C -19.427,54.785999999999994 1.6549999999999998,44.077 1.073,31.749 C 0.376,16.99 0.14900000000000002,8.528 3.99,-3.113 C 8.381,-16.42 11.66,-4.036 10.906,0.785 C 10.906,0.785 34.39,2.86 34.39,2.86 Z" id="path_69" inkscape:label="Path 1" style="fill-opacity:1.0;fill:url(#linearGradient_70);fill-rule:nonzero"/>
            </g>
            <g id="g_71" inkscape:label="Group 9" transform="matrix(1.0, 0.0, 0.0, 1.0, -380.919, 81.39)" opacity="0.85" style="stroke:rgb(255, 255, 255);stroke-opacity:1.0;stroke-width:13.0;stroke-miterlimit:0;stroke-linecap:round;stroke-linejoin:round">
               <path d="M -29.004,33.278 C -29.004,33.278 -26.852,-26.942 4.814,-32.85 C 31.995,-37.922000000000004 28.898,3.732 28.898,3.732 " id="path_72" inkscape:label="Path 1" style=""/>
            </g>
            <g id="g_73" inkscape:label="Group 8" transform="matrix(1.0, 0.0, 0.0, 1.0, -230.59, 97.981)" style="stroke:rgb(188, 89, 0);stroke-opacity:1.0;stroke-width:13.0;stroke-miterlimit:0;stroke-linecap:round;stroke-linejoin:round">
               <path d="M 34.39,2.86 C 39.629,-52.619 -5.619,-66.396 -24.904,-26.687 C -41.155,6.773999999999997 -33.924,40.31099999999999 -27.691,46.535 C -19.427,54.785999999999994 1.6549999999999998,44.077 1.073,31.749 C 0.376,16.99 0.14900000000000002,8.528 3.99,-3.113 C 8.381,-16.42 11.66,-4.036 10.906,0.785 C 10.906,0.785 34.39,2.86 34.39,2.86 Z" id="path_74" inkscape:label="Path 1" style=""/>
            </g>
            <g id="g_75" inkscape:label="Group 7" transform="matrix(1.0, 0.0, 0.0, 1.0, -376.105, 85.123)" style="stroke:rgb(188, 89, 0);stroke-opacity:1.0;stroke-width:13.0;stroke-miterlimit:0;stroke-linecap:round;stroke-linejoin:round">
               <path d="M 34.39,2.86 C 39.629,-52.619 -5.619,-66.396 -24.904,-26.687 C -41.155,6.773999999999997 -33.924,40.31099999999999 -27.691,46.535 C -19.427,54.785999999999994 1.6549999999999998,44.077 1.073,31.749 C 0.376,16.99 0.14900000000000002,8.528 3.99,-3.113 C 8.381,-16.42 11.66,-4.036 10.906,0.785 C 10.906,0.785 34.39,2.86 34.39,2.86 Z" id="path_76" inkscape:label="Path 1" style=""/>
            </g>
            <g id="g_77" inkscape:label="Group 6" transform="matrix(1.0, 0.0, 0.0, 1.0, -200.861, 100.429)" style="stroke:rgb(158, 24, 53);stroke-opacity:1.0;stroke-width:13.0;stroke-miterlimit:0;stroke-linecap:round;stroke-linejoin:round">
               <path d="M -18.823,-1.663 C -18.823,-1.663 18.823,1.663 18.823,1.663 " id="path_78" inkscape:label="Path 1" style=""/>
            </g>
            <g id="g_79" inkscape:label="Group 5" transform="matrix(1.0, 0.0, 0.0, 1.0, -336.634, 88.432)" style="stroke:rgb(158, 24, 53);stroke-opacity:1.0;stroke-width:13.0;stroke-miterlimit:0;stroke-linecap:round;stroke-linejoin:round">
               <path d="M -28.564,-2.525 C -28.564,-2.525 28.564,2.525 28.564,2.525 " id="path_80" inkscape:label="Path 1" style=""/>
            </g>
            <g id="g_81" inkscape:label="Group 4" transform="matrix(1.0, 0.0, 0.0, 1.0, -238.928, 118.157)" style="stroke:rgb(158, 64, 0);stroke-opacity:1.0;stroke-width:13.0;stroke-miterlimit:0;stroke-linecap:round;stroke-linejoin:round">
               <path d="M -19.353,26.359 C -11.089000000000002,34.61 9.993,23.902 9.411,11.574 C 8.714,-3.1850000000000005 8.486999999999998,-11.648000000000001 12.328,-23.289 C 16.719,-36.596000000000004 19.999000000000002,-24.211999999999996 19.245,-19.391 " id="path_82" inkscape:label="Path 1" style=""/>
            </g>
            <g id="g_83" inkscape:label="Group 3" transform="matrix(1.0, 0.0, 0.0, 1.0, -384.443, 105.299)" style="stroke:rgb(158, 64, 0);stroke-opacity:1.0;stroke-width:13.0;stroke-miterlimit:0;stroke-linecap:round;stroke-linejoin:round">
               <path d="M -19.353,26.359 C -11.089000000000002,34.61 9.993,23.902 9.411,11.574 C 8.714,-3.1850000000000005 8.486999999999998,-11.648000000000001 12.328,-23.289 C 16.719,-36.596000000000004 19.999000000000002,-24.211999999999996 19.245,-19.391 " id="path_84" inkscape:label="Path 1" style=""/>
            </g>
            <g id="g_85" inkscape:label="Group 2" transform="matrix(1.0, 0.0, 0.0, 1.0, -366.116, 258.144)" opacity="0.7" style="stroke:rgb(181, 255, 0);stroke-opacity:1.0;stroke-width:13.0;stroke-miterlimit:0;stroke-linecap:round;stroke-linejoin:round">
               <path d="M -41.009,-57.175 C -31.201,-59.75 -20.921999999999997,-61.893 -10.286,-63.526 C 68.14,-75.569 140.221,-55.797 141.987,-18.459 C 143.483,13.178 95.686,50.509 17.26,62.552 C -61.166,74.595 -141.90699999999998,62.548 -142.021,25.154 C -142.13299999999998,-11.461000000000002 -87.51400000000001,-28.385 -47.694,-29.341 " id="path_86" inkscape:label="Path 1" style=""/>
            </g>
            <g id="g_87" inkscape:label="Group 1" transform="matrix(1.0, 0.0, 0.0, 1.0, 0.0, 0.0)" style="">
               <g id="g_88" inkscape:label="Group 5" transform="matrix(1.0, 0.0, 0.0, 1.0, -466.709, 250.777)" style="fill-opacity:1.0;fill:rgb(132, 61, 244);fill-rule:nonzero">
                  <path d="M 4.039,20.143 C -1.8520000000000003,29.698 -16.994,34.095 -25.481,34.973 C -21.8,29.552 -16.835,22.238 -6.95,7.673 C 4.653999999999999,4.539 16.616999999999997,2.9670000000000023 4.039,20.143 Z
M 31.953,-33.336 C 29.444,-22.968999999999998 14.732,-16.085 7.39,-13.452 C 7.39,-13.452 22.373,-35.523 22.373,-35.523 C 27.053,-35.661 30.905,-35.94 31.953,-33.336 Z
M 25.817,-7.57 C 47.78,-22.414 64.976,-62.650999999999996 24.232,-53.672 C 15.01,-52.568 -11.707999999999998,-5.099 -17.688,1.255 C -32.717,26.933 -59.879,51.597 -44.144,54.637 C -17.403,58.58 33.343,26.203000000000003 25.817,-7.57 Z" id="path_89" inkscape:label="Path 1" style="fill-opacity:1.0;fill:rgb(132, 61, 244);fill-rule:nonzero"/>
               </g>
               <g id="g_90" inkscape:label="Group 4" transform="matrix(1.0, 0.0, 0.0, 1.0, -415.327, 257.564)" style="fill-opacity:1.0;fill:rgb(132, 61, 244);fill-rule:nonzero">
                  <path d="M 5.786,10.02 C 12.611999999999998,10.777999999999999 25.265,-5.5600000000000005 15.014,-8.614 C -2.338000000000001,-9.246 -8.360000000000001,-13.963000000000001 -16.725,-1.867 C -25.525000000000002,13.859000000000002 -5.154,7.669 5.786,10.02 Z" id="path_91" inkscape:label="Path 1" style="fill-opacity:1.0;fill:rgb(132, 61, 244);fill-rule:nonzero"/>
               </g>
               <g id="g_92" inkscape:label="Group 3" transform="matrix(1.0, 0.0, 0.0, 1.0, -375.054, 256.734)" style="fill-opacity:1.0;fill:rgb(132, 61, 244);fill-rule:nonzero">
                  <path d="M 26.081,-16.616 C 24.980999999999998,4.843 -9.008000000000001,32.379 -20.608,32.027 C -14.572000000000001,22.082 9.934000000000001,-18.31 17.873,-31.391 C 22.271,-28.845 26.592,-24.355 26.081,-16.616 Z
M 30.327,6.91 C 49.245000000000005,-17.519 44.578,-48.248999999999995 22.572,-51.967 C 11.341,-56.443 -35.583,36.646 -41.126,40.841 C -50.924,68.657 12.614,40.31999999999999 30.327,6.91 Z" id="path_93" inkscape:label="Path 1" style="fill-opacity:1.0;fill:rgb(132, 61, 244);fill-rule:nonzero"/>
               </g>
               <g id="g_94" inkscape:label="Group 2" transform="matrix(1.0, 0.0, 0.0, 1.0, -322.689, 260.802)" style="fill-opacity:1.0;fill:rgb(132, 61, 244);fill-rule:nonzero">
                  <path d="M 26.474,-29.965 C 26.152,-26.644 24.781,-19.767 19.971,-6.053 C 19.971,-6.053 6.566,-6.864 6.566,-6.864 C 17.418,-20.951 23.434,-27.221 26.474,-29.965 Z
M 40.952,-46.759 C 27.608999999999998,-55.198 23.719,-47.105 -10.912,-4.5 C -29.302999999999997,23.115 -41.892,31.767 -42.825,45.814 C -31.837000000000003,57.249 -23.39,30.838 -6.699,10.895 C -6.699,10.895 13.313,11.941 13.313,11.941 C 7.4270000000000005,27.105 1.619,40.242 1.353,40.842 C -3.588,53.972 12.989,51.197 15.906,41.403 C 18.991,36.013 50.76,-42.513 40.952,-46.759 Z" id="path_95" inkscape:label="Path 1" style="fill-opacity:1.0;fill:rgb(132, 61, 244);fill-rule:nonzero"/>
               </g>
               <g id="g_96" inkscape:label="Group 1" transform="matrix(1.0, 0.0, 0.0, 1.0, -259.491, 262.453)" style="fill-opacity:1.0;fill:rgb(132, 61, 244);fill-rule:nonzero">
                  <path d="M 42.322,-42.633 C 31.544000000000004,-54.554 25.775000000000002,-28.679 5.434,-7.622 C 2.224,-18.316000000000003 5.075,-35.451 6.63,-41.781 C 8.690999999999999,-55.117 -7.440999999999999,-47.501 -8.418,-38.857 C -8.418,-38.857 -16.046,-9.137999999999998 -8.226,7.492 C -17.097,20.336 -41.379000000000005,30.525999999999996 -42.322,45.169 C -41.104,50.257999999999996 -35.315,49.782 -31.766,46.662 C 19.345,1.3859999999999957 40.838,-27.733000000000004 42.322,-42.633 Z" id="path_97" inkscape:label="Path 1" style="fill-opacity:1.0;fill:rgb(132, 61, 244);fill-rule:nonzero"/>
               </g>
            </g>
         </g>
         <g inkscape:groupmode="layer" id="Shape_Layer_1" inkscape:label="Shape Layer 1" transform="matrix(0.9876883405951378, -0.15643446504023087, 0.15643446504023087, 0.9876883405951378, -34.268690981956155, 90.47494544011938)" style="">
            <g id="Shape_1" inkscape:label="Shape 1" transform="matrix(1.0, 0.0, 0.0, 1.0, 0.0, 0.0)" style="fill-opacity:1.0;fill:url(#Gradient_gHAcT7kDzm);fill-rule:nonzero;stroke:rgb(149, 145, 175);stroke-opacity:1.0;stroke-width:13.0;stroke-miterlimit:0;stroke-linecap:round;stroke-linejoin:round">
               <path d="M 74,84.5 C 37.5,91.0 -153,86 -233,76 C -232,75.5 -233.5,76.5 -233,76.5 C -125,88.0 36.0,89.0 74.5,84.5 C 74.5,84.5 74,85.0 74,84.5 Z" id="path_98" inkscape:label="Path 1" style="fill-opacity:1.0;fill:url(#linearGradient_99);fill-rule:nonzero"/>
            </g>
         </g>
      </g>
   </g>
</svg>
