<?xml version="1.0" ?>
<svg xmlns:inkscape="http://www.inkscape.org/namespaces/inkscape" xmlns:sodipodi="http://sodipodi.sourceforge.net/DTD/sodipodi-0.dtd" xmlns="http://www.w3.org/2000/svg" width="512" height="512" viewBox="0 0 512 512" version="1.1" id="svg_1" sodipodi:docname="36" inkscape:export-xdpi="96" inkscape:export-ydpi="96" style="fill: none; stroke: none">
   <defs>
      <radialGradient cx="3.531" cy="-1.907" r="226.16003695834505" fx="3.531" fy="-1.907" id="radialGradient_2" inkscape:label="87y784hsg" gradientUnits="userSpaceOnUse">
         <stop offset="0.1%" stop-color="rgb(255, 215, 0)" stop-opacity="1"/>
         <stop offset="50.0%" stop-color="rgb(255, 215, 0)" stop-opacity="0.5"/>
         <stop offset="100%" stop-color="rgb(255, 215, 0)" stop-opacity="0"/>
      </radialGradient>
      <radialGradient cx="3.531" cy="-1.907" r="226.16003695834505" fx="3.531" fy="-1.907" id="radialGradient_3" inkscape:label="87y784hsg" gradientUnits="userSpaceOnUse">
         <stop offset="0.1%" stop-color="rgb(255, 215, 0)" stop-opacity="1"/>
         <stop offset="50.0%" stop-color="rgb(255, 215, 0)" stop-opacity="0.5"/>
         <stop offset="100%" stop-color="rgb(255, 215, 0)" stop-opacity="0"/>
      </radialGradient>
      <linearGradient x1="-0.378" y1="-7.837" x2="-0.378" y2="117.604" id="linearGradient_4" inkscape:label="126t7623gruyhds" gradientUnits="userSpaceOnUse">
         <stop offset="19.8%" stop-color="rgb(106, 103, 138)" stop-opacity="1"/>
         <stop offset="59.4%" stop-color="rgb(79, 67, 102)" stop-opacity="1"/>
         <stop offset="90.5%" stop-color="rgb(51, 30, 66)" stop-opacity="1"/>
      </linearGradient>
      <linearGradient x1="-0.378" y1="-7.837" x2="-0.378" y2="117.604" id="linearGradient_6" inkscape:label="126t7623gruyhds" gradientUnits="userSpaceOnUse">
         <stop offset="19.8%" stop-color="rgb(106, 103, 138)" stop-opacity="1"/>
         <stop offset="59.4%" stop-color="rgb(79, 67, 102)" stop-opacity="1"/>
         <stop offset="90.5%" stop-color="rgb(51, 30, 66)" stop-opacity="1"/>
      </linearGradient>
      <linearGradient x1="3.107" y1="53.889" x2="-9.438" y2="-48.284" id="linearGradient_8" inkscape:label="973762gyhfdsg" gradientUnits="userSpaceOnUse">
         <stop offset="62.6%" stop-color="rgb(255, 255, 255)" stop-opacity="0"/>
         <stop offset="83.2%" stop-color="rgb(255, 255, 255)" stop-opacity="0.5"/>
         <stop offset="100%" stop-color="rgb(255, 255, 255)" stop-opacity="1"/>
      </linearGradient>
      <linearGradient x1="-212.378" y1="-0.837" x2="211.938" y2="-0.837" id="linearGradient_10" inkscape:label="9845hgiukskdg" gradientUnits="userSpaceOnUse">
         <stop offset="59.4%" stop-color="rgb(55, 35, 72)" stop-opacity="1"/>
         <stop offset="80.0%" stop-color="rgb(68, 53, 92)" stop-opacity="1"/>
         <stop offset="100%" stop-color="rgb(80, 71, 112)" stop-opacity="1"/>
      </linearGradient>
      <linearGradient x1="-189.444" y1="-0.634" x2="189.004" y2="-0.634" id="sdhf3748h9" inkscape:label="sdhf3748h9" gradientUnits="userSpaceOnUse">
         <stop offset="0%" stop-color="rgb(4, 14, 51)" stop-opacity="0.5"/>
         <stop offset="37.5%" stop-color="rgb(4, 14, 51)" stop-opacity="0.75"/>
         <stop offset="75.1%" stop-color="rgb(4, 14, 51)" stop-opacity="1"/>
      </linearGradient>
      <linearGradient x1="-136.37" y1="-0.682" x2="135.93" y2="-0.682" id="linearGradient_11" inkscape:label="8y4837hjkfsdgsd" gradientUnits="userSpaceOnUse">
         <stop offset="0%" stop-color="rgb(107, 102, 141)" stop-opacity="1"/>
         <stop offset="33.7%" stop-color="rgb(93, 82, 121)" stop-opacity="1"/>
         <stop offset="75.1%" stop-color="rgb(78, 61, 100)" stop-opacity="1"/>
      </linearGradient>
      <linearGradient x1="-136.37" y1="-0.682" x2="135.93" y2="-0.682" id="linearGradient_13" inkscape:label="8y4837hjkfsdgsd" gradientUnits="userSpaceOnUse">
         <stop offset="0%" stop-color="rgb(107, 102, 141)" stop-opacity="1"/>
         <stop offset="33.7%" stop-color="rgb(93, 82, 121)" stop-opacity="1"/>
         <stop offset="75.1%" stop-color="rgb(78, 61, 100)" stop-opacity="1"/>
      </linearGradient>
      <linearGradient x1="-136.37" y1="-0.682" x2="135.93" y2="-0.682" id="linearGradient_14" inkscape:label="0-987678isjoklg" gradientUnits="userSpaceOnUse">
         <stop offset="0%" stop-color="rgb(89, 85, 117)" stop-opacity="1"/>
         <stop offset="33.7%" stop-color="rgb(73, 65, 96)" stop-opacity="1"/>
         <stop offset="75.1%" stop-color="rgb(58, 45, 74)" stop-opacity="1"/>
      </linearGradient>
      <linearGradient x1="-136.37" y1="-0.682" x2="135.93" y2="-0.682" id="linearGradient_16" inkscape:label="0-987678isjoklg" gradientUnits="userSpaceOnUse">
         <stop offset="0%" stop-color="rgb(89, 85, 117)" stop-opacity="1"/>
         <stop offset="33.7%" stop-color="rgb(73, 65, 96)" stop-opacity="1"/>
         <stop offset="75.1%" stop-color="rgb(58, 45, 74)" stop-opacity="1"/>
      </linearGradient>
      <linearGradient x1="-145.37" y1="-0.387" x2="144.93" y2="-0.387" id="linearGradient_17" inkscape:label="23h2348nsdfsdfsg" gradientUnits="userSpaceOnUse">
         <stop offset="0%" stop-color="rgb(62, 55, 87)" stop-opacity="1"/>
         <stop offset="49.1%" stop-color="rgb(45, 40, 71)" stop-opacity="1"/>
         <stop offset="75.1%" stop-color="rgb(28, 25, 56)" stop-opacity="1"/>
      </linearGradient>
      <linearGradient x1="-145.37" y1="-0.387" x2="144.93" y2="-0.387" id="linearGradient_19" inkscape:label="34348h8ugids" gradientUnits="userSpaceOnUse">
         <stop offset="0%" stop-color="rgb(80, 71, 112)" stop-opacity="1"/>
         <stop offset="49.1%" stop-color="rgb(60, 54, 96)" stop-opacity="1"/>
         <stop offset="75.1%" stop-color="rgb(41, 36, 81)" stop-opacity="1"/>
      </linearGradient>
      <linearGradient x1="-0.378" y1="-7.837" x2="-0.378" y2="117.604" id="linearGradient_20" inkscape:label="56566472s" gradientUnits="userSpaceOnUse">
         <stop offset="19.8%" stop-color="rgb(106, 103, 138)" stop-opacity="1"/>
         <stop offset="59.4%" stop-color="rgb(79, 67, 102)" stop-opacity="1"/>
         <stop offset="90.5%" stop-color="rgb(51, 30, 66)" stop-opacity="1"/>
      </linearGradient>
      <linearGradient x1="-0.378" y1="-7.837" x2="-0.378" y2="117.604" id="linearGradient_22" inkscape:label="56566472s" gradientUnits="userSpaceOnUse">
         <stop offset="19.8%" stop-color="rgb(106, 103, 138)" stop-opacity="1"/>
         <stop offset="59.4%" stop-color="rgb(79, 67, 102)" stop-opacity="1"/>
         <stop offset="90.5%" stop-color="rgb(51, 30, 66)" stop-opacity="1"/>
      </linearGradient>
      <linearGradient x1="-189.393" y1="132.389" x2="-192.938" y2="64.716" id="oijodigjeorjgildf09903" inkscape:label="oijodigjeorjgildf09903" gradientUnits="userSpaceOnUse">
         <stop offset="62.6%" stop-color="rgb(255, 255, 255)" stop-opacity="0"/>
         <stop offset="83.2%" stop-color="rgb(255, 255, 255)" stop-opacity="0.5"/>
         <stop offset="100%" stop-color="rgb(255, 255, 255)" stop-opacity="1"/>
      </linearGradient>
      <linearGradient x1="-212.378" y1="-0.837" x2="211.938" y2="-0.837" id="ijio3f48" inkscape:label="ijio3f48" gradientUnits="userSpaceOnUse">
         <stop offset="59.4%" stop-color="rgb(55, 35, 72)" stop-opacity="1"/>
         <stop offset="80.0%" stop-color="rgb(68, 53, 92)" stop-opacity="1"/>
         <stop offset="100%" stop-color="rgb(80, 71, 112)" stop-opacity="1"/>
      </linearGradient>
      <linearGradient x1="-145.37" y1="-0.978" x2="144.93" y2="-0.978" id="jjhdsjhf742" inkscape:label="jjhdsjhf742" gradientUnits="userSpaceOnUse">
         <stop offset="0%" stop-color="rgb(80, 71, 112)" stop-opacity="1"/>
         <stop offset="49.1%" stop-color="rgb(60, 54, 96)" stop-opacity="1"/>
         <stop offset="75.1%" stop-color="rgb(41, 36, 81)" stop-opacity="1"/>
      </linearGradient>
      <linearGradient x1="-0.413" y1="-13.771" x2="-0.413" y2="50.098" id="linearGradient_29" inkscape:label="-02=2-=430jgsdihgiusdf" gradientUnits="userSpaceOnUse">
         <stop offset="23.599999999999998%" stop-color="rgb(255, 232, 201)" stop-opacity="1"/>
         <stop offset="57.9%" stop-color="rgb(240, 218, 192)" stop-opacity="1"/>
         <stop offset="100%" stop-color="rgb(226, 203, 182)" stop-opacity="1"/>
      </linearGradient>
      <linearGradient x1="-0.413" y1="-13.771" x2="-0.413" y2="50.098" id="linearGradient_31" inkscape:label="-02=2-=430jgsdihgiusdf" gradientUnits="userSpaceOnUse">
         <stop offset="23.599999999999998%" stop-color="rgb(255, 232, 201)" stop-opacity="1"/>
         <stop offset="57.9%" stop-color="rgb(240, 218, 192)" stop-opacity="1"/>
         <stop offset="100%" stop-color="rgb(226, 203, 182)" stop-opacity="1"/>
      </linearGradient>
      <linearGradient x1="-20.685" y1="-0.494" x2="20.073" y2="-0.494" id="kok8i8j9i9434" inkscape:label="kok8i8j9i9434" gradientUnits="userSpaceOnUse">
         <stop offset="27.800000000000004%" stop-color="rgb(255, 255, 255)" stop-opacity="1"/>
         <stop offset="47.599999999999994%" stop-color="rgb(255, 255, 255)" stop-opacity="0.5"/>
         <stop offset="68.60000000000001%" stop-color="rgb(255, 255, 255)" stop-opacity="0"/>
      </linearGradient>
      <linearGradient x1="-0.916" y1="64.549" x2="-0.916" y2="-65.988" id="linearGradient_35" inkscape:label="834u958u435lskdlfs" gradientUnits="userSpaceOnUse">
         <stop offset="0.1%" stop-color="rgb(158, 117, 109)" stop-opacity="1"/>
         <stop offset="31.3%" stop-color="rgb(180, 150, 135)" stop-opacity="1"/>
         <stop offset="56.699999999999996%" stop-color="rgb(201, 183, 161)" stop-opacity="1"/>
      </linearGradient>
      <linearGradient x1="-0.122" y1="52.92" x2="-0.122" y2="-54.907" id="linearGradient_46" inkscape:label="9834u985uj34krsgd,,lg" gradientUnits="userSpaceOnUse">
         <stop offset="6.800000000000001%" stop-color="rgb(237, 118, 0)" stop-opacity="1"/>
         <stop offset="48.4%" stop-color="rgb(246, 159, 0)" stop-opacity="1"/>
         <stop offset="86.5%" stop-color="rgb(255, 201, 0)" stop-opacity="1"/>
      </linearGradient>
      <linearGradient x1="-0.11" y1="-70.41" x2="-0.11" y2="156.037" id="linearGradient_47" inkscape:label="8u5498tiu954kg," gradientUnits="userSpaceOnUse">
         <stop offset="32.1%" stop-color="rgb(255, 237, 213)" stop-opacity="1"/>
         <stop offset="55.60000000000001%" stop-color="rgb(246, 218, 190)" stop-opacity="1"/>
         <stop offset="70.6%" stop-color="rgb(237, 198, 168)" stop-opacity="1"/>
      </linearGradient>
      <linearGradient x1="-0.11" y1="-70.41" x2="-0.11" y2="156.037" id="linearGradient_49" inkscape:label="8u5498tiu954kg," gradientUnits="userSpaceOnUse">
         <stop offset="32.1%" stop-color="rgb(255, 237, 213)" stop-opacity="1"/>
         <stop offset="55.60000000000001%" stop-color="rgb(246, 218, 190)" stop-opacity="1"/>
         <stop offset="70.6%" stop-color="rgb(237, 198, 168)" stop-opacity="1"/>
      </linearGradient>
      <linearGradient x1="-0.514" y1="66.113" x2="-0.514" y2="-6.042" id="linearGradient_53" inkscape:label="k984j59g8koefi,dg" gradientUnits="userSpaceOnUse">
         <stop offset="11.0%" stop-color="rgb(189, 143, 113)" stop-opacity="1"/>
         <stop offset="56.10000000000001%" stop-color="rgb(189, 143, 113)" stop-opacity="0.5"/>
         <stop offset="99.9%" stop-color="rgb(189, 143, 113)" stop-opacity="0"/>
      </linearGradient>
      <linearGradient x1="-0.514" y1="66.113" x2="-0.514" y2="-6.042" id="linearGradient_55" inkscape:label="k984j59g8koefi,dg" gradientUnits="userSpaceOnUse">
         <stop offset="11.0%" stop-color="rgb(189, 143, 113)" stop-opacity="1"/>
         <stop offset="56.10000000000001%" stop-color="rgb(189, 143, 113)" stop-opacity="0.5"/>
         <stop offset="99.9%" stop-color="rgb(189, 143, 113)" stop-opacity="0"/>
      </linearGradient>
      <linearGradient x1="-0.614" y1="167.073" x2="-0.614" y2="-168.709" id="linearGradient_57" inkscape:label="85498gk4,g" gradientUnits="userSpaceOnUse">
         <stop offset="0%" stop-color="rgb(255, 255, 255)" stop-opacity="0"/>
         <stop offset="37.0%" stop-color="rgb(255, 255, 255)" stop-opacity="0.5"/>
         <stop offset="71.89999999999999%" stop-color="rgb(255, 255, 255)" stop-opacity="1"/>
      </linearGradient>
      <linearGradient x1="-0.11" y1="172.09" x2="-0.11" y2="-173.726" id="linearGradient_59" inkscape:label="09ikfg,4o5" gradientUnits="userSpaceOnUse">
         <stop offset="0.1%" stop-color="rgb(158, 117, 109)" stop-opacity="1"/>
         <stop offset="33.2%" stop-color="rgb(180, 150, 135)" stop-opacity="1"/>
         <stop offset="60.099999999999994%" stop-color="rgb(201, 183, 161)" stop-opacity="1"/>
      </linearGradient>
      <linearGradient x1="-0.122" y1="52.92" x2="-0.122" y2="-54.907" id="linearGradient_71" inkscape:label="74872438yr" gradientUnits="userSpaceOnUse">
         <stop offset="6.800000000000001%" stop-color="rgb(237, 118, 0)" stop-opacity="1"/>
         <stop offset="48.4%" stop-color="rgb(246, 159, 0)" stop-opacity="1"/>
         <stop offset="86.5%" stop-color="rgb(255, 201, 0)" stop-opacity="1"/>
      </linearGradient>
      <linearGradient x1="-0.416" y1="25.693" x2="-0.416" y2="-26.714" id="linearGradient_74" inkscape:label="787423847238tr" gradientUnits="userSpaceOnUse">
         <stop offset="24.2%" stop-color="rgb(174, 117, 87)" stop-opacity="1"/>
         <stop offset="66.0%" stop-color="rgb(174, 117, 87)" stop-opacity="0.5"/>
         <stop offset="100%" stop-color="rgb(174, 117, 87)" stop-opacity="0"/>
      </linearGradient>
      <linearGradient x1="1.89" y1="41.914" x2="-3.119" y2="-26.691" id="linearGradient_77" inkscape:label="7672638273598fg" gradientUnits="userSpaceOnUse">
         <stop offset="24.2%" stop-color="rgb(174, 117, 87)" stop-opacity="1"/>
         <stop offset="66.0%" stop-color="rgb(174, 117, 87)" stop-opacity="0.5"/>
         <stop offset="100%" stop-color="rgb(174, 117, 87)" stop-opacity="0"/>
      </linearGradient>
      <linearGradient x1="-5.11" y1="123.59" x2="-2.11" y2="231.037" id="linearGradient_79" inkscape:label="65698hk,.56h5" gradientUnits="userSpaceOnUse">
         <stop offset="32.1%" stop-color="rgb(255, 237, 213)" stop-opacity="1"/>
         <stop offset="55.60000000000001%" stop-color="rgb(246, 218, 190)" stop-opacity="1"/>
         <stop offset="70.6%" stop-color="rgb(237, 198, 168)" stop-opacity="1"/>
      </linearGradient>
      <linearGradient x1="-5.11" y1="123.59" x2="-2.11" y2="231.037" id="linearGradient_81" inkscape:label="65698hk,.56h5" gradientUnits="userSpaceOnUse">
         <stop offset="32.1%" stop-color="rgb(255, 237, 213)" stop-opacity="1"/>
         <stop offset="55.60000000000001%" stop-color="rgb(246, 218, 190)" stop-opacity="1"/>
         <stop offset="70.6%" stop-color="rgb(237, 198, 168)" stop-opacity="1"/>
      </linearGradient>
      <linearGradient x1="1.486" y1="151.113" x2="2.986" y2="30.958" id="linearGradient_83" inkscape:label=",of3f4," gradientUnits="userSpaceOnUse">
         <stop offset="11.0%" stop-color="rgb(189, 143, 113)" stop-opacity="1"/>
         <stop offset="56.10000000000001%" stop-color="rgb(189, 143, 113)" stop-opacity="0.5"/>
         <stop offset="99.9%" stop-color="rgb(189, 143, 113)" stop-opacity="0"/>
      </linearGradient>
      <linearGradient x1="1.486" y1="151.113" x2="2.986" y2="30.958" id="linearGradient_85" inkscape:label=",of3f4," gradientUnits="userSpaceOnUse">
         <stop offset="11.0%" stop-color="rgb(189, 143, 113)" stop-opacity="1"/>
         <stop offset="56.10000000000001%" stop-color="rgb(189, 143, 113)" stop-opacity="0.5"/>
         <stop offset="99.9%" stop-color="rgb(189, 143, 113)" stop-opacity="0"/>
      </linearGradient>
      <linearGradient x1="-1.11" y1="233.09" x2="-7.61" y2="92.774" id="linearGradient_88" inkscape:label="sd;fdshg34" gradientUnits="userSpaceOnUse">
         <stop offset="0.1%" stop-color="rgb(158, 117, 109)" stop-opacity="1"/>
         <stop offset="33.2%" stop-color="rgb(180, 150, 135)" stop-opacity="1"/>
         <stop offset="60.099999999999994%" stop-color="rgb(201, 183, 161)" stop-opacity="1"/>
      </linearGradient>
      <linearGradient x1="-5.11" y1="123.59" x2="-2.11" y2="231.037" id="kiojkoithj9845" inkscape:label="kiojkoithj9845" gradientUnits="userSpaceOnUse">
         <stop offset="32.1%" stop-color="rgb(255, 237, 213)" stop-opacity="1"/>
         <stop offset="55.60000000000001%" stop-color="rgb(246, 218, 190)" stop-opacity="1"/>
         <stop offset="70.6%" stop-color="rgb(237, 198, 168)" stop-opacity="1"/>
      </linearGradient>
      <linearGradient x1="-5.11" y1="123.59" x2="-2.11" y2="231.037" id="linearGradient_91" inkscape:label="kiojkoithj9845" gradientUnits="userSpaceOnUse">
         <stop offset="32.1%" stop-color="rgb(255, 237, 213)" stop-opacity="1"/>
         <stop offset="55.60000000000001%" stop-color="rgb(246, 218, 190)" stop-opacity="1"/>
         <stop offset="70.6%" stop-color="rgb(237, 198, 168)" stop-opacity="1"/>
      </linearGradient>
      <linearGradient x1="1.486" y1="151.113" x2="2.986" y2="30.958" id="aqsd243asd" inkscape:label="aqsd243asd" gradientUnits="userSpaceOnUse">
         <stop offset="11.0%" stop-color="rgb(189, 143, 113)" stop-opacity="1"/>
         <stop offset="56.10000000000001%" stop-color="rgb(189, 143, 113)" stop-opacity="0.5"/>
         <stop offset="99.9%" stop-color="rgb(189, 143, 113)" stop-opacity="0"/>
      </linearGradient>
      <linearGradient x1="1.486" y1="151.113" x2="2.986" y2="30.958" id="linearGradient_94" inkscape:label="aqsd243asd" gradientUnits="userSpaceOnUse">
         <stop offset="11.0%" stop-color="rgb(189, 143, 113)" stop-opacity="1"/>
         <stop offset="56.10000000000001%" stop-color="rgb(189, 143, 113)" stop-opacity="0.5"/>
         <stop offset="99.9%" stop-color="rgb(189, 143, 113)" stop-opacity="0"/>
      </linearGradient>
      <linearGradient x1="-1.11" y1="233.09" x2="-7.61" y2="92.774" id="linearGradient_97" inkscape:label="938459ijfdsgsd" gradientUnits="userSpaceOnUse">
         <stop offset="0.1%" stop-color="rgb(158, 117, 109)" stop-opacity="1"/>
         <stop offset="33.2%" stop-color="rgb(180, 150, 135)" stop-opacity="1"/>
         <stop offset="60.099999999999994%" stop-color="rgb(201, 183, 161)" stop-opacity="1"/>
      </linearGradient>
      <linearGradient x1="-2.11" y1="83.59" x2="-2.11" y2="231.037" id="linearGradient_99" inkscape:label="834983ifsdf" gradientUnits="userSpaceOnUse">
         <stop offset="32.1%" stop-color="rgb(255, 248, 238)" stop-opacity="1"/>
         <stop offset="55.60000000000001%" stop-color="rgb(255, 248, 238)" stop-opacity="1"/>
         <stop offset="70.6%" stop-color="rgb(255, 248, 238)" stop-opacity="1"/>
      </linearGradient>
      <linearGradient x1="-2.11" y1="83.59" x2="-2.11" y2="231.037" id="linearGradient_101" inkscape:label="834983ifsdf" gradientUnits="userSpaceOnUse">
         <stop offset="32.1%" stop-color="rgb(255, 248, 238)" stop-opacity="1"/>
         <stop offset="55.60000000000001%" stop-color="rgb(255, 248, 238)" stop-opacity="1"/>
         <stop offset="70.6%" stop-color="rgb(255, 248, 238)" stop-opacity="1"/>
      </linearGradient>
      <linearGradient x1="-1.11" y1="233.09" x2="-6.61" y2="83.774" id="jriujeriuhg894394" inkscape:label="jriujeriuhg894394" gradientUnits="userSpaceOnUse">
         <stop offset="0.1%" stop-color="rgb(158, 117, 109)" stop-opacity="1"/>
         <stop offset="33.2%" stop-color="rgb(180, 150, 135)" stop-opacity="1"/>
         <stop offset="60.099999999999994%" stop-color="rgb(201, 183, 161)" stop-opacity="1"/>
      </linearGradient>
      <linearGradient x1="-2.11" y1="83.59" x2="-2.11" y2="231.037" id="linearGradient_105" inkscape:label="88794859ird" gradientUnits="userSpaceOnUse">
         <stop offset="32.1%" stop-color="rgb(255, 248, 238)" stop-opacity="1"/>
         <stop offset="55.60000000000001%" stop-color="rgb(255, 248, 238)" stop-opacity="1"/>
         <stop offset="70.6%" stop-color="rgb(255, 248, 238)" stop-opacity="1"/>
      </linearGradient>
      <linearGradient x1="-2.11" y1="83.59" x2="-2.11" y2="231.037" id="linearGradient_107" inkscape:label="88794859ird" gradientUnits="userSpaceOnUse">
         <stop offset="32.1%" stop-color="rgb(255, 248, 238)" stop-opacity="1"/>
         <stop offset="55.60000000000001%" stop-color="rgb(255, 248, 238)" stop-opacity="1"/>
         <stop offset="70.6%" stop-color="rgb(255, 248, 238)" stop-opacity="1"/>
      </linearGradient>
      <linearGradient x1="-1.11" y1="233.09" x2="-6.61" y2="83.774" id="linearGradient_110" inkscape:label="77843298tre" gradientUnits="userSpaceOnUse">
         <stop offset="0.1%" stop-color="rgb(158, 117, 109)" stop-opacity="1"/>
         <stop offset="33.2%" stop-color="rgb(180, 150, 135)" stop-opacity="1"/>
         <stop offset="60.099999999999994%" stop-color="rgb(201, 183, 161)" stop-opacity="1"/>
      </linearGradient>
   </defs>
   <sodipodi:namedview inkscape:pagecheckerboard="true" borderlayer="true" bordercolor="#666666" pagecolor="#ffffff"/>
   <g inkscape:groupmode="layer" id="glow" inkscape:label="glow" transform="matrix(1.0, 0.0, 0.0, 1.0, 230.37, 248.653)" opacity="0.5" style="">
      <g id="Group_1" inkscape:label="Group 1" transform="matrix(1.0, 0.0, 0.0, 1.0, 0.0, 0.0)" style="fill-opacity:1.0;fill:url(#radialGradient_2);fill-rule:nonzero">
         <path d="M 227.299,0 C 227.299,132.407 125.533,239.745 0,239.745 C -125.534,239.745 -227.299,132.407 -227.299,0 C -227.299,-132.407 -125.534,-239.745 0,-239.745 C 125.533,-239.745 227.299,-132.407 227.299,0 Z" id="Path_1" inkscape:label="Path 1" style="fill-opacity:1.0;fill:url(#radialGradient_3);fill-rule:nonzero"/>
      </g>
   </g>
   <g inkscape:groupmode="layer" id="baseback_2" inkscape:label="baseback 2" transform="matrix(1.0, 0.0, 0.0, 1.0, -16.0, 0.0)" style="">
      <g id="Group_6" inkscape:label="Group 6" transform="matrix(1.0, 0.0, 0.0, 1.0, 300.378, 411.837)" style="fill-opacity:1.0;fill:url(#linearGradient_4);fill-rule:nonzero">
         <path d="M 143.243,-88.8 C 99.834,-88.8 80.668,-55.510999999999996 50.223,12.845 C 50.223,12.845 -203.158,12.845 -203.158,12.845 C -203.158,12.845 -190.066,64.209 -190.066,64.209 C -190.066,77.79 -136.176,88.8 -67.008,88.8 C 2.160000000000011,88.8 56.05,77.79 56.05,64.209 C 83.733,-1.6610000000000014 109.321,-45.82 136.486,-43.086 C 166.53199999999998,-40.062 161.81699999999998,-5.378 136.486,-1.873 C 112.30399999999999,1.473 146.89800000000002,32.105 184.449,7.926 C 221.46300000000002,-15.908 201.403,-88.8 143.243,-88.8 Z" id="path_5" inkscape:label="Path 1" style="fill-opacity:1.0;fill:url(#linearGradient_6);fill-rule:nonzero"/>
      </g>
      <g id="Group_5" inkscape:label="Group 5" transform="matrix(1.0, 0.0, 0.0, 1.0, 429.893, 378.111)" opacity="0.6" style="stroke:url(#linearGradient_8);stroke-opacity:1.0;stroke-width:18.0;stroke-miterlimit:0;stroke-linecap:round;stroke-linejoin:round">
         <path d="M -64.167,41.017 C -64.167,41.017 -39.792,-47.156 18.515,-40.677 C 71.53200000000001,-34.786 67.517,28.866 59.3,38.414 " id="path_7" inkscape:label="Path 1" style=""/>
      </g>
      <g id="ouline" inkscape:label="ouline" transform="matrix(1.0, 0.0, 0.0, 1.0, 300.378, 411.837)" style="stroke:url(#linearGradient_10);stroke-opacity:1.0;stroke-width:18.0;stroke-miterlimit:0;stroke-linecap:round;stroke-linejoin:round">
         <path d="M 143.243,-88.8 C 99.834,-88.8 80.668,-55.510999999999996 50.223,12.845 C 50.223,12.845 -203.158,12.845 -203.158,12.845 C -203.158,12.845 -190.066,64.209 -190.066,64.209 C -190.066,77.79 -136.176,88.8 -67.008,88.8 C 2.160000000000011,88.8 56.05,77.79 56.05,64.209 C 83.733,-1.6610000000000014 109.321,-45.82 136.486,-43.086 C 166.53199999999998,-40.061 161.81699999999998,-5.378 136.486,-1.873 C 112.30399999999999,1.473 146.89800000000002,32.105 184.449,7.926 C 221.46300000000002,-15.908 201.403,-88.8 143.243,-88.8 Z" id="path_9" inkscape:label="Path 1" style=""/>
      </g>
      <g id="Group_3" inkscape:label="Group 3" transform="matrix(1.0, 0.0, 0.0, 1.0, 277.444, 434.634)" opacity="0.45" style="stroke:url(#sdhf3748h9);stroke-opacity:1.0;stroke-width:18.0;stroke-miterlimit:0;stroke-linecap:round;stroke-linejoin:round">
         <path d="M -167.52476000000001,39.87108000000001 C -167.52476000000001,39.87108000000001 -167.132,41.412 -167.132,41.412 C -167.132,54.992999999999995 -113.242,66.003 -44.074,66.003 C 25.09400000000001,66.003 78.984,54.992999999999995 78.984,41.412 C 106.667,-24.458000000000006 132.255,-68.61699999999999 159.42,-65.883 C 189.46599999999998,-62.858999999999995 184.75099999999998,-28.175 159.42,-24.67 C 156.5325970149254,-24.2704776119403 154.4831677433727,-23.481936734239255 153.17668943320822,-22.444134132190467 " style=""/>
      </g>
      <g id="basefill" inkscape:label="basefill" transform="matrix(1.0, 0.0, 0.0, 1.0, 233.37, 424.682)" style="fill-opacity:1.0;fill:url(#linearGradient_11);fill-rule:nonzero">
         <path d="M 136.15,0 C 136.15,13.581 69.168,24.591 0,24.591 C -69.168,24.591 -136.15,13.581 -136.15,0 C -136.15,-13.581 -69.168,-24.591 0,-24.591 C 69.168,-24.591 136.15,-13.581 136.15,0 Z" id="path_12" inkscape:label="Path 1" style="fill-opacity:1.0;fill:url(#linearGradient_13);fill-rule:nonzero"/>
      </g>
      <g id="base_2" inkscape:label="base 2" transform="matrix(1.0, 0.0, 0.0, 1.0, 233.37, 424.682)" style="fill-opacity:1.0;fill:url(#linearGradient_14);fill-rule:nonzero;stroke:url(#linearGradient_17);stroke-opacity:1.0;stroke-width:18.0;stroke-miterlimit:0;stroke-linecap:round;stroke-linejoin:round">
         <path d="M 75.752,48 C 75.752,55.556 38.484,61.682 0,61.682 C -38.484,61.682 -75.752,55.556 -75.752,48 C -75.752,40.444 -38.484,34.318 0,34.318 C 38.484,34.318 75.752,40.444 75.752,48 Z" id="path_15" inkscape:label="Path 1" style="fill-opacity:1.0;fill:url(#linearGradient_16);fill-rule:nonzero"/>
      </g>
      <g id="baseout" inkscape:label="baseout" transform="matrix(1.0, 0.0, 0.0, 1.0, 233.37, 424.682)" style="stroke:url(#linearGradient_19);stroke-opacity:1.0;stroke-width:18.0;stroke-miterlimit:0;stroke-linecap:round;stroke-linejoin:round">
         <path d="M 136.15,0 C 136.15,13.581 69.168,24.591 0,24.591 C -69.168,24.591 -136.15,13.581 -136.15,0 C -136.15,-13.581 -69.168,-24.591 0,-24.591 C 69.168,-24.591 136.15,-13.581 136.15,0 Z" id="path_18" inkscape:label="Path 1" style=""/>
      </g>
      <g inkscape:groupmode="layer" id="front" inkscape:label="front" transform="matrix(1.0, 0.0, 0.0, 1.0, 233.37, 436.978)" style="">
         <g id="ouline_2" inkscape:label="ouline 2" transform="matrix(1.0, 0.0, 0.0, 1.0, 66.378, -25.663)" style="fill-opacity:1.0;fill:url(#linearGradient_20);fill-rule:nonzero">
            <path d="M 69.754,13.346 C 69.75200000000001,26.935000000000002 3.0020000000000095,37.809999999999995 -66.499,37.894 C -135.75,37.978 -202.092,27.216 -202.502,13.376 C -202.502,13.376 -190.066,64.209 -190.066,64.209 C -190.066,77.79 -136.176,88.8 -67.008,88.8 C 2.1610000000000014,88.8 56.05,77.79 56.05,64.209 C 56.622,64.163 69.754,13.346 69.754,13.346 Z" id="path_21" inkscape:label="Path 1" style="fill-opacity:1.0;fill:url(#linearGradient_22);fill-rule:nonzero"/>
         </g>
         <g id="Group_7" inkscape:label="Group 7" transform="matrix(1.0, 0.0, 0.0, 1.0, 192.893, -59.389)" opacity="0.6" style="stroke:url(#oijodigjeorjgildf09903);stroke-opacity:1.0;stroke-width:18.0;stroke-miterlimit:0;stroke-linecap:round;stroke-linejoin:round">
            <path d="M -307.167,98.017 C -311.10699999999997,85.286 -312.89300000000003,74.889 -315.985,66.323 C -302.89300000000003,71.889 -261.429,84.027 -196.245,82.983 C -127.893,81.88900000000001 -85.893,74.388 -69.2,64.914 " id="path_23" inkscape:label="Path 1" style=""/>
         </g>
         <g id="g_24" inkscape:label="ouline" transform="matrix(1.0, 0.0, 0.0, 1.0, 66.378, -25.663)" style="stroke:url(#ijio3f48);stroke-opacity:1.0;stroke-width:18.0;stroke-miterlimit:0;stroke-linecap:round;stroke-linejoin:round">
            <path d="M 69.754,13.346 C 69.75200000000001,26.935000000000002 3.0020000000000095,37.809999999999995 -66.499,37.894 C -135.75,37.978 -202.092,27.216 -202.502,13.376 C -202.502,13.376 -190.066,64.209 -190.066,64.209 C -190.066,77.79 -136.176,88.8 -67.008,88.8 C 2.1610000000000014,88.8 56.05,77.79 56.05,64.209 C 56.622,64.163 69.754,13.346 69.754,13.346 Z" id="path_25" inkscape:label="Path 1" style=""/>
         </g>
         <g id="g_26" inkscape:label="Group 1" transform="matrix(1.0, 0.0, 0.0, 1.0, 0.0, 0.0)" style="stroke:url(#jjhdsjhf742);stroke-opacity:1.0;stroke-width:18.0;stroke-miterlimit:0;stroke-linecap:round;stroke-linejoin:round">
            <path d="M 136.15,-12.295 C 136.15,1.2859999999999996 69.168,12.295 0,12.295 C -69.168,12.295 -136.15,1.2859999999999996 -136.15,-12.295 " id="path_27" inkscape:label="Path 1" style=""/>
         </g>
      </g>
      <g inkscape:groupmode="layer" id="squashassemble" inkscape:label="squashassemble" transform="matrix(1.0, 0.0, 0.0, 1.0, 232.0, 472.0)" opacity="1">
         <g inkscape:groupmode="layer" id="cand" inkscape:label="cand" transform="matrix(1.0, 0.0, 0.0, 1.0, -232.0, -472.0)" style="">
            <g inkscape:groupmode="layer" id="fxb" inkscape:label="fxb" transform="matrix(1.0, 0.0, 0.0, 1.0, 0.0, 0.0)" style="">
               <g id="g_28" inkscape:label="Group 3" transform="matrix(1.0, 0.0, 0.0, 1.0, 127.413, 266.771)" style="fill-opacity:1.0;fill:url(#linearGradient_29);fill-rule:nonzero">
                  <path d="M 14.089,-57.589 C 14.434000000000001,-33.741 -26.567999999999998,21.937999999999995 -12.839,46.788 C 0.8899999999999988,71.638 15.652,45.826 15.652,45.826 " id="path_30" inkscape:label="Path 1" style="fill-opacity:1.0;fill:url(#linearGradient_31);fill-rule:nonzero"/>
               </g>
               <g id="Group_2" inkscape:label="Group 2" transform="matrix(1.0, 0.0, 0.0, 1.0, 131.685, 289.494)" opacity="0.8" style="stroke:url(#kok8i8j9i9434);stroke-opacity:1.0;stroke-width:18.0;stroke-miterlimit:0;stroke-linecap:round;stroke-linejoin:round">
                  <path d="M -6.537,-23.686 C -6.537,-23.686 -25.415,29.815 11.379,23.103 " id="path_32" inkscape:label="Path 1" style=""/>
               </g>
               <g id="g_33" inkscape:label="Group 1" transform="matrix(1.0, 0.0, 0.0, 1.0, 126.916, 265.451)" style="stroke:url(#linearGradient_35);stroke-opacity:1.0;stroke-width:18.0;stroke-miterlimit:0;stroke-linecap:round;stroke-linejoin:round">
                  <path d="M 14.585,-56.269 C 10.248000000000001,1.3200000000000003 -28.176000000000002,24.543999999999997 -12.342,48.108 C 0.3620000000000001,67.014 16.148,47.147 16.148,47.147 " id="path_34" inkscape:label="Path 1" style=""/>
               </g>
            </g>
            <g inkscape:groupmode="layer" id="light_2" inkscape:label="light 2" transform="matrix(1.0, 0.0, 0.0, 1.0, 0.0, 0.0)" style="">
               <g id="Group_4" inkscape:label="Group 4" transform="matrix(1.0, 0.0, 0.0, 1.0, 222.259, 116.518)" style="stroke:rgb(45, 30, 20);stroke-opacity:1.0;stroke-width:18.0;stroke-miterlimit:0;stroke-linecap:round;stroke-linejoin:round">
                  <path d="M 0,17.996 C 0,17.996 -0.903,-16.903 -0.903,-16.903 " id="path_36" inkscape:label="Path 1" style=""/>
               </g>
               <g id="g_37" inkscape:label="glow" transform="matrix(1.0, 0.0, 0.0, 1.0, 222.259, 116.518)" opacity="0.0" style="stroke:rgb(255, 225, 134);stroke-opacity:0.15;stroke-width:58.0;stroke-miterlimit:0;stroke-linecap:round;stroke-linejoin:bevel">
                  <path d="M 0,17.996 C 0,17.996 -0.903,-16.903 -0.903,-16.903 " id="path_38" inkscape:label="Path 1" style=""/>
               </g>
               <g id="g_39" inkscape:label="Group 5" transform="matrix(1.0, 0.0, 0.0, 1.0, 0.0, 0.0)" opacity="0.99" style="">
                  <g id="g_40" inkscape:label="Group 3" transform="matrix(1.0, 0.0, 0.0, 1.0, 223.122, 61.08)" style="fill-opacity:1.0;fill:rgb(255, 243, 95);fill-rule:nonzero">
                     <path d="M -0.781,44.843 C -12.13,45.542 -20.143,40.977000000000004 -24.691,33.838 C -31.758,22.745 -30.458,5.436999999999999 -20.299,-7.99 C -1.4239999999999995,-32.937 -11.37,-45.644 -3.53,-44.881 C 9.061,-43.656 40.498000000000005,8.148999999999997 24.867,32.528 C 20.490000000000002,39.354 12.423,44.03 -0.781,44.843 Z" id="path_41" inkscape:label="Path 1" style="fill-opacity:1.0;fill:rgb(255, 243, 95);fill-rule:nonzero"/>
                  </g>
                  <g id="g_42" inkscape:label="Group 2" transform="matrix(1.0, 0.0, 0.0, 1.0, 223.122, 79.885)" opacity="0.6" style="fill-opacity:1.0;fill:rgb(255, 170, 77);fill-rule:nonzero">
                     <path d="M -0.352,18.776 C -13.414,19.523 -16.674,5.895 -9.149,-3.345 C -0.6419999999999995,-13.790000000000001 -5.124,-19.111 -1.591,-18.792 C 5.673,-18.135 26.852,17.22 -0.352,18.776 Z" id="path_43" inkscape:label="Path 1" style="fill-opacity:1.0;fill:rgb(255, 170, 77);fill-rule:nonzero"/>
                  </g>
                  <g id="g_44" inkscape:label="Group 1" transform="matrix(1.0, 0.0, 0.0, 1.0, 223.122, 61.08)" style="stroke:url(#linearGradient_46);stroke-opacity:1.0;stroke-width:18.0;stroke-miterlimit:0;stroke-linecap:round;stroke-linejoin:round">
                     <path d="M -0.781,44.843 C -12.13,45.542 -20.143,40.977000000000004 -24.691,33.838 C -31.758,22.745 -30.458,5.436999999999999 -20.299,-7.99 C -1.4239999999999995,-32.937 -11.37,-45.644 -3.53,-44.881 C 9.061,-43.656 40.498000000000005,8.149999999999999 24.867,32.528 C 20.490000000000002,39.354 12.423,44.03 -0.781,44.843 Z" id="path_45" inkscape:label="Path 1" style=""/>
                  </g>
               </g>
            </g>
            <g id="fil" inkscape:label="fil" transform="matrix(1.0, 0.0, 0.0, 1.0, 231.11, 279.41)" style="fill-opacity:1.0;fill:url(#linearGradient_47);fill-rule:nonzero">
               <path d="M -8.001,-160.029 C -77.236,-170.216 -90.38499999999999,-162.13799999999998 -91.276,-140.897 C -91.868,-126.782 -90.11,140.58999999999997 -85.078,163.408 C -49.11,197.58999999999997 50.89,193.58999999999997 91.313,163.408 C 91.89,157.58999999999997 90.42999999999999,-111.223 81.826,-130.238 C 61.41199999999999,-175.351 34.853,-153.72299999999998 -8.001,-160.029 Z" id="path_48" inkscape:label="Path 1" style="fill-opacity:1.0;fill:url(#linearGradient_49);fill-rule:nonzero"/>
            </g>
            <g id="g_50" inkscape:label="Group 5" transform="matrix(1.0, 0.0, 0.0, 1.0, 229.0, 137.788)" opacity="0.6" style="fill-opacity:1.0;fill:rgb(255, 255, 255);fill-rule:nonzero">
               <path d="M -6.25,-18.538 C -65.0,-29.288 -80.87,-17.292 -80.87,-17.292 C -89.166,0.7259999999999991 -56.01,16.973 -7.009,20.299 C 50.925,24.230999999999998 83.936,11.385 77.801,-0.206 C 77.801,-0.206 76.75,-27.538 -6.25,-18.538 Z" id="path_51" inkscape:label="Path 1" style="fill-opacity:1.0;fill:rgb(255, 255, 255);fill-rule:nonzero"/>
            </g>
            <g id="g_52" inkscape:label="Group 4" transform="matrix(1.0, 0.0, 0.0, 1.0, 232.514, 362.887)" opacity="0.6" style="fill-opacity:1.0;fill:url(#linearGradient_53);fill-rule:nonzero">
               <path d="M 89.91,80.935 C 89.91,80.935 61.486,103.613 0.486,103.935 C -65.035,104.281 -86.479,80.935 -86.479,80.935 C -86.479,80.935 -88.26299999999999,4.564999999999998 -89.91,-71.855 C -89.91,-71.855 -89.444,-73.395 -89.444,-73.395 C -88.193,5.689999999999998 -69.651,51.589999999999996 1.676,52.205 C 77.546,52.859 86.47800000000001,-26.369 84.501,-80.935 C 87.819,-2.644999999999996 89.91,80.935 89.91,80.935 Z" id="path_54" inkscape:label="Path 1" style="fill-opacity:1.0;fill:url(#linearGradient_55);fill-rule:nonzero"/>
            </g>
            <g id="top" inkscape:label="top" transform="matrix(1.0, 0.0, 0.0, 1.0, 227.194, 139.652)" style="stroke:rgb(234, 214, 185);stroke-opacity:1.0;stroke-width:18.0;stroke-miterlimit:0;stroke-linecap:round;stroke-linejoin:round">
               <path d="M -79.063,-19.157 C -87.35900000000001,-1.1389999999999993 -54.202999999999996,15.108 -5.202,18.434 C 52.732,22.366 85.742,9.52 79.607,-2.071 " id="path_56" inkscape:label="Path 1" style=""/>
            </g>
            <g id="high" inkscape:label="high" transform="matrix(0.88998, 0.0, 0.0, 1.0, 230.614, 301.927)" opacity="0.6" style="stroke:url(#linearGradient_57);stroke-opacity:1.0;stroke-width:18.0;stroke-miterlimit:0;stroke-linecap:round;stroke-linejoin:round">
               <path d="M 91.82299766956017,157.69105613020832 C 92.36117055555555,147.61013041666652 90.85430000000001,-116.89845833333334 82.322,-135.755 C 61.908,-180.868 -7.505,-165.546 -7.505,-165.546 
M -7.505,-165.546 C -76.74,-175.733 -89.889,-167.654 -90.78,-146.413 C -91.34733333333334,-132.886125 -89.75642013888887,113.23176388888871 -85.19401475694443,153.80104694733794 " style=""/>
            </g>
            <g id="out" inkscape:label="out" transform="matrix(1.0, 0.0, 0.0, 1.0, 231.11, 278.91)" style="stroke:url(#linearGradient_59);stroke-opacity:1.0;stroke-width:18.0;stroke-miterlimit:0;stroke-linecap:round;stroke-linejoin:round">
               <path d="M -8.001,-159.529 C -77.236,-169.716 -90.38499999999999,-161.63799999999998 -91.276,-140.397 C -91.868,-126.282 -90.11,141.08999999999997 -85.078,163.908 C -49.11,198.08999999999997 50.89,194.08999999999997 91.313,163.908 C 91.89,158.08999999999997 90.42999999999999,-110.723 81.826,-129.738 C 61.41199999999999,-174.851 34.853,-153.22299999999998 -8.001,-159.529 Z" id="path_58" inkscape:label="Path 1" style=""/>
            </g>
            <g inkscape:groupmode="layer" id="light" inkscape:label="light" transform="matrix(1.0, 0.0, 0.0, 1.0, 0.0, 0.0)" style="">
               <g id="g_60" inkscape:label="Group 4" transform="matrix(1.0, 0.0, 0.0, 1.0, 222.259, 116.518)" style="stroke:rgb(45, 30, 20);stroke-opacity:1.0;stroke-width:18.0;stroke-miterlimit:0;stroke-linecap:round;stroke-linejoin:round">
                  <path d="M 0,17.996 C 0,17.996 -0.903,-16.903 -0.903,-16.903 " id="path_61" inkscape:label="Path 1" style=""/>
               </g>
               <g id="g_62" inkscape:label="glow" transform="matrix(1.0, 0.0, 0.0, 1.0, 222.259, 116.518)" opacity="0.0" style="stroke:rgb(255, 225, 134);stroke-opacity:0.15;stroke-width:58.0;stroke-miterlimit:0;stroke-linecap:round;stroke-linejoin:bevel">
                  <path d="M 0,17.996 C 0,17.996 -0.903,-16.903 -0.903,-16.903 " id="path_63" inkscape:label="Path 1" style=""/>
               </g>
               <g id="g_64" inkscape:label="Group 5" transform="matrix(1.0, 0.0, 0.0, 1.0, 0.0, 0.0)" opacity="0.99" style="">
                  <g id="g_65" inkscape:label="Group 3" transform="matrix(1.0, 0.0, 0.0, 1.0, 223.122, 61.08)" style="fill-opacity:1.0;fill:rgb(255, 243, 95);fill-rule:nonzero">
                     <path d="M -0.781,44.843 C -12.13,45.542 -20.143,40.977000000000004 -24.691,33.838 C -31.758,22.745 -30.458,5.436999999999999 -20.299,-7.99 C -1.4239999999999995,-32.937 -11.37,-45.644 -3.53,-44.881 C 9.061,-43.656 40.498000000000005,8.148999999999997 24.867,32.528 C 20.490000000000002,39.354 12.423,44.03 -0.781,44.843 Z" id="path_66" inkscape:label="Path 1" style="fill-opacity:1.0;fill:rgb(255, 243, 95);fill-rule:nonzero"/>
                  </g>
                  <g id="g_67" inkscape:label="Group 2" transform="matrix(1.0, 0.0, 0.0, 1.0, 223.122, 79.885)" opacity="0.6" style="fill-opacity:1.0;fill:rgb(255, 170, 77);fill-rule:nonzero">
                     <path d="M -0.352,18.776 C -13.414,19.523 -16.674,5.895 -9.149,-3.345 C -0.6419999999999995,-13.790000000000001 -5.124,-19.111 -1.591,-18.792 C 5.673,-18.135 26.852,17.22 -0.352,18.776 Z" id="path_68" inkscape:label="Path 1" style="fill-opacity:1.0;fill:rgb(255, 170, 77);fill-rule:nonzero"/>
                  </g>
                  <g id="g_69" inkscape:label="Group 1" transform="matrix(1.0, 0.0, 0.0, 1.0, 223.122, 61.08)" style="stroke:url(#linearGradient_71);stroke-opacity:1.0;stroke-width:18.0;stroke-miterlimit:0;stroke-linecap:round;stroke-linejoin:round">
                     <path d="M -0.781,44.843 C -12.13,45.542 -20.143,40.977000000000004 -24.691,33.838 C -31.758,22.745 -30.458,5.436999999999999 -20.299,-7.99 C -1.4239999999999995,-32.937 -11.37,-45.644 -3.53,-44.881 C 9.061,-43.656 40.498000000000005,8.149999999999999 24.867,32.528 C 20.490000000000002,39.354 12.423,44.03 -0.781,44.843 Z" id="path_70" inkscape:label="Path 1" style=""/>
                  </g>
               </g>
            </g>
            <g inkscape:groupmode="layer" id="fx_f" inkscape:label="fx f" transform="matrix(1.0, 0.0, 0.0, 1.0, 0.0, 0.0)" opacity="0.6" style="">
               <g id="g_72" inkscape:label="Group 1" transform="matrix(1.0, 0.0, 0.0, 1.0, 202.416, 362.307)" opacity="0.6" style="stroke:url(#linearGradient_74);stroke-opacity:1.0;stroke-width:18.0;stroke-miterlimit:0;stroke-linecap:round;stroke-linejoin:round">
                  <path d="M -16.015,-16.112 C -18.299,-0.24099999999999788 -17.477999999999998,17.556 2.899,17.198 C 23.8,16.830000000000002 15.116,-17.203 15.116,-17.203 " id="path_73" inkscape:label="Path 1" style=""/>
               </g>
            </g>
            <g inkscape:groupmode="layer" id="fx_f_2" inkscape:label="fx f 2" transform="matrix(1.0, 0.0, 0.0, 1.0, 0.0, 0.0)" opacity="0.6" style="">
               <g id="g_75" inkscape:label="Group 2" transform="matrix(1.0, 0.0, 0.0, 1.0, 263.119, 235.691)" opacity="0.6" style="stroke:url(#linearGradient_77);stroke-opacity:1.0;stroke-width:18.0;stroke-miterlimit:0;stroke-linecap:round;stroke-linejoin:round">
                  <path d="M -18.732,11.503 C -21.474999999999998,21.714 -20.195,42.211999999999996 -0.751,43.348 C 21.898999999999997,44.671 21.049,9.538 18.636,-10.09 C 15.171999999999999,-38.275 15.146,-43.385 15.146,-43.385 " id="path_76" inkscape:label="Path 1" style=""/>
               </g>
            </g>
         </g>
         <g inkscape:groupmode="layer" id="pcs2" inkscape:label="pcs2" transform="matrix(1.0, 0.0, 0.0, 1.0, -232.0, -472.0)" opacity="0.0" style="">
            <g id="g_78" inkscape:label="fil" transform="matrix(1.0, 0.0, 0.0, 1.0, 231.11, 279.41)" style="fill-opacity:1.0;fill:url(#linearGradient_79);fill-rule:nonzero">
               <path d="M -113.667,164.682 C -121.645,147.50699999999998 -96.611,140.09 -80.524,108.5 C -76.721,101.033 -81.61,93.58999999999999 -43.919,145.908 C -37.032999999999994,155.46699999999998 -24.761,194.03199999999998 -15.378,186.908 C -11.719000000000001,184.13 21.619,240.936 -12.149,234.803 C -49.11,228.09 -92.11,211.08999999999997 -113.667,164.682 Z" id="path_80" inkscape:label="Path 1" style="fill-opacity:1.0;fill:url(#linearGradient_81);fill-rule:nonzero"/>
            </g>
            <g id="g_82" inkscape:label="Group 4" transform="matrix(1.0, 0.0, 0.0, 1.0, 232.514, 362.887)" opacity="0.6" style="fill-opacity:1.0;fill:url(#linearGradient_83);fill-rule:nonzero">
               <path d="M -13.014,151.435 C -99.014,137.613 -114.979,81.435 -114.979,81.435 C -114.979,81.435 -128.514,75.612 -104.41,54.645 C -104.41,54.645 -103.944,53.105 -103.944,53.105 C -44.514,72.112 -101.712,122.26000000000002 2.676,135.705 C 17.487000000000002,137.613 -5.701999999999999,152.61 -13.014,151.435 Z" id="path_84" inkscape:label="Path 1" style="fill-opacity:1.0;fill:url(#linearGradient_85);fill-rule:nonzero"/>
            </g>
            <g id="g_86" inkscape:label="out" transform="matrix(1.0, 0.0, 0.0, 1.0, 231.11, 278.91)" style="">
               <path d="M -113.667,165.182 C -121.645,148.00699999999998 -96.611,140.59 -80.524,109 C -76.721,101.533 -81.61,94.08999999999999 -43.919,146.408 C -37.032999999999994,155.96699999999998 -24.761,194.53199999999998 -15.378,187.408 C -11.719000000000001,184.63 21.619,241.436 -12.149,235.303 C -49.11,228.59 -92.11,211.58999999999997 -113.667,165.182 Z" id="path_87" inkscape:label="Path 1" style=""/>
            </g>
         </g>
         <g inkscape:groupmode="layer" id="pcs4" inkscape:label="pcs4" transform="matrix(1.0, 0.0, 0.0, 1.0, -232.0, -472.0)" opacity="0.0" style="">
            <g id="g_89" inkscape:label="fil" transform="matrix(1.0, 0.0, 0.0, 1.0, 231.11, 279.41)" style="fill-opacity:1.0;fill:url(#kiojkoithj9845);fill-rule:nonzero">
               <path d="M 119.333,137.932 C 112.39,113.83999999999999 97.39,89.09 85.477,82.5 C 96.19800000000001,112.877 76.204,136.29 49.745,154.499 C 29.525999999999996,168.41299999999998 5.532000000000002,179.28799999999998 -11.42,187.908 C 2.8889999999999993,206.08999999999997 11.24,226.976 5.622,234.908 C 95.889,232.58999999999997 122.89,154.33999999999997 119.333,137.932 Z" id="path_90" inkscape:label="Path 1" style="fill-opacity:1.0;fill:url(#linearGradient_91);fill-rule:nonzero"/>
            </g>
            <g id="g_92" inkscape:label="Group 4" transform="matrix(1.0, 0.0, 0.0, 1.0, 232.514, 362.887)" opacity="0.6" style="fill-opacity:1.0;fill:url(#aqsd243asd);fill-rule:nonzero">
               <path d="M 119.41,62.935 C 119.41,62.935 103.986,144.113 4.986,152.435 C 4.736,140.363 5.487,144.113 4.426,135.455 C 43.230000000000004,136.78 105.486,77.113 109.001,38.065 C 124.486,57.113 119.41,62.935 119.41,62.935 Z" id="path_93" inkscape:label="Path 1" style="fill-opacity:1.0;fill:url(#linearGradient_94);fill-rule:nonzero"/>
            </g>
            <g id="g_95" inkscape:label="out" transform="matrix(1.0, 0.0, 0.0, 1.0, 231.11, 278.91)" style="">
               <path d="M 119.333,138.432 C 112.39,114.33999999999999 97.39,89.59 85.477,83 C 96.19800000000001,113.377 76.204,136.79 49.745,154.999 C 29.525999999999996,168.91299999999998 5.532000000000002,179.78799999999998 -11.42,188.408 C 2.8889999999999993,206.58999999999997 11.24,227.476 5.622,235.408 C 95.889,233.08999999999997 122.89,154.83999999999997 119.333,138.432 Z" id="path_96" inkscape:label="Path 1" style=""/>
            </g>
         </g>
         <g inkscape:groupmode="layer" id="pcs1" inkscape:label="pcs1" transform="matrix(1.0, 0.0, 0.0, 1.0, -232.0, -472.0)" opacity="0.0" style="">
            <g id="g_98" inkscape:label="fil" transform="matrix(1.0, 0.0, 0.0, 1.0, 231.11, 279.41)" style="fill-opacity:1.0;fill:url(#linearGradient_99);fill-rule:nonzero">
               <path d="M 5.333,51.682 C -25.08,39.077 -103.611,54.09 -79.024,96.5 C -68.726,114.263 -76.61,105.58999999999999 -43.919,145.908 C -36.498999999999995,155.059 -24.761,194.03199999999998 -15.378,186.908 C -11.719000000000001,184.13 -32.446,117.328 -31.649,112.803 C -27.1,86.967 29.567,61.727000000000004 5.333,51.682 Z" id="path_100" inkscape:label="Path 1" style="fill-opacity:1.0;fill:url(#linearGradient_101);fill-rule:nonzero"/>
            </g>
            <g id="g_102" inkscape:label="out" transform="matrix(1.0, 0.0, 0.0, 1.0, 231.11, 278.91)" style="">
               <path d="M 5.333,52.182 C -25.08,39.577 -103.611,54.59 -79.024,97 C -68.726,114.763 -76.61,106.08999999999999 -43.919,146.408 C -36.498999999999995,155.559 -24.761,194.53199999999998 -15.378,187.408 C -11.719000000000001,184.63 -32.446,117.828 -31.649,113.303 C -27.1,87.467 29.567,62.227000000000004 5.333,52.182 Z" id="path_103" inkscape:label="Path 1" style=""/>
            </g>
         </g>
         <g inkscape:groupmode="layer" id="pcs3" inkscape:label="pcs3" transform="matrix(1.0, 0.0, 0.0, 1.0, -232.00000000000003, -472.0)" opacity="0.0" style="">
            <g id="g_104" inkscape:label="fil" transform="matrix(1.0, 0.0, 0.0, 1.0, 231.11, 279.41)" style="fill-opacity:1.0;fill:url(#linearGradient_105);fill-rule:nonzero">
               <path d="M 13.833,47.682 C 79.39,54.59 99.108,91.865 82.976,117.5 C 69.389,139.09 54.888999999999996,149.08999999999997 28.08,164.408 C 17.851,170.253 -3.1110000000000007,188.08999999999997 -12.878,186.908 C -17.439,186.356 -32.446,117.328 -31.649,112.803 C -27.1,86.967 21.247,68.483 13.833,47.682 Z" id="path_106" inkscape:label="Path 1" style="fill-opacity:1.0;fill:url(#linearGradient_107);fill-rule:nonzero"/>
            </g>
            <g id="g_108" inkscape:label="out" transform="matrix(1.0, 0.0, 0.0, 1.0, 231.11, 278.91)" style="">
               <path d="M 13.833,48.182 C 79.39,55.09 99.108,92.365 82.976,118 C 69.389,139.59 54.888999999999996,149.58999999999997 28.08,164.908 C 17.851,170.753 -3.1110000000000007,188.58999999999997 -12.878,187.408 C -17.439,186.856 -32.446,117.828 -31.649,113.303 C -27.1,87.467 21.247,68.983 13.833,48.182 Z" id="path_109" inkscape:label="Path 1" style=""/>
            </g>
         </g>
      </g>
   </g>
</svg>
