<?xml version="1.0" ?>
<svg xmlns:inkscape="http://www.inkscape.org/namespaces/inkscape" xmlns:sodipodi="http://sodipodi.sourceforge.net/DTD/sodipodi-0.dtd" xmlns="http://www.w3.org/2000/svg" width="512" height="512" viewBox="0 0 512 512" version="1.1" id="svg_1" sodipodi:docname="04" inkscape:export-xdpi="96" inkscape:export-ydpi="96" style="fill: none; stroke: none">
   <defs>
      <linearGradient x1="-17.128" y1="90.114" x2="29.237" y2="-173.806" id="gradada" inkscape:label="gradada" gradientUnits="userSpaceOnUse">
         <stop offset="0%" stop-color="rgb(249, 240, 255)" stop-opacity="1"/>
         <stop offset="34.4%" stop-color="rgb(252, 248, 255)" stop-opacity="1"/>
         <stop offset="77.4%" stop-color="rgb(255, 255, 255)" stop-opacity="1"/>
      </linearGradient>
      <linearGradient x1="-17.128" y1="90.114" x2="29.237" y2="-173.806" id="linearGradient_2" inkscape:label="gradada" gradientUnits="userSpaceOnUse">
         <stop offset="0%" stop-color="rgb(249, 240, 255)" stop-opacity="1"/>
         <stop offset="34.4%" stop-color="rgb(252, 248, 255)" stop-opacity="1"/>
         <stop offset="77.4%" stop-color="rgb(255, 255, 255)" stop-opacity="1"/>
      </linearGradient>
      <linearGradient x1="14.299" y1="-94.722" x2="-18.621" y2="115.286" id="qqqqq" inkscape:label="qqqqq" gradientUnits="userSpaceOnUse">
         <stop offset="0%" stop-color="rgb(255, 233, 0)" stop-opacity="1"/>
         <stop offset="49.9%" stop-color="rgb(255, 216, 22)" stop-opacity="1"/>
         <stop offset="99.9%" stop-color="rgb(255, 199, 45)" stop-opacity="1"/>
      </linearGradient>
      <linearGradient x1="14.299" y1="-94.722" x2="-18.621" y2="115.286" id="linearGradient_19" inkscape:label="qqqqq" gradientUnits="userSpaceOnUse">
         <stop offset="0%" stop-color="rgb(255, 233, 0)" stop-opacity="1"/>
         <stop offset="49.9%" stop-color="rgb(255, 216, 22)" stop-opacity="1"/>
         <stop offset="99.9%" stop-color="rgb(255, 199, 45)" stop-opacity="1"/>
      </linearGradient>
      <linearGradient x1="52.142" y1="-77.911" x2="-44.888" y2="64.505" id="wwwww" inkscape:label="wwwww" gradientUnits="userSpaceOnUse">
         <stop offset="0.1%" stop-color="rgb(0, 48, 45)" stop-opacity="1"/>
         <stop offset="50.0%" stop-color="rgb(0, 24, 22)" stop-opacity="1"/>
         <stop offset="100%" stop-color="rgb(0, 0, 0)" stop-opacity="1"/>
      </linearGradient>
      <linearGradient x1="52.142" y1="-77.911" x2="-44.888" y2="64.505" id="linearGradient_24" inkscape:label="wwwww" gradientUnits="userSpaceOnUse">
         <stop offset="0.1%" stop-color="rgb(0, 48, 45)" stop-opacity="1"/>
         <stop offset="50.0%" stop-color="rgb(0, 24, 22)" stop-opacity="1"/>
         <stop offset="100%" stop-color="rgb(0, 0, 0)" stop-opacity="1"/>
      </linearGradient>
      <linearGradient x1="14.299" y1="-94.722" x2="-18.621" y2="115.286" id="eeeee" inkscape:label="eeeee" gradientUnits="userSpaceOnUse">
         <stop offset="0%" stop-color="rgb(183, 0, 0)" stop-opacity="1"/>
         <stop offset="49.9%" stop-color="rgb(219, 48, 0)" stop-opacity="1"/>
         <stop offset="99.9%" stop-color="rgb(255, 96, 0)" stop-opacity="1"/>
      </linearGradient>
      <linearGradient x1="14.299" y1="-94.722" x2="-18.621" y2="115.286" id="linearGradient_51" inkscape:label="eeeee" gradientUnits="userSpaceOnUse">
         <stop offset="0%" stop-color="rgb(183, 0, 0)" stop-opacity="1"/>
         <stop offset="49.9%" stop-color="rgb(219, 48, 0)" stop-opacity="1"/>
         <stop offset="99.9%" stop-color="rgb(255, 96, 0)" stop-opacity="1"/>
      </linearGradient>
      <linearGradient x1="52.142" y1="-77.911" x2="-44.888" y2="64.505" id="rrrrrr" inkscape:label="rrrrrr" gradientUnits="userSpaceOnUse">
         <stop offset="0.1%" stop-color="rgb(0, 0, 0)" stop-opacity="1"/>
         <stop offset="50.0%" stop-color="rgb(14, 3, 3)" stop-opacity="1"/>
         <stop offset="100%" stop-color="rgb(28, 5, 5)" stop-opacity="1"/>
      </linearGradient>
      <linearGradient x1="52.142" y1="-77.911" x2="-44.888" y2="64.505" id="linearGradient_56" inkscape:label="rrrrrr" gradientUnits="userSpaceOnUse">
         <stop offset="0.1%" stop-color="rgb(0, 0, 0)" stop-opacity="1"/>
         <stop offset="50.0%" stop-color="rgb(14, 3, 3)" stop-opacity="1"/>
         <stop offset="100%" stop-color="rgb(28, 5, 5)" stop-opacity="1"/>
      </linearGradient>
      <radialGradient cx="3.568" cy="0.547" r="201.4144725385939" fx="3.568" fy="0.547" id="radialGradient_60" inkscape:label="123" gradientUnits="userSpaceOnUse">
         <stop offset="0.1%" stop-color="rgb(255, 0, 0)" stop-opacity="1"/>
         <stop offset="43.2%" stop-color="rgb(255, 0, 0)" stop-opacity="0.5"/>
         <stop offset="86.3%" stop-color="rgb(255, 0, 0)" stop-opacity="0"/>
      </radialGradient>
      <radialGradient cx="3.568" cy="0.547" r="201.4144725385939" fx="3.568" fy="0.547" id="radialGradient_62" inkscape:label="123" gradientUnits="userSpaceOnUse">
         <stop offset="0.1%" stop-color="rgb(255, 0, 0)" stop-opacity="1"/>
         <stop offset="43.2%" stop-color="rgb(255, 0, 0)" stop-opacity="0.5"/>
         <stop offset="86.3%" stop-color="rgb(255, 0, 0)" stop-opacity="0"/>
      </radialGradient>
      <linearGradient x1="-0.34" y1="-51.039" x2="-0.34" y2="73.694" id="ttttt" inkscape:label="ttttt" gradientUnits="userSpaceOnUse">
         <stop offset="0%" stop-color="rgb(255, 255, 255)" stop-opacity="1"/>
         <stop offset="54.0%" stop-color="rgb(255, 255, 255)" stop-opacity="0.5"/>
         <stop offset="100%" stop-color="rgb(255, 255, 255)" stop-opacity="0"/>
      </linearGradient>
      <linearGradient x1="-0.34" y1="-51.039" x2="-0.34" y2="73.694" id="linearGradient_71" inkscape:label="ttttt" gradientUnits="userSpaceOnUse">
         <stop offset="0%" stop-color="rgb(255, 255, 255)" stop-opacity="1"/>
         <stop offset="54.0%" stop-color="rgb(255, 255, 255)" stop-opacity="0.5"/>
         <stop offset="100%" stop-color="rgb(255, 255, 255)" stop-opacity="0"/>
      </linearGradient>
      <linearGradient x1="78.88" y1="210.527" x2="-73.816" y2="-209" id="strokey" inkscape:label="strokey" gradientUnits="userSpaceOnUse">
         <stop offset="17.9%" stop-color="rgb(181, 150, 142)" stop-opacity="1"/>
         <stop offset="36.4%" stop-color="rgb(193, 173, 165)" stop-opacity="1"/>
         <stop offset="53.7%" stop-color="rgb(204, 196, 188)" stop-opacity="1"/>
      </linearGradient>
   </defs>
   <sodipodi:namedview inkscape:pagecheckerboard="true" borderlayer="true" bordercolor="#666666" pagecolor="#ffffff"/>
   <g inkscape:groupmode="layer" id="rem" inkscape:label="rem" transform="matrix(1.1, 0.0, 0.0, 1.1, 256.0, 256.0)" opacity="1">
      <g inkscape:groupmode="layer" id="body" inkscape:label="body" transform="matrix(1.0, 0.0, 0.0, 1.0, 0.128, -2.1140000000000043)" style="">
         <g id="Group_1" inkscape:label="Group 1" transform="matrix(1.0, 0.0, 0.0, 1.0, 0.0, 0.0)" style="fill-opacity:1.0;fill:url(#gradada);fill-rule:nonzero">
            <path d="M 43.397,-210.945 C -112.793,-236.006 -247.49099999999999,-106.35399999999998 -208.863,61.59 C -172.289,220.605 32.223,265.108 153.56,147.873 C 255.02800000000002,49.835999999999984 241.01,-179.238 43.397,-210.945 Z" id="Path_1" inkscape:label="Path 1" style="fill-opacity:1.0;fill:url(#linearGradient_2);fill-rule:nonzero"/>
         </g>
         <g inkscape:groupmode="layer" id="baserot" inkscape:label="baserot" transform="matrix(1.0, 0.0, 0.0, 1.0, -0.128, 2.114)" opacity="1">
            <g inkscape:groupmode="layer" id="veins" inkscape:label="veins" transform="matrix(1.0, 0.0, 0.0, 1.0, -256.0, -256.0)" style="stroke:rgb(239, 195, 165);stroke-opacity:1.0;stroke-width:16;stroke-miterlimit:0;stroke-linecap:round;stroke-linejoin:round">
               <g id="Group_5" inkscape:label="Group 5" transform="matrix(1.0, 0.0, 0.0, 1.0, 399.373, 371.985)" style="">
                  <path d="M 18.274,20.671 C 18.274,20.671 6.482,-20.671 6.482,-20.671 C 6.482,-20.671 -18.274,-20.671 -18.274,-20.671 " id="path_3" inkscape:label="Path 1" style=""/>
               </g>
               <g id="Group_7" inkscape:label="Group 7" transform="matrix(1.0, 0.0, 0.0, 1.0, 0.0, 0.0)" style="">
                  <g id="Group_4" inkscape:label="Group 4" transform="matrix(1.0, 0.0, 0.0, 1.0, 413.879, 169.78)" style="">
                     <path d="M 33.798,-17.272 C 33.798,-17.272 3.755,5.378 3.755,5.378 C 3.755,5.378 -24.879,-1.092 -24.879,-1.092 C -24.879,-1.092 -33.798,17.272 -33.798,17.272 " id="path_4" inkscape:label="Path 1" style=""/>
                  </g>
                  <g id="Group_3" inkscape:label="Group 3" transform="matrix(1.0, 0.0, 0.0, 1.0, 378.824, 158.295)" style="">
                     <path d="M -10.176,-10.393 C -10.176,-10.393 10.176,10.393 10.176,10.393 " id="path_5" inkscape:label="Path 1" style=""/>
                  </g>
               </g>
               <g id="Group_6" inkscape:label="Group 6" transform="matrix(1.0, 0.0, 0.0, 1.0, 0.0, 0.0)" style="">
                  <g id="Group_2" inkscape:label="Group 2" transform="matrix(1.0, 0.0, 0.0, 1.0, 159.124, 422.171)" style="">
                     <path d="M -7.886,23.52 C -7.886,23.52 7.886,-6.431 7.886,-6.431 C 7.886,-6.431 0,-23.52 0,-23.52 " id="path_6" inkscape:label="Path 1" style=""/>
                  </g>
                  <g id="g_7" inkscape:label="Group 1" transform="matrix(1.0, 0.0, 0.0, 1.0, 187.428, 411.901)" style="">
                     <path d="M 20.418,-3.84 C 20.418,-3.84 8.877,3.449 8.877,3.449 C 8.877,3.449 -20.418,3.84 -20.418,3.84 " id="path_8" inkscape:label="Path 1" style=""/>
                  </g>
               </g>
               <g id="Group_8" inkscape:label="Group 8" transform="matrix(1.0, 0.0, 0.0, 1.0, 0.0, 0.0)" style="">
                  <g id="g_9" inkscape:label="Group 4" transform="matrix(1.0, 0.0, 0.0, 1.0, 413.879, 169.78)" style="">
                     <path d="M -361.879,107.224 C -361.879,107.224 -368.423,104.65 -368.423,104.65 C -368.423,104.65 -370.857,109.424 -370.857,109.424 C -370.857,109.424 -374.266,110.579 -374.266,110.579 " id="path_10" inkscape:label="Path 1" style=""/>
                  </g>
                  <g id="g_11" inkscape:label="Group 3" transform="matrix(1.0, 0.0, 0.0, 1.0, 378.824, 158.295)" style="">
                     <path d="M -332.094,100.908 C -332.094,100.908 -333.382,116.289 -333.382,116.289 " id="path_12" inkscape:label="Path 1" style=""/>
                  </g>
               </g>
               <g id="Group_9" inkscape:label="Group 9" transform="matrix(1.0, 0.0, 0.0, 1.0, 0.0, 0.0)" style="">
                  <g id="g_13" inkscape:label="Group 4" transform="matrix(1.0, 0.0, 0.0, 1.0, 413.879, 169.78)" style="">
                     <path d="M -269.879,-78.799 C -269.879,-78.799 -273.759,-80.021 -273.759,-80.021 C -273.759,-80.021 -276.572,-85.7 -276.572,-85.7 C -276.572,-85.7 -282.505,-88.675 -282.505,-88.675 " id="path_14" inkscape:label="Path 1" style=""/>
                  </g>
                  <g id="g_15" inkscape:label="Group 3" transform="matrix(1.0, 0.0, 0.0, 1.0, 378.824, 158.295)" style="">
                     <path d="M -237.61,-83.265 C -237.61,-83.265 -241.517,-74.214 -241.517,-74.214 " id="path_16" inkscape:label="Path 1" style=""/>
                  </g>
               </g>
            </g>
            <g inkscape:groupmode="layer" id="basebasic" inkscape:label="basebasic" transform="matrix(1.0, 0.0, 0.0, 1.0, -256.0, -256.0)" style="">
               <g id="g_17" inkscape:label="Group 4" transform="matrix(1.0, 0.0, 0.0, 1.0, 193.701, 211.722)" style="fill-opacity:1.0;fill:url(#qqqqq);fill-rule:nonzero">
                  <path d="M 134.89,-1.823 C 134.95999999999998,69.30900000000001 75.953,132.347 3.934,138.645 C -66.2,144.77800000000002 -139.201,90.279 -133.89,1.823 C -129.38899999999998,-73.15400000000001 -76.701,-131.72199999999998 -3.934,-138.646 C 61.937,-144.914 134.79999999999998,-94.222 134.89,-1.823 Z" id="path_18" inkscape:label="Path 1" style="fill-opacity:1.0;fill:url(#linearGradient_19);fill-rule:nonzero"/>
               </g>
               <g id="g_20" inkscape:label="Group 2" transform="matrix(1.0, 0.0, 0.0, 1.0, 219.779, 283.809)" opacity="0.5" style="stroke:rgb(249, 226, 6);stroke-opacity:1.0;stroke-width:60;stroke-miterlimit:0;stroke-linecap:round;stroke-linejoin:round">
                  <path d="M -36.359,21.613 C -36.359,21.613 10.638999999999996,21.931 32.163,-14.328 " id="path_21" inkscape:label="Path 1" style=""/>
               </g>
               <g id="g_22" inkscape:label="Group 1" transform="matrix(1.0, 0.0, 0.0, 1.0, 182.858, 202.911)" style="fill-opacity:1.0;fill:url(#wwwww);fill-rule:nonzero">
                  <path d="M 90.474,13.908 C 85.652,57.528 47.891999999999996,90.09 10.412,90.739 C -29.856,91.437 -66.39,63.034000000000006 -69.205,16.416 C -72.108,-31.66 -34.301,-72.68499999999999 9.269,-75.823 C 52.141999999999996,-78.91099999999999 97.143,-46.411 90.474,13.908 Z" id="path_23" inkscape:label="Path 1" style="fill-opacity:1.0;fill:url(#linearGradient_24);fill-rule:nonzero"/>
               </g>
               <g id="g_25" inkscape:label="Group 3" transform="matrix(1.0, 0.0, 0.0, 1.0, 193.701, 211.722)" style="stroke:rgb(239, 182, 0);stroke-opacity:1.0;stroke-width:18.0;stroke-miterlimit:0;stroke-linecap:round;stroke-linejoin:round">
                  <path d="M 127.643,-1.731 C 127.799,59.778 68.799,123.278 3.721,130.9 C -67.993,139.299 -130.151,82.729 -126.643,1.731 C -123.7,-66.221 -73.2,-125.221 -3.721,-130.9 C 64.344,-136.463 127.434,-83.896 127.643,-1.731 Z" id="path_26" inkscape:label="Path 1" style=""/>
               </g>
            </g>
         </g>
         <g inkscape:groupmode="layer" id="baserot_2" inkscape:label="baserot 2" transform="matrix(-1.0, 1.2246467991473532e-16, -1.2246467991473532e-16, -1.0, -0.128, 2.114)" opacity="1">
            <g inkscape:groupmode="layer" id="veins_2" inkscape:label="veins 2" transform="matrix(1.0, 2.4492935982947064e-16, -2.4492935982947064e-16, 1.0, -255.99999999999997, -256.00000000000006)" style="">
               <g id="g_27" inkscape:label="Group 5" transform="matrix(1.0, 0.0, 0.0, 1.0, 399.373, 371.985)" style="">
                  <path d="M 11.938,26.204 C 11.938,26.204 11.525,27.045 11.525,27.045 C 11.525,27.045 10.199,27.045 10.199,27.045 " id="path_28" inkscape:label="Path 1" style=""/>
               </g>
               <g id="g_29" inkscape:label="Group 7" transform="matrix(1.0, 0.0, 0.0, 1.0, 0.0, 0.0)" style="">
                  <g id="g_30" inkscape:label="Group 4" transform="matrix(1.0, 0.0, 0.0, 1.0, 413.879, 169.78)" style="">
                     <path d="M 46.315,45.583 C 46.315,45.583 -28.808,229.762 -28.808,229.762 C -28.808,229.762 -43.443,268.842 -43.443,268.842 C -43.443,268.842 -73.752,285.252 -73.752,285.252 " id="path_31" inkscape:label="Path 1" style=""/>
                  </g>
                  <g id="g_32" inkscape:label="Group 3" transform="matrix(1.0, 0.0, 0.0, 1.0, 378.824, 158.295)" style="">
                     <path d="M -76.894,305.366 C -76.894,305.366 -8.388,279.371 -8.388,279.371 " id="path_33" inkscape:label="Path 1" style=""/>
                  </g>
               </g>
               <g id="g_34" inkscape:label="Group 6" transform="matrix(1.0, 0.0, 0.0, 1.0, 0.0, 0.0)" style="">
                  <g id="g_35" inkscape:label="Group 2" transform="matrix(1.0, 0.0, 0.0, 1.0, 159.124, 422.171)" style="">
                     <path d="M 33.932,39.631 C 33.932,39.631 44.206,41.934 44.206,41.934 C 44.206,41.934 40.339,41.549 40.339,41.549 " id="path_36" inkscape:label="Path 1" style=""/>
                  </g>
                  <g id="g_37" inkscape:label="Group 1" transform="matrix(1.0, 0.0, 0.0, 1.0, 187.428, 411.901)" style="">
                     <path d="M 34.621,55.855 C 34.621,55.855 29.743,55.333 29.743,55.333 C 29.743,55.333 16.682,52.685 16.682,52.685 " id="path_38" inkscape:label="Path 1" style=""/>
                  </g>
               </g>
               <g id="g_39" inkscape:label="Group 8" transform="matrix(1.0, 0.0, 0.0, 1.0, 0.0, 0.0)" style="">
                  <g id="g_40" inkscape:label="Group 4" transform="matrix(1.0, 0.0, 0.0, 1.0, 413.879, 169.78)" style="">
                     <path d="M -314.624,229.271 C -314.624,229.271 -320.964,224.343 -320.964,224.343 C -320.964,224.343 -326.231,225.444 -326.231,225.444 C -326.231,225.444 -327.457,228.744 -327.457,228.744 " id="path_41" inkscape:label="Path 1" style=""/>
                  </g>
                  <g id="g_42" inkscape:label="Group 3" transform="matrix(1.0, 0.0, 0.0, 1.0, 378.824, 158.295)" style="">
                     <path d="M -282.165,231.279 C -282.165,231.279 -285.925,235.942 -285.925,235.942 " id="path_43" inkscape:label="Path 1" style=""/>
                  </g>
               </g>
               <g id="g_44" inkscape:label="Group 9" transform="matrix(1.0, 0.0, 0.0, 1.0, 0.0, 0.0)" style="">
                  <g id="g_45" inkscape:label="Group 4" transform="matrix(1.0, 0.0, 0.0, 1.0, 413.879, 169.78)" style="">
                     <path d="M -181.692,285.545 C -181.692,285.545 -212.097,240.745 -212.097,240.745 C -212.097,240.745 -215.386,194.232 -215.386,194.232 C -215.386,194.232 -310.396,-59.215 -310.396,-59.215 " id="path_46" inkscape:label="Path 1" style=""/>
                  </g>
                  <g id="g_47" inkscape:label="Group 3" transform="matrix(1.0, 0.0, 0.0, 1.0, 378.824, 158.295)" style="">
                     <path d="M -213.735,-94.95 C -213.735,-94.95 -179.283,205.693 -179.283,205.693 " id="path_48" inkscape:label="Path 1" style=""/>
                  </g>
               </g>
            </g>
            <g inkscape:groupmode="layer" id="basered" inkscape:label="basered" transform="matrix(1.0, 0.0, 0.0, 1.0, -256.0, -256.0)" opacity="0.0" style="">
               <g id="g_49" inkscape:label="Group 4" transform="matrix(1.0, 0.0, 0.0, 1.0, 193.701, 211.722)" style="fill-opacity:1.0;fill:url(#eeeee);fill-rule:nonzero">
                  <path d="M 134.89,-1.823 C 134.95999999999998,69.30900000000001 75.953,132.347 3.934,138.645 C -66.2,144.77800000000002 -139.201,90.279 -133.89,1.823 C -129.38899999999998,-73.15400000000001 -76.701,-131.72199999999998 -3.934,-138.646 C 61.937,-144.914 134.79999999999998,-94.222 134.89,-1.823 Z" id="path_50" inkscape:label="Path 1" style="fill-opacity:1.0;fill:url(#linearGradient_51);fill-rule:nonzero"/>
               </g>
               <g id="g_52" inkscape:label="Group 2" transform="matrix(1.0, 0.0, 0.0, 1.0, 219.779, 283.809)" opacity="0.5" style="">
                  <path d="M -36.359,21.613 C -36.359,21.613 10.638999999999996,21.931 32.163,-14.328 " id="path_53" inkscape:label="Path 1" style=""/>
               </g>
               <g id="g_54" inkscape:label="Group 1" transform="matrix(1.0, 0.0, 0.0, 1.0, 182.858, 202.911)" style="fill-opacity:1.0;fill:url(#rrrrrr);fill-rule:nonzero">
                  <path d="M 90.474,13.908 C 85.652,57.528 47.891999999999996,90.09 10.412,90.739 C -29.856,91.437 -66.39,63.034000000000006 -69.205,16.416 C -72.108,-31.66 -34.301,-72.68499999999999 9.269,-75.823 C 52.141999999999996,-78.91099999999999 97.143,-46.411 90.474,13.908 Z" id="path_55" inkscape:label="Path 1" style="fill-opacity:1.0;fill:url(#linearGradient_56);fill-rule:nonzero"/>
               </g>
               <g id="g_57" inkscape:label="Group 3" transform="matrix(1.0, 0.0, 0.0, 1.0, 193.701, 211.722)" style="stroke:rgb(131, 0, 0);stroke-opacity:1.0;stroke-width:18.0;stroke-miterlimit:0;stroke-linecap:round;stroke-linejoin:round">
                  <path d="M 127.643,-1.731 C 127.799,59.778 68.799,123.278 3.721,130.9 C -67.993,139.299 -130.151,82.729 -126.643,1.731 C -123.7,-66.221 -73.2,-125.221 -3.721,-130.9 C 64.344,-136.463 127.434,-83.896 127.643,-1.731 Z" id="path_58" inkscape:label="Path 1" style=""/>
               </g>
            </g>
            <g inkscape:groupmode="layer" id="redglow" inkscape:label="redglow" transform="matrix(1.0, 0.0, 0.0, 1.0, -256.0, -256.0)" opacity="0.0" style="">
               <g id="g_59" inkscape:label="Group 1" transform="matrix(1.0, 0.0, 0.0, 1.0, 182.858, 202.911)" style="fill-opacity:1.0;fill:url(#radialGradient_60);fill-rule:nonzero">
                  <path d="M 90.474,13.908 C 85.652,57.528 47.891999999999996,90.09 10.412,90.739 C -29.856,91.437 -66.39,63.034000000000006 -69.205,16.416 C -72.108,-31.66 -34.301,-72.68499999999999 9.269,-75.823 C 52.141999999999996,-78.91099999999999 97.143,-46.411 90.474,13.908 Z
M 213.964,-7.012 C 217.619,-135.059 104.288,-210.729 -2.197,-208.304 C -110.08200000000001,-205.848 -213.99200000000002,-117.382 -199.354,-0.881 C -190.04700000000003,73.18599999999999 -91.217,72.586 8.321,74.557 C 124.012,76.84700000000001 211.608,75.53 213.964,-7.012 Z" id="path_61" inkscape:label="Path 1" style="fill-opacity:1.0;fill:url(#radialGradient_62);fill-rule:nonzero"/>
               </g>
            </g>
         </g>
         <g inkscape:groupmode="layer" id="outlayer" inkscape:label="outlayer" transform="matrix(1.0, 0.0, 0.0, 1.0, -256.128, -253.886)" style="">
            <g id="g_63" inkscape:label="Group 7" transform="matrix(1.0, 0.0, 0.0, 1.0, 241.921, 155.668)" style="fill-opacity:1.0;fill:rgb(255, 255, 255);fill-rule:nonzero">
               <path d="M 19.171,13.875 C 11.145999999999999,25.314 -3.942,28.376 -14.53,20.713 C -25.118,13.05 -27.195999999999998,-2.436 -19.171,-13.875 C -11.145999999999999,-25.314 3.942,-28.376 14.53,-20.713 C 25.118,-13.05 27.195999999999998,2.436 19.171,13.875 Z" id="path_64" inkscape:label="Path 1" style="fill-opacity:1.0;fill:rgb(255, 255, 255);fill-rule:nonzero"/>
            </g>
            <g id="g_65" inkscape:label="Group 6" transform="matrix(1.0, 0.0, 0.0, 1.0, 195.23, 190.612)" style="fill-opacity:1.0;fill:rgb(255, 255, 255);fill-rule:nonzero">
               <path d="M 8.808,6.375 C 5.121,11.631 -1.8120000000000003,13.036999999999999 -6.676,9.516 C -11.54,5.995 -12.495,-1.1189999999999998 -8.808,-6.375 C -5.121,-11.631 1.8120000000000003,-13.036999999999999 6.676,-9.516 C 11.54,-5.995 12.495,1.1189999999999998 8.808,6.375 Z" id="path_66" inkscape:label="Path 1" style="fill-opacity:1.0;fill:rgb(255, 255, 255);fill-rule:nonzero"/>
            </g>
            <g id="g_67" inkscape:label="Group 5" transform="matrix(1.0, 0.0, 0.0, 1.0, 256.075, 269.975)" opacity="0.3" style="fill-opacity:1.0;fill:rgb(209, 189, 143);fill-rule:nonzero">
               <path d="M 153.611,131.784 C 32.272999999999996,249.015 -172.234,204.515 -208.805,45.497 C -209.365,43.066 -208.759,-21.221 -209.248,-23.631 C -201.99699999999999,111.661 -19.099000000000004,167.837 99.03,62.874 C 183.512,-12.192 186.265,-128.403 122.749,-197.962 C 240.417,-117.46699999999998 225.136,62.66799999999999 153.611,131.784 Z" id="path_68" inkscape:label="Path 1" style="fill-opacity:1.0;fill:rgb(209, 189, 143);fill-rule:nonzero"/>
            </g>
            <g id="g_69" inkscape:label="Group 4" transform="matrix(1.0, 0.0, 0.0, 1.0, 259.34, 113.039)" style="fill-opacity:1.0;fill:url(#ttttt);fill-rule:nonzero">
               <path d="M 129.66,0 C 129.66,35.012 75.102,63.394 2.25,63.394 C -70.602,63.394 -129.66,35.012 -129.66,0 C -129.66,-35.012 -70.602,-63.394 2.25,-63.394 C 75.102,-63.394 129.66,-35.012 129.66,0 Z" id="path_70" inkscape:label="Path 1" style="fill-opacity:1.0;fill:url(#linearGradient_71);fill-rule:nonzero"/>
            </g>
            <g id="g_72" inkscape:label="Group 3" transform="matrix(1.0, 0.0, 0.0, 1.0, 253.948, 263.007)" opacity="0.6" style="stroke:rgb(255, 255, 255);stroke-opacity:1.0;stroke-width:18.0;stroke-miterlimit:0;stroke-linecap:round;stroke-linejoin:round">
               <path d="M 42.62,-204.457 C -103.055,-228.596 -232.17899999999997,-102.787 -192.658,58.058 C -155.44299999999998,209.518 27.031999999999996,258.51099999999997 140.278,145.509 C 234.915,51.07599999999998 226.93,-173.915 42.62,-204.457 Z" id="path_73" inkscape:label="Path 1" style=""/>
            </g>
            <g id="g_74" inkscape:label="Group 2" transform="matrix(1.0, 0.0, 0.0, 1.0, 253.39, 255.15)" style="stroke:url(#strokey);stroke-opacity:1.0;stroke-width:18.0;stroke-miterlimit:0;stroke-linecap:round;stroke-linejoin:round">
               <path d="M 46.135,-212.209 C -110.149,-236.595 -248.498,-106.65800000000002 -206.125,60.326 C -166.224,217.56799999999998 40.629999999999995,270.356 156.298,146.608 C 254.514,41.531000000000006 232.87199999999999,-183.071 46.135,-212.209 Z" id="path_75" inkscape:label="Path 1" style=""/>
            </g>
         </g>
      </g>
   </g>
</svg>
