<?xml version="1.0" ?>
<svg xmlns:inkscape="http://www.inkscape.org/namespaces/inkscape" xmlns:sodipodi="http://sodipodi.sourceforge.net/DTD/sodipodi-0.dtd" xmlns="http://www.w3.org/2000/svg" width="512" height="512" viewBox="0 0 512 512" version="1.1" id="svg_1" sodipodi:docname="35" inkscape:export-xdpi="96" inkscape:export-ydpi="96" style="fill: none; stroke: none">
   <defs>
      <linearGradient x1="-207.003" y1="-0.416" x2="205.697" y2="-0.416" id="linearGradient_6" inkscape:label="35isdkfhjdng" gradientUnits="userSpaceOnUse">
         <stop offset="0%" stop-color="rgb(133, 255, 0)" stop-opacity="1"/>
         <stop offset="47.8%" stop-color="rgb(133, 255, 0)" stop-opacity="0.5"/>
         <stop offset="96.39999999999999%" stop-color="rgb(133, 255, 0)" stop-opacity="0"/>
      </linearGradient>
      <linearGradient x1="-207.003" y1="-0.416" x2="205.697" y2="-0.416" id="linearGradient_8" inkscape:label="35isdkfhjdng" gradientUnits="userSpaceOnUse">
         <stop offset="0%" stop-color="rgb(133, 255, 0)" stop-opacity="1"/>
         <stop offset="47.8%" stop-color="rgb(133, 255, 0)" stop-opacity="0.5"/>
         <stop offset="96.39999999999999%" stop-color="rgb(133, 255, 0)" stop-opacity="0"/>
      </linearGradient>
      <linearGradient x1="15.523" y1="-146.283" x2="-4.647" y2="41.008" id="linearGradient_10" inkscape:label="35s.df.g,gd" gradientUnits="userSpaceOnUse">
         <stop offset="0%" stop-color="rgb(182, 129, 76)" stop-opacity="1"/>
         <stop offset="42.5%" stop-color="rgb(154, 97, 63)" stop-opacity="1"/>
         <stop offset="97.6%" stop-color="rgb(125, 65, 51)" stop-opacity="1"/>
      </linearGradient>
      <linearGradient x1="15.523" y1="-146.283" x2="-4.647" y2="41.008" id="linearGradient_12" inkscape:label="35s.df.g,gd" gradientUnits="userSpaceOnUse">
         <stop offset="0%" stop-color="rgb(182, 129, 76)" stop-opacity="1"/>
         <stop offset="42.5%" stop-color="rgb(154, 97, 63)" stop-opacity="1"/>
         <stop offset="97.6%" stop-color="rgb(125, 65, 51)" stop-opacity="1"/>
      </linearGradient>
      <linearGradient x1="-5.265" y1="265.345" x2="-13.915" y2="49.233" id="linearGradient_15" inkscape:label="35yfbhsd" gradientUnits="userSpaceOnUse">
         <stop offset="9.1%" stop-color="rgb(255, 220, 152)" stop-opacity="0"/>
         <stop offset="47.699999999999996%" stop-color="rgb(255, 220, 159)" stop-opacity="0.5"/>
         <stop offset="100%" stop-color="rgb(255, 220, 167)" stop-opacity="1"/>
      </linearGradient>
      <linearGradient x1="1253.413" y1="-2410.883" x2="1172.133" y2="-2609.008" id="linearGradient_18" inkscape:label="35wuhsdsf" gradientUnits="userSpaceOnUse">
         <stop offset="49.5%" stop-color="rgb(61, 25, 21)" stop-opacity="1"/>
         <stop offset="68.0%" stop-color="rgb(95, 49, 31)" stop-opacity="1"/>
         <stop offset="100%" stop-color="rgb(128, 73, 41)" stop-opacity="1"/>
      </linearGradient>
      <linearGradient x1="1.962" y1="-143.851" x2="2.755" y2="140.651" id="linearGradient_19" inkscape:label="35wtf" gradientUnits="userSpaceOnUse">
         <stop offset="28.000000000000004%" stop-color="rgb(224, 153, 50)" stop-opacity="1"/>
         <stop offset="63.1%" stop-color="rgb(216, 132, 52)" stop-opacity="1"/>
         <stop offset="99.9%" stop-color="rgb(208, 111, 54)" stop-opacity="1"/>
      </linearGradient>
      <linearGradient x1="1.962" y1="-143.851" x2="2.755" y2="140.651" id="linearGradient_21" inkscape:label="35wtf" gradientUnits="userSpaceOnUse">
         <stop offset="28.000000000000004%" stop-color="rgb(224, 153, 50)" stop-opacity="1"/>
         <stop offset="63.1%" stop-color="rgb(216, 132, 52)" stop-opacity="1"/>
         <stop offset="99.9%" stop-color="rgb(208, 111, 54)" stop-opacity="1"/>
      </linearGradient>
      <linearGradient x1="-22.369" y1="132.518" x2="-2.119" y2="-126.136" id="linearGradient_23" inkscape:label="35cock" gradientUnits="userSpaceOnUse">
         <stop offset="9.4%" stop-color="rgb(255, 255, 235)" stop-opacity="0"/>
         <stop offset="53.2%" stop-color="rgb(255, 255, 235)" stop-opacity="0.5"/>
         <stop offset="100%" stop-color="rgb(255, 255, 235)" stop-opacity="1"/>
      </linearGradient>
      <linearGradient x1="4.963" y1="102.661" x2="-3.799" y2="-50.21" id="linearGradient_24" inkscape:label="35cum" gradientUnits="userSpaceOnUse">
         <stop offset="0%" stop-color="rgb(157, 65, 41)" stop-opacity="1"/>
         <stop offset="51.2%" stop-color="rgb(157, 65, 41)" stop-opacity="0.5"/>
         <stop offset="100%" stop-color="rgb(157, 65, 41)" stop-opacity="0"/>
      </linearGradient>
      <linearGradient x1="4.963" y1="102.661" x2="-3.799" y2="-50.21" id="linearGradient_26" inkscape:label="35cum" gradientUnits="userSpaceOnUse">
         <stop offset="0%" stop-color="rgb(157, 65, 41)" stop-opacity="1"/>
         <stop offset="51.2%" stop-color="rgb(157, 65, 41)" stop-opacity="0.5"/>
         <stop offset="100%" stop-color="rgb(157, 65, 41)" stop-opacity="0"/>
      </linearGradient>
      <linearGradient x1="2.755" y1="140.651" x2="1.962" y2="-143.851" id="linearGradient_32" inkscape:label="35ligma" gradientUnits="userSpaceOnUse">
         <stop offset="42.1%" stop-color="rgb(93, 39, 33)" stop-opacity="1"/>
         <stop offset="63.3%" stop-color="rgb(110, 56, 37)" stop-opacity="1"/>
         <stop offset="100%" stop-color="rgb(128, 73, 41)" stop-opacity="1"/>
      </linearGradient>
      <linearGradient x1="75.084" y1="-54.877" x2="-65.506" y2="81.356" id="linearGradient_34" inkscape:label="35mouse" gradientUnits="userSpaceOnUse">
         <stop offset="42.1%" stop-color="rgb(255, 250, 107)" stop-opacity="1"/>
         <stop offset="63.3%" stop-color="rgb(255, 249, 54)" stop-opacity="1"/>
         <stop offset="100%" stop-color="rgb(255, 247, 0)" stop-opacity="1"/>
      </linearGradient>
      <linearGradient x1="1.863" y1="42.043" x2="-0.282" y2="-39.506" id="linearGradient_37" inkscape:label="35slisdg" gradientUnits="userSpaceOnUse">
         <stop offset="39.300000000000004%" stop-color="rgb(33, 35, 48)" stop-opacity="1"/>
         <stop offset="61.3%" stop-color="rgb(57, 53, 80)" stop-opacity="1"/>
         <stop offset="82.69999999999999%" stop-color="rgb(80, 71, 112)" stop-opacity="1"/>
      </linearGradient>
   </defs>
   <sodipodi:namedview inkscape:pagecheckerboard="true" borderlayer="true" bordercolor="#666666" pagecolor="#ffffff"/>
   <g inkscape:groupmode="layer" id="fx" inkscape:label="fx" transform="matrix(0.95, 0.0, 0.0, 0.95, 12.800450000000012, 12.800049999999999)" style="">
      <g id="Group_4" inkscape:label="Group 4" transform="matrix(1.0, 0.0, 0.0, 1.0, 246.438, 463.212)" style="fill-opacity:1.0;fill:rgb(251, 255, 0);fill-rule:nonzero">
         <path d="M 20.833,-2.656 C 20.833,-2.656 16.277,-2.7530000000000006 11.773,-5.815 C 5.686,-9.953 2.6,-17.259999999999998 2.6,-27.534 C 2.6,-28.092 2.154,-28.546999999999997 1.597,-28.56 C 1.044,-28.561 0.5740000000000001,-28.136999999999997 0.548,-27.58 C 0.548,-27.58 0.19899999999999984,-20.653 -2.665,-13.916 C -6.026,-6.010000000000001 -11.278999999999998,-1.597 -18.304,-0.765 C -19.854999999999997,-0.781 -20.983,-0.607 -20.983,-0.607 C -21.511,-0.522 -21.884999999999998,-0.04400000000000004 -21.842,0.489 C -21.799,1.022 -21.354,1.433 -20.819,1.433 C -19.974,1.433 -19.145999999999997,1.389 -18.339,1.302 C -15.538999999999998,1.341 -10.695,1.9890000000000003 -6.601,5.485 C -1.5220000000000002,9.822 1.053,17.240000000000002 1.053,27.533 C 1.053,28.091 1.498,28.546 2.056,28.559 C 2.056,28.559 2.08,28.56 2.08,28.56 C 2.6270000000000002,28.56 3.08,28.128999999999998 3.105,27.58 C 3.105,27.58 4.587,-0.603 20.819,-0.603 C 21.383,-0.603 21.840999999999998,-1.0580000000000003 21.845,-1.622 C 21.849,-2.186 21.397,-2.648 20.833,-2.656 Z" id="Path_1" inkscape:label="Path 1" style="fill-opacity:1.0;fill:rgb(251, 255, 0);fill-rule:nonzero"/>
      </g>
      <g id="Group_3" inkscape:label="Group 3" transform="matrix(1.0, 0.0, 0.0, 1.0, 326.369, 395.416)" style="fill-opacity:1.0;fill:rgb(251, 255, 0);fill-rule:nonzero">
         <path d="M 12.835,-1.636 C 12.835,-1.636 10.028,-1.6949999999999998 7.253,-3.582 C 3.503,-6.131 1.602,-10.634 1.602,-16.963 C 1.602,-16.963 0.984,-17.595 0.984,-17.595 C 0.984,-17.595 0.338,-16.992 0.338,-16.992 C 0.338,-16.992 0.12200000000000011,-12.725 -1.642,-8.574 C -3.7119999999999997,-3.7029999999999994 -6.948999999999999,-0.984 -11.277,-0.471 C -12.232,-0.481 -12.927,-0.374 -12.927,-0.374 C -12.927,-0.374 -13.457,0.301 -13.457,0.301 C -13.457,0.301 -12.826,0.883 -12.826,0.883 C -12.305,0.883 -11.299,0.802 -11.299,0.802 C -9.574,0.8260000000000001 -6.59,1.225 -4.067,3.379 C -0.9380000000000002,6.051 0.649,10.621000000000002 0.649,16.963 C 0.649,16.963 1.267,17.595 1.267,17.595 C 1.267,17.595 1.282,17.595 1.282,17.595 C 1.282,17.595 1.913,16.992 1.913,16.992 C 1.913,16.992 2.825000000000001,-0.372 12.826,-0.372 C 12.826,-0.372 13.459,-1 13.459,-1 C 13.459,-1 12.835,-1.636 12.835,-1.636 Z" id="path_2" inkscape:label="Path 1" style="fill-opacity:1.0;fill:rgb(251, 255, 0);fill-rule:nonzero"/>
      </g>
      <g id="Group_2" inkscape:label="Group 2" transform="matrix(1.0, 0.0, 0.0, 1.0, 477.017, 339.45)" style="fill-opacity:1.0;fill:rgb(251, 255, 0);fill-rule:nonzero">
         <path d="M 9.468,-1.207 C 9.468,-1.207 7.398,-1.251 5.351,-2.643 C 2.585,-4.523 1.182,-7.844 1.182,-12.513 C 1.182,-12.513 0.726,-12.98 0.726,-12.98 C 0.726,-12.98 0.249,-12.534 0.249,-12.534 C 0.249,-12.534 0.08999999999999986,-9.387 -1.211,-6.325 C -2.738,-2.732 -5.1259999999999994,-0.726 -8.318,-0.348 C -9.023,-0.355 -9.536,-0.276 -9.536,-0.276 C -9.536,-0.276 -9.926,0.222 -9.926,0.222 C -9.926,0.222 -9.461,0.651 -9.461,0.651 C -9.461,0.651 -8.335,0.592 -8.335,0.592 C -7.063000000000001,0.61 -4.861,0.9039999999999999 -3,2.493 C -0.6920000000000002,4.464 0.479,7.835 0.479,12.513 C 0.479,12.513 0.935,12.979 0.935,12.979 C 0.935,12.979 0.945,12.98 0.945,12.98 C 0.945,12.98 1.411,12.534 1.411,12.534 C 1.411,12.534 2.0840000000000005,-0.274 9.461,-0.274 C 9.461,-0.274 9.928,-0.737 9.928,-0.737 C 9.928,-0.737 9.468,-1.207 9.468,-1.207 Z" id="path_3" inkscape:label="Path 1" style="fill-opacity:1.0;fill:rgb(251, 255, 0);fill-rule:nonzero"/>
      </g>
      <g id="Group_1" inkscape:label="Group 1" transform="matrix(1.0, 0.0, 0.0, 1.0, 413.23, 434.653)" style="fill-opacity:1.0;fill:rgb(251, 255, 0);fill-rule:nonzero">
         <path d="M 27.8,-3.544 C 27.8,-3.544 21.72,-3.673 15.71,-7.759 C 7.588000000000001,-13.281 3.469,-23.032 3.469,-36.741 C 3.469,-37.485 2.875,-38.092999999999996 2.131,-38.111 C 1.3929999999999998,-38.113 0.766,-37.548 0.731,-36.804 C 0.731,-36.804 0.2669999999999999,-27.560000000000002 -3.555,-18.57 C -8.039,-8.02 -15.051,-2.1310000000000002 -24.425,-1.02 C -26.494,-1.042 -28,-0.809 -28,-0.809 C -28.705,-0.6950000000000001 -29.203,-0.05999999999999994 -29.146,0.652 C -29.089000000000002,1.3639999999999999 -28.494999999999997,1.912 -27.781,1.912 C -26.653,1.912 -25.549,1.854 -24.472,1.738 C -20.736,1.79 -14.272,2.6529999999999996 -8.808,7.319 C -2.0309999999999997,13.106 1.406,23.005 1.406,36.741 C 1.406,37.485 2.0,38.092999999999996 2.744,38.11 C 2.744,38.11 2.776,38.111 2.776,38.111 C 3.506,38.111 4.11,37.537 4.144,36.804 C 4.144,36.804 6.119999999999997,-0.805 27.781,-0.805 C 28.534,-0.805 29.146,-1.412 29.151,-2.165 C 29.156,-2.918 28.553,-3.5340000000000003 27.8,-3.544 Z" id="path_4" inkscape:label="Path 1" style="fill-opacity:1.0;fill:rgb(251, 255, 0);fill-rule:nonzero"/>
      </g>
   </g>
   <g inkscape:groupmode="layer" id="rem" inkscape:label="rem" transform="matrix(0.95, 0.0, 0.0, 0.95, 256.0, 256.0)" opacity="1">
      <g inkscape:groupmode="layer" id="broom_updown" inkscape:label="broom updown" transform="matrix(1.0, 0.0, 0.0, 1.0, 0.0, 0.0)" opacity="1">
         <g inkscape:groupmode="layer" id="broommaster" inkscape:label="broommaster" transform="matrix(0.6246431445011388, -0.7809103290568831, 0.7809103290568831, 0.6246431445011388, 37.0, -61.0)" opacity="1">
            <g inkscape:groupmode="layer" id="stik" inkscape:label="stik" transform="matrix(0.6246431445011388, 0.7809103290568831, -0.7809103290568831, 0.6246431445011388, -30.742860839684248, -350.61192135340707)" style="">
               <g inkscape:groupmode="layer" id="woosh" inkscape:label="woosh" transform="matrix(1.0, 0.0, 0.0, 1.0, 279.004, 395.41700000000003)" opacity="0.6" style="">
                  <g id="g_5" inkscape:label="Group 1" transform="matrix(1.0, 0.0, 0.0, 1.0, 0.0, 0.0)" style="fill-opacity:1.0;fill:url(#linearGradient_6);fill-rule:nonzero">
                     <path d="M -10.501,-113.435 C -19.29,-16.73700000000001 101.833,0.022999999999996135 155.185,-61.042 C 208.537,-122.107 246.863,20.112999999999992 128.798,82.966 C 0.02400000000000091,151.51999999999998 -206.35,82.966 -206.35,82.966 C -206.35,82.966 -10.501,-113.435 -10.501,-113.435 Z" id="path_7" inkscape:label="Path 1" style="fill-opacity:1.0;fill:url(#linearGradient_8);fill-rule:nonzero"/>
                  </g>
               </g>
               <g id="g_9" inkscape:label="Group 3" transform="matrix(1.0, 0.0, 0.0, 1.0, 339.477, 168.283)" style="fill-opacity:1.0;fill:url(#linearGradient_10);fill-rule:nonzero">
                  <path d="M -156.137,139.321 C -77.584,53.291 -40.956,-23.398 -22.69,-35.619 C 28.627,-69.953 87.953,-119.40800000000002 119.072,-155.787 C 128.62,-166.949 159.986,-136.007 155.744,-128.145 C 151.502,-120.28300000000002 103.74000000000001,-67.892 4.775,-7.157 C -10.51,2.224 -89.81099999999998,117.31199999999998 -131.42,158.188 C -131.42,158.188 -156.137,139.321 -156.137,139.321 Z" id="path_11" inkscape:label="Path 1" style="fill-opacity:1.0;fill:url(#linearGradient_12);fill-rule:nonzero"/>
               </g>
               <g id="g_13" inkscape:label="Group 2" transform="matrix(1.0, 0.0, 0.0, 1.0, 370.927, 130.083)" opacity="0.5" style="stroke:url(#linearGradient_15);stroke-opacity:1.0;stroke-width:18.0;stroke-miterlimit:0;stroke-linecap:round;stroke-linejoin:round">
                  <path d="M -187.587,177.521 C -109.03399999999999,91.49099999999999 -65.906,25.802 -47.64,13.581 C 3.6769999999999996,-20.753000000000004 59.503,-67.208 90.622,-103.587 C 100.17,-114.74900000000001 128.536,-97.80699999999999 124.294,-89.945 C 120.05199999999999,-82.083 72.288,-29.692 -26.676,31.043 C -41.961,40.424 -121.262,155.512 -162.871,196.388 C -162.871,196.388 -187.587,177.521 -187.587,177.521 Z" id="path_14" inkscape:label="Path 1" style=""/>
               </g>
               <g id="g_16" inkscape:label="Group 1" transform="matrix(1.0, 0.0, 0.0, 1.0, 339.477, 168.283)" style="stroke:url(#linearGradient_18);stroke-opacity:1.0;stroke-width:18.0;stroke-miterlimit:0;stroke-linecap:round;stroke-linejoin:round">
                  <path d="M -156.137,139.321 C -77.584,53.291 -40.956,-23.398 -22.69,-35.619 C 28.627,-69.953 87.953,-119.40800000000002 119.072,-155.787 C 128.62,-166.949 159.986,-136.007 155.744,-128.145 C 151.502,-120.28300000000002 103.74000000000001,-67.892 4.775,-7.157 C -10.51,2.224 -89.81099999999998,117.31199999999998 -131.42,158.188 C -131.42,158.188 -156.137,139.321 -156.137,139.321 Z" id="path_17" inkscape:label="Path 1" style=""/>
               </g>
               <g inkscape:groupmode="layer" id="broom" inkscape:label="broom" transform="matrix(1.0, 0.0, 0.0, 1.0, 0.0, 0.0)" style="">
                  <g id="Group_8" inkscape:label="Group 8" transform="matrix(1.0, 0.0, 0.0, 1.0, 150.962, 343.716)" style="fill-opacity:1.0;fill:url(#linearGradient_19);fill-rule:nonzero">
                     <path d="M 29.879,-80.569 C 29.879,-80.569 46.308,-80.955 51.249,-86.569 C 60.776,-97.393 66.243,-118.088 71.42,-143.298 C 71.42,-143.298 98.767,-135.139 115.066,-116.013 C 115.066,-116.013 106.932,-89.892 106.932,-89.892 C 106.932,-89.892 132.928,-95.67 132.928,-95.67 C 132.928,-95.67 138.152,-71.931 138.694,-58.45 C 138.694,-58.45 113.215,-52.983 92.75,-44.147 C 89.422,-42.71 91.397,-20.223000000000003 88.299,-18.693 C 88.299,-18.693 104.487,66.14699999999999 51.752,100.681 C 41.065000000000005,107.67999999999999 42.665,84.143 42.665,84.143 C 42.665,84.143 26.897,131.71900000000002 -28.775,142.675 C -50.102000000000004,146.872 -46.918,128.483 -46.918,128.483 C -46.918,128.483 -80.406,144.587 -99.301,134.666 C -113.71600000000001,127.098 -117.743,98.654 -109.322,77.713 C -109.322,77.713 -128.97,107.27000000000001 -137.635,58.302 C -142.29,31.998 -133.518,-23.326 -72.11,-52.518 C -72.11,-52.518 -88.405,-53.61699999999999 -84.446,-65.222 C -80.487,-76.827 -32.30199999999999,-106.467 29.879,-80.569 Z" id="path_20" inkscape:label="Path 1" style="fill-opacity:1.0;fill:url(#linearGradient_21);fill-rule:nonzero"/>
                  </g>
                  <g id="det" inkscape:label="det" transform="matrix(1.0, 0.0, 0.0, 1.0, 0.0, 0.0)" style="">
                     <g id="Group_6" inkscape:label="Group 6" transform="matrix(1.0, 0.0, 0.0, 1.0, 145.674, 348.315)" opacity="0.5" style="stroke:url(#linearGradient_23);stroke-opacity:1.0;stroke-width:18.0;stroke-miterlimit:0;stroke-linecap:round;stroke-linejoin:round">
                        <path d="M 35.167,-76.667 C 35.167,-76.667 60.095,-85.053 65.036,-90.667 C 74.563,-101.491 78.031,-108.18599999999998 83.208,-133.396 C 83.208,-133.396 103.054,-139.737 119.353,-120.611 C 119.353,-120.611 112.219,-94.49 112.219,-94.49 C 112.219,-94.49 138.215,-100.269 138.215,-100.269 C 138.215,-100.269 143.439,-76.53 143.981,-63.049 C 143.981,-63.049 118.50200000000001,-57.582 98.037,-48.746 C 94.709,-47.309000000000005 96.685,-24.822000000000003 93.587,-23.292 C 93.587,-23.292 109.775,61.547999999999995 57.04,96.082 C 46.353,103.08099999999999 47.953,79.544 47.953,79.544 C 47.953,79.544 32.185,127.11999999999999 -23.487,138.076 C -44.814,142.273 -41.63,123.885 -41.63,123.885 C -41.63,123.885 -75.119,139.989 -94.014,130.068 C -108.429,122.50000000000001 -112.45500000000001,94.055 -104.034,73.114 C -104.034,73.114 -113.68299999999999,97.671 -122.348,48.703 C -127.003,22.399000000000004 -116.731,-25.424 -55.323,-54.616 C -55.323,-54.616 -78.006,-59.504999999999995 -70.658,-69.321 C -64.674,-77.314 -32.17399999999999,-96.814 35.167,-76.667 Z" id="path_22" inkscape:label="Path 1" style=""/>
                     </g>
                     <g id="Group_5" inkscape:label="Group 5" transform="matrix(1.0, 0.0, 0.0, 1.0, 126.982, 389.106)" opacity="0.8" style="fill-opacity:1.0;fill:url(#linearGradient_24);fill-rule:nonzero">
                        <path d="M 75.729,55.289 C 65.048,62.29 66.645,38.752 66.645,38.752 C 66.645,38.752 50.876,86.324 -4.799,97.283 C -26.117,101.485 -22.936,83.097 -22.936,83.097 C -22.936,83.097 -56.425,99.19999999999999 -75.32,89.276 C -89.73899999999999,81.704 -93.757,53.262 -85.336,32.323 C -85.336,32.323 -104.993,61.876999999999995 -113.652,12.916 C -117.82600000000001,-10.625 -110.70400000000001,-67.771 -48.13,-97.907 C -76.69,-70.826 -114.28699999999999,-24.55 -90.77,-18.059 C -73.27799999999999,-13.231000000000002 -32.529,-45.39 -32.529,-45.39 C -32.529,-45.39 -67.93,13.161 -44.767,23.906 C -31.694000000000003,29.97 4.035,-5.673 4.983,-6.534 C 4.441,-5.668 -14.516000000000002,46.242999999999995 6.889,42.507 C 32.86,37.974 75.614,-31.969 76.275,-33.064 C 76.275,-33.064 72.495,7.102 84.3,8.928 C 97.81,11.018 111.486,-13.088000000000001 114.318,-45.47 C 115.831,-18.477 112.936,30.927000000000003 75.729,55.289 Z" id="path_25" inkscape:label="Path 1" style="fill-opacity:1.0;fill:url(#linearGradient_26);fill-rule:nonzero"/>
                     </g>
                     <g id="Group_7" inkscape:label="Group 7" transform="matrix(1.0, 0.0, 0.0, 1.0, 175.862, 296.049)" style="stroke:rgb(188, 112, 43);stroke-opacity:1.0;stroke-width:18.0;stroke-miterlimit:0;stroke-linecap:round;stroke-linejoin:round">
                        <path d="M -36.239,11.581 C -36.239,11.581 -9.698,-15.995999999999999 36.239,-10.969 " id="path_27" inkscape:label="Path 1" style=""/>
                     </g>
                     <g id="g_28" inkscape:label="Group 4" transform="matrix(1.0, 0.0, 0.0, 1.0, 212.317, 309.938)" style="stroke:rgb(188, 112, 43);stroke-opacity:1.0;stroke-width:18.0;stroke-miterlimit:0;stroke-linecap:round;stroke-linejoin:round">
                        <path d="M 8.121,-24.437 C 8.121,-24.437 15.114999999999998,-4.462 -9.061,24.437 " id="path_29" inkscape:label="Path 1" style=""/>
                     </g>
                  </g>
                  <g id="g_30" inkscape:label="Group 3" transform="matrix(1.0, 0.0, 0.0, 1.0, 150.962, 343.716)" style="stroke:url(#linearGradient_32);stroke-opacity:1.0;stroke-width:18.0;stroke-miterlimit:0;stroke-linecap:round;stroke-linejoin:round">
                     <path d="M 29.879,-80.569 C 29.879,-80.569 46.308,-80.955 51.249,-86.569 C 60.776,-97.393 66.243,-118.088 71.42,-143.298 C 71.42,-143.298 98.767,-135.139 115.066,-116.013 C 115.066,-116.013 106.932,-89.892 106.932,-89.892 C 106.932,-89.892 132.928,-95.67 132.928,-95.67 C 132.928,-95.67 138.152,-71.931 138.694,-58.45 C 138.694,-58.45 113.215,-52.983 92.75,-44.147 C 89.422,-42.71 91.397,-20.223000000000003 88.299,-18.693 C 88.299,-18.693 104.487,66.14699999999999 51.752,100.681 C 41.065000000000005,107.67999999999999 42.665,84.143 42.665,84.143 C 42.665,84.143 26.897,131.71900000000002 -28.775,142.675 C -50.102000000000004,146.872 -46.918,128.483 -46.918,128.483 C -46.918,128.483 -80.406,144.587 -99.301,134.666 C -113.71600000000001,127.098 -117.743,98.654 -109.322,77.713 C -109.322,77.713 -128.97,107.269 -137.635,58.302 C -142.29,31.998 -133.518,-23.326 -72.11,-52.518 C -72.11,-52.518 -88.405,-53.61699999999999 -84.446,-65.222 C -80.487,-76.827 -32.30199999999999,-106.467 29.879,-80.569 Z" id="path_31" inkscape:label="Path 1" style=""/>
                  </g>
                  <g id="glint" inkscape:label="glint" transform="matrix(1.0, 0.0, 0.0, 1.0, 150.962, 343.716)" opacity="0.0" style="fill-opacity:1.0;fill:rgb(255, 254, 221);fill-rule:nonzero;stroke:url(#linearGradient_34);stroke-opacity:0.51;stroke-width:32.0;stroke-miterlimit:0;stroke-linecap:round;stroke-linejoin:round">
                     <path d="M 29.879,-80.569 C 29.879,-80.569 46.308,-80.955 51.249,-86.569 C 60.776,-97.393 66.243,-118.088 71.42,-143.298 C 71.42,-143.298 98.767,-135.139 115.066,-116.013 C 115.066,-116.013 106.932,-89.892 106.932,-89.892 C 106.932,-89.892 132.928,-95.67 132.928,-95.67 C 132.928,-95.67 138.152,-71.931 138.694,-58.45 C 138.694,-58.45 113.215,-52.983 92.75,-44.147 C 89.422,-42.71 91.397,-20.223000000000003 88.299,-18.693 C 88.299,-18.693 104.487,66.14699999999999 51.752,100.681 C 41.065000000000005,107.67999999999999 42.665,84.143 42.665,84.143 C 42.665,84.143 26.897,131.71900000000002 -28.775,142.675 C -50.102000000000004,146.872 -46.918,128.483 -46.918,128.483 C -46.918,128.483 -80.406,144.587 -99.301,134.666 C -113.71600000000001,127.098 -117.743,98.654 -109.322,77.713 C -109.322,77.713 -128.97,107.269 -137.635,58.302 C -142.29,31.998 -133.518,-23.326 -72.11,-52.518 C -72.11,-52.518 -88.405,-53.61699999999999 -84.446,-65.222 C -80.487,-76.827 -32.30199999999999,-106.467 29.879,-80.569 Z" id="path_33" inkscape:label="Path 1" style="fill-opacity:1.0;fill:rgb(255, 254, 221);fill-rule:nonzero"/>
                  </g>
                  <g id="g_35" inkscape:label="Group 1" transform="matrix(1.0, 0.0, 0.0, 1.0, 216.289, 285.651)" style="fill-opacity:1.0;fill:rgb(120, 120, 155);fill-rule:nonzero;stroke:url(#linearGradient_37);stroke-opacity:1.0;stroke-width:18.0;stroke-miterlimit:0;stroke-linecap:round;stroke-linejoin:round">
                     <path d="M -35.447,-22.504 C -35.447,-22.504 -1.4640000000000022,-7.725999999999999 22.973,39.372 C 22.973,39.372 40.263000000000005,48.370999999999995 41.02,30.087 C 41.777,11.803 2.5169999999999995,-33.261 -25.379,-40.816 C -42.386,-45.422000000000004 -45.196000000000005,-28.103 -35.447,-22.504 Z" id="path_36" inkscape:label="Path 1" style="fill-opacity:1.0;fill:rgb(120, 120, 155);fill-rule:nonzero"/>
                  </g>
               </g>
            </g>
         </g>
         <g inkscape:groupmode="layer" id="sparks" inkscape:label="sparks" transform="matrix(1.34113, 0.0, 0.0, 1.34113, -37.552, 36.304)" opacity="1"/>
      </g>
   </g>
   <g inkscape:groupmode="layer" id="midmover" inkscape:label="midmover" transform="matrix(1.0, 0.0, 0.0, 1.0, 256.0, 256.0)" opacity="1"/>
</svg>
