<?xml version="1.0" ?>
<svg xmlns:inkscape="http://www.inkscape.org/namespaces/inkscape" xmlns:sodipodi="http://sodipodi.sourceforge.net/DTD/sodipodi-0.dtd" xmlns="http://www.w3.org/2000/svg" width="512" height="512" viewBox="0 0 512 512" version="1.1" id="svg_1" sodipodi:docname="111" inkscape:export-xdpi="96" inkscape:export-ydpi="96" style="fill: none; stroke: none">
   <defs>
      <linearGradient x1="-86" y1="167" x2="-98.126" y2="-48.242" id="Gradient_Fill_1" inkscape:label="Gradient Fill 1" gradientUnits="userSpaceOnUse">
         <stop offset="0%" stop-color="rgb(249, 208, 33)" stop-opacity="1"/>
         <stop offset="50.0%" stop-color="rgb(249, 184, 17)" stop-opacity="1"/>
         <stop offset="100%" stop-color="rgb(249, 159, 0)" stop-opacity="1"/>
         <stop offset="100%" stop-color="rgb(252, 207, 128)" stop-opacity="1"/>
         <stop offset="100%" stop-color="rgb(255, 255, 255)" stop-opacity="1"/>
      </linearGradient>
      <linearGradient x1="-86" y1="167" x2="-98.126" y2="-48.242" id="linearGradient_4" inkscape:label="Gradient Fill 1" gradientUnits="userSpaceOnUse">
         <stop offset="0%" stop-color="rgb(249, 208, 33)" stop-opacity="1"/>
         <stop offset="50.0%" stop-color="rgb(249, 184, 17)" stop-opacity="1"/>
         <stop offset="100%" stop-color="rgb(249, 159, 0)" stop-opacity="1"/>
         <stop offset="100%" stop-color="rgb(252, 207, 128)" stop-opacity="1"/>
         <stop offset="100%" stop-color="rgb(255, 255, 255)" stop-opacity="1"/>
      </linearGradient>
      <linearGradient x1="78" y1="-129" x2="30" y2="-226.011" id="linearGradient_41" inkscape:label="Gradient Fill 1" gradientUnits="userSpaceOnUse">
         <stop offset="26.6%" stop-color="rgb(255, 255, 255)" stop-opacity="0"/>
         <stop offset="73.5%" stop-color="rgb(255, 255, 255)" stop-opacity="0.5"/>
         <stop offset="100%" stop-color="rgb(255, 255, 255)" stop-opacity="1"/>
      </linearGradient>
      <linearGradient x1="78" y1="-129" x2="30" y2="-226.011" id="linearGradient_43" inkscape:label="Gradient Fill 1" gradientUnits="userSpaceOnUse">
         <stop offset="26.6%" stop-color="rgb(255, 255, 255)" stop-opacity="0"/>
         <stop offset="73.5%" stop-color="rgb(255, 255, 255)" stop-opacity="0.5"/>
         <stop offset="100%" stop-color="rgb(255, 255, 255)" stop-opacity="1"/>
      </linearGradient>
      <linearGradient x1="-94" y1="-70" x2="-143.76" y2="-170.568" id="linearGradient_48" inkscape:label="Gradient Fill 1" gradientUnits="userSpaceOnUse">
         <stop offset="26.6%" stop-color="rgb(255, 255, 255)" stop-opacity="0"/>
         <stop offset="73.5%" stop-color="rgb(255, 255, 255)" stop-opacity="0.5"/>
         <stop offset="100%" stop-color="rgb(255, 255, 255)" stop-opacity="1"/>
      </linearGradient>
      <linearGradient x1="-94" y1="-70" x2="-143.76" y2="-170.568" id="linearGradient_50" inkscape:label="Gradient Fill 1" gradientUnits="userSpaceOnUse">
         <stop offset="26.6%" stop-color="rgb(255, 255, 255)" stop-opacity="0"/>
         <stop offset="73.5%" stop-color="rgb(255, 255, 255)" stop-opacity="0.5"/>
         <stop offset="100%" stop-color="rgb(255, 255, 255)" stop-opacity="1"/>
      </linearGradient>
   </defs>
   <sodipodi:namedview inkscape:pagecheckerboard="true" borderlayer="true" bordercolor="#666666" pagecolor="#ffffff"/>
   <g inkscape:groupmode="layer" id="L_tape" inkscape:label="L tape" transform="matrix(1.0, 0.0, 0.0, 1.0, 256.0, 256.0)" style="">
      <g id="Group_10" inkscape:label="Group 10" transform="matrix(1.0, 0.0, 0.0, 1.0, 0.0, 0.0)" style="fill-opacity:1.0;fill:rgb(255, 237, 105);fill-rule:nonzero;stroke:rgb(234, 130, 6);stroke-opacity:1.0;stroke-width:9.0;stroke-miterlimit:0;stroke-linecap:round;stroke-linejoin:round">
         <path d="M -4.979,-114.873 C -4.979,-114.873 -190.284,-51.21 -190.284,-51.21 C -190.284,-51.21 1.842,25.578 1.842,25.578 C 1.842,25.578 193.589,-51.968 193.589,-51.968 C 193.589,-51.968 -4.979,-114.873 -4.979,-114.873 Z" id="Path_1" inkscape:label="Path 1" style="fill-opacity:1.0;fill:rgb(255, 237, 105);fill-rule:nonzero"/>
      </g>
      <g id="Group_9" inkscape:label="Group 9" transform="matrix(1.0, 0.0, 0.0, 1.0, 0.0, 0.0)" style="fill-opacity:1.0;fill:rgb(255, 237, 105);fill-rule:nonzero;stroke:rgb(234, 130, 6);stroke-opacity:1.0;stroke-width:9.0;stroke-miterlimit:0;stroke-linecap:round;stroke-linejoin:round">
         <path d="M -0.811,67.021 C -0.811,67.021 -4.979,-114.873 -4.979,-114.873 " id="path_2" inkscape:label="Path 1" style="fill-opacity:1.0;fill:rgb(255, 237, 105);fill-rule:nonzero"/>
      </g>
      <g id="Group_8" inkscape:label="Group 8" transform="matrix(1.0, 0.0, 0.0, 1.0, 0.0, 0.0)" style="fill-opacity:1.0;fill:url(#Gradient_Fill_1);fill-rule:nonzero;stroke:rgb(234, 130, 6);stroke-opacity:1.0;stroke-width:9.0;stroke-miterlimit:0;stroke-linecap:round;stroke-linejoin:round">
         <path d="M -165.068,154.69 C -165.068,154.69 -190.606,-50.713 -190.606,-50.713 C -190.606,-50.713 -0.432,25.369 -0.432,25.369 C -0.432,25.369 -0.432,223.317 -0.432,223.317 C -0.432,223.317 -165.068,154.69 -165.068,154.69 Z" id="path_3" inkscape:label="Path 1" style="fill-opacity:1.0;fill:url(#linearGradient_4);fill-rule:nonzero"/>
      </g>
      <g id="Group_6" inkscape:label="Group 6" transform="matrix(1.0, 0.0, 0.0, 1.0, 0.0, 0.0)" style="fill-opacity:1.0;fill:rgb(249, 159, 0);fill-rule:nonzero;stroke:rgb(234, 130, 6);stroke-opacity:1.0;stroke-width:9.0;stroke-miterlimit:0;stroke-linecap:round;stroke-linejoin:round">
         <path d="M 164.204,152.69 C 164.204,152.69 192.51,-52.986 192.51,-52.986 C 192.51,-52.986 -0.432,25.369 -0.432,25.369 C -0.432,25.369 -0.432,223.317 -0.432,223.317 C -0.432,223.317 164.204,152.69 164.204,152.69 Z" id="path_5" inkscape:label="Path 1" style="fill-opacity:1.0;fill:rgb(249, 159, 0);fill-rule:nonzero"/>
      </g>
   </g>
   <g inkscape:groupmode="layer" id="shadow" inkscape:label="shadow" transform="matrix(1.0, 0.0, 0.0, 1.0, 256.0, 281.5)" opacity="0.54" style="">
      <g id="Group_3" inkscape:label="Group 3" transform="matrix(1.0, 0.0, 0.0, 1.0, 0.0, 0.0)" style="fill-opacity:1.0;fill:rgb(234, 130, 6);fill-rule:nonzero">
         <path d="M -181.311,-5.039 C -181.311,-5.039 -187.936,-54.914 -187.936,-54.914 C -187.936,-54.914 0,22.939 0,22.939 C 0,22.939 0,73.962 0,73.962 C 0,73.962 -181.311,-5.039 -181.311,-5.039 Z" id="path_6" inkscape:label="Path 1" style="fill-opacity:1.0;fill:rgb(234, 130, 6);fill-rule:nonzero"/>
      </g>
      <g id="Group_1" inkscape:label="Group 1" transform="matrix(1.0, 0.0, 0.0, 1.0, 0.0, 0.0)" style="fill-opacity:1.0;fill:rgb(234, 130, 6);fill-rule:nonzero">
         <path d="M 182.365,-1.876 C 182.365,-1.876 189.186,-54.414 189.186,-54.414 C 189.186,-54.414 0,22.939 0,22.939 C 0,22.939 0,73.962 0,73.962 C 0,73.962 182.365,-1.876 182.365,-1.876 Z" id="path_7" inkscape:label="Path 1" style="fill-opacity:1.0;fill:rgb(234, 130, 6);fill-rule:nonzero"/>
      </g>
   </g>
   <g inkscape:groupmode="layer" id="L_tape_3" inkscape:label="L tape 3" transform="matrix(1.0, 0.0, 0.0, 1.0, 256.0, 256.0)" style="">
      <g id="Group_4" inkscape:label="Group 4" transform="matrix(1.0, 0.0, 0.0, 1.0, 0.0, 0.0)" style="fill-opacity:1.0;fill:rgb(188, 4, 4);fill-rule:nonzero">
         <path d="M 62.884,197.654 C 62.884,197.654 67.779,-4.6 67.779,-4.6 C 67.779,-4.6 116.663,-21.652 116.663,-21.652 C 116.663,-21.652 106.842,177.949 106.842,177.949 C 106.842,177.949 62.884,197.654 62.884,197.654 Z" id="path_8" inkscape:label="Path 1" style="fill-opacity:1.0;fill:rgb(188, 4, 4);fill-rule:nonzero"/>
      </g>
      <g id="Group_2" inkscape:label="Group 2" transform="matrix(1.0, 0.0, 0.0, 1.0, 0.0, 0.0)" style="fill-opacity:1.0;fill:rgb(221, 5, 5);fill-rule:nonzero">
         <path d="M -64.442,197.654 C -64.442,197.654 -72.053,-5.737 -72.053,-5.737 C -72.053,-5.737 -117.526,-22.789 -117.526,-22.789 C -117.526,-22.789 -105.874,179.465 -105.874,179.465 C -105.874,179.465 -64.442,197.654 -64.442,197.654 Z" id="path_9" inkscape:label="Path 1" style="fill-opacity:1.0;fill:rgb(221, 5, 5);fill-rule:nonzero"/>
      </g>
   </g>
   <g inkscape:groupmode="layer" id="shadow_3" inkscape:label="shadow 3" transform="matrix(1.0, 0.0, 0.0, 1.0, 256.0, 281.5)" opacity="0.54" style="">
      <g id="g_10" inkscape:label="Group 3" transform="matrix(1.0, 0.0, 0.0, 1.0, 0.0, 0.0)" style="fill-opacity:1.0;fill:rgb(153, 0, 0);fill-rule:nonzero">
         <path d="M -115.783,-25.024 C -115.783,-25.024 -70.583,-6.3 -70.583,-6.3 C -70.583,-6.3 -69.054,43.874 -69.054,43.874 C -69.054,43.874 -113.805,24.375 -113.805,24.375 C -113.805,24.375 -115.783,-25.024 -115.783,-25.024 Z" id="path_11" inkscape:label="Path 1" style="fill-opacity:1.0;fill:rgb(153, 0, 0);fill-rule:nonzero"/>
      </g>
      <g id="g_12" inkscape:label="Group 1" transform="matrix(1.0, 0.0, 0.0, 1.0, 0.0, 0.0)" style="fill-opacity:1.0;fill:rgb(153, 0, 0);fill-rule:nonzero">
         <path d="M 114.972,-24.07 C 114.972,-24.07 68.476,-5.059 68.476,-5.059 C 68.476,-5.059 66.005,46.513 66.005,46.513 C 66.005,46.513 113.25800000000001,28.270000000000003 113.504,26.76 C 113.75,25.25 114.972,-24.07 114.972,-24.07 Z" id="path_13" inkscape:label="Path 1" style="fill-opacity:1.0;fill:rgb(153, 0, 0);fill-rule:nonzero"/>
      </g>
   </g>
   <g inkscape:groupmode="layer" id="L_tape_4" inkscape:label="L tape 4" transform="matrix(1.0, 0.0, 0.0, 1.0, 256.0, 256.0)" style="">
      <g id="g_14" inkscape:label="Group 4" transform="matrix(1.0, 0.0, 0.0, 1.0, 0.0, 0.0)" style="stroke:rgb(153, 0, 0);stroke-opacity:1.0;stroke-width:9.0;stroke-miterlimit:0;stroke-linecap:round;stroke-linejoin:round">
         <path d="M 62.884,197.654 C 62.884,197.654 67.779,-4.6 67.779,-4.6 C 67.779,-4.6 116.663,-21.652 116.663,-21.652 C 116.663,-21.652 106.842,177.949 106.842,177.949 C 106.842,177.949 62.884,197.654 62.884,197.654 Z" id="path_15" inkscape:label="Path 1" style=""/>
      </g>
      <g id="g_16" inkscape:label="Group 2" transform="matrix(1.0, 0.0, 0.0, 1.0, 0.0, 0.0)" style="stroke:rgb(153, 0, 0);stroke-opacity:1.0;stroke-width:9.0;stroke-miterlimit:0;stroke-linecap:round;stroke-linejoin:round">
         <path d="M -64.442,197.654 C -64.442,197.654 -72.053,-5.737 -72.053,-5.737 C -72.053,-5.737 -117.526,-22.789 -117.526,-22.789 C -117.526,-22.789 -105.874,179.465 -105.874,179.465 C -105.874,179.465 -64.442,197.654 -64.442,197.654 Z" id="path_17" inkscape:label="Path 1" style=""/>
      </g>
   </g>
   <g inkscape:groupmode="layer" id="tape_1" inkscape:label="tape 1" transform="matrix(1.0, 0.0, 0.0, 1.0, 256.0, 256.0)" style="">
      <g id="g_18" inkscape:label="Group 2" transform="matrix(1.0, 0.0, 0.0, 1.0, 0.0, 0.0)" style="">
         <g id="g_19" inkscape:label="Group 3" transform="matrix(1.0, 0.0, 0.0, 1.0, 0.0, 0.0)" style="fill-opacity:1.0;fill:rgb(255, 237, 105);fill-rule:nonzero;stroke:rgb(234, 130, 6);stroke-opacity:1.0;stroke-width:9.0;stroke-miterlimit:0;stroke-linecap:round;stroke-linejoin:round">
            <path d="M 0,-119.268 C 0,-119.268 -197.936,-57.164 -197.936,-57.164 C -197.936,-57.164 0,22.939 0,22.939 C 0,22.939 197.936,-57.164 197.936,-57.164 C 197.936,-57.164 0,-119.268 0,-119.268 Z" id="path_20" inkscape:label="Path 1" style="fill-opacity:1.0;fill:rgb(255, 237, 105);fill-rule:nonzero"/>
         </g>
         <g id="g_21" inkscape:label="Group 2" transform="matrix(1.0, 0.0, 0.0, 1.0, 0.0, 0.0)" style="fill-opacity:1.0;fill:rgb(255, 217, 23);fill-rule:nonzero;stroke:rgb(234, 130, 6);stroke-opacity:1.0;stroke-width:9.0;stroke-miterlimit:0;stroke-linecap:round;stroke-linejoin:round">
            <path d="M -191.311,-7.289 C -191.311,-7.289 -197.936,-57.164 -197.936,-57.164 C -197.936,-57.164 0,22.939 0,22.939 C 0,22.939 0,73.962 0,73.962 C 0,73.962 -191.311,-7.289 -191.311,-7.289 Z" id="path_22" inkscape:label="Path 1" style="fill-opacity:1.0;fill:rgb(255, 217, 23);fill-rule:nonzero"/>
         </g>
         <g id="g_23" inkscape:label="Group 1" transform="matrix(1.0, 0.0, 0.0, 1.0, 0.0, 0.0)" style="fill-opacity:1.0;fill:rgb(255, 181, 34);fill-rule:nonzero;stroke:rgb(234, 130, 6);stroke-opacity:1.0;stroke-width:9.0;stroke-miterlimit:0;stroke-linecap:round;stroke-linejoin:round">
            <path d="M 191.115,-4.626 C 191.115,-4.626 197.936,-57.164 197.936,-57.164 C 197.936,-57.164 0,22.939 0,22.939 C 0,22.939 0,73.962 0,73.962 C 0,73.962 191.115,-4.626 191.115,-4.626 Z" id="path_24" inkscape:label="Path 1" style="fill-opacity:1.0;fill:rgb(255, 181, 34);fill-rule:nonzero"/>
         </g>
      </g>
      <g id="g_25" inkscape:label="Group 1" transform="matrix(1.0, 0.0, 0.0, 1.0, 0.0, 0.0)" style="">
         <g id="g_26" inkscape:label="Group 2" transform="matrix(1.0, 0.0, 0.0, 1.0, 0.0, 0.0)" style="">
            <g id="g_27" inkscape:label="Group 2" transform="matrix(1.0, 0.0, 0.0, 1.0, 0.0, 0.0)" style="fill-opacity:1.0;fill:rgb(175, 8, 8);fill-rule:nonzero;stroke:rgb(153, 0, 0);stroke-opacity:1.0;stroke-width:9.0;stroke-miterlimit:0;stroke-linecap:round;stroke-linejoin:round">
               <path d="M -123.48,-27.373 C -123.48,-27.373 70.541,-97.1 70.541,-97.1 C 70.541,-97.1 117.531,-82.7 117.531,-82.7 C 117.531,-82.7 -74.975,-6.91 -74.975,-6.91 C -74.975,-6.91 -123.48,-27.373 -123.48,-27.373 Z" id="path_28" inkscape:label="Path 1" style="fill-opacity:1.0;fill:rgb(175, 8, 8);fill-rule:nonzero"/>
            </g>
            <g id="g_29" inkscape:label="Group 1" transform="matrix(1.0, 0.0, 0.0, 1.0, 0.0, 0.0)" style="fill-opacity:1.0;fill:rgb(201, 0, 0);fill-rule:nonzero;stroke:rgb(153, 0, 0);stroke-opacity:1.0;stroke-width:9.0;stroke-miterlimit:0;stroke-linecap:round;stroke-linejoin:round">
               <path d="M -68.642,47.695 C -68.642,47.695 -71.589,-6.375 -71.589,-6.375 C -71.589,-6.375 -123.48,-27.373 -123.48,-27.373 C -123.48,-27.373 -119.8,24.958 -119.8,24.958 C -119.8,24.958 -68.642,47.695 -68.642,47.695 Z" id="path_30" inkscape:label="Path 1" style="fill-opacity:1.0;fill:rgb(201, 0, 0);fill-rule:nonzero"/>
            </g>
         </g>
         <g id="g_31" inkscape:label="Group 1" transform="matrix(1.0, 0.0, 0.0, 1.0, 0.0, 0.0)" style="">
            <g id="g_32" inkscape:label="Group 2" transform="matrix(1.0, 0.0, 0.0, 1.0, 0.0, 0.0)" style="fill-opacity:1.0;fill:rgb(175, 8, 8);fill-rule:nonzero;stroke:rgb(153, 0, 0);stroke-opacity:1.0;stroke-width:9.0;stroke-miterlimit:0;stroke-linecap:round;stroke-linejoin:round">
               <path d="M 125.11,-27.373 C 125.11,-27.373 -68.911,-97.1 -68.911,-97.1 C -68.911,-97.1 -115.901,-82.7 -115.901,-82.7 C -115.901,-82.7 67.779,-6.873 67.779,-6.873 C 67.779,-6.873 125.11,-27.373 125.11,-27.373 Z" id="path_33" inkscape:label="Path 1" style="fill-opacity:1.0;fill:rgb(175, 8, 8);fill-rule:nonzero"/>
            </g>
            <g id="g_34" inkscape:label="Group 1" transform="matrix(1.0, 0.0, 0.0, 1.0, 0.0, 0.0)" style="fill-opacity:1.0;fill:rgb(188, 4, 4);fill-rule:nonzero;stroke:rgb(153, 0, 0);stroke-opacity:1.0;stroke-width:9.0;stroke-miterlimit:0;stroke-linecap:round;stroke-linejoin:round">
               <path d="M 67.29,50.384 C 67.29,50.384 68.916,-4.6 68.916,-4.6 C 68.916,-4.6 125.11,-27.373 125.11,-27.373 C 125.11,-27.373 121.21,28.369 121.21,28.369 C 121.21,28.369 67.29,50.384 67.29,50.384 Z" id="path_35" inkscape:label="Path 1" style="fill-opacity:1.0;fill:rgb(188, 4, 4);fill-rule:nonzero"/>
            </g>
         </g>
      </g>
      <g inkscape:groupmode="layer" id="bow" inkscape:label="bow" transform="matrix(1.0, 0.0, 0.0, 1.0, 0.0, 0.0)" style="">
         <g id="Group_11" inkscape:label="Group 11" transform="matrix(1.0, 0.0, 0.0, 1.0, 0.0, 0.0)" style="">
            <g id="g_36" inkscape:label="Group 9" transform="matrix(1.0, 0.0, 0.0, 1.0, 0.0, 0.0)" style="fill-opacity:1.0;fill:rgb(175, 0, 0);fill-rule:nonzero;stroke:rgb(153, 0, 0);stroke-opacity:1.0;stroke-width:9.0;stroke-miterlimit:0;stroke-linecap:round;stroke-linejoin:round">
               <path d="M 16.584,-50.592 C 16.584,-50.592 92.62700000000001,-63.36 134.205,-86.361 C 195.513,-120.277 162.901,-150.279 162.901,-150.279 C 162.901,-150.279 104.526,-186.032 95.487,-214.197 C 95.487,-214.197 111.953,-169.228 79.551,-121.825 C 47.149,-74.422 1.035,-59.293 1.035,-59.293 C 1.035,-59.293 16.584,-50.592 16.584,-50.592 Z" id="path_37" inkscape:label="Path 1" style="fill-opacity:1.0;fill:rgb(175, 0, 0);fill-rule:nonzero"/>
            </g>
            <g id="g_38" inkscape:label="Group 4" transform="matrix(1.0, 0.0, 0.0, 1.0, 0.0, 0.0)" style="fill-opacity:1.0;fill:rgb(255, 11, 11);fill-rule:nonzero;stroke:rgb(153, 0, 0);stroke-opacity:1.0;stroke-width:9.0;stroke-miterlimit:0;stroke-linecap:round;stroke-linejoin:round">
               <path d="M 1.035,-59.293 C 1.035,-59.293 -12.821,-137.76 14.812,-188.031 C 42.445,-238.30200000000002 99.693,-220.111 99.693,-220.111 C 99.693,-220.111 131.03400000000002,-175.534 164.032,-150.495 C 164.032,-150.495 86.384,-177.461 49.776,-124.145 C 13.168000000000006,-70.829 10.38,-51.076 10.38,-51.076 C 10.38,-51.076 1.035,-59.293 1.035,-59.293 Z" id="path_39" inkscape:label="Path 1" style="fill-opacity:1.0;fill:rgb(255, 11, 11);fill-rule:nonzero"/>
            </g>
            <g id="g_40" inkscape:label="Group 2" transform="matrix(1.0, 0.0, 0.0, 1.0, 0.0, 0.0)" style="fill-opacity:1.0;fill:url(#linearGradient_41);fill-rule:nonzero">
               <path d="M 7.383,-139.794 C 7.383,-139.794 10.921,-185.269 38.71,-203.458 C 66.499,-221.647 83.173,-215.584 83.173,-215.584 C 83.173,-215.584 96.815,-185.773 125.11,-166.573 C 125.11,-166.573 76.1,-166.06799999999998 55.889,-146.363 C 35.678000000000004,-126.658 33.152,-117.058 33.152,-117.058 C 33.152,-117.058 25.067,-141.815 7.383,-139.794 Z" id="path_42" inkscape:label="Path 1" style="fill-opacity:1.0;fill:url(#linearGradient_43);fill-rule:nonzero"/>
            </g>
         </g>
         <g id="Group_12" inkscape:label="Group 12" transform="matrix(1.0, 0.0, 0.0, 1.0, 0.0, 0.0)" style="">
            <g id="g_44" inkscape:label="Group 8" transform="matrix(1.0, 0.0, 0.0, 1.0, 0.0, 0.0)" style="fill-opacity:1.0;fill:rgb(175, 0, 0);fill-rule:nonzero;stroke:rgb(153, 0, 0);stroke-opacity:1.0;stroke-width:9.0;stroke-miterlimit:0;stroke-linecap:round;stroke-linejoin:round">
               <path d="M -28.724,-77.839 C -28.724,-77.839 -4.781,-64.739 -4.781,-64.739 C -4.781,-64.739 -11.226,-110.177 -16.14,-159.239 C -21.054000000000002,-208.301 -79.525,-242.814 -113.539,-206.771 C -113.539,-206.771 -130.393,-150.668 -148.939,-120.908 C -148.939,-120.908 -123.804,-155.14700000000002 -89.162,-151.199 C -54.52,-147.251 -28.724,-77.839 -28.724,-77.839 Z" id="path_45" inkscape:label="Path 1" style="fill-opacity:1.0;fill:rgb(175, 0, 0);fill-rule:nonzero"/>
            </g>
            <g id="Group_7" inkscape:label="Group 7" transform="matrix(1.0, 0.0, 0.0, 1.0, 0.0, 0.0)" style="fill-opacity:1.0;fill:rgb(255, 11, 11);fill-rule:nonzero;stroke:rgb(153, 0, 0);stroke-opacity:1.0;stroke-width:9.0;stroke-miterlimit:0;stroke-linecap:round;stroke-linejoin:round">
               <path d="M -4.781,-64.739 C -4.781,-64.739 -12.209000000000003,-81.544 -46.158,-110.402 C -80.107,-139.26 -132.584,-154.58299999999997 -113.539,-206.771 C -113.539,-206.771 -146.441,-136.94 -172.334,-109.001 C -172.334,-109.001 -165.019,-74.73 -119.405,-67.431 C -73.791,-60.132 -54.778,-79.869 -4.781,-64.739 Z" id="path_46" inkscape:label="Path 1" style="fill-opacity:1.0;fill:rgb(255, 11, 11);fill-rule:nonzero"/>
            </g>
            <g id="g_47" inkscape:label="Group 1" transform="matrix(1.0, 0.0, 0.0, 1.0, 0.0, 0.0)" style="fill-opacity:1.0;fill:url(#linearGradient_48);fill-rule:nonzero">
               <path d="M -158.343,-100.384 C -158.343,-100.384 -129.038,-116.55199999999999 -117.417,-155.963 C -117.417,-155.963 -100.238,-130.19400000000002 -65.375,-114.531 C -65.375,-114.531 -100.238,-102.405 -105.796,-74.11 C -105.796,-74.11 -145.206,-75.626 -158.343,-100.384 Z" id="path_49" inkscape:label="Path 1" style="fill-opacity:1.0;fill:url(#linearGradient_50);fill-rule:nonzero"/>
            </g>
         </g>
         <g id="g_51" inkscape:label="Group 10" transform="matrix(1.0, 0.0, 0.0, 1.0, 0.0, 0.0)" style="">
            <g id="Group_5" inkscape:label="Group 5" transform="matrix(1.0, 0.0, 0.0, 1.0, 0.0, 0.0)" style="fill-opacity:1.0;fill:rgb(255, 11, 11);fill-rule:nonzero;stroke:rgb(153, 0, 0);stroke-opacity:1.0;stroke-width:9.0;stroke-miterlimit:0;stroke-linecap:round;stroke-linejoin:round">
               <path d="M 5.524,-54.275 C 5.524,-54.275 36.104,-45.769 53,-23.926 C 69.896,-2.0829999999999984 113.78,8.21 113.78,8.21 C 113.78,8.21 122.34100000000001,-27.485 143.864,-36.865 C 143.864,-36.865 116.18799999999999,-34.95 94.213,-47.445 C 72.238,-59.94 13.441,-67.897 -4.551,-60.198 C -4.551,-60.198 5.524,-54.275 5.524,-54.275 Z" id="path_52" inkscape:label="Path 1" style="fill-opacity:1.0;fill:rgb(255, 11, 11);fill-rule:nonzero"/>
            </g>
            <g id="g_53" inkscape:label="Group 6" transform="matrix(1.0, 0.0, 0.0, 1.0, 0.0, 0.0)" style="fill-opacity:1.0;fill:rgb(255, 11, 11);fill-rule:nonzero;stroke:rgb(153, 0, 0);stroke-opacity:1.0;stroke-width:9.0;stroke-miterlimit:0;stroke-linecap:round;stroke-linejoin:round">
               <path d="M 0.738,-61.761 C 0.738,-61.761 -31.663999999999998,-59.980999999999995 -48.413,-28.473 C -65.16199999999999,3.035 -69.225,10.267 -69.225,10.267 C -69.225,10.267 -90.199,-15.408000000000001 -122.214,-17.027 C -154.22899999999998,-18.646 -165.852,-17.943 -165.852,-17.943 C -165.852,-17.943 -128.83100000000002,-35.397999999999996 -85.34,-54.547 C -41.849000000000004,-73.696 -7.862,-69.828 -7.862,-69.828 C -7.862,-69.828 0.738,-61.761 0.738,-61.761 Z" id="path_54" inkscape:label="Path 1" style="fill-opacity:1.0;fill:rgb(255, 11, 11);fill-rule:nonzero"/>
            </g>
            <g id="g_55" inkscape:label="Group 3" transform="matrix(1.0, 0.0, 0.0, 1.0, 0.0, 0.0)" style="fill-opacity:1.0;fill:rgb(255, 11, 11);fill-rule:nonzero;stroke:rgb(153, 0, 0);stroke-opacity:1.0;stroke-width:9.0;stroke-miterlimit:0;stroke-linecap:round;stroke-linejoin:round">
               <path d="M -2.756,-85.385 C -2.756,-85.385 -7.417999999999999,-68.273 16.584,-50.592 C 16.584,-50.592 11.132,-39.367000000000004 -13.606,-52.945 C -13.606,-52.945 -19.901,-57.596 -15.808,-78.08 C -15.808,-78.08 -15.356,-83.87100000000001 -2.756,-85.385 Z" id="path_56" inkscape:label="Path 1" style="fill-opacity:1.0;fill:rgb(255, 11, 11);fill-rule:nonzero"/>
            </g>
         </g>
      </g>
   </g>
</svg>
