<?xml version="1.0" ?>
<svg xmlns:inkscape="http://www.inkscape.org/namespaces/inkscape" xmlns:sodipodi="http://sodipodi.sourceforge.net/DTD/sodipodi-0.dtd" xmlns="http://www.w3.org/2000/svg" width="512" height="512" viewBox="0 0 512 512" version="1.1" id="svg_1" sodipodi:docname="30" inkscape:export-xdpi="96" inkscape:export-ydpi="96" style="fill: none; stroke: none">
   <defs>
      <linearGradient x1="-0.828" y1="-73.301" x2="-0.828" y2="171.564" id="linearGradient_2" inkscape:label="3-00100101001" gradientUnits="userSpaceOnUse">
         <stop offset="0%" stop-color="rgb(153, 153, 194)" stop-opacity="1"/>
         <stop offset="52.5%" stop-color="rgb(112, 112, 175)" stop-opacity="1"/>
         <stop offset="100%" stop-color="rgb(71, 71, 157)" stop-opacity="1"/>
      </linearGradient>
      <linearGradient x1="-0.828" y1="-73.301" x2="-0.828" y2="171.564" id="linearGradient_3" inkscape:label="3-00100101001" gradientUnits="userSpaceOnUse">
         <stop offset="0%" stop-color="rgb(153, 153, 194)" stop-opacity="1"/>
         <stop offset="52.5%" stop-color="rgb(112, 112, 175)" stop-opacity="1"/>
         <stop offset="100%" stop-color="rgb(71, 71, 157)" stop-opacity="1"/>
      </linearGradient>
      <radialGradient cx="2.922" cy="944.199" r="555.1856610405207" fx="2.922" fy="944.199" id="radialGradient_4" inkscape:label="30000102810001001010" gradientUnits="userSpaceOnUse">
         <stop offset="0%" stop-color="rgb(255, 255, 255)" stop-opacity="1"/>
         <stop offset="12.5%" stop-color="rgb(253, 255, 128)" stop-opacity="0.875"/>
         <stop offset="25.0%" stop-color="rgb(252, 255, 0)" stop-opacity="0.75"/>
         <stop offset="37.6%" stop-color="rgb(253, 128, 0)" stop-opacity="0.375"/>
         <stop offset="50.0%" stop-color="rgb(255, 0, 0)" stop-opacity="0"/>
      </radialGradient>
      <radialGradient cx="2.922" cy="944.199" r="555.1856610405207" fx="2.922" fy="944.199" id="radialGradient_6" inkscape:label="30000102810001001010" gradientUnits="userSpaceOnUse">
         <stop offset="0%" stop-color="rgb(255, 255, 255)" stop-opacity="1"/>
         <stop offset="12.5%" stop-color="rgb(253, 255, 128)" stop-opacity="0.875"/>
         <stop offset="25.0%" stop-color="rgb(252, 255, 0)" stop-opacity="0.75"/>
         <stop offset="37.6%" stop-color="rgb(253, 128, 0)" stop-opacity="0.375"/>
         <stop offset="50.0%" stop-color="rgb(255, 0, 0)" stop-opacity="0"/>
      </radialGradient>
      <linearGradient x1="-0.86" y1="63.779" x2="-0.86" y2="-25.155" id="linearGradient_7" inkscape:label="300821767547323234" gradientUnits="userSpaceOnUse">
         <stop offset="31.1%" stop-color="rgb(0, 0, 123)" stop-opacity="0"/>
         <stop offset="72.3%" stop-color="rgb(0, 0, 123)" stop-opacity="0.5"/>
         <stop offset="100%" stop-color="rgb(0, 0, 123)" stop-opacity="1"/>
      </linearGradient>
      <linearGradient x1="-0.86" y1="63.779" x2="-0.86" y2="-25.155" id="linearGradient_9" inkscape:label="300821767547323234" gradientUnits="userSpaceOnUse">
         <stop offset="31.1%" stop-color="rgb(0, 0, 123)" stop-opacity="0"/>
         <stop offset="72.3%" stop-color="rgb(0, 0, 123)" stop-opacity="0.5"/>
         <stop offset="100%" stop-color="rgb(0, 0, 123)" stop-opacity="1"/>
      </linearGradient>
      <linearGradient x1="-0.828" y1="202.838" x2="-0.828" y2="-203.76" id="linearGradient_11" inkscape:label="30891276812467881231412123" gradientUnits="userSpaceOnUse">
         <stop offset="0%" stop-color="rgb(234, 255, 255)" stop-opacity="0"/>
         <stop offset="51.4%" stop-color="rgb(234, 255, 255)" stop-opacity="0.5"/>
         <stop offset="100%" stop-color="rgb(234, 255, 255)" stop-opacity="1"/>
      </linearGradient>
      <linearGradient x1="-0.827" y1="90.808" x2="-0.827" y2="-70.22" id="linearGradient_12" inkscape:label="30poqwesytaddfsdgs" gradientUnits="userSpaceOnUse">
         <stop offset="0%" stop-color="rgb(0, 0, 76)" stop-opacity="1"/>
         <stop offset="52.5%" stop-color="rgb(0, 0, 80)" stop-opacity="0.5"/>
         <stop offset="83.6%" stop-color="rgb(0, 0, 84)" stop-opacity="0"/>
      </linearGradient>
      <linearGradient x1="-0.827" y1="90.808" x2="-0.827" y2="-70.22" id="linearGradient_14" inkscape:label="30poqwesytaddfsdgs" gradientUnits="userSpaceOnUse">
         <stop offset="0%" stop-color="rgb(0, 0, 76)" stop-opacity="1"/>
         <stop offset="52.5%" stop-color="rgb(0, 0, 80)" stop-opacity="0.5"/>
         <stop offset="83.6%" stop-color="rgb(0, 0, 84)" stop-opacity="0"/>
      </linearGradient>
      <linearGradient x1="-0.828" y1="73.936" x2="-0.828" y2="-25.419" id="linearGradient_15" inkscape:label="30[][sa];lfd,/.sdggds" gradientUnits="userSpaceOnUse">
         <stop offset="26.900000000000002%" stop-color="rgb(153, 153, 194)" stop-opacity="1"/>
         <stop offset="65.3%" stop-color="rgb(112, 112, 175)" stop-opacity="1"/>
         <stop offset="100%" stop-color="rgb(71, 71, 157)" stop-opacity="1"/>
      </linearGradient>
      <linearGradient x1="-0.828" y1="73.936" x2="-0.828" y2="-25.419" id="linearGradient_16" inkscape:label="30[][sa];lfd,/.sdggds" gradientUnits="userSpaceOnUse">
         <stop offset="26.900000000000002%" stop-color="rgb(153, 153, 194)" stop-opacity="1"/>
         <stop offset="65.3%" stop-color="rgb(112, 112, 175)" stop-opacity="1"/>
         <stop offset="100%" stop-color="rgb(71, 71, 157)" stop-opacity="1"/>
      </linearGradient>
      <linearGradient x1="-4.053" y1="34.098" x2="32.447" y2="-51.141" id="linearGradient_18" inkscape:label="30posdfsdg" gradientUnits="userSpaceOnUse">
         <stop offset="19.8%" stop-color="rgb(234, 255, 255)" stop-opacity="0"/>
         <stop offset="61.0%" stop-color="rgb(234, 255, 255)" stop-opacity="0.5"/>
         <stop offset="100%" stop-color="rgb(234, 255, 255)" stop-opacity="1"/>
      </linearGradient>
      <linearGradient x1="-0.269" y1="57.098" x2="-0.269" y2="-58.162" id="linearGradient_21" inkscape:label="30iosdfhkdshjg" gradientUnits="userSpaceOnUse">
         <stop offset="19.8%" stop-color="rgb(234, 255, 255)" stop-opacity="0"/>
         <stop offset="61.0%" stop-color="rgb(234, 255, 255)" stop-opacity="0.5"/>
         <stop offset="100%" stop-color="rgb(234, 255, 255)" stop-opacity="1"/>
      </linearGradient>
      <linearGradient x1="-0.828" y1="205.699" x2="-0.828" y2="-207.176" id="linearGradient_23" inkscape:label="30ishdfsjkdsdg" gradientUnits="userSpaceOnUse">
         <stop offset="26.8%" stop-color="rgb(24, 25, 72)" stop-opacity="1"/>
         <stop offset="64.60000000000001%" stop-color="rgb(29, 48, 82)" stop-opacity="1"/>
         <stop offset="100%" stop-color="rgb(34, 72, 92)" stop-opacity="1"/>
      </linearGradient>
      <linearGradient x1="-9.305" y1="383.73" x2="-6.781" y2="262.927" id="linearGradient_25" inkscape:label="30fiixifixi" gradientUnits="userSpaceOnUse">
         <stop offset="0%" stop-color="rgb(255, 252, 169)" stop-opacity="1"/>
         <stop offset="12.5%" stop-color="rgb(253, 253, 84)" stop-opacity="0.875"/>
         <stop offset="25.0%" stop-color="rgb(252, 255, 0)" stop-opacity="0.75"/>
         <stop offset="37.6%" stop-color="rgb(253, 128, 0)" stop-opacity="0.375"/>
         <stop offset="50.0%" stop-color="rgb(255, 0, 0)" stop-opacity="0"/>
         <stop offset="76.2%" stop-color="rgb(148, 33, 45)" stop-opacity="0"/>
         <stop offset="100%" stop-color="rgb(41, 67, 89)" stop-opacity="0"/>
      </linearGradient>
      <linearGradient x1="-0.558" y1="26.983" x2="-2.351" y2="-57.295" id="linearGradient_27" inkscape:label="30banana" gradientUnits="userSpaceOnUse">
         <stop offset="17.9%" stop-color="rgb(223, 221, 255)" stop-opacity="1"/>
         <stop offset="52.400000000000006%" stop-color="rgb(239, 238, 255)" stop-opacity="1"/>
         <stop offset="95.39999999999999%" stop-color="rgb(255, 255, 255)" stop-opacity="1"/>
      </linearGradient>
      <linearGradient x1="-0.558" y1="26.983" x2="-2.351" y2="-57.295" id="linearGradient_29" inkscape:label="30banana" gradientUnits="userSpaceOnUse">
         <stop offset="17.9%" stop-color="rgb(223, 221, 255)" stop-opacity="1"/>
         <stop offset="52.400000000000006%" stop-color="rgb(239, 238, 255)" stop-opacity="1"/>
         <stop offset="95.39999999999999%" stop-color="rgb(255, 255, 255)" stop-opacity="1"/>
      </linearGradient>
      <linearGradient x1="-64.245" y1="-83.02" x2="18.105" y2="18.645" id="linearGradient_34" inkscape:label="30bnone" gradientUnits="userSpaceOnUse">
         <stop offset="43.3%" stop-color="rgb(182, 174, 204)" stop-opacity="1"/>
         <stop offset="67.30000000000001%" stop-color="rgb(162, 151, 198)" stop-opacity="1"/>
         <stop offset="92.9%" stop-color="rgb(143, 129, 193)" stop-opacity="1"/>
      </linearGradient>
      <linearGradient x1="-0.826" y1="-53.804" x2="-0.826" y2="129.95" id="linearGradient_36" inkscape:label="30xoijdgsgd" gradientUnits="userSpaceOnUse">
         <stop offset="0%" stop-color="rgb(219, 240, 72)" stop-opacity="1"/>
         <stop offset="19.900000000000002%" stop-color="rgb(201, 228, 48)" stop-opacity="1"/>
         <stop offset="39.7%" stop-color="rgb(183, 217, 24)" stop-opacity="1"/>
         <stop offset="71.2%" stop-color="rgb(143, 181, 18)" stop-opacity="1"/>
         <stop offset="100%" stop-color="rgb(102, 145, 12)" stop-opacity="1"/>
      </linearGradient>
      <linearGradient x1="-0.826" y1="-53.804" x2="-0.826" y2="129.95" id="linearGradient_38" inkscape:label="30xoijdgsgd" gradientUnits="userSpaceOnUse">
         <stop offset="0%" stop-color="rgb(219, 240, 72)" stop-opacity="1"/>
         <stop offset="19.900000000000002%" stop-color="rgb(201, 228, 48)" stop-opacity="1"/>
         <stop offset="39.7%" stop-color="rgb(183, 217, 24)" stop-opacity="1"/>
         <stop offset="71.2%" stop-color="rgb(143, 181, 18)" stop-opacity="1"/>
         <stop offset="100%" stop-color="rgb(102, 145, 12)" stop-opacity="1"/>
      </linearGradient>
      <linearGradient x1="-0.311" y1="16.566" x2="-0.311" y2="-18.523" id="linearGradient_40" inkscape:label="30xoxoxf" gradientUnits="userSpaceOnUse">
         <stop offset="6.1%" stop-color="rgb(255, 255, 255)" stop-opacity="1"/>
         <stop offset="58.8%" stop-color="rgb(255, 255, 255)" stop-opacity="0.5"/>
         <stop offset="100%" stop-color="rgb(255, 255, 255)" stop-opacity="0"/>
      </linearGradient>
      <linearGradient x1="-0.032" y1="33.356" x2="-0.032" y2="-33.774" id="linearGradient_42" inkscape:label="30xnxxx" gradientUnits="userSpaceOnUse">
         <stop offset="6.1%" stop-color="rgb(255, 255, 255)" stop-opacity="1"/>
         <stop offset="58.8%" stop-color="rgb(255, 255, 255)" stop-opacity="0.5"/>
         <stop offset="100%" stop-color="rgb(255, 255, 255)" stop-opacity="0"/>
      </linearGradient>
      <linearGradient x1="-0.725" y1="56.38" x2="-0.725" y2="-58.022" id="linearGradient_44" inkscape:label="30xx" gradientUnits="userSpaceOnUse">
         <stop offset="0%" stop-color="rgb(255, 255, 255)" stop-opacity="0"/>
         <stop offset="41.199999999999996%" stop-color="rgb(255, 255, 255)" stop-opacity="0.5"/>
         <stop offset="93.89999999999999%" stop-color="rgb(255, 255, 255)" stop-opacity="1"/>
      </linearGradient>
      <linearGradient x1="-0.826" y1="144.196" x2="-0.826" y2="-145.233" id="linearGradient_47" inkscape:label="30xxxx" gradientUnits="userSpaceOnUse">
         <stop offset="41.0%" stop-color="rgb(45, 79, 18)" stop-opacity="1"/>
         <stop offset="56.89999999999999%" stop-color="rgb(84, 121, 9)" stop-opacity="1"/>
         <stop offset="85.1%" stop-color="rgb(124, 164, 0)" stop-opacity="1"/>
      </linearGradient>
      <linearGradient x1="-3.335" y1="23.885" x2="7.504" y2="-37.812" id="linearGradient_60" inkscape:label="poekrwlsjfn,dj30" gradientUnits="userSpaceOnUse">
         <stop offset="0%" stop-color="rgb(250, 238, 255)" stop-opacity="1"/>
         <stop offset="34.4%" stop-color="rgb(252, 247, 255)" stop-opacity="1"/>
         <stop offset="77.4%" stop-color="rgb(255, 255, 255)" stop-opacity="1"/>
      </linearGradient>
      <linearGradient x1="-3.335" y1="23.885" x2="7.504" y2="-37.812" id="linearGradient_62" inkscape:label="poekrwlsjfn,dj30" gradientUnits="userSpaceOnUse">
         <stop offset="0%" stop-color="rgb(250, 238, 255)" stop-opacity="1"/>
         <stop offset="34.4%" stop-color="rgb(252, 247, 255)" stop-opacity="1"/>
         <stop offset="77.4%" stop-color="rgb(255, 255, 255)" stop-opacity="1"/>
      </linearGradient>
      <linearGradient x1="-485.969" y1="797.348" x2="-522.655" y2="839.485" id="podkfsligein30" inkscape:label="podkfsligein30" gradientUnits="userSpaceOnUse">
         <stop offset="0%" stop-color="rgb(255, 135, 0)" stop-opacity="1"/>
         <stop offset="49.9%" stop-color="rgb(255, 99, 0)" stop-opacity="1"/>
         <stop offset="99.9%" stop-color="rgb(255, 64, 0)" stop-opacity="1"/>
      </linearGradient>
      <linearGradient x1="-485.969" y1="797.348" x2="-522.655" y2="839.485" id="linearGradient_66" inkscape:label="podkfsligein30" gradientUnits="userSpaceOnUse">
         <stop offset="0%" stop-color="rgb(255, 135, 0)" stop-opacity="1"/>
         <stop offset="49.9%" stop-color="rgb(255, 99, 0)" stop-opacity="1"/>
         <stop offset="99.9%" stop-color="rgb(255, 64, 0)" stop-opacity="1"/>
      </linearGradient>
      <linearGradient x1="-481.955" y1="806.338" x2="-523.46" y2="824.47" id="linearGradient_68" inkscape:label="30poerofsdgsd545" gradientUnits="userSpaceOnUse">
         <stop offset="0.1%" stop-color="rgb(0, 49, 45)" stop-opacity="1"/>
         <stop offset="50.0%" stop-color="rgb(0, 24, 22)" stop-opacity="1"/>
         <stop offset="100%" stop-color="rgb(0, 0, 0)" stop-opacity="1"/>
      </linearGradient>
      <linearGradient x1="-481.955" y1="806.338" x2="-523.46" y2="824.47" id="linearGradient_70" inkscape:label="30poerofsdgsd545" gradientUnits="userSpaceOnUse">
         <stop offset="0.1%" stop-color="rgb(0, 49, 45)" stop-opacity="1"/>
         <stop offset="50.0%" stop-color="rgb(0, 24, 22)" stop-opacity="1"/>
         <stop offset="100%" stop-color="rgb(0, 0, 0)" stop-opacity="1"/>
      </linearGradient>
      <linearGradient x1="29.51" y1="-22.337" x2="-29.928" y2="22.923" id="linearGradient_79" inkscape:label="30poepokroskofsdgg" gradientUnits="userSpaceOnUse">
         <stop offset="0%" stop-color="rgb(255, 255, 255)" stop-opacity="1"/>
         <stop offset="54.0%" stop-color="rgb(255, 255, 255)" stop-opacity="0.5"/>
         <stop offset="100%" stop-color="rgb(255, 255, 255)" stop-opacity="0"/>
      </linearGradient>
      <linearGradient x1="29.51" y1="-22.337" x2="-29.928" y2="22.923" id="linearGradient_81" inkscape:label="30poepokroskofsdgg" gradientUnits="userSpaceOnUse">
         <stop offset="0%" stop-color="rgb(255, 255, 255)" stop-opacity="1"/>
         <stop offset="54.0%" stop-color="rgb(255, 255, 255)" stop-opacity="0.5"/>
         <stop offset="100%" stop-color="rgb(255, 255, 255)" stop-opacity="0"/>
      </linearGradient>
      <linearGradient x1="-0.828" y1="73.936" x2="-0.828" y2="-25.419" id="linearGradient_85" inkscape:label="30poeporeosijt" gradientUnits="userSpaceOnUse">
         <stop offset="26.900000000000002%" stop-color="rgb(153, 153, 194)" stop-opacity="1"/>
         <stop offset="65.3%" stop-color="rgb(112, 112, 175)" stop-opacity="1"/>
         <stop offset="100%" stop-color="rgb(71, 71, 157)" stop-opacity="1"/>
      </linearGradient>
      <linearGradient x1="-0.828" y1="73.936" x2="-0.828" y2="-25.419" id="linearGradient_87" inkscape:label="30poeporeosijt" gradientUnits="userSpaceOnUse">
         <stop offset="26.900000000000002%" stop-color="rgb(153, 153, 194)" stop-opacity="1"/>
         <stop offset="65.3%" stop-color="rgb(112, 112, 175)" stop-opacity="1"/>
         <stop offset="100%" stop-color="rgb(71, 71, 157)" stop-opacity="1"/>
      </linearGradient>
      <linearGradient x1="-0.826" y1="144.196" x2="-0.826" y2="-145.233" id="linearGradient_92" inkscape:label="30psoaijfoidg" gradientUnits="userSpaceOnUse">
         <stop offset="41.0%" stop-color="rgb(45, 79, 18)" stop-opacity="1"/>
         <stop offset="56.89999999999999%" stop-color="rgb(84, 121, 9)" stop-opacity="1"/>
         <stop offset="85.1%" stop-color="rgb(124, 164, 0)" stop-opacity="1"/>
      </linearGradient>
   </defs>
   <sodipodi:namedview inkscape:pagecheckerboard="true" borderlayer="true" bordercolor="#666666" pagecolor="#ffffff"/>
   <g inkscape:groupmode="layer" id="cauldronremaster" inkscape:label="cauldronremaster" transform="matrix(0.95, 0.0, 0.0, 0.95, 256.0, 256.0)" opacity="1">
      <g inkscape:groupmode="layer" id="CL" inkscape:label="CL" transform="matrix(1.0, 0.0, 0.0, 1.0, 188.625, 255.0)" opacity="1">
         <g inkscape:groupmode="layer" id="CR" inkscape:label="CR" transform="matrix(1.0, 0.0, 0.0, 1.0, -371.5, 0.0)" opacity="1">
            <g inkscape:groupmode="layer" id="cauldron" inkscape:label="cauldron" transform="matrix(1.0, 0.0, 0.0, 1.0, -73.12499999999997, -511.0)" style="">
               <g id="Group_9" inkscape:label="Group 9" transform="matrix(1.0, 0.0, 0.0, 1.0, 260.828, 305.301)" style="fill-opacity:1.0;fill:url(#linearGradient_2);fill-rule:nonzero">
                  <path d="M 230.87,10.35 C 230.87,-24.184999999999995 220.106,-56.602999999999994 201.263,-84.689 C 219.147,-95.53999999999999 229.322,-107.993 229.322,-121.237 C 229.322,-163.321 126.651,-197.438 0,-197.438 C -126.651,-197.438 -229.322,-163.321 -229.322,-121.237 C -229.322,-107.993 -219.147,-95.53999999999999 -201.263,-84.689 C -220.106,-56.60399999999999 -230.87,-24.184999999999995 -230.87,10.35 C -230.87,56.09 -212.0,98.122 -180.458,131.279 C -186.323,151.099 -196.265,189.705 -186.921,196.31 C -177.658,202.858 -151.036,179.31799999999998 -137.386,166.183 C -108.074,184.441 -42.389,196.824 0,196.824 C 42.447,196.824 108.14999999999999,184.416 137.492,166.118 C 151.12199999999999,179.24 177.817,202.869 187.095,196.31 C 196.461,189.69 186.45000000000002,150.91799999999998 180.591,131.14 C 212.054,98.005 230.87,56.026 230.87,10.35 Z" id="Path_1" inkscape:label="Path 1" style="fill-opacity:1.0;fill:url(#linearGradient_3);fill-rule:nonzero"/>
               </g>
               <g id="heat" inkscape:label="heat" transform="matrix(1.0, 0.0, 0.0, 0.5, 260.828, 305.301)" opacity="0.0" style="fill-opacity:1.0;fill:url(#radialGradient_4);fill-rule:nonzero">
                  <path d="M 230.87,17.737 C 230.87,-50.21300000000001 220.106,-113.999 201.263,-169.26 C 219.147,-190.60999999999999 229.322,-215.113 229.322,-241.172 C 229.322,-323.977 126.651,-391.102 0,-391.102 C -126.651,-391.102 -229.322,-323.977 -229.322,-241.172 C -229.322,-215.113 -219.147,-190.60999999999999 -201.263,-169.26 C -220.106,-113.999 -230.87,-50.21300000000001 -230.87,17.737 C -230.87,107.73299999999999 -212.0,190.437 -180.458,255.675 C -186.323,294.673 -196.265,370.63300000000004 -186.921,383.629 C -177.658,396.51300000000003 -151.036,350.19599999999997 -137.386,324.352 C -108.074,360.27599999999995 -42.389,384.641 0,384.641 C 42.447,384.641 108.14999999999999,360.227 137.492,324.224 C 151.12199999999999,350.043 177.817,396.534 187.095,383.629 C 196.461,370.603 186.45000000000002,294.317 180.591,255.402 C 212.054,190.206 230.87,107.60799999999999 230.87,17.737 Z" id="path_5" inkscape:label="Path 1" style="fill-opacity:1.0;fill:url(#radialGradient_6);fill-rule:nonzero"/>
               </g>
               <g id="Group_8" inkscape:label="Group 8" transform="matrix(1.0, 0.0, 0.0, 1.0, 260.86, 272.221)" opacity="0.3" style="fill-opacity:1.0;fill:url(#linearGradient_7);fill-rule:nonzero">
                  <path d="M 230.834,43.426 C 230.834,55.569 235.29,116.47 180.559,164.221 C 246.392,92.662 155.161,-3.049 3.524,-3.049 C -141.947,-3.049 -251.774,43.42500000000001 -180.49,164.359 C -181.723,156.263 -229.35500000000002,135.834 -230.901,43.426 C -231.479,8.901000000000003 -220.137,-23.526999999999997 -201.299,-51.604 C -219.17600000000002,-62.461 -229.358,-74.911 -229.358,-88.153 C -229.358,-130.244 -126.68400000000001,-164.359 -0.028,-164.359 C 126.618,-164.359 229.291,-130.244 229.291,-88.153 C 229.291,-74.911 219.12,-62.461 201.233,-51.604 C 220.071,-23.526999999999997 230.834,8.896 230.834,43.426 Z" id="path_8" inkscape:label="Path 1" style="fill-opacity:1.0;fill:url(#linearGradient_9);fill-rule:nonzero"/>
               </g>
               <g id="Group_7" inkscape:label="Group 7" transform="matrix(1.0, 0.0, 0.0, 1.0, 260.828, 302.162)" opacity="0.6" style="stroke:url(#linearGradient_11);stroke-opacity:1.0;stroke-width:18.0;stroke-miterlimit:0;stroke-linecap:round;stroke-linejoin:round">
                  <path d="M 174.832,194.299 C 183.584,187.76500000000001 174.23,149.501 168.755,129.982 C 198.156,97.28 213.739,55.849000000000004 213.739,10.771 C 213.739,-23.311999999999998 198.829,-58.275999999999996 181.221,-85.994 C 197.933,-96.703 214.292,-106.024 214.292,-119.095 C 214.292,-160.629 118.35,-194.299 0,-194.299 C -118.35,-194.299 -214.292,-160.629 -214.292,-119.095 C -214.292,-106.024 -197.933,-96.703 -181.221,-85.994 C -198.829,-58.275999999999996 -213.74,-23.311999999999998 -213.74,10.771 C -213.74,55.912 -198.106,97.395 -168.631,130.118 C -174.111,149.679 -183.40099999999998,187.781 -174.67,194.299 " id="path_10" inkscape:label="Path 1" style=""/>
               </g>
               <g id="sahed" inkscape:label="sahed" transform="matrix(1.0, 0.0, 0.0, 1.0, 260.827, 409.192)" opacity="0.4" style="fill-opacity:1.0;fill:url(#linearGradient_12);fill-rule:nonzero">
                  <path d="M 180.593,27.246 C 186.45499999999998,47.03 196.462,85.796 187.096,92.417 C 177.818,98.979 151.118,75.354 137.492,62.231 C 108.154,80.527 42.445,92.933 0.005,92.933 C -42.382999999999996,92.933 -108.07,80.548 -137.385,62.291 C -151.031,75.42399999999999 -177.653,98.969 -186.922,92.417 C -196.268,85.816 -186.32,47.207 -180.458,27.384 C -212.001,-5.771000000000001 -213.29299999999998,-51.385000000000005 -230.867,-93.545 C -204.56199999999998,-30.441000000000003 -126.55,10.956 0.051,10.956 C 119.364,10.956 204.631,-30.510000000000005 230.867,-93.545 C 213.332,-51.415 212.058,-5.888999999999999 180.593,27.246 Z" id="path_13" inkscape:label="Path 1" style="fill-opacity:1.0;fill:url(#linearGradient_14);fill-rule:nonzero"/>
               </g>
               <g id="Group_5" inkscape:label="Group 5" transform="matrix(1.0, 0.0, 0.0, 1.0, 260.828, 184.064)" style="fill-opacity:1.0;fill:url(#linearGradient_15);fill-rule:nonzero">
                  <ellipse rx="229.3225" ry="76.2005" cx="0" cy="0" id="Ellipse_Path_1" inkscape:label="Ellipse Path 1" style="fill-opacity:1.0;fill:url(#linearGradient_16);fill-rule:nonzero"/>
               </g>
               <g id="Group_4" inkscape:label="Group 4" transform="matrix(1.0, 0.0, 0.0, 1.0, 435.448, 196.902)" opacity="0.8" style="stroke:url(#linearGradient_18);stroke-opacity:1.0;stroke-width:18.0;stroke-miterlimit:0;stroke-linecap:round;stroke-linejoin:round">
                  <path d="M 15.449,-48.63 C 15.449,-48.63 95.335,-3.936 -39.021,48.63 " id="path_17" inkscape:label="Path 1" style=""/>
               </g>
               <g id="Group_3" inkscape:label="Group 3" transform="matrix(1.0, 0.0, 0.0, 1.0, 260.828, 184.064)" style="stroke:rgb(87, 87, 163);stroke-opacity:1.0;stroke-width:18.0;stroke-miterlimit:0;stroke-linecap:round;stroke-linejoin:round">
                  <ellipse rx="229.3225" ry="76.2005" cx="0" cy="0" id="ellipse_19" inkscape:label="Ellipse Path 1" style=""/>
               </g>
               <g id="Group_2" inkscape:label="Group 2" transform="matrix(1.0, 0.0, 0.0, 1.0, 86.269, 196.902)" opacity="0.8" style="stroke:url(#linearGradient_21);stroke-opacity:1.0;stroke-width:18.0;stroke-miterlimit:0;stroke-linecap:round;stroke-linejoin:round">
                  <path d="M -15.449,-48.63 C -15.449,-48.63 -95.335,-3.936 39.021,48.63 " id="path_20" inkscape:label="Path 1" style=""/>
               </g>
               <g id="Group_1" inkscape:label="Group 1" transform="matrix(1.0, 0.0, 0.0, 1.0, 260.828, 305.301)" style="stroke:url(#linearGradient_23);stroke-opacity:1.0;stroke-width:18.0;stroke-miterlimit:0;stroke-linecap:round;stroke-linejoin:round">
                  <path d="M 230.87,10.35 C 230.87,-24.184999999999995 220.106,-56.602999999999994 201.263,-84.689 C 219.147,-95.53999999999999 229.322,-107.993 229.322,-121.237 C 229.322,-163.321 126.651,-197.438 0,-197.438 C -126.651,-197.438 -229.322,-163.321 -229.322,-121.237 C -229.322,-107.993 -219.147,-95.53999999999999 -201.263,-84.689 C -220.106,-56.60399999999999 -230.87,-24.184999999999995 -230.87,10.35 C -230.87,56.09 -212.0,98.122 -180.458,131.279 C -186.323,151.099 -196.265,189.705 -186.921,196.31 C -177.658,202.858 -151.036,179.31799999999998 -137.386,166.183 C -108.074,184.441 -42.389,196.824 0,196.824 C 42.447,196.824 108.14999999999999,184.416 137.492,166.118 C 151.12199999999999,179.24 177.817,202.869 187.095,196.31 C 196.461,189.69 186.45000000000002,150.91799999999998 180.591,131.14 C 212.054,98.005 230.87,56.026 230.87,10.35 Z" id="path_22" inkscape:label="Path 1" style=""/>
               </g>
               <g id="heatfeet" inkscape:label="heatfeet" transform="matrix(1.0, 0.0, 0.0, 1.0, 260.828, 305.301)" opacity="0.0" style="stroke:url(#linearGradient_25);stroke-opacity:1.0;stroke-width:18.0;stroke-miterlimit:0;stroke-linecap:round;stroke-linejoin:round">
                  <path d="M 230.87,10.35 C 230.87,-24.184999999999995 220.106,-56.602999999999994 201.263,-84.689 C 219.147,-95.53999999999999 229.322,-107.993 229.322,-121.237 C 229.322,-163.321 126.651,-197.438 0,-197.438 C -126.651,-197.438 -229.322,-163.321 -229.322,-121.237 C -229.322,-107.993 -219.147,-95.53999999999999 -201.263,-84.689 C -220.106,-56.60399999999999 -230.87,-24.184999999999995 -230.87,10.35 C -230.87,56.09 -212.0,98.122 -180.458,131.279 C -186.323,151.099 -196.265,189.705 -186.921,196.31 C -177.658,202.858 -151.036,179.31799999999998 -137.386,166.183 C -108.074,184.441 -42.389,196.824 0,196.824 C 42.447,196.824 108.14999999999999,184.416 137.492,166.118 C 151.12199999999999,179.24 177.817,202.869 187.095,196.31 C 196.461,189.69 186.45000000000002,150.91799999999998 180.591,131.14 C 212.054,98.005 230.87,56.026 230.87,10.35 Z" id="path_24" inkscape:label="Path 1" style=""/>
               </g>
               <g inkscape:groupmode="layer" id="bone" inkscape:label="bone" transform="matrix(1.0, 0.0, 0.0, 1.0, 0.0, 0.0)" style="">
                  <g id="g_26" inkscape:label="Group 3" transform="matrix(1.0, 0.0, 0.0, 1.0, 99.558, 100.017)" style="fill-opacity:1.0;fill:url(#linearGradient_27);fill-rule:nonzero">
                     <path d="M 80.943,61.095 C 80.943,61.095 33.797000000000004,8.527000000000001 4.825,-34.818 C 4.825,-34.818 30.977,-81.713 -4.279,-86.386 C -39.869,-91.103 -35.35,-58.93900000000001 -33.466,-45.825 C -33.466,-45.825 -77.553,-72.72 -80.797,-31.486 C -84.076,10.193000000000001 -30.863,-6.913 -30.863,-6.913 C -30.863,-6.913 18.814000000000004,51.249 43.624,86.854 C 43.624,86.854 80.943,61.095 80.943,61.095 Z" id="path_28" inkscape:label="Path 1" style="fill-opacity:1.0;fill:url(#linearGradient_29);fill-rule:nonzero"/>
                  </g>
                  <g id="g_30" inkscape:label="Group 2" transform="matrix(1.0, 0.0, 0.0, 1.0, 97.686, 95.476)" opacity="0.6" style="stroke:rgb(255, 255, 255);stroke-opacity:1.0;stroke-width:18.0;stroke-miterlimit:0;stroke-linecap:round;stroke-linejoin:round">
                     <path d="M 79.012,74.354 C 79.012,74.354 24.028,11.048000000000002 -2.928,-29.281 C -2.928,-29.281 19.108,-69.02799999999999 -1.461,-73.413 C -34.129999999999995,-80.377 -31.792,-46.836 -30.039,-34.635 C -30.039,-34.635 -75.994,-59.287000000000006 -79.012,-20.922 " id="path_31" inkscape:label="Path 1" style=""/>
                  </g>
                  <g id="g_32" inkscape:label="Group 1" transform="matrix(1.0, 0.0, 0.0, 1.0, 99.558, 100.017)" style="stroke:url(#linearGradient_34);stroke-opacity:1.0;stroke-width:18.0;stroke-miterlimit:0;stroke-linecap:round;stroke-linejoin:round">
                     <path d="M 80.943,61.095 C 80.943,61.095 33.797000000000004,8.527000000000001 4.825,-34.818 C 4.825,-34.818 30.977,-81.713 -4.279,-86.386 C -39.869,-91.103 -35.35,-58.93900000000001 -33.466,-45.825 C -33.466,-45.825 -77.553,-72.72 -80.797,-31.486 C -84.076,10.193000000000001 -30.863,-6.913 -30.863,-6.913 C -30.863,-6.913 18.814000000000004,51.249 43.624,86.854 " id="path_33" inkscape:label="Path 1" style=""/>
                  </g>
                  <g id="dark" inkscape:label="dark" transform="matrix(1.0, 0.0, 0.0, 1.0, 99.558, 100.017)" opacity="0.02" style="fill-opacity:1.0;fill:rgb(0, 0, 0);fill-rule:nonzero;stroke:rgb(0, 0, 0);stroke-opacity:1.0;stroke-width:18.0;stroke-miterlimit:0;stroke-linecap:round;stroke-linejoin:round">
                     <path d="M 80.943,61.095 C 80.943,61.095 33.797000000000004,8.527000000000001 4.825,-34.818 C 4.825,-34.818 30.977,-81.713 -4.279,-86.386 C -39.869,-91.103 -35.35,-58.93900000000001 -33.466,-45.825 C -33.466,-45.825 -77.553,-72.72 -80.797,-31.486 C -84.076,10.193000000000001 -30.863,-6.913 -30.863,-6.913 C -30.863,-6.913 18.814000000000004,51.249 43.624,86.854 " id="path_35" inkscape:label="Path 1" style="fill-opacity:1.0;fill:rgb(0, 0, 0);fill-rule:nonzero"/>
                  </g>
               </g>
               <g inkscape:groupmode="layer" id="goop" inkscape:label="goop" transform="matrix(1.0, 0.0, 0.0, 1.0, 0.0, 0.0)" style="">
                  <g id="fill" inkscape:label="fill" transform="matrix(1.0, 0.0, 0.0, 1.0, 260.826, 198.804)" style="fill-opacity:1.0;fill:url(#linearGradient_36);fill-rule:nonzero">
                     <path d="M 198.928,-52.547 C 200.073,-70.866 171.964,-77.798 167.203,-71.379 C 165.76500000000001,-92.456 129.128,-101.113 123.163,-93.503 C 102.923,-152.054 16.174,-147.304 2.944,-96.136 C -8.826,-118.054 -55.326,-113.304 -61.698,-96.806 C -88.826,-140.304 -150.326,-124.804 -152.807,-80.14 C -160.981,-95.086 -210.13199999999998,-72.315 -201.819,-42.566 C -198.411,-30.369000000000003 -193.576,-18.554000000000002 -164.926,-8.563 C -164.926,-8.563 -164.941,-8.565 -164.941,-8.565 C -140.95,12.137000000000002 -186.60500000000002,135.72 -135.536,135.715 C -100.643,135.71200000000002 -112.642,62.108 -107.484,46.635 C -102.326,31.162 -81.01100000000001,29.57099999999999 -81.921,64.085 C -83.13000000000001,109.90199999999999 -40.757,99.263 -45.111,67.211 C -50.116,30.366999999999997 -41.545,15.167 -41.545,15.167 C -41.545,15.167 -41.559,15.165 -41.559,15.165 C -28.144,15.985999999999999 -14.244,16.419 0.005,16.419 C 111.46199999999999,16.419 201.819,-9.986000000000004 201.819,-42.566 C 201.819,-45.963 200.82399999999998,-49.302 198.928,-52.547 Z" id="path_37" inkscape:label="Path 1" style="fill-opacity:1.0;fill:url(#linearGradient_38);fill-rule:nonzero"/>
                  </g>
                  <g id="light3" inkscape:label="light3" transform="matrix(1.0, 0.0, 0.0, 1.0, 197.311, 271.434)" opacity="0.3" style="stroke:url(#linearGradient_40);stroke-opacity:1.0;stroke-width:18.0;stroke-miterlimit:0;stroke-linecap:round;stroke-linejoin:round">
                     <path d="M -18.405,-8.545 C -18.405,-8.545 -3.8230000000000004,27.73 18.405,-5.419 " id="path_39" inkscape:label="Path 1" style=""/>
                  </g>
                  <g id="light2" inkscape:label="light2" transform="matrix(1.0, 0.0, 0.0, 1.0, 126.032, 294.644)" opacity="0.3" style="stroke:url(#linearGradient_42);stroke-opacity:1.0;stroke-width:18.0;stroke-miterlimit:0;stroke-linecap:round;stroke-linejoin:round">
                     <path d="M -25.594,-24.565 C -25.594,-24.565 -25.594,24.565 -1.099,24.565 C 18.943,24.565 25.594,-24.565 25.594,-24.565 " id="path_41" inkscape:label="Path 1" style=""/>
                  </g>
                  <g id="light1" inkscape:label="light1" transform="matrix(1.0, 0.0, 0.0, 1.0, 260.725, 128.62)" opacity="0.7" style="stroke:url(#linearGradient_44);stroke-opacity:1.0;stroke-width:18.0;stroke-miterlimit:0;stroke-linecap:round;stroke-linejoin:round">
                     <path d="M 186.65,48.201 C 195.851,24.875 182.17499999999998,10.845 169.701,12.592 C 166.742,13.006 163.866,13.199 161.262,14.293 C 157.478,0.5499999999999989 145.191,-9.523 130.606,-9.523 C 126.439,-9.523 122.46199999999999,-8.692 118.814,-7.197 C 109.669,-31.195999999999998 86.953,-48.201 60.359,-48.201 C 34.719,-48.201 15.643,-30.415999999999997 5.897,-7.775 C -5.834,-16.846 -16.47,-22.129 -28.58,-22.129 C -40.342,-22.129 -54.004000000000005,-15.727 -62.279,-8.426 C -70.414,-23.124000000000002 -85.78,-36.014 -103.41,-36.014 C -126.948,-36.014 -143.54999999999998,-14.383 -147.183,8.753 C -173.63,-2.083 -194.993,10.536000000000001 -188.482,46.167 " id="path_43" inkscape:label="Path 1" style=""/>
                  </g>
                  <g id="g_45" inkscape:label="Group 1" transform="matrix(1.0, 0.0, 0.0, 1.0, 260.826, 198.804)" style="stroke:url(#linearGradient_47);stroke-opacity:1.0;stroke-width:18.0;stroke-miterlimit:0;stroke-linecap:round;stroke-linejoin:round">
                     <path d="M 198.928,-52.547 C 200.073,-70.866 171.964,-77.798 167.203,-71.379 C 165.76500000000001,-92.456 129.128,-101.113 123.163,-93.503 C 102.923,-152.054 16.174,-147.304 2.944,-96.136 C -8.826,-118.054 -55.326,-113.304 -61.698,-96.806 C -88.826,-140.304 -150.326,-124.804 -152.807,-80.14 C -160.981,-95.086 -210.13199999999998,-72.315 -201.819,-42.566 C -198.411,-30.369000000000003 -193.576,-18.554000000000002 -164.926,-8.563 C -164.926,-8.563 -164.941,-8.565 -164.941,-8.565 C -140.95,12.137000000000002 -186.60500000000002,135.72 -135.536,135.715 C -100.643,135.71200000000002 -112.642,62.108 -107.484,46.635 C -102.326,31.162 -81.01100000000001,29.57099999999999 -81.921,64.085 C -83.13000000000001,109.90199999999999 -40.757,99.263 -45.111,67.211 C -50.116,30.366999999999997 -41.545,15.167 -41.545,15.167 C -41.545,15.167 -41.559,15.165 -41.559,15.165 C -28.144,15.985999999999999 -14.244,16.419 0.005,16.419 C 111.46199999999999,16.419 201.819,-9.986000000000004 201.819,-42.566 C 201.819,-45.963 200.82399999999998,-49.302 198.928,-52.547 Z" id="path_46" inkscape:label="Path 1" style=""/>
                  </g>
               </g>
               <g inkscape:groupmode="layer" id="goopdets" inkscape:label="goopdets" transform="matrix(1.0, 0.0, 0.0, 1.0, 0.0, 0.0)" style="">
                  <g id="g_48" inkscape:label="Group 2" transform="matrix(1.0, 0.0, 0.0, 1.0, 311.322, 128.067)" opacity="0.6" style="fill-opacity:1.0;fill:rgb(240, 255, 49);fill-rule:nonzero">
                     <path d="M 19.814,0 C 19.814,11.159 10.943,20.205 0,20.205 C -10.943,20.205 -19.814,11.159 -19.814,0 C -19.814,-11.159 -10.943,-20.205 0,-20.205 C 10.943,-20.205 19.814,-11.159 19.814,0 Z" id="path_49" inkscape:label="Path 1" style="fill-opacity:1.0;fill:rgb(240, 255, 49);fill-rule:nonzero"/>
                  </g>
               </g>
               <g inkscape:groupmode="layer" id="goopdets_2" inkscape:label="goopdets 2" transform="matrix(1.0, 0.0, 0.0, 1.0, 0.0, 0.0)" style="">
                  <g id="g_50" inkscape:label="Group 3" transform="matrix(1.0, 0.0, 0.0, 1.0, 226.813, 184.064)" opacity="0.6" style="fill-opacity:1.0;fill:rgb(240, 255, 49);fill-rule:nonzero">
                     <path d="M 10.097,0 C 10.097,5.687 5.577,10.296 0,10.296 C -5.577,10.296 -10.097,5.687 -10.097,0 C -10.097,-5.687 -5.577,-10.296 0,-10.296 C 5.577,-10.296 10.097,-5.687 10.097,0 Z" id="path_51" inkscape:label="Path 1" style="fill-opacity:1.0;fill:rgb(240, 255, 49);fill-rule:nonzero"/>
                  </g>
               </g>
               <g inkscape:groupmode="layer" id="goopdets_3" inkscape:label="goopdets 3" transform="matrix(1.0, 0.0, 0.0, 1.0, 0.0, 0.0)" style="">
                  <g id="g_52" inkscape:label="Group 4" transform="matrix(1.0, 0.0, 0.0, 1.0, 155.497, 204.902)" opacity="0.3" style="fill-opacity:1.0;fill:rgb(112, 167, 0);fill-rule:nonzero">
                     <path d="M 7.846,0 C 7.846,4.419 4.333,8.001 0,8.001 C -4.333,8.001 -7.846,4.419 -7.846,0 C -7.846,-4.419 -4.333,-8.001 0,-8.001 C 4.333,-8.001 7.846,-4.419 7.846,0 Z" id="path_53" inkscape:label="Path 1" style="fill-opacity:1.0;fill:rgb(112, 167, 0);fill-rule:nonzero"/>
                  </g>
               </g>
               <g inkscape:groupmode="layer" id="goopdets_4" inkscape:label="goopdets 4" transform="matrix(1.0, 0.0, 0.0, 1.0, 0.0, 0.0)" style="">
                  <g id="g_54" inkscape:label="Group 5" transform="matrix(1.0, 0.0, 0.0, 1.0, 204.833, 150.541)" opacity="0.3" style="fill-opacity:1.0;fill:rgb(112, 167, 0);fill-rule:nonzero">
                     <path d="M 14.405,0 C 14.405,8.112 7.955,14.689 0,14.689 C -7.955,14.689 -14.405,8.112 -14.405,0 C -14.405,-8.112 -7.955,-14.689 0,-14.689 C 7.955,-14.689 14.405,-8.112 14.405,0 Z" id="path_55" inkscape:label="Path 1" style="fill-opacity:1.0;fill:rgb(112, 167, 0);fill-rule:nonzero"/>
                  </g>
               </g>
               <g inkscape:groupmode="layer" id="goopdets_5" inkscape:label="goopdets 5" transform="matrix(1.0, 0.0, 0.0, 1.0, 0.0, 0.0)" style="">
                  <g id="Group_6" inkscape:label="Group 6" transform="matrix(1.0, 0.0, 0.0, 1.0, 385.109, 164.915)" opacity="0.3" style="fill-opacity:1.0;fill:rgb(112, 167, 0);fill-rule:nonzero">
                     <path d="M 14.569,0 C 14.569,8.205 8.046,14.856 0,14.856 C -8.046,14.856 -14.569,8.205 -14.569,0 C -14.569,-8.205 -8.046,-14.856 0,-14.856 C 8.046,-14.856 14.569,-8.205 14.569,0 Z" id="path_56" inkscape:label="Path 1" style="fill-opacity:1.0;fill:rgb(112, 167, 0);fill-rule:nonzero"/>
                  </g>
               </g>
               <g inkscape:groupmode="layer" id="goopdets_6" inkscape:label="goopdets 6" transform="matrix(1.0, 0.0, 0.0, 1.0, 0.0, 0.0)" style="">
                  <g id="g_57" inkscape:label="Group 7" transform="matrix(1.0, 0.0, 0.0, 1.0, 147.152, 145.949)" opacity="0.6" style="fill-opacity:1.0;fill:rgb(240, 255, 49);fill-rule:nonzero">
                     <path d="M 19.108,0 C 19.108,10.761 10.553,19.485 0,19.485 C -10.553,19.485 -19.108,10.761 -19.108,0 C -19.108,-10.761 -10.553,-19.485 0,-19.485 C 10.553,-19.485 19.108,-10.761 19.108,0 Z" id="path_58" inkscape:label="Path 1" style="fill-opacity:1.0;fill:rgb(240, 255, 49);fill-rule:nonzero"/>
                  </g>
               </g>
               <g inkscape:groupmode="layer" id="eyeball" inkscape:label="eyeball" transform="matrix(1.0, 0.0, 0.0, 1.0, 0.0, 0.0)" style="">
                  <g id="g_59" inkscape:label="Group 5" transform="matrix(1.0, 0.0, 0.0, 1.0, 306.335, 168.115)" style="fill-opacity:1.0;fill:url(#linearGradient_60);fill-rule:nonzero">
                     <path d="M 45.424,40.869 C 29.665,67.38499999999999 -28.083999999999996,75.88499999999999 -47.663,41.138 C -55.528,27.18 -60.691,10.777999999999999 -55.168,-6.337 C -46.422,-33.388999999999996 -23.869999999999997,-47.233000000000004 -0.528,-47.026 C -0.528,-47.026 0.566,-47.013 0.566,-47.013 C 0.566,-47.013 1.6,-46.977 1.6,-46.977 C 13.860999999999999,-46.43 26.232,-42.001000000000005 36.839,-33.584 C 37.592999999999996,-32.98800000000001 45.427,-25.337 45.427,-25.337 C 62.992000000000004,-4.609999999999999 59.22,21.883000000000003 45.378,40.822 " id="path_61" inkscape:label="Path 1" style="fill-opacity:1.0;fill:url(#linearGradient_62);fill-rule:nonzero"/>
                  </g>
                  <g id="g_63" inkscape:label="Group 4" transform="matrix(1.0, 0.0, 0.0, 1.0, 0.0, 0.0)" style="">
                     <g id="g_64" inkscape:label="Group 4" transform="matrix(1.0, 0.0, 0.0, 1.0, 299.331, 162.358)" style="fill-opacity:1.0;fill:url(#podkfsligein30);fill-rule:nonzero">
                        <path d="M 12.87,31.908 C -5.856,39.784 -26.798999999999996,31.883 -33.907,14.261 C -41.01499999999999,-3.3610000000000007 -31.595999999999997,-24.032 -12.87,-31.908 C 5.856,-39.784 26.798999999999996,-31.884 33.907,-14.262 C 41.01499999999999,3.3599999999999994 31.595999999999997,24.032 12.87,31.908 Z" id="path_65" inkscape:label="Path 1" style="fill-opacity:1.0;fill:url(#linearGradient_66);fill-rule:nonzero"/>
                     </g>
                     <g id="g_67" inkscape:label="Group 3" transform="matrix(1.0, 0.0, 0.0, 1.0, 298.149, 158.881)" style="fill-opacity:1.0;fill:url(#linearGradient_68);fill-rule:nonzero">
                        <path d="M 7.776,19.28 C -3.5389999999999997,24.039 -16.192999999999998,19.265 -20.488,8.617 C -24.783,-2.030999999999999 -19.091,-14.521 -7.776,-19.28 C 3.5389999999999997,-24.039 16.192999999999998,-19.265 20.488,-8.617 C 24.783,2.030999999999999 19.091,14.521 7.776,19.28 Z" id="path_69" inkscape:label="Path 1" style="fill-opacity:1.0;fill:url(#linearGradient_70);fill-rule:nonzero"/>
                     </g>
                  </g>
                  <g id="g_71" inkscape:label="Group 2" transform="matrix(1.0, 0.0, 0.0, 1.0, 305.103, 170.239)" opacity="0.6" style="stroke:rgb(255, 255, 255);stroke-opacity:1.0;stroke-width:18.0;stroke-miterlimit:0;stroke-linecap:round;stroke-linejoin:round">
                     <path d="M 41.915,39.307 C 16.116,42.506 -11.959,44.464 -41.384,44.902 C -41.384,44.902 -41.688,44.902 -41.688,44.902 C -41.688,44.902 -41.724,44.902 -41.724,44.902 C -41.724,44.902 -44.071999999999996,42.08 -44.705,41.216 C -53.864,28.712000000000003 -57.306,11.974 -51.589,-5.25 C -43.658,-29.189 -24.78,-42.605000000000004 -4.637,-44.636 C 9.984000000000002,-46.120000000000005 25.251,-41.608000000000004 37.475,-30.782 C 44.591,-24.469 49.225,-17.462 51.816,-10.2 C 51.816,-10.2 51.816,-10.188 51.816,-10.188 C 57.886,6.901999999999999 52.619,25.367000000000004 41.915,39.307 Z" id="path_72" inkscape:label="Path 1" style=""/>
                  </g>
                  <g id="g_73" inkscape:label="Group 6" transform="matrix(1.0, 0.0, 0.0, 1.0, 0.0, 0.0)" style="">
                     <g id="g_74" inkscape:label="Group 7" transform="matrix(1.0, 0.0, 0.0, 1.0, 317.9, 156.625)" style="fill-opacity:1.0;fill:rgb(255, 255, 255);fill-rule:nonzero">
                        <path d="M 2.327,5.769 C -1.0579999999999998,7.193 -4.845,5.763999999999999 -6.13,2.578 C -7.415,-0.6080000000000001 -5.712,-4.345000000000001 -2.327,-5.769 C 1.0579999999999998,-7.193 4.845,-5.763999999999999 6.13,-2.578 C 7.415,0.6080000000000001 5.712,4.345000000000001 2.327,5.769 Z" id="path_75" inkscape:label="Path 1" style="fill-opacity:1.0;fill:rgb(255, 255, 255);fill-rule:nonzero"/>
                     </g>
                     <g id="g_76" inkscape:label="Group 6" transform="matrix(1.0, 0.0, 0.0, 1.0, 302.623, 157.874)" style="fill-opacity:1.0;fill:rgb(255, 255, 255);fill-rule:nonzero">
                        <path d="M 1.069,2.65 C -0.486,3.304 -2.226,2.649 -2.816,1.185 C -3.4059999999999997,-0.2789999999999999 -2.6239999999999997,-1.996 -1.069,-2.65 C 0.486,-3.304 2.226,-2.649 2.816,-1.185 C 3.4059999999999997,0.2789999999999999 2.6239999999999997,1.996 1.069,2.65 Z" id="path_77" inkscape:label="Path 1" style="fill-opacity:1.0;fill:rgb(255, 255, 255);fill-rule:nonzero"/>
                     </g>
                     <g id="g_78" inkscape:label="Group 3" transform="matrix(1.0, 0.0, 0.0, 1.0, 326.72, 146.499)" style="fill-opacity:1.0;fill:url(#linearGradient_79);fill-rule:nonzero">
                        <path d="M 28.811,18.008 C 23.916,25.799999999999997 7.804999999999998,24.489 -8.409,14.303 C -24.622999999999998,4.117000000000001 -33.8,-10.458 -28.905,-18.25 C -24.01,-26.042 -6.895999999999999,-24.101 9.318,-13.915 C 25.531999999999996,-3.728999999999999 33.706,10.216 28.811,18.008 Z" id="path_80" inkscape:label="Path 1" style="fill-opacity:1.0;fill:url(#linearGradient_81);fill-rule:nonzero"/>
                     </g>
                  </g>
                  <g id="g_82" inkscape:label="Group 1" transform="matrix(1.0, 0.0, 0.0, 1.0, 306.066, 168.114)" style="stroke:rgb(186, 176, 155);stroke-opacity:1.0;stroke-width:18.0;stroke-miterlimit:0;stroke-linecap:round;stroke-linejoin:round">
                     <path d="M 45.693,40.87 C 29.433999999999997,66.886 -27.816000000000003,75.886 -47.395,41.139 C -55.260000000000005,27.181000000000004 -60.423,10.778999999999998 -54.9,-6.336 C -46.153999999999996,-33.388 -23.602,-47.231 -0.26,-47.024 C -0.26,-47.024 0.835,-47.012 0.835,-47.012 C 0.835,-47.012 1.869,-46.976 1.869,-46.976 C 14.129999999999999,-46.429 26.500999999999998,-42.0 37.108,-33.583 C 37.861999999999995,-32.987 45.695,-25.336 45.695,-25.336 C 63.260000000000005,-4.608999999999998 59.489,21.884 45.647,40.823 " id="path_83" inkscape:label="Path 1" style=""/>
                  </g>
               </g>
               <g inkscape:groupmode="layer" id="patchc" inkscape:label="patchc" transform="matrix(1.0, 0.0, 0.0, 1.0, 0.0, 0.0)" style="">
                  <g id="g_84" inkscape:label="Group 5" transform="matrix(1.0, 0.0, 0.0, 1.0, 260.828, 184.064)" style="fill-opacity:1.0;fill:url(#linearGradient_85);fill-rule:nonzero">
                     <path d="M 141.5,16.799 C 79.173,28.935 51.672999999999995,33.436 -9.801,32.482 C -14.827,48.936 -4.828,60.43599999999999 0,76.201 C 64.979,76.201 123.64500000000001,67.22 165.372,52.791 C 153.67200000000003,37.43599999999999 154.673,31.435 141.5,16.799 Z" id="path_86" inkscape:label="Path 1" style="fill-opacity:1.0;fill:url(#linearGradient_87);fill-rule:nonzero"/>
                  </g>
                  <g id="g_88" inkscape:label="Group 3" transform="matrix(1.0, 0.0, 0.0, 1.0, 260.828, 184.064)" style="stroke:rgb(87, 87, 163);stroke-opacity:1.0;stroke-width:18.0;stroke-miterlimit:0;stroke-linecap:round;stroke-linejoin:round">
                     <path d="M 162.604,53.732 C 121.07000000000002,67.609 63.554,76.201 0,76.201 " id="path_89" inkscape:label="Path 1" style=""/>
                  </g>
               </g>
               <g inkscape:groupmode="layer" id="patch" inkscape:label="patch" transform="matrix(1.0, 0.0, 0.0, 1.0, 0.0, 0.0)" style="">
                  <g id="g_90" inkscape:label="Group 1" transform="matrix(1.0, 0.0, 0.0, 1.0, 260.826, 198.804)" style="stroke:url(#linearGradient_92);stroke-opacity:1.0;stroke-width:18.0;stroke-miterlimit:0;stroke-linecap:round;stroke-linejoin:round">
                     <path d="M -41.545,15.167 C -41.545,15.167 -41.559,15.165 -41.559,15.165 C -28.144,15.985999999999999 -14.244,16.419 0.005,16.419 C 111.46199999999999,16.419 201.819,-9.986000000000004 201.819,-42.566 " id="path_91" inkscape:label="Path 1" style=""/>
                  </g>
               </g>
            </g>
         </g>
      </g>
      <g inkscape:groupmode="layer" id="fx" inkscape:label="fx" transform="matrix(1.0, 0.0, 0.0, 1.0, -256.0, -256.0)" style="">
         <g id="g_93" inkscape:label="Group 2" transform="matrix(1.0, 0.0, 0.0, 1.0, 439.945, 39.773)" style="fill-opacity:1.0;fill:rgb(213, 243, 0);fill-rule:nonzero;stroke:rgb(112, 167, 0);stroke-opacity:1.0;stroke-width:18.0;stroke-miterlimit:0;stroke-linecap:round;stroke-linejoin:round">
            <ellipse rx="28.0525" ry="28.606" cx="0" cy="0" id="ellipse_94" inkscape:label="Ellipse Path 1" style="fill-opacity:1.0;fill:rgb(213, 243, 0);fill-rule:nonzero"/>
         </g>
      </g>
      <g inkscape:groupmode="layer" id="fx_2" inkscape:label="fx 2" transform="matrix(1.0, 0.0, 0.0, 1.0, -256.0, -256.0)" style="">
         <g id="g_95" inkscape:label="Group 1" transform="matrix(1.0, 0.0, 0.0, 1.0, 245.223, 42.773)" style="fill-opacity:1.0;fill:rgb(213, 243, 0);fill-rule:nonzero;stroke:rgb(112, 167, 0);stroke-opacity:1.0;stroke-width:18.0;stroke-miterlimit:0;stroke-linecap:round;stroke-linejoin:round">
            <path d="M 15.553,7.315 C 11.433,16.074 1.1310000000000002,19.9 -7.459,15.86 C -16.049,11.82 -19.673000000000002,1.444 -15.553,-7.315 C -11.433,-16.074 -1.1310000000000002,-19.9 7.459,-15.86 C 16.049,-11.82 19.673000000000002,-1.444 15.553,7.315 Z" id="path_96" inkscape:label="Path 1" style="fill-opacity:1.0;fill:rgb(213, 243, 0);fill-rule:nonzero"/>
         </g>
      </g>
      <g inkscape:groupmode="layer" id="mastercontrolfalme" inkscape:label="mastercontrolfalme" transform="matrix(1.0, 0.0, 0.0, 1.0, -1.0, 276.0)" opacity="1">
         <g inkscape:groupmode="layer" id="flamemaster" inkscape:label="flamemaster" transform="matrix(1.0, 0.0, 0.0, 1.0, 0.0, -12.5)" opacity="1"/>
         <g inkscape:groupmode="layer" id="blowmaster" inkscape:label="blowmaster" transform="matrix(1.0, 0.0, 0.0, 1.83, 0.0, -20.0)" opacity="1"/>
      </g>
   </g>
</svg>
