<?xml version="1.0" ?>
<svg xmlns:inkscape="http://www.inkscape.org/namespaces/inkscape" xmlns:sodipodi="http://sodipodi.sourceforge.net/DTD/sodipodi-0.dtd" xmlns="http://www.w3.org/2000/svg" width="512" height="512" viewBox="0 0 512 512" version="1.1" id="Comp_1" sodipodi:docname="Comp 1" inkscape:export-xdpi="96" inkscape:export-ydpi="96" style="fill: none; stroke: none">
   <defs>
      <linearGradient x1="-0.491" y1="-0.702" x2="-0.491" y2="57.982" id="Gradient_5mDhvy3Ekc" inkscape:label="Gradient_5mDhvy3Ekc" gradientUnits="userSpaceOnUse">
         <stop offset="0%" stop-color="rgb(214, 214, 217)" stop-opacity="1"/>
         <stop offset="50.0%" stop-color="rgb(222, 218, 224)" stop-opacity="1"/>
         <stop offset="100%" stop-color="rgb(230, 222, 231)" stop-opacity="1"/>
      </linearGradient>
      <linearGradient x1="-0.491" y1="-0.702" x2="-0.491" y2="57.982" id="linearGradient_1" inkscape:label="Gradient_5mDhvy3Ekc" gradientUnits="userSpaceOnUse">
         <stop offset="0%" stop-color="rgb(214, 214, 217)" stop-opacity="1"/>
         <stop offset="50.0%" stop-color="rgb(222, 218, 224)" stop-opacity="1"/>
         <stop offset="100%" stop-color="rgb(230, 222, 231)" stop-opacity="1"/>
      </linearGradient>
      <linearGradient x1="-0.943" y1="-34.28" x2="-0.943" y2="19.328" id="Gradient_mAzK35bmwO" inkscape:label="Gradient_mAzK35bmwO" gradientUnits="userSpaceOnUse">
         <stop offset="0.3%" stop-color="rgb(235, 234, 255)" stop-opacity="1"/>
         <stop offset="49.4%" stop-color="rgb(245, 245, 255)" stop-opacity="1"/>
         <stop offset="98.5%" stop-color="rgb(255, 255, 255)" stop-opacity="1"/>
      </linearGradient>
      <linearGradient x1="-0.943" y1="-34.28" x2="-0.943" y2="19.328" id="linearGradient_5" inkscape:label="Gradient_mAzK35bmwO" gradientUnits="userSpaceOnUse">
         <stop offset="0.3%" stop-color="rgb(235, 234, 255)" stop-opacity="1"/>
         <stop offset="49.4%" stop-color="rgb(245, 245, 255)" stop-opacity="1"/>
         <stop offset="98.5%" stop-color="rgb(255, 255, 255)" stop-opacity="1"/>
      </linearGradient>
      <linearGradient x1="69.608" y1="10.318" x2="180.589" y2="32.992" id="Gradient_Flqh1FUWK6" inkscape:label="Gradient_Flqh1FUWK6" gradientUnits="userSpaceOnUse">
         <stop offset="0.3%" stop-color="rgb(186, 184, 193)" stop-opacity="1"/>
         <stop offset="50.2%" stop-color="rgb(186, 184, 193)" stop-opacity="0.5"/>
         <stop offset="100%" stop-color="rgb(186, 184, 193)" stop-opacity="0"/>
      </linearGradient>
      <linearGradient x1="69.608" y1="10.318" x2="180.589" y2="32.992" id="linearGradient_8" inkscape:label="Gradient_Flqh1FUWK6" gradientUnits="userSpaceOnUse">
         <stop offset="0.3%" stop-color="rgb(186, 184, 193)" stop-opacity="1"/>
         <stop offset="50.2%" stop-color="rgb(186, 184, 193)" stop-opacity="0.5"/>
         <stop offset="100%" stop-color="rgb(186, 184, 193)" stop-opacity="0"/>
      </linearGradient>
      <linearGradient x1="-172.943" y1="0.198" x2="171.715" y2="0.198" id="Gradient_uDxGIBIkwv" inkscape:label="Gradient_uDxGIBIkwv" gradientUnits="userSpaceOnUse">
         <stop offset="0.3%" stop-color="rgb(252, 246, 191)" stop-opacity="1"/>
         <stop offset="50.2%" stop-color="rgb(252, 250, 202)" stop-opacity="1"/>
         <stop offset="100%" stop-color="rgb(252, 255, 213)" stop-opacity="1"/>
      </linearGradient>
      <linearGradient x1="-172.943" y1="0.198" x2="171.715" y2="0.198" id="linearGradient_16" inkscape:label="Gradient_uDxGIBIkwv" gradientUnits="userSpaceOnUse">
         <stop offset="0.3%" stop-color="rgb(252, 246, 191)" stop-opacity="1"/>
         <stop offset="50.2%" stop-color="rgb(252, 250, 202)" stop-opacity="1"/>
         <stop offset="100%" stop-color="rgb(252, 255, 213)" stop-opacity="1"/>
      </linearGradient>
      <linearGradient x1="-172.94" y1="0.325" x2="171.717" y2="0.325" id="Gradient_lO9sNhw1pD" inkscape:label="Gradient_lO9sNhw1pD" gradientUnits="userSpaceOnUse">
         <stop offset="1.4000000000000001%" stop-color="rgb(255, 218, 143)" stop-opacity="1"/>
         <stop offset="50.5%" stop-color="rgb(251, 209, 135)" stop-opacity="1"/>
         <stop offset="99.7%" stop-color="rgb(247, 199, 127)" stop-opacity="1"/>
      </linearGradient>
      <linearGradient x1="-172.94" y1="0.325" x2="171.717" y2="0.325" id="linearGradient_18" inkscape:label="Gradient_lO9sNhw1pD" gradientUnits="userSpaceOnUse">
         <stop offset="1.4000000000000001%" stop-color="rgb(255, 218, 143)" stop-opacity="1"/>
         <stop offset="50.5%" stop-color="rgb(251, 209, 135)" stop-opacity="1"/>
         <stop offset="99.7%" stop-color="rgb(247, 199, 127)" stop-opacity="1"/>
      </linearGradient>
      <linearGradient x1="-172.94" y1="0.815" x2="171.717" y2="0.815" id="Gradient_F6RQYwSKq1" inkscape:label="Gradient_F6RQYwSKq1" gradientUnits="userSpaceOnUse">
         <stop offset="0.3%" stop-color="rgb(252, 246, 191)" stop-opacity="1"/>
         <stop offset="50.2%" stop-color="rgb(252, 250, 202)" stop-opacity="1"/>
         <stop offset="100%" stop-color="rgb(252, 255, 213)" stop-opacity="1"/>
      </linearGradient>
      <linearGradient x1="-172.94" y1="0.815" x2="171.717" y2="0.815" id="linearGradient_20" inkscape:label="Gradient_F6RQYwSKq1" gradientUnits="userSpaceOnUse">
         <stop offset="0.3%" stop-color="rgb(252, 246, 191)" stop-opacity="1"/>
         <stop offset="50.2%" stop-color="rgb(252, 250, 202)" stop-opacity="1"/>
         <stop offset="100%" stop-color="rgb(252, 255, 213)" stop-opacity="1"/>
      </linearGradient>
      <linearGradient x1="2.51" y1="64.347" x2="-2.556" y2="-36.141" id="Gradient_h4IhKu9aKF" inkscape:label="Gradient_h4IhKu9aKF" gradientUnits="userSpaceOnUse">
         <stop offset="27.800000000000004%" stop-color="rgb(255, 130, 166)" stop-opacity="1"/>
         <stop offset="67.80000000000001%" stop-color="rgb(255, 167, 199)" stop-opacity="1"/>
         <stop offset="100%" stop-color="rgb(255, 203, 233)" stop-opacity="1"/>
      </linearGradient>
      <linearGradient x1="2.51" y1="64.347" x2="-2.556" y2="-36.141" id="linearGradient_24" inkscape:label="Gradient_h4IhKu9aKF" gradientUnits="userSpaceOnUse">
         <stop offset="27.800000000000004%" stop-color="rgb(255, 130, 166)" stop-opacity="1"/>
         <stop offset="67.80000000000001%" stop-color="rgb(255, 167, 199)" stop-opacity="1"/>
         <stop offset="100%" stop-color="rgb(255, 203, 233)" stop-opacity="1"/>
      </linearGradient>
      <linearGradient x1="-107.943" y1="0.116" x2="106.674" y2="0.116" id="Gradient_JY4jdjnplw" inkscape:label="Gradient_JY4jdjnplw" gradientUnits="userSpaceOnUse">
         <stop offset="0.3%" stop-color="rgb(252, 246, 191)" stop-opacity="1"/>
         <stop offset="50.2%" stop-color="rgb(252, 250, 202)" stop-opacity="1"/>
         <stop offset="100%" stop-color="rgb(252, 255, 213)" stop-opacity="1"/>
      </linearGradient>
      <linearGradient x1="-107.943" y1="0.116" x2="106.674" y2="0.116" id="linearGradient_46" inkscape:label="Gradient_JY4jdjnplw" gradientUnits="userSpaceOnUse">
         <stop offset="0.3%" stop-color="rgb(252, 246, 191)" stop-opacity="1"/>
         <stop offset="50.2%" stop-color="rgb(252, 250, 202)" stop-opacity="1"/>
         <stop offset="100%" stop-color="rgb(252, 255, 213)" stop-opacity="1"/>
      </linearGradient>
      <linearGradient x1="-107.945" y1="0.24" x2="106.672" y2="0.24" id="Gradient_vhhaf0LboU" inkscape:label="Gradient_vhhaf0LboU" gradientUnits="userSpaceOnUse">
         <stop offset="1.4000000000000001%" stop-color="rgb(255, 218, 143)" stop-opacity="1"/>
         <stop offset="50.5%" stop-color="rgb(251, 209, 135)" stop-opacity="1"/>
         <stop offset="99.7%" stop-color="rgb(247, 199, 127)" stop-opacity="1"/>
      </linearGradient>
      <linearGradient x1="-107.945" y1="0.24" x2="106.672" y2="0.24" id="linearGradient_49" inkscape:label="Gradient_vhhaf0LboU" gradientUnits="userSpaceOnUse">
         <stop offset="1.4000000000000001%" stop-color="rgb(255, 218, 143)" stop-opacity="1"/>
         <stop offset="50.5%" stop-color="rgb(251, 209, 135)" stop-opacity="1"/>
         <stop offset="99.7%" stop-color="rgb(247, 199, 127)" stop-opacity="1"/>
      </linearGradient>
      <linearGradient x1="-0.767" y1="34.121" x2="0.295" y2="-27.469" id="Gradient_Fu2wyhoNNX" inkscape:label="Gradient_Fu2wyhoNNX" gradientUnits="userSpaceOnUse">
         <stop offset="27.800000000000004%" stop-color="rgb(255, 130, 166)" stop-opacity="1"/>
         <stop offset="67.80000000000001%" stop-color="rgb(255, 167, 199)" stop-opacity="1"/>
         <stop offset="100%" stop-color="rgb(255, 203, 233)" stop-opacity="1"/>
      </linearGradient>
      <linearGradient x1="-0.767" y1="34.121" x2="0.295" y2="-27.469" id="linearGradient_56" inkscape:label="Gradient_Fu2wyhoNNX" gradientUnits="userSpaceOnUse">
         <stop offset="27.800000000000004%" stop-color="rgb(255, 130, 166)" stop-opacity="1"/>
         <stop offset="67.80000000000001%" stop-color="rgb(255, 167, 199)" stop-opacity="1"/>
         <stop offset="100%" stop-color="rgb(255, 203, 233)" stop-opacity="1"/>
      </linearGradient>
      <radialGradient cx="1.261" cy="0.956" r="31.399699680092485" fx="1.261" fy="0.956" id="Gradient_fhyveAql2Q" inkscape:label="Gradient_fhyveAql2Q" gradientUnits="userSpaceOnUse">
         <stop offset="0.1%" stop-color="rgb(255, 215, 0)" stop-opacity="1"/>
         <stop offset="50.0%" stop-color="rgb(255, 215, 0)" stop-opacity="0.5"/>
         <stop offset="100%" stop-color="rgb(255, 215, 0)" stop-opacity="0"/>
      </radialGradient>
      <radialGradient cx="1.261" cy="0.956" r="31.399699680092485" fx="1.261" fy="0.956" id="radialGradient_83" inkscape:label="Gradient_fhyveAql2Q" gradientUnits="userSpaceOnUse">
         <stop offset="0.1%" stop-color="rgb(255, 215, 0)" stop-opacity="1"/>
         <stop offset="50.0%" stop-color="rgb(255, 215, 0)" stop-opacity="0.5"/>
         <stop offset="100%" stop-color="rgb(255, 215, 0)" stop-opacity="0"/>
      </radialGradient>
      <radialGradient cx="-0.438" cy="0.596" r="30.026646249623017" fx="-0.438" fy="0.596" id="Gradient_ZpqLJ1YN6X" inkscape:label="Gradient_ZpqLJ1YN6X" gradientUnits="userSpaceOnUse">
         <stop offset="0.1%" stop-color="rgb(255, 215, 0)" stop-opacity="1"/>
         <stop offset="50.0%" stop-color="rgb(255, 215, 0)" stop-opacity="0.5"/>
         <stop offset="100%" stop-color="rgb(255, 215, 0)" stop-opacity="0"/>
      </radialGradient>
      <radialGradient cx="-0.438" cy="0.596" r="30.026646249623017" fx="-0.438" fy="0.596" id="radialGradient_92" inkscape:label="Gradient_ZpqLJ1YN6X" gradientUnits="userSpaceOnUse">
         <stop offset="0.1%" stop-color="rgb(255, 215, 0)" stop-opacity="1"/>
         <stop offset="50.0%" stop-color="rgb(255, 215, 0)" stop-opacity="0.5"/>
         <stop offset="100%" stop-color="rgb(255, 215, 0)" stop-opacity="0"/>
      </radialGradient>
      <radialGradient cx="0.408" cy="0.994" r="31.62648043965689" fx="0.408" fy="0.994" id="Gradient_R7ewEqA2Hw" inkscape:label="Gradient_R7ewEqA2Hw" gradientUnits="userSpaceOnUse">
         <stop offset="0.1%" stop-color="rgb(255, 215, 0)" stop-opacity="1"/>
         <stop offset="50.0%" stop-color="rgb(255, 215, 0)" stop-opacity="0.5"/>
         <stop offset="100%" stop-color="rgb(255, 215, 0)" stop-opacity="0"/>
      </radialGradient>
      <radialGradient cx="0.408" cy="0.994" r="31.62648043965689" fx="0.408" fy="0.994" id="radialGradient_101" inkscape:label="Gradient_R7ewEqA2Hw" gradientUnits="userSpaceOnUse">
         <stop offset="0.1%" stop-color="rgb(255, 215, 0)" stop-opacity="1"/>
         <stop offset="50.0%" stop-color="rgb(255, 215, 0)" stop-opacity="0.5"/>
         <stop offset="100%" stop-color="rgb(255, 215, 0)" stop-opacity="0"/>
      </radialGradient>
   </defs>
   <sodipodi:namedview inkscape:pagecheckerboard="true" borderlayer="true" bordercolor="#666666" pagecolor="#ffffff"/>
   <g inkscape:groupmode="layer" id="Null_2" inkscape:label="Null 2" transform="matrix(1.0, 0.0, 0.0, 1.0, 256.0, 256.0)" opacity="1">
      <g inkscape:groupmode="layer" id="Layer_1" inkscape:label="Layer 1" transform="matrix(1.0, 0.0, 0.0, 1.0, -256.0, -256.0)" style="">
         <g id="Group_3" inkscape:label="Group 3" transform="matrix(1.0, 0.0, 0.0, 1.0, 257.954, 481.005)" style="fill-opacity:1.0;fill:url(#Gradient_5mDhvy3Ekc);fill-rule:nonzero">
            <path d="M 43.968,-23.385 C 43.968,-23.385 0.012,-23.385 0.012,-23.385 C 0.012,-23.385 -43.944,-23.385 -43.944,-23.385 C -43.944,-23.385 -56.031,6.616 -56.031,6.616 C -58.37,12.421 -54.986999999999995,19.038999999999998 -49.129,20.075 C -38.303,21.99 -20.634,23.385 0.012,23.385 C 20.079,23.385 38.053,21.944 49.1,20.02 C 54.974000000000004,18.997 58.375,12.375 56.031,6.556 C 56.031,6.556 43.968,-23.385 43.968,-23.385 Z" id="Path_1" inkscape:label="Path 1" style="fill-opacity:1.0;fill:url(#linearGradient_1);fill-rule:nonzero"/>
         </g>
         <g id="Group_2" inkscape:label="Group 2" transform="matrix(1.0, 0.0, 0.0, 1.0, 257.954, 481.005)" opacity="0.5" style="stroke:rgb(255, 255, 255);stroke-opacity:1.0;stroke-width:13.0;stroke-miterlimit:0;stroke-linecap:round;stroke-linejoin:round">
            <path d="M 34.574,-23.385 C 34.574,-23.385 0.009,-23.385 0.009,-23.385 C 0.009,-23.385 -34.556,-23.385 -34.556,-23.385 C -34.556,-23.385 -44.061,6.616 -44.061,6.616 C -45.9,12.421 -43.239000000000004,19.038999999999998 -38.633,20.075 C -30.120000000000005,21.99 -16.226,23.385 0.009,23.385 C 15.789,23.385 29.923000000000002,21.944 38.61,20.02 C 43.229,18.997 45.904,12.375 44.06,6.556 C 44.06,6.556 34.574,-23.385 34.574,-23.385 Z" id="path_2" inkscape:label="Path 1" style=""/>
         </g>
         <g id="Group_1" inkscape:label="Group 1" transform="matrix(1.0, 0.0, 0.0, 1.0, 257.954, 481.005)" style="stroke:rgb(143, 143, 155);stroke-opacity:1.0;stroke-width:13.0;stroke-miterlimit:0;stroke-linecap:round;stroke-linejoin:round">
            <path d="M 43.968,-23.385 C 43.968,-23.385 0.012,-23.385 0.012,-23.385 C 0.012,-23.385 -43.944,-23.385 -43.944,-23.385 C -43.944,-23.385 -56.031,6.616 -56.031,6.616 C -58.37,12.421 -54.986999999999995,19.038999999999998 -49.129,20.075 C -38.303,21.99 -20.634,23.385 0.012,23.385 C 20.079,23.385 38.053,21.944 49.1,20.02 C 54.974000000000004,18.997 58.375,12.375 56.031,6.556 C 56.031,6.556 43.968,-23.385 43.968,-23.385 Z" id="path_3" inkscape:label="Path 1" style=""/>
         </g>
      </g>
      <g inkscape:groupmode="layer" id="Layer_2" inkscape:label="Layer 2" transform="matrix(1.0, 0.0, 0.0, 1.0, -256.0, -256.0)" style="">
         <g id="Group_6" inkscape:label="Group 6" transform="matrix(1.0, 0.0, 0.0, 1.0, 256.406, 398.584)" style="fill-opacity:1.0;fill:url(#Gradient_mAzK35bmwO);fill-rule:nonzero">
            <path d="M 244.537,0 C 244.537,42.066 136.732,71.732 0,71.732 C -136.732,71.732 -244.537,42.066 -244.537,0 C -244.537,-39.617 -136.732,-71.732 0,-71.732 C 136.732,-71.732 244.537,-39.617 244.537,0 Z" id="path_4" inkscape:label="Path 1" style="fill-opacity:1.0;fill:url(#linearGradient_5);fill-rule:nonzero"/>
         </g>
         <g id="Group_5" inkscape:label="Group 5" transform="matrix(1.0, 0.0, 0.0, 1.0, 256.406, 404.176)" style="stroke:rgb(255, 255, 255);stroke-opacity:1.0;stroke-width:13.0;stroke-miterlimit:0;stroke-linecap:round;stroke-linejoin:round">
            <path d="M 233.421,-0.919 C 233.421,37.551 131.711,66.14 0,66.14 C -131.711,66.14 -233.421,37.551 -233.421,-0.919 C -233.421,-36.94 -131.711,-66.14 0,-66.14 C 131.711,-66.14 233.421,-36.94 233.421,-0.919 Z" id="path_6" inkscape:label="Path 1" style=""/>
         </g>
         <g id="Group_4" inkscape:label="Group 4" transform="matrix(1.0, 0.0, 0.0, 1.0, 305.855, 389.985)" opacity="0.3" style="fill-opacity:1.0;fill:url(#Gradient_Flqh1FUWK6);fill-rule:nonzero">
            <path d="M -194.76,13.599 C -194.76,13.599 -138.749,59.135000000000005 168.352,42.503 C 168.352,42.503 198.803,30.791999999999998 194.307,2.793 C 189.81099999999998,-25.206 120.369,-46.158 120.369,-46.158 C 120.369,-46.158 -194.76,13.599 -194.76,13.599 Z" id="path_7" inkscape:label="Path 1" style="fill-opacity:1.0;fill:url(#linearGradient_8);fill-rule:nonzero"/>
         </g>
         <g id="g_9" inkscape:label="Group 3" transform="matrix(1.0, 0.0, 0.0, 1.0, 256.406, 398.584)" style="stroke:rgb(186, 184, 193);stroke-opacity:1.0;stroke-width:13.0;stroke-miterlimit:0;stroke-linecap:round;stroke-linejoin:round">
            <path d="M 244.537,0 C 244.537,42.066 136.732,71.732 0,71.732 C -136.732,71.732 -244.537,42.066 -244.537,0 C -244.537,-39.617 -136.732,-71.732 0,-71.732 C 136.732,-71.732 244.537,-39.617 244.537,0 Z" id="path_10" inkscape:label="Path 1" style=""/>
         </g>
         <g id="g_11" inkscape:label="Group 2" transform="matrix(1.0, 0.0, 0.0, 1.0, 257.954, 343.828)" style="stroke:rgb(167, 163, 181);stroke-opacity:1.0;stroke-width:13.0;stroke-miterlimit:0;stroke-linecap:round;stroke-linejoin:round">
            <path d="M -206.763,15.539 C -162.298,-4.266 -87.268,-16.976 -1.548,-16.976 C 85.932,-16.976 163.647,-3.3569999999999993 206.763,16.976 " id="path_12" inkscape:label="Path 1" style=""/>
         </g>
         <g id="g_13" inkscape:label="Group 1" transform="matrix(1.0, 0.0, 0.0, 1.0, 256.406, 393.025)" opacity="0.3" style="fill-opacity:1.0;fill:rgb(179, 179, 179);fill-rule:nonzero;stroke:rgb(179, 179, 179);stroke-opacity:1.0;stroke-width:13.0;stroke-miterlimit:0;stroke-linecap:round;stroke-linejoin:round">
            <path d="M 152.855,0 C 152.855,17.312 84.419,31.347 0,31.347 C -84.419,31.347 -152.855,17.312 -152.855,0 C -152.855,-17.312 -84.419,-31.347 0,-31.347 C 84.419,-31.347 152.855,-17.312 152.855,0 Z" id="path_14" inkscape:label="Path 1" style="fill-opacity:1.0;fill:rgb(179, 179, 179);fill-rule:nonzero"/>
         </g>
      </g>
      <g inkscape:groupmode="layer" id="Null_1" inkscape:label="Null 1" transform="matrix(1.0, 0.0, 0.0, 1.0, 0.0, 110.0)" opacity="1">
         <g inkscape:groupmode="layer" id="Layer_3" inkscape:label="Layer 3" transform="matrix(1.0, 0.0, 0.0, 1.0, -256.0, -366.0)" style="">
            <g inkscape:groupmode="layer" id="Group_19" inkscape:label="Group 19" transform="matrix(1.0, 0.0, 0.0, 1.0, 256.406, 325.105)" style="fill-opacity:1.0;fill:url(#Gradient_uDxGIBIkwv);fill-rule:nonzero">
               <path d="M -172.329,-95.411 C -172.329,-95.411 -172.329,54.454 -172.329,54.454 C -172.329,77.074 -95.175,95.411 0,95.411 C 95.175,95.411 172.329,77.074 172.329,54.454 C 172.329,54.454 172.329,-95.411 172.329,-95.411 C 172.329,-95.411 -172.329,-95.411 -172.329,-95.411 Z" id="path_15" inkscape:label="Path 1" style="fill-opacity:1.0;fill:url(#linearGradient_16);fill-rule:nonzero"/>
            </g>
            <g inkscape:groupmode="layer" id="Group_18" inkscape:label="Group 18" transform="matrix(1.0, 0.0, 0.0, 1.0, 256.402, 360.979)" style="fill-opacity:1.0;fill:url(#Gradient_lO9sNhw1pD);fill-rule:nonzero">
               <path d="M 172.328,-59.535 C 172.328,-59.535 172.328,18.585 172.328,18.585 C 172.328,41.205 95.18,59.535 0,59.535 C -95.168,59.535 -172.328,41.205 -172.328,18.585 C -172.328,18.585 -172.328,-59.535 -172.328,-59.535 C -172.328,-36.91499999999999 -95.168,-18.585 0,-18.585 C 95.18,-18.585 172.328,-36.91499999999999 172.328,-59.535 Z" id="path_17" inkscape:label="Path 1" style="fill-opacity:1.0;fill:url(#linearGradient_18);fill-rule:nonzero"/>
            </g>
            <g inkscape:groupmode="layer" id="Group_17" inkscape:label="Group 17" transform="matrix(1.0, 0.0, 0.0, 1.0, 256.402, 377.489)" style="fill-opacity:1.0;fill:url(#Gradient_F6RQYwSKq1);fill-rule:nonzero">
               <path d="M 172.328,-43.025 C 172.328,-43.025 172.328,2.075 172.328,2.075 C 172.328,24.695 95.18,43.025 0,43.025 C -95.168,43.025 -172.328,24.695 -172.328,2.075 C -172.328,2.075 -172.328,-43.025 -172.328,-43.025 C -172.328,-20.404999999999998 -95.168,-2.065 0,-2.065 C 95.18,-2.065 172.328,-20.404999999999998 172.328,-43.025 Z" id="path_19" inkscape:label="Path 1" style="fill-opacity:1.0;fill:url(#linearGradient_20);fill-rule:nonzero"/>
            </g>
            <g inkscape:groupmode="layer" id="Group_16" inkscape:label="Group 16" transform="matrix(1.0, 0.0, 0.0, 1.0, 256.406, 325.105)" opacity="0.4" style="stroke:rgb(255, 255, 255);stroke-opacity:1.0;stroke-width:13.0;stroke-miterlimit:0;stroke-linecap:round;stroke-linejoin:round">
               <path d="M -160.539,-95.411 C -160.539,-95.411 -160.539,54.454 -160.539,54.454 C -160.539,77.074 -88.663,95.411 0,95.411 C 88.663,95.411 160.539,77.074 160.539,54.454 C 160.539,54.454 160.539,-95.411 160.539,-95.411 C 160.539,-95.411 -160.539,-95.411 -160.539,-95.411 Z" id="path_21" inkscape:label="Path 1" style=""/>
            </g>
            <g inkscape:groupmode="layer" id="Group_15" inkscape:label="Group 15" transform="matrix(1.0, 0.0, 0.0, 1.0, 256.406, 325.105)" style="stroke:rgb(201, 136, 58);stroke-opacity:1.0;stroke-width:13.0;stroke-miterlimit:0;stroke-linecap:round;stroke-linejoin:round">
               <path d="M -172.329,-95.411 C -172.329,-95.411 -172.329,54.454 -172.329,54.454 C -172.329,77.074 -95.175,95.411 0,95.411 C 95.175,95.411 172.329,77.074 172.329,54.454 C 172.329,54.454 172.329,-95.411 172.329,-95.411 C 172.329,-95.411 -172.329,-95.411 -172.329,-95.411 Z" id="path_22" inkscape:label="Path 1" style=""/>
            </g>
            <g inkscape:groupmode="layer" id="Group_14" inkscape:label="Group 14" transform="matrix(1.0, 0.0, 0.0, 1.0, 254.952, 256.957)" style="fill-opacity:1.0;fill:url(#Gradient_h4IhKu9aKF);fill-rule:nonzero">
               <path d="M 174.885,-29.262 C 164.80499999999998,-54.243 96.62899999999999,-68.22 1.454,-68.22 C -87.01700000000001,-68.22 -158.23,-54.281 -170.837,-32.973 C -178.527,-19.976 -185.972,33.14 -166.9,46.091 C -152.286,56.015 -131.522,35.926 -119.729,38.601 C -107.936,41.275999999999996 -105.578,58.931 -80.224,57.861 C -54.870000000000005,56.791 -30.695,35.391 -20.081,37.531 C -9.468,39.671 17.656000000000002,69.877 46.548,68.149 C 75.44,66.421 94.324,34.856 108.762,32.716 C 123.2,30.576 136.865,51.785 159.626,45.974 C 181.794,40.31399999999999 181.78799999999998,-12.152999999999999 174.885,-29.262 Z" id="path_23" inkscape:label="Path 1" style="fill-opacity:1.0;fill:url(#linearGradient_24);fill-rule:nonzero"/>
            </g>
            <g inkscape:groupmode="layer" id="Group_13" inkscape:label="Group 13" transform="matrix(1.0, 0.0, 0.0, 1.0, 139.774, 258.848)" opacity="0.3" style="stroke:rgb(255, 255, 255);stroke-opacity:1.0;stroke-width:10.0;stroke-miterlimit:0;stroke-linecap:round;stroke-linejoin:round">
               <path d="M 23.524,5.317 C 5.155000000000001,2.5090000000000003 -10.823,-1.1059999999999999 -23.524,-5.317 " id="path_25" inkscape:label="Path 1" style=""/>
            </g>
            <g inkscape:groupmode="layer" id="Group_12" inkscape:label="Group 12" transform="matrix(1.0, 0.0, 0.0, 1.0, 324.865, 262.611)" opacity="0.3" style="stroke:rgb(255, 255, 255);stroke-opacity:1.0;stroke-width:10.0;stroke-miterlimit:0;stroke-linecap:round;stroke-linejoin:round">
               <path d="M 68.459,-8.041 C 36.96600000000001,1.7359999999999989 -12.649000000000001,8.041 -68.459,8.041 " id="path_26" inkscape:label="Path 1" style=""/>
            </g>
            <g inkscape:groupmode="layer" id="Group_11" inkscape:label="Group 11" transform="matrix(1.0, 0.0, 0.0, 1.0, 254.935, 251.815)" opacity="0.4" style="stroke:rgb(255, 255, 255);stroke-opacity:1.0;stroke-width:13.0;stroke-miterlimit:0;stroke-linecap:round;stroke-linejoin:round">
               <path d="M 152.324,52.122 C 173.49200000000002,46.903 173.607,-1.504999999999999 167.015,-17.281 C 157.39,-40.317 92.289,-53.205 1.406,-53.205 C -83.07499999999999,-53.205 -151.076,-40.351 -163.114,-20.702 C -170.457,-8.717000000000002 -177.56699999999998,41.263 -159.355,53.205 " id="path_27" inkscape:label="Path 1" style=""/>
            </g>
            <g inkscape:groupmode="layer" id="Group_10" inkscape:label="Group 10" transform="matrix(1.0, 0.0, 0.0, 1.0, 254.952, 256.957)" style="stroke:rgb(229, 78, 121);stroke-opacity:1.0;stroke-width:13.0;stroke-miterlimit:0;stroke-linecap:round;stroke-linejoin:round">
               <path d="M 174.885,-29.262 C 164.80499999999998,-54.243 96.62899999999999,-68.22 1.454,-68.22 C -87.01700000000001,-68.22 -158.23,-54.281 -170.837,-32.973 C -178.527,-19.976 -185.972,33.14 -166.9,46.091 C -152.286,56.015 -131.522,35.926 -119.729,38.601 C -107.936,41.275999999999996 -105.578,58.931 -80.224,57.861 C -54.870000000000005,56.791 -30.695,35.391 -20.081,37.531 C -9.468,39.671 17.656000000000002,69.877 46.548,68.149 C 75.44,66.421 94.324,34.856 108.762,32.716 C 123.2,30.576 136.865,51.785 159.626,45.974 C 181.794,40.31399999999999 181.78799999999998,-12.152999999999999 174.885,-29.262 Z" id="path_28" inkscape:label="Path 1" style=""/>
            </g>
            <g inkscape:groupmode="layer" id="Group_9" inkscape:label="Group 9" transform="matrix(1.0, 0.0, 0.0, 1.0, 251.316, 307.349)" style="stroke:rgb(211, 55, 108);stroke-opacity:1.0;stroke-width:13.0;stroke-miterlimit:0;stroke-linecap:round;stroke-linejoin:round">
               <path d="M -163.263,-4.301 C -148.649,5.622999999999999 -127.88499999999999,-14.466000000000001 -116.092,-11.791 C -104.299,-9.116 -101.941,8.539 -76.587,7.469 C -51.233000000000004,6.399 -27.058,-15.001000000000001 -16.444,-12.861 C -5.8309999999999995,-10.721 21.293000000000003,19.485000000000003 50.185,17.757 C 79.077,16.029 97.961,-15.535999999999998 112.399,-17.676 C 126.837,-19.816 140.502,1.3929999999999998 163.263,-4.418 " id="path_29" inkscape:label="Path 1" style=""/>
            </g>
            <g inkscape:groupmode="layer" id="Group_8" inkscape:label="Group 8" transform="matrix(1.0, 0.0, 0.0, 1.0, 394.722, 226.785)" style="fill-opacity:1.0;fill:rgb(255, 255, 255);fill-rule:nonzero">
               <path d="M 10.123,0.338 C 10.036,2.49 5.433,4.082 -0.158,3.896 C -5.7490000000000006,3.71 -10.209999999999999,1.814 -10.123,-0.338 C -10.036,-2.49 -5.433,-4.082 0.158,-3.896 C 5.7490000000000006,-3.71 10.209999999999999,-1.814 10.123,0.338 Z" id="path_30" inkscape:label="Path 1" style="fill-opacity:1.0;fill:rgb(255, 255, 255);fill-rule:nonzero"/>
            </g>
            <g inkscape:groupmode="layer" id="Group_7" inkscape:label="Group 7" transform="matrix(1.0, 0.0, 0.0, 1.0, 379.393, 235.037)" style="fill-opacity:1.0;fill:rgb(255, 255, 255);fill-rule:nonzero">
               <path d="M 4.206,0.14 C 4.170000000000001,1.034 2.257,1.696 -0.066,1.619 C -2.389,1.542 -4.242,0.754 -4.206,-0.14 C -4.170000000000001,-1.034 -2.257,-1.696 0.066,-1.619 C 2.389,-1.542 4.242,-0.754 4.206,0.14 Z" id="path_31" inkscape:label="Path 1" style="fill-opacity:1.0;fill:rgb(255, 255, 255);fill-rule:nonzero"/>
            </g>
            <g inkscape:groupmode="layer" id="Group_20" inkscape:label="Group 20" transform="matrix(1.0, 0.0, 0.0, 1.0, 0.0, 0.0)" style="">
               <g id="g_32" inkscape:label="Group 6" transform="matrix(1.0, 0.0, 0.0, 1.0, 207.486, 352.483)" style="fill-opacity:1.0;fill:rgb(244, 183, 110);fill-rule:nonzero">
                  <path d="M 5.357,0 C 5.357,2.897 2.959,5.246 0,5.246 C -2.959,5.246 -5.357,2.897 -5.357,0 C -5.357,-2.897 -2.959,-5.246 0,-5.246 C 2.959,-5.246 5.357,-2.897 5.357,0 Z" id="path_33" inkscape:label="Path 1" style="fill-opacity:1.0;fill:rgb(244, 183, 110);fill-rule:nonzero"/>
               </g>
               <g id="g_34" inkscape:label="Group 5" transform="matrix(1.0, 0.0, 0.0, 1.0, 137.658, 353.578)" style="fill-opacity:1.0;fill:rgb(244, 183, 110);fill-rule:nonzero">
                  <path d="M 4.238,0 C 4.238,2.292 2.341,4.15 0,4.15 C -2.341,4.15 -4.238,2.292 -4.238,0 C -4.238,-2.292 -2.341,-4.15 0,-4.15 C 2.341,-4.15 4.238,-2.292 4.238,0 Z" id="path_35" inkscape:label="Path 1" style="fill-opacity:1.0;fill:rgb(244, 183, 110);fill-rule:nonzero"/>
               </g>
               <g id="g_36" inkscape:label="Group 4" transform="matrix(1.0, 0.0, 0.0, 1.0, 328.013, 386.06)" style="fill-opacity:1.0;fill:rgb(249, 231, 157);fill-rule:nonzero">
                  <path d="M 7.712,0 C 7.712,4.17 4.259,7.551 0,7.551 C -4.259,7.551 -7.712,4.17 -7.712,0 C -7.712,-4.17 -4.259,-7.551 0,-7.551 C 4.259,-7.551 7.712,-4.17 7.712,0 Z" id="path_37" inkscape:label="Path 1" style="fill-opacity:1.0;fill:rgb(249, 231, 157);fill-rule:nonzero"/>
               </g>
               <g id="g_38" inkscape:label="Group 3" transform="matrix(1.0, 0.0, 0.0, 1.0, 395.308, 379.637)" style="fill-opacity:1.0;fill:rgb(249, 231, 157);fill-rule:nonzero">
                  <path d="M 4.009,0 C 4.009,2.168 2.214,3.926 0,3.926 C -2.214,3.926 -4.009,2.168 -4.009,0 C -4.009,-2.168 -2.214,-3.926 0,-3.926 C 2.214,-3.926 4.009,-2.168 4.009,0 Z" id="path_39" inkscape:label="Path 1" style="fill-opacity:1.0;fill:rgb(249, 231, 157);fill-rule:nonzero"/>
               </g>
               <g id="g_40" inkscape:label="Group 2" transform="matrix(1.0, 0.0, 0.0, 1.0, 232.468, 316.05)" style="fill-opacity:1.0;fill:rgb(249, 231, 157);fill-rule:nonzero">
                  <path d="M 4.009,0 C 4.009,2.168 2.214,3.926 0,3.926 C -2.214,3.926 -4.009,2.168 -4.009,0 C -4.009,-2.168 -2.214,-3.926 0,-3.926 C 2.214,-3.926 4.009,-2.168 4.009,0 Z" id="path_41" inkscape:label="Path 1" style="fill-opacity:1.0;fill:rgb(249, 231, 157);fill-rule:nonzero"/>
               </g>
               <g id="g_42" inkscape:label="Group 1" transform="matrix(1.0, 0.0, 0.0, 1.0, 228.459, 401.147)" style="fill-opacity:1.0;fill:rgb(249, 231, 157);fill-rule:nonzero">
                  <path d="M 4.009,0 C 4.009,2.168 2.214,3.926 0,3.926 C -2.214,3.926 -4.009,2.168 -4.009,0 C -4.009,-2.168 -2.214,-3.926 0,-3.926 C 2.214,-3.926 4.009,-2.168 4.009,0 Z" id="path_43" inkscape:label="Path 1" style="fill-opacity:1.0;fill:rgb(249, 231, 157);fill-rule:nonzero"/>
               </g>
            </g>
         </g>
         <g inkscape:groupmode="layer" id="Layer_4" inkscape:label="Layer 4" transform="matrix(1.0, 0.0, 0.0, 1.0, -256.0, -366.0)" style="">
            <g id="g_44" inkscape:label="Group 14" transform="matrix(1.0, 0.0, 0.0, 1.0, 256.406, 174.187)" style="fill-opacity:1.0;fill:url(#Gradient_JY4jdjnplw);fill-rule:nonzero">
               <path d="M -107.309,-64.798 C -107.309,-64.798 -107.309,39.294 -107.309,39.294 C -107.309,53.379999999999995 -59.265,64.798 0,64.798 C 59.265,64.798 107.309,53.379999999999995 107.309,39.294 C 107.309,39.294 107.309,-64.798 107.309,-64.798 C 107.309,-64.798 -107.309,-64.798 -107.309,-64.798 Z" id="path_45" inkscape:label="Path 1" style="fill-opacity:1.0;fill:url(#linearGradient_46);fill-rule:nonzero"/>
            </g>
            <g id="g_47" inkscape:label="Group 13" transform="matrix(1.0, 0.0, 0.0, 1.0, 256.408, 184.064)" style="fill-opacity:1.0;fill:url(#Gradient_vhhaf0LboU);fill-rule:nonzero">
               <path d="M 107.308,-27.26 C 107.308,-27.26 107.308,1.75 107.308,1.75 C 107.308,15.84 59.266,27.26 -0.006,27.26 C -59.267,27.26 -107.308,15.84 -107.308,1.75 C -107.308,1.75 -107.308,-27.26 -107.308,-27.26 C -107.308,-13.170000000000002 -59.267,-1.75 -0.006,-1.75 C 59.266,-1.75 107.308,-13.170000000000002 107.308,-27.26 Z" id="path_48" inkscape:label="Path 1" style="fill-opacity:1.0;fill:url(#linearGradient_49);fill-rule:nonzero"/>
            </g>
            <g id="g_50" inkscape:label="Group 12" transform="matrix(1.0, 0.0, 0.0, 1.0, 256.406, 174.187)" opacity="0.4" style="stroke:rgb(255, 255, 255);stroke-opacity:1.0;stroke-width:13.0;stroke-miterlimit:0;stroke-linecap:round;stroke-linejoin:round">
               <path d="M -97.092,-64.798 C -97.092,-64.798 -97.092,39.294 -97.092,39.294 C -97.092,53.379999999999995 -53.622,64.798 0,64.798 C 53.623,64.798 97.092,53.379999999999995 97.092,39.294 C 97.092,39.294 97.092,-64.798 97.092,-64.798 C 97.092,-64.798 -97.092,-64.798 -97.092,-64.798 Z" id="path_51" inkscape:label="Path 1" style=""/>
            </g>
            <g id="g_52" inkscape:label="Group 11" transform="matrix(1.0, 0.0, 0.0, 1.0, 256.406, 174.187)" style="stroke:rgb(201, 136, 58);stroke-opacity:1.0;stroke-width:13.0;stroke-miterlimit:0;stroke-linecap:round;stroke-linejoin:round">
               <path d="M -107.309,-64.798 C -107.309,-64.798 -107.309,39.294 -107.309,39.294 C -107.309,53.379999999999995 -59.265,64.798 0,64.798 C 59.265,64.798 107.309,53.379999999999995 107.309,39.294 C 107.309,39.294 107.309,-64.798 107.309,-64.798 C 107.309,-64.798 -107.309,-64.798 -107.309,-64.798 Z" id="path_53" inkscape:label="Path 1" style=""/>
            </g>
            <g id="g_54" inkscape:label="Group 10" transform="matrix(1.0, 0.0, 0.0, 1.0, 256.23, 127.183)" style="fill-opacity:1.0;fill:url(#Gradient_Fu2wyhoNNX);fill-rule:nonzero">
               <path d="M 104.295,-23.984 C 104.295,-23.984 104.295,-23.984 104.295,-23.984 C 92.655,-35.078 50.457,-43.297 0.176,-43.297 C -54.498999999999995,-43.297 -99.623,-33.578 -106.284,-21.013 C -106.284,-21.013 -106.284,-21.013 -106.284,-21.013 C -114.363,-13.012000000000002 -119.679,18.315 -108.281,21.594 C -96.88300000000001,24.873 -83.818,12.261 -72.142,25.125 C -60.465999999999994,37.989000000000004 -47.42,50.602 -27.126,38.242 C -6.832000000000001,25.881999999999998 0.1769999999999996,7.7109999999999985 24.601,22.098 C 40.463,31.442 57.31099999999999,38.566 74.362,19.072 C 88.009,3.469999999999999 95.573,21.845999999999997 107.485,20.333 C 119.397,18.82 115.739,-17.312 104.295,-23.984 Z" id="path_55" inkscape:label="Path 1" style="fill-opacity:1.0;fill:url(#linearGradient_56);fill-rule:nonzero"/>
            </g>
            <g id="g_57" inkscape:label="Group 9" transform="matrix(1.0, 0.0, 0.0, 1.0, 254.439, 124.071)" opacity="0.3" style="stroke:rgb(255, 255, 255);stroke-opacity:1.0;stroke-width:10.0;stroke-miterlimit:0;stroke-linecap:round;stroke-linejoin:round">
               <path d="M 46.867,-1.33 C 33.79,0.665 18.233999999999998,1.823 1.54,1.823 C -16.485,1.823 -33.184,0.4740000000000002 -46.867,-1.823 " id="path_58" inkscape:label="Path 1" style=""/>
            </g>
            <g id="g_59" inkscape:label="Group 8" transform="matrix(1.0, 0.0, 0.0, 1.0, 256.921, 120.474)" opacity="0.4" style="stroke:rgb(255, 255, 255);stroke-opacity:1.0;stroke-width:13.0;stroke-miterlimit:0;stroke-linecap:round;stroke-linejoin:round">
               <path d="M 106.794,27.041 C 117.89699999999999,25.63 108.283,-5.484999999999999 97.617,-11.703 C 97.617,-11.703 97.617,-11.703 97.617,-11.703 C 86.768,-22.043 46.336999999999996,-28.703 -0.526,-28.703 C -51.48500000000001,-28.703 -94.467,-19.232 -100.853,-9.934 C -100.853,-9.934 -100.853,-9.934 -100.853,-9.934 C -107.821,-3.1709999999999994 -117.686,25.647 -107.063,28.703 " id="path_60" inkscape:label="Path 1" style=""/>
            </g>
            <g id="g_61" inkscape:label="Group 7" transform="matrix(1.0, 0.0, 0.0, 1.0, 256.23, 127.183)" style="stroke:rgb(229, 78, 121);stroke-opacity:1.0;stroke-width:13.0;stroke-miterlimit:0;stroke-linecap:round;stroke-linejoin:round">
               <path d="M 104.295,-23.984 C 104.295,-23.984 104.295,-23.984 104.295,-23.984 C 92.655,-35.078 50.457,-43.297 0.176,-43.297 C -54.498999999999995,-43.297 -99.623,-33.578 -106.284,-21.013 C -106.284,-21.013 -106.284,-21.013 -106.284,-21.013 C -114.363,-13.012000000000002 -119.679,18.315 -108.281,21.594 C -96.88300000000001,24.873 -83.818,12.261 -72.142,25.125 C -60.465999999999994,37.989000000000004 -47.42,50.602 -27.126,38.242 C -6.832000000000001,25.881999999999998 0.1769999999999996,7.7109999999999985 24.601,22.098 C 40.463,31.442 57.31099999999999,38.566 74.362,19.072 C 88.009,3.469999999999999 95.573,21.845999999999997 107.485,20.333 C 119.397,18.82 115.739,-17.312 104.295,-23.984 Z" id="path_62" inkscape:label="Path 1" style=""/>
            </g>
            <g id="g_63" inkscape:label="Group 6" transform="matrix(1.0, 0.0, 0.0, 1.0, 294.852, 101.673)" style="fill-opacity:1.0;fill:rgb(255, 255, 255);fill-rule:nonzero">
               <path d="M 10.123,0.338 C 10.036,2.49 5.433,4.082 -0.158,3.896 C -5.7490000000000006,3.71 -10.209999999999999,1.814 -10.123,-0.338 C -10.036,-2.49 -5.433,-4.082 0.158,-3.896 C 5.7490000000000006,-3.71 10.209999999999999,-1.814 10.123,0.338 Z" id="path_64" inkscape:label="Path 1" style="fill-opacity:1.0;fill:rgb(255, 255, 255);fill-rule:nonzero"/>
            </g>
            <g id="g_65" inkscape:label="Group 5" transform="matrix(1.0, 0.0, 0.0, 1.0, 279.523, 109.925)" style="fill-opacity:1.0;fill:rgb(255, 255, 255);fill-rule:nonzero">
               <path d="M 4.206,0.14 C 4.170000000000001,1.034 2.257,1.696 -0.066,1.619 C -2.389,1.542 -4.242,0.754 -4.206,-0.14 C -4.170000000000001,-1.034 -2.257,-1.696 0.066,-1.619 C 2.389,-1.542 4.242,-0.754 4.206,0.14 Z" id="path_66" inkscape:label="Path 1" style="fill-opacity:1.0;fill:rgb(255, 255, 255);fill-rule:nonzero"/>
            </g>
            <g id="g_67" inkscape:label="Group 4" transform="matrix(1.0, 0.0, 0.0, 1.0, 320.301, 191.615)" style="fill-opacity:1.0;fill:rgb(244, 183, 110);fill-rule:nonzero">
               <path d="M 7.712,0 C 7.712,4.17 4.259,7.551 0,7.551 C -4.259,7.551 -7.712,4.17 -7.712,0 C -7.712,-4.17 -4.259,-7.551 0,-7.551 C 4.259,-7.551 7.712,-4.17 7.712,0 Z" id="path_68" inkscape:label="Path 1" style="fill-opacity:1.0;fill:rgb(244, 183, 110);fill-rule:nonzero"/>
            </g>
            <g id="g_69" inkscape:label="Group 3" transform="matrix(1.0, 0.0, 0.0, 1.0, 204.013, 199.166)" style="fill-opacity:1.0;fill:rgb(244, 183, 110);fill-rule:nonzero">
               <path d="M 4.238,0 C 4.238,2.292 2.341,4.15 0,4.15 C -2.341,4.15 -4.238,2.292 -4.238,0 C -4.238,-2.292 -2.341,-4.15 0,-4.15 C 2.341,-4.15 4.238,-2.292 4.238,0 Z" id="path_70" inkscape:label="Path 1" style="fill-opacity:1.0;fill:rgb(244, 183, 110);fill-rule:nonzero"/>
            </g>
            <g id="g_71" inkscape:label="Group 2" transform="matrix(1.0, 0.0, 0.0, 1.0, 262.819, 166.801)" style="fill-opacity:1.0;fill:rgb(249, 231, 157);fill-rule:nonzero">
               <path d="M 4.865,0 C 4.865,2.631 2.687,4.764 0,4.764 C -2.687,4.764 -4.865,2.631 -4.865,0 C -4.865,-2.631 -2.687,-4.764 0,-4.764 C 2.687,-4.764 4.865,-2.631 4.865,0 Z" id="path_72" inkscape:label="Path 1" style="fill-opacity:1.0;fill:rgb(249, 231, 157);fill-rule:nonzero"/>
            </g>
            <g id="g_73" inkscape:label="Group 1" transform="matrix(1.0, 0.0, 0.0, 1.0, 280.315, 222.969)" style="fill-opacity:1.0;fill:rgb(249, 231, 157);fill-rule:nonzero">
               <path d="M 4.009,0 C 4.009,2.168 2.214,3.926 0,3.926 C -2.214,3.926 -4.009,2.168 -4.009,0 C -4.009,-2.168 -2.214,-3.926 0,-3.926 C 2.214,-3.926 4.009,-2.168 4.009,0 Z" id="path_74" inkscape:label="Path 1" style="fill-opacity:1.0;fill:rgb(249, 231, 157);fill-rule:nonzero"/>
            </g>
         </g>
         <g inkscape:groupmode="layer" id="Layer_5" inkscape:label="Layer 5" transform="matrix(1.0, 0.0, 0.0, 1.0, -255.99999999999997, -366.0)" style="">
            <g id="g_75" inkscape:label="Group 12" transform="matrix(1.0, 0.0, 0.0, 1.0, 201.771, 77.833)" style="stroke:rgb(73, 45, 29);stroke-opacity:1.0;stroke-width:13.0;stroke-miterlimit:0;stroke-linecap:round;stroke-linejoin:round">
               <path d="M -0.197,23.41 C -0.197,23.41 0.197,-23.41 0.197,-23.41 " id="path_76" inkscape:label="Path 1" style=""/>
            </g>
            <g id="g_77" inkscape:label="Group 11" transform="matrix(1.0, 0.0, 0.0, 1.0, 202.582, 37.984)" style="fill-opacity:1.0;fill:rgb(255, 243, 95);fill-rule:nonzero">
               <path d="M -0.659,19.684 C -13.652000000000001,20.154 -16.532,5.809 -8.815,-3.684 C -0.09199999999999875,-14.416 -4.405,-20.093 -0.904,-19.674 C 6.293,-18.813 26.401,18.704 -0.659,19.684 Z" id="path_78" inkscape:label="Path 1" style="fill-opacity:1.0;fill:rgb(255, 243, 95);fill-rule:nonzero"/>
            </g>
            <g id="g_79" inkscape:label="Group 10" transform="matrix(1.0, 0.0, 0.0, 1.0, 202.582, 37.984)" style="stroke:rgb(239, 147, 0);stroke-opacity:1.0;stroke-width:15.0;stroke-miterlimit:0;stroke-linecap:round;stroke-linejoin:round">
               <path d="M -0.659,19.684 C -5.747,19.868000000000002 -9.283,17.781 -11.241,14.603 C -14.283,9.665 -13.51,2.0919999999999996 -8.815,-3.684 C -0.09199999999999875,-14.416 -4.405,-20.093 -0.904,-19.674 C 4.719,-19.002 18.222,4.043999999999999 10.957,14.562 C 8.923000000000002,17.506999999999998 5.26,19.470000000000002 -0.659,19.684 Z" id="path_80" inkscape:label="Path 1" style=""/>
            </g>
            <g id="g_81" inkscape:label="Group 9" transform="matrix(1.0, 0.0, 0.0, 1.0, 202.9, 33.0)" opacity="0.5" style="fill-opacity:1.0;fill:url(#Gradient_fhyveAql2Q);fill-rule:nonzero">
               <path d="M 0.788,-31.05 C 18.576,-30.617 32.642,-16.364 32.207,0.784 C 31.772000000000002,17.932 17.0,31.483 -0.788,31.05 C -18.576,30.617 -32.642,16.364 -32.207,-0.784 C -31.772000000000002,-17.932 -17.0,-31.483 0.788,-31.05 " id="path_82" inkscape:label="Path 1" style="fill-opacity:1.0;fill:url(#radialGradient_83);fill-rule:nonzero"/>
            </g>
            <g id="g_84" inkscape:label="Group 8" transform="matrix(1.0, 0.0, 0.0, 1.0, 256.932, 77.833)" style="stroke:rgb(73, 45, 29);stroke-opacity:1.0;stroke-width:13.0;stroke-miterlimit:0;stroke-linecap:round;stroke-linejoin:round">
               <path d="M -0.197,23.41 C -0.197,23.41 0.197,-23.41 0.197,-23.41 " id="path_85" inkscape:label="Path 1" style=""/>
            </g>
            <g id="g_86" inkscape:label="Group 7" transform="matrix(1.0, 0.0, 0.0, 1.0, 257.743, 37.984)" style="fill-opacity:1.0;fill:rgb(255, 243, 95);fill-rule:nonzero">
               <path d="M -0.659,19.684 C -13.652000000000001,20.154 -16.532,5.809 -8.815,-3.684 C -0.09199999999999875,-14.416 -4.405,-20.093 -0.904,-19.674 C 6.293,-18.813 26.401,18.704 -0.659,19.684 Z" id="path_87" inkscape:label="Path 1" style="fill-opacity:1.0;fill:rgb(255, 243, 95);fill-rule:nonzero"/>
            </g>
            <g id="g_88" inkscape:label="Group 6" transform="matrix(1.0, 0.0, 0.0, 1.0, 257.743, 37.984)" style="stroke:rgb(239, 147, 0);stroke-opacity:1.0;stroke-width:15.0;stroke-miterlimit:0;stroke-linecap:round;stroke-linejoin:round">
               <path d="M -0.659,19.684 C -5.747,19.868000000000002 -9.283,17.781 -11.241,14.603 C -14.283,9.665 -13.51,2.0919999999999996 -8.815,-3.684 C -0.09199999999999875,-14.416 -4.405,-20.093 -0.904,-19.674 C 4.719,-19.002 18.222,4.043999999999999 10.957,14.562 C 8.923000000000002,17.506999999999998 5.26,19.470000000000002 -0.659,19.684 Z" id="path_89" inkscape:label="Path 1" style=""/>
            </g>
            <g id="g_90" inkscape:label="Group 5" transform="matrix(1.0, 0.0, 0.0, 1.0, 258.068, 32.747)" opacity="0.5" style="fill-opacity:1.0;fill:url(#Gradient_ZpqLJ1YN6X);fill-rule:nonzero">
               <path d="M 0.788,-31.05 C 18.576,-30.617 32.642,-16.364 32.207,0.784 C 31.772000000000002,17.932 17.0,31.483 -0.788,31.05 C -18.576,30.617 -32.642,16.364 -32.207,-0.784 C -31.772000000000002,-17.932 -17.0,-31.483 0.788,-31.05 " id="path_91" inkscape:label="Path 1" style="fill-opacity:1.0;fill:url(#radialGradient_92);fill-rule:nonzero"/>
            </g>
            <g id="g_93" inkscape:label="Group 4" transform="matrix(1.0, 0.0, 0.0, 1.0, 312.746, 77.833)" style="stroke:rgb(73, 45, 29);stroke-opacity:1.0;stroke-width:13.0;stroke-miterlimit:0;stroke-linecap:round;stroke-linejoin:round">
               <path d="M -0.197,23.41 C -0.197,23.41 0.197,-23.41 0.197,-23.41 " id="path_94" inkscape:label="Path 1" style=""/>
            </g>
            <g id="g_95" inkscape:label="Group 3" transform="matrix(1.0, 0.0, 0.0, 1.0, 313.557, 37.984)" style="fill-opacity:1.0;fill:rgb(255, 243, 95);fill-rule:nonzero">
               <path d="M -0.659,19.684 C -13.652000000000001,20.154 -16.532,5.809 -8.815,-3.684 C -0.09199999999999875,-14.416 -4.405,-20.093 -0.904,-19.674 C 6.293,-18.813 26.401,18.704 -0.659,19.684 Z" id="path_96" inkscape:label="Path 1" style="fill-opacity:1.0;fill:rgb(255, 243, 95);fill-rule:nonzero"/>
            </g>
            <g id="g_97" inkscape:label="Group 2" transform="matrix(1.0, 0.0, 0.0, 1.0, 313.557, 37.984)" style="stroke:rgb(239, 147, 0);stroke-opacity:1.0;stroke-width:15.0;stroke-miterlimit:0;stroke-linecap:round;stroke-linejoin:round">
               <path d="M -0.659,19.684 C -5.747,19.868000000000002 -9.283,17.781 -11.241,14.603 C -14.283,9.665 -13.51,2.0919999999999996 -8.815,-3.684 C -0.09199999999999875,-14.416 -4.405,-20.093 -0.904,-19.674 C 4.719,-19.002 18.222,4.043999999999999 10.957,14.562 C 8.923000000000002,17.506999999999998 5.26,19.470000000000002 -0.659,19.684 Z" id="path_98" inkscape:label="Path 1" style=""/>
            </g>
            <g id="g_99" inkscape:label="Group 1" transform="matrix(1.0, 0.0, 0.0, 1.0, 313.89, 32.492)" opacity="0.5" style="fill-opacity:1.0;fill:url(#Gradient_R7ewEqA2Hw);fill-rule:nonzero">
               <path d="M 0.788,-31.05 C 18.576,-30.617 32.642,-16.364 32.207,0.784 C 31.772000000000002,17.932 17.0,31.483 -0.788,31.05 C -18.576,30.617 -32.642,16.364 -32.207,-0.784 C -31.772000000000002,-17.932 -17.0,-31.483 0.788,-31.05 " id="path_100" inkscape:label="Path 1" style="fill-opacity:1.0;fill:url(#radialGradient_101);fill-rule:nonzero"/>
            </g>
         </g>
      </g>
   </g>
</svg>
