<?xml version="1.0" ?>
<svg xmlns:inkscape="http://www.inkscape.org/namespaces/inkscape" xmlns:sodipodi="http://sodipodi.sourceforge.net/DTD/sodipodi-0.dtd" xmlns="http://www.w3.org/2000/svg" width="512" height="512" viewBox="0 0 512 512" version="1.1" id="Ice_Cream_MAIN_2" sodipodi:docname="Ice Cream MAIN 2" inkscape:export-xdpi="96" inkscape:export-ydpi="96" style="fill: none; stroke: none">
   <defs>
      <linearGradient x1="116.552" y1="62.159" x2="-62.585" y2="-82.066" id="Gradient_qWTAAZlSM7" inkscape:label="Gradient_qWTAAZlSM7" gradientUnits="userSpaceOnUse">
         <stop offset="0%" stop-color="rgb(77, 8, 0)" stop-opacity="1"/>
         <stop offset="42.5%" stop-color="rgb(103, 34, 17)" stop-opacity="1"/>
         <stop offset="83.1%" stop-color="rgb(128, 61, 33)" stop-opacity="1"/>
      </linearGradient>
      <linearGradient x1="116.552" y1="62.159" x2="-62.585" y2="-82.066" id="linearGradient_1" inkscape:label="Gradient_qWTAAZlSM7" gradientUnits="userSpaceOnUse">
         <stop offset="0%" stop-color="rgb(77, 8, 0)" stop-opacity="1"/>
         <stop offset="42.5%" stop-color="rgb(103, 34, 17)" stop-opacity="1"/>
         <stop offset="83.1%" stop-color="rgb(128, 61, 33)" stop-opacity="1"/>
      </linearGradient>
      <linearGradient x1="-80.236" y1="-28.798" x2="47.64" y2="-28.454" id="Gradient_twE1yNPF1y" inkscape:label="Gradient_twE1yNPF1y" gradientUnits="userSpaceOnUse">
         <stop offset="7.3999999999999995%" stop-color="rgb(255, 255, 255)" stop-opacity="0"/>
         <stop offset="20.1%" stop-color="rgb(255, 255, 255)" stop-opacity="0.5"/>
         <stop offset="44.9%" stop-color="rgb(255, 255, 255)" stop-opacity="1"/>
         <stop offset="62.1%" stop-color="rgb(255, 255, 255)" stop-opacity="0.5"/>
         <stop offset="77.2%" stop-color="rgb(255, 255, 255)" stop-opacity="0"/>
      </linearGradient>
      <linearGradient x1="-80.236" y1="-28.798" x2="47.64" y2="-28.454" id="linearGradient_3" inkscape:label="Gradient_twE1yNPF1y" gradientUnits="userSpaceOnUse">
         <stop offset="7.3999999999999995%" stop-color="rgb(255, 255, 255)" stop-opacity="0"/>
         <stop offset="20.1%" stop-color="rgb(255, 255, 255)" stop-opacity="0.5"/>
         <stop offset="44.9%" stop-color="rgb(255, 255, 255)" stop-opacity="1"/>
         <stop offset="62.1%" stop-color="rgb(255, 255, 255)" stop-opacity="0.5"/>
         <stop offset="77.2%" stop-color="rgb(255, 255, 255)" stop-opacity="0"/>
      </linearGradient>
      <linearGradient x1="-77.672" y1="-71.187" x2="145.407" y2="36.953" id="Gradient_nMSReCaCfU" inkscape:label="Gradient_nMSReCaCfU" gradientUnits="userSpaceOnUse">
         <stop offset="0%" stop-color="rgb(107, 37, 17)" stop-opacity="1"/>
         <stop offset="28.799999999999997%" stop-color="rgb(81, 25, 8)" stop-opacity="1"/>
         <stop offset="57.49999999999999%" stop-color="rgb(55, 13, 0)" stop-opacity="1"/>
      </linearGradient>
      <linearGradient x1="-77.672" y1="-71.187" x2="145.407" y2="36.953" id="linearGradient_5" inkscape:label="Gradient_nMSReCaCfU" gradientUnits="userSpaceOnUse">
         <stop offset="0%" stop-color="rgb(107, 37, 17)" stop-opacity="1"/>
         <stop offset="28.799999999999997%" stop-color="rgb(81, 25, 8)" stop-opacity="1"/>
         <stop offset="57.49999999999999%" stop-color="rgb(55, 13, 0)" stop-opacity="1"/>
      </linearGradient>
      <linearGradient x1="2.501" y1="152.332" x2="4.114" y2="-156.434" id="Gradient_TdmPBdKdX8" inkscape:label="Gradient_TdmPBdKdX8" gradientUnits="userSpaceOnUse">
         <stop offset="6.9%" stop-color="rgb(255, 223, 255)" stop-opacity="0"/>
         <stop offset="37.0%" stop-color="rgb(255, 221, 231)" stop-opacity="0.5"/>
         <stop offset="100%" stop-color="rgb(255, 219, 207)" stop-opacity="1"/>
      </linearGradient>
      <radialGradient cx="-0.424" cy="0.786" r="61.56239268417042" fx="-0.424" fy="0.786" id="Gradient_Oj4IkRGo7Y" inkscape:label="Gradient_Oj4IkRGo7Y" gradientUnits="userSpaceOnUse">
         <stop offset="21.4%" stop-color="rgb(255, 255, 255)" stop-opacity="1"/>
         <stop offset="61.4%" stop-color="rgb(255, 255, 255)" stop-opacity="0.5"/>
         <stop offset="100%" stop-color="rgb(255, 255, 255)" stop-opacity="0"/>
      </radialGradient>
      <radialGradient cx="-0.424" cy="0.786" r="61.56239268417042" fx="-0.424" fy="0.786" id="radialGradient_8" inkscape:label="Gradient_Oj4IkRGo7Y" gradientUnits="userSpaceOnUse">
         <stop offset="21.4%" stop-color="rgb(255, 255, 255)" stop-opacity="1"/>
         <stop offset="61.4%" stop-color="rgb(255, 255, 255)" stop-opacity="0.5"/>
         <stop offset="100%" stop-color="rgb(255, 255, 255)" stop-opacity="0"/>
      </radialGradient>
      <linearGradient x1="-0.671" y1="-44.456" x2="1.953" y2="32.474" id="Gradient_zWc7Du2bTa" inkscape:label="Gradient_zWc7Du2bTa" gradientUnits="userSpaceOnUse">
         <stop offset="14.799999999999999%" stop-color="rgb(62, 18, 0)" stop-opacity="1"/>
         <stop offset="69.8%" stop-color="rgb(96, 35, 19)" stop-opacity="1"/>
         <stop offset="96.1%" stop-color="rgb(131, 52, 39)" stop-opacity="1"/>
      </linearGradient>
      <linearGradient x1="-0.671" y1="-44.456" x2="1.953" y2="32.474" id="linearGradient_11" inkscape:label="Gradient_zWc7Du2bTa" gradientUnits="userSpaceOnUse">
         <stop offset="14.799999999999999%" stop-color="rgb(62, 18, 0)" stop-opacity="1"/>
         <stop offset="69.8%" stop-color="rgb(96, 35, 19)" stop-opacity="1"/>
         <stop offset="96.1%" stop-color="rgb(131, 52, 39)" stop-opacity="1"/>
      </linearGradient>
      <linearGradient x1="-105.14" y1="4.629" x2="80.796" y2="-9.021" id="Gradient_dIiAaiMTlM" inkscape:label="Gradient_dIiAaiMTlM" gradientUnits="userSpaceOnUse">
         <stop offset="0%" stop-color="rgb(142, 42, 10)" stop-opacity="0.1"/>
         <stop offset="11.4%" stop-color="rgb(149, 69, 42)" stop-opacity="0.55"/>
         <stop offset="29.799999999999997%" stop-color="rgb(156, 95, 73)" stop-opacity="1"/>
         <stop offset="73.0%" stop-color="rgb(116, 59, 36)" stop-opacity="0.55"/>
         <stop offset="92.0%" stop-color="rgb(76, 24, 0)" stop-opacity="0.1"/>
      </linearGradient>
      <linearGradient x1="1.123" y1="26.426" x2="4.289" y2="-33.948" id="Gradient_is83DPB5Yt" inkscape:label="Gradient_is83DPB5Yt" gradientUnits="userSpaceOnUse">
         <stop offset="0%" stop-color="rgb(255, 219, 207)" stop-opacity="1"/>
         <stop offset="38.2%" stop-color="rgb(255, 221, 231)" stop-opacity="0.5"/>
         <stop offset="74.7%" stop-color="rgb(255, 223, 255)" stop-opacity="0"/>
      </linearGradient>
      <linearGradient x1="-76.957" y1="-107.391" x2="120.946" y2="24.544" id="Gradient_PI9xcXmliu" inkscape:label="Gradient_PI9xcXmliu" gradientUnits="userSpaceOnUse">
         <stop offset="0%" stop-color="rgb(137, 64, 33)" stop-opacity="1"/>
         <stop offset="31.900000000000002%" stop-color="rgb(96, 39, 17)" stop-opacity="1"/>
         <stop offset="68.8%" stop-color="rgb(55, 13, 0)" stop-opacity="1"/>
      </linearGradient>
      <linearGradient x1="-0.173" y1="0.934" x2="40.016" y2="6.322" id="Gradient_kVDlsvNHWI" inkscape:label="Gradient_kVDlsvNHWI" gradientUnits="userSpaceOnUse">
         <stop offset="12.7%" stop-color="rgb(49, 16, 0)" stop-opacity="1"/>
         <stop offset="47.9%" stop-color="rgb(49, 16, 0)" stop-opacity="0.5"/>
         <stop offset="79.3%" stop-color="rgb(49, 16, 0)" stop-opacity="0"/>
      </linearGradient>
      <linearGradient x1="-0.173" y1="0.934" x2="40.016" y2="6.322" id="linearGradient_18" inkscape:label="Gradient_kVDlsvNHWI" gradientUnits="userSpaceOnUse">
         <stop offset="12.7%" stop-color="rgb(49, 16, 0)" stop-opacity="1"/>
         <stop offset="47.9%" stop-color="rgb(49, 16, 0)" stop-opacity="0.5"/>
         <stop offset="79.3%" stop-color="rgb(49, 16, 0)" stop-opacity="0"/>
      </linearGradient>
      <linearGradient x1="15.742" y1="99.681" x2="29.469" y2="-69.184" id="Gradient_5qd2Xhbiy7" inkscape:label="Gradient_5qd2Xhbiy7" gradientUnits="userSpaceOnUse">
         <stop offset="0%" stop-color="rgb(196, 131, 83)" stop-opacity="1"/>
         <stop offset="39.7%" stop-color="rgb(163, 96, 58)" stop-opacity="1"/>
         <stop offset="100%" stop-color="rgb(131, 61, 34)" stop-opacity="1"/>
      </linearGradient>
      <linearGradient x1="41.468" y1="-92.218" x2="-21.828" y2="32.114" id="Gradient_i0mwPDx82p" inkscape:label="Gradient_i0mwPDx82p" gradientUnits="userSpaceOnUse">
         <stop offset="12.7%" stop-color="rgb(216, 123, 71)" stop-opacity="1"/>
         <stop offset="33.7%" stop-color="rgb(236, 170, 109)" stop-opacity="1"/>
         <stop offset="71.5%" stop-color="rgb(255, 216, 148)" stop-opacity="1"/>
      </linearGradient>
      <linearGradient x1="41.468" y1="-92.218" x2="-21.828" y2="32.114" id="linearGradient_23" inkscape:label="Gradient_i0mwPDx82p" gradientUnits="userSpaceOnUse">
         <stop offset="12.7%" stop-color="rgb(216, 123, 71)" stop-opacity="1"/>
         <stop offset="33.7%" stop-color="rgb(236, 170, 109)" stop-opacity="1"/>
         <stop offset="71.5%" stop-color="rgb(255, 216, 148)" stop-opacity="1"/>
      </linearGradient>
      <linearGradient x1="-36.805" y1="10.979" x2="2.582" y2="-66.424" id="Gradient_5e1G7t93YO" inkscape:label="Gradient_5e1G7t93YO" gradientUnits="userSpaceOnUse">
         <stop offset="1.6%" stop-color="rgb(255, 248, 199)" stop-opacity="1"/>
         <stop offset="36.9%" stop-color="rgb(255, 249, 196)" stop-opacity="0.6"/>
         <stop offset="80.30000000000001%" stop-color="rgb(255, 251, 192)" stop-opacity="0.2"/>
      </linearGradient>
      <linearGradient x1="-30.097" y1="55.965" x2="26.38" y2="-61.776" id="Gradient_AHrgXfXCme" inkscape:label="Gradient_AHrgXfXCme" gradientUnits="userSpaceOnUse">
         <stop offset="13.100000000000001%" stop-color="rgb(207, 143, 91)" stop-opacity="1"/>
         <stop offset="46.800000000000004%" stop-color="rgb(190, 120, 74)" stop-opacity="1"/>
         <stop offset="80.60000000000001%" stop-color="rgb(173, 97, 58)" stop-opacity="1"/>
      </linearGradient>
      <linearGradient x1="-37.866" y1="16.814" x2="-41.445" y2="-19.107" id="Gradient_yJnC3SgH9W" inkscape:label="Gradient_yJnC3SgH9W" gradientUnits="userSpaceOnUse">
         <stop offset="0%" stop-color="rgb(49, 16, 0)" stop-opacity="1"/>
         <stop offset="54.400000000000006%" stop-color="rgb(53, 16, 0)" stop-opacity="1"/>
         <stop offset="69.39999999999999%" stop-color="rgb(56, 15, 0)" stop-opacity="1"/>
      </linearGradient>
   </defs>
   <sodipodi:namedview inkscape:pagecheckerboard="true" borderlayer="true" bordercolor="#666666" pagecolor="#ffffff"/>
   <g inkscape:groupmode="layer" id="NULL_ALL" inkscape:label="NULL ALL" transform="matrix(0.8548212942741352, 0.6097381034964868, -0.6097381034964868, 0.8548212942741352, 236.5, 280.5)" opacity="1">
      <g inkscape:groupmode="layer" id="Stick_BOTTOM" inkscape:label="Stick BOTTOM" transform="matrix(1.0, 0.0, 0.0, 1.0, -256.0, -256.0)" style="">
         <g inkscape:groupmode="layer" id="Ice_Main" inkscape:label="Ice Main" transform="matrix(1.0, 0.0, 0.0, 1.0, 0.0, 0.0)" style="">
            <g id="Group_6" inkscape:label="Group 6" transform="matrix(1.0, 0.0, 0.0, 1.0, 267.442, 160.664)" style="fill-opacity:1.0;fill:url(#Gradient_qWTAAZlSM7);fill-rule:nonzero">
               <path d="M 67.394,-158.782 C 66.158,-162.092 63.800000000000004,-166.33599999999998 60.094,-170.73 C 58.866,-172.18599999999998 57.489999999999995,-173.659 55.958,-175.12 C 54.370999999999995,-176.63400000000001 52.617,-178.13400000000001 50.686,-179.591 C 47.176,-182.239 43.080999999999996,-184.742 38.349,-186.909 C 34.595,-188.628 30.44,-190.136 25.855,-191.338 C 18.723,-193.208 10.551,-194.33800000000002 1.24,-194.371 C -20.677000000000003,-194.449 -36.31699999999999,-188.40699999999998 -46.986,-180.902 C -57.293,-173.652 -62.959999999999994,-165.037 -65.166,-159.256 C -71.25099999999999,-143.313 -97.52,145.373 -96.865,152.739 C -94.50999999999999,179.216 -43.035000000000004,194.21800000000002 -0.149,194.371 C 42.737,194.524 94.317,179.89000000000001 96.862,153.431 C 97.57,146.07000000000002 73.364,-142.79600000000002 67.394,-158.782 Z" id="Path_1" inkscape:label="Path 1" style="fill-opacity:1.0;fill:url(#linearGradient_1);fill-rule:nonzero"/>
            </g>
            <g id="Group_5" inkscape:label="Group 5" transform="matrix(1.0, 0.0, 0.0, 1.0, 267.442, 160.664)" opacity="0.46" style="fill-opacity:1.0;fill:url(#Gradient_twE1yNPF1y);fill-rule:nonzero">
               <path d="M 67.394,-158.782 C 66.158,-162.092 63.800000000000004,-166.33599999999998 60.094,-170.73 C 58.866,-172.18599999999998 57.489999999999995,-173.659 55.958,-175.12 C 54.370999999999995,-176.63400000000001 52.617,-178.13400000000001 50.686,-179.591 C 47.176,-182.239 43.080999999999996,-184.742 38.349,-186.909 C 34.595,-188.628 30.44,-190.136 25.855,-191.338 C 18.723,-193.208 10.551,-194.33800000000002 1.24,-194.371 C -20.677000000000003,-194.449 -36.31699999999999,-188.40699999999998 -46.986,-180.902 C -57.293,-173.652 -62.959999999999994,-165.037 -65.166,-159.256 C -71.25099999999999,-143.313 -97.52,145.373 -96.865,152.739 C -94.50999999999999,179.216 -43.035000000000004,194.21800000000002 -0.149,194.371 C 42.737,194.524 94.317,179.89000000000001 96.862,153.431 C 97.57,146.07000000000002 73.364,-142.79600000000002 67.394,-158.782 Z" id="path_2" inkscape:label="Path 1" style="fill-opacity:1.0;fill:url(#linearGradient_3);fill-rule:nonzero"/>
            </g>
            <g id="Group_4" inkscape:label="Group 4" transform="matrix(1.0, 0.0, 0.0, 1.0, 275.349, 160.277)" opacity="0.15" style="fill-opacity:1.0;fill:url(#Gradient_nMSReCaCfU);fill-rule:nonzero">
               <path d="M 59.488,-158.391 C 65.452,-142.409 89.669,146.459 88.957,153.816 C 86.41,180.28300000000002 34.774,196.889 -8.061,194.756 C -55.321,192.403 -71.767,180.59099999999998 -88.972,175.134 C 58.798000000000016,166.58399999999997 14.666,112.9 14.666,112.9 C 45.212,112.29100000000001 40.728,54.363000000000014 40.067,-75.128 C 39.602,-166.275 40.504999999999995,-186.873 -5.386,-194.94 C 27.046000000000003,-190.139 55.634,-168.71099999999998 59.488,-158.391 Z" id="path_4" inkscape:label="Path 1" style="fill-opacity:1.0;fill:url(#linearGradient_5);fill-rule:nonzero"/>
            </g>
            <g id="Group_3" inkscape:label="Group 3" transform="matrix(1.0, 0.0, 0.0, 1.0, 267.475, 133.703)" opacity="0.27" style="stroke:url(#Gradient_TdmPBdKdX8);stroke-opacity:1.0;stroke-width:8.0;stroke-miterlimit:0;stroke-linecap:round;stroke-linejoin:round">
               <path d="M 87.012,160.335 C 87.658,153.108 66.75,-109.716 61.325,-125.41 C 60.169000000000004,-128.756 57.931000000000004,-133.071 54.389,-137.52 C 52.205000000000005,-140.263 49.526,-143.056 46.298,-145.705 C 42.973,-148.43400000000003 39.065,-151.00900000000001 34.519,-153.215 C 25.857999999999997,-157.418 14.877,-160.285 1.182,-160.334 C -4.154,-160.353 -9.081999999999999,-159.942 -13.623,-159.187 C -16.307,-158.741 -18.855,-158.175 -21.274,-157.507 C -28.509,-155.51 -34.577999999999996,-152.60399999999998 -39.608,-149.273 C -50.93899999999999,-141.768 -56.993,-132.108 -59.21,-125.841 C -64.747,-110.18599999999999 -87.609,152.899 -87.015,160.13 " id="path_6" inkscape:label="Path 1" style=""/>
            </g>
            <g id="Group_1" inkscape:label="Group 1" transform="matrix(0.14689050739810744, 0.006403103647961569, -0.04121668629218709, 0.9455320881234499, 237.535, 78.025)" opacity="0.45" style="fill-opacity:1.0;fill:url(#Gradient_Oj4IkRGo7Y);fill-rule:nonzero">
               <path d="M 74,-0.017 C 71.984,41.681999999999995 36.842,74.58399999999999 -3.65,75.502 C -40.131,76.329 -78.397,38.808 -76.381,-2.891 C -74.365,-44.589999999999996 -34.796,-76.98299999999999 3.65,-75.502 C 37.899,-74.182 76.016,-41.716 74,-0.017 Z" id="path_7" inkscape:label="Path 1" style="fill-opacity:1.0;fill:url(#radialGradient_8);fill-rule:nonzero"/>
            </g>
            <g inkscape:groupmode="layer" id="Ice_Bot" inkscape:label="Ice Bot" transform="matrix(1.0, 0.0, 0.0, 1.0, 0.0, 0.0)" style="">
               <g id="g_9" inkscape:label="Group 3" transform="matrix(1.0, 0.0, 0.0, 1.0, 267.442, 311.562)" style="fill-opacity:1.0;fill:url(#Gradient_zWc7Du2bTa);fill-rule:nonzero">
                  <path d="M 96.684,2.014 C 96.684,2.014 96.866,2.532 96.866,2.532 C 94.313,28.991 42.736999999999995,43.631 -0.151,43.472 C -43.033,43.321 -94.515,28.319 -96.866,1.837 C -96.866,1.837 -96.933,2.825 -96.933,2.825 C -107.117,-24.459 -50.43,-43.219 0.46,-42.991 C 26.863,-42.873 51.456999999999994,-38.212 70.205,-30.045 C 85.701,-23.294 98.67099999999999,-16.59 96.684,2.014 Z" id="path_10" inkscape:label="Path 1" style="fill-opacity:1.0;fill:url(#linearGradient_11);fill-rule:nonzero"/>
               </g>
               <g id="Group_2" inkscape:label="Group 2" transform="matrix(1.0, 0.0, 0.0, 1.0, 267.435, 293.095)" style="stroke:url(#Gradient_dIiAaiMTlM);stroke-opacity:1.0;stroke-width:8.1;stroke-miterlimit:0;stroke-linecap:round;stroke-linejoin:round">
                  <path d="M -96.864,20.313 C -96.78200000000001,-2.6970000000000027 -53.347,-21.195 0.149,-21.004 C 53.645,-20.813000000000002 96.946,-2.0050000000000026 96.864,21.005 " id="path_12" inkscape:label="Path 1" style=""/>
               </g>
               <g id="g_13" inkscape:label="Group 1" transform="matrix(1.0, 0.0, 0.0, 1.0, 267.445, 323.801)" opacity="0.13" style="stroke:url(#Gradient_is83DPB5Yt);stroke-opacity:1.0;stroke-width:8.0;stroke-miterlimit:0;stroke-linecap:round;stroke-linejoin:round">
                  <path d="M -87.881,-20.639 C -88.517,-12.925999999999998 -89.39399999999999,-12.208 -89.317,-11.396 C -87.13999999999999,11.532999999999998 -39.672999999999995,24.535 -0.129,24.676 C 39.415,24.816999999999997 86.973,12.155000000000001 89.314,-10.758 C 89.395,-11.555 89.117,-16.161 88.557,-23.638 " id="path_14" inkscape:label="Path 1" style=""/>
               </g>
            </g>
            <g inkscape:groupmode="layer" id="OUTLINE_MAIN" inkscape:label="OUTLINE MAIN" transform="matrix(1.0, 0.0, 0.0, 1.0, 0.0, 0.0)" style="">
               <g id="g_15" inkscape:label="Group 2" transform="matrix(1.0, 0.0, 0.0, 1.0, 267.442, 160.664)" style="stroke:url(#Gradient_PI9xcXmliu);stroke-opacity:1.0;stroke-width:8.0;stroke-miterlimit:0;stroke-linecap:round;stroke-linejoin:round">
                  <path d="M 67.394,-158.782 C 66.158,-162.092 63.800000000000004,-166.33599999999998 60.094,-170.73 C 58.866,-172.18599999999998 57.489999999999995,-173.659 55.958,-175.12 C 54.370999999999995,-176.63400000000001 52.617,-178.13400000000001 50.686,-179.591 C 47.176,-182.239 43.080999999999996,-184.742 38.349,-186.909 C 34.595,-188.628 30.44,-190.136 25.855,-191.338 C 18.723,-193.208 10.551,-194.33800000000002 1.24,-194.371 C -20.677000000000003,-194.449 -36.31699999999999,-188.40699999999998 -46.986,-180.902 C -57.293,-173.652 -62.959999999999994,-165.037 -65.166,-159.256 C -71.25099999999999,-143.313 -97.52,145.373 -96.865,152.739 C -94.50999999999999,179.216 -43.035000000000004,194.21800000000002 -0.149,194.371 C 42.737,194.524 94.317,179.89000000000001 96.862,153.431 C 97.57,146.07000000000002 73.364,-142.79600000000002 67.394,-158.782 Z" id="path_16" inkscape:label="Path 1" style=""/>
               </g>
            </g>
         </g>
         <g inkscape:groupmode="layer" id="Group_7" inkscape:label="Group 7" transform="matrix(1.0, 0.0, 0.0, 1.0, 292.525, 331.682)" opacity="0.53" style="fill-opacity:1.0;fill:url(#Gradient_kVDlsvNHWI);fill-rule:nonzero">
            <path d="M -5.765,-21.802 C -5.765,-21.802 34.943,11.834 34.943,11.834 C 34.943,11.834 -3.476,21.802 -3.476,21.802 C -3.476,21.802 -34.943,-5.979 -34.943,-5.979 C -34.943,-5.979 -5.765,-21.802 -5.765,-21.802 Z" id="path_17" inkscape:label="Path 1" style="fill-opacity:1.0;fill:url(#linearGradient_18);fill-rule:nonzero"/>
         </g>
         <g inkscape:groupmode="layer" id="g_19" inkscape:label="Group 6" transform="matrix(1.0, 0.0, 0.0, 1.0, 265.537, 410.626)" style="fill-opacity:1.0;fill:rgb(208, 131, 83);fill-rule:nonzero;stroke:url(#Gradient_5qd2Xhbiy7);stroke-opacity:1.0;stroke-width:8.0;stroke-miterlimit:0;stroke-linecap:round;stroke-linejoin:round">
            <path d="M -18.511,-90.031 C -18.511,-90.031 -24.948,80.064 -24.948,80.064 C -21.668,93.931 -7.49,97.778 1.477,96.259 C 13.3,94.257 25.147000000000002,84.34100000000001 24.946,66.741 C 24.643,40.202 24.648,-55.913000000000004 24.57,-86.307 C 24.567,-87.634 15.992999999999999,-96.902 14.274,-96.56 C 14.274,-96.56 -18.511,-90.031 -18.511,-90.031 Z" id="path_20" inkscape:label="Path 1" style="fill-opacity:1.0;fill:rgb(208, 131, 83);fill-rule:nonzero"/>
         </g>
         <g inkscape:groupmode="layer" id="g_21" inkscape:label="Group 5" transform="matrix(1.0, 0.0, 0.0, 1.0, 261.598, 408.52)" style="fill-opacity:1.0;fill:url(#Gradient_i0mwPDx82p);fill-rule:nonzero">
            <path d="M -21.728,-90.975 C -21.728,-90.975 -21.365,52.847 -21.316,78.122 C -21.259,107.781 21.789,97.52799999999999 21.728,65.797 C 21.667,34.065999999999995 21.331,-95.745 21.331,-95.745 C 21.331,-95.745 -21.728,-90.975 -21.728,-90.975 Z" id="path_22" inkscape:label="Path 1" style="fill-opacity:1.0;fill:url(#linearGradient_23);fill-rule:nonzero"/>
         </g>
         <g inkscape:groupmode="layer" id="g_24" inkscape:label="Group 4" transform="matrix(1.0, 0.0, 0.0, 1.0, 0.0, 0.0)" style="">
            <g id="g_25" inkscape:label="Group 7" transform="matrix(1.0, 0.0, 0.0, 1.0, 271.919, 426.603)" opacity="0.15" style="fill-opacity:1.0;fill:rgb(209, 121, 56);fill-rule:nonzero">
               <path d="M 3.304,68.805 C 11.401,44.59400000000001 -12.75,12.041 -11.255,-11.732 C -9.760000000000002,-35.504999999999995 11.16,-55.09700000000001 11.125,-68.805 C 11.125,-68.805 11.322,-44.457 11.322,-44.457 C 11.322,-44.457 -2.252,-27.141 -3.715,-12.333 C -5.178,2.474 9.204,29.187 8.948,55.195 C 8.948,55.195 3.304,68.805 3.304,68.805 Z" id="path_26" inkscape:label="Path 1" style="fill-opacity:1.0;fill:rgb(209, 121, 56);fill-rule:nonzero"/>
            </g>
            <g id="g_27" inkscape:label="Group 6" transform="matrix(1.0, 0.0, 0.0, 1.0, 277.217, 419.749)" opacity="0.15" style="fill-opacity:1.0;fill:rgb(209, 121, 56);fill-rule:nonzero">
               <path d="M 2.874,14.831 C -2.1439999999999997,7.244999999999999 -6.751,-6.68 2.226,-14.831 C 2.226,-14.831 2.874,14.831 2.874,14.831 Z" id="path_28" inkscape:label="Path 1" style="fill-opacity:1.0;fill:rgb(209, 121, 56);fill-rule:nonzero"/>
            </g>
            <g id="g_29" inkscape:label="Group 5" transform="matrix(1.0, 0.0, 0.0, 1.0, 259.982, 478.859)" opacity="0.15" style="fill-opacity:1.0;fill:rgb(209, 121, 56);fill-rule:nonzero">
               <path d="M -12.595,23.049 C -8.578,12.535 -5.29,-1.721 -5.527,-12.363 C -5.764,-23.005 -1.0729999999999995,-30.159 7.191,-18.409 C 15.454999999999998,-6.658999999999999 11.781,19.692 11.781,19.692 C 11.781,19.692 3.869,21.047 3.869,21.047 C 3.869,21.047 12.395,0.34499999999999886 1.698,-13.691 C -4.077999999999999,-21.27 0.10999999999999943,8.094 -8.196,21.991 C -11.108,26.863 -12.595,23.049 -12.595,23.049 Z" id="path_30" inkscape:label="Path 1" style="fill-opacity:1.0;fill:rgb(209, 121, 56);fill-rule:nonzero"/>
            </g>
            <g id="g_31" inkscape:label="Group 4" transform="matrix(1.0, 0.0, 0.0, 1.0, 256.556, 399.974)" opacity="0.15" style="fill-opacity:1.0;fill:rgb(209, 121, 56);fill-rule:nonzero">
               <path d="M -16.302,73.85 C -15.181999999999999,38.474999999999994 4.244000000000001,45.707 -0.366,30.913 C -7.367,8.449000000000002 -7.926,-0.4280000000000008 9.281,-21.302 C 26.488,-42.176 12.642,-74.124 12.642,-74.124 C 12.642,-74.124 1.026,-74.27 1.026,-74.27 C 1.026,-74.27 19.243,-48.062 5.562,-31.936 C -9.126000000000001,-14.623999999999999 -13.603,4.573 -6.938,24.504 C -0.2729999999999997,44.435 -19.137999999999998,41.806 -17.845,59.925 C -16.552,78.044 -16.302,73.85 -16.302,73.85 Z" id="path_32" inkscape:label="Path 1" style="fill-opacity:1.0;fill:rgb(209, 121, 56);fill-rule:nonzero"/>
            </g>
            <g id="g_33" inkscape:label="Group 3" transform="matrix(1.0, 0.0, 0.0, 1.0, 259.295, 492.294)" opacity="0.15" style="fill-opacity:1.0;fill:rgb(209, 121, 56);fill-rule:nonzero">
               <path d="M -4.158,10.081 C 2.5439999999999996,-4.7010000000000005 0.5099999999999998,-9.770000000000001 2.062,-10.396 C 5.991,-11.981000000000002 3.473,7.287 1.939,9.837 C 1.153,11.144 -4.158,10.081 -4.158,10.081 Z" id="path_34" inkscape:label="Path 1" style="fill-opacity:1.0;fill:rgb(209, 121, 56);fill-rule:nonzero"/>
            </g>
            <g id="g_35" inkscape:label="Group 2" transform="matrix(1.0, 0.0, 0.0, 1.0, 244.188, 475.872)" opacity="0.15" style="fill-opacity:1.0;fill:rgb(209, 121, 56);fill-rule:nonzero">
               <path d="M -4.093,-16.968 C 0.6589999999999998,-15.228 9.276,-8.167000000000002 -0.092,16.968 C -0.092,16.968 -4.093,-16.968 -4.093,-16.968 Z" id="path_36" inkscape:label="Path 1" style="fill-opacity:1.0;fill:rgb(209, 121, 56);fill-rule:nonzero"/>
            </g>
            <g id="g_37" inkscape:label="Group 1" transform="matrix(1.0, 0.0, 0.0, 1.0, 248.169, 354.751)" opacity="0.15" style="fill-opacity:1.0;fill:rgb(209, 121, 56);fill-rule:nonzero">
               <path d="M -5.501,18.042 C 4.706,10.316000000000003 12.379,-7.555 5.752,-15.645 C -0.875,-23.735 -8.228,-8.758 -8.228,-8.758 C -8.228,-8.758 0.17499999999999982,-15.184000000000001 2.649,-7.901 C 5.123,-0.6179999999999994 -6.638,11.769 -6.638,11.769 C -6.638,11.769 -5.501,18.042 -5.501,18.042 Z" id="path_38" inkscape:label="Path 1" style="fill-opacity:1.0;fill:rgb(209, 121, 56);fill-rule:nonzero"/>
            </g>
         </g>
         <g inkscape:groupmode="layer" id="g_39" inkscape:label="Group 3" transform="matrix(1.0, 0.0, 0.0, 1.0, 265.289, 408.876)" style="stroke:url(#Gradient_5e1G7t93YO);stroke-opacity:1.0;stroke-width:8.0;stroke-miterlimit:10.0;stroke-linecap:butt;stroke-linejoin:miter">
            <path d="M -18.031,-91.992 C -18.031,-91.992 -17.671999999999997,48.931000000000004 -17.624,74.206 C -17.567,103.86500000000001 17.747,94.107 17.686,62.376 " id="path_40" inkscape:label="Path 1" style=""/>
         </g>
         <g inkscape:groupmode="layer" id="g_41" inkscape:label="Group 2" transform="matrix(1.0, 0.0, 0.0, 1.0, 261.603, 408.788)" style="stroke:url(#Gradient_AHrgXfXCme);stroke-opacity:1.0;stroke-width:8.0;stroke-miterlimit:0;stroke-linecap:round;stroke-linejoin:round">
            <path d="M -17.627,-91.698 C -19.962999999999997,-91.439 -21.729,-89.467 -21.723,-87.117 C -21.663,-63.418000000000006 -21.365000000000002,55.129999999999995 -21.321,77.854 C -21.264000000000003,107.513 21.784,97.25999999999999 21.723,65.529 C 21.669,37.56999999999999 21.401999999999997,-66.539 21.339,-90.894 C 21.331999999999997,-93.632 18.95,-95.751 16.229,-95.449 C 16.229,-95.449 -17.627,-91.698 -17.627,-91.698 Z" id="path_42" inkscape:label="Path 1" style=""/>
         </g>
         <g inkscape:groupmode="layer" id="g_43" inkscape:label="Group 1" transform="matrix(1.0, 0.0, 0.0, 1.0, 265.436, 322.399)" style="fill-opacity:1.0;fill:rgb(68, 14, 0);fill-rule:nonzero;stroke:url(#Gradient_yJnC3SgH9W);stroke-opacity:1.0;stroke-width:8.0;stroke-miterlimit:0;stroke-linecap:round;stroke-linejoin:round">
            <path d="M 32.013,4.036 C 31.944999999999997,-1.8490000000000002 24.332,-7.041 23.242,-8.189 C 15.395,-16.451 -18.583,-11.632 -28.522,-5.627 C -30.534,-4.412 -32.041,-2.584 -32.035,-0.234 C -32.035,-0.234 -32.013,8.539 -32.013,8.539 C -32.013,8.539 -24.168,2.679 -18.155,3.808 C -13.143,4.749 -9.725999999999999,11.794 0.932,5.077 C 9.616,-0.3959999999999999 18.253999999999998,-1.6420000000000001 23.173,1.917 C 27.665999999999997,5.168 32.035,12.594 32.035,12.594 C 32.035,12.594 32.013,4.036 32.013,4.036 Z" id="path_44" inkscape:label="Path 1" style="fill-opacity:1.0;fill:rgb(68, 14, 0);fill-rule:nonzero"/>
         </g>
      </g>
   </g>
</svg>
