<?xml version="1.0" ?>
<svg xmlns:inkscape="http://www.inkscape.org/namespaces/inkscape" xmlns:sodipodi="http://sodipodi.sourceforge.net/DTD/sodipodi-0.dtd" xmlns:xlink="http://www.w3.org/1999/xlink" xmlns="http://www.w3.org/2000/svg" width="512" height="512" viewBox="0 0 512 512" version="1.1" id="CRYSTALL" sodipodi:docname="CRYSTALL" inkscape:export-xdpi="96" inkscape:export-ydpi="96" style="fill: none; stroke: none">
   <defs/>
   <sodipodi:namedview inkscape:pagecheckerboard="true" borderlayer="true" bordercolor="#666666" pagecolor="#ffffff"/>
   <g inkscape:groupmode="layer" id="Null_929" inkscape:label="Null 929" transform="matrix(1.06, 0.0, 0.0, 1.06, 235.0, 154.25)" opacity="1">
      <g inkscape:groupmode="layer" id="mid-perspective" inkscape:label="mid-perspective" transform="matrix(1.9942900000000001, 0.0, 0.0, 0.61504, -76.7145, -2.5020000000000024)" opacity="1">
         <g inkscape:groupmode="layer" id="mid-rot" inkscape:label="mid-rot" transform="matrix(-0.12186934340514737, -0.9925461516413221, 0.9925461516413221, -0.12186934340514737, 6.4661595881912675, 105.72077475232348)" opacity="1"/>
      </g>
      <g inkscape:groupmode="layer" id="mid-perspective_2" inkscape:label="mid-perspective 2" transform="matrix(1.4754800000000001, 0.0, 0.0, 0.45504, -50.774, -66.502)" opacity="1">
         <g inkscape:groupmode="layer" id="mid-rot_2" inkscape:label="mid-rot 2" transform="matrix(0.3189593092980698, -0.9477684100095858, 0.9477684100095858, 0.3189593092980698, -13.336385965382782, 81.44045503557581)" opacity="1">
            <g inkscape:groupmode="layer" id="top1" inkscape:label="top1" transform="matrix(1.0, 0.0, 0.0, 1.0, 47.156, 103.55799999999999)" style="">
               <g id="Shape_1" inkscape:label="Shape 1" transform="matrix(1.0, 0.0, 0.0, 1.0, 0.0, 0.0)" style="fill-opacity:1.0;fill:rgb(199, 234, 255);fill-rule:nonzero;stroke:rgb(199, 234, 255);stroke-opacity:1.0;stroke-width:2.0;stroke-miterlimit:0;stroke-linecap:round;stroke-linejoin:round">
                  <path d="M 3.063,-151.813 C 3.063,-151.813 -73.688,-114.5 -73.688,-114.5 C -73.688,-114.5 -92.688,-32.063 -92.688,-32.063 C -92.688,-32.063 -39.969,34.969 -39.969,34.969 C -39.969,34.969 45.969,34.969 45.969,34.969 C 45.969,34.969 98.375,-31.875 98.375,-31.875 C 98.375,-31.875 79.75,-114.625 79.75,-114.625 C 79.75,-114.625 3.063,-151.813 3.063,-151.813 Z" id="Path_1" inkscape:label="Path 1" style="fill-opacity:1.0;fill:rgb(199, 234, 255);fill-rule:nonzero"/>
               </g>
               <g id="Shape_2" inkscape:label="Shape 2" transform="matrix(1.0, 0.0, 0.0, 1.0, 0.0, 0.0)" style="">
                  <path d="M -87.41609999999999,-25.3598 C -87.41609999999999,-25.3598 -70.47070714285715,-3.813800000000006 -70.47070714285715,-3.813800000000006 " style=""/>
               </g>
               <g id="Shape_3" inkscape:label="Shape 3" transform="matrix(1.0, 0.0, 0.0, 1.0, 0.0, 0.0)" style="">
                  <path d="M -46.82247000000001,26.254839999999994 C -46.82247000000001,26.254839999999994 -44.49925983050848,29.20879254237288 -44.49925983050848,29.20879254237288 " style=""/>
               </g>
            </g>
         </g>
      </g>
      <g inkscape:groupmode="layer" id="polygon_B2" inkscape:label="polygon B2" transform="matrix(1.0, 0.0, 0.0, 1.0, 20.0, 81.75)" style="">
         <g id="stroke">
            <use xlink:href="#g_1" style="stroke:rgb(51, 171, 254);stroke-opacity:1.0;stroke-width:2.0;stroke-miterlimit:0;stroke-linecap:round;stroke-linejoin:round"/>
            <g id="g_1" inkscape:label="Shape 1" transform="matrix(1.0, 0.0, 0.0, 1.0, 0.0, 0.0)" style="fill-opacity:1.0;fill:rgb(51, 171, 254);fill-rule:nonzero">
               <path d="M 2.668,194.973 C 2.668,194.973 68.75,3.188 68.75,3.188 C 68.75,3.188 188.688,-34 188.688,-34 C 188.688,-34 2.668,194.973 2.668,194.973 Z" id="path_2" inkscape:label="Path 1" style="fill-opacity:1.0;fill:rgb(51, 171, 254);fill-rule:nonzero"/>
            </g>
         </g>
      </g>
      <g inkscape:groupmode="layer" id="polygon_B3" inkscape:label="polygon B3" transform="matrix(1.0, 0.0, 0.0, 1.0, 20.0, 81.75)" style="">
         <g id="g_5">
            <use xlink:href="#g_3" style="stroke:rgb(119, 216, 255);stroke-opacity:1.0;stroke-width:2.0;stroke-miterlimit:0;stroke-linecap:round;stroke-linejoin:round"/>
            <g id="g_3" inkscape:label="Shape 1" transform="matrix(1.0, 0.0, 0.0, 1.0, 0.0, 0.0)" style="fill-opacity:1.0;fill:rgb(119, 216, 255);fill-rule:nonzero">
               <path d="M 2.668,194.973 C 2.668,194.973 -99,-2.188 -99,-2.188 C -99,-2.188 68.75,3.188 68.75,3.188 C 68.75,3.188 2.668,194.973 2.668,194.973 Z" id="path_4" inkscape:label="Path 1" style="fill-opacity:1.0;fill:rgb(119, 216, 255);fill-rule:nonzero"/>
            </g>
         </g>
      </g>
      <g inkscape:groupmode="layer" id="polygon_B4" inkscape:label="polygon B4" transform="matrix(1.0, 0.0, 0.0, 1.0, 20.0, 81.75)" style="">
         <g id="g_8">
            <use xlink:href="#g_6" style="stroke:rgb(80, 185, 246);stroke-opacity:1.0;stroke-width:2.0;stroke-miterlimit:0;stroke-linecap:round;stroke-linejoin:round"/>
            <g id="g_6" inkscape:label="Shape 1" transform="matrix(1.0, 0.0, 0.0, 1.0, 0.0, 0.0)" style="fill-opacity:1.0;fill:rgb(80, 185, 246);fill-rule:nonzero">
               <path d="M 2.668,194.973 C 2.668,194.973 -99,-2.188 -99,-2.188 C -99,-2.188 -191.563,-46.25 -191.563,-46.25 C -191.563,-46.25 2.668,194.973 2.668,194.973 Z" id="path_7" inkscape:label="Path 1" style="fill-opacity:1.0;fill:rgb(80, 185, 246);fill-rule:nonzero"/>
            </g>
         </g>
      </g>
      <g inkscape:groupmode="layer" id="polygon_A1" inkscape:label="polygon A1" transform="matrix(1.0, 0.0, 0.0, 1.0, 20.0, 81.75)" style="">
         <g id="g_11">
            <use xlink:href="#g_9" style="stroke:rgb(63, 108, 190);stroke-opacity:1.0;stroke-width:2.0;stroke-miterlimit:0;stroke-linecap:round;stroke-linejoin:round"/>
            <g id="g_9" inkscape:label="Shape 1" transform="matrix(1.0, 0.0, 0.0, 1.0, 0.0, 0.0)" style="fill-opacity:1.0;fill:rgb(63, 108, 190);fill-rule:nonzero">
               <path d="M 147.151,-131.259 C 147.151,-131.259 188.706,-33.984 188.706,-33.984 C 188.706,-33.984 167.805,-86.483 167.805,-86.483 C 167.805,-86.483 147.151,-131.259 147.151,-131.259 Z" id="path_10" inkscape:label="Path 1" style="fill-opacity:1.0;fill:rgb(63, 108, 190);fill-rule:nonzero"/>
            </g>
         </g>
      </g>
      <g inkscape:groupmode="layer" id="polygon_A6" inkscape:label="polygon A6" transform="matrix(1.0, 0.0, 0.0, 1.0, 20.0, 81.75)" style="">
         <g id="g_14">
            <use xlink:href="#g_12" style="stroke:rgb(115, 201, 250);stroke-opacity:1.0;stroke-width:2.0;stroke-miterlimit:0;stroke-linecap:round;stroke-linejoin:round"/>
            <g id="g_12" inkscape:label="Shape 1" transform="matrix(1.0, 0.0, 0.0, 1.0, 0.0, 0.0)" style="fill-opacity:1.0;fill:rgb(115, 201, 250);fill-rule:nonzero">
               <path d="M -118.239,-101.339 C -118.239,-101.339 -191.54,-46.269 -191.54,-46.269 C -191.54,-46.269 -99.03,-2.213 -99.03,-2.213 C -99.03,-2.213 -118.239,-101.339 -118.239,-101.339 Z" id="path_13" inkscape:label="Path 1" style="fill-opacity:1.0;fill:rgb(115, 201, 250);fill-rule:nonzero"/>
            </g>
         </g>
      </g>
      <g inkscape:groupmode="layer" id="polygon_A7" inkscape:label="polygon A7" transform="matrix(1.0, 0.0, 0.0, 1.0, 20.0, 81.75)" style="">
         <g id="g_17">
            <use xlink:href="#g_15" style="stroke:rgb(98, 183, 246);stroke-opacity:1.0;stroke-width:2.0;stroke-miterlimit:0;stroke-linecap:round;stroke-linejoin:round"/>
            <g id="g_15" inkscape:label="Shape 1" transform="matrix(1.0, 0.0, 0.0, 1.0, 0.0, 0.0)" style="fill-opacity:1.0;fill:rgb(98, 183, 246);fill-rule:nonzero">
               <path d="M -11.899,-81.18 C -11.899,-81.18 -99.03,-2.213 -99.03,-2.213 C -99.03,-2.213 68.767,3.206 68.767,3.206 C 68.767,3.206 -11.899,-81.18 -11.899,-81.18 Z" id="path_16" inkscape:label="Path 1" style="fill-opacity:1.0;fill:rgb(98, 183, 246);fill-rule:nonzero"/>
            </g>
         </g>
      </g>
      <g inkscape:groupmode="layer" id="polygon_A8" inkscape:label="polygon A8" transform="matrix(1.0, 0.0, 0.0, 1.0, 20.0, 81.75)" style="">
         <g id="g_20">
            <use xlink:href="#g_18" style="stroke:rgb(118, 195, 253);stroke-opacity:1.0;stroke-width:2.0;stroke-miterlimit:0;stroke-linecap:round;stroke-linejoin:round"/>
            <g id="g_18" inkscape:label="Shape 1" transform="matrix(1.0, 0.0, 0.0, 1.0, 0.0, 0.0)" style="fill-opacity:1.0;fill:rgb(118, 195, 253);fill-rule:nonzero">
               <path d="M 106.678,-94.169 C 106.678,-94.169 68.767,3.206 68.767,3.206 C 68.767,3.206 188.706,-33.984 188.706,-33.984 C 188.706,-33.984 106.678,-94.169 106.678,-94.169 Z" id="path_19" inkscape:label="Path 1" style="fill-opacity:1.0;fill:rgb(118, 195, 253);fill-rule:nonzero"/>
            </g>
         </g>
      </g>
      <g inkscape:groupmode="layer" id="polygon_С2" inkscape:label="polygon С2" transform="matrix(1.0, 0.0, 0.0, 1.0, 20.0, 81.75)" style="">
         <g id="g_21" inkscape:label="Shape 1" transform="matrix(1.0, 0.0, 0.0, 1.0, 0.0, 0.0)" style="fill-opacity:1.0;fill:rgb(104, 187, 249);fill-rule:nonzero">
            <path d="M 68.767,3.206 C 68.767,3.206 106.678,-94.169 106.678,-94.169 C 106.678,-94.169 -11.899,-81.18 -11.899,-81.18 C -11.899,-81.18 68.767,3.206 68.767,3.206 Z" id="path_22" inkscape:label="Path 1" style="fill-opacity:1.0;fill:rgb(104, 187, 249);fill-rule:nonzero"/>
         </g>
      </g>
      <g inkscape:groupmode="layer" id="polygon_С3" inkscape:label="polygon С3" transform="matrix(1.0, 0.0, 0.0, 1.0, 20.0, 81.75)" style="">
         <g id="g_23" inkscape:label="Shape 1" transform="matrix(1.0, 0.0, 0.0, 1.0, 0.0, 0.0)" style="fill-opacity:1.0;fill:rgb(185, 230, 255);fill-rule:nonzero">
            <path d="M -99.03,-2.213 C -99.03,-2.213 -118.239,-101.339 -118.239,-101.339 C -118.239,-101.339 -11.899,-81.18 -11.899,-81.18 C -11.899,-81.18 -99.03,-2.213 -99.03,-2.213 Z" id="path_24" inkscape:label="Path 1" style="fill-opacity:1.0;fill:rgb(185, 230, 255);fill-rule:nonzero"/>
         </g>
      </g>
      <g inkscape:groupmode="layer" id="polygon_С4" inkscape:label="polygon С4" transform="matrix(1.0, 0.0, 0.0, 1.0, 20.0, 81.75)" style="">
         <g id="g_25" inkscape:label="Shape 1" transform="matrix(1.0, 0.0, 0.0, 1.0, 0.0, 0.0)" style="fill-opacity:1.0;fill:rgb(95, 176, 234);fill-rule:nonzero">
            <path d="M -191.54,-46.269 C -191.54,-46.269 -134.297,-139.855 -134.297,-139.855 C -134.297,-139.855 -118.239,-101.339 -118.239,-101.339 C -118.239,-101.339 -191.54,-46.269 -191.54,-46.269 Z" id="path_26" inkscape:label="Path 1" style="fill-opacity:1.0;fill:rgb(95, 176, 234);fill-rule:nonzero"/>
         </g>
      </g>
      <g inkscape:groupmode="layer" id="polygon_С7" inkscape:label="polygon С7" transform="matrix(1.0, 0.0, 0.0, 1.0, 20.0, 81.75)" style="">
         <g id="g_27" inkscape:label="Shape 1" transform="matrix(1.0, 0.0, 0.0, 1.0, 0.0, 0.0)" style="fill-opacity:1.0;fill:rgb(108, 184, 244);fill-rule:nonzero">
            <path d="M 188.706,-33.984 C 188.706,-33.984 106.678,-94.169 106.678,-94.169 C 106.678,-94.169 147.151,-131.259 147.151,-131.259 C 147.151,-131.259 188.706,-33.984 188.706,-33.984 Z" id="path_28" inkscape:label="Path 1" style="fill-opacity:1.0;fill:rgb(108, 184, 244);fill-rule:nonzero"/>
         </g>
      </g>
      <g inkscape:groupmode="layer" id="Refration_slow_" inkscape:label="Refration_slow " transform="matrix(1.0, 0.0, 0.0, 1.0, -236.0, -174.25)">
         <g inkscape:groupmode="layer" id="Refraction4" inkscape:label="Refraction4" transform="matrix(1.0, 0.0, 0.0, 1.0, 258.883, 270.477)" opacity="0.38" style="">
            <g id="Group_1" inkscape:label="Group 1" transform="matrix(1.0, 0.0, 0.0, 1.0, 5.0, 3.0)" style="fill-opacity:1.0;fill:rgb(0, 104, 255);fill-rule:nonzero">
               <path d="M 154.161,-50.125 C 154.161,-50.125 136.099,-28.131 136.099,-28.131 C 136.099,-28.131 -4.682,145.322 -4.682,145.322 C -4.682,145.322 -141.851,-26.272 -141.851,-26.272 C -141.851,-26.272 -169.051,-59.687 -169.051,-59.687 C -169.051,-59.687 -142.117,-102.984 -142.117,-102.984 C -142.117,-102.984 -119.964,-139.8 -119.964,-139.8 C -119.964,-139.8 -82.617,-151.222 -82.617,-151.222 C -82.617,-151.222 -45.429,-163.334 -45.429,-163.334 C -45.429,-163.334 5.836,-161.581 5.836,-161.581 C 5.836,-161.581 59.758,-160.04 59.758,-160.04 C 59.758,-160.04 93.971,-143.518 93.971,-143.518 C 93.971,-143.518 116.443,-132.787 116.443,-132.787 C 116.443,-132.787 134.239,-96.875 134.239,-96.875 C 134.239,-96.875 154.161,-50.125 154.161,-50.125 Z
M 181.896,-52.083 C 181.896,-52.083 158.438,-107.042 158.438,-107.042 C 158.438,-107.042 137.499,-149.34 137.499,-149.34 C 137.499,-149.34 111.038,-161.944 111.038,-161.944 C 111.038,-161.944 70.803,-181.39 70.803,-181.39 C 70.803,-181.39 7.406,-183.209 7.406,-183.209 C 7.406,-183.209 -52.928,-185.241 -52.928,-185.241 C -52.928,-185.241 -96.664,-171.023 -96.664,-171.023 C -96.664,-171.023 -140.609,-157.573 -140.609,-157.573 C -140.609,-157.573 -166.714,-114.26 -166.714,-114.26 C -166.714,-114.26 -198.353,-63.323 -198.353,-63.323 C -198.353,-63.323 -166.364,-24.01 -166.364,-24.01 C -166.364,-24.01 -5,177.875 -5,177.875 C -5,177.875 160.603,-26.157 160.603,-26.157 C 160.603,-26.157 181.896,-52.083 181.896,-52.083 Z" id="path_29" inkscape:label="Path 1" style="fill-opacity:1.0;fill:rgb(0, 104, 255);fill-rule:nonzero"/>
            </g>
         </g>
      </g>
      <g inkscape:groupmode="layer" id="highlits_slow_skim" inkscape:label="highlits_slow_skim" transform="matrix(1.0, 0.0, 0.0, 1.0, -236.0, -174.25)">
         <g inkscape:groupmode="layer" id="Highlights3" inkscape:label="Highlights3" transform="matrix(1.0, 0.0, 0.0, 1.0, 161.79661016949157, 0.0)" opacity="0.6" style="">
            <g id="Group_2" inkscape:label="Group 2" transform="matrix(1.0, 0.0, 0.0, 1.0, 231.013, 128.136)" opacity="0.0" style="fill-opacity:1.0;fill:rgb(255, 255, 255);fill-rule:nonzero">
               <path d="M -44.787,17.651 C -44.787,17.651 -69.755,35.463 -69.755,35.463 C -69.755,35.463 -65.054,34.912 -65.054,34.912 C -65.054,34.912 -65.116,35.08 -65.116,35.08 C -65.116,35.08 -45.025,17.721 -45.025,17.721 C -45.025,17.721 -44.778,17.497 -44.778,17.497 C -44.778,17.497 -44.787,17.651 -44.787,17.651 Z" id="path_30" inkscape:label="Path 1" style="fill-opacity:1.0;fill:rgb(255, 255, 255);fill-rule:nonzero"/>
            </g>
            <g id="g_31" inkscape:label="Group 1" transform="matrix(1.0, 0.0, 0.0, 1.0, 274.242, 130.909)" opacity="0.0" style="fill-opacity:1.0;fill:rgb(255, 255, 255);fill-rule:nonzero">
               <path d="M -5.779,2.716 C -5.779,2.716 -8.785,3.707 -8.785,3.707 C -8.785,3.707 -8.142,3.742 -8.142,3.742 C -8.142,3.742 -6.017,4.319 -6.017,4.319 C -6.017,4.319 -4.145,3.493 -4.145,3.493 C -4.145,3.493 -4.48,3.294 -4.48,3.294 C -4.48,3.294 -5.779,2.716 -5.779,2.716 Z" id="path_32" inkscape:label="Path 1" style="fill-opacity:1.0;fill:rgb(255, 255, 255);fill-rule:nonzero"/>
            </g>
         </g>
      </g>
      <g inkscape:groupmode="layer" id="outlines_slow" inkscape:label="outlines_slow" transform="matrix(1.0, 0.0, 0.0, 1.0, -236.0, -174.25)">
         <g inkscape:groupmode="layer" id="Outline_4" inkscape:label="Outline 4" transform="matrix(1.0, 0.0, 0.0, 1.0, 263.818, 273.48)" style="">
            <g id="g_33" inkscape:label="Group 1" transform="matrix(1.0, 0.0, 0.0, 1.0, 0.0, 0.0)" style="stroke:rgb(0, 88, 175);stroke-opacity:1.0;stroke-width:8.0;stroke-miterlimit:0;stroke-linecap:round;stroke-linejoin:round">
               <path d="M 181.896,-52.083 C 181.896,-52.083 158.438,-107.042 158.438,-107.042 C 158.438,-107.042 137.499,-149.34 137.499,-149.34 C 137.499,-149.34 111.038,-161.944 111.038,-161.944 C 111.038,-161.944 70.803,-181.39 70.803,-181.39 C 70.803,-181.39 7.406,-183.209 7.406,-183.209 C 7.406,-183.209 -52.928,-185.241 -52.928,-185.241 C -52.928,-185.241 -96.664,-171.023 -96.664,-171.023 C -96.664,-171.023 -140.609,-157.573 -140.609,-157.573 C -140.609,-157.573 -166.714,-114.26 -166.714,-114.26 C -166.714,-114.26 -198.353,-63.323 -198.353,-63.323 C -198.353,-63.323 -166.364,-24.01 -166.364,-24.01 C -166.364,-24.01 -5,177.875 -5,177.875 C -5,177.875 160.603,-26.157 160.603,-26.157 C 160.603,-26.157 181.896,-52.083 181.896,-52.083 Z" id="path_34" inkscape:label="Path 1" style=""/>
            </g>
         </g>
      </g>
      <g inkscape:groupmode="layer" id="edge_2_slow" inkscape:label="edge 2 slow" transform="matrix(1.0, 0.0, 0.0, 1.0, -236.0, -174.25)">
         <g inkscape:groupmode="layer" id="edge_2" inkscape:label="edge 2" transform="matrix(1.0, 0.0, 0.0, 1.0, 256.0, 263.5)" opacity="0.6" style="">
            <g id="g_35" inkscape:label="Group 1" transform="matrix(1.0, 0.0, 0.0, 1.0, 0.0, 0.0)" style="fill-opacity:1.0;fill:rgb(255, 255, 255);fill-rule:nonzero">
               <path d="M -145.55882352941177,-29.11764705882353 C -145.55882352941177,-29.11764705882353 -97.0,-6.560529411764707 -97.0,-6.560529411764707 C -97.0,-6.560529411764707 71.64564705882353,-0.2807647058823529 71.64564705882353,-0.2807647058823529 C 71.64564705882353,-0.2807647058823529 143.36376470588235,-26.34417647058823 143.36376470588235,-26.34417647058823 C 143.36376470588235,-26.34417647058823 70.53264705882353,-7.621764705882352 70.53264705882353,-7.621764705882352 C 70.53264705882353,-7.621764705882352 -95.91676470588234,-11.481352941176471 -95.91676470588234,-11.481352941176471 C -95.91676470588234,-11.481352941176471 -145.55882352941177,-29.11764705882353 -145.55882352941177,-29.11764705882353 " id="path_36" inkscape:label="Path 1" style="fill-opacity:1.0;fill:rgb(255, 255, 255);fill-rule:nonzero"/>
            </g>
         </g>
      </g>
      <g inkscape:groupmode="layer" id="blink" inkscape:label="blink" transform="matrix(1.0, 0.0, 0.0, 1.0, -251.0, -236.25)">
         <g inkscape:groupmode="layer" id="FX" inkscape:label="FX" transform="matrix(1.0, 0.0, 0.0, 1.0, -71.0, 80.00000000000003)" style="">
            <g id="g_37" inkscape:label="Group 2" transform="matrix(1.0, 0.0, 0.0, 1.0, 340.784, 159.146)" style="fill-opacity:1.0;fill:rgb(255, 255, 255);fill-rule:nonzero">
               <path d="M -0.018,-0.79 C -0.018,-0.79 0.09200000000000008,0.08600000000000001 -0.716,0.08 C -0.716,0.08 0.037,-0.03699999999999992 0.027,0.79 C 0.027,0.79 -0.06400000000000006,0.04 0.716,0.023 C 0.716,0.023 -0.018,0.18499999999999994 -0.018,-0.79 Z" id="path_38" inkscape:label="Path 1" style="fill-opacity:1.0;fill:rgb(255, 255, 255);fill-rule:nonzero"/>
            </g>
         </g>
         <g inkscape:groupmode="layer" id="lines" inkscape:label="lines" transform="matrix(1.0, 0.0, 0.0, 1.0, 185.0, 336.0)" style="">
            <g id="g_39" inkscape:label="Group 1" transform="matrix(1.0, 0.0, 0.0, 1.0, 0.0, 0.0)" style="">
               <g id="g_40" inkscape:label="Shape 1" transform="matrix(1.0, 0.0, 0.0, 1.0, 0.0, 0.0)" style=""/>
               <g id="g_41" inkscape:label="Shape 2" transform="matrix(1.0, 0.0, 0.0, 1.0, 0.0, 0.0)" style="">
                  <path d="M 117,-95.5 C 117,-95.5 208.5,-95.5 208.5,-95.5 " id="path_42" inkscape:label="Path 1" style=""/>
               </g>
               <g id="g_43" inkscape:label="Shape 3" transform="matrix(1.0, 0.0, 0.0, 1.0, 0.0, 0.0)" style="">
                  <path d="M 87,-64 C 87,-64 87,-7 87,-7 " id="path_44" inkscape:label="Path 1" style=""/>
               </g>
               <g id="Shape_4" inkscape:label="Shape 4" transform="matrix(1.0, 0.0, 0.0, 1.0, 0.0, 0.0)" style="">
                  <path d="M 52,-92.5 C 52,-92.5 -35,-91 -35,-91 " id="path_45" inkscape:label="Path 1" style=""/>
               </g>
            </g>
         </g>
         <g inkscape:groupmode="layer" id="Shape_Layer_1" inkscape:label="Shape Layer 1" transform="matrix(1.0, 0.0, 0.0, 1.0, 185.0, 336.0)" style="">
            <g id="Ellipse_1" inkscape:label="Ellipse 1" transform="matrix(1.0, 0.0, 0.0, 1.0, 85.0, -96.0)" style="">
               <path d="M 0,0 C 0,0 0,0 0,0 C 0,0 0,0 0,0 C 0,0 0,0 0,0 C 0,0 0,0 0,0 Z" id="path_46" inkscape:label="Path 1" style=""/>
            </g>
         </g>
      </g>
   </g>
</svg>
