<?xml version="1.0" ?>
<svg xmlns:inkscape="http://www.inkscape.org/namespaces/inkscape" xmlns:sodipodi="http://sodipodi.sourceforge.net/DTD/sodipodi-0.dtd" xmlns="http://www.w3.org/2000/svg" width="512" height="512" viewBox="0 0 512 512" version="1.1" id="svg_1" sodipodi:docname="26" inkscape:export-xdpi="96" inkscape:export-ydpi="96" style="fill: none; stroke: none">
   <defs>
      <linearGradient x1="11.092" y1="-147.579" x2="-2.273" y2="95.409" id="linearGradient_2" inkscape:label="26chill" gradientUnits="userSpaceOnUse">
         <stop offset="21.0%" stop-color="rgb(191, 255, 119)" stop-opacity="1"/>
         <stop offset="53.300000000000004%" stop-color="rgb(149, 246, 99)" stop-opacity="1"/>
         <stop offset="86.6%" stop-color="rgb(108, 236, 80)" stop-opacity="1"/>
      </linearGradient>
      <linearGradient x1="11.092" y1="-147.579" x2="-2.273" y2="95.409" id="linearGradient_4" inkscape:label="26chill" gradientUnits="userSpaceOnUse">
         <stop offset="21.0%" stop-color="rgb(191, 255, 119)" stop-opacity="1"/>
         <stop offset="53.300000000000004%" stop-color="rgb(149, 246, 99)" stop-opacity="1"/>
         <stop offset="86.6%" stop-color="rgb(108, 236, 80)" stop-opacity="1"/>
      </linearGradient>
      <linearGradient x1="-0.451" y1="81.522" x2="-0.451" y2="-39.744" id="linearGradient_6" inkscape:label="26wiii" gradientUnits="userSpaceOnUse">
         <stop offset="28.000000000000004%" stop-color="rgb(33, 107, 15)" stop-opacity="1"/>
         <stop offset="70.1%" stop-color="rgb(33, 107, 15)" stop-opacity="0.5"/>
         <stop offset="100%" stop-color="rgb(33, 107, 15)" stop-opacity="0"/>
      </linearGradient>
      <linearGradient x1="-0.451" y1="81.522" x2="-0.451" y2="-39.744" id="linearGradient_8" inkscape:label="26wiii" gradientUnits="userSpaceOnUse">
         <stop offset="28.000000000000004%" stop-color="rgb(33, 107, 15)" stop-opacity="1"/>
         <stop offset="70.1%" stop-color="rgb(33, 107, 15)" stop-opacity="0.5"/>
         <stop offset="100%" stop-color="rgb(33, 107, 15)" stop-opacity="0"/>
      </linearGradient>
      <linearGradient x1="-0.908" y1="187.421" x2="-0.908" y2="-189.108" id="linearGradient_22" inkscape:label="26paintrain" gradientUnits="userSpaceOnUse">
         <stop offset="11.799999999999999%" stop-color="rgb(41, 122, 24)" stop-opacity="1"/>
         <stop offset="26.6%" stop-color="rgb(49, 136, 33)" stop-opacity="1"/>
         <stop offset="41.4%" stop-color="rgb(57, 150, 43)" stop-opacity="1"/>
         <stop offset="83.0%" stop-color="rgb(97, 169, 57)" stop-opacity="1"/>
         <stop offset="100%" stop-color="rgb(138, 188, 71)" stop-opacity="1"/>
      </linearGradient>
      <radialGradient cx="0.285" cy="-0.422" r="58.018" fx="0.285" fy="-0.422" id="radialGradient_54" inkscape:label="26frodds" gradientUnits="userSpaceOnUse">
         <stop offset="0%" stop-color="rgb(255, 84, 255)" stop-opacity="1"/>
         <stop offset="55.50000000000001%" stop-color="rgb(255, 94, 255)" stop-opacity="0.5"/>
         <stop offset="92.60000000000001%" stop-color="rgb(255, 103, 255)" stop-opacity="0"/>
      </radialGradient>
      <radialGradient cx="0.285" cy="-0.422" r="58.018" fx="0.285" fy="-0.422" id="radialGradient_60" inkscape:label="26frodds" gradientUnits="userSpaceOnUse">
         <stop offset="0%" stop-color="rgb(255, 84, 255)" stop-opacity="1"/>
         <stop offset="55.50000000000001%" stop-color="rgb(255, 94, 255)" stop-opacity="0.5"/>
         <stop offset="92.60000000000001%" stop-color="rgb(255, 103, 255)" stop-opacity="0"/>
      </radialGradient>
      <radialGradient cx="0.362" cy="-0.422" r="58.018" fx="0.362" fy="-0.422" id="ooofsf26" inkscape:label="ooofsf26" gradientUnits="userSpaceOnUse">
         <stop offset="0%" stop-color="rgb(255, 84, 255)" stop-opacity="1"/>
         <stop offset="55.50000000000001%" stop-color="rgb(255, 94, 255)" stop-opacity="0.5"/>
         <stop offset="92.60000000000001%" stop-color="rgb(255, 103, 255)" stop-opacity="0"/>
      </radialGradient>
      <radialGradient cx="0.362" cy="-0.422" r="58.018" fx="0.362" fy="-0.422" id="radialGradient_67" inkscape:label="ooofsf26" gradientUnits="userSpaceOnUse">
         <stop offset="0%" stop-color="rgb(255, 84, 255)" stop-opacity="1"/>
         <stop offset="55.50000000000001%" stop-color="rgb(255, 94, 255)" stop-opacity="0.5"/>
         <stop offset="92.60000000000001%" stop-color="rgb(255, 103, 255)" stop-opacity="0"/>
      </radialGradient>
   </defs>
   <sodipodi:namedview inkscape:pagecheckerboard="true" borderlayer="true" bordercolor="#666666" pagecolor="#ffffff"/>
   <g inkscape:groupmode="layer" id="master" inkscape:label="master" transform="matrix(1.0, 0.0, 0.0, 1.0, 256.0, 417.0)" opacity="1">
      <g inkscape:groupmode="layer" id="impactrot" inkscape:label="impactrot" transform="matrix(1.0, 0.0, 0.0, 1.0, -40.0, 23.0)" opacity="1">
         <g inkscape:groupmode="layer" id="body" inkscape:label="body" transform="matrix(1.0, 0.0, 0.0, 1.0, -216.00000000000003, -440.0)" style="">
            <g inkscape:groupmode="layer" id="larm" inkscape:label="larm" transform="matrix(1.0, 0.0, 0.0, 1.0, 72.161, 363.866)" style="">
               <g id="Group_1" inkscape:label="Group 1" transform="matrix(1.0, 0.0, 0.0, 1.0, 0.0, 0.0)" style="fill-opacity:1.0;fill:rgb(67, 170, 34);fill-rule:nonzero;stroke:rgb(33, 107, 15);stroke-opacity:1.0;stroke-width:18.0;stroke-miterlimit:0;stroke-linecap:round;stroke-linejoin:round">
                  <path d="M -5.609,-61.865 C -5.609,-61.865 -16.360000000000003,12.378999999999998 -36.475,16.173 C -46.466,18.058 -61.473,23.593999999999998 -59.759,27.548 C -58.613,30.192 -43.931,35.498 -43.931,35.498 C -43.931,35.498 -50.659000000000006,47.353 -48.395,51.403 C -46.131,55.452 -22.392,52.321 -22.392,52.321 C -22.392,52.321 -21.033,58.794000000000004 -14.118,61.417 C -6.924,64.146 21.406999999999996,53.857 30.787,45.219 C 38.188,38.403 57.561,2.997 59.894,-34.431 " id="Path_1" inkscape:label="Path 1" style="fill-opacity:1.0;fill:rgb(67, 170, 34);fill-rule:nonzero"/>
               </g>
            </g>
            <g id="fill" inkscape:label="fill" transform="matrix(1.0, 0.0, 0.0, 1.0, 281.908, 264.579)" style="fill-opacity:1.0;fill:url(#linearGradient_2);fill-rule:nonzero">
               <path d="M -201.186,-13.933 C -228.54000000000002,-101.75299999999999 -174.892,-122.532 -174.892,-122.532 C -174.892,-122.532 -167.312,-170.79299999999998 -127.496,-177.325 C -96.86399999999999,-182.35 -81.924,-157.167 -81.924,-157.167 C -59.138000000000005,-158.99 -36.352,-156.256 -36.352,-156.256 C -36.352,-156.256 -12.927,-181.903 20.158,-179.042 C 72.054,-174.555 89.501,-124.137 94.97,-102.262 C 94.97,-102.262 233.046,-45.75800000000001 216.225,80.451 C 201.49599999999998,190.962 -82.244,195.074 -161.869,158.977 C -257.474,115.636 -201.186,-13.933 -201.186,-13.933 Z" id="path_3" inkscape:label="Path 1" style="fill-opacity:1.0;fill:url(#linearGradient_4);fill-rule:nonzero"/>
            </g>
            <g id="Group_8" inkscape:label="Group 8" transform="matrix(1.0, 0.0, 0.0, 1.0, 159.557, 178.138)" opacity="0.5" style="stroke:rgb(255, 247, 146);stroke-opacity:1.0;stroke-width:18.0;stroke-miterlimit:0;stroke-linecap:round;stroke-linejoin:round">
               <path d="M -73.656,-18.16 C -73.656,-18.16 -23.284999999999997,-36.091 73.656,20.838 " id="path_5" inkscape:label="Path 1" style=""/>
            </g>
            <g id="Group_7" inkscape:label="Group 7" transform="matrix(1.0, 0.0, 0.0, 1.0, 278.451, 359.478)" opacity="0.3" style="fill-opacity:1.0;fill:url(#linearGradient_6);fill-rule:nonzero">
               <path d="M 214.186,4.39 C 171.505,96.41 -83.58500000000001,97.99099999999999 -158.407,64.073 C -227.97500000000002,32.541999999999994 -217.121,-44.666 -206.047,-84.36 C -208.213,34.357 3.358000000000004,38.407 108.876,-16.736 C 108.876,-16.736 214.186,4.39 214.186,4.39 Z" id="path_7" inkscape:label="Path 1" style="fill-opacity:1.0;fill:url(#linearGradient_8);fill-rule:nonzero"/>
            </g>
            <g id="Group_6" inkscape:label="Group 6" transform="matrix(1.0, 0.0, 0.0, 1.0, 443.233, 252.283)" style="">
               <g id="g_9" inkscape:label="Group 1" transform="matrix(1.0, 0.0, 0.0, 1.0, 0.0, 0.0)" style="fill-opacity:1.0;fill:rgb(57, 150, 43);fill-rule:nonzero">
                  <path d="M -29.348,-69.426 C -58.425,-81.772 -72.957,12.296 0.995,57.278 C 56.448,91.008 53.002,49.718 53.002,49.718 C 53.002,49.718 41.352999999999994,-39.406000000000006 -29.348,-69.426 Z" id="path_10" inkscape:label="Path 1" style="fill-opacity:1.0;fill:rgb(57, 150, 43);fill-rule:nonzero"/>
               </g>
            </g>
            <g id="high" inkscape:label="high" transform="matrix(0.99393, 0.0, 0.0, 0.93313, 282.81, 227.586)" opacity="0.5" style="stroke:rgb(255, 247, 146);stroke-opacity:1.0;stroke-width:18.0;stroke-miterlimit:0;stroke-linecap:round;stroke-linejoin:round">
               <path d="M -208.179739216,-27.322908246 C -203.3825521,-67.4658709 -174.793,-78.539 -174.793,-78.539 C -174.793,-78.539 -167.214,-126.8 -127.398,-133.332 C -96.76599999999999,-138.357 -81.826,-113.174 -81.826,-113.174 C -59.03999999999999,-114.997 -36.254,-112.263 -36.254,-112.263 C -36.254,-112.263 10.352185567010313,-131.05557731958766 10.352185567010313,-131.05557731958766 " style=""/>
            </g>
            <g id="new_mouth" inkscape:label="new mouth" transform="matrix(1.0, 0.0, 0.0, 1.0, -577.0, 274.0)" style="">
               <g id="еблец2" inkscape:label="еблец2" transform="matrix(1.0, 0.0, 0.0, 1.0, 0.0, 0.0)" style="">
                  <g id="губы_2" inkscape:label="губы 2" transform="matrix(1.0, 0.0, 0.0, 1.0, 0.0, 0.0)" opacity="0.0" style="">
                     <g id="g_11" inkscape:label="Group 7" transform="matrix(1.0, 0.0, 0.0, 1.0, 760.749, -18.852)" opacity="0.5" style="stroke:rgb(93, 178, 38);stroke-opacity:1.0;stroke-width:18;stroke-miterlimit:0;stroke-linecap:round;stroke-linejoin:round">
                        <path d="M -84.315,-72.18 C -84.315,-72.18 -76.72399999999999,-82.043 -68.999,-70.539 " id="path_12" inkscape:label="Path 1" style=""/>
                     </g>
                     <g id="g_13" inkscape:label="Group 6" transform="matrix(1.0, 0.0, 0.0, 1.0, 767.911, -47.425)" style="stroke:rgb(93, 178, 38);stroke-opacity:1.0;stroke-width:18.0;stroke-miterlimit:0;stroke-linecap:round;stroke-linejoin:round">
                        <path d="M -82.81,-84.511 C -76.661,-82.07499999999999 -80.96000000000001,-86.606 -53.74,-80.14 C -7.160000000000004,-69.075 8.340000000000003,-52.074000000000005 30.734,-37.648 " id="path_14" inkscape:label="Path 1" style=""/>
                     </g>
                     <g id="Group_5" inkscape:label="Group 5" transform="matrix(1.0, 0.0, 0.0, 1.0, 774.744, -72.321)" style="stroke:rgb(93, 178, 38);stroke-opacity:1.0;stroke-width:18.0;stroke-miterlimit:0;stroke-linecap:round;stroke-linejoin:round">
                        <path d="M -88.244,-60.432 C -75.994,-58.304 -79.645,-58.83 -69.122,-57.028 C -56.869,-54.93 -62.727000000000004,-56.066 -36.901,-47.906 C -20.005000000000003,-42.567 7.006,-30.929 33.866,-2.65 " id="path_15" inkscape:label="Path 1" style=""/>
                     </g>
                     <g id="Group_4" inkscape:label="Group 4" transform="matrix(1.0, 0.0, 0.0, 1.0, 639.601, -48.329)" opacity="0.7" style="stroke:rgb(93, 178, 38);stroke-opacity:1.0;stroke-width:18.0;stroke-miterlimit:0;stroke-linecap:round;stroke-linejoin:round">
                        <path d="M 46.253,-89.941 C 46.253,-89.941 44.883,-84.184 44.883,-84.184 " id="path_16" inkscape:label="Path 1" style=""/>
                     </g>
                     <g id="Group_3" inkscape:label="Group 3" transform="matrix(1.0, 0.0, 0.0, 1.0, 910.817, -44.036)" opacity="0.7" style="stroke:rgb(93, 178, 38);stroke-opacity:1.0;stroke-width:18.0;stroke-miterlimit:0;stroke-linecap:round;stroke-linejoin:round">
                        <path d="M -101.392,-31.467 C -101.392,-31.467 -101.067,-32.214 -101.606,-32.175 " id="path_17" inkscape:label="Path 1" style=""/>
                     </g>
                  </g>
                  <g id="g_18" inkscape:label="Group 1" transform="matrix(1.0, 0.0, 0.0, 1.0, 756.62, 26.556)" opacity="0.2" style="fill-opacity:1.0;fill:rgb(57, 150, 43);fill-rule:nonzero">
                     <path d="M 6.81,-30.41 C 6.962999999999999,-45.976 -20.145,-32.27 -48.619,-41.941 C -75.756,-51.158 -71.869,-13.807 -36.614,-10.053 C -7.153999999999996,-6.916 6.736999999999999,-22.998 6.81,-30.41 Z" id="path_19" inkscape:label="Path 1" style="fill-opacity:1.0;fill:rgb(57, 150, 43);fill-rule:nonzero"/>
                  </g>
                  <g id="Group_2" inkscape:label="Group 2" transform="matrix(1.0, 0.0, 0.0, 1.0, 777.124, -56.836)" style="stroke:rgb(16, 53, 27);stroke-opacity:1.0;stroke-width:18.0;stroke-miterlimit:0;stroke-linecap:round;stroke-linejoin:round">
                     <path d="M -92.765,-75.64 C -92.765,-75.64 -16.624000000000002,-70.66499999999999 31.765,-17.932 " id="path_20" inkscape:label="Path 1" style=""/>
                  </g>
               </g>
            </g>
            <g id="outline" inkscape:label="outline" transform="matrix(1.0, 0.0, 0.0, 1.0, 281.908, 264.579)" style="stroke:url(#linearGradient_22);stroke-opacity:1.0;stroke-width:18.0;stroke-miterlimit:0;stroke-linecap:round;stroke-linejoin:round">
               <path d="M -201.186,-13.933 C -228.54000000000002,-101.75299999999999 -174.892,-122.532 -174.892,-122.532 C -174.892,-122.532 -167.312,-170.79299999999998 -127.496,-177.325 C -96.86399999999999,-182.35 -81.924,-157.167 -81.924,-157.167 C -59.138000000000005,-158.99 -36.352,-156.256 -36.352,-156.256 C -36.352,-156.256 -12.927,-181.903 20.158,-179.042 C 72.054,-174.555 89.501,-124.137 94.97,-102.262 C 94.97,-102.262 233.046,-45.75800000000001 216.225,80.451 C 201.49599999999998,190.962 -82.244,195.074 -161.869,158.977 C -257.474,115.636 -201.186,-13.933 -201.186,-13.933 Z" id="path_21" inkscape:label="Path 1" style=""/>
            </g>
            <g id="det" inkscape:label="det" transform="matrix(1.0, 0.0, 0.0, 1.0, 408.545, 307.728)" opacity="0.5" style="fill-opacity:1.0;fill:rgb(57, 150, 43);fill-rule:nonzero">
               <path d="M 0.847,8.789 C 9.594,8.214 14.723,-6.833000000000001 0.628,-8.694 C -13.467,-10.555000000000001 -12.067,9.638 0.847,8.789 Z" id="path_23" inkscape:label="Path 1" style="fill-opacity:1.0;fill:rgb(57, 150, 43);fill-rule:nonzero"/>
            </g>
            <g inkscape:groupmode="layer" id="kiss" inkscape:label="kiss" transform="matrix(1.0, 0.0, 0.0, 1.0, 0.0, 0.0)" style="">
               <g id="g_24" inkscape:label="Group 2" transform="matrix(1.0, 0.0, 0.0, 1.0, 319.371, 249.755)" style="fill-opacity:1.0;fill:rgb(255, 61, 61);fill-rule:nonzero">
                  <path d="M -9.382,-21.581 C -15.811,-19.633 -21.376,-24.054 -29.658,-20.907 C -42.386,-16.070999999999998 -68.498,24.755 -58.073,31.22 C -51.12,35.532 -23.826999999999998,19.57 -9.852,14.125 C 4.122999999999999,8.68 11.640999999999998,4.357 36.419,2.874 C 52.196,1.9290000000000003 60.483000000000004,-1.1959999999999997 60.475,-6.27 C 60.459,-16.832 23.311,-32.256 7.257,-31.946 C -2.981,-31.748 -1.1020000000000003,-24.09 -9.382,-21.581 Z" id="path_25" inkscape:label="Path 1" style="fill-opacity:1.0;fill:rgb(255, 61, 61);fill-rule:nonzero"/>
               </g>
               <g id="g_26" inkscape:label="Group 1" transform="matrix(1.0, 0.0, 0.0, 1.0, 329.127, 290.884)" style="fill-opacity:1.0;fill:rgb(255, 61, 61);fill-rule:nonzero">
                  <path d="M 2.853,-5.764 C 2.853,-5.764 -16.359,-14.739 -37.524,-4.822 C -56.758,4.19 -56.499,9.491 -54.795,11.754 C -53.091,14.017 -28.777,25.849 -5.448,25.337 C 13.933,24.911 25.451,19.302 37.061,9.84 C 48.671,0.3780000000000001 56.24700000000001,-20.020999999999997 55.468,-23.028 C 54.689,-26.035 19.036,-30.265 2.853,-5.764 Z" id="path_27" inkscape:label="Path 1" style="fill-opacity:1.0;fill:rgb(255, 61, 61);fill-rule:nonzero"/>
               </g>
            </g>
            <g inkscape:groupmode="layer" id="rfeet" inkscape:label="rfeet" transform="matrix(1.0, 0.0, 0.0, 1.0, 0.0, 0.0)" style="">
               <g id="g_28" inkscape:label="Group 4" transform="matrix(1.0, 0.0, 0.0, 1.0, 398.055, 397.886)" style="fill-opacity:1.0;fill:rgb(109, 236, 81);fill-rule:nonzero">
                  <path d="M 13.25,-60.245 C 13.25,-60.245 -11.625,-50.376 -48.538,-1.547 C -48.538,-1.547 -68.098,-13.995 -68.098,-13.995 C -68.098,-13.995 -75.679,5.564 -75.679,5.564 C -75.679,5.564 -98.18,7.341 -98.18,7.341 C -98.18,7.341 -88.933,45.957 -62.706,58.301 C -43.229,67.468 77.41900000000001,45.958000000000006 98.18,-43.728 " id="path_29" inkscape:label="Path 1" style="fill-opacity:1.0;fill:rgb(109, 236, 81);fill-rule:nonzero"/>
               </g>
               <g id="g_30" inkscape:label="Group 3" transform="matrix(1.0, 0.0, 0.0, 1.0, 353.178, 378.098)" opacity="0.5" style="stroke:rgb(255, 247, 146);stroke-opacity:1.0;stroke-width:18.0;stroke-miterlimit:0;stroke-linecap:round;stroke-linejoin:round">
                  <path d="M -53.304,27.129 C -53.304,27.129 -26.343,37.941 -26.343,37.941 C -26.343,37.941 -17.693,23.524 -17.693,23.524 C -17.693,23.524 -1.075,33.09 -1.075,33.09 C -1.075,33.09 17.138000000000005,3.9909999999999997 53.304,-37.941 " id="path_31" inkscape:label="Path 1" style=""/>
               </g>
               <g id="g_32" inkscape:label="Group 2" transform="matrix(1.0, 0.0, 0.0, 1.0, 398.055, 397.886)" style="stroke:rgb(52, 137, 34);stroke-opacity:1.0;stroke-width:18.0;stroke-miterlimit:0;stroke-linecap:round;stroke-linejoin:round">
                  <path d="M 13.25,-60.245 C 13.25,-60.245 -11.625,-50.376 -48.538,-1.547 C -48.538,-1.547 -68.098,-13.995 -68.098,-13.995 C -68.098,-13.995 -75.679,5.564 -75.679,5.564 C -75.679,5.564 -98.18,7.341 -98.18,7.341 C -98.18,7.341 -88.933,45.957 -62.706,58.301 C -43.229,67.468 77.41900000000001,45.958000000000006 98.18,-43.728 " id="path_33" inkscape:label="Path 1" style=""/>
               </g>
               <g id="g_34" inkscape:label="Group 1" transform="matrix(1.0, 0.0, 0.0, 1.0, 449.72, 359.864)" opacity="0.5" style="fill-opacity:1.0;fill:rgb(57, 150, 43);fill-rule:nonzero">
                  <path d="M -4.98,22.067 C 18.96,25.228 27.494,-20.484 5.234,-22.175 C -17.026000000000003,-23.866 -28.92,18.906 -4.98,22.067 Z" id="path_35" inkscape:label="Path 1" style="fill-opacity:1.0;fill:rgb(57, 150, 43);fill-rule:nonzero"/>
               </g>
            </g>
            <g inkscape:groupmode="layer" id="rarm" inkscape:label="rarm" transform="matrix(1.0, 0.0, 0.0, 1.0, 0.0, 0.0)" style="">
               <g id="g_36" inkscape:label="Group 3" transform="matrix(1.0, 0.0, 0.0, 1.0, 171.463, 396.338)" style="fill-opacity:1.0;fill:rgb(109, 236, 81);fill-rule:nonzero">
                  <path d="M -13.631,-63.118 C -13.631,-63.118 -16.360000000000003,13.631999999999998 -36.475,17.426 C -46.466,19.311 -61.473,24.848 -59.759,28.802 C -58.613,31.445999999999998 -43.931,36.751 -43.931,36.751 C -43.931,36.751 -50.659000000000006,48.607 -48.395,52.657 C -46.131,56.705999999999996 -22.392,53.574 -22.392,53.574 C -22.392,53.574 -21.033,60.048 -14.118,62.671 C -6.924,65.4 21.406999999999996,55.111 30.787,46.473 C 38.188,39.657 57.561,4.250999999999998 59.894,-33.177 " id="path_37" inkscape:label="Path 1" style="fill-opacity:1.0;fill:rgb(109, 236, 81);fill-rule:nonzero"/>
               </g>
               <g id="g_38" inkscape:label="Group 2" transform="matrix(1.0, 0.0, 0.0, 1.0, 138.977, 380.701)" opacity="0.5" style="stroke:rgb(255, 247, 146);stroke-opacity:1.0;stroke-width:18.0;stroke-miterlimit:0;stroke-linecap:round;stroke-linejoin:round">
                  <path d="M -23.277,47.359 C -23.277,47.359 10.639,49.905 16.023,31.799 C 30.485,-16.835 18.855,-47.481 18.855,-47.481 " id="path_39" inkscape:label="Path 1" style=""/>
               </g>
               <g id="g_40" inkscape:label="Group 1" transform="matrix(1.0, 0.0, 0.0, 1.0, 171.463, 396.338)" style="stroke:rgb(52, 141, 37);stroke-opacity:1.0;stroke-width:18.0;stroke-miterlimit:0;stroke-linecap:round;stroke-linejoin:round">
                  <path d="M -13.631,-63.118 C -13.631,-63.118 -16.360000000000003,13.631999999999998 -36.475,17.426 C -46.466,19.311 -61.473,24.848 -59.759,28.802 C -58.613,31.445999999999998 -43.931,36.751 -43.931,36.751 C -43.931,36.751 -50.659000000000006,48.607 -48.395,52.657 C -46.131,56.705999999999996 -22.392,53.574 -22.392,53.574 C -22.392,53.574 -21.033,60.048 -14.118,62.671 C -6.924,65.4 21.406999999999996,55.111 30.787,46.473 C 38.188,39.657 57.561,4.250999999999998 59.894,-33.177 " id="path_41" inkscape:label="Path 1" style=""/>
               </g>
            </g>
            <g inkscape:groupmode="layer" id="ебало" inkscape:label="ебало" transform="matrix(1.0, 0.0, 0.0, 1.0, 193.0, 162.0)" opacity="1">
               <g inkscape:groupmode="layer" id="eyer" inkscape:label="eyer" transform="matrix(1.0, 0.0, 0.0, 1.0, -193.0, -162.0)" style="">
                  <g id="Group_16" inkscape:label="Group 16" transform="matrix(1.0, 0.0, 0.0, 1.0, 653.839, -92.058)" opacity="0.5" style="stroke:rgb(93, 178, 38);stroke-opacity:1.0;stroke-width:18.0;stroke-miterlimit:0;stroke-linecap:round;stroke-linejoin:round">
                     <path d="M -353.587,283.012 C -353.587,283.012 -337.656,290.455 -325.392,268.863 " id="path_42" inkscape:label="Path 1" style=""/>
                  </g>
                  <g id="g_43" inkscape:label="Group 2" transform="matrix(1.0, 0.0, 0.0, 1.0, 300.633, 162.716)" style="fill-opacity:1.0;fill:rgb(255, 255, 255);fill-rule:nonzero;stroke:rgb(16, 53, 27);stroke-opacity:1.0;stroke-width:18.0;stroke-miterlimit:0;stroke-linecap:round;stroke-linejoin:round">
                     <path d="M 0,-42.405 C 23.42,-42.405 42.405,-23.42 42.405,0 C 42.405,23.42 23.42,42.405 0,42.405 C -23.42,42.405 -42.405,23.42 -42.405,0 C -42.405,-23.42 -23.42,-42.405 0,-42.405 Z" id="path_44" inkscape:label="Path 1" style="fill-opacity:1.0;fill:rgb(255, 255, 255);fill-rule:nonzero"/>
                  </g>
                  <g id="g_45" inkscape:label="Group 1" transform="matrix(1.0, 0.0, 0.0, 1.0, 300.633, 162.716)" style="fill-opacity:1.0;fill:rgb(16, 53, 27);fill-rule:nonzero">
                     <path d="M 0,-24.409 C 13.481,-24.409 24.409,-13.481 24.409,0 C 24.409,13.481 13.481,24.409 0,24.409 C -13.481,24.409 -24.409,13.481 -24.409,0 C -24.409,-13.481 -13.481,-24.409 0,-24.409 Z" id="path_46" inkscape:label="Path 1" style="fill-opacity:1.0;fill:rgb(16, 53, 27);fill-rule:nonzero"/>
                  </g>
               </g>
               <g inkscape:groupmode="layer" id="eyel" inkscape:label="eyel" transform="matrix(1.0, 0.0, 0.0, 1.0, -769.0, 112.0)" style="">
                  <g id="g_47" inkscape:label="Group 4" transform="matrix(1.0, 0.0, 0.0, 1.0, 0.0, 0.0)" style="">
                     <g id="глоз2" inkscape:label="глоз2" transform="matrix(1.0, 0.0, 0.0, 1.0, 0.0, 0.0)" style="">
                        <g id="g_48" inkscape:label="Group 16" transform="matrix(1.0, 0.0, 0.0, 1.0, 653.839, -92.058)" opacity="0.5" style="">
                           <path d="M 32.196,-53.295 C 32.196,-53.295 27.334000000000003,-41.048 28.818,-44.575 " id="path_49" inkscape:label="Path 1" style=""/>
                        </g>
                        <g id="Group_11" inkscape:label="Group 11" transform="matrix(1.0, 0.0, 0.0, 1.0, 667.61, -129.265)" style="fill-opacity:1.0;fill:rgb(255, 255, 255);fill-rule:nonzero">
                           <path d="M 24.319,-29.009 C 19.089,-21.25 17.252000000000002,-13.058 16.984,-12.297 C 16.716,-11.536000000000001 18.589000000000002,-18.631 23.37,-26.675 C 28.151,-34.719 32.6,-41.127 33.023,-41.814 C 33.446000000000005,-42.501 29.549,-36.768 24.319,-29.009 Z" id="path_50" inkscape:label="Path 1" style="fill-opacity:1.0;fill:rgb(255, 255, 255);fill-rule:nonzero"/>
                        </g>
                        <g id="Group_10" inkscape:label="Group 10" transform="matrix(1.0, 0.0, 0.0, 1.0, 658.375, -130.145)" style="fill-opacity:1.0;fill:rgb(16, 53, 27);fill-rule:nonzero">
                           <path d="M 33.337,-27.777 C 31.104000000000003,-24.464000000000002 29.955,-20.835 29.955,-20.835 C 29.955,-20.835 30.45,-23.401 32.683,-26.714 C 34.916,-30.026999999999997 37.054,-33.245 37.054,-33.245 C 37.054,-33.245 35.57,-31.09 33.337,-27.777 Z" id="path_51" inkscape:label="Path 1" style="fill-opacity:1.0;fill:rgb(16, 53, 27);fill-rule:nonzero"/>
                        </g>
                     </g>
                  </g>
               </g>
               <g inkscape:groupmode="layer" id="складк" inkscape:label="складк" transform="matrix(1.0, 0.0, 0.0, 1.0, -769.0, 132.0)" style="">
                  <g id="g_52" inkscape:label="Group 4" transform="matrix(1.0, 0.0, 0.0, 1.0, 0.0, 0.0)" style="">
                     <g id="складка" inkscape:label="складка" transform="matrix(1.0, 0.0, 0.0, 1.0, 774.503, -150.824)" opacity="0.3" style="">
                        <path d="M -32.387,-1.467 C -32.387,-1.467 -5.543999999999997,9.536 32.387,-2.999 " id="path_53" inkscape:label="Path 1" style=""/>
                     </g>
                  </g>
               </g>
               <g inkscape:groupmode="layer" id="щеки" inkscape:label="щеки" transform="matrix(0.76813, 0.0, 0.0, 1.0, -624.3046958699999, 112.0)" opacity="0.0" style="">
                  <g id="щекаЛ" inkscape:label="щекаЛ" transform="matrix(1.0, 0.0, 0.0, 1.0, 592.799, -68.321)" style="fill-opacity:0.4;fill:url(#radialGradient_54);fill-rule:nonzero">
                     <g id="g_55" inkscape:label="Group 3" transform="matrix(1.0, 0.0, 0.0, 1.0, -960.0, 80.0)" style="">
                        <g id="g_56" inkscape:label="Group 2" transform="matrix(1.0, 0.0, 0.0, 1.0, 945.174, -76.861)" style="stroke:rgb(255, 143, 231);stroke-opacity:1.0;stroke-width:18.0;stroke-miterlimit:0;stroke-linecap:round;stroke-linejoin:round">
                           <path d="M 5.127,-10.082 C 5.127,-10.082 -5.127,10.082 -5.127,10.082 " id="path_57" inkscape:label="Path 1" style=""/>
                        </g>
                        <g id="g_58" inkscape:label="Group 1" transform="matrix(1.0, 0.0, 0.0, 1.0, 976.141, -76.861)" style="stroke:rgb(255, 143, 231);stroke-opacity:1.0;stroke-width:18.0;stroke-miterlimit:0;stroke-linecap:round;stroke-linejoin:round">
                           <path d="M 5.127,-10.082 C 5.127,-10.082 -5.127,10.082 -5.127,10.082 " id="path_59" inkscape:label="Path 1" style=""/>
                        </g>
                     </g>
                     <ellipse rx="58.018" ry="58.018" cx="0" cy="0" id="Ellipse_Path_1" inkscape:label="Ellipse Path 1" style="fill-opacity:0.4;fill:url(#radialGradient_60);fill-rule:nonzero"/>
                  </g>
               </g>
               <g inkscape:groupmode="layer" id="щеки_2" inkscape:label="щеки 2" transform="matrix(1.0, 0.0, 0.0, 1.0, -769.0, 112.0)" opacity="0.0" style="">
                  <g id="щекаП" inkscape:label="щекаП" transform="matrix(1.0, 0.0, 0.0, 1.0, 959.721, -76.321)" style="fill-opacity:0.49;fill:url(#ooofsf26);fill-rule:nonzero">
                     <g id="g_61" inkscape:label="Group 3" transform="matrix(1.0, 0.0, 0.0, 1.0, -960.0, 80.0)" style="">
                        <g id="g_62" inkscape:label="Group 2" transform="matrix(1.0, 0.0, 0.0, 1.0, 945.174, -76.861)" style="stroke:rgb(255, 143, 231);stroke-opacity:1.0;stroke-width:18.0;stroke-miterlimit:0;stroke-linecap:round;stroke-linejoin:round">
                           <path d="M 5.127,-10.082 C 5.127,-10.082 -5.127,10.082 -5.127,10.082 " id="path_63" inkscape:label="Path 1" style=""/>
                        </g>
                        <g id="g_64" inkscape:label="Group 1" transform="matrix(1.0, 0.0, 0.0, 1.0, 976.141, -76.861)" style="stroke:rgb(255, 143, 231);stroke-opacity:1.0;stroke-width:18.0;stroke-miterlimit:0;stroke-linecap:round;stroke-linejoin:round">
                           <path d="M 5.127,-10.082 C 5.127,-10.082 -5.127,10.082 -5.127,10.082 " id="path_65" inkscape:label="Path 1" style=""/>
                        </g>
                     </g>
                     <path d="M 58.018,0 C 58.018,32.042 32.042,58.018 0,58.018 C -32.043,58.018 -58.018,32.042 -58.018,0 C -58.018,-32.042 -32.043,-58.018 0,-58.018 C 32.042,-58.018 58.018,-32.042 58.018,0 Z" id="path_66" inkscape:label="Path 1" style="fill-opacity:0.49;fill:url(#radialGradient_67);fill-rule:nonzero"/>
                  </g>
               </g>
            </g>
         </g>
      </g>
   </g>
</svg>
