<?xml version="1.0" ?>
<svg xmlns:inkscape="http://www.inkscape.org/namespaces/inkscape" xmlns:sodipodi="http://sodipodi.sourceforge.net/DTD/sodipodi-0.dtd" xmlns="http://www.w3.org/2000/svg" width="512" height="512" viewBox="0 0 512 512" version="1.1" id="Light_Saber" sodipodi:docname="Light Saber" inkscape:export-xdpi="96" inkscape:export-ydpi="96" style="fill: none; stroke: none">
   <defs>
      <linearGradient x1="19" y1="4.523" x2="-31.15" y2="-8.529" id="Gradient_Fill_1" inkscape:label="Gradient Fill 1" gradientUnits="userSpaceOnUse">
         <stop offset="0%" stop-color="rgb(190, 204, 228)" stop-opacity="1"/>
         <stop offset="50.0%" stop-color="rgb(129, 153, 179)" stop-opacity="1"/>
         <stop offset="100%" stop-color="rgb(68, 102, 130)" stop-opacity="1"/>
      </linearGradient>
      <linearGradient x1="19" y1="4.523" x2="-31.15" y2="-8.529" id="linearGradient_13" inkscape:label="Gradient Fill 1" gradientUnits="userSpaceOnUse">
         <stop offset="0%" stop-color="rgb(190, 204, 228)" stop-opacity="1"/>
         <stop offset="50.0%" stop-color="rgb(129, 153, 179)" stop-opacity="1"/>
         <stop offset="100%" stop-color="rgb(68, 102, 130)" stop-opacity="1"/>
      </linearGradient>
      <linearGradient x1="10.001" y1="19.893" x2="-7.202" y2="-14.235" id="linearGradient_14" inkscape:label="Gradient Fill 1" gradientUnits="userSpaceOnUse">
         <stop offset="0%" stop-color="rgb(68, 102, 130)" stop-opacity="1"/>
         <stop offset="50.0%" stop-color="rgb(34, 51, 65)" stop-opacity="1"/>
         <stop offset="100%" stop-color="rgb(0, 0, 0)" stop-opacity="1"/>
      </linearGradient>
      <linearGradient x1="10.001" y1="19.893" x2="-7.202" y2="-14.235" id="linearGradient_16" inkscape:label="Gradient Fill 1" gradientUnits="userSpaceOnUse">
         <stop offset="0%" stop-color="rgb(68, 102, 130)" stop-opacity="1"/>
         <stop offset="50.0%" stop-color="rgb(34, 51, 65)" stop-opacity="1"/>
         <stop offset="100%" stop-color="rgb(0, 0, 0)" stop-opacity="1"/>
      </linearGradient>
      <linearGradient x1="-14" y1="48.526" x2="8.345" y2="-34.281" id="linearGradient_18" inkscape:label="Gradient Fill 1" gradientUnits="userSpaceOnUse">
         <stop offset="0%" stop-color="rgb(190, 204, 228)" stop-opacity="1"/>
         <stop offset="50.0%" stop-color="rgb(129, 153, 179)" stop-opacity="1"/>
         <stop offset="100%" stop-color="rgb(68, 102, 130)" stop-opacity="1"/>
      </linearGradient>
      <linearGradient x1="-14" y1="48.526" x2="8.345" y2="-34.281" id="linearGradient_20" inkscape:label="Gradient Fill 1" gradientUnits="userSpaceOnUse">
         <stop offset="0%" stop-color="rgb(190, 204, 228)" stop-opacity="1"/>
         <stop offset="50.0%" stop-color="rgb(129, 153, 179)" stop-opacity="1"/>
         <stop offset="100%" stop-color="rgb(68, 102, 130)" stop-opacity="1"/>
      </linearGradient>
      <linearGradient x1="-26" y1="-0.009" x2="19.911" y2="-0.009" id="linearGradient_24" inkscape:label="Gradient Fill 1" gradientUnits="userSpaceOnUse">
         <stop offset="0%" stop-color="rgb(68, 102, 130)" stop-opacity="1"/>
         <stop offset="7.8%" stop-color="rgb(34, 51, 65)" stop-opacity="1"/>
         <stop offset="15.6%" stop-color="rgb(0, 0, 0)" stop-opacity="1"/>
         <stop offset="21.2%" stop-color="rgb(26, 26, 26)" stop-opacity="1"/>
         <stop offset="26.700000000000003%" stop-color="rgb(51, 51, 51)" stop-opacity="1"/>
         <stop offset="39.900000000000006%" stop-color="rgb(128, 128, 128)" stop-opacity="1"/>
         <stop offset="53.2%" stop-color="rgb(204, 204, 204)" stop-opacity="1"/>
         <stop offset="57.099999999999994%" stop-color="rgb(102, 102, 102)" stop-opacity="1"/>
         <stop offset="61.0%" stop-color="rgb(0, 0, 0)" stop-opacity="1"/>
         <stop offset="71.89999999999999%" stop-color="rgb(0, 0, 0)" stop-opacity="1"/>
         <stop offset="82.89999999999999%" stop-color="rgb(0, 0, 0)" stop-opacity="1"/>
         <stop offset="91.4%" stop-color="rgb(34, 51, 65)" stop-opacity="1"/>
         <stop offset="100%" stop-color="rgb(68, 102, 130)" stop-opacity="1"/>
      </linearGradient>
      <linearGradient x1="-26" y1="-0.009" x2="19.911" y2="-0.009" id="linearGradient_26" inkscape:label="Gradient Fill 1" gradientUnits="userSpaceOnUse">
         <stop offset="0%" stop-color="rgb(68, 102, 130)" stop-opacity="1"/>
         <stop offset="7.8%" stop-color="rgb(34, 51, 65)" stop-opacity="1"/>
         <stop offset="15.6%" stop-color="rgb(0, 0, 0)" stop-opacity="1"/>
         <stop offset="21.2%" stop-color="rgb(26, 26, 26)" stop-opacity="1"/>
         <stop offset="26.700000000000003%" stop-color="rgb(51, 51, 51)" stop-opacity="1"/>
         <stop offset="39.900000000000006%" stop-color="rgb(128, 128, 128)" stop-opacity="1"/>
         <stop offset="53.2%" stop-color="rgb(204, 204, 204)" stop-opacity="1"/>
         <stop offset="57.099999999999994%" stop-color="rgb(102, 102, 102)" stop-opacity="1"/>
         <stop offset="61.0%" stop-color="rgb(0, 0, 0)" stop-opacity="1"/>
         <stop offset="71.89999999999999%" stop-color="rgb(0, 0, 0)" stop-opacity="1"/>
         <stop offset="82.89999999999999%" stop-color="rgb(0, 0, 0)" stop-opacity="1"/>
         <stop offset="91.4%" stop-color="rgb(34, 51, 65)" stop-opacity="1"/>
         <stop offset="100%" stop-color="rgb(68, 102, 130)" stop-opacity="1"/>
      </linearGradient>
      <linearGradient x1="-32" y1="-0.582" x2="25.554" y2="-0.582" id="linearGradient_28" inkscape:label="Gradient Fill 1" gradientUnits="userSpaceOnUse">
         <stop offset="0%" stop-color="rgb(126, 153, 184)" stop-opacity="1"/>
         <stop offset="12.4%" stop-color="rgb(190, 204, 220)" stop-opacity="1"/>
         <stop offset="24.7%" stop-color="rgb(255, 255, 255)" stop-opacity="1"/>
         <stop offset="36.3%" stop-color="rgb(255, 255, 255)" stop-opacity="1"/>
         <stop offset="48.0%" stop-color="rgb(255, 255, 255)" stop-opacity="1"/>
         <stop offset="50.2%" stop-color="rgb(207, 217, 231)" stop-opacity="1"/>
         <stop offset="52.400000000000006%" stop-color="rgb(159, 179, 207)" stop-opacity="1"/>
         <stop offset="59.599999999999994%" stop-color="rgb(101, 128, 155)" stop-opacity="1"/>
         <stop offset="66.9%" stop-color="rgb(44, 77, 102)" stop-opacity="1"/>
         <stop offset="83.39999999999999%" stop-color="rgb(101, 128, 155)" stop-opacity="1"/>
         <stop offset="100%" stop-color="rgb(159, 179, 207)" stop-opacity="1"/>
      </linearGradient>
      <linearGradient x1="-32" y1="-0.582" x2="25.554" y2="-0.582" id="linearGradient_30" inkscape:label="Gradient Fill 1" gradientUnits="userSpaceOnUse">
         <stop offset="0%" stop-color="rgb(126, 153, 184)" stop-opacity="1"/>
         <stop offset="12.4%" stop-color="rgb(190, 204, 220)" stop-opacity="1"/>
         <stop offset="24.7%" stop-color="rgb(255, 255, 255)" stop-opacity="1"/>
         <stop offset="36.3%" stop-color="rgb(255, 255, 255)" stop-opacity="1"/>
         <stop offset="48.0%" stop-color="rgb(255, 255, 255)" stop-opacity="1"/>
         <stop offset="50.2%" stop-color="rgb(207, 217, 231)" stop-opacity="1"/>
         <stop offset="52.400000000000006%" stop-color="rgb(159, 179, 207)" stop-opacity="1"/>
         <stop offset="59.599999999999994%" stop-color="rgb(101, 128, 155)" stop-opacity="1"/>
         <stop offset="66.9%" stop-color="rgb(44, 77, 102)" stop-opacity="1"/>
         <stop offset="83.39999999999999%" stop-color="rgb(101, 128, 155)" stop-opacity="1"/>
         <stop offset="100%" stop-color="rgb(159, 179, 207)" stop-opacity="1"/>
      </linearGradient>
      <linearGradient x1="-33.005" y1="-0.456" x2="31.906" y2="-0.456" id="linearGradient_33" inkscape:label="Gradient Fill 1" gradientUnits="userSpaceOnUse">
         <stop offset="0%" stop-color="rgb(68, 102, 130)" stop-opacity="1"/>
         <stop offset="7.8%" stop-color="rgb(34, 51, 65)" stop-opacity="1"/>
         <stop offset="15.6%" stop-color="rgb(0, 0, 0)" stop-opacity="1"/>
         <stop offset="21.2%" stop-color="rgb(26, 26, 26)" stop-opacity="1"/>
         <stop offset="26.700000000000003%" stop-color="rgb(51, 51, 51)" stop-opacity="1"/>
         <stop offset="39.900000000000006%" stop-color="rgb(128, 128, 128)" stop-opacity="1"/>
         <stop offset="53.2%" stop-color="rgb(204, 204, 204)" stop-opacity="1"/>
         <stop offset="57.099999999999994%" stop-color="rgb(102, 102, 102)" stop-opacity="1"/>
         <stop offset="61.0%" stop-color="rgb(0, 0, 0)" stop-opacity="1"/>
         <stop offset="71.89999999999999%" stop-color="rgb(0, 0, 0)" stop-opacity="1"/>
         <stop offset="82.89999999999999%" stop-color="rgb(0, 0, 0)" stop-opacity="1"/>
         <stop offset="91.4%" stop-color="rgb(34, 51, 65)" stop-opacity="1"/>
         <stop offset="100%" stop-color="rgb(68, 102, 130)" stop-opacity="1"/>
      </linearGradient>
      <linearGradient x1="-33.005" y1="-0.456" x2="31.906" y2="-0.456" id="linearGradient_35" inkscape:label="Gradient Fill 1" gradientUnits="userSpaceOnUse">
         <stop offset="0%" stop-color="rgb(68, 102, 130)" stop-opacity="1"/>
         <stop offset="7.8%" stop-color="rgb(34, 51, 65)" stop-opacity="1"/>
         <stop offset="15.6%" stop-color="rgb(0, 0, 0)" stop-opacity="1"/>
         <stop offset="21.2%" stop-color="rgb(26, 26, 26)" stop-opacity="1"/>
         <stop offset="26.700000000000003%" stop-color="rgb(51, 51, 51)" stop-opacity="1"/>
         <stop offset="39.900000000000006%" stop-color="rgb(128, 128, 128)" stop-opacity="1"/>
         <stop offset="53.2%" stop-color="rgb(204, 204, 204)" stop-opacity="1"/>
         <stop offset="57.099999999999994%" stop-color="rgb(102, 102, 102)" stop-opacity="1"/>
         <stop offset="61.0%" stop-color="rgb(0, 0, 0)" stop-opacity="1"/>
         <stop offset="71.89999999999999%" stop-color="rgb(0, 0, 0)" stop-opacity="1"/>
         <stop offset="82.89999999999999%" stop-color="rgb(0, 0, 0)" stop-opacity="1"/>
         <stop offset="91.4%" stop-color="rgb(34, 51, 65)" stop-opacity="1"/>
         <stop offset="100%" stop-color="rgb(68, 102, 130)" stop-opacity="1"/>
      </linearGradient>
      <linearGradient x1="-36" y1="-0.856" x2="34.518" y2="-0.856" id="linearGradient_42" inkscape:label="Gradient Fill 1" gradientUnits="userSpaceOnUse">
         <stop offset="0%" stop-color="rgb(126, 153, 184)" stop-opacity="1"/>
         <stop offset="12.4%" stop-color="rgb(190, 204, 220)" stop-opacity="1"/>
         <stop offset="24.7%" stop-color="rgb(255, 255, 255)" stop-opacity="1"/>
         <stop offset="36.3%" stop-color="rgb(255, 255, 255)" stop-opacity="1"/>
         <stop offset="48.0%" stop-color="rgb(255, 255, 255)" stop-opacity="1"/>
         <stop offset="50.2%" stop-color="rgb(207, 217, 231)" stop-opacity="1"/>
         <stop offset="52.400000000000006%" stop-color="rgb(159, 179, 207)" stop-opacity="1"/>
         <stop offset="59.599999999999994%" stop-color="rgb(101, 128, 155)" stop-opacity="1"/>
         <stop offset="66.9%" stop-color="rgb(44, 77, 102)" stop-opacity="1"/>
         <stop offset="83.39999999999999%" stop-color="rgb(101, 128, 155)" stop-opacity="1"/>
         <stop offset="100%" stop-color="rgb(159, 179, 207)" stop-opacity="1"/>
      </linearGradient>
      <linearGradient x1="-36" y1="-0.856" x2="34.518" y2="-0.856" id="linearGradient_44" inkscape:label="Gradient Fill 1" gradientUnits="userSpaceOnUse">
         <stop offset="0%" stop-color="rgb(126, 153, 184)" stop-opacity="1"/>
         <stop offset="12.4%" stop-color="rgb(190, 204, 220)" stop-opacity="1"/>
         <stop offset="24.7%" stop-color="rgb(255, 255, 255)" stop-opacity="1"/>
         <stop offset="36.3%" stop-color="rgb(255, 255, 255)" stop-opacity="1"/>
         <stop offset="48.0%" stop-color="rgb(255, 255, 255)" stop-opacity="1"/>
         <stop offset="50.2%" stop-color="rgb(207, 217, 231)" stop-opacity="1"/>
         <stop offset="52.400000000000006%" stop-color="rgb(159, 179, 207)" stop-opacity="1"/>
         <stop offset="59.599999999999994%" stop-color="rgb(101, 128, 155)" stop-opacity="1"/>
         <stop offset="66.9%" stop-color="rgb(44, 77, 102)" stop-opacity="1"/>
         <stop offset="83.39999999999999%" stop-color="rgb(101, 128, 155)" stop-opacity="1"/>
         <stop offset="100%" stop-color="rgb(159, 179, 207)" stop-opacity="1"/>
      </linearGradient>
      <linearGradient x1="-30" y1="-0.338" x2="24.365" y2="-0.338" id="linearGradient_51" inkscape:label="Gradient Fill 1" gradientUnits="userSpaceOnUse">
         <stop offset="0%" stop-color="rgb(126, 153, 184)" stop-opacity="1"/>
         <stop offset="12.4%" stop-color="rgb(190, 204, 220)" stop-opacity="1"/>
         <stop offset="24.7%" stop-color="rgb(255, 255, 255)" stop-opacity="1"/>
         <stop offset="36.3%" stop-color="rgb(255, 255, 255)" stop-opacity="1"/>
         <stop offset="48.0%" stop-color="rgb(255, 255, 255)" stop-opacity="1"/>
         <stop offset="50.2%" stop-color="rgb(207, 217, 231)" stop-opacity="1"/>
         <stop offset="52.400000000000006%" stop-color="rgb(159, 179, 207)" stop-opacity="1"/>
         <stop offset="59.599999999999994%" stop-color="rgb(101, 128, 155)" stop-opacity="1"/>
         <stop offset="66.9%" stop-color="rgb(44, 77, 102)" stop-opacity="1"/>
         <stop offset="83.39999999999999%" stop-color="rgb(101, 128, 155)" stop-opacity="1"/>
         <stop offset="100%" stop-color="rgb(159, 179, 207)" stop-opacity="1"/>
      </linearGradient>
      <linearGradient x1="-30" y1="-0.338" x2="24.365" y2="-0.338" id="linearGradient_53" inkscape:label="Gradient Fill 1" gradientUnits="userSpaceOnUse">
         <stop offset="0%" stop-color="rgb(126, 153, 184)" stop-opacity="1"/>
         <stop offset="12.4%" stop-color="rgb(190, 204, 220)" stop-opacity="1"/>
         <stop offset="24.7%" stop-color="rgb(255, 255, 255)" stop-opacity="1"/>
         <stop offset="36.3%" stop-color="rgb(255, 255, 255)" stop-opacity="1"/>
         <stop offset="48.0%" stop-color="rgb(255, 255, 255)" stop-opacity="1"/>
         <stop offset="50.2%" stop-color="rgb(207, 217, 231)" stop-opacity="1"/>
         <stop offset="52.400000000000006%" stop-color="rgb(159, 179, 207)" stop-opacity="1"/>
         <stop offset="59.599999999999994%" stop-color="rgb(101, 128, 155)" stop-opacity="1"/>
         <stop offset="66.9%" stop-color="rgb(44, 77, 102)" stop-opacity="1"/>
         <stop offset="83.39999999999999%" stop-color="rgb(101, 128, 155)" stop-opacity="1"/>
         <stop offset="100%" stop-color="rgb(159, 179, 207)" stop-opacity="1"/>
      </linearGradient>
   </defs>
   <sodipodi:namedview inkscape:pagecheckerboard="true" borderlayer="true" bordercolor="#666666" pagecolor="#ffffff"/>
   <g inkscape:groupmode="layer" id="Layer_2" inkscape:label="Layer 2" transform="matrix(0.7071067811865476, 0.7071067811865476, -0.7071067811865476, 0.7071067811865476, 256.0008425849301, -106.0385145524425)" style="">
      <g inkscape:groupmode="layer" id="Group_2" inkscape:label="Group 2" transform="matrix(1.0, 0.0, 0.0, 1.0, 0.0, 0.0)" style="">
         <g id="Group_10" inkscape:label="Group 10" transform="matrix(1.0, 0.0, 0.0, 1.0, 256.0, 158.093)" opacity="0.25" style="fill-opacity:1.0;fill:rgb(228, 146, 255);fill-rule:nonzero">
            <path d="M -54.735,121.955 C -54.735,121.955 -41.246,-156.464 -41.246,-156.464 C -40.401,-181.11599999999999 -22.726,-194.271 -3.95,-195.897 C -1.3240000000000003,-196.124 1.3240000000000003,-196.12599999999998 3.95,-195.902 C 22.727999999999998,-194.302 40.405,-181.167 41.252,-156.464 C 41.252,-156.464 54.741,121.955 54.741,121.955 C 58.055,181.737 -58.043,181.632 -54.735,121.955 Z" id="Path_1" inkscape:label="Path 1" style="fill-opacity:1.0;fill:rgb(228, 146, 255);fill-rule:nonzero"/>
         </g>
         <g id="Group_9" inkscape:label="Group 9" transform="matrix(1.0, 0.0, 0.0, 1.0, 256.0, 158.57)" opacity="0.4" style="fill-opacity:1.0;fill:rgb(198, 116, 255);fill-rule:nonzero">
            <path d="M -47.893,118.366 C -47.893,118.366 -36.289,-154.127 -36.289,-154.127 C -35.614000000000004,-176.55 -20.325,-188.614 -3.95,-190.291 C -1.326,-190.56 1.326,-190.56199999999998 3.95,-190.297 C 20.326,-188.644 35.619,-176.597 36.295,-154.127 C 36.295,-154.127 47.899,118.366 47.899,118.366 C 50.501,171.847 -50.492000000000004,171.787 -47.893,118.366 Z" id="path_1" inkscape:label="Path 1" style="fill-opacity:1.0;fill:rgb(198, 116, 255);fill-rule:nonzero"/>
         </g>
         <g id="Group_8" inkscape:label="Group 8" transform="matrix(1.0, 0.0, 0.0, 1.0, 256.0, 158.364)" opacity="0.55" style="fill-opacity:1.0;fill:rgb(169, 87, 255);fill-rule:nonzero">
            <path d="M -41.094,115.481 C -41.094,115.481 -31.309,-151.092 -31.309,-151.092 C -30.788,-171.227 -17.9,-182.178 -3.95,-183.919 C -1.3290000000000002,-184.246 1.3290000000000002,-184.24800000000002 3.95,-183.925 C 17.902,-182.205 30.792,-171.269 31.315,-151.092 C 31.315,-151.092 41.1,115.481 41.1,115.481 C 43.082,162.809 -43.075,162.792 -41.094,115.481 Z" id="path_2" inkscape:label="Path 1" style="fill-opacity:1.0;fill:rgb(169, 87, 255);fill-rule:nonzero"/>
         </g>
         <g id="Group_7" inkscape:label="Group 7" transform="matrix(1.0, 0.0, 0.0, 1.0, 256.0, 158.123)" opacity="0.7" style="fill-opacity:1.0;fill:rgb(139, 57, 255);fill-rule:nonzero">
            <path d="M -34.338,112.65 C -34.338,112.65 -26.305,-148.01 -26.305,-148.01 C -25.919,-165.783 -15.45,-175.59300000000002 -3.95,-177.419 C -1.335,-177.834 1.335,-177.837 3.95,-177.426 C 15.452000000000002,-175.619 25.924,-165.82 26.311,-148.01 C 26.311,-148.01 34.344,112.65 34.344,112.65 C 35.794000000000004,153.96800000000002 -35.789,153.993 -34.338,112.65 Z" id="path_3" inkscape:label="Path 1" style="fill-opacity:1.0;fill:rgb(139, 57, 255);fill-rule:nonzero"/>
         </g>
         <g id="Group_6" inkscape:label="Group 6" transform="matrix(1.0, 0.0, 0.0, 1.0, 256.0, 158.546)" opacity="0.8" style="fill-opacity:1.0;fill:rgb(109, 114, 255);fill-rule:nonzero">
            <path d="M -30.891,112.226 C -30.891,112.226 -23.664,-148.434 -23.664,-148.434 C -23.352,-164.412 -14.155999999999999,-173.31900000000002 -3.95,-175.139 C -1.339,-175.60500000000002 1.339,-175.606 3.95,-175.144 C 14.158000000000001,-173.33700000000002 23.357000000000003,-164.439 23.67,-148.434 C 23.67,-148.434 30.897,112.226 30.897,112.226 C 32.065,149.226 -32.061,149.28300000000002 -30.891,112.226 Z" id="path_4" inkscape:label="Path 1" style="fill-opacity:1.0;fill:rgb(109, 114, 255);fill-rule:nonzero"/>
         </g>
         <g id="Group_5" inkscape:label="Group 5" transform="matrix(1.0, 0.0, 0.0, 1.0, 256.0, 158.969)" opacity="0.9" style="fill-opacity:1.0;fill:rgb(80, 172, 255);fill-rule:nonzero">
            <path d="M -27.444,111.804 C -27.444,111.804 -21.024,-148.857 -21.024,-148.857 C -20.778000000000002,-163.024 -12.854,-171.01700000000002 -3.95,-172.83 C -1.3450000000000002,-173.36 1.3450000000000002,-173.362 3.95,-172.834 C 12.857,-171.029 20.784000000000002,-163.04 21.03,-148.857 C 21.03,-148.857 27.45,111.804 27.45,111.804 C 28.368,144.52100000000002 -28.364,144.611 -27.444,111.804 Z" id="path_5" inkscape:label="Path 1" style="fill-opacity:1.0;fill:rgb(80, 172, 255);fill-rule:nonzero"/>
         </g>
         <g id="Group_4" inkscape:label="Group 4" transform="matrix(1.0, 0.0, 0.0, 1.0, 256.0, 159.391)" style="fill-opacity:1.0;fill:rgb(50, 229, 255);fill-rule:nonzero">
            <path d="M -23.997,111.382 C -23.997,111.382 -18.383,-149.278 -18.383,-149.278 C -18.195999999999998,-161.61499999999998 -11.545,-168.685 -3.95,-170.488 C -1.354,-171.104 1.354,-171.10500000000002 3.95,-170.49 C 11.548,-168.691 18.201999999999998,-161.62 18.389,-149.278 C 18.389,-149.278 24.003,111.382 24.003,111.382 C 24.701,139.853 -24.698,139.974 -23.997,111.382 Z" id="path_6" inkscape:label="Path 1" style="fill-opacity:1.0;fill:rgb(50, 229, 255);fill-rule:nonzero"/>
         </g>
         <g id="Group_3" inkscape:label="Group 3" transform="matrix(1.0, 0.0, 0.0, 1.0, 256.0, 159.803)" style="fill-opacity:1.0;fill:rgb(118, 238, 255);fill-rule:nonzero">
            <path d="M -20.55,110.969 C -20.55,110.969 -15.743,-149.691 -15.743,-149.691 C -15.607000000000001,-160.178 -10.225999999999999,-166.315 -3.95,-168.105 C -1.367,-168.84199999999998 1.367,-168.84199999999998 3.95,-168.106 C 10.229,-166.317 15.613000000000001,-160.179 15.749,-149.691 C 15.749,-149.691 20.556,110.969 20.556,110.969 C 21.066000000000003,135.25799999999998 -21.062,135.344 -20.55,110.969 Z" id="path_7" inkscape:label="Path 1" style="fill-opacity:1.0;fill:rgb(118, 238, 255);fill-rule:nonzero"/>
         </g>
         <g id="g_8" inkscape:label="Group 2" transform="matrix(1.0, 0.0, 0.0, 1.0, 256.0, 160.215)" style="fill-opacity:1.0;fill:rgb(187, 246, 255);fill-rule:nonzero">
            <path d="M -17.103,110.557 C -17.103,110.557 -13.102,-150.103 -13.102,-150.103 C -13.009,-158.707 -8.893,-163.891 -3.95,-165.66 C -1.391,-166.576 1.391,-166.575 3.95,-165.66 C 8.896,-163.891 13.015,-158.705 13.108,-150.103 C 13.108,-150.103 17.109,110.557 17.109,110.557 C 17.461000000000002,130.699 -17.456000000000003,130.749 -17.103,110.557 Z" id="path_9" inkscape:label="Path 1" style="fill-opacity:1.0;fill:rgb(187, 246, 255);fill-rule:nonzero"/>
         </g>
         <g id="Group_1" inkscape:label="Group 1" transform="matrix(1.0, 0.0, 0.0, 1.0, 256.0, 160.626)" style="fill-opacity:1.0;fill:rgb(255, 255, 255);fill-rule:nonzero">
            <path d="M -13.656,110.147 C -13.656,110.147 -10.461,-150.514 -10.461,-150.514 C -10.403,-157.185 -7.541,-161.38299999999998 -3.95,-163.111 C -1.4360000000000004,-164.321 1.435,-164.32000000000002 3.95,-163.11 C 7.5440000000000005,-161.38000000000002 10.409,-157.181 10.467,-150.514 C 10.467,-150.514 13.662,110.147 13.662,110.147 C 13.886000000000001,126.176 -13.88,126.191 -13.656,110.147 Z" id="path_10" inkscape:label="Path 1" style="fill-opacity:1.0;fill:rgb(255, 255, 255);fill-rule:nonzero"/>
         </g>
      </g>
      <g inkscape:groupmode="layer" id="g_11" inkscape:label="Group 1" transform="matrix(1.0, 0.0, 0.0, 1.0, 0.0, 0.0)" style="">
         <g id="Group_12" inkscape:label="Group 12" transform="matrix(1.0, 0.0, 0.0, 1.0, 256.0, 536.477)" style="fill-opacity:1.0;fill:url(#Gradient_Fill_1);fill-rule:nonzero;stroke:rgb(22, 51, 70);stroke-opacity:1.0;stroke-width:6.0;stroke-miterlimit:0;stroke-linecap:round;stroke-linejoin:round">
            <path d="M 44.159,-21.763 C 46.232,24.254 -46.315999999999995,26.24 -44.153,-21.763 C -42.183,-65.482 42.263999999999996,-63.82900000000001 44.159,-21.763 Z" id="path_12" inkscape:label="Path 1" style="fill-opacity:1.0;fill:url(#linearGradient_13);fill-rule:nonzero"/>
         </g>
         <g id="Group_11" inkscape:label="Group 11" transform="matrix(1.0, 0.0, 0.0, 1.0, 255.999, 537.107)" style="fill-opacity:1.0;fill:url(#linearGradient_14);fill-rule:nonzero;stroke:rgb(0, 0, 0);stroke-opacity:1.0;stroke-width:6.0;stroke-miterlimit:0;stroke-linecap:round;stroke-linejoin:round">
            <path d="M 26.331,-21.769 C 27.567,5.668000000000003 -27.615,6.852 -26.325,-21.769 C -25.15,-47.836 25.201,-46.849999999999994 26.331,-21.769 Z" id="path_15" inkscape:label="Path 1" style="fill-opacity:1.0;fill:url(#linearGradient_16);fill-rule:nonzero"/>
         </g>
         <g id="g_17" inkscape:label="Group 10" transform="matrix(1.0, 0.0, 0.0, 1.0, 256.0, 340.474)" style="fill-opacity:1.0;fill:url(#linearGradient_18);fill-rule:nonzero;stroke:rgb(22, 51, 70);stroke-opacity:1.0;stroke-width:6.0;stroke-miterlimit:0;stroke-linecap:round;stroke-linejoin:round">
            <path d="M 56.171,-24.231 C 59.501,35.589 -59.64,38.202 -56.165,-24.231 C -53.073,-79.789 53.194,-77.71000000000001 56.171,-24.231 Z" id="path_19" inkscape:label="Path 1" style="fill-opacity:1.0;fill:url(#linearGradient_20);fill-rule:nonzero"/>
         </g>
         <g id="g_21" inkscape:label="5" transform="matrix(1.0, 0.0, 0.0, 1.0, 236.691, 332.017)" style="stroke:rgb(172, 204, 221);stroke-opacity:1.0;stroke-width:6.0;stroke-miterlimit:0;stroke-linecap:round;stroke-linejoin:round">
            <path d="M -26.207,13.924 C -33.349000000000004,6.579999999999999 -37.551,-3.2979999999999983 -36.857,-15.774 C -35.098,-47.378 0.0470000000000006,-60.330999999999996 30.574,-55.782 " id="path_22" inkscape:label="Path 1" style=""/>
         </g>
         <g id="g_23" inkscape:label="Group 8" transform="matrix(1.0, 0.0, 0.0, 1.0, 256.0, 401.009)" style="fill-opacity:1.0;fill:url(#linearGradient_24);fill-rule:nonzero;stroke:rgb(0, 0, 0);stroke-opacity:1.0;stroke-width:6.0;stroke-miterlimit:0;stroke-linecap:round;stroke-linejoin:round">
            <path d="M 32.15,-1.249 C 32.15,-1.249 -32.144,-1.249 -32.144,-1.249 C -32.144,-1.249 -30.489,-57.497 -30.489,-57.497 C -30.489,-57.497 30.495,-57.497 30.495,-57.497 C 30.495,-57.497 32.15,-1.249 32.15,-1.249 Z" id="path_25" inkscape:label="Path 1" style="fill-opacity:1.0;fill:url(#linearGradient_26);fill-rule:nonzero"/>
         </g>
         <g id="g_27" inkscape:label="Group 7" transform="matrix(1.0, 0.0, 0.0, 1.0, 256.0, 478.582)" style="fill-opacity:1.0;fill:url(#linearGradient_28);fill-rule:nonzero;stroke:rgb(22, 51, 70);stroke-opacity:1.0;stroke-width:6.0;stroke-miterlimit:0;stroke-linecap:round;stroke-linejoin:round">
            <path d="M 44.154,33.725 C 42.698,-6.0760000000000005 -42.692,-6.0760000000000005 -44.148,33.725 C -44.148,33.725 -41,-52.332 -41,-52.332 C -39.352,-97.393 39.358,-97.393 41.006,-52.332 C 41.006,-52.332 44.154,33.725 44.154,33.725 Z" id="path_29" inkscape:label="Path 1" style="fill-opacity:1.0;fill:url(#linearGradient_30);fill-rule:nonzero"/>
         </g>
         <g id="g_31" inkscape:label="Group 6" transform="matrix(1.0, 0.0, 0.0, 1.0, 256.005, 513.456)" style="">
            <g id="g_32" inkscape:label="Group 1" transform="matrix(1.0, 0.0, 0.0, 1.0, 0.0, 0.0)" style="fill-opacity:1.0;fill:url(#linearGradient_33);fill-rule:nonzero;stroke:rgb(0, 0, 0);stroke-opacity:1.0;stroke-width:6.0;stroke-miterlimit:0;stroke-linecap:round;stroke-linejoin:round">
               <path d="M 43.344,-21.16 C 41.777,-60.269000000000005 -41.793,-60.206999999999994 -43.339,-21.16 C -43.339,-21.16 -44.154,1.469 -44.154,1.469 C -42.158,-41.174 43.026,-41.540000000000006 44.154,0.974 C 44.154,0.974 43.344,-21.16 43.344,-21.16 Z" id="path_34" inkscape:label="Path 1" style="fill-opacity:1.0;fill:url(#linearGradient_35);fill-rule:nonzero"/>
            </g>
         </g>
         <g id="g_36" inkscape:label="34" transform="matrix(1.0, 0.0, 0.0, 1.0, 0.0, 0.0)" style="">
            <g id="g_37" inkscape:label="Group 2" transform="matrix(1.0, 0.0, 0.0, 1.0, 230.273, 490.951)" style="stroke:rgb(141, 156, 160);stroke-opacity:1.0;stroke-width:6.0;stroke-miterlimit:0;stroke-linecap:round;stroke-linejoin:round">
               <path d="M 0.769,-23.344 C -11.909,-17.594 -16.825,-7.793 -17.55,-0.572 C -16.965,-16.57 -15.499,-54.604 -15.499,-54.604 " id="path_38" inkscape:label="Path 1" style=""/>
            </g>
            <g id="g_39" inkscape:label="Group 1" transform="matrix(1.0, 0.0, 0.0, 1.0, 248.038, 491.708)" style="stroke:rgb(141, 156, 160);stroke-opacity:1.0;stroke-width:6.0;stroke-miterlimit:0;stroke-linecap:round;stroke-linejoin:round">
               <path d="M 3.291,-28.709 C -0.9460000000000002,-28.454 -4.7589999999999995,-27.886000000000003 -8.184,-27.071 " id="path_40" inkscape:label="Path 1" style=""/>
            </g>
         </g>
         <g id="g_41" inkscape:label="Group 4" transform="matrix(1.0, 0.0, 0.0, 1.0, 256.0, 442.856)" style="fill-opacity:1.0;fill:url(#linearGradient_42);fill-rule:nonzero;stroke:rgb(22, 51, 70);stroke-opacity:1.0;stroke-width:6.0;stroke-miterlimit:0;stroke-linecap:round;stroke-linejoin:round">
            <path d="M 45.722,11.026 C 43.618,-40.09 -43.612,-40.09 -45.716,11.026 C -45.716,11.026 -43.844,-34.449 -43.844,-34.449 C -41.905,-81.555 41.911,-81.555 43.85,-34.449 C 43.85,-34.449 45.722,11.026 45.722,11.026 Z" id="path_43" inkscape:label="Path 1" style="fill-opacity:1.0;fill:url(#linearGradient_44);fill-rule:nonzero"/>
         </g>
         <g id="g_45" inkscape:label="2" transform="matrix(1.0, 0.0, 0.0, 1.0, 232.275, 443.877)" style="stroke:rgb(172, 204, 221);stroke-opacity:1.0;stroke-width:6.0;stroke-miterlimit:0;stroke-linecap:round;stroke-linejoin:round">
            <path d="M -21.991,10.006 C -21.991,10.006 -20.119,-35.469 -20.119,-35.469 C -18.751,-61.219 5.028999999999999,-67.949 8.931,-68.857 " id="path_46" inkscape:label="Path 1" style=""/>
         </g>
         <g id="g_47" inkscape:label="1" transform="matrix(1.0, 0.0, 0.0, 1.0, 233.869, 464.974)" style="stroke:rgb(94, 130, 145);stroke-opacity:1.0;stroke-width:6.0;stroke-miterlimit:0;stroke-linecap:round;stroke-linejoin:round">
            <path d="M 10.812,-48.312 C -9.358000000000002,-44.772999999999996 -23.119,-29.903999999999996 -23.586,-11.091 " id="path_48" inkscape:label="Path 1" style=""/>
         </g>
         <g id="g_49" inkscape:label="Group 1" transform="matrix(1.0, 0.0, 0.0, 1.0, 0.0, 0.0)" style="">
            <g id="g_50" inkscape:label="Group 5" transform="matrix(1.0, 0.0, 0.0, 1.0, 256.0, 359.338)" style="fill-opacity:1.0;fill:url(#linearGradient_51);fill-rule:nonzero;stroke:rgb(22, 51, 70);stroke-opacity:1.0;stroke-width:6.0;stroke-miterlimit:0;stroke-linecap:round;stroke-linejoin:round">
               <path d="M 37.199,13.486 C 35.839999999999996,-25.435 -35.835,-25.435 -37.193,13.486 C -37.193,13.486 -35.433,-36.949 -35.433,-36.949 C -34.195,-72.41 34.201,-72.41 35.439,-36.949 C 35.439,-36.949 37.199,13.486 37.199,13.486 Z" id="path_52" inkscape:label="Path 1" style="fill-opacity:1.0;fill:url(#linearGradient_53);fill-rule:nonzero"/>
            </g>
            <g id="g_54" inkscape:label="Group 4" transform="matrix(1.0, 0.0, 0.0, 1.0, 256.0, 375.74)" style="stroke:rgb(22, 51, 70);stroke-opacity:1.0;stroke-width:4.0;stroke-miterlimit:0;stroke-linecap:round;stroke-linejoin:round">
               <path d="M 36.801,-14.333 C 35.536,-50.562999999999995 -35.529999999999994,-50.562999999999995 -36.794,-14.333 " id="path_55" inkscape:label="Path 1" style=""/>
            </g>
            <g id="g_56" inkscape:label="Group 3" transform="matrix(1.0, 0.0, 0.0, 1.0, 256.0, 366.977)" style="stroke:rgb(22, 51, 70);stroke-opacity:1.0;stroke-width:4.0;stroke-miterlimit:0;stroke-linecap:round;stroke-linejoin:round">
               <path d="M 36.518,-13.675 C 35.272,-49.358999999999995 -35.267,-49.358999999999995 -36.512,-13.675 " id="path_57" inkscape:label="Path 1" style=""/>
            </g>
            <g id="g_58" inkscape:label="Group 2" transform="matrix(1.0, 0.0, 0.0, 1.0, 256.0, 358.652)" style="stroke:rgb(22, 51, 70);stroke-opacity:1.0;stroke-width:4.0;stroke-miterlimit:0;stroke-linecap:round;stroke-linejoin:round">
               <path d="M 36.253,-12.944 C 35.025,-48.121 -35.018,-48.121 -36.246,-12.944 " id="path_59" inkscape:label="Path 1" style=""/>
            </g>
            <g id="g_60" inkscape:label="Group 1" transform="matrix(1.0, 0.0, 0.0, 1.0, 256.0, 349.908)" style="stroke:rgb(22, 51, 70);stroke-opacity:1.0;stroke-width:4.0;stroke-miterlimit:0;stroke-linecap:round;stroke-linejoin:round">
               <path d="M 35.978,-12.068 C 34.768,-46.723 -34.763,-46.723 -35.972,-12.068 " id="path_61" inkscape:label="Path 1" style=""/>
            </g>
         </g>
      </g>
   </g>
</svg>
