<?xml version="1.0" ?>
<svg xmlns:inkscape="http://www.inkscape.org/namespaces/inkscape" xmlns:sodipodi="http://sodipodi.sourceforge.net/DTD/sodipodi-0.dtd" xmlns="http://www.w3.org/2000/svg" width="512" height="512" viewBox="0 0 512 512" version="1.1" id="svg_1" sodipodi:docname="Lollipop (@syrreel) 5" inkscape:export-xdpi="96" inkscape:export-ydpi="96" style="fill: none; stroke: none">
   <defs>
      <linearGradient x1="21.415" y1="77.924" x2="44.415" y2="100.924" id="Gradient_Fill_1" inkscape:label="Gradient Fill 1" gradientUnits="userSpaceOnUse">
         <stop offset="0%" stop-color="rgb(178, 104, 53)" stop-opacity="1"/>
         <stop offset="44.800000000000004%" stop-color="rgb(196, 122, 67)" stop-opacity="1"/>
         <stop offset="100%" stop-color="rgb(214, 140, 80)" stop-opacity="1"/>
      </linearGradient>
      <linearGradient x1="21.415" y1="77.924" x2="44.415" y2="100.924" id="linearGradient_2" inkscape:label="Gradient Fill 1" gradientUnits="userSpaceOnUse">
         <stop offset="0%" stop-color="rgb(178, 104, 53)" stop-opacity="1"/>
         <stop offset="44.800000000000004%" stop-color="rgb(196, 122, 67)" stop-opacity="1"/>
         <stop offset="100%" stop-color="rgb(214, 140, 80)" stop-opacity="1"/>
      </linearGradient>
      <radialGradient cx="-27.505" cy="-52.289" r="151.73804418141154" fx="-27.505" fy="-52.289" id="Gradient_Fill_2" inkscape:label="Gradient Fill 2" gradientUnits="userSpaceOnUse">
         <stop offset="0.2%" stop-color="rgb(239, 195, 32)" stop-opacity="1"/>
         <stop offset="57.8%" stop-color="rgb(247, 173, 32)" stop-opacity="1"/>
         <stop offset="100%" stop-color="rgb(255, 152, 32)" stop-opacity="1"/>
      </radialGradient>
      <radialGradient cx="-27.505" cy="-52.289" r="151.73804418141154" fx="-27.505" fy="-52.289" id="radialGradient_15" inkscape:label="Gradient Fill 2" gradientUnits="userSpaceOnUse">
         <stop offset="0.2%" stop-color="rgb(239, 195, 32)" stop-opacity="1"/>
         <stop offset="57.8%" stop-color="rgb(247, 173, 32)" stop-opacity="1"/>
         <stop offset="100%" stop-color="rgb(255, 152, 32)" stop-opacity="1"/>
      </radialGradient>
      <radialGradient cx="-51.177" cy="-26.587" r="141.60732533665058" fx="-51.177" fy="-26.587" id="Gradient_Fill_3" inkscape:label="Gradient Fill 3" gradientUnits="userSpaceOnUse">
         <stop offset="40.699999999999996%" stop-color="rgb(255, 102, 107)" stop-opacity="1"/>
         <stop offset="74.9%" stop-color="rgb(232, 75, 78)" stop-opacity="1"/>
         <stop offset="100%" stop-color="rgb(209, 48, 49)" stop-opacity="1"/>
      </radialGradient>
      <radialGradient cx="-51.177" cy="-26.587" r="141.60732533665058" fx="-51.177" fy="-26.587" id="radialGradient_20" inkscape:label="Gradient Fill 3" gradientUnits="userSpaceOnUse">
         <stop offset="40.699999999999996%" stop-color="rgb(255, 102, 107)" stop-opacity="1"/>
         <stop offset="74.9%" stop-color="rgb(232, 75, 78)" stop-opacity="1"/>
         <stop offset="100%" stop-color="rgb(209, 48, 49)" stop-opacity="1"/>
      </radialGradient>
      <radialGradient cx="-33.229" cy="-4.688" r="143.63106493025805" fx="-33.229" fy="-4.688" id="Gradient_Fill_4" inkscape:label="Gradient Fill 4" gradientUnits="userSpaceOnUse">
         <stop offset="0.2%" stop-color="rgb(172, 83, 177)" stop-opacity="1"/>
         <stop offset="60.699999999999996%" stop-color="rgb(153, 62, 180)" stop-opacity="1"/>
         <stop offset="100%" stop-color="rgb(134, 42, 183)" stop-opacity="1"/>
      </radialGradient>
      <radialGradient cx="-33.229" cy="-4.688" r="143.63106493025805" fx="-33.229" fy="-4.688" id="radialGradient_23" inkscape:label="Gradient Fill 4" gradientUnits="userSpaceOnUse">
         <stop offset="0.2%" stop-color="rgb(172, 83, 177)" stop-opacity="1"/>
         <stop offset="60.699999999999996%" stop-color="rgb(153, 62, 180)" stop-opacity="1"/>
         <stop offset="100%" stop-color="rgb(134, 42, 183)" stop-opacity="1"/>
      </radialGradient>
      <radialGradient cx="9.894" cy="-23.068" r="127.27992772232392" fx="9.894" fy="-23.068" id="Gradient_Fill_5" inkscape:label="Gradient Fill 5" gradientUnits="userSpaceOnUse">
         <stop offset="0%" stop-color="rgb(255, 255, 150)" stop-opacity="1"/>
         <stop offset="52.400000000000006%" stop-color="rgb(253, 230, 99)" stop-opacity="1"/>
         <stop offset="99.9%" stop-color="rgb(252, 205, 49)" stop-opacity="1"/>
      </radialGradient>
      <radialGradient cx="9.894" cy="-23.068" r="127.27992772232392" fx="9.894" fy="-23.068" id="radialGradient_26" inkscape:label="Gradient Fill 5" gradientUnits="userSpaceOnUse">
         <stop offset="0%" stop-color="rgb(255, 255, 150)" stop-opacity="1"/>
         <stop offset="52.400000000000006%" stop-color="rgb(253, 230, 99)" stop-opacity="1"/>
         <stop offset="99.9%" stop-color="rgb(252, 205, 49)" stop-opacity="1"/>
      </radialGradient>
      <radialGradient cx="19.554" cy="-59.369" r="143.21670035648776" fx="19.554" fy="-59.369" id="Gradient_Fill_6" inkscape:label="Gradient Fill 6" gradientUnits="userSpaceOnUse">
         <stop offset="0%" stop-color="rgb(186, 251, 72)" stop-opacity="1"/>
         <stop offset="52.5%" stop-color="rgb(151, 218, 48)" stop-opacity="1"/>
         <stop offset="99.9%" stop-color="rgb(116, 185, 24)" stop-opacity="1"/>
      </radialGradient>
      <radialGradient cx="19.554" cy="-59.369" r="143.21670035648776" fx="19.554" fy="-59.369" id="radialGradient_31" inkscape:label="Gradient Fill 6" gradientUnits="userSpaceOnUse">
         <stop offset="0%" stop-color="rgb(186, 251, 72)" stop-opacity="1"/>
         <stop offset="52.5%" stop-color="rgb(151, 218, 48)" stop-opacity="1"/>
         <stop offset="99.9%" stop-color="rgb(116, 185, 24)" stop-opacity="1"/>
      </radialGradient>
      <radialGradient cx="-29.214" cy="-87.137" r="143.93229241903987" fx="-29.214" fy="-87.137" id="Gradient_Fill_7" inkscape:label="Gradient Fill 7" gradientUnits="userSpaceOnUse">
         <stop offset="22.400000000000002%" stop-color="rgb(0, 126, 255)" stop-opacity="1"/>
         <stop offset="71.89999999999999%" stop-color="rgb(29, 112, 240)" stop-opacity="1"/>
         <stop offset="99.9%" stop-color="rgb(57, 98, 225)" stop-opacity="1"/>
      </radialGradient>
      <radialGradient cx="-29.214" cy="-87.137" r="143.93229241903987" fx="-29.214" fy="-87.137" id="radialGradient_36" inkscape:label="Gradient Fill 7" gradientUnits="userSpaceOnUse">
         <stop offset="22.400000000000002%" stop-color="rgb(0, 126, 255)" stop-opacity="1"/>
         <stop offset="71.89999999999999%" stop-color="rgb(29, 112, 240)" stop-opacity="1"/>
         <stop offset="99.9%" stop-color="rgb(57, 98, 225)" stop-opacity="1"/>
      </radialGradient>
      <radialGradient cx="-27.505" cy="-52.289" r="136.93547082476476" fx="-27.505" fy="-52.289" id="Gradient_Fill_8" inkscape:label="Gradient Fill 8" gradientUnits="userSpaceOnUse">
         <stop offset="80.5%" stop-color="rgb(255, 255, 255)" stop-opacity="0"/>
         <stop offset="90.2%" stop-color="rgb(255, 255, 255)" stop-opacity="0.5"/>
         <stop offset="100%" stop-color="rgb(255, 255, 255)" stop-opacity="1"/>
      </radialGradient>
      <radialGradient cx="-27.505" cy="-52.289" r="136.93547082476476" fx="-27.505" fy="-52.289" id="radialGradient_48" inkscape:label="Gradient Fill 8" gradientUnits="userSpaceOnUse">
         <stop offset="80.5%" stop-color="rgb(255, 255, 255)" stop-opacity="0"/>
         <stop offset="90.2%" stop-color="rgb(255, 255, 255)" stop-opacity="0.5"/>
         <stop offset="100%" stop-color="rgb(255, 255, 255)" stop-opacity="1"/>
      </radialGradient>
      <linearGradient x1="-97.508" y1="17.714" x2="68.573" y2="-148.364" id="Gradient_Fill_9" inkscape:label="Gradient Fill 9" gradientUnits="userSpaceOnUse">
         <stop offset="38.800000000000004%" stop-color="rgb(255, 255, 255)" stop-opacity="0"/>
         <stop offset="69.39999999999999%" stop-color="rgb(255, 255, 255)" stop-opacity="0.5"/>
         <stop offset="100%" stop-color="rgb(255, 255, 255)" stop-opacity="1"/>
      </linearGradient>
      <linearGradient x1="-97.508" y1="17.714" x2="68.573" y2="-148.364" id="linearGradient_51" inkscape:label="Gradient Fill 9" gradientUnits="userSpaceOnUse">
         <stop offset="38.800000000000004%" stop-color="rgb(255, 255, 255)" stop-opacity="0"/>
         <stop offset="69.39999999999999%" stop-color="rgb(255, 255, 255)" stop-opacity="0.5"/>
         <stop offset="100%" stop-color="rgb(255, 255, 255)" stop-opacity="1"/>
      </linearGradient>
   </defs>
   <sodipodi:namedview inkscape:pagecheckerboard="true" borderlayer="true" bordercolor="#666666" pagecolor="#ffffff"/>
   <g inkscape:groupmode="layer" id="Layer_01" inkscape:label="Layer 01" transform="matrix(6.123233995736766e-17, -1.0, 1.0, 6.123233995736766e-17, 6.94500000000005, 490.75499999999994)" style="">
      <g id="Group_11" inkscape:label="Group 11" transform="matrix(1.0, 0.0, 0.0, 1.0, 152.684, 340.071)" style="fill-opacity:1.0;fill:url(#Gradient_Fill_1);fill-rule:nonzero">
         <path d="M -102.921,107.524 C -102.921,107.524 -107.524,102.921 -107.524,102.921 C -112.604,97.84100000000001 -112.604,89.604 -107.524,84.524 C -107.524,84.524 83.571,-106.571 83.571,-106.571 C 89.922,-112.922 100.22,-112.922 106.571,-106.571 C 106.571,-106.571 106.571,-106.571 106.571,-106.571 C 112.922,-100.22 112.922,-89.922 106.571,-83.571 C 106.571,-83.571 -84.524,107.524 -84.524,107.524 C -89.604,112.604 -97.84100000000001,112.604 -102.921,107.524 Z" id="Path_1" inkscape:label="Path 1" style="fill-opacity:1.0;fill:url(#linearGradient_2);fill-rule:nonzero"/>
      </g>
      <g id="Group_10" inkscape:label="Group 10" transform="matrix(1.0, 0.0, 0.0, 1.0, 161.502, 346.472)" opacity="0.5" style="fill-opacity:1.0;fill:rgb(188, 93, 40);fill-rule:nonzero">
         <path d="M 20.993,-24.446 C 17.32,-24.696 -19.281999999999996,8.032 -22.269,22.477 C -23.762999999999998,29.7 -8.431000000000001,15.645 3.77,3.393 C 15.971,-8.859000000000002 26.165,-24.094 20.993,-24.446 Z" id="path_3" inkscape:label="Path 1" style="fill-opacity:1.0;fill:rgb(188, 93, 40);fill-rule:nonzero"/>
      </g>
      <g id="Group_9" inkscape:label="Group 9" transform="matrix(1.0, 0.0, 0.0, 1.0, 82.598, 423.298)" opacity="0.5" style="fill-opacity:1.0;fill:rgb(188, 93, 40);fill-rule:nonzero">
         <path d="M 24.776,-26.75 C 23.291,-29.108 13.083000000000002,-18.334 -11.165,5.851 C -36.629999999999995,31.25 -21.892,31.313 -9.414,19.273 C 3.064,7.2330000000000005 28.497,-20.839 24.776,-26.75 Z" id="path_4" inkscape:label="Path 1" style="fill-opacity:1.0;fill:rgb(188, 93, 40);fill-rule:nonzero"/>
      </g>
      <g id="Group_8" inkscape:label="Group 8" transform="matrix(1.0, 0.0, 0.0, 1.0, 68.763, 419.349)" opacity="0.5" style="fill-opacity:1.0;fill:rgb(188, 93, 40);fill-rule:nonzero">
         <path d="M -5.074,9.295 C 3.9000000000000004,-0.43100000000000094 21.32,-16.744999999999997 19.121,-19.621 C 16.921999999999997,-22.497 -18.813,10.872 -19.253,15.907 C -19.693,20.942 -17.893,23.188000000000002 -5.074,9.295 Z" id="path_5" inkscape:label="Path 1" style="fill-opacity:1.0;fill:rgb(188, 93, 40);fill-rule:nonzero"/>
      </g>
      <g id="Group_7" inkscape:label="Group 7" transform="matrix(1.0, 0.0, 0.0, 1.0, 145.725, 329.312)" opacity="0.5" style="fill-opacity:1.0;fill:rgb(239, 181, 123);fill-rule:nonzero">
         <path d="M 34.206,-33.005 C 37.937000000000005,-29.855000000000004 34.91,-26.975 14.106,-6.068 C -2.333,10.452 -11.409,15.554 -23.343,25.268 C -35.277,34.982 -47.189,41.907000000000004 -13.76,9.661 C 6.860999999999999,-10.231 29.692000000000004,-36.816 34.206,-33.005 Z" id="path_6" inkscape:label="Path 1" style="fill-opacity:1.0;fill:rgb(239, 181, 123);fill-rule:nonzero"/>
      </g>
      <g id="Group_6" inkscape:label="Group 6" transform="matrix(1.0, 0.0, 0.0, 1.0, 167.64, 320.342)" opacity="0.5" style="fill-opacity:1.0;fill:rgb(188, 93, 40);fill-rule:nonzero">
         <path d="M 11.581,-18.005 C 1.2989999999999995,-7.715 -7.062999999999999,1.730999999999998 -24.747,20.322 C -42.431,38.913 -21.067,30.013000000000005 12.554,-4.443 C 46.714,-39.452 25.951999999999998,-32.385999999999996 11.581,-18.005 Z" id="path_7" inkscape:label="Path 1" style="fill-opacity:1.0;fill:rgb(188, 93, 40);fill-rule:nonzero"/>
      </g>
      <g id="Group_5" inkscape:label="Group 5" transform="matrix(1.0, 0.0, 0.0, 1.0, 123.264, 371.592)" opacity="0.5" style="fill-opacity:1.0;fill:rgb(239, 181, 123);fill-rule:nonzero">
         <path d="M 65.519,-70.667 C 42.132000000000005,-43.668000000000006 17.734,-18.972 0.137,1.139 C -17.46,21.25 -73.514,64.67500000000001 -68.911,69.278 C -64.308,73.881 -61.774,67.338 -40.235,45.205 C -18.695,23.072999999999997 2.8150000000000013,6.289 19.501,-12.757 C 36.187,-31.802999999999997 69.179,-61.559 69.179,-61.559 C 69.179,-61.559 65.519,-70.667 65.519,-70.667 Z" id="path_8" inkscape:label="Path 1" style="fill-opacity:1.0;fill:rgb(239, 181, 123);fill-rule:nonzero"/>
      </g>
      <g id="Group_4" inkscape:label="Group 4" transform="matrix(1.0, 0.0, 0.0, 1.0, 184.058, 308.411)" opacity="0.4" style="fill-opacity:1.0;fill:rgb(145, 65, 10);fill-rule:nonzero">
         <path d="M -17.045,-5.669 C -17.045,-5.669 -9.822,10.108 5.955,17.331 C 5.955,17.331 17.045,6.241 17.045,6.241 C 17.045,6.241 -5.383,-17.331 -5.383,-17.331 C -5.383,-17.331 -17.045,-5.669 -17.045,-5.669 Z" id="path_9" inkscape:label="Path 1" style="fill-opacity:1.0;fill:rgb(145, 65, 10);fill-rule:nonzero"/>
      </g>
      <g id="Group_3" inkscape:label="Group 3" transform="matrix(1.0, 0.0, 0.0, 1.0, 152.684, 340.071)" style="stroke:rgb(129, 64, 14);stroke-opacity:1.0;stroke-width:8.0;stroke-miterlimit:0;stroke-linecap:round;stroke-linejoin:round">
         <path d="M -102.921,107.524 C -102.921,107.524 -107.524,102.921 -107.524,102.921 C -112.604,97.84100000000001 -112.604,89.604 -107.524,84.524 C -107.524,84.524 83.571,-106.571 83.571,-106.571 C 89.922,-112.922 100.22,-112.922 106.571,-106.571 C 106.571,-106.571 106.571,-106.571 106.571,-106.571 C 112.922,-100.22 112.922,-89.922 106.571,-83.571 C 106.571,-83.571 -84.524,107.524 -84.524,107.524 C -89.604,112.604 -97.84100000000001,112.604 -102.921,107.524 Z" id="path_10" inkscape:label="Path 1" style=""/>
      </g>
      <g id="Group_2" inkscape:label="Group 2" transform="matrix(1.0, 0.0, 0.0, 1.0, 150.302, 338.166)" style="stroke:rgb(124, 53, 5);stroke-opacity:1.0;stroke-width:8.0;stroke-miterlimit:0;stroke-linecap:round;stroke-linejoin:round">
         <path d="M -100.539,109.429 C -100.539,109.429 -105.142,104.826 -105.142,104.826 C -110.222,99.746 -110.222,91.509 -105.142,86.429 C -105.142,86.429 85.953,-104.665 85.953,-104.665 C 92.304,-111.016 102.601,-111.016 108.952,-104.665 C 108.952,-104.665 108.952,-104.665 108.952,-104.665 " id="path_11" inkscape:label="Path 1" style=""/>
      </g>
      <g id="Group_1" inkscape:label="Group 1" transform="matrix(1.0, 0.0, 0.0, 1.0, 109.441, 374.176)" opacity="0.5" style="fill-opacity:1.0;fill:rgb(188, 93, 40);fill-rule:nonzero">
         <path d="M 14.069,-16.129 C 5.8740000000000006,-8.503 -15.639999999999999,10.016 -20.682,18.622 C -25.723999999999997,27.228 -12.059000000000001,10.337 4.244,-0.453 C 20.547,-11.242999999999999 28.809,-29.845 14.069,-16.129 Z" id="path_12" inkscape:label="Path 1" style="fill-opacity:1.0;fill:rgb(188, 93, 40);fill-rule:nonzero"/>
      </g>
   </g>
   <g inkscape:groupmode="layer" id="Layer_2" inkscape:label="Layer 2" transform="matrix(6.123233995736766e-17, -1.0, 1.0, 6.123233995736766e-17, 204.5, 196.403)" style="">
      <g id="g_13" inkscape:label="Group 1" transform="matrix(1.0, 0.0, 0.0, 1.0, 0.0, 0.0)" style="fill-opacity:1.0;fill:url(#Gradient_Fill_2);fill-rule:nonzero">
         <path d="M 108.601,105.972 C 50.074,165.95 -45.99399999999999,167.128 -105.972,108.601 C -165.95,50.074 -167.128,-45.99399999999999 -108.601,-105.972 C -50.074,-165.95 45.99399999999999,-167.128 105.972,-108.601 C 165.95,-50.074 167.128,45.99399999999999 108.601,105.972 Z" id="path_14" inkscape:label="Path 1" style="fill-opacity:1.0;fill:url(#radialGradient_15);fill-rule:nonzero"/>
      </g>
   </g>
   <g inkscape:groupmode="layer" id="NULL_" inkscape:label="NULL " transform="matrix(1.0, 0.0, 0.0, 1.0, 152.5, 152.5)" opacity="1">
      <g inkscape:groupmode="layer" id="Layer_3" inkscape:label="Layer 3" transform="matrix(6.123233995736766e-17, -1.0, 1.0, 6.123233995736766e-17, 44.593, 5.159)" style="">
         <g id="g_16" inkscape:label="Group 1" transform="matrix(1.0, 0.0, 0.0, 1.0, 0.0, 0.0)" style="fill-opacity:1.0;fill:rgb(255, 217, 141);fill-rule:nonzero">
            <path d="M 104.199,-10.341 C 100.87,56.332 52.66,93.90700000000001 -3.139,98.156 C -48.660000000000004,101.622 -101.341,79.906 -104.478,17.697 C -107.48899999999999,-42.021 -52.102999999999994,-47.150000000000006 -35.037,-18.733 C -20.841,4.905999999999999 -40.075,5.378 -40.075,5.378 C -38.066,2.031 -37.341,-18.593999999999998 -56.109,-19.371 C -73.007,-20.070999999999998 -94.84100000000001,-4.092999999999996 -91.944,27.978 C -89.654,53.331 -45.840999999999994,110.90700000000001 28.658,75.29 C 78.226,51.593 110.159,-32.594 77.941,-83.726 C 88.159,-72.594 82.159,-82.594 93.411,-68.821 C 101.159,-50.093999999999994 105.66,-39.592999999999996 104.199,-10.341 Z" id="path_17" inkscape:label="Path 1" style="fill-opacity:1.0;fill:rgb(255, 217, 141);fill-rule:nonzero"/>
         </g>
      </g>
      <g inkscape:groupmode="layer" id="Layer_4" inkscape:label="Layer 4" transform="matrix(6.123233995736766e-17, -1.0, 1.0, 6.123233995736766e-17, 14.086, 57.338)" style="">
         <g id="g_18" inkscape:label="Group 1" transform="matrix(1.0, 0.0, 0.0, 1.0, 0.0, 0.0)" style="fill-opacity:1.0;fill:url(#Gradient_Fill_3);fill-rule:nonzero">
            <path d="M 50.295,102.475 C 17.410000000000004,113.01299999999999 -23.473,97.06299999999999 -31.689,62.339 C -39.243,30.413999999999998 -11.9,16.831 -0.3,22.915 C 11.303999999999998,29.000999999999998 9.676,40.019 9.676,40.019 C 2.6799999999999997,73.376 60.625,75.751 77.001,48.359 C 93.379,20.963 69.352,-49.535999999999994 14.222,-72.24 C -40.908,-94.94399999999999 -84.518,-63.365 -84.518,-63.365 C -84.518,-63.365 -89.019,-75.385 -89.019,-75.385 C -57.161,-114.58600000000001 5.772,-114.756 5.772,-114.756 C 51.022,-112.806 109.71000000000001,-85.10000000000001 118.885,-12.941 C 128.116,59.655 85.78200000000001,91.103 50.295,102.475 Z" id="path_19" inkscape:label="Path 1" style="fill-opacity:1.0;fill:url(#radialGradient_20);fill-rule:nonzero"/>
         </g>
      </g>
      <g inkscape:groupmode="layer" id="Layer_5" inkscape:label="Layer 5" transform="matrix(6.123233995736766e-17, -1.0, 1.0, 6.123233995736766e-17, 20.293, 76.515)" style="">
         <g id="g_21" inkscape:label="Group 1" transform="matrix(1.0, 0.0, 0.0, 1.0, 0.0, 0.0)" style="fill-opacity:1.0;fill:url(#Gradient_Fill_4);fill-rule:nonzero">
            <path d="M 81.817,74.087 C 60.044,89.459 24.232,88.225 6.139,67.291 C -8.387999999999998,50.483999999999995 -1.232000000000001,31.313 10.152,28.063 C 21.173000000000002,24.916 27.418,29.643 27.418,29.643 C 38.357,53.394999999999996 72.84700000000001,40.251999999999995 74.29,6.367 C 75.733,-27.517999999999997 22.015,-71.866 -36.783,-45.592 C -95.586,-19.316 -114.821,35.373 -114.821,35.373 C -114.821,35.373 -122.624,37.138999999999996 -122.624,20.706 C -122.624,-8.102 -95.611,-56.045 -95.611,-56.045 C -68.578,-88.607 -46.979,-101.48200000000001 -10.832,-102.811 C 25.314999999999998,-104.14 85.782,-85.166 108.484,-33.807 C 131.182,17.543 106.905,56.375 81.817,74.087 Z" id="path_22" inkscape:label="Path 1" style="fill-opacity:1.0;fill:url(#radialGradient_23);fill-rule:nonzero"/>
         </g>
      </g>
      <g inkscape:groupmode="layer" id="Layer_6" inkscape:label="Layer 6" transform="matrix(6.123233995736766e-17, -1.0, 1.0, 6.123233995736766e-17, 74.783, 84.011)" style="">
         <g id="g_24" inkscape:label="Group 1" transform="matrix(1.0, 0.0, 0.0, 1.0, 0.0, 0.0)" style="fill-opacity:1.0;fill:url(#Gradient_Fill_5);fill-rule:nonzero">
            <path d="M -12.735,117.579 C -100.243,90.663 -113.87,-2.392 -113.87,-2.392 C -116.182,-24.489 -116.03999999999999,-54.368 -82.679,-93.598 C -49.318000000000005,-132.828 24.995000000000005,-148.434 73.914,-109.833 C 120.625,-72.975 113.105,-13.088 85.391,8.152 C 53.011,32.967999999999996 17.767000000000003,8.811 17.356,-8.053 C 16.949,-24.757 35.414,-23.847 35.414,-23.847 C 57.723,5.716999999999999 81.217,-38.485 65.006,-65.687 C 48.799,-92.882 -15.768,-116.57499999999999 -54.629,-51.481 C -93.49199999999999,13.615000000000002 -14.24,88.696 -14.24,88.696 C -14.24,88.696 -12.735,117.579 -12.735,117.579 Z" id="path_25" inkscape:label="Path 1" style="fill-opacity:1.0;fill:url(#radialGradient_26);fill-rule:nonzero"/>
         </g>
      </g>
      <g inkscape:groupmode="layer" id="Layer_7" inkscape:label="Layer 7" transform="matrix(6.123233995736766e-17, -1.0, 1.0, 6.123233995736766e-17, 27.582, 84.01)" opacity="0.5" style="">
         <g id="g_27" inkscape:label="Group 1" transform="matrix(1.0, 0.0, 0.0, 1.0, 0.0, 0.0)" style="fill-opacity:1.0;fill:rgb(255, 255, 255);fill-rule:nonzero">
            <path d="M 75.14,48.102 C 46.760000000000005,65.91799999999999 30.011,53.918000000000006 26.605,40.648 C 22.452,24.465000000000003 34.163,24.104 34.163,24.104 C 34.163,24.104 34.177,24.118 34.177,24.118 C 26.915,25.333 38.522999999999996,39.216 44.872,41.967 C 52.261,45.168 89.25999999999999,34.668 77.547,-5.831 C 66.375,-44.459 5.759999999999998,-52.082 -33.709,-30.824 C -99.913,4.832999999999995 -51.12,143.559 -51.12,143.559 C -60.489,135.918 -79.49000000000001,120.418 -90.43,107.352 C -103.99000000000001,62.418000000000006 -96.535,6.964000000000002 -64.678,-29.075 C -32.995,-64.917 25.578999999999997,-68.365 52.663,-53.132 C 104.75999999999999,-23.831999999999997 104.71600000000001,29.535999999999998 75.14,48.102 Z" id="path_28" inkscape:label="Path 1" style="fill-opacity:1.0;fill:rgb(255, 255, 255);fill-rule:nonzero"/>
         </g>
      </g>
      <g inkscape:groupmode="layer" id="Layer_8" inkscape:label="Layer 8" transform="matrix(6.123233995736766e-17, -1.0, 1.0, 6.123233995736766e-17, 93.282, 62.173)" style="">
         <g id="g_29" inkscape:label="Group 1" transform="matrix(1.0, 0.0, 0.0, 1.0, 0.0, 0.0)" style="fill-opacity:1.0;fill:url(#Gradient_Fill_6);fill-rule:nonzero">
            <path d="M 68.282,98.923 C 0.6730000000000018,125.218 -58.259,89.117 -58.259,89.117 C -145.535,26.800000000000004 -110.22900000000001,-88.815 -44.692,-114.672 C 5.389000000000003,-134.43099999999998 49.529,-108.42499999999998 62.292,-75.439 C 75.055,-42.46699999999999 45.375,-7.6750000000000025 22.179,-17.324 C 3.8419999999999987,-24.951 8.16,-39.257000000000005 14.075,-41.847 C 14.075,-41.847 42.558,-36.049 31.435,-62.247 C 20.305,-88.452 -3.433,-84.457 -28.252,-78.348 C -53.072,-72.239 -78.74,-28.793000000000003 -29.935,30.929 C 5.3210000000000015,74.077 37.742,100.938 68.282,98.923 Z" id="path_30" inkscape:label="Path 1" style="fill-opacity:1.0;fill:url(#radialGradient_31);fill-rule:nonzero"/>
         </g>
      </g>
      <g inkscape:groupmode="layer" id="Layer_9" inkscape:label="Layer 9" transform="matrix(6.123233995736766e-17, -1.0, 1.0, 6.123233995736766e-17, 99.351, 51.259)" opacity="0.5" style="">
         <g id="g_32" inkscape:label="Group 1" transform="matrix(1.0, 0.0, 0.0, 1.0, 0.0, 0.0)" style="fill-opacity:1.0;fill:rgb(217, 255, 57);fill-rule:nonzero">
            <path d="M 82.368,79.854 C 66.50099999999999,90.333 50.554,97.414 31.264,101.331 C 17.128999999999998,100.36200000000001 -37.313,93.424 -74.075,46.281 C -116.84100000000001,-8.562000000000005 -100.507,-77.782 -56.751,-102.488 C -12.994999999999997,-127.194 27.116999999999997,-102.249 37.979,-83.707 C 54.836,-54.931 37.419,-31.136000000000003 24.169,-32.109 C 8.522,-33.258 5.183,-48.408 5.183,-48.408 C 6.124,-48.231 33.458,-43.06399999999999 22.521,-68.815 C 11.391,-95.021 -12.346999999999998,-91.02499999999999 -37.166,-84.916 C -61.986,-78.807 -87.651,-35.365 -38.849,24.36 C -3.5929999999999964,67.50800000000001 51.827999999999996,81.869 82.368,79.854 Z" id="path_33" inkscape:label="Path 1" style="fill-opacity:1.0;fill:rgb(217, 255, 57);fill-rule:nonzero"/>
         </g>
      </g>
      <g inkscape:groupmode="layer" id="Layer_10" inkscape:label="Layer 10" transform="matrix(6.123233995736766e-17, -1.0, 1.0, 6.123233995736766e-17, 70.433, 13.053)" style="">
         <g id="g_34" inkscape:label="Group 1" transform="matrix(1.0, 0.0, 0.0, 1.0, 0.0, 0.0)" style="fill-opacity:1.0;fill:url(#Gradient_Fill_7);fill-rule:nonzero">
            <path d="M 73.816,87.988 C -9.447000000000003,170.56799999999998 -110.743,91.369 -127.225,23.248 C -142.62699999999998,-40.40899999999999 -84.07300000000001,-85.39500000000001 -41.597,-75.504 C 0.8389999999999986,-65.622 8.855,-25.744999999999997 -5.563,-12.699 C -19.974,0.33999999999999986 -34.045,-18.497 -34.045,-18.497 C -22.947000000000003,-23.183 -19.174000000000003,-37.998000000000005 -38.56,-48.383 C -58.777,-59.213 -102.97500000000001,-31.468999999999998 -83.855,18.566 C -64.72800000000001,68.608 27.552999999999997,91.067 81.821,19.595 C 122.957,-34.582 103.096,-84.67699999999999 90.756,-106.142 C 86.702,-113.195 83.459,-117.157 83.459,-117.157 C 110.553,-86.43299999999999 121.553,-54.43300000000001 120.89,-18.434 C 119.655,48.666 73.816,87.988 73.816,87.988 Z" id="path_35" inkscape:label="Path 1" style="fill-opacity:1.0;fill:url(#radialGradient_36);fill-rule:nonzero"/>
         </g>
      </g>
      <g inkscape:groupmode="layer" id="Layer_11" inkscape:label="Layer 11" transform="matrix(6.123233995736766e-17, -1.0, 1.0, 6.123233995736766e-17, 49.635, 3.46)" opacity="0.5" style="">
         <g id="g_37" inkscape:label="Group 1" transform="matrix(1.0, 0.0, 0.0, 1.0, 0.0, 0.0)" style="fill-opacity:1.0;fill:rgb(100, 185, 255);fill-rule:nonzero">
            <path d="M 24.941,89.162 C -21.87,111.555 -74.927,90.054 -98.361,51.488 C -121.795,12.921999999999997 -97.71199999999999,-21.414 -79.817,-31.05 C -47.25399999999999,-48.585 -23.564,-24.566 -27.708,-8.822 C -31.546,5.761000000000001 -44.022999999999996,1.4909999999999999 -44.617,1.307 C -33.077,1.943 -27.287,-16.464 -46.653,-26.835 C -66.869,-37.661 -113.073,-11.669000000000004 -93.949,38.364 C -74.822,88.406 15.958999999999996,113.864 70.728,42.642 C 125.81899999999999,-28.999999999999993 79.365,-92.859 79.365,-92.859 C 85.241,-86.69999999999999 89.601,-77.039 94.381,-69.968 C 126.959,0.8649999999999949 75.209,65.11500000000001 24.941,89.162 Z" id="path_38" inkscape:label="Path 1" style="fill-opacity:1.0;fill:rgb(100, 185, 255);fill-rule:nonzero"/>
         </g>
      </g>
   </g>
   <g inkscape:groupmode="layer" id="Layer_14" inkscape:label="Layer 14" transform="matrix(6.123233995736766e-17, -1.0, 1.0, 6.123233995736766e-17, 204.5, 196.403)" style="">
      <g id="g_39" inkscape:label="Group 1" transform="matrix(1.0, 0.0, 0.0, 1.0, 0.0, 0.0)" style="stroke:rgb(196, 111, 0);stroke-opacity:1.0;stroke-width:8.0;stroke-miterlimit:0;stroke-linecap:round;stroke-linejoin:round">
         <path d="M 108.601,105.972 C 50.074,165.95 -45.99399999999999,167.128 -105.972,108.601 C -165.95,50.074 -167.128,-45.99399999999999 -108.601,-105.972 C -50.074,-165.95 45.99399999999999,-167.128 105.972,-108.601 C 165.95,-50.074 167.128,45.99399999999999 108.601,105.972 Z" id="path_40" inkscape:label="Path 1" style=""/>
      </g>
   </g>
   <g inkscape:groupmode="layer" id="Layer_22" inkscape:label="Layer 22" transform="matrix(6.123233995736766e-17, -1.0, 1.0, 6.123233995736766e-17, 204.5, 196.403)" style="">
      <g id="g_41" inkscape:label="Group 1" transform="matrix(1.0, 0.0, 0.0, 1.0, 0.0, 0.0)" style="stroke:rgb(74, 124, 3);stroke-opacity:1.0;stroke-width:8.0;stroke-miterlimit:0;stroke-linecap:round;stroke-linejoin:round">
         <path d="M 52.71662157064472,142.3231582647462 C 20.683879753803005,154.16304736738118 -14.57678352383423,154.84809885312546 -47.02017203563285,144.30401110193995 " style=""/>
      </g>
   </g>
   <g inkscape:groupmode="layer" id="Layer_23" inkscape:label="Layer 23" transform="matrix(6.123233995736766e-17, -1.0, 1.0, 6.123233995736766e-17, 204.5, 196.403)" style="">
      <g id="g_42" inkscape:label="Group 1" transform="matrix(1.0, 0.0, 0.0, 1.0, 0.0, 0.0)" style="stroke:rgb(93, 0, 137);stroke-opacity:1.0;stroke-width:8.0;stroke-miterlimit:0;stroke-linecap:round;stroke-linejoin:round">
         <path d="M -141.78904703017832,-54.146800379972554 C -137.97260394679938,-64.1555745620561 -133.0567723162584,-73.84504897059506 -127.03927762928289,-83.03016902852404 " style=""/>
      </g>
   </g>
   <g inkscape:groupmode="layer" id="Layer_24" inkscape:label="Layer 24" transform="matrix(6.123233995736766e-17, -1.0, 1.0, 6.123233995736766e-17, 204.5, 196.403)" style="">
      <g id="g_43" inkscape:label="Group 1" transform="matrix(1.0, 0.0, 0.0, 1.0, 0.0, 0.0)" style="stroke:rgb(142, 0, 34);stroke-opacity:1.0;stroke-width:8.0;stroke-miterlimit:0;stroke-linecap:round;stroke-linejoin:round">
         <path d="M -89.99030099999999,-122.20049499999999 C -55.347521463157875,-147.77661163157893 -12.210925365207743,-156.77751579999997 28.424835179683356,-149.0680720302143 " style=""/>
      </g>
   </g>
   <g inkscape:groupmode="layer" id="Layer_25" inkscape:label="Layer 25" transform="matrix(6.123233995736766e-17, -1.0, 1.0, 6.123233995736766e-17, 204.5, 196.403)" style="">
      <g id="g_44" inkscape:label="Group 1" transform="matrix(1.0, 0.0, 0.0, 1.0, 0.0, 0.0)" style="stroke:rgb(178, 76, 0);stroke-opacity:1.0;stroke-width:8.0;stroke-miterlimit:0;stroke-linecap:round;stroke-linejoin:round">
         <path d="M 5.907091259259225,-151.62350814814812 C 42.13293333333331,-150.22377777777777 77.98226666666665,-135.9136 105.972,-108.601 C 124.51065454545453,-90.51083636363637 131.84021719008263,-63.10398148760334 133.1188137821187,-33.86812790383177 " style=""/>
      </g>
   </g>
   <g inkscape:groupmode="layer" id="Layer_26" inkscape:label="Layer 26" transform="matrix(6.123233995736766e-17, -1.0, 1.0, 6.123233995736766e-17, 204.5, 196.403)" style="">
      <g id="g_45" inkscape:label="Group 1" transform="matrix(1.0, 0.0, 0.0, 1.0, 0.0, 0.0)" style="stroke:rgb(0, 60, 165);stroke-opacity:1.0;stroke-width:8.0;stroke-miterlimit:0;stroke-linecap:round;stroke-linejoin:round">
         <path d="M 119.30772942661181,-90.86032532235937 C 156.20775012345678,-23.56544493827157 108.601,105.972 108.601,105.972 
M 108.601,105.972 C 91.6932,123.29897777777776 71.65234864197532,135.7186962962963 50.25367014540469,143.2093362414266 " style=""/>
      </g>
   </g>
   <g inkscape:groupmode="layer" id="Layer_12" inkscape:label="Layer 12" transform="matrix(6.123233995736766e-17, -1.0, 1.0, 6.123233995736766e-17, 204.5, 196.403)" opacity="0.5" style="">
      <g id="g_46" inkscape:label="Group 1" transform="matrix(1.0, 0.0, 0.0, 1.0, 0.0, 0.0)" style="fill-opacity:1.0;fill:url(#Gradient_Fill_8);fill-rule:nonzero">
         <path d="M 0,136.934 C -75.627,136.934 -136.934,75.627 -136.934,0 C -136.934,-75.627 -75.627,-136.934 0,-136.934 C 75.627,-136.934 136.934,-75.627 136.934,0 C 136.934,75.627 75.627,136.934 0,136.934 Z" id="path_47" inkscape:label="Path 1" style="fill-opacity:1.0;fill:url(#radialGradient_48);fill-rule:nonzero"/>
      </g>
   </g>
   <g inkscape:groupmode="layer" id="Layer_13" inkscape:label="Layer 13" transform="matrix(6.123233995736766e-17, -1.0, 1.0, 6.123233995736766e-17, 204.5, 196.403)" opacity="0.8" style="">
      <g id="g_49" inkscape:label="Group 1" transform="matrix(1.0, 0.0, 0.0, 1.0, 0.0, 0.0)" style="fill-opacity:1.0;fill:url(#Gradient_Fill_9);fill-rule:nonzero">
         <path d="M 0,136.934 C -75.627,136.934 -136.934,75.627 -136.934,0 C -136.934,-75.627 -75.627,-136.934 0,-136.934 C 75.627,-136.934 136.934,-75.627 136.934,0 C 136.934,75.627 75.627,136.934 0,136.934 Z" id="path_50" inkscape:label="Path 1" style="fill-opacity:1.0;fill:url(#linearGradient_51);fill-rule:nonzero"/>
      </g>
   </g>
</svg>
