<?xml version="1.0" ?>
<svg xmlns:inkscape="http://www.inkscape.org/namespaces/inkscape" xmlns:sodipodi="http://sodipodi.sourceforge.net/DTD/sodipodi-0.dtd" xmlns="http://www.w3.org/2000/svg" width="512" height="512" viewBox="0 0 512 512" version="1.1" id="Композиция_1" sodipodi:docname="Композиция 1" inkscape:export-xdpi="96" inkscape:export-ydpi="96" style="fill: none; stroke: none">
   <defs>
      <radialGradient cx="-29.845" cy="-129.938" r="287.40178165766474" fx="-29.845" fy="-129.938" id="Gradient_Fill_1" inkscape:label="Gradient Fill 1" gradientUnits="userSpaceOnUse">
         <stop offset="0%" stop-color="rgb(221, 168, 14)" stop-opacity="0.97"/>
         <stop offset="30.7%" stop-color="rgb(221, 112, 7)" stop-opacity="0.985"/>
         <stop offset="100%" stop-color="rgb(221, 57, 0)" stop-opacity="1"/>
      </radialGradient>
      <radialGradient cx="-29.845" cy="-129.938" r="287.40178165766474" fx="-29.845" fy="-129.938" id="radialGradient_1" inkscape:label="Gradient Fill 1" gradientUnits="userSpaceOnUse">
         <stop offset="0%" stop-color="rgb(221, 168, 14)" stop-opacity="0.97"/>
         <stop offset="30.7%" stop-color="rgb(221, 112, 7)" stop-opacity="0.985"/>
         <stop offset="100%" stop-color="rgb(221, 57, 0)" stop-opacity="1"/>
      </radialGradient>
      <radialGradient cx="-29.845" cy="-129.938" r="287.40178165766474" fx="-29.845" fy="-129.938" id="radialGradient_2" inkscape:label="Gradient Fill 1" gradientUnits="userSpaceOnUse">
         <stop offset="0%" stop-color="rgb(255, 201, 46)" stop-opacity="0.97"/>
         <stop offset="30.7%" stop-color="rgb(254, 152, 29)" stop-opacity="0.985"/>
         <stop offset="99.9%" stop-color="rgb(254, 104, 12)" stop-opacity="1"/>
      </radialGradient>
      <radialGradient cx="-29.845" cy="-129.938" r="287.40178165766474" fx="-29.845" fy="-129.938" id="radialGradient_4" inkscape:label="Gradient Fill 1" gradientUnits="userSpaceOnUse">
         <stop offset="0%" stop-color="rgb(255, 201, 46)" stop-opacity="0.97"/>
         <stop offset="30.7%" stop-color="rgb(254, 152, 29)" stop-opacity="0.985"/>
         <stop offset="99.9%" stop-color="rgb(254, 104, 12)" stop-opacity="1"/>
      </radialGradient>
   </defs>
   <sodipodi:namedview inkscape:pagecheckerboard="true" borderlayer="true" bordercolor="#666666" pagecolor="#ffffff"/>
   <g inkscape:groupmode="layer" id="sly_pumpkin" inkscape:label="sly_pumpkin" transform="matrix(1.0, 0.0, 0.0, 1.0, 0.0, 0.0)">
      <g inkscape:groupmode="layer" id="Пусто_2" inkscape:label="Пусто 2" transform="matrix(1.0, 0.0, 0.0, 1.0, 256.0, 276.0)" opacity="1">
         <g inkscape:groupmode="layer" id="Пусто_1" inkscape:label="Пусто 1" transform="matrix(1.0019580505985757, -0.04028236688673026, 0.041240270397923044, 1.0257843351223985, 10.116919609316303, 167.01040570999248)" opacity="1">
            <g inkscape:groupmode="layer" id="Кривые_head" inkscape:label="Кривые head" transform="matrix(1.0, 0.0, 0.0, 0.9684074491050696, -291.78166699768286, -424.1581425880642)" style="">
               <g id="Группа_5" inkscape:label="Группа 5" transform="matrix(1.0, 0.0, 0.0, 1.0, 306.158, 69.779)" style="fill-opacity:1.0;fill:rgb(122, 64, 16);fill-rule:nonzero;stroke:rgb(53, 25, 6);stroke-opacity:1.0;stroke-width:14.267;stroke-miterlimit:0;stroke-linecap:round;stroke-linejoin:round">
                  <path d="M 23.079923076923073,24.50423076923077 C 23.079923076923073,24.50423076923077 22.286384615384616,9.101461538461539 23.258,-16.76276923076923 C 23.681846153846152,-28.796307692307693 25.24153846153846,-32.550769230769234 18.173538461538463,-38.824769230769235 C 15.189538461538463,-41.473769230769236 8.581,-44.95876923076923 1.54,-44.26576923076923 C -8.350999999999999,-43.29176923076923 -10.277999999999999,-39.86276923076923 -12.354,-37.72676923076923 C -17.942999999999998,-31.978769230769228 -21.14638461538462,-17.602076923076922 -25.957076923076926,-3.86776923076923 C -28.94238461538462,4.799615384615386 -31.416076923076922,16.81723076923077 -31.416076923076922,16.81723076923077 C -31.416076923076922,16.81723076923077 3.692923076923077,23.58923076923077 3.692923076923077,23.58923076923077 C 3.692923076923077,23.58923076923077 23.079923076923073,24.50423076923077 23.079923076923073,24.50423076923077 Z" id="Контур_1" inkscape:label="Контур 1" style="fill-opacity:1.0;fill:rgb(122, 64, 16);fill-rule:nonzero"/>
               </g>
               <g id="Group_4" inkscape:label="Group 4" transform="matrix(1.0, 0.0, 0.0, 1.0, 292.91, 274.503)" style="fill-opacity:1.0;fill:url(#Gradient_Fill_1);fill-rule:nonzero;stroke:rgb(155, 29, 8);stroke-opacity:1.0;stroke-width:16.0;stroke-miterlimit:0;stroke-linecap:round;stroke-linejoin:round">
                  <path d="M -88.41299999999998,-178.75099999999998 C -94.34899999999999,-174.94599999999997 -93.904,-174.93199999999996 -100.673,-175.75399999999996 C -119.555,-178.04799999999997 -169.33999999999997,-166.8405 -205.837,-111.50649999999999 C -241.06,-58.1035 -255.91000000000003,21.537499999999994 -224.122,92.17749999999998 C -205.72000000000003,133.06949999999998 -150.394,181.48799999999997 -99.311,178.41499999999996 C -95.06700000000001,178.15999999999997 -64.936,213.97799999999995 10.808999999999997,208.70599999999996 C 50.038,205.97599999999997 74.759,186.96699999999998 90.905,176.24099999999999 C 95.42,173.24099999999999 95.44200000000001,173.35799999999998 100.477,172.96699999999998 C 123.684,171.16899999999998 180.471,149.77949999999998 207.134,108.2225 C 258.729,27.805499999999995 237.49999999999997,-84.704 194.06599999999997,-134.653 C 150.47599999999997,-184.78199999999998 112.41999999999999,-184.071 88.04499999999999,-187.048 C 83.59799999999998,-187.592 62.09699999999999,-195.814 57.85799999999999,-197.733 C 46.54899999999999,-202.853 16.297,-210.87599999999998 -12.876999999999999,-208.07599999999996 C -54.749999999999986,-204.05699999999996 -77.78799999999998,-185.56199999999998 -88.41299999999998,-178.75099999999998 Z" id="Path_1" inkscape:label="Path 1" style="fill-opacity:1.0;fill:url(#radialGradient_1);fill-rule:nonzero"/>
               </g>
               <g id="Group_5" inkscape:label="Group 5" transform="matrix(0.91, 0.0, 0.0, 0.91, 291.91, 265.503)" style="fill-opacity:1.0;fill:url(#radialGradient_2);fill-rule:nonzero">
                  <path d="M -88.41299999999998,-178.75099999999998 C -94.34899999999999,-174.94599999999997 -93.904,-174.93199999999996 -100.673,-175.75399999999996 C -119.555,-178.04799999999997 -169.33999999999997,-166.8405 -205.837,-111.50649999999999 C -241.06,-58.1035 -255.91000000000003,21.537499999999994 -224.122,92.17749999999998 C -205.72000000000003,133.06949999999998 -150.394,181.48799999999997 -99.311,178.41499999999996 C -95.06700000000001,178.15999999999997 -64.936,213.97799999999995 10.808999999999997,208.70599999999996 C 50.038,205.97599999999997 74.759,186.96699999999998 90.905,176.24099999999999 C 95.42,173.24099999999999 95.44200000000001,173.35799999999998 100.477,172.96699999999998 C 123.684,171.16899999999998 180.471,149.77949999999998 207.134,108.2225 C 258.729,27.805499999999995 237.49999999999997,-84.704 194.06599999999997,-134.653 C 150.47599999999997,-184.78199999999998 112.41999999999999,-184.071 88.04499999999999,-187.048 C 83.59799999999998,-187.592 62.09699999999999,-195.814 57.85799999999999,-197.733 C 46.54899999999999,-202.853 16.297,-210.87599999999998 -12.876999999999999,-208.07599999999996 C -54.749999999999986,-204.05699999999996 -77.78799999999998,-185.56199999999998 -88.41299999999998,-178.75099999999998 Z" id="path_3" inkscape:label="Path 1" style="fill-opacity:1.0;fill:url(#radialGradient_4);fill-rule:nonzero"/>
               </g>
               <g id="Группа_2" inkscape:label="Группа 2" transform="matrix(1.0, 0.0, 0.0, 1.0, 146.904, 278.422)" style="stroke:rgb(207, 57, 16);stroke-opacity:0.67;stroke-width:16.0;stroke-miterlimit:0;stroke-linecap:round;stroke-linejoin:round">
                  <path d="M 60.317,-183.76 C 60.317,-183.76 23.039,-170.246 -5.769,-140.357 C -29.103,-116.148 -52.189,-77.346 -57.908,-30.377 C -77.195,128.016 64.131,183.759 64.131,183.759 " id="path_5" inkscape:label="Контур 1" style=""/>
               </g>
               <g id="Группа_1" inkscape:label="Группа 1" transform="matrix(1.0, 0.0, 0.0, 1.0, 424.887, 269.84)" style="stroke:rgb(207, 57, 16);stroke-opacity:0.67;stroke-width:16.0;stroke-miterlimit:0;stroke-linecap:round;stroke-linejoin:round">
                  <path d="M -65.917,-188.527 C -65.917,-188.527 36.65955833333334,-158.87506666666667 61.37455833333333,-70.29306666666668 C 83.96155833333333,10.663933333333318 63.370558333333335,62.952933333333334 45.02755833333333,98.61893333333333 C 13.240558333333333,160.42893333333333 -54.021,188.527 -54.021,188.527 " id="path_6" inkscape:label="Контур 1" style=""/>
               </g>
               <g inkscape:groupmode="layer" id="Кривые_mouth" inkscape:label="Кривые mouth" transform="matrix(1.1963091187260362, 0.0, 0.0, 1.012706826995628, 73.71901743397683, 212.01521271499618)" style="">
                  <g inkscape:groupmode="layer" id="Кривые_eyea" inkscape:label="Кривые eyea" transform="matrix(0.8754500000000001, 0.0, 0.0, 1.02985, 9.474898549999978, -107.61278815)" style="">
                     <g id="Группа_9" inkscape:label="Группа 9" transform="matrix(1.0, 0.0, 0.0, 1.0, 47.259, 119.867)" style="stroke:rgb(181, 35, 15);stroke-opacity:0.49;stroke-width:14.0;stroke-miterlimit:0;stroke-linecap:round;stroke-linejoin:round">
                        <path d="M -14.023472222222221,-6.49261111111111 C -14.023472222222221,-6.49261111111111 -5.703527777777777,-0.6392499999999994 0.8354722222222228,0.9957500000000006 C 0.8354722222222228,0.9957500000000006 10.647222222222222,3.583861111111111 10.647222222222222,3.583861111111111 " id="path_7" inkscape:label="Контур 1" style=""/>
                     </g>
                     <g id="Группа_8" inkscape:label="Группа 8" transform="matrix(1.0, 0.0, 0.0, 1.0, 269.523, 117.825)" style="stroke:rgb(181, 35, 15);stroke-opacity:0.55;stroke-width:14.0;stroke-miterlimit:0;stroke-linecap:round;stroke-linejoin:round">
                        <path d="M -33.92025806451613,-15.113225806451613 C -33.92025806451613,-15.113225806451613 -33.90480645161291,13.489193548387096 32.38416129032258,10.712741935483871 " id="path_8" inkscape:label="Контур 1" style=""/>
                     </g>
                     <g id="Группа_7" inkscape:label="Группа 7" transform="matrix(1.0, 0.0, 0.0, 1.0, 247.746, 80.587)" style="stroke:rgb(183, 57, 7);stroke-opacity:1.0;stroke-width:18.181;stroke-miterlimit:0;stroke-linecap:round;stroke-linejoin:round">
                        <path d="M 20.954,-29.356 C 20.954,-29.356 0.28999999999999915,-31.652 -12.051,-6.109 C -20.954,12.319 -15.229,31.652 -15.229,31.652 " id="path_9" inkscape:label="Контур 1" style=""/>
                     </g>
                     <g id="Группа_6" inkscape:label="Группа 6" transform="matrix(1.0, 0.0, 0.0, 1.0, 300.377, 80.367)" style="fill-opacity:1.0;fill:rgb(89, 40, 7);fill-rule:nonzero;stroke:rgb(43, 8, 8);stroke-opacity:1.0;stroke-width:13.12;stroke-miterlimit:0;stroke-linecap:round;stroke-linejoin:round">
                        <path d="M -3.269,-22.313 C 24.286,-23.154 44.899,-12.163 56.156,-0.40700000000000003 C 61.703,5.385 63.385999999999996,11.903 60.471,16.015 C 55.959999999999994,22.376 52.342,18.882 4.196,19.015 C -13.414,19.063 -24.414999999999996,19.902 -32.538,20.256 C -45.785,20.835 -52.330000000000005,23.153 -57.50600000000001,18.249 C -63.385000000000005,12.679999999999998 -60.242,3.107000000000001 -57.177,-1.8270000000000002 C -49.339,-14.445 -26.153,-21.615 -3.269,-22.313 Z" id="path_10" inkscape:label="Контур 1" style="fill-opacity:1.0;fill:rgb(89, 40, 7);fill-rule:nonzero"/>
                     </g>
                     <g id="g_11" inkscape:label="Группа 5" transform="matrix(1.0, 0.0, 0.0, 1.0, 268.194, 83.897)" style="fill-opacity:1.0;fill:rgb(252, 229, 16);fill-rule:nonzero">
                        <path d="M 19.972,4.364 C 19.319000000000003,10.919 9.881,14.922 -1.183,14.242 C -19.725,13.103000000000002 -20.625,6.937 -19.971,0.383 C -19.318,-6.172 -16.827,-14.922 3.185,-11.89 C 18.459,-9.576 20.625,-2.191 19.972,4.364 Z" id="path_12" inkscape:label="Контур 1" style="fill-opacity:1.0;fill:rgb(252, 229, 16);fill-rule:nonzero"/>
                     </g>
                     <g id="Группа_4" inkscape:label="Группа 4" transform="matrix(1.0, 0.0, 0.0, 1.0, 126.244, 114.792)" style="stroke:rgb(181, 35, 15);stroke-opacity:0.53;stroke-width:14.0;stroke-miterlimit:0;stroke-linecap:round;stroke-linejoin:round">
                        <path d="M 37.574,-14.698999999999998 C 37.574,-14.698999999999998 30.33312903225807,15.057387096774194 -36.137903225806454,13.443451612903226 " id="path_13" inkscape:label="Контур 1" style=""/>
                     </g>
                     <g id="Группа_3" inkscape:label="Группа 3" transform="matrix(1.0, 0.0, 0.0, 1.0, 151.401, 77.962)" style="stroke:rgb(183, 57, 7);stroke-opacity:1.0;stroke-width:18.455;stroke-miterlimit:0;stroke-linecap:round;stroke-linejoin:round">
                        <path d="M -21.59,-29.529 C -21.59,-29.529 -0.2989999999999995,-31.825 12.417,-6.282 C 21.59,12.146 8.343,31.825 8.343,31.825 " id="path_14" inkscape:label="Контур 1" style=""/>
                     </g>
                     <g id="Группа_10" inkscape:label="Группа 10" transform="matrix(1.0, 0.0, 0.0, 1.0, 300.377, 80.367)" style="stroke:rgb(43, 8, 8);stroke-opacity:1.0;stroke-width:13.12;stroke-miterlimit:0;stroke-linecap:round;stroke-linejoin:round">
                        <path d="M -3.269,-22.313 C 24.286,-23.154 44.899,-12.163 56.156,-0.40700000000000003 C 61.703,5.385 63.385999999999996,11.903 60.471,16.015 C 55.959999999999994,22.376 52.342,18.882 4.196,19.015 C -13.414,19.063 -24.414999999999996,19.902 -32.538,20.256 C -45.785,20.835 -52.330000000000005,23.153 -57.50600000000001,18.249 C -63.385000000000005,12.679999999999998 -60.242,3.107000000000001 -57.177,-1.8270000000000002 C -49.339,-14.445 -26.153,-21.615 -3.269,-22.313 Z" id="path_15" inkscape:label="Контур 1" style=""/>
                     </g>
                     <g id="g_16" inkscape:label="Группа 2" transform="matrix(1.0, 0.0, 0.0, 1.0, 98.48, 77.891)" style="fill-opacity:1.0;fill:rgb(89, 40, 7);fill-rule:nonzero;stroke:rgb(43, 8, 8);stroke-opacity:1.0;stroke-width:13.317;stroke-miterlimit:0;stroke-linecap:round;stroke-linejoin:round">
                        <path d="M 3.5779411764705884,-23.030058823529412 C -24.81405882352941,-23.871058823529413 -44.87676470588235,-16.936588235294117 -56.70388235294117,-5.117764705882353 C -62.455352941176464,0.6362352941176468 -65.19158823529412,7.384529411764706 -62.34317647058823,12.875705882352941 C -57.57311764705882,20.505235294117647 -56.46688235294117,20.22635294117647 -6.8598823529411765,20.359352941176468 C 11.285117647058819,20.407352941176466 25.215000000000003,21.55023529411765 33.584,21.904235294117647 C 47.234,22.483235294117648 55.77982352941176,22.301470588235293 61.0445294117647,15.891823529411763 C 66.37211764705881,9.274176470588234 62.47358823529412,1.524411764705882 58.930588235294124,-3.1125882352941177 C 48.591588235294125,-16.35158823529412 27.15694117647059,-22.33205882352941 3.5779411764705884,-23.030058823529412 Z" id="path_17" inkscape:label="Контур 1" style="fill-opacity:1.0;fill:rgb(89, 40, 7);fill-rule:nonzero"/>
                     </g>
                     <g id="g_18" inkscape:label="Группа 1" transform="matrix(1.0, 0.0, 0.0, 1.0, 63.382999999999996, 81.127)" style="fill-opacity:1.0;fill:rgb(252, 229, 16);fill-rule:nonzero">
                        <path d="M -20.42662745098039,2.8033529411764704 C -19.76062745098039,9.291352941176472 -14.570411764705883,16.588078431372548 0.5285882352941176,16.035078431372547 C 19.460588235294118,15.341078431372548 20.98037254901961,5.350980392156863 20.313372549019608,-1.1370196078431378 C 19.647372549019607,-7.626019607843138 16.55537254901961,-18.428019607843137 -3.856627450980392,-15.426019607843138 C -19.434627450980393,-13.135019607843137 -21.09262745098039,-3.684647058823531 -20.42662745098039,2.8033529411764704 Z" id="path_19" inkscape:label="Контур 1" style="fill-opacity:1.0;fill:rgb(252, 229, 16);fill-rule:nonzero"/>
                     </g>
                     <g id="Группа_11" inkscape:label="Группа 11" transform="matrix(1.0, 0.0, 0.0, 1.0, 98.48, 77.891)" style="stroke:rgb(43, 8, 8);stroke-opacity:1.0;stroke-width:13.317;stroke-miterlimit:0;stroke-linecap:round;stroke-linejoin:round">
                        <path d="M 3.5779411764705884,-23.030058823529412 C -24.81405882352941,-23.871058823529413 -44.87676470588235,-16.936588235294117 -56.70388235294117,-5.117764705882353 C -62.455352941176464,0.6362352941176468 -65.19158823529412,7.384529411764706 -62.34317647058823,12.875705882352941 C -57.57311764705882,20.505235294117647 -56.46688235294117,20.22635294117647 -6.8598823529411765,20.359352941176468 C 11.285117647058819,20.407352941176466 25.215000000000003,21.55023529411765 33.584,21.904235294117647 C 47.234,22.483235294117648 55.77982352941176,22.301470588235293 61.0445294117647,15.891823529411763 C 66.37211764705881,9.274176470588234 62.47358823529412,1.524411764705882 58.930588235294124,-3.1125882352941177 C 48.591588235294125,-16.35158823529412 27.15694117647059,-22.33205882352941 3.5779411764705884,-23.030058823529412 Z" id="path_20" inkscape:label="Контур 1" style=""/>
                     </g>
                     <g inkscape:groupmode="layer" id="Кривые_brows" inkscape:label="Кривые brows" transform="matrix(1.0, 0.0, 0.0, 1.0, 54.62034000910333, -33.297045971779696)" style="">
                        <g id="g_21" inkscape:label="Группа 2" transform="matrix(1.0, 0.0, 0.0, 1.0, 68.309, 48.285)" style="stroke:rgb(40, 5, 3);stroke-opacity:1.0;stroke-width:16.862;stroke-miterlimit:0;stroke-linecap:round;stroke-linejoin:round">
                           <path d="M 26.154,1.498 C 26.154,1.498 12.805,-5.857 0,-3.95 C -17.282,-1.3760000000000003 -26.154,5.857 -26.154,5.857 " id="path_22" inkscape:label="Контур 1" style=""/>
                        </g>
                        <g id="g_23" inkscape:label="Группа 1" transform="matrix(1.0, 0.0, 0.0, 1.0, 220.874, 50.329)" style="stroke:rgb(40, 5, 3);stroke-opacity:1.0;stroke-width:16.862;stroke-miterlimit:0;stroke-linecap:round;stroke-linejoin:round">
                           <path d="M -26.154,1.634 C -15.256,-8.174 13.077,-8.174000000000001 26.154,8.173 " id="path_24" inkscape:label="Контур 1" style=""/>
                        </g>
                     </g>
                  </g>
                  <g inkscape:groupmode="layer" id="g_25" inkscape:label="Группа 4" transform="matrix(1.0, 0.0, 0.0, 1.0, 0.0, 0.0)" style="">
                     <g inkscape:groupmode="layer" id="Группа_25" inkscape:label="Группа 25" transform="matrix(1.0, 0.0, 0.0, 1.0, 179.942, 63.872)" style="stroke:rgb(63, 20, 3);stroke-opacity:1.0;stroke-width:14.431;stroke-miterlimit:0;stroke-linecap:round;stroke-linejoin:round">
                        <path d="M -138.15242857142857,-17.93342857142857 C -111.71042857142857,0.7045714285714304 -49.451,14.753999999999998 -13.691,16.08 C 22.742999999999995,17.43 51.72357142857142,16.243000000000002 84.97657142857142,5.401 C 116.01857142857142,-4.720000000000001 132.51185714285714,-18.968714285714285 132.51185714285714,-18.968714285714285 " id="path_26" inkscape:label="Контур 1" style=""/>
                     </g>
                     <g inkscape:groupmode="layer" id="Группа_24" inkscape:label="Группа 24" transform="matrix(1.0, 0.0, 0.0, 1.0, 311.661, 46.034)" style="fill-opacity:1.0;fill:rgb(255, 93, 3);fill-rule:nonzero;stroke:rgb(155, 29, 8);stroke-opacity:1.0;stroke-width:14.0;stroke-miterlimit:0;stroke-linecap:round;stroke-linejoin:round">
                        <path d="M -2.4318,-15.1168 C -2.4318,-15.1168 5.386800000000001,-5.2822 7.021800000000001,-0.3782000000000001 C 7.021800000000001,-0.3782000000000001 7.2574000000000005,9.3768 7.2574000000000005,9.3768 " id="path_27" inkscape:label="Контур 1" style="fill-opacity:1.0;fill:rgb(255, 93, 3);fill-rule:nonzero"/>
                     </g>
                     <g inkscape:groupmode="layer" id="Группа_23" inkscape:label="Группа 23" transform="matrix(1.0, 0.0, 0.0, 1.0, 51.346, 51.755)" style="stroke:rgb(155, 29, 8);stroke-opacity:1.0;stroke-width:14.0;stroke-miterlimit:0;stroke-linecap:round;stroke-linejoin:round">
                        <path d="M 3.503,-12.387642857142858 C 3.503,-12.387642857142858 -4.884928571428571,-13.777285714285716 -12.224285714285713,-8.432928571428572 C -16.28457142857143,-5.254428571428573 -19.003785714285712,6.247428571428571 -19.003785714285712,6.247428571428571 " id="path_28" inkscape:label="Контур 1" style=""/>
                     </g>
                     <g inkscape:groupmode="layer" id="Группа_22" inkscape:label="Группа 22" transform="matrix(1.0, 0.0, 0.0, 1.0, 176.906, 98.28)" style="fill-opacity:1.0;fill:rgb(89, 40, 7);fill-rule:nonzero;stroke:rgb(43, 8, 8);stroke-opacity:1.0;stroke-width:13.317;stroke-miterlimit:0;stroke-linecap:round;stroke-linejoin:round">
                        <path d="M -122.97606666666667,-41.0052 C -122.97606666666667,-41.0052 -95.28553333333333,27.258133333333333 -61.9786,36.9118 C -27.281466666666667,47.062466666666666 15.916666666666664,54.38680000000001 61.36366666666667,34.674800000000005 C 108.02666666666667,14.434800000000006 124.21413333333334,-41.321266666666666 124.21413333333334,-41.321266666666666 C 124.21413333333334,-41.321266666666666 106.96713333333334,-34.7902 78.47113333333334,-28.9682 C 54.832133333333346,-24.138199999999998 22.44366666666667,-20.923599999999997 -8.726333333333333,-22.8056 C -27.615333333333332,-23.946599999999997 -46.04886666666667,-25.4076 -61.40186666666667,-28.1836 C -96.42086666666667,-34.5156 -122.97606666666667,-41.0052 -122.97606666666667,-41.0052 Z" id="path_29" inkscape:label="Контур 1" style="fill-opacity:1.0;fill:rgb(89, 40, 7);fill-rule:nonzero"/>
                     </g>
                     <g inkscape:groupmode="layer" id="g_30" inkscape:label="2" transform="matrix(1.0405066666666667, 0.0, 0.0, 1.0929693333333332, -6.458996527407379, 3.9086576241481623)" style="">
                        <g id="g_31" inkscape:label="7" transform="matrix(1.0, 0.0, 0.0, 1.0, 126.26, 119.94)" style="fill-opacity:1.0;fill:rgb(254, 105, 12);fill-rule:nonzero">
                           <path d="M 17.192,6.704 C 17.192,6.704 14.344000000000001,-4.298 9.146,-8.974 C 3.9490000000000007,-13.651 1.3439999999999999,-18.143 -1.568,-18.468 C -4.479,-18.793 -10.985,0.33499999999999996 -12.395,3.539 C -13.805,6.744 -17.566,11.775 -17.566,11.775 C -17.566,11.775 3.805,18.793 3.805,18.793 C 3.805,18.793 17.566,15.286 17.566,15.286 C 17.566,15.286 17.192,6.704 17.192,6.704 Z" id="path_32" inkscape:label="Контур 1" style="fill-opacity:1.0;fill:rgb(254, 105, 12);fill-rule:nonzero"/>
                        </g>
                        <g id="g_33" inkscape:label="6" transform="matrix(1.0, 0.0, 0.0, 1.0, 175.578, 126.721)" style="fill-opacity:1.0;fill:rgb(254, 105, 12);fill-rule:nonzero">
                           <path d="M -18.889,10.534 C -18.889,10.534 -16.346,-1.8170000000000002 -9.444,-6.902 C -2.543000000000001,-11.988 7.265,-14.167 13.077,-13.077 C 18.889,-11.988 18.889,10.534 18.889,10.534 C 18.889,10.534 3.996,13.440000000000001 0,13.803 C -3.996,14.167000000000002 -18.889,10.534 -18.889,10.534 Z" id="path_34" inkscape:label="Контур 1" style="fill-opacity:1.0;fill:rgb(254, 105, 12);fill-rule:nonzero"/>
                        </g>
                        <g id="g_35" inkscape:label="5" transform="matrix(1.0, 0.0, 0.0, 1.0, 226.615, 119.365)" style="fill-opacity:1.0;fill:rgb(254, 105, 12);fill-rule:nonzero">
                           <path d="M -16.164,15.348 C -16.164,15.348 -18.525,-0.45399999999999974 -17.799,-4.087 C -17.072,-7.718999999999999 -16.709,-15.348 -13.076,-15.348 C -9.444,-15.348 6.497000000000001,-8.8 12.512,-3.719 C 18.526,1.363 17.8,4.632 17.8,4.632 C 17.8,4.632 3.9939999999999998,10.073 0.001,11.534 C -7.446,14.258000000000001 -16.164,15.348 -16.164,15.348 Z" id="path_36" inkscape:label="Контур 1" style="fill-opacity:1.0;fill:rgb(254, 105, 12);fill-rule:nonzero"/>
                        </g>
                        <g id="g_37" inkscape:label="4" transform="matrix(1.0, 0.0, 0.0, 1.0, 128.515, 114.416)" style="stroke:rgb(43, 8, 8);stroke-opacity:1.0;stroke-width:13.317;stroke-miterlimit:0;stroke-linecap:round;stroke-linejoin:round">
                           <path d="M -18.185,7.083 C -18.185,7.083 -7.424,-12.395 -7.424,-12.395 C -7.424,-12.395 -1.158,-14.848 2.112,-12.124 C 5.381,-9.399000000000001 13.009,-2.86 15.461,1.499 C 17.913,5.8580000000000005 18.185,14.848 18.185,14.848 " id="path_38" inkscape:label="Контур 1" style=""/>
                        </g>
                        <g id="g_39" inkscape:label="3" transform="matrix(1.0, 0.0, 0.0, 1.0, 174.807, 119.728)" style="stroke:rgb(43, 8, 8);stroke-opacity:1.0;stroke-width:13.317;stroke-miterlimit:0;stroke-linecap:round;stroke-linejoin:round">
                           <path d="M -20.66,10.625 C -20.66,10.625 -17.027,-0.9989999999999997 -8.309,-5.358 C 0.4090000000000007,-9.716999999999999 10.307,-10.625 13.576,-9.535 C 16.846,-8.446 20.66,10.353 20.66,10.353 " id="path_40" inkscape:label="Контур 1" style=""/>
                        </g>
                        <g id="g_41" inkscape:label="2" transform="matrix(1.0, 0.0, 0.0, 1.0, 224.981, 113.871)" style="stroke:rgb(43, 8, 8);stroke-opacity:1.0;stroke-width:13.317;stroke-miterlimit:0;stroke-linecap:round;stroke-linejoin:round">
                           <path d="M -19.252,14.303 C -19.252,14.303 -18.89,4.223 -18.617,2.316 C -18.345000000000002,0.4089999999999998 -15.166,-10.307 -11.988,-12.305 C -11.988,-12.305 -8.809,-14.303 -8.809,-14.303 C -8.809,-14.303 14.620999999999999,-2.043 16.528,-0.681 C 18.435,0.681 19.252,2.043 19.252,2.043 " id="path_42" inkscape:label="Контур 1" style=""/>
                        </g>
                     </g>
                     <g inkscape:groupmode="layer" id="g_43" inkscape:label="1" transform="matrix(1.0, 0.0, 0.0, 1.0, 0.4094222222222186, -3.3837179259259216)" style="">
                        <g id="g_44" inkscape:label="10" transform="matrix(1.0, 0.0, 0.0, 1.0, 178.311, 83.82)" style="fill-opacity:1.0;fill:rgb(254, 122, 18);fill-rule:nonzero">
                           <path d="M -23.415,-14.095 C -23.415,-14.095 -20.046999999999997,1.75 -18.897,6.541 C -17.746,11.331 -14.871,11.93 -8.544,12.529 C -2.218000000000001,13.128 8.71,14.326 13.311,12.529 C 17.913,10.733 23.415,-14.326 23.415,-14.326 C 23.415,-14.326 3.5340000000000003,-13.221 0.083,-13.221 C -3.368,-13.221 -23.415,-14.095 -23.415,-14.095 Z" id="path_45" inkscape:label="Контур 1" style="fill-opacity:1.0;fill:rgb(254, 122, 18);fill-rule:nonzero"/>
                        </g>
                        <g id="g_46" inkscape:label="9" transform="matrix(1.0, 0.0, 0.0, 1.0, 126.54, 76.764)" style="fill-opacity:1.0;fill:rgb(254, 127, 20);fill-rule:nonzero">
                           <path d="M -20.706,-12.724 C -20.706,-12.724 -18.858999999999998,-5.4110000000000005 -17.709,-0.62 C -16.559,4.171 -12.854,4.612 -7.084,7.276 C -0.0009999999999994458,10.545 10.383,14.521 14.984,12.724 C 19.586,10.928 20.706,-13.922 20.706,-13.922 C 20.706,-13.922 5.176,-14.521 1.725,-14.521 C -1.726,-14.521 -20.706,-12.724 -20.706,-12.724 Z" id="path_47" inkscape:label="Контур 1" style="fill-opacity:1.0;fill:rgb(254, 127, 20);fill-rule:nonzero"/>
                        </g>
                        <g id="g_48" inkscape:label="8" transform="matrix(1.0, 0.0, 0.0, 1.0, 227.38, 78.771)" style="fill-opacity:1.0;fill:rgb(254, 124, 19);fill-rule:nonzero">
                           <path d="M -17.579,-10.893 C -17.579,-10.893 -15.84,6.176 -15.477,10.172 C -15.113,14.167000000000002 -12.934,16.71 -8.575,16.71 C -4.215999999999999,16.71 15.400999999999998,8.355 16.49,5.449 C 17.58,2.5429999999999997 16.853,-16.71 16.853,-16.71 C 16.853,-16.71 -1.673,-13.441 -1.673,-13.441 C -1.673,-13.441 -17.579,-10.893 -17.579,-10.893 Z" id="path_49" inkscape:label="Контур 1" style="fill-opacity:1.0;fill:rgb(254, 124, 19);fill-rule:nonzero"/>
                        </g>
                        <g id="g_50" inkscape:label="7" transform="matrix(1.0, 0.0, 0.0, 1.0, 271.341, 65.105)" style="fill-opacity:1.0;fill:rgb(254, 124, 19);fill-rule:nonzero">
                           <path d="M -16.755,-2.044 C -16.755,-2.044 -15.665000000000001,14.848 -14.848,17.573 C -14.031,20.297 12.941,3.9509999999999996 14.848,0.409 C 16.755000000000003,-3.133 16.21,-20.297 16.21,-20.297 C 16.21,-20.297 -16.755,-2.044 -16.755,-2.044 Z" id="path_51" inkscape:label="Контур 1" style="fill-opacity:1.0;fill:rgb(254, 124, 19);fill-rule:nonzero"/>
                        </g>
                        <g id="g_52" inkscape:label="6" transform="matrix(1.0, 0.0, 0.0, 1.0, 80.316, 67.602)" style="fill-opacity:1.0;fill:rgb(254, 124, 19);fill-rule:nonzero">
                           <path d="M -18.253,-16.801 C -18.253,-16.801 -7.901,0.45399999999999974 -1.363,6.085 C 5.176,11.715 13.167000000000002,16.8 15.71,16.436 C 18.253,16.073 17.346,-12.441 17.346,-12.441 C 17.346,-12.441 -18.253,-16.801 -18.253,-16.801 Z" id="path_53" inkscape:label="Контур 1" style="fill-opacity:1.0;fill:rgb(254, 124, 19);fill-rule:nonzero"/>
                        </g>
                        <g id="g_54" inkscape:label="5" transform="matrix(1.0, 0.0, 0.0, 1.0, 176.305, 87.172)" style="stroke:rgb(43, 8, 8);stroke-opacity:1.0;stroke-width:13.317;stroke-miterlimit:0;stroke-linecap:round;stroke-linejoin:round">
                           <path d="M -24.338,-12.033 C -24.338,-12.033 -20.342,2.589 -20.342,2.589 C -20.342,2.589 -19.661,7.765000000000001 -15.847,9.127 C -12.033,10.49 3.314,11.079 8.355,11.215 C 13.395,11.350999999999999 16.528000000000002,12.033000000000001 17.617,7.402 C 18.707,2.7700000000000005 24.338,-8.763 24.338,-8.763 " id="path_55" inkscape:label="Контур 1" style=""/>
                        </g>
                        <g id="g_56" inkscape:label="4" transform="matrix(1.0, 0.0, 0.0, 1.0, 229.311, 83.676)" style="stroke:rgb(43, 8, 8);stroke-opacity:1.0;stroke-width:13.317;stroke-miterlimit:0;stroke-linecap:round;stroke-linejoin:round">
                           <path d="M -19.28,-5.877 C -19.28,-5.877 -18.861,-0.5449999999999999 -17.408,5.267 C -15.955000000000002,11.079 -12.685,12.169 -5.057,11.079 C 2.5709999999999997,9.989 10.401,6.018 13.469,4.177 C 15.285,3.0869999999999997 19.28,-12.169 19.28,-12.169 " id="path_57" inkscape:label="Контур 1" style=""/>
                        </g>
                        <g id="g_58" inkscape:label="3" transform="matrix(1.0, 0.0, 0.0, 1.0, 270.024, 72.188)" style="stroke:rgb(43, 8, 8);stroke-opacity:1.0;stroke-width:13.317;stroke-miterlimit:0;stroke-linecap:round;stroke-linejoin:round">
                           <path d="M -17.073,-1.499 C -17.073,-1.499 -14.076,11.307 -14.076,11.307 C -14.076,11.307 -14.076,14.848 -9.445,14.031 C -4.813000000000001,13.214 10.988,1.77 13.985,-1.499 C 16.982,-4.768000000000001 17.073,-14.848 17.073,-14.848 " id="path_59" inkscape:label="Контур 1" style=""/>
                        </g>
                        <g id="g_60" inkscape:label="2" transform="matrix(1.0, 0.0, 0.0, 1.0, 126.358, 79.907)" style="stroke:rgb(43, 8, 8);stroke-opacity:1.0;stroke-width:13.317;stroke-miterlimit:0;stroke-linecap:round;stroke-linejoin:round">
                           <path d="M -22.703,-15.211 C -22.703,-15.211 -21.613,-2.9509999999999996 -20.523,-0.772 C -19.434,1.4080000000000001 -16.163999999999998,4.132 -11.261,6.039 C -6.356999999999999,7.946 5.631,13.395 5.631,13.395 C 5.631,13.395 13.35,15.211 14.712,11.942 C 16.073999999999998,8.673 22.703,-5.131 22.703,-5.131 " id="path_61" inkscape:label="Контур 1" style=""/>
                        </g>
                        <g id="g_62" inkscape:label="1" transform="matrix(1.0, 0.0, 0.0, 1.0, 82.95, 74.776)" style="stroke:rgb(43, 8, 8);stroke-opacity:1.0;stroke-width:13.317;stroke-miterlimit:0;stroke-linecap:round;stroke-linejoin:round">
                           <path d="M -20.161,-16.618 C -20.161,-16.618 -11.171,0.8179999999999996 -2.725,6.539 C 5.721,12.26 13.348999999999998,16.618 16.618,13.077 C 17.950999999999997,11.633 20.161,-9.535 20.161,-9.535 " id="path_63" inkscape:label="Контур 1" style=""/>
                        </g>
                     </g>
                  </g>
                  <g inkscape:groupmode="layer" id="g_64" inkscape:label="0" transform="matrix(1.0, 0.0, 0.0, 1.0, 155.963, 200.566)" style="stroke:rgb(155, 29, 8);stroke-opacity:1.0;stroke-width:16.0;stroke-miterlimit:0;stroke-linecap:round;stroke-linejoin:round">
                     <path d="M -71.94214814814814,-38.47537037037037 C -71.94214814814814,-38.47537037037037 -74.27007407407407,34.812666666666665 5.794185185185185,40.63511111111111 C 53.92466666666667,44.130074074074074 97.21914814814815,-13.858296296296295 97.21914814814815,-13.858296296296295 " id="path_65" inkscape:label="Контур 1" style=""/>
                  </g>
                  <g inkscape:groupmode="layer" id="g_66" inkscape:label="0" transform="matrix(1.0, 0.0, 0.0, 1.0, 270.387, 180.482)" style="stroke:rgb(181, 35, 15);stroke-opacity:0.74;stroke-width:14.0;stroke-miterlimit:0;stroke-linecap:round;stroke-linejoin:round">
                     <path d="M 28.32557142857143,-32.84807142857142 C 28.32557142857143,-32.84807142857142 17.633714285714287,-20.613857142857142 10.698857142857145,-15.516357142857144 C 10.698857142857145,-15.516357142857144 4.728785714285715,-10.004642857142857 4.728785714285715,-10.004642857142857 " id="path_67" inkscape:label="Контур 1" style=""/>
                  </g>
                  <g inkscape:groupmode="layer" id="g_68" inkscape:label="0" transform="matrix(1.0, 0.0, 0.0, 1.0, 60.065, 164.136)" style="stroke:rgb(181, 35, 15);stroke-opacity:0.68;stroke-width:14.0;stroke-miterlimit:0;stroke-linecap:round;stroke-linejoin:round">
                     <path d="M -7.077,-18.05 C -7.077,-18.05 -5.263,-11.184000000000001 -1.994,-7.915 C -1.994,-7.915 1.259,-3.62 1.259,-3.62 " id="path_69" inkscape:label="Контур 1" style=""/>
                  </g>
                  <g inkscape:groupmode="layer" id="g_70" inkscape:label="0" transform="matrix(1.0, 0.0, 0.0, 1.0, 161.957, 153.72)" style="stroke:rgb(181, 35, 15);stroke-opacity:0.64;stroke-width:16.0;stroke-miterlimit:0;stroke-linecap:round;stroke-linejoin:round">
                     <path d="M -33.406,14.261 C -33.406,14.261 -26.737222222222222,11.446111111111112 -6.5762222222222215,9.266111111111112 C 9.710777777777778,7.506111111111112 31.41133333333333,17.39188888888889 31.41133333333333,17.39188888888889 " id="path_71" inkscape:label="Контур 1" style=""/>
                  </g>
               </g>
            </g>
         </g>
      </g>
   </g>
</svg>
