<?xml version="1.0" ?>
<svg xmlns:inkscape="http://www.inkscape.org/namespaces/inkscape" xmlns:sodipodi="http://sodipodi.sourceforge.net/DTD/sodipodi-0.dtd" xmlns="http://www.w3.org/2000/svg" width="512" height="512" viewBox="0 0 512 512" version="1.1" id="svg_1" sodipodi:docname="34" inkscape:export-xdpi="96" inkscape:export-ydpi="96" style="fill: none; stroke: none">
   <defs>
      <linearGradient x1="3.134" y1="-84.325" x2="0.482" y2="14.389" id="nowqweqr" inkscape:label="nowqweqr" gradientUnits="userSpaceOnUse">
         <stop offset="17.0%" stop-color="rgb(191, 255, 119)" stop-opacity="1"/>
         <stop offset="37.0%" stop-color="rgb(149, 246, 99)" stop-opacity="1"/>
         <stop offset="57.599999999999994%" stop-color="rgb(108, 236, 80)" stop-opacity="1"/>
      </linearGradient>
      <linearGradient x1="3.134" y1="-84.325" x2="0.482" y2="14.389" id="linearGradient_2" inkscape:label="nowqweqr" gradientUnits="userSpaceOnUse">
         <stop offset="17.0%" stop-color="rgb(191, 255, 119)" stop-opacity="1"/>
         <stop offset="37.0%" stop-color="rgb(149, 246, 99)" stop-opacity="1"/>
         <stop offset="57.599999999999994%" stop-color="rgb(108, 236, 80)" stop-opacity="1"/>
      </linearGradient>
      <linearGradient x1="4.384" y1="12.425" x2="1.884" y2="-85.555" id="uhwifud" inkscape:label="uhwifud" gradientUnits="userSpaceOnUse">
         <stop offset="20.0%" stop-color="rgb(57, 150, 43)" stop-opacity="1"/>
         <stop offset="51.9%" stop-color="rgb(97, 174, 57)" stop-opacity="1"/>
         <stop offset="80.9%" stop-color="rgb(138, 199, 71)" stop-opacity="1"/>
      </linearGradient>
      <linearGradient x1="-0.92" y1="-52.688" x2="-0.92" y2="61.119" id="linearGradient_4" inkscape:label="934k.smdg.,sdh" gradientUnits="userSpaceOnUse">
         <stop offset="2.0%" stop-color="rgb(166, 123, 73)" stop-opacity="1"/>
         <stop offset="47.9%" stop-color="rgb(142, 94, 57)" stop-opacity="1"/>
         <stop offset="93.10000000000001%" stop-color="rgb(117, 65, 41)" stop-opacity="1"/>
      </linearGradient>
      <linearGradient x1="-0.92" y1="-52.688" x2="-0.92" y2="61.119" id="linearGradient_6" inkscape:label="934k.smdg.,sdh" gradientUnits="userSpaceOnUse">
         <stop offset="2.0%" stop-color="rgb(166, 123, 73)" stop-opacity="1"/>
         <stop offset="47.9%" stop-color="rgb(142, 94, 57)" stop-opacity="1"/>
         <stop offset="93.10000000000001%" stop-color="rgb(117, 65, 41)" stop-opacity="1"/>
      </linearGradient>
      <linearGradient x1="-0.921" y1="58.226" x2="-0.921" y2="-58.723" id="linearGradient_8" inkscape:label="9498is./.f,gd" gradientUnits="userSpaceOnUse">
         <stop offset="0%" stop-color="rgb(255, 204, 130)" stop-opacity="0"/>
         <stop offset="51.300000000000004%" stop-color="rgb(255, 204, 130)" stop-opacity="0.5"/>
         <stop offset="100%" stop-color="rgb(255, 204, 130)" stop-opacity="1"/>
      </linearGradient>
      <linearGradient x1="-0.92" y1="65.312" x2="-0.92" y2="-65.808" id="idiufhg4587hdfh" inkscape:label="idiufhg4587hdfh" gradientUnits="userSpaceOnUse">
         <stop offset="7.6%" stop-color="rgb(89, 47, 0)" stop-opacity="1"/>
         <stop offset="53.300000000000004%" stop-color="rgb(118, 73, 24)" stop-opacity="1"/>
         <stop offset="100%" stop-color="rgb(147, 99, 49)" stop-opacity="1"/>
      </linearGradient>
      <radialGradient cx="-0.567" cy="-0.101" r="242.01292846664205" fx="-0.567" fy="-0.101" id="radialGradient_13" inkscape:label="83y834hjhksdg" gradientUnits="userSpaceOnUse">
         <stop offset="40.2%" stop-color="rgb(185, 255, 186)" stop-opacity="1"/>
         <stop offset="66.9%" stop-color="rgb(185, 255, 186)" stop-opacity="0.5"/>
         <stop offset="100%" stop-color="rgb(185, 255, 186)" stop-opacity="0"/>
      </radialGradient>
      <radialGradient cx="-0.567" cy="-0.101" r="242.01292846664205" fx="-0.567" fy="-0.101" id="radialGradient_15" inkscape:label="83y834hjhksdg" gradientUnits="userSpaceOnUse">
         <stop offset="40.2%" stop-color="rgb(185, 255, 186)" stop-opacity="1"/>
         <stop offset="66.9%" stop-color="rgb(185, 255, 186)" stop-opacity="0.5"/>
         <stop offset="100%" stop-color="rgb(185, 255, 186)" stop-opacity="0"/>
      </radialGradient>
      <linearGradient x1="-0.197" y1="-140.669" x2="-0.197" y2="181.443" id="ierhuhsfgdfgs" inkscape:label="ierhuhsfgdfgs" gradientUnits="userSpaceOnUse">
         <stop offset="14.399999999999999%" stop-color="rgb(229, 242, 222)" stop-opacity="0"/>
         <stop offset="40.8%" stop-color="rgb(242, 249, 238)" stop-opacity="0.5"/>
         <stop offset="64.9%" stop-color="rgb(255, 255, 255)" stop-opacity="1"/>
      </linearGradient>
      <linearGradient x1="-0.197" y1="-140.669" x2="-0.197" y2="181.443" id="linearGradient_18" inkscape:label="ierhuhsfgdfgs" gradientUnits="userSpaceOnUse">
         <stop offset="14.399999999999999%" stop-color="rgb(229, 242, 222)" stop-opacity="0"/>
         <stop offset="40.8%" stop-color="rgb(242, 249, 238)" stop-opacity="0.5"/>
         <stop offset="64.9%" stop-color="rgb(255, 255, 255)" stop-opacity="1"/>
      </linearGradient>
      <linearGradient x1="-0.197" y1="-140.669" x2="-0.197" y2="181.443" id="poiugsdsgdg" inkscape:label="poiugsdsgdg" gradientUnits="userSpaceOnUse">
         <stop offset="22.7%" stop-color="rgb(255, 255, 255)" stop-opacity="0.7"/>
         <stop offset="41.5%" stop-color="rgb(223, 255, 224)" stop-opacity="0.85"/>
         <stop offset="78.60000000000001%" stop-color="rgb(191, 255, 194)" stop-opacity="1"/>
      </linearGradient>
      <linearGradient x1="-0.197" y1="-140.669" x2="-0.197" y2="181.443" id="linearGradient_20" inkscape:label="poiugsdsgdg" gradientUnits="userSpaceOnUse">
         <stop offset="22.7%" stop-color="rgb(255, 255, 255)" stop-opacity="0.7"/>
         <stop offset="41.5%" stop-color="rgb(223, 255, 224)" stop-opacity="0.85"/>
         <stop offset="78.60000000000001%" stop-color="rgb(191, 255, 194)" stop-opacity="1"/>
      </linearGradient>
      <linearGradient x1="-0.197" y1="213.331" x2="-0.197" y2="-213.495" id="eryghudsfg" inkscape:label="eryghudsfg" gradientUnits="userSpaceOnUse">
         <stop offset="35.8%" stop-color="rgb(132, 202, 98)" stop-opacity="1"/>
         <stop offset="53.1%" stop-color="rgb(170, 218, 155)" stop-opacity="1"/>
         <stop offset="68.8%" stop-color="rgb(207, 234, 211)" stop-opacity="1"/>
      </linearGradient>
      <linearGradient x1="-0.616" y1="-98.7" x2="2.357" y2="109.389" id="asfdiufsg" inkscape:label="asfdiufsg" gradientUnits="userSpaceOnUse">
         <stop offset="17.0%" stop-color="rgb(191, 255, 119)" stop-opacity="1"/>
         <stop offset="37.0%" stop-color="rgb(149, 246, 99)" stop-opacity="1"/>
         <stop offset="57.599999999999994%" stop-color="rgb(108, 236, 80)" stop-opacity="1"/>
      </linearGradient>
      <linearGradient x1="-0.616" y1="-98.7" x2="2.357" y2="109.389" id="linearGradient_25" inkscape:label="asfdiufsg" gradientUnits="userSpaceOnUse">
         <stop offset="17.0%" stop-color="rgb(191, 255, 119)" stop-opacity="1"/>
         <stop offset="37.0%" stop-color="rgb(149, 246, 99)" stop-opacity="1"/>
         <stop offset="57.599999999999994%" stop-color="rgb(108, 236, 80)" stop-opacity="1"/>
      </linearGradient>
      <linearGradient x1="-0.122" y1="116.934" x2="-0.122" y2="-116.939" id="beseasd" inkscape:label="beseasd" gradientUnits="userSpaceOnUse">
         <stop offset="10.8%" stop-color="rgb(255, 255, 235)" stop-opacity="0"/>
         <stop offset="53.6%" stop-color="rgb(255, 255, 235)" stop-opacity="0.5"/>
         <stop offset="100%" stop-color="rgb(255, 255, 235)" stop-opacity="1"/>
      </linearGradient>
      <linearGradient x1="-0.616" y1="124.3" x2="-0.616" y2="-124.305" id="popopeopesas" inkscape:label="popopeopesas" gradientUnits="userSpaceOnUse">
         <stop offset="20.0%" stop-color="rgb(57, 150, 43)" stop-opacity="1"/>
         <stop offset="51.9%" stop-color="rgb(97, 174, 57)" stop-opacity="1"/>
         <stop offset="80.9%" stop-color="rgb(138, 199, 71)" stop-opacity="1"/>
      </linearGradient>
      <linearGradient x1="136" y1="120" x2="562" y2="400" id="superglniter" inkscape:label="superglniter" gradientUnits="userSpaceOnUse">
         <stop offset="0%" stop-color="rgb(255, 255, 255)" stop-opacity="0"/>
         <stop offset="50.0%" stop-color="rgb(255, 255, 255)" stop-opacity="0.5"/>
         <stop offset="100%" stop-color="rgb(255, 255, 255)" stop-opacity="1"/>
      </linearGradient>
      <linearGradient x1="136" y1="120" x2="562" y2="400" id="linearGradient_34" inkscape:label="superglniter" gradientUnits="userSpaceOnUse">
         <stop offset="0%" stop-color="rgb(255, 255, 255)" stop-opacity="0"/>
         <stop offset="50.0%" stop-color="rgb(255, 255, 255)" stop-opacity="0.5"/>
         <stop offset="100%" stop-color="rgb(255, 255, 255)" stop-opacity="1"/>
      </linearGradient>
      <linearGradient x1="-0.197" y1="213.331" x2="-0.197" y2="-213.495" id="porpkogefg" inkscape:label="porpkogefg" gradientUnits="userSpaceOnUse">
         <stop offset="35.8%" stop-color="rgb(132, 202, 98)" stop-opacity="1"/>
         <stop offset="53.1%" stop-color="rgb(170, 218, 155)" stop-opacity="1"/>
         <stop offset="68.8%" stop-color="rgb(207, 234, 211)" stop-opacity="1"/>
      </linearGradient>
      <linearGradient x1="-0.197" y1="-140.669" x2="-0.197" y2="181.443" id="owisujdg" inkscape:label="owisujdg" gradientUnits="userSpaceOnUse">
         <stop offset="22.7%" stop-color="rgb(255, 255, 255)" stop-opacity="0.7"/>
         <stop offset="41.5%" stop-color="rgb(223, 255, 224)" stop-opacity="0.85"/>
         <stop offset="78.60000000000001%" stop-color="rgb(191, 255, 194)" stop-opacity="1"/>
      </linearGradient>
      <linearGradient x1="-0.197" y1="-140.669" x2="-0.197" y2="181.443" id="linearGradient_38" inkscape:label="owisujdg" gradientUnits="userSpaceOnUse">
         <stop offset="22.7%" stop-color="rgb(255, 255, 255)" stop-opacity="0.7"/>
         <stop offset="41.5%" stop-color="rgb(223, 255, 224)" stop-opacity="0.85"/>
         <stop offset="78.60000000000001%" stop-color="rgb(191, 255, 194)" stop-opacity="1"/>
      </linearGradient>
      <linearGradient x1="-0.197" y1="213.331" x2="-0.197" y2="-213.495" id="uhdsfjgs" inkscape:label="uhdsfjgs" gradientUnits="userSpaceOnUse">
         <stop offset="35.8%" stop-color="rgb(132, 202, 98)" stop-opacity="1"/>
         <stop offset="53.1%" stop-color="rgb(170, 218, 155)" stop-opacity="1"/>
         <stop offset="68.8%" stop-color="rgb(207, 234, 211)" stop-opacity="1"/>
      </linearGradient>
      <linearGradient x1="-0.197" y1="213.331" x2="-0.197" y2="-213.495" id="riojioafdg" inkscape:label="riojioafdg" gradientUnits="userSpaceOnUse">
         <stop offset="35.8%" stop-color="rgb(132, 202, 98)" stop-opacity="1"/>
         <stop offset="53.1%" stop-color="rgb(170, 218, 155)" stop-opacity="1"/>
         <stop offset="68.8%" stop-color="rgb(207, 234, 211)" stop-opacity="1"/>
      </linearGradient>
   </defs>
   <sodipodi:namedview inkscape:pagecheckerboard="true" borderlayer="true" bordercolor="#666666" pagecolor="#ffffff"/>
   <g inkscape:groupmode="layer" id="shaker" inkscape:label="shaker" transform="matrix(1.0, 0.0, 0.0, 1.0, 256.0, 256.0)" opacity="1">
      <g inkscape:groupmode="layer" id="drop_it" inkscape:label="drop it" transform="matrix(0.8, 0.0, 0.0, 0.8, -206.00039999999998, -355.1998)" opacity="0.0" style="">
         <g id="fill" inkscape:label="fill" transform="matrix(1.0, 0.0, 0.0, 1.0, 255.616, 346.7)" style="fill-opacity:1.0;fill:url(#nowqweqr);fill-rule:nonzero">
            <path d="M -19.014,-44.803 C -7.802999999999999,-33.013 10.208,-29.311000000000003 22.639,-50.587 C 25.243,-55.044000000000004 26.679,-55.948 17.769,-58.2 C 12.421,-59.552 2.309000000000001,-58.748000000000005 -16.301,-64.959 C -28.012999999999998,-68.86800000000001 -27.563,-53.794 -19.014,-44.803 Z" id="Path_1" inkscape:label="Path 1" style="fill-opacity:1.0;fill:url(#linearGradient_2);fill-rule:nonzero"/>
         </g>
         <g id="outl" inkscape:label="outl" transform="matrix(1.0, 0.0, 0.0, 1.0, 255.616, 346.7)" style="stroke:url(#uhwifud);stroke-opacity:1.0;stroke-width:18.0;stroke-miterlimit:0;stroke-linecap:round;stroke-linejoin:round">
            <path d="M -19.014,-44.803 C -7.802999999999999,-33.013 10.253,-29.285000000000004 22.639,-50.587 C 25.320999999999998,-55.201 26.679,-55.948 17.769,-58.2 C 12.421,-59.552 2.309000000000001,-58.748000000000005 -16.301,-64.959 C -28.012999999999998,-68.86800000000001 -27.563,-53.794 -19.014,-44.803 Z" id="path_3" inkscape:label="Path 1" style=""/>
         </g>
      </g>
      <g inkscape:groupmode="layer" id="bottmaster" inkscape:label="bottmaster" transform="matrix(1.0, 0.0, 0.0, 1.0, -6.0, 58.0)" opacity="1">
         <g inkscape:groupmode="layer" id="tip" inkscape:label="tip" transform="matrix(1.0, 0.0, 0.0, 1.0, -250.0, -314.0)" style="">
            <g id="Group_5" inkscape:label="Group 5" transform="matrix(1.0, 0.0, 0.0, 1.0, 256.921, 67.688)" style="fill-opacity:1.0;fill:url(#linearGradient_4);fill-rule:nonzero">
               <path d="M -54.649,-34.415 C -54.649,-34.415 -47.211,43.193 -39.812,50.601 C -32.413,58.009 30.077,59.067 38.801,50.601 C 47.524,42.135 55.979000000000006,-31.144 54.52,-39.354 C 50.404,-62.51 -56.937,-63.659 -54.649,-34.415 Z" id="path_5" inkscape:label="Path 1" style="fill-opacity:1.0;fill:url(#linearGradient_6);fill-rule:nonzero"/>
            </g>
            <g id="Group_4" inkscape:label="Group 4" transform="matrix(1.0, 0.0, 0.0, 1.0, 256.921, 74.774)" opacity="0.3" style="stroke:url(#linearGradient_8);stroke-opacity:1.0;stroke-width:18.0;stroke-miterlimit:0;stroke-linecap:round;stroke-linejoin:round">
               <path d="M -40.909,-30.065 C -40.909,-30.065 -35.342,38.081 -29.803,44.395 C -24.264000000000003,50.709 22.516,51.611000000000004 29.046,44.395 C 35.576,37.179 41.905,-28.276 40.813,-35.274 C 37.732,-55.010000000000005 -42.622,-54.99 -40.909,-30.065 Z" id="path_7" inkscape:label="Path 1" style=""/>
            </g>
            <g id="Group_3" inkscape:label="Group 3" transform="matrix(1.0, 0.0, 0.0, 1.0, 256.921, 67.688)" style="stroke:url(#idiufhg4587hdfh);stroke-opacity:1.0;stroke-width:18.0;stroke-miterlimit:0;stroke-linecap:round;stroke-linejoin:round">
               <path d="M -54.649,-34.415 C -54.649,-34.415 -47.211,43.193 -39.812,50.601 C -32.413,58.009 30.077,59.067 38.801,50.601 C 47.524,42.135 55.979000000000006,-31.144 54.52,-39.354 C 50.404,-62.51 -56.937,-63.659 -54.649,-34.415 Z" id="path_9" inkscape:label="Path 1" style=""/>
            </g>
            <g id="Group_2" inkscape:label="Group 2" transform="matrix(1.0, 0.0, 0.0, 1.0, 271.202, 51.297)" opacity="0.2" style="fill-opacity:1.0;fill:rgb(96, 46, 0);fill-rule:nonzero">
               <path d="M 9.017,0 C 9.017,4.986 4.98,9.028 0,9.028 C -4.98,9.028 -9.017,4.986 -9.017,0 C -9.017,-4.986 -4.98,-9.028 0,-9.028 C 4.98,-9.028 9.017,-4.986 9.017,0 Z" id="path_10" inkscape:label="Path 1" style="fill-opacity:1.0;fill:rgb(96, 46, 0);fill-rule:nonzero"/>
            </g>
            <g id="Group_1" inkscape:label="Group 1" transform="matrix(1.0, 0.0, 0.0, 1.0, 243.256, 71.03)" opacity="0.2" style="fill-opacity:1.0;fill:rgb(96, 46, 0);fill-rule:nonzero">
               <path d="M 6.305,0 C 6.305,3.487 3.482,6.313 0,6.313 C -3.482,6.313 -6.305,3.487 -6.305,0 C -6.305,-3.487 -3.482,-6.313 0,-6.313 C 3.482,-6.313 6.305,-3.487 6.305,0 Z" id="path_11" inkscape:label="Path 1" style="fill-opacity:1.0;fill:rgb(96, 46, 0);fill-rule:nonzero"/>
            </g>
         </g>
         <g inkscape:groupmode="layer" id="bottle_2" inkscape:label="bottle 2" transform="matrix(1.0, 0.0, 0.0, 1.0, -250.0, -314.0)" style="">
            <g inkscape:groupmode="layer" id="glow" inkscape:label="glow" transform="matrix(1.0, 0.0, 0.0, 1.0, 255.567, 263.099)" opacity="0.4" style="">
               <g id="g_12" inkscape:label="Group 1" transform="matrix(1.0, 0.0, 0.0, 1.0, 0.0, 0.0)" style="fill-opacity:1.0;fill:url(#radialGradient_13);fill-rule:nonzero">
                  <path d="M 246.805,0 C 246.805,136.307 136.307,246.805 0,246.805 C -136.307,246.805 -246.805,136.307 -246.805,0 C -246.805,-136.307 -136.307,-246.805 0,-246.805 C 136.307,-246.805 246.805,-136.307 246.805,0 Z" id="path_14" inkscape:label="Path 1" style="fill-opacity:1.0;fill:url(#radialGradient_15);fill-rule:nonzero"/>
               </g>
            </g>
            <g id="g_16" inkscape:label="glow" transform="matrix(1.0, 0.0, 0.0, 1.0, 255.197, 291.669)" style="fill-opacity:1.0;fill:url(#ierhuhsfgdfgs);fill-rule:nonzero">
               <path d="M 51.677,-124.044 C 50.329,-129.615 52.356,-135.19600000000003 52.356,-141.342 C 52.356,-141.342 70.93400000000001,-143.793 75.796,-152.631 C 80.658,-161.468 79.624,-185.274 71.839,-194.524 C 65.078,-202.558 35.453,-204.413 0,-204.413 C -35.453,-204.413 -63.978,-201.922 -71.839,-194.524 C -80.769,-186.12 -80.657,-161.468 -75.795,-152.631 C -70.933,-143.793 -52.356,-141.342 -52.356,-141.342 C -52.356,-135.04600000000002 -50.568,-129.414 -51.757,-123.63 C -57.198,-97.169 -126.08700000000002,-93.029 -133.735,-61.017 C -147.197,-4.669000000000004 -95.259,173.881 -78.098,188.657 C -60.937,203.43300000000002 -20.007,204.413 0,204.413 C 20.007,204.413 60.937,203.43300000000002 78.098,188.657 C 95.259,173.881 149.33499999999998,-8.195 133.771,-60.908 C 123.80299999999998,-94.668 58.303,-96.669 51.677,-124.044 Z" id="path_17" inkscape:label="Path 1" style="fill-opacity:1.0;fill:url(#linearGradient_18);fill-rule:nonzero"/>
            </g>
            <g id="glass" inkscape:label="glass" transform="matrix(1.0, 0.0, 0.0, 1.0, 255.197, 291.669)" opacity="0.7" style="fill-opacity:1.0;fill:url(#poiugsdsgdg);fill-rule:nonzero">
               <path d="M 51.677,-124.044 C 50.329,-129.615 52.356,-135.19600000000003 52.356,-141.342 C 52.356,-141.342 70.93400000000001,-143.793 75.796,-152.631 C 80.658,-161.468 79.624,-185.274 71.839,-194.524 C 65.078,-202.558 35.453,-204.413 0,-204.413 C -35.453,-204.413 -63.978,-201.922 -71.839,-194.524 C -80.769,-186.12 -80.657,-161.468 -75.795,-152.631 C -70.933,-143.793 -52.356,-141.342 -52.356,-141.342 C -52.356,-135.04600000000002 -50.568,-129.414 -51.757,-123.63 C -57.198,-97.169 -126.08700000000002,-93.029 -133.735,-61.017 C -147.197,-4.669000000000004 -95.259,173.881 -78.098,188.657 C -60.937,203.43300000000002 -20.007,204.413 0,204.413 C 20.007,204.413 60.937,203.43300000000002 78.098,188.657 C 95.259,173.881 149.33499999999998,-8.195 133.771,-60.908 C 123.80299999999998,-94.668 58.303,-96.669 51.677,-124.044 Z" id="path_19" inkscape:label="Path 1" style="fill-opacity:1.0;fill:url(#linearGradient_20);fill-rule:nonzero"/>
            </g>
            <g id="g_21" inkscape:label="outl" transform="matrix(1.0, 0.0, 0.0, 1.0, 255.197, 291.669)" style="stroke:url(#eryghudsfg);stroke-opacity:1.0;stroke-width:18.0;stroke-miterlimit:0;stroke-linecap:round;stroke-linejoin:round">
               <path d="M 51.677,-124.044 C 50.329,-129.615 52.356,-135.19600000000003 52.356,-141.342 C 52.356,-141.342 70.93400000000001,-143.793 75.796,-152.631 C 80.658,-161.468 79.624,-185.274 71.839,-194.524 C 65.078,-202.558 35.453,-204.413 0,-204.413 C -35.453,-204.413 -63.978,-201.922 -71.839,-194.524 C -80.769,-186.12 -80.657,-161.468 -75.795,-152.631 C -70.933,-143.793 -52.356,-141.342 -52.356,-141.342 C -52.356,-135.04600000000002 -50.568,-129.414 -51.757,-123.63 C -57.198,-97.169 -126.08700000000002,-93.029 -133.735,-61.017 C -147.197,-4.669000000000004 -95.259,173.881 -78.098,188.657 C -60.937,203.43300000000002 -20.007,204.413 0,204.413 C 20.007,204.413 60.937,203.43300000000002 78.098,188.657 C 95.259,173.881 149.33499999999998,-8.195 133.771,-60.908 C 123.80299999999998,-94.668 58.303,-96.669 51.677,-124.044 Z" id="path_22" inkscape:label="Path 1" style=""/>
            </g>
         </g>
         <g inkscape:groupmode="layer" id="lequid" inkscape:label="lequid" transform="matrix(1.0, 0.0, 0.0, 1.0, -250.0, -314.0)" style="">
            <g id="g_23" inkscape:label="fill" transform="matrix(1.0, 0.0, 0.0, 1.0, 255.616, 346.7)" style="fill-opacity:1.0;fill:url(#asfdiufsg);fill-rule:nonzero">
               <path d="M -100.435,-83.791 C -98.933,-52.22 -77.143,62.891999999999996 -59.681,100.845 C -50.696999999999996,120.372 41.142,119.4 56.667,102.259 C 72.19200000000001,85.118 101.479,-71.483 100.509,-87.767 C 99.795,-99.74499999999999 80.675,-117.70700000000001 46.791,-115.036 C 34.608999999999995,-114.07600000000001 20.52,-110.44800000000001 4.691,-102.918 C -72.599,-66.148 -102.48100000000001,-126.792 -100.435,-83.791 Z" id="path_24" inkscape:label="Path 1" style="fill-opacity:1.0;fill:url(#linearGradient_25);fill-rule:nonzero"/>
            </g>
            <g id="high" inkscape:label="high" transform="matrix(1.0, 0.0, 0.0, 1.0, 256.122, 354.066)" opacity="0.7" style="stroke:url(#beseasd);stroke-opacity:1.0;stroke-width:18.0;stroke-miterlimit:0;stroke-linecap:round;stroke-linejoin:round">
               <path d="M -88.109,-80.81 C -86.8,-53.293000000000006 -67.808,47.037000000000006 -52.588,80.117 C -44.757,97.136 35.288,96.289 48.82,81.349 C 62.352000000000004,66.409 87.878,-70.08200000000001 87.032,-84.275 C 86.41,-94.715 69.745,-110.37 40.212,-108.042 C 29.595000000000002,-107.205 17.314,-104.043 3.518,-97.48 C -63.846999999999994,-65.43100000000001 -89.892,-118.289 -88.109,-80.81 Z" id="path_26" inkscape:label="Path 1" style=""/>
            </g>
            <g id="g_27" inkscape:label="outl" transform="matrix(1.0, 0.0, 0.0, 1.0, 255.616, 346.7)" style="stroke:url(#popopeopesas);stroke-opacity:1.0;stroke-width:18.0;stroke-miterlimit:0;stroke-linecap:round;stroke-linejoin:round">
               <path d="M -100.435,-83.791 C -98.933,-52.22 -77.143,62.891999999999996 -59.681,100.845 C -50.696999999999996,120.372 41.142,119.4 56.667,102.259 C 72.19200000000001,85.118 101.479,-71.483 100.509,-87.767 C 99.795,-99.74499999999999 80.675,-117.70700000000001 46.791,-115.036 C 34.608999999999995,-114.07600000000001 20.52,-110.44800000000001 4.691,-102.918 C -72.599,-66.148 -102.48100000000001,-126.792 -100.435,-83.791 Z" id="path_28" inkscape:label="Path 1" style=""/>
            </g>
            <g id="det" inkscape:label="det" transform="matrix(1.0, 0.0, 0.0, 1.0, 0.0, 0.0)" style="">
               <g id="g_29" inkscape:label="Group 1" transform="matrix(1.0, 0.0, 0.0, 1.0, 226.729, 429.158)" opacity="0.2" style="fill-opacity:1.0;fill:rgb(0, 153, 5);fill-rule:nonzero">
                  <path d="M 8.311,0 C 8.311,4.591 4.59,8.312 0,8.312 C -4.59,8.312 -8.311,4.591 -8.311,0 C -8.311,-4.591 -4.59,-8.312 0,-8.312 C 4.59,-8.312 8.311,-4.591 8.311,0 Z" id="path_30" inkscape:label="Path 1" style="fill-opacity:1.0;fill:rgb(0, 153, 5);fill-rule:nonzero"/>
               </g>
            </g>
            <g id="det_2" inkscape:label="det 2" transform="matrix(1.0, 0.0, 0.0, 1.0, 0.0, 0.0)" style="">
               <g id="g_31" inkscape:label="Group 2" transform="matrix(1.0, 0.0, 0.0, 1.0, 302.099, 284.096)" opacity="0.2" style="fill-opacity:1.0;fill:rgb(0, 153, 5);fill-rule:nonzero">
                  <path d="M 15.738,0 C 15.738,8.692 8.692,15.738 0,15.738 C -8.692,15.738 -15.738,8.692 -15.738,0 C -15.738,-8.692 -8.692,-15.738 0,-15.738 C 8.692,-15.738 15.738,-8.692 15.738,0 Z" id="path_32" inkscape:label="Path 1" style="fill-opacity:1.0;fill:rgb(0, 153, 5);fill-rule:nonzero"/>
               </g>
            </g>
         </g>
         <g inkscape:groupmode="layer" id="bottle_3" inkscape:label="bottle 3" transform="matrix(1.0, 0.0, 0.0, 1.0, -250.0, -314.0)" style="">
            <g id="glass_2" inkscape:label="glass 2" transform="matrix(1.0, 0.0, 0.0, 1.0, 255.197, 291.669)" opacity="0.7" style="fill-opacity:1.0;fill:url(#superglniter);fill-rule:nonzero">
               <path d="M 51.677,-124.044 C 50.329,-129.615 52.356,-135.19600000000003 52.356,-141.342 C 52.356,-141.342 70.93400000000001,-143.793 75.796,-152.631 C 80.658,-161.468 79.624,-185.274 71.839,-194.524 C 65.078,-202.558 35.453,-204.413 0,-204.413 C -35.453,-204.413 -63.978,-201.922 -71.839,-194.524 C -80.769,-186.12 -80.657,-161.468 -75.795,-152.631 C -70.933,-143.793 -52.356,-141.342 -52.356,-141.342 C -52.356,-135.04600000000002 -50.568,-129.414 -51.757,-123.63 C -57.198,-97.169 -126.08700000000002,-93.029 -133.735,-61.017 C -147.197,-4.669000000000004 -95.259,173.881 -78.098,188.657 C -60.937,203.43300000000002 -20.007,204.413 0,204.413 C 20.007,204.413 60.937,203.43300000000002 78.098,188.657 C 95.259,173.881 149.33499999999998,-8.195 133.771,-60.908 C 123.80299999999998,-94.668 58.303,-96.669 51.677,-124.044 Z" id="path_33" inkscape:label="Path 1" style="fill-opacity:1.0;fill:url(#linearGradient_34);fill-rule:nonzero"/>
            </g>
         </g>
         <g inkscape:groupmode="layer" id="bottle_4" inkscape:label="bottle 4" transform="matrix(1.0, 0.0, 0.0, 1.0, -250.0, -314.0)" style="">
            <g id="g_35" inkscape:label="outl" transform="matrix(1.0, 0.0, 0.0, 1.0, 255.197, 291.669)" style="stroke:url(#porpkogefg);stroke-opacity:1.0;stroke-width:18.0;stroke-miterlimit:0;stroke-linecap:round;stroke-linejoin:round">
               <path d="M 51.677,-124.044 C 50.329,-129.615 52.356,-135.19600000000003 52.356,-141.342 C 52.356,-141.342 70.93400000000001,-143.793 75.796,-152.631 C 80.658,-161.468 79.624,-185.274 71.839,-194.524 C 65.078,-202.558 35.453,-204.413 0,-204.413 C -35.453,-204.413 -63.978,-201.922 -71.839,-194.524 C -80.769,-186.12 -80.657,-161.468 -75.795,-152.631 C -70.933,-143.793 -52.356,-141.342 -52.356,-141.342 C -52.356,-135.04600000000002 -50.568,-129.414 -51.757,-123.63 C -57.198,-97.169 -126.08700000000002,-93.029 -133.735,-61.017 C -147.197,-4.669000000000004 -95.259,173.881 -78.098,188.657 C -60.937,203.43300000000002 -20.007,204.413 0,204.413 C 20.007,204.413 60.937,203.43300000000002 78.098,188.657 C 95.259,173.881 149.33499999999998,-8.195 133.771,-60.908 C 123.80299999999998,-94.668 58.303,-96.669 51.677,-124.044 Z" id="path_36" inkscape:label="Path 1" style=""/>
            </g>
         </g>
         <g inkscape:groupmode="layer" id="top" inkscape:label="top" transform="matrix(1.0, 0.0, 0.0, 1.0, -250.0, -314.0)" style="">
            <g id="shade" inkscape:label="shade" transform="matrix(1.0, 0.0, 0.0, 1.0, 255.813, 168.485)" opacity="0.35" style="fill-opacity:1.0;fill:rgb(107, 206, 81);fill-rule:nonzero">
               <path d="M -53.598,-18.986 C -38.882999999999996,-14.86 -19.149,-13.071 0.269,-13.093 C 19.529999999999998,-13.114 38.480999999999995,-14.916 51.919,-17.986 C 51.919,-17.986 51.623000000000005,-17.116 51.328,-15.606 C 49.868,-8.138 48.44199999999999,14.989 83.085,25.986 C 50.56399999999999,34.813 22.291,38.07 -5.947,37.053 C -30.586,36.165 -55.199,32.023 -82.585,25.486 C -47.785999999999994,10.094000000000001 -49.891,-8.754 -52.3,-15.975 C -52.937999999999995,-17.889 -53.598,-18.986 -53.598,-18.986 Z" id="path_37" inkscape:label="Path 1" style="fill-opacity:1.0;fill:rgb(107, 206, 81);fill-rule:nonzero"/>
            </g>
            <g id="lid" inkscape:label="lid" transform="matrix(1.0, 0.0, 0.0, 1.0, 255.197, 291.669)" opacity="0.55" style="stroke:rgb(200, 235, 209);stroke-opacity:1.0;stroke-width:18.0;stroke-miterlimit:0;stroke-linecap:round;stroke-linejoin:round">
               <path d="M 71.303,-148.5 C 71.303,-143.907 39.379,-140.184 0,-140.184 C -39.379,-140.184 -71.303,-143.907 -71.303,-148.5 C -71.303,-148.5 -71.303,-148.5 -71.303,-148.5 " style=""/>
            </g>
            <g id="trans" inkscape:label="trans" transform="matrix(1.0, 0.0, 0.0, 1.0, 255.197, 291.669)" opacity="0.0" style="fill-opacity:0.5;fill:url(#owisujdg);fill-rule:nonzero">
               <path d="M 0,-202.816 C 39.379,-202.816 71.303,-199.093 71.303,-194.5 C 71.303,-189.907 39.379,-186.184 0,-186.184 C -39.379,-186.184 -71.303,-189.907 -71.303,-194.5 C -71.303,-199.093 -39.379,-202.816 0,-202.816 Z
M 0,-199.938 C -25.752,-199.938 -46.628,-197.503 -46.628,-194.5 C -46.628,-191.497 -25.752,-189.062 0,-189.062 C 25.752,-189.062 46.628,-191.497 46.628,-194.5 C 46.628,-197.503 25.752,-199.938 0,-199.938 Z" id="Path_3" inkscape:label="Path 3" style="fill-opacity:0.5;fill:url(#linearGradient_38);fill-rule:nonzero"/>
            </g>
            <g id="lid_2" inkscape:label="lid 2" transform="matrix(1.0, 0.0, 0.0, 1.0, 255.197, 291.669)" opacity="0.0" style="stroke:url(#uhdsfjgs);stroke-opacity:1.0;stroke-width:18.0;stroke-miterlimit:0;stroke-linecap:round;stroke-linejoin:round">
               <path d="M 0,-202.816 C 39.379,-202.816 71.303,-199.093 71.303,-194.5 C 71.303,-189.907 39.379,-186.184 0,-186.184 C -39.379,-186.184 -71.303,-189.907 -71.303,-194.5 C -71.303,-199.093 -39.379,-202.816 0,-202.816 Z" id="path_39" inkscape:label="Path 3" style=""/>
            </g>
            <g id="lid_-inn" inkscape:label="lid -inn" transform="matrix(1.0, 0.0, 0.0, 1.0, 255.197, 291.669)" opacity="0.0" style="stroke:url(#riojioafdg);stroke-opacity:1.0;stroke-width:18.0;stroke-miterlimit:0;stroke-linecap:round;stroke-linejoin:round">
               <path d="M 0,-199.938 C 25.752,-199.938 46.628,-197.503 46.628,-194.5 C 46.628,-191.497 25.752,-189.062 0,-189.062 C -25.752,-189.062 -46.628,-191.497 -46.628,-194.5 C -46.628,-197.503 -25.752,-199.938 0,-199.938 Z" id="path_40" inkscape:label="Path 3" style=""/>
            </g>
         </g>
         <g inkscape:groupmode="layer" id="skull" inkscape:label="skull" transform="matrix(1.0, 0.0, 0.0, 1.0, -250.0, -314.0)" style="">
            <g id="g_41" inkscape:label="Group 4" transform="matrix(1.0, 0.0, 0.0, 1.0, 0.0, 0.0)" style="">
               <g id="g_42" inkscape:label="Group 4" transform="matrix(1.0, 0.0, 0.0, 1.0, 255.741, 354.444)" style="fill-opacity:1.0;fill:rgb(255, 255, 255);fill-rule:nonzero">
                  <path d="M -1.83,-51.694 C -60.161,-47.771 -73.241,27.277 -33.792,28.824 C -33.792,28.824 -34.225,41.321000000000005 -28.756,47.075 C -20.973,55.279 -10.814,45.157 -10.814,45.157 C 1.362,60.178999999999995 12.041,45.157 12.041,45.157 C 12.041,45.157 15.667000000000002,50.75 23.289,50.639 C 38.682,50.392 35.997,26.25 35.997,26.25 C 74.604,24.344 56.501000000000005,-55.617000000000004 -1.83,-51.694 Z" id="path_43" inkscape:label="Path 1" style="fill-opacity:1.0;fill:rgb(255, 255, 255);fill-rule:nonzero"/>
               </g>
               <g id="g_44" inkscape:label="Group 3" transform="matrix(1.0, 0.0, 0.0, 1.0, 226.041, 355.405)" style="fill-opacity:1.0;fill:rgb(255, 255, 255);fill-rule:nonzero">
                  <path d="M 13.615,4.352 C 10.695,13.509 2.231,18.977 -5.292,16.577 C -12.815,14.176000000000002 -16.54,4.81 -13.62,-4.347 C -10.7,-13.504000000000001 -2.2359999999999998,-18.986 5.287,-16.573 C 12.809999999999999,-14.173 16.548000000000002,-4.805 13.615,4.352 Z" id="path_45" inkscape:label="Path 1" style="fill-opacity:1.0;fill:rgb(255, 255, 255);fill-rule:nonzero"/>
               </g>
               <g id="g_46" inkscape:label="Group 2" transform="matrix(1.0, 0.0, 0.0, 1.0, 255.712, 369.371)" style="fill-opacity:1.0;fill:rgb(255, 255, 255);fill-rule:nonzero">
                  <path d="M 6.106,6.682 C 2.988,8.773 0.129,5.123 0.129,5.123 C 0.129,5.123 -2.2830000000000004,8.588 -5.847,6.794 C -9.831,4.776999999999999 -6.033,-6.88 -0.724,-7.313 C 5.822,-7.833 9.756,4.220000000000001 6.106,6.682 Z" id="path_47" inkscape:label="Path 1" style="fill-opacity:1.0;fill:rgb(255, 255, 255);fill-rule:nonzero"/>
               </g>
               <g id="g_48" inkscape:label="Group 1" transform="matrix(1.0, 0.0, 0.0, 1.0, 285.521, 355.403)" style="fill-opacity:1.0;fill:rgb(255, 255, 255);fill-rule:nonzero">
                  <path d="M 5.575,16.48 C -1.899,19.017 -10.462,13.684000000000001 -13.543,4.589 C -16.624,-4.517999999999999 -13.061,-13.947000000000003 -5.587,-16.484 C 1.899,-19.008000000000003 10.462,-13.687999999999999 13.543,-4.581 C 16.624,4.514 13.061,13.956 5.575,16.48 Z" id="path_49" inkscape:label="Path 1" style="fill-opacity:1.0;fill:rgb(255, 255, 255);fill-rule:nonzero"/>
               </g>
            </g>
            <g id="g_50" inkscape:label="Group 3" transform="matrix(1.0, 0.0, 0.0, 1.0, 255.712, 369.069)" style="fill-opacity:1.0;fill:rgb(56, 49, 44);fill-rule:nonzero">
               <path d="M 8.42,9.215 C 4.12,12.099 0.179,7.065 0.179,7.065 C 0.179,7.065 -3.149000000000001,11.842 -8.063,9.368 C -13.557,6.587 -8.319,-9.487 -0.999,-10.084 C 8.027,-10.801 13.453,5.82 8.42,9.215 Z" id="path_51" inkscape:label="Path 1" style="fill-opacity:1.0;fill:rgb(56, 49, 44);fill-rule:nonzero"/>
            </g>
            <g id="g_52" inkscape:label="Group 2" transform="matrix(1.0, 0.0, 0.0, 1.0, 285.521, 355.405)" style="fill-opacity:1.0;fill:rgb(56, 49, 44);fill-rule:nonzero">
               <path d="M 15.444,-4.936 C 12.131,-15.323 2.5310000000000006,-21.526999999999997 -6.003,-18.804 C -14.537,-16.081 -18.762999999999998,-5.455 -15.45,4.932 C -12.136999999999999,15.319 -2.5360000000000005,21.536 5.998,18.799 C 14.532,16.076 18.771,5.4510000000000005 15.444,-4.936 Z" id="path_53" inkscape:label="Path 1" style="fill-opacity:1.0;fill:rgb(56, 49, 44);fill-rule:nonzero"/>
            </g>
            <g id="g_54" inkscape:label="Group 1" transform="matrix(1.0, 0.0, 0.0, 1.0, 226.041, 355.405)" style="fill-opacity:1.0;fill:rgb(56, 49, 44);fill-rule:nonzero">
               <path d="M 15.444,4.936 C 12.131,15.323 2.5310000000000006,21.526999999999997 -6.003,18.804 C -14.537,16.081 -18.762999999999998,5.456 -15.45,-4.931 C -12.138,-15.318000000000001 -2.5360000000000005,-21.536 5.998,-18.799 C 14.532,-16.076 18.771,-5.4510000000000005 15.444,4.936 Z" id="path_55" inkscape:label="Path 1" style="fill-opacity:1.0;fill:rgb(56, 49, 44);fill-rule:nonzero"/>
            </g>
         </g>
      </g>
   </g>
   <g inkscape:groupmode="layer" id="orbo" inkscape:label="orbo" transform="matrix(0.7298192643482251, -0.7595875629486145, 0.29701923064661784, 0.2853790227506065, 233.0, 221.0)" opacity="1"/>
   <g inkscape:groupmode="layer" id="orbo_2" inkscape:label="orbo 2" transform="matrix(0.5223112272691951, -0.7247888011473047, 0.3488539977314704, 0.25139786846107354, 224.0, 200.0)" opacity="1"/>
</svg>
