<?xml version="1.0" ?>
<svg xmlns:inkscape="http://www.inkscape.org/namespaces/inkscape" xmlns:sodipodi="http://sodipodi.sourceforge.net/DTD/sodipodi-0.dtd" xmlns="http://www.w3.org/2000/svg" width="512" height="512" viewBox="0 0 512 512" version="1.1" id="General" sodipodi:docname="General" inkscape:export-xdpi="96" inkscape:export-ydpi="96" style="fill: none; stroke: none">
   <defs>
      <linearGradient x1="99" y1="-132" x2="-4.5" y2="70.5" id="Gradient_Fill_41" inkscape:label="Gradient Fill 41" gradientUnits="userSpaceOnUse">
         <stop offset="0%" stop-color="rgb(255, 95, 84)" stop-opacity="1"/>
         <stop offset="50.0%" stop-color="rgb(236, 48, 42)" stop-opacity="1"/>
         <stop offset="100%" stop-color="rgb(218, 1, 0)" stop-opacity="1"/>
      </linearGradient>
      <linearGradient x1="99" y1="-132" x2="-4.5" y2="70.5" id="linearGradient_1" inkscape:label="Gradient Fill 41" gradientUnits="userSpaceOnUse">
         <stop offset="0%" stop-color="rgb(255, 95, 84)" stop-opacity="1"/>
         <stop offset="50.0%" stop-color="rgb(236, 48, 42)" stop-opacity="1"/>
         <stop offset="100%" stop-color="rgb(218, 1, 0)" stop-opacity="1"/>
      </linearGradient>
      <radialGradient cx="17.5" cy="-10" r="87.36274949885677" fx="17.5" fy="-10.0" id="Gradient_Fill_40" inkscape:label="Gradient Fill 40" gradientUnits="userSpaceOnUse">
         <stop offset="0%" stop-color="rgb(175, 4, 0)" stop-opacity="1"/>
         <stop offset="50.0%" stop-color="rgb(175, 4, 0)" stop-opacity="0.5"/>
         <stop offset="100%" stop-color="rgb(175, 4, 0)" stop-opacity="0"/>
      </radialGradient>
      <radialGradient cx="17.5" cy="-10" r="87.36274949885677" fx="17.5" fy="-10.0" id="radialGradient_3" inkscape:label="Gradient Fill 40" gradientUnits="userSpaceOnUse">
         <stop offset="0%" stop-color="rgb(175, 4, 0)" stop-opacity="1"/>
         <stop offset="50.0%" stop-color="rgb(175, 4, 0)" stop-opacity="0.5"/>
         <stop offset="100%" stop-color="rgb(175, 4, 0)" stop-opacity="0"/>
      </radialGradient>
      <linearGradient x1="-31.25" y1="-0.75" x2="42.75" y2="9.25" id="Gradient_Fill_39" inkscape:label="Gradient Fill 39" gradientUnits="userSpaceOnUse">
         <stop offset="0%" stop-color="rgb(196, 5, 5)" stop-opacity="0"/>
         <stop offset="50.0%" stop-color="rgb(196, 5, 5)" stop-opacity="0.5"/>
         <stop offset="100%" stop-color="rgb(196, 5, 5)" stop-opacity="1"/>
      </linearGradient>
      <linearGradient x1="-31.25" y1="-0.75" x2="42.75" y2="9.25" id="linearGradient_6" inkscape:label="Gradient Fill 39" gradientUnits="userSpaceOnUse">
         <stop offset="0%" stop-color="rgb(196, 5, 5)" stop-opacity="0"/>
         <stop offset="50.0%" stop-color="rgb(196, 5, 5)" stop-opacity="0.5"/>
         <stop offset="100%" stop-color="rgb(196, 5, 5)" stop-opacity="1"/>
      </linearGradient>
      <linearGradient x1="-51.75" y1="-18.25" x2="38.25" y2="18.75" id="Gradient_Fill_38" inkscape:label="Gradient Fill 38" gradientUnits="userSpaceOnUse">
         <stop offset="0%" stop-color="rgb(189, 0, 0)" stop-opacity="0"/>
         <stop offset="50.0%" stop-color="rgb(182, 0, 0)" stop-opacity="0.5"/>
         <stop offset="100%" stop-color="rgb(174, 0, 0)" stop-opacity="1"/>
      </linearGradient>
      <linearGradient x1="-51.75" y1="-18.25" x2="38.25" y2="18.75" id="linearGradient_8" inkscape:label="Gradient Fill 38" gradientUnits="userSpaceOnUse">
         <stop offset="0%" stop-color="rgb(189, 0, 0)" stop-opacity="0"/>
         <stop offset="50.0%" stop-color="rgb(182, 0, 0)" stop-opacity="0.5"/>
         <stop offset="100%" stop-color="rgb(174, 0, 0)" stop-opacity="1"/>
      </linearGradient>
      <linearGradient x1="48.5" y1="7" x2="-44" y2="-18" id="Gradient_Stroke_37" inkscape:label="Gradient Stroke 37" gradientUnits="userSpaceOnUse">
         <stop offset="0%" stop-color="rgb(255, 255, 255)" stop-opacity="0"/>
         <stop offset="50.0%" stop-color="rgb(255, 255, 255)" stop-opacity="0.235"/>
         <stop offset="100%" stop-color="rgb(255, 255, 255)" stop-opacity="0.47"/>
      </linearGradient>
      <radialGradient cx="-4.706" cy="34.683" r="110.30075668371455" fx="-4.706" fy="34.683" id="Gradient_Fill_36" inkscape:label="Gradient Fill 36" gradientUnits="userSpaceOnUse">
         <stop offset="0%" stop-color="rgb(255, 255, 255)" stop-opacity="0.3"/>
         <stop offset="50.0%" stop-color="rgb(255, 255, 255)" stop-opacity="0.15"/>
         <stop offset="100%" stop-color="rgb(255, 255, 255)" stop-opacity="0"/>
      </radialGradient>
      <radialGradient cx="-4.706" cy="34.683" r="110.30075668371455" fx="-4.706" fy="34.683" id="radialGradient_11" inkscape:label="Gradient Fill 36" gradientUnits="userSpaceOnUse">
         <stop offset="0%" stop-color="rgb(255, 255, 255)" stop-opacity="0.3"/>
         <stop offset="50.0%" stop-color="rgb(255, 255, 255)" stop-opacity="0.15"/>
         <stop offset="100%" stop-color="rgb(255, 255, 255)" stop-opacity="0"/>
      </radialGradient>
      <linearGradient x1="99" y1="-132" x2="-4.5" y2="70.5" id="Gradient_Fill_29" inkscape:label="Gradient Fill 29" gradientUnits="userSpaceOnUse">
         <stop offset="0%" stop-color="rgb(255, 94, 94)" stop-opacity="1"/>
         <stop offset="50.0%" stop-color="rgb(237, 48, 47)" stop-opacity="1"/>
         <stop offset="100%" stop-color="rgb(220, 1, 0)" stop-opacity="1"/>
      </linearGradient>
      <linearGradient x1="99" y1="-132" x2="-4.5" y2="70.5" id="linearGradient_16" inkscape:label="Gradient Fill 29" gradientUnits="userSpaceOnUse">
         <stop offset="0%" stop-color="rgb(255, 94, 94)" stop-opacity="1"/>
         <stop offset="50.0%" stop-color="rgb(237, 48, 47)" stop-opacity="1"/>
         <stop offset="100%" stop-color="rgb(220, 1, 0)" stop-opacity="1"/>
      </linearGradient>
      <radialGradient cx="17.5" cy="-10" r="87.36274949885677" fx="17.5" fy="-10.0" id="Gradient_Fill_28" inkscape:label="Gradient Fill 28" gradientUnits="userSpaceOnUse">
         <stop offset="0%" stop-color="rgb(197, 0, 0)" stop-opacity="1"/>
         <stop offset="50.0%" stop-color="rgb(190, 2, 0)" stop-opacity="0.5"/>
         <stop offset="100%" stop-color="rgb(184, 4, 0)" stop-opacity="0"/>
      </radialGradient>
      <radialGradient cx="17.5" cy="-10" r="87.36274949885677" fx="17.5" fy="-10.0" id="radialGradient_20" inkscape:label="Gradient Fill 28" gradientUnits="userSpaceOnUse">
         <stop offset="0%" stop-color="rgb(197, 0, 0)" stop-opacity="1"/>
         <stop offset="50.0%" stop-color="rgb(190, 2, 0)" stop-opacity="0.5"/>
         <stop offset="100%" stop-color="rgb(184, 4, 0)" stop-opacity="0"/>
      </radialGradient>
      <linearGradient x1="-8.75" y1="-12.75" x2="2" y2="18" id="Gradient_Fill_27" inkscape:label="Gradient Fill 27" gradientUnits="userSpaceOnUse">
         <stop offset="0%" stop-color="rgb(196, 5, 5)" stop-opacity="0"/>
         <stop offset="50.0%" stop-color="rgb(204, 3, 3)" stop-opacity="0.5"/>
         <stop offset="100%" stop-color="rgb(212, 0, 0)" stop-opacity="1"/>
      </linearGradient>
      <linearGradient x1="-8.75" y1="-12.75" x2="2" y2="18" id="linearGradient_25" inkscape:label="Gradient Fill 27" gradientUnits="userSpaceOnUse">
         <stop offset="0%" stop-color="rgb(196, 5, 5)" stop-opacity="0"/>
         <stop offset="50.0%" stop-color="rgb(204, 3, 3)" stop-opacity="0.5"/>
         <stop offset="100%" stop-color="rgb(212, 0, 0)" stop-opacity="1"/>
      </linearGradient>
      <linearGradient x1="-62.25" y1="-32.75" x2="46.25" y2="30.75" id="Gradient_Fill_26" inkscape:label="Gradient Fill 26" gradientUnits="userSpaceOnUse">
         <stop offset="0%" stop-color="rgb(196, 5, 5)" stop-opacity="0"/>
         <stop offset="50.0%" stop-color="rgb(196, 5, 5)" stop-opacity="0.5"/>
         <stop offset="100%" stop-color="rgb(196, 5, 5)" stop-opacity="1"/>
      </linearGradient>
      <linearGradient x1="-62.25" y1="-32.75" x2="46.25" y2="30.75" id="linearGradient_27" inkscape:label="Gradient Fill 26" gradientUnits="userSpaceOnUse">
         <stop offset="0%" stop-color="rgb(196, 5, 5)" stop-opacity="0"/>
         <stop offset="50.0%" stop-color="rgb(196, 5, 5)" stop-opacity="0.5"/>
         <stop offset="100%" stop-color="rgb(196, 5, 5)" stop-opacity="1"/>
      </linearGradient>
      <linearGradient x1="-83.5" y1="93" x2="-68" y2="-42" id="Gradient_Stroke_25" inkscape:label="Gradient Stroke 25" gradientUnits="userSpaceOnUse">
         <stop offset="0%" stop-color="rgb(255, 255, 255)" stop-opacity="0"/>
         <stop offset="50.0%" stop-color="rgb(255, 255, 255)" stop-opacity="0.2"/>
         <stop offset="100%" stop-color="rgb(255, 255, 255)" stop-opacity="0.4"/>
      </linearGradient>
      <radialGradient cx="0" cy="0" r="100.0" fx="0.0" fy="0.0" id="Gradient_Fill_24" inkscape:label="Gradient Fill 24" gradientUnits="userSpaceOnUse">
         <stop offset="0%" stop-color="rgb(255, 255, 255)" stop-opacity="0.36"/>
         <stop offset="50.0%" stop-color="rgb(255, 255, 255)" stop-opacity="0.18"/>
         <stop offset="100%" stop-color="rgb(255, 255, 255)" stop-opacity="0"/>
      </radialGradient>
      <radialGradient cx="0" cy="0" r="100.0" fx="0.0" fy="0.0" id="radialGradient_31" inkscape:label="Gradient Fill 24" gradientUnits="userSpaceOnUse">
         <stop offset="0%" stop-color="rgb(255, 255, 255)" stop-opacity="0.36"/>
         <stop offset="50.0%" stop-color="rgb(255, 255, 255)" stop-opacity="0.18"/>
         <stop offset="100%" stop-color="rgb(255, 255, 255)" stop-opacity="0"/>
      </radialGradient>
      <radialGradient cx="-0.537" cy="-1.029" r="100.54226578907003" fx="1.2012367180980155" fy="-11.55848797956747" id="Gradient_Fill_23" inkscape:label="Gradient Fill 23" gradientUnits="userSpaceOnUse">
         <stop offset="0%" stop-color="rgb(255, 255, 255)" stop-opacity="0.3"/>
         <stop offset="50.0%" stop-color="rgb(255, 255, 255)" stop-opacity="0.15"/>
         <stop offset="100%" stop-color="rgb(255, 255, 255)" stop-opacity="0"/>
      </radialGradient>
      <radialGradient cx="-0.537" cy="-1.029" r="100.54226578907003" fx="1.2012367180980155" fy="-11.55848797956747" id="radialGradient_33" inkscape:label="Gradient Fill 23" gradientUnits="userSpaceOnUse">
         <stop offset="0%" stop-color="rgb(255, 255, 255)" stop-opacity="0.3"/>
         <stop offset="50.0%" stop-color="rgb(255, 255, 255)" stop-opacity="0.15"/>
         <stop offset="100%" stop-color="rgb(255, 255, 255)" stop-opacity="0"/>
      </radialGradient>
      <linearGradient x1="3.5" y1="-70" x2="-22.75" y2="10.75" id="Gradient_Stroke_22" inkscape:label="Gradient Stroke 22" gradientUnits="userSpaceOnUse">
         <stop offset="0%" stop-color="rgb(171, 0, 0)" stop-opacity="1"/>
         <stop offset="50.0%" stop-color="rgb(146, 1, 0)" stop-opacity="1"/>
         <stop offset="100%" stop-color="rgb(121, 1, 0)" stop-opacity="1"/>
      </linearGradient>
      <radialGradient cx="9" cy="-27" r="82.87339742040264" fx="9.0" fy="-27.0" id="Gradient_Fill_21" inkscape:label="Gradient Fill 21" gradientUnits="userSpaceOnUse">
         <stop offset="0%" stop-color="rgb(255, 255, 255)" stop-opacity="1"/>
         <stop offset="50.0%" stop-color="rgb(234, 247, 254)" stop-opacity="1"/>
         <stop offset="100%" stop-color="rgb(213, 238, 254)" stop-opacity="1"/>
      </radialGradient>
      <radialGradient cx="9" cy="-27" r="82.87339742040264" fx="9.0" fy="-27.0" id="radialGradient_38" inkscape:label="Gradient Fill 21" gradientUnits="userSpaceOnUse">
         <stop offset="0%" stop-color="rgb(255, 255, 255)" stop-opacity="1"/>
         <stop offset="50.0%" stop-color="rgb(234, 247, 254)" stop-opacity="1"/>
         <stop offset="100%" stop-color="rgb(213, 238, 254)" stop-opacity="1"/>
      </radialGradient>
      <linearGradient x1="14.75" y1="-44.25" x2="12.5" y2="48" id="Gradient_Stroke_20" inkscape:label="Gradient Stroke 20" gradientUnits="userSpaceOnUse">
         <stop offset="0%" stop-color="rgb(255, 255, 255)" stop-opacity="1"/>
         <stop offset="50.0%" stop-color="rgb(255, 255, 255)" stop-opacity="0.8"/>
         <stop offset="100%" stop-color="rgb(255, 255, 255)" stop-opacity="0.6"/>
      </linearGradient>
      <linearGradient x1="44" y1="-40" x2="-26.5" y2="52" id="Gradient_Stroke_19" inkscape:label="Gradient Stroke 19" gradientUnits="userSpaceOnUse">
         <stop offset="0%" stop-color="rgb(118, 210, 255)" stop-opacity="1"/>
         <stop offset="50.0%" stop-color="rgb(100, 182, 245)" stop-opacity="1"/>
         <stop offset="100%" stop-color="rgb(82, 154, 235)" stop-opacity="1"/>
      </linearGradient>
      <linearGradient x1="218.508" y1="447.035" x2="218.192" y2="390.797" id="Gradient_Fill_35" inkscape:label="Gradient Fill 35" gradientUnits="userSpaceOnUse">
         <stop offset="0%" stop-color="rgb(214, 238, 255)" stop-opacity="1"/>
         <stop offset="50.0%" stop-color="rgb(194, 229, 255)" stop-opacity="1"/>
         <stop offset="100%" stop-color="rgb(173, 220, 255)" stop-opacity="1"/>
      </linearGradient>
      <linearGradient x1="218.508" y1="447.035" x2="218.192" y2="390.797" id="linearGradient_46" inkscape:label="Gradient Fill 35" gradientUnits="userSpaceOnUse">
         <stop offset="0%" stop-color="rgb(214, 238, 255)" stop-opacity="1"/>
         <stop offset="50.0%" stop-color="rgb(194, 229, 255)" stop-opacity="1"/>
         <stop offset="100%" stop-color="rgb(173, 220, 255)" stop-opacity="1"/>
      </linearGradient>
      <radialGradient cx="225.387" cy="469.972" r="99.20895574997249" fx="225.387" fy="469.972" id="Gradient_Stroke_34" inkscape:label="Gradient Stroke 34" gradientUnits="userSpaceOnUse">
         <stop offset="0.2%" stop-color="rgb(82, 154, 235)" stop-opacity="1"/>
         <stop offset="50.1%" stop-color="rgb(82, 154, 235)" stop-opacity="1"/>
         <stop offset="100%" stop-color="rgb(82, 154, 235)" stop-opacity="1"/>
      </radialGradient>
      <linearGradient x1="-17" y1="-25" x2="-17" y2="33.5" id="Gradient_Fill_33" inkscape:label="Gradient Fill 33" gradientUnits="userSpaceOnUse">
         <stop offset="0%" stop-color="rgb(255, 255, 255)" stop-opacity="1"/>
         <stop offset="50.0%" stop-color="rgb(230, 245, 254)" stop-opacity="1"/>
         <stop offset="100%" stop-color="rgb(204, 235, 254)" stop-opacity="1"/>
      </linearGradient>
      <linearGradient x1="-17" y1="-25" x2="-17" y2="33.5" id="linearGradient_49" inkscape:label="Gradient Fill 33" gradientUnits="userSpaceOnUse">
         <stop offset="0%" stop-color="rgb(255, 255, 255)" stop-opacity="1"/>
         <stop offset="50.0%" stop-color="rgb(230, 245, 254)" stop-opacity="1"/>
         <stop offset="100%" stop-color="rgb(204, 235, 254)" stop-opacity="1"/>
      </linearGradient>
      <linearGradient x1="14.75" y1="-44.25" x2="12.5" y2="48" id="Gradient_Stroke_32" inkscape:label="Gradient Stroke 32" gradientUnits="userSpaceOnUse">
         <stop offset="0%" stop-color="rgb(255, 255, 255)" stop-opacity="1"/>
         <stop offset="50.0%" stop-color="rgb(255, 255, 255)" stop-opacity="0.75"/>
         <stop offset="100%" stop-color="rgb(255, 255, 255)" stop-opacity="0.5"/>
      </linearGradient>
      <linearGradient x1="43.954" y1="403.791" x2="71.529" y2="312.9" id="Gradient_Fill_31" inkscape:label="Gradient Fill 31" gradientUnits="userSpaceOnUse">
         <stop offset="0%" stop-color="rgb(180, 208, 210)" stop-opacity="0"/>
         <stop offset="50.0%" stop-color="rgb(187, 218, 232)" stop-opacity="0.5"/>
         <stop offset="100%" stop-color="rgb(194, 229, 253)" stop-opacity="1"/>
      </linearGradient>
      <linearGradient x1="43.954" y1="403.791" x2="71.529" y2="312.9" id="linearGradient_55" inkscape:label="Gradient Fill 31" gradientUnits="userSpaceOnUse">
         <stop offset="0%" stop-color="rgb(180, 208, 210)" stop-opacity="0"/>
         <stop offset="50.0%" stop-color="rgb(187, 218, 232)" stop-opacity="0.5"/>
         <stop offset="100%" stop-color="rgb(194, 229, 253)" stop-opacity="1"/>
      </linearGradient>
      <linearGradient x1="-22.5" y1="-42.5" x2="-18.5" y2="24" id="Gradient_Stroke_30" inkscape:label="Gradient Stroke 30" gradientUnits="userSpaceOnUse">
         <stop offset="0%" stop-color="rgb(118, 210, 255)" stop-opacity="1"/>
         <stop offset="50.0%" stop-color="rgb(100, 182, 245)" stop-opacity="1"/>
         <stop offset="100%" stop-color="rgb(82, 154, 235)" stop-opacity="1"/>
      </linearGradient>
   </defs>
   <sodipodi:namedview inkscape:pagecheckerboard="true" borderlayer="true" bordercolor="#666666" pagecolor="#ffffff"/>
   <g inkscape:groupmode="layer" id="Null_1" inkscape:label="Null 1" transform="matrix(1.0, 0.0, 0.0, 1.0, 211.5, 324.625)" opacity="1">
      <g inkscape:groupmode="layer" id="body" inkscape:label="body" transform="matrix(1.0, 0.0, 0.0, 1.0, -207.0, -332.0)" style="">
         <g id="c" inkscape:label="c" transform="matrix(1.0, 0.0, 0.0, 1.0, 0.0, 0.0)" style="">
            <g id="Group_13" inkscape:label="Group 13" transform="matrix(1.0, 0.0, 0.0, 1.0, 246.014, 242.225)" style="fill-opacity:1.0;fill:url(#Gradient_Fill_41);fill-rule:nonzero">
               <path d="M -188.11,92.561 C -184.60600000000002,72.444 -184.78300000000002,27.685000000000002 -163.836,5.626 C -117.64900000000002,-43.013000000000005 -124.23599999999999,-34.783 -107.198,-58.89 C -87.109,-87.314 -22.018,-89.18 0.503,-84.17 C 15.985,-80.726 32.413000000000004,-65.90899999999999 48.694,-53.43 C 55.485,-48.225 71.85,-8.955 70.952,-7.16 C 70.054,-5.364 111.801,38.18000000000001 125.717,89.355 C 139.633,140.53 -195.08100000000002,132.586 -188.11,92.561 Z" id="Path_1" inkscape:label="Path 1" style="fill-opacity:1.0;fill:url(#linearGradient_1);fill-rule:nonzero"/>
            </g>
         </g>
         <g id="sh_3" inkscape:label="sh 3" transform="matrix(1.0, 0.0, 0.0, 1.0, 0.0, 0.0)" style="">
            <g id="Group_23" inkscape:label="Group 23" transform="matrix(1.0, 0.0, 0.0, 1.0, 308.745, 223.515)" style="fill-opacity:1.0;fill:url(#Gradient_Fill_40);fill-rule:nonzero">
               <path d="M -74.142,-67.07 C -120.154,-57.60499999999999 9.378,82.114 41.693,101.794 C 74.008,121.47399999999999 53.697,61.348 8.221,11.551 C 8.221,11.551 -2.011,-2.0880000000000005 1.922,-4.23 C 5.8549999999999995,-6.371 -45.245,-73.01499999999999 -74.142,-67.07 Z" id="path_2" inkscape:label="Path 1" style="fill-opacity:1.0;fill:url(#radialGradient_3);fill-rule:nonzero"/>
            </g>
         </g>
         <g id="sh" inkscape:label="sh" transform="matrix(1.0, 0.0, 0.0, 1.0, 0.0, 0.0)" opacity="0.2" style="">
            <g id="Group_18" inkscape:label="Group 18" transform="matrix(1.0, 0.0, 0.0, 1.0, 218.289, 299.669)" style="fill-opacity:1.0;fill:rgb(158, 0, 26);fill-rule:nonzero">
               <path d="M -160.385,35.118 C -158.215,22.668000000000003 -157.45499999999998,0.7680000000000007 -152.225,-19.332 C -151.535,-17.862000000000002 -134.847,-4.835999999999999 -132.407,-5.052 C -127.25000000000001,-5.5089999999999995 -127.388,-7.734 -126.708,-8.224 C -126.02799999999999,-8.704 -79.42,-25.522 -78.74,-28.112 C -78.05,-30.692 -89.375,-47.648 -89.375,-47.648 C -89.375,-47.648 -53.254999999999995,-28.952 -48.135,-24.972 C -43.015,-20.992 -31.838,-16.479999999999997 -21.009,-19.394 C -14.428,-21.163999999999998 27.745000000000005,-41.507999999999996 79.096,-40.409 C 86.587,-40.249 68.539,-69.41 45.512,-80.533 C 40.223,-83.08800000000001 97.875,-61.382000000000005 98.675,-64.602 C 97.77499999999999,-62.812000000000005 139.525,-19.262 153.445,31.908 C 167.355,83.088 -167.355,75.138 -160.385,35.118 Z" id="path_4" inkscape:label="Path 1" style="fill-opacity:1.0;fill:rgb(158, 0, 26);fill-rule:nonzero"/>
            </g>
         </g>
         <g id="l_2" inkscape:label="l 2" transform="matrix(1.0, 0.0, 0.0, 1.0, 0.0, 0.0)" style="">
            <g id="Group_16" inkscape:label="Group 16" transform="matrix(1.0, 0.0, 0.0, 1.0, 130.779, 272.924)" style="fill-opacity:1.0;fill:url(#Gradient_Fill_39);fill-rule:nonzero">
               <path d="M -0.165,-22.997 C 0.877,-22.612 43.324,3.316 43.324,3.316 C 50.346,8.701 44.665,15.851999999999999 38.443,17.214 C 32.221,18.576 -41.866,23.03 -44.588,23.131 C -47.31,23.232 -47.655,21.036 -45.264,20.259 C -42.873000000000005,19.482 22.488,3.288 22.488,3.288 C 22.488,3.288 -0.20500000000000007,-18.756 -1.82,-20.543 C -3.435,-22.33 -2.552,-24.176000000000002 -0.181,-23.003 C 2.19,-21.83 -0.165,-22.997 -0.165,-22.997 Z" id="path_5" inkscape:label="Path 1" style="fill-opacity:1.0;fill:url(#linearGradient_6);fill-rule:nonzero"/>
            </g>
         </g>
         <g id="l" inkscape:label="l" transform="matrix(1.0, 0.0, 0.0, 1.0, 0.0, 0.0)" style="">
            <g id="Group_15" inkscape:label="Group 15" transform="matrix(1.0, 0.0, 0.0, 1.0, 314.63, 297.128)" style="fill-opacity:1.0;fill:url(#Gradient_Fill_38);fill-rule:nonzero">
               <path d="M -53.624,-18.215 C -50.13,-19.253 -15.415,-26.701 -5.835,-22.602 C 3.745,-18.503 49.607,13.348 49.607,13.348 C 49.607,13.348 53.666,32.517 52.07,31.648 C 50.474000000000004,30.769 -6.958,-13.649000000000001 -10.544,-15.326 C -14.13,-17.003 -54.323,-15.589 -54.323,-15.589 C -54.323,-15.589 -51.441,-15.887 -54.348,-15.554 C -57.254999999999995,-15.221 -57.118,-17.177 -53.624,-18.215 Z" id="path_7" inkscape:label="Path 1" style="fill-opacity:1.0;fill:url(#linearGradient_8);fill-rule:nonzero"/>
            </g>
         </g>
         <g id="bl_l" inkscape:label="bl l" transform="matrix(1.0, 0.0, 0.0, 1.0, 0.0, 0.0)" style="">
            <g id="Group_12" inkscape:label="Group 12" transform="matrix(1.0, 0.0, 0.0, 1.0, 354.351, 262.507)" style="stroke:url(#Gradient_Stroke_37);stroke-opacity:1.0;stroke-width:8.0;stroke-miterlimit:0;stroke-linecap:round;stroke-linejoin:round">
               <path d="M -46.125,-25.207 C -46.125,-25.207 -5.062000000000001,22.191000000000003 9.6,64.905 " id="path_9" inkscape:label="Path 1" style=""/>
            </g>
         </g>
         <g id="o_2" inkscape:label="o 2" transform="matrix(0.9936211553140942, -0.11276967549959832, 0.030962042105169712, 0.27280862440303766, 222.75, 240.75)" style="fill-opacity:1.0;fill:url(#Gradient_Fill_36);fill-rule:nonzero">
            <path d="M -3.612,-45.925 C 50.373999999999995,-45.925 94.69,-3.837999999999994 94.69,50.148 C 94.69,104.134 52.873,133.47 -1.113,133.47 C -55.099,133.47 -102.84,105.19999999999999 -102.84,51.214 C -102.84,-2.7719999999999985 -57.598,-45.925 -3.612,-45.925 Z" id="path_10" inkscape:label="Path 1" style="fill-opacity:1.0;fill:url(#radialGradient_11);fill-rule:nonzero"/>
         </g>
         <g id="ll" inkscape:label="ll" transform="matrix(1.0, 0.0, 0.0, 1.0, 0.0, 0.0)" style="">
            <g id="Group_11" inkscape:label="Group 11" transform="matrix(1.0, 0.0, 0.0, 1.0, 246.014, 294.545)" style="stroke:rgb(121, 1, 0);stroke-opacity:1.0;stroke-width:8.0;stroke-miterlimit:0;stroke-linecap:round;stroke-linejoin:round">
               <path d="M -188.11,40.24 C -184.60600000000002,20.123 -184.78300000000002,-24.636 -163.836,-46.695 C -117.64900000000002,-95.334 -124.235,-87.103 -107.197,-111.21 C -87.108,-139.634 -22.017,-141.5 0.504,-136.49 C 15.985999999999999,-133.04600000000002 32.414,-118.23 48.695,-105.751 C 55.486000000000004,-100.546 71.85,-61.275 70.952,-59.48 C 70.054,-57.684 111.802,-14.140999999999998 125.718,37.034 C 139.63400000000001,88.209 -195.08100000000002,80.265 -188.11,40.24 Z" id="path_12" inkscape:label="Path 1" style=""/>
            </g>
         </g>
         <g inkscape:groupmode="layer" id="body_top" inkscape:label="body top" transform="matrix(1.0, 0.0, 0.0, 1.0, 0.0, 0.0)" style="">
            <g id="g_13" inkscape:label="c" transform="matrix(1.0, 0.0, 0.0, 1.0, 0.0, 0.0)" style="">
               <g id="g_14" inkscape:label="Group 13" transform="matrix(1.0, 0.0, 0.0, 1.0, 246.014, 242.225)" style="fill-opacity:1.0;fill:url(#Gradient_Fill_29);fill-rule:nonzero">
                  <path d="M -28.11,-21.939 C -59.513999999999996,-21.225 -168.014,23.275000000000002 -130.336,-21.374 C -122.87500000000001,-30.214999999999996 -119.735,-50.283 -102.697,-74.39 C -82.608,-102.814 -5.494,-131.557 17.004,-136.67 C 33.987,-140.53 74.607,-133.61 93.194,-124.93 C 104.259,-119.76400000000001 162.74200000000002,-57.678 190.186,16.813 C 195.08100000000002,30.098999999999997 171.506,32.344 162.079,25.161 C 152.65200000000002,17.979 104.896,-33.913 91.152,-35.44 C 87.111,-35.888999999999996 71.85,-8.955 70.952,-7.16 C 70.054,-5.364 56.089,-23.854 -28.11,-21.939 Z" id="path_15" inkscape:label="Path 1" style="fill-opacity:1.0;fill:url(#linearGradient_16);fill-rule:nonzero"/>
               </g>
            </g>
            <g id="g_17" inkscape:label="sh 3" transform="matrix(1.0, 0.0, 0.0, 1.0, 0.0, 0.0)" style="">
               <g id="g_18" inkscape:label="Group 23" transform="matrix(1.0, 0.0, 0.0, 1.0, 308.745, 223.515)" style="fill-opacity:1.0;fill:url(#Gradient_Fill_28);fill-rule:nonzero">
                  <path d="M 109.471,-4.379 C 109.471,-4.379 14.833999999999996,-121.47299999999998 -56.642,-98.07 C -128.117,-74.667 -56.622,-23.886 -24.307,-4.206 C 8.008,15.474 8.505,13.86 8.221,11.551 C 8.221,11.551 24.489,-14.588000000000001 28.422,-16.73 C 32.355000000000004,-18.871000000000002 114.915,56.008 114.915,56.008 C 114.915,56.008 128.118,26.627 128.118,26.627 C 128.118,26.627 109.471,-4.379 109.471,-4.379 Z" id="path_19" inkscape:label="Path 1" style="fill-opacity:1.0;fill:url(#radialGradient_20);fill-rule:nonzero"/>
               </g>
            </g>
            <g id="sh_2" inkscape:label="sh 2" transform="matrix(1.0, 0.0, 0.0, 1.0, 0.0, 0.0)" opacity="0.2" style="">
               <g id="Group_19" inkscape:label="Group 19" transform="matrix(1.0, 0.0, 0.0, 1.0, 258.832, 191.462)" style="fill-opacity:1.0;fill:rgb(183, 0, 0);fill-rule:nonzero">
                  <path d="M -46.195,-36.859 C -40.291,-31.545 -22.634999999999998,-18.204 -9.138,0.424 C -0.9919999999999991,11.666 -43.973,24.926000000000002 -48.696,29.059 C -53.42,33.192 -1.7119999999999997,25.366999999999997 4.465,24.999 C 10.642,24.631 49.196,36.858999999999995 51.308,34.282 C 53.42,31.705 16.41,-15.937999999999999 12.997,-17.662 C 9.584,-19.384999999999998 -46.195,-36.859 -46.195,-36.859 Z" id="path_21" inkscape:label="Path 1" style="fill-opacity:1.0;fill:rgb(183, 0, 0);fill-rule:nonzero"/>
               </g>
            </g>
            <g id="g_22" inkscape:label="sh" transform="matrix(0.6829933611308926, -0.7304245810835819, 0.7304245810835819, 0.6829933611308926, -40.289955349822264, 290.0497050565802)" opacity="0.2" style="">
               <g id="Group_21" inkscape:label="Group 21" transform="matrix(1.0, 0.0, 0.0, 1.0, 332.575, 188.888)" style="fill-opacity:1.0;fill:rgb(223, 0, 0);fill-rule:nonzero">
                  <path d="M -12.878,-16.424 C -12.878,-16.424 1.787,-2.46 2.908,-1.581 C 4.9510000000000005,0.020000000000000018 12.878,1.312 12.878,1.312 C 12.878,1.312 11.754000000000001,4.479000000000001 7.535,14.781 C 3.316,25.083 -12.878,-16.424 -12.878,-16.424 Z" id="path_23" inkscape:label="Path 1" style="fill-opacity:1.0;fill:rgb(223, 0, 0);fill-rule:nonzero"/>
               </g>
            </g>
            <g id="l_4" inkscape:label="l 4" transform="matrix(0.7109345028611442, -0.7032582261456866, 0.7032582261456866, 0.7109345028611442, -46.90570708698675, 271.2699804570277)" style="">
               <g id="Group_20" inkscape:label="Group 20" transform="matrix(1.0, 0.0, 0.0, 1.0, 332.638, 191.383)" style="fill-opacity:1.0;fill:url(#Gradient_Fill_27);fill-rule:nonzero">
                  <path d="M -12.182,-19.261 C -11.637,-18.477 3.035,4.602 3.035,4.602 C 3.858,5.9030000000000005 4.630000000000001,6.154 5.605,5.059 C 6.5760000000000005,3.96 11.832,-1.575 11.832,-1.575 C 11.832,-1.575 11.32,-0.7780000000000001 11.872,-1.612 C 12.424,-2.446 13.662,-2.3770000000000002 13.762,-0.88 C 13.862,0.6170000000000001 13.797,-0.792 13.797,-0.792 C 13.817,0.03699999999999992 12.465,7.996999999999999 12.207,8.748 C 11.721,10.267999999999999 10.633,14.844999999999999 8.841,17.418 C 7.0489999999999995,19.991 3.728,19.546 3.728,19.546 C 3.728,19.546 1.925,20.179000000000002 -0.01,17.309 C -1.68,14.832 -4.043,10.059999999999999 -4.659,8.572 C -5.885,5.6 -13.493,-18.208000000000002 -13.315,-18.983 C -13.136999999999999,-19.758 -12.727,-20.044999999999998 -12.182,-19.261 Z" id="path_24" inkscape:label="Path 1" style="fill-opacity:1.0;fill:url(#linearGradient_25);fill-rule:nonzero"/>
               </g>
            </g>
            <g id="l_3" inkscape:label="l 3" transform="matrix(1.0, 0.0, 0.0, 1.0, 0.0, 0.0)" style="">
               <g id="Group_17" inkscape:label="Group 17" transform="matrix(1.0, 0.0, 0.0, 1.0, 265.818, 195.904)" style="fill-opacity:1.0;fill:url(#Gradient_Fill_26);fill-rule:nonzero">
                  <path d="M -53.019,-41.87 C -51.912,-41.623999999999995 -4.88,-31.104 1.437,-29.121 C 3.037,-28.608999999999998 6.8549999999999995,-27.901 9.706,-25.215 C 12.556999999999999,-22.529 51.944,27.363 53.055,29.186 C 53.336,29.655 56.917,34.302 53.987,39.043 C 51.057,43.784 40.979,40.827 40.024,40.577 C 36.233000000000004,39.553 3.11,28.15 0.254,27.272 C -0.45399999999999996,27.057 -3.8070000000000004,26.139 -6.969,26.43 C -10.131,26.721 -48.153999999999996,28.871 -52.83,28.796 C -57.506,28.721 -58.873000000000005,25.383 -53.533,24.052 C -48.193,22.721 -12.974,15.886000000000001 -7.771,14.96 C -2.5679999999999996,14.034 0.782,14.957999999999998 3.513,15.777 C 6.244,16.596 36.705,26.518 36.705,26.518 C 32.47,20.495 6.595,-13.89 4.326,-16.585 C 2.0559999999999996,-19.28 -0.2829999999999999,-20.021 -1.696,-20.629 C -4.564,-21.852 -52.22,-40.454 -53.441,-40.851 C -54.662000000000006,-41.248 -54.126,-42.116 -53.019,-41.87 Z" id="path_26" inkscape:label="Path 1" style="fill-opacity:1.0;fill:url(#linearGradient_27);fill-rule:nonzero"/>
               </g>
            </g>
            <g id="g_28" inkscape:label="bl l" transform="matrix(1.0, 0.0, 0.0, 1.0, 0.0, 7.0)" style="">
               <g id="Group_14" inkscape:label="Group 14" transform="matrix(1.0, 0.0, 0.0, 1.0, 246.034, 217.755)" style="stroke:url(#Gradient_Stroke_25);stroke-opacity:1.0;stroke-width:8.0;stroke-miterlimit:0;stroke-linecap:round;stroke-linejoin:round">
                  <path d="M -129.607,-11.154 C -125.876,-15.574 -123.414,-19.239 -119.754,-24.812 C -116.09400000000001,-30.385 -111.23700000000001,-37.866 -102.718,-49.919 C -82.629,-78.34299999999999 -5.515000000000001,-107.086 16.983,-112.199 C 33.966,-116.059 74.587,-109.13999999999999 93.174,-100.46 C 104.239,-95.294 162.722,-33.207 190.166,41.284 C 195.061,54.57 173.48499999999999,50.315 164.058,43.132 C 162.921,42.266 107.46600000000001,-6.130000000000001 91.241,-18.291 C 85.716,-16.38 70.931,9.561 70.931,9.561 " id="path_29" inkscape:label="Path 1" style=""/>
               </g>
            </g>
            <g id="o_3" inkscape:label="o 3" transform="matrix(0.7776631366414678, -0.2538940911265045, 0.06302194722165612, 0.19303263394667441, 220.75, 148.25)" style="fill-opacity:1.0;fill:url(#Gradient_Fill_24);fill-rule:nonzero">
               <path d="M 0,-97.75 C 53.986,-97.75 97.75,-53.986 97.75,0 C 97.75,53.986 53.986,97.75 0,97.75 C -53.986,97.75 -97.75,53.986 -97.75,0 C -97.75,-53.986 -53.986,-97.75 0,-97.75 Z" id="path_30" inkscape:label="Path 1" style="fill-opacity:1.0;fill:url(#radialGradient_31);fill-rule:nonzero"/>
            </g>
            <g id="o_4" inkscape:label="o 4" transform="matrix(0.4733059161613757, 0.680592337472764, -0.1775144153830095, 0.12344926379378841, 370.75, 183.75)" style="fill-opacity:1.0;fill:url(#Gradient_Fill_23);fill-rule:nonzero">
               <path d="M 5.483,-133.622 C 59.468999999999994,-133.622 97.75,-53.986 97.75,0 C 97.75,53.986 53.986,97.75 0,97.75 C -53.986,97.75 -90.249,56.202 -90.249,2.216 C -90.249,-51.769999999999996 -48.503,-133.622 5.483,-133.622 Z" id="path_32" inkscape:label="Path 1" style="fill-opacity:1.0;fill:url(#radialGradient_33);fill-rule:nonzero"/>
            </g>
            <g id="ll_2" inkscape:label="ll 2" transform="matrix(1.0, 0.0, 0.0, 1.0, 0.0, 0.0)" style="">
               <g id="g_34" inkscape:label="Group 13" transform="matrix(1.0, 0.0, 0.0, 1.0, 246.014, 241.961)" style="stroke:url(#Gradient_Stroke_22);stroke-opacity:1.0;stroke-width:8.0;stroke-miterlimit:0;stroke-linecap:round;stroke-linejoin:round">
                  <path d="M -131.336,-27.874 C -127.60500000000002,-32.295 -124.705,-37.895999999999994 -120.608,-45.407 C -116.51100000000001,-52.918 -111.21600000000001,-62.337 -102.697,-74.39 C -82.608,-102.814 -5.494,-131.557 17.004,-136.67 C 33.987,-140.53 74.607,-133.61 93.194,-124.93 C 104.259,-119.76400000000001 162.74200000000002,-57.678 190.186,16.813 C 195.08100000000002,30.098999999999997 171.506,32.344 162.079,25.161 C 158.33,22.305 93.871,-35.139 91.152,-35.441 C 87.111,-35.89 71.84899999999999,-8.955 70.951,-7.16 " id="path_35" inkscape:label="Path 1" style=""/>
               </g>
            </g>
         </g>
         <g inkscape:groupmode="layer" id="bub_2" inkscape:label="bub 2" transform="matrix(0.70636591311755, -0.7078468738262603, 0.7078468738262603, 0.70636591311755, -80.78508883750294, 387.7699418854173)" style="">
            <g id="g_36" inkscape:label="c" transform="matrix(1.0, 0.0, 0.0, 1.0, 0.0, 0.0)" style="">
               <g id="Group_1" inkscape:label="Group 1" transform="matrix(1.0, 0.0, 0.0, 1.0, 446.662, 293.049)" style="fill-opacity:1.0;fill:url(#Gradient_Fill_21);fill-rule:nonzero">
                  <path d="M 15.658,-45.245 C 15.658,-45.245 -0.8809999999999985,-59.683 -15.431,-51.746 C -29.981,-43.81 -34.39,-28.195 -34.39,-28.195 C -34.39,-28.195 -45.736000000000004,-28.338 -52.792,-14.27 C -59.122,-1.6519999999999992 -53.934,4.298 -48.547,3.145 C -48.547,3.145 -56.144000000000005,22.228 -44.883,37.628 C -31.980000000000004,55.272999999999996 -8.859,51.845 -8.859,51.845 C -8.859,51.845 -8.602,57.166 -3.466,58.373 C 2.107,59.683 20.817,54.432 32.778,35.723 C 32.778,35.723 39.22,43.084 48.421,31.736 C 57.623,20.387999999999998 59.121,-2.6549999999999994 49.997,-13.065 C 49.997,-13.065 51.29,-45.855999999999995 15.658,-45.245 Z" id="path_37" inkscape:label="Path 1" style="fill-opacity:1.0;fill:url(#radialGradient_38);fill-rule:nonzero"/>
               </g>
            </g>
            <g id="bl" inkscape:label="bl" transform="matrix(1.0, 0.0, 0.0, 1.0, 0.0, 0.0)" style="">
               <g id="Group_3" inkscape:label="Group 3" transform="matrix(1.0, 0.0, 0.0, 1.0, 446.434, 292.938)" style="stroke:url(#Gradient_Stroke_20);stroke-opacity:1.0;stroke-width:8.0;stroke-miterlimit:4.0;stroke-linecap:butt;stroke-linejoin:miter">
                  <path d="M 14.298,-38.875 C 14.298,-38.875 -0.2129999999999992,-51.281000000000006 -12.981,-44.462 C -25.747999999999998,-37.643 -29.501,-21.942 -29.501,-21.942 C -29.501,-21.942 -40.912,-21.519 -45.765,-12.261 C -51.42,-1.4719999999999995 -46.246,-0.30000000000000004 -41.546,0.245 C -41.546,0.245 -48.705,19.098999999999997 -38.824,32.33 C -27.502,47.492 -7.214,44.547 -7.214,44.547 C -7.214,44.547 -6.988,49.119 -2.482,50.156 C 2.4079999999999995,51.281 16.862,48.143 29.034,28.416 C 29.034,28.416 36.515,35.085 43.047,27.268 C 51.164,17.553 51.42,-1.626999999999999 43.415,-10.572 C 43.415,-10.572 45.564,-39.4 14.298,-38.875 Z" id="path_39" inkscape:label="Path 1" style=""/>
               </g>
            </g>
            <g id="g_40" inkscape:label="sh" transform="matrix(1.0, 0.0, 0.0, 1.0, 0.0, 0.0)" opacity="0.3" style="">
               <g id="Group_2" inkscape:label="Group 2" transform="matrix(1.0, 0.0, 0.0, 1.0, 446.661, 308.721)" style="fill-opacity:1.0;fill:rgb(119, 194, 247);fill-rule:nonzero">
                  <path d="M 48.42,16.06 C 39.22,27.409999999999997 32.78,20.05 32.78,20.05 C 20.82,38.760000000000005 2.1100000000000003,44.010000000000005 -3.46,42.7 C -8.6,41.49 -8.86,36.17 -8.86,36.17 C -8.86,36.17 -31.980000000000004,39.6 -44.88,21.96 C -56.14,6.5600000000000005 -48.55,-12.53 -48.55,-12.53 C -53.93,-11.37 -59.12,-17.32 -52.79,-29.94 C -45.73,-44.010000000000005 -34.39,-43.87 -34.39,-43.87 C -43.1,-31.759999999999998 -41.18,-18.8 -31.88,-21.75 C -31.88,-21.75 -40.141999999999996,3.4779999999999998 -11.36,1.26 C 11.344999999999999,-0.49 21.35,-13.45 21.35,-13.45 C 21.35,-13.45 24.23,-5.470000000000001 33.53,-9.32 C 42.83,-13.17 50,-28.74 50,-28.74 C 59.12,-18.33 57.620000000000005,4.719999999999999 48.42,16.06 Z" id="path_41" inkscape:label="Path 1" style="fill-opacity:1.0;fill:rgb(119, 194, 247);fill-rule:nonzero"/>
               </g>
            </g>
            <g id="g_42" inkscape:label="ll" transform="matrix(1.0, 0.0, 0.0, 1.0, 0.0, 0.0)" style="">
               <g id="g_43" inkscape:label="Group 1" transform="matrix(1.0, 0.0, 0.0, 1.0, 446.662, 293.049)" style="stroke:url(#Gradient_Stroke_19);stroke-opacity:1.0;stroke-width:8.0;stroke-miterlimit:4.0;stroke-linecap:butt;stroke-linejoin:miter">
                  <path d="M 15.658,-45.245 C 15.658,-45.245 -0.8809999999999985,-59.683 -15.431,-51.746 C -29.981,-43.81 -34.39,-28.195 -34.39,-28.195 C -34.39,-28.195 -45.736000000000004,-28.338 -52.792,-14.27 C -59.122,-1.6519999999999992 -53.934,4.298 -48.547,3.145 C -48.547,3.145 -56.144000000000005,22.228 -44.883,37.628 C -31.980000000000004,55.272999999999996 -8.859,51.845 -8.859,51.845 C -8.859,51.845 -8.602,57.166 -3.466,58.373 C 2.107,59.683 20.817,54.432 32.778,35.723 C 32.778,35.723 39.22,43.084 48.421,31.736 C 57.623,20.387999999999998 59.121,-2.6549999999999994 49.997,-13.065 C 49.997,-13.065 51.29,-45.855999999999995 15.658,-45.245 Z" id="path_44" inkscape:label="Path 1" style=""/>
               </g>
            </g>
         </g>
      </g>
      <g inkscape:groupmode="layer" id="bot" inkscape:label="bot" transform="matrix(1.0, 0.0, 0.0, 1.0, -207.0, -332.0)" style="">
         <g id="Shape_1" inkscape:label="Shape 1" transform="matrix(1.0, 0.0, 0.0, 1.0, 0.0, 0.0)" style="fill-opacity:1.0;fill:url(#Gradient_Fill_35);fill-rule:nonzero;stroke:url(#Gradient_Stroke_34);stroke-opacity:1.0;stroke-width:8.0;stroke-miterlimit:4.0;stroke-linecap:butt;stroke-linejoin:miter">
            <path d="M 204.997,423.397 C 158.19500000000002,424.272 68.601,412.078 72.279,397.467 C 73.703,391.813 99.057,389.42499999999995 116.54,396.371 C 124.173,400.216 139.218,393.203 150.862,398.981 C 161.759,404.388 209.326,399.38 220.543,400.039 C 233.93800000000002,400.82599999999996 285.403,402.402 303.81,400.122 C 318.376,398.31800000000004 378.096,388.402 379.282,403.488 C 379.852,410.742 355.081,420.591 204.997,423.397 Z" id="path_45" inkscape:label="Path 1" style="fill-opacity:1.0;fill:url(#linearGradient_46);fill-rule:nonzero"/>
         </g>
         <g id="g_47" inkscape:label="c" transform="matrix(1.0, 0.0, 0.0, 1.0, 0.0, 0.0)" style="">
            <g id="Group_6" inkscape:label="Group 6" transform="matrix(1.0, 0.0, 0.0, 1.0, 202.295, 376.286)" style="fill-opacity:1.0;fill:url(#Gradient_Fill_33);fill-rule:nonzero">
               <path d="M -131.859,-50.529 C -148.508,-54.30200000000001 -163.733,-49.970000000000006 -165.612,-42.267 C -167.039,-36.414 -162.493,-36.605 -162.493,-36.605 C -162.493,-36.605 -199.811,-1.5150000000000006 -166.949,33.574 C -166.949,33.574 -172.41500000000002,32.477000000000004 -170.93,40.34 C -169.044,50.328 -148.24099999999999,59.825 -113.81,57.962 C -90.297,56.690000000000005 -78.502,50.297 -75.16,50.297 C -75.16,50.297 -75.07900000000001,53.283 -73.269,54.851 C -69.641,57.997 -61.06100000000001,56.246 -42.673,49.86 C -29.966,45.446 -3.2409999999999997,47.056000000000004 14.956,51.036 C 44.977999999999994,57.602000000000004 60.732,56.097 81.792,51.417 C 102.852,46.737 139.208,64.01299999999999 167.614,50.986 C 190.698,40.4 186.205,16.214 185.369,11.071 C 185.369,11.071 189.394,15.796 194.074,14.626 C 198.75400000000002,13.456 199.81,-16.75 181.484,-31.424 C 181.484,-31.424 189.32500000000002,-30.708000000000006 191.234,-35.154 C 193.716,-40.932 178.953,-56.217999999999996 149.169,-51.104 C 128.127,-47.49 111.285,-42.954 91.395,-44.124 C 91.395,-44.124 94.53,-50.189 88.275,-51.924 C 76.22800000000001,-55.263999999999996 60.135,-48.884 60.135,-48.884 C 60.135,-48.884 63.625,-53.343 56.995,-58.804 C 50.364999999999995,-64.263 15.964000000000002,-56.85 -28.77,-48.695 C -76.852,-39.929 -109.918,-60.464999999999996 -128.907,-58.595 C -136.955,-57.802 -131.859,-50.529 -131.859,-50.529 Z" id="path_48" inkscape:label="Path 1" style="fill-opacity:1.0;fill:url(#linearGradient_49);fill-rule:nonzero"/>
            </g>
         </g>
         <g id="g_50" inkscape:label="sh" transform="matrix(1.0, 0.0, 0.0, 1.0, 0.0, 0.0)" opacity="0.3" style="">
            <g id="Group_8" inkscape:label="Group 8" transform="matrix(1.0, 0.0, 0.0, 1.0, 204.132, 378.434)" style="fill-opacity:1.0;fill:rgb(119, 194, 247);fill-rule:nonzero">
               <path d="M 191.739,12.227 C 187.059,13.397 183.158,7.547 183.158,7.547 C 185.10799999999998,14.957 188.858,38.257000000000005 165.778,48.837 C 137.368,61.867000000000004 101.019,44.587 79.959,49.267 C 58.899,53.947 43.138999999999996,55.457 13.119,48.887 C -5.0809999999999995,44.907000000000004 -31.801000000000002,43.297 -44.511,47.717 C -62.901,54.097 -71.48100000000001,55.847 -75.111,52.707 C -76.911,51.137 -77.001,48.147 -77.001,48.147 C -80.34100000000001,48.147 -92.132,54.546 -115.652,55.816 C -150.082,57.676 -170.881,48.17700000000001 -172.771,38.197 C -174.25099999999998,30.327 -168.791,31.427 -168.791,31.427 C -201.291,-3.2830000000000013 -165.131,-37.993 -164.341,-38.743 C -176.031,-22.903000000000002 -161.081,3.577 -142.701,8.477 C -142.701,8.477 -146.83100000000002,14.256 -132.341,15.536 C -117.85100000000001,16.816 -105.492,12.977 -105.492,12.977 C -105.492,12.977 -110.602,19.797 -105.492,23.207 C -100.382,26.617 -82.90100000000001,15.966000000000001 -74.811,6.156 C -74.811,6.156 -71.821,22.357 -43.701,14.257 C -15.571000000000002,6.157 -7.120999999999999,1.476 9.529,6.156 C 9.529,6.156 6.409,9.356 13.209,12.626 C 20.009,15.905999999999999 33.609,12.376 33.609,12.376 C 33.609,12.376 30.839,16.917 34.619,19.177 C 38.399,21.447 47.468999999999994,17.167 50.989,14.397 C 54.519,11.627 69.584,0.06400000000000006 88.299,5.957 C 102.58600000000001,10.456 119.64099999999999,-1.0579999999999998 124.615,-11.028 C 124.615,-11.028 119.431,-0.943 125.648,0.767 C 128.882,1.6560000000000001 136.53099999999998,-3.7199999999999998 138.891,-11.03 C 138.891,-11.03 140.707,-4.178 145.338,-5.088 C 150.70999999999998,-6.143 155.151,-18.709 149.4,-26.48 C 149.4,-26.48 157.79100000000003,-26.253 156.705,-32.077 C 154.995,-41.247 131.736,-48.692 120.416,-48.354 C 159.62099999999998,-61.866 179.48299999999998,-53.551 186.057,-43.772 C 195.333,-29.974999999999998 179.648,-33.572 179.648,-33.572 C 201.292,-13.357000000000003 193.421,11.806000000000001 191.739,12.227 Z" id="path_51" inkscape:label="Path 1" style="fill-opacity:1.0;fill:rgb(119, 194, 247);fill-rule:nonzero"/>
            </g>
         </g>
         <g id="g_52" inkscape:label="bl" transform="matrix(1.0, 0.0, 0.0, 1.0, 0.0, 0.0)" style="">
            <g id="Group_7" inkscape:label="Group 7" transform="matrix(1.0, 0.0, 0.0, 1.0, 202.339, 376.219)" opacity="0.6" style="stroke:url(#Gradient_Stroke_32);stroke-opacity:1.0;stroke-width:8.0;stroke-miterlimit:4.0;stroke-linecap:butt;stroke-linejoin:miter">
               <path d="M -124.593,-41.657 C -145.329,-47.122 -157.457,-43.751 -158.921,-39.602 C -160.313,-35.659 -151.986,-36.812 -151.986,-36.812 C -151.986,-36.812 -192.74599999999998,-1.065999999999999 -159.652,30.452 C -159.652,30.452 -163.554,32.794000000000004 -163.466,36.273 C -163.243,45.05200000000001 -142.686,52.748 -109.742,50.436 C -89.843,49.039 -74.914,42.84 -71.712,42.84 C -71.712,42.84 -71.63499999999999,47.409 -69.901,48.759 C -66.42399999999999,51.466 -59.205,47.958999999999996 -41.589,42.464 C -29.415,38.666 -2.811,41.052 14.622,44.476 C 43.385000000000005,50.125 59.479,48.831 79.655,44.804 C 99.832,40.777 135.84199999999998,55.66 163.057,44.451 C 185.172,35.343 180.42999999999998,14.646 178.528,0.364 C 178.528,0.364 185.451,9.139000000000001 188.814,8.217 C 193.24599999999998,7.002000000000001 191.464,-13.185999999999996 176.678,-32.925 C 176.678,-32.925 184.68200000000002,-33.777 184.525,-36.002 C 184.32500000000002,-38.843 174.035,-48.806999999999995 143.207,-42.407 C 123.23499999999999,-38.260999999999996 106.911,-35.395 87.855,-36.401 C 87.855,-36.401 88.93199999999999,-43.943000000000005 84.594,-44.978 C 73.024,-47.736000000000004 56.47,-39.422 56.47,-39.422 C 56.47,-39.422 58.765,-49.87 54.948,-52.067 C 48.707,-55.659 14.927,-47.93 -27.93,-40.913 C -73.995,-33.37 -107.699,-48.897 -125.694,-52.067 C -130.862,-52.977 -124.593,-41.657 -124.593,-41.657 Z" id="path_53" inkscape:label="Path 1" style=""/>
            </g>
         </g>
         <g id="Shape_2" inkscape:label="Shape 2" transform="matrix(1.0, 0.0, 0.0, 1.0, 0.0, 0.0)" opacity="0.0" style="fill-opacity:1.0;fill:url(#Gradient_Fill_31);fill-rule:nonzero">
            <path d="M 342.203,322.088 C 358.815,319.856 363.111,318.432 351.597,324.521 C 351.239,326.28700000000003 347.46000000000004,331.734 337.869,332.181 C 330.523,332.52299999999997 382.744,384.097 398.586,364.002 C 398.586,364.002 399.464,362.16700000000003 399.4,363.723 C 392.49899999999997,349.992 387.78200000000004,343.939 381.831,339.557 C 380.92400000000004,339.0 393.67,339.083 392.149,335.136 C 393.372,331.99600000000004 386.606,311.682 342.203,322.088 Z" id="path_54" inkscape:label="Path 1" style="fill-opacity:1.0;fill:url(#linearGradient_55);fill-rule:nonzero"/>
         </g>
         <g id="g_56" inkscape:label="ll 2" transform="matrix(1.0, 0.0, 0.0, 1.0, 0.0, 0.0)" style="">
            <g id="g_57" inkscape:label="Group 6" transform="matrix(1.0, 0.0, 0.0, 1.0, 202.295, 376.286)" style="stroke:url(#Gradient_Stroke_30);stroke-opacity:1.0;stroke-width:8.0;stroke-miterlimit:4.0;stroke-linecap:butt;stroke-linejoin:miter">
               <path d="M -131.859,-50.529 C -148.508,-54.30200000000001 -163.733,-49.970000000000006 -165.612,-42.267 C -167.039,-36.414 -162.493,-36.605 -162.493,-36.605 C -162.493,-36.605 -199.811,-1.5150000000000006 -166.949,33.574 C -166.949,33.574 -172.41500000000002,32.477000000000004 -170.93,40.34 C -169.044,50.328 -148.24099999999999,59.825 -113.81,57.962 C -90.297,56.690000000000005 -78.502,50.297 -75.16,50.297 C -75.16,50.297 -75.07900000000001,53.283 -73.269,54.851 C -69.641,57.997 -61.06100000000001,56.246 -42.673,49.86 C -29.966,45.446 -3.2409999999999997,47.056000000000004 14.956,51.036 C 44.977999999999994,57.602000000000004 60.732,56.097 81.792,51.417 C 102.852,46.737 139.208,64.01299999999999 167.614,50.986 C 190.698,40.4 186.205,16.214 185.369,11.071 C 185.369,11.071 189.394,15.796 194.074,14.626 C 198.75400000000002,13.456 199.81,-16.75 181.484,-31.424 C 181.484,-31.424 189.32500000000002,-30.708000000000006 191.234,-35.154 C 193.716,-40.932 178.953,-56.217999999999996 149.169,-51.104 C 128.127,-47.49 111.285,-42.954 91.395,-44.124 C 91.395,-44.124 94.53,-50.189 88.275,-51.924 C 76.22800000000001,-55.263999999999996 60.135,-48.884 60.135,-48.884 C 60.135,-48.884 63.625,-53.343 56.995,-58.804 C 50.364999999999995,-64.263 15.964000000000002,-56.85 -28.77,-48.695 C -76.852,-39.929 -109.918,-60.464999999999996 -128.907,-58.595 C -136.955,-57.802 -131.859,-50.529 -131.859,-50.529 Z" id="path_58" inkscape:label="Path 1" style=""/>
            </g>
         </g>
      </g>
   </g>
</svg>
