<?xml version="1.0" ?>
<svg xmlns:inkscape="http://www.inkscape.org/namespaces/inkscape" xmlns:sodipodi="http://sodipodi.sourceforge.net/DTD/sodipodi-0.dtd" xmlns="http://www.w3.org/2000/svg" width="512" height="512" viewBox="0 0 512 512" version="1.1" id="svg_1" sodipodi:docname="12- pur" inkscape:export-xdpi="96" inkscape:export-ydpi="96" style="fill: none; stroke: none">
   <defs>
      <linearGradient x1="-85.078" y1="-0.841" x2="84.642" y2="-0.841" id="Gradient_Fill_1" inkscape:label="Gradient Fill 1" gradientUnits="userSpaceOnUse">
         <stop offset="70.19999999999999%" stop-color="rgb(255, 255, 255)" stop-opacity="1"/>
         <stop offset="86.4%" stop-color="rgb(246, 245, 251)" stop-opacity="1"/>
         <stop offset="100%" stop-color="rgb(236, 235, 247)" stop-opacity="1"/>
      </linearGradient>
      <linearGradient x1="-85.078" y1="-0.841" x2="84.642" y2="-0.841" id="linearGradient_6" inkscape:label="Gradient Fill 1" gradientUnits="userSpaceOnUse">
         <stop offset="70.19999999999999%" stop-color="rgb(255, 255, 255)" stop-opacity="1"/>
         <stop offset="86.4%" stop-color="rgb(246, 245, 251)" stop-opacity="1"/>
         <stop offset="100%" stop-color="rgb(236, 235, 247)" stop-opacity="1"/>
      </linearGradient>
      <linearGradient x1="-95.078" y1="-0.841" x2="93.956" y2="-0.841" id="Gradient_Stroke_1" inkscape:label="Gradient Stroke 1" gradientUnits="userSpaceOnUse">
         <stop offset="0%" stop-color="rgb(173, 171, 182)" stop-opacity="1"/>
         <stop offset="74.0%" stop-color="rgb(164, 161, 171)" stop-opacity="1"/>
         <stop offset="99.9%" stop-color="rgb(155, 151, 160)" stop-opacity="1"/>
      </linearGradient>
      <linearGradient x1="-0.325" y1="-94.158" x2="-0.325" y2="98.672" id="linearGradient_7" inkscape:label="Gradient Fill 1" gradientUnits="userSpaceOnUse">
         <stop offset="0%" stop-color="rgb(255, 69, 72)" stop-opacity="1"/>
         <stop offset="51.1%" stop-color="rgb(245, 34, 36)" stop-opacity="1"/>
         <stop offset="76.0%" stop-color="rgb(235, 0, 0)" stop-opacity="1"/>
      </linearGradient>
      <linearGradient x1="-0.325" y1="-94.158" x2="-0.325" y2="98.672" id="linearGradient_9" inkscape:label="Gradient Fill 1" gradientUnits="userSpaceOnUse">
         <stop offset="0%" stop-color="rgb(255, 69, 72)" stop-opacity="1"/>
         <stop offset="51.1%" stop-color="rgb(245, 34, 36)" stop-opacity="1"/>
         <stop offset="76.0%" stop-color="rgb(235, 0, 0)" stop-opacity="1"/>
      </linearGradient>
      <radialGradient cx="-0.325" cy="-68.115" r="173.929" fx="-0.325" fy="-68.115" id="radialGradient_10" inkscape:label="Gradient Fill 1" gradientUnits="userSpaceOnUse">
         <stop offset="60.4%" stop-color="rgb(152, 0, 0)" stop-opacity="0"/>
         <stop offset="76.2%" stop-color="rgb(152, 0, 0)" stop-opacity="0.5"/>
         <stop offset="100%" stop-color="rgb(152, 0, 0)" stop-opacity="1"/>
      </radialGradient>
      <radialGradient cx="-0.325" cy="-68.115" r="173.929" fx="-0.325" fy="-68.115" id="radialGradient_12" inkscape:label="Gradient Fill 1" gradientUnits="userSpaceOnUse">
         <stop offset="60.4%" stop-color="rgb(152, 0, 0)" stop-opacity="0"/>
         <stop offset="76.2%" stop-color="rgb(152, 0, 0)" stop-opacity="0.5"/>
         <stop offset="100%" stop-color="rgb(152, 0, 0)" stop-opacity="1"/>
      </radialGradient>
      <linearGradient x1="-219.135" y1="-0.608" x2="217.739" y2="-0.608" id="linearGradient_13" inkscape:label="Gradient Stroke 1" gradientUnits="userSpaceOnUse">
         <stop offset="0%" stop-color="rgb(255, 255, 255)" stop-opacity="1"/>
         <stop offset="83.89999999999999%" stop-color="rgb(255, 255, 255)" stop-opacity="0.5"/>
         <stop offset="100%" stop-color="rgb(255, 255, 255)" stop-opacity="0"/>
      </linearGradient>
      <linearGradient x1="-0.524" y1="94.78" x2="-0.524" y2="-96.711" id="linearGradient_14" inkscape:label="Gradient Fill 1" gradientUnits="userSpaceOnUse">
         <stop offset="0%" stop-color="rgb(152, 0, 0)" stop-opacity="0"/>
         <stop offset="34.4%" stop-color="rgb(152, 0, 0)" stop-opacity="0.5"/>
         <stop offset="86.2%" stop-color="rgb(152, 0, 0)" stop-opacity="1"/>
      </linearGradient>
      <linearGradient x1="-0.524" y1="94.78" x2="-0.524" y2="-96.711" id="linearGradient_16" inkscape:label="Gradient Fill 1" gradientUnits="userSpaceOnUse">
         <stop offset="0%" stop-color="rgb(152, 0, 0)" stop-opacity="0"/>
         <stop offset="34.4%" stop-color="rgb(152, 0, 0)" stop-opacity="0.5"/>
         <stop offset="86.2%" stop-color="rgb(152, 0, 0)" stop-opacity="1"/>
      </linearGradient>
      <linearGradient x1="-0.789" y1="105.368" x2="-0.789" y2="-107.136" id="linearGradient_18" inkscape:label="Gradient Stroke 1" gradientUnits="userSpaceOnUse">
         <stop offset="0%" stop-color="rgb(176, 0, 0)" stop-opacity="1"/>
         <stop offset="51.7%" stop-color="rgb(148, 0, 0)" stop-opacity="1"/>
         <stop offset="88.3%" stop-color="rgb(121, 0, 0)" stop-opacity="1"/>
      </linearGradient>
      <linearGradient x1="-0.89" y1="-104.435" x2="-0.89" y2="65.511" id="linearGradient_23" inkscape:label="Gradient Fill 1" gradientUnits="userSpaceOnUse">
         <stop offset="13.5%" stop-color="rgb(255, 126, 136)" stop-opacity="1"/>
         <stop offset="42.5%" stop-color="rgb(245, 63, 68)" stop-opacity="1"/>
         <stop offset="99.9%" stop-color="rgb(235, 0, 0)" stop-opacity="1"/>
      </linearGradient>
      <linearGradient x1="-0.89" y1="-104.435" x2="-0.89" y2="65.511" id="linearGradient_25" inkscape:label="Gradient Fill 1" gradientUnits="userSpaceOnUse">
         <stop offset="13.5%" stop-color="rgb(255, 126, 136)" stop-opacity="1"/>
         <stop offset="42.5%" stop-color="rgb(245, 63, 68)" stop-opacity="1"/>
         <stop offset="99.9%" stop-color="rgb(235, 0, 0)" stop-opacity="1"/>
      </linearGradient>
      <radialGradient cx="-0.914" cy="-21.226" r="209.337" fx="-0.914" fy="-21.226" id="radialGradient_27" inkscape:label="Gradient Fill 1" gradientUnits="userSpaceOnUse">
         <stop offset="60.099999999999994%" stop-color="rgb(152, 0, 0)" stop-opacity="0"/>
         <stop offset="76.0%" stop-color="rgb(152, 0, 0)" stop-opacity="0.5"/>
         <stop offset="100%" stop-color="rgb(152, 0, 0)" stop-opacity="1"/>
      </radialGradient>
      <radialGradient cx="-0.914" cy="-21.226" r="209.337" fx="-0.914" fy="-21.226" id="radialGradient_29" inkscape:label="Gradient Fill 1" gradientUnits="userSpaceOnUse">
         <stop offset="60.099999999999994%" stop-color="rgb(152, 0, 0)" stop-opacity="0"/>
         <stop offset="76.0%" stop-color="rgb(152, 0, 0)" stop-opacity="0.5"/>
         <stop offset="100%" stop-color="rgb(152, 0, 0)" stop-opacity="1"/>
      </radialGradient>
      <linearGradient x1="-0.448" y1="97.889" x2="-0.448" y2="-98.366" id="linearGradient_30" inkscape:label="Gradient Stroke 1" gradientUnits="userSpaceOnUse">
         <stop offset="0%" stop-color="rgb(255, 255, 255)" stop-opacity="0"/>
         <stop offset="22.8%" stop-color="rgb(255, 255, 255)" stop-opacity="0.5"/>
         <stop offset="100%" stop-color="rgb(255, 255, 255)" stop-opacity="1"/>
      </linearGradient>
      <linearGradient x1="-0.904" y1="111.597" x2="-0.904" y2="-112.827" id="linearGradient_35" inkscape:label="Gradient Stroke 1" gradientUnits="userSpaceOnUse">
         <stop offset="13.5%" stop-color="rgb(121, 0, 0)" stop-opacity="1"/>
         <stop offset="39.1%" stop-color="rgb(161, 0, 0)" stop-opacity="1"/>
         <stop offset="91.5%" stop-color="rgb(201, 0, 0)" stop-opacity="1"/>
      </linearGradient>
      <linearGradient x1="1.04" y1="-174.447" x2="0.04" y2="-126.345" id="linearGradient_36" inkscape:label="Gradient Fill 1" gradientUnits="userSpaceOnUse">
         <stop offset="0.1%" stop-color="rgb(102, 145, 12)" stop-opacity="1"/>
         <stop offset="9.700000000000001%" stop-color="rgb(143, 181, 18)" stop-opacity="1"/>
         <stop offset="25.0%" stop-color="rgb(183, 217, 24)" stop-opacity="1"/>
         <stop offset="37.5%" stop-color="rgb(201, 228, 48)" stop-opacity="1"/>
         <stop offset="50.0%" stop-color="rgb(219, 240, 72)" stop-opacity="1"/>
         <stop offset="62.5%" stop-color="rgb(201, 228, 48)" stop-opacity="1"/>
         <stop offset="75.0%" stop-color="rgb(183, 217, 24)" stop-opacity="1"/>
         <stop offset="87.5%" stop-color="rgb(143, 181, 18)" stop-opacity="1"/>
         <stop offset="100%" stop-color="rgb(102, 145, 12)" stop-opacity="1"/>
      </linearGradient>
      <linearGradient x1="1.04" y1="-174.447" x2="0.04" y2="-126.345" id="linearGradient_38" inkscape:label="Gradient Fill 1" gradientUnits="userSpaceOnUse">
         <stop offset="0.1%" stop-color="rgb(102, 145, 12)" stop-opacity="1"/>
         <stop offset="9.700000000000001%" stop-color="rgb(143, 181, 18)" stop-opacity="1"/>
         <stop offset="25.0%" stop-color="rgb(183, 217, 24)" stop-opacity="1"/>
         <stop offset="37.5%" stop-color="rgb(201, 228, 48)" stop-opacity="1"/>
         <stop offset="50.0%" stop-color="rgb(219, 240, 72)" stop-opacity="1"/>
         <stop offset="62.5%" stop-color="rgb(201, 228, 48)" stop-opacity="1"/>
         <stop offset="75.0%" stop-color="rgb(183, 217, 24)" stop-opacity="1"/>
         <stop offset="87.5%" stop-color="rgb(143, 181, 18)" stop-opacity="1"/>
         <stop offset="100%" stop-color="rgb(102, 145, 12)" stop-opacity="1"/>
      </linearGradient>
      <linearGradient x1="1.04" y1="-174.447" x2="0.04" y2="-126.345" id="linearGradient_40" inkscape:label="Gradient Stroke 1" gradientUnits="userSpaceOnUse">
         <stop offset="0.1%" stop-color="rgb(45, 79, 18)" stop-opacity="1"/>
         <stop offset="19.400000000000002%" stop-color="rgb(84, 121, 9)" stop-opacity="1"/>
         <stop offset="50.0%" stop-color="rgb(124, 164, 0)" stop-opacity="1"/>
         <stop offset="75.0%" stop-color="rgb(84, 121, 9)" stop-opacity="1"/>
         <stop offset="100%" stop-color="rgb(45, 79, 18)" stop-opacity="1"/>
      </linearGradient>
   </defs>
   <sodipodi:namedview inkscape:pagecheckerboard="true" borderlayer="true" bordercolor="#666666" pagecolor="#ffffff"/>
   <g inkscape:groupmode="layer" id="rem" inkscape:label="rem" transform="matrix(1.0, 0.0, 0.0, 1.0, 253.0, 256.0)" opacity="1">
      <g inkscape:groupmode="layer" id="master" inkscape:label="master" transform="matrix(1.0, 0.0, 0.0, 1.0, 0.0, 0.0)" opacity="1">
         <g inkscape:groupmode="layer" id="back" inkscape:label="back" transform="matrix(1.0, 0.0, 0.0, 1.0, 8.392, -14.603)" style="">
            <g id="Group_1" inkscape:label="Group 1" transform="matrix(1.0, 0.0, 0.0, 1.0, 0.0, 0.0)" style="fill-opacity:1.0;fill:rgb(38, 2, 1);fill-rule:nonzero">
               <path d="M 225,29.119 C 225,29.119 106.42800000000001,114.147 3.641,120.241 C -137.392,128.603 -143.807,90.149 -188.665,55.588 C -222.392,29.603 -242,20.241 -242,20.241 C -242,20.241 -139.483,-88.25500000000001 -1.748,-87.311 C 131.608,-86.397 225,29.119 225,29.119 Z" id="Path_1" inkscape:label="Path 1" style="fill-opacity:1.0;fill:rgb(38, 2, 1);fill-rule:nonzero"/>
            </g>
            <g inkscape:groupmode="layer" id="teethbase" inkscape:label="teethbase" transform="matrix(1.0, 0.0, 0.0, 1.0, -8.663, -10.556)" style="">
               <g id="g_2" inkscape:label="Group 1" transform="matrix(1.0, 0.0, 0.0, 1.0, 0.0, 0.0)" style="fill-opacity:1.0;fill:rgb(236, 235, 247);fill-rule:nonzero;stroke:rgb(155, 151, 160);stroke-opacity:1.0;stroke-width:19.315;stroke-miterlimit:0;stroke-linecap:round;stroke-linejoin:round">
                  <path d="M 139.817,-16.485 C 136.27100000000002,-17.84 113.771,-40.84 112.011,-41.316 C 112.011,-41.316 -8.453,-63.074 -8.453,-63.074 C -8.453,-63.074 -98.907,-37.986 -109.764,-40.821 C -115.729,-38.839999999999996 -154.729,-17.34 -155.817,-17.485 C -164.729,-9.34 -174.971,-4.577999999999999 -172.773,10.166 C -169.058,35.09 -159.166,62.412 -140.986,84.574 C -140.986,84.574 -136.78900000000002,61.644 -123.397,17.223 C -123.397,17.223 -78.836,2.712 -4.792,2.915 C 31.46,3.0140000000000002 74.78,6.639999999999999 123.397,17.223 C 136.78900000000002,61.644 140.986,84.574 140.986,84.574 C 159.38899999999998,62.14 169.3,34.42 172.907,9.251 C 174.972,-5.1530000000000005 141.472,-5.2219999999999995 139.817,-16.485 Z" id="path_3" inkscape:label="Path 1" style="fill-opacity:1.0;fill:rgb(236, 235, 247);fill-rule:nonzero"/>
               </g>
               <g inkscape:groupmode="layer" id="teeth_l" inkscape:label="teeth l" transform="matrix(1.0, 0.0, 0.0, 1.0, -89.151, 0.0)" style="">
                  <g id="g_4" inkscape:label="Group 1" transform="matrix(1.0, 0.0, 0.0, 1.0, 0.0, 0.0)" style="fill-opacity:1.0;fill:url(#Gradient_Fill_1);fill-rule:nonzero;stroke:url(#Gradient_Stroke_1);stroke-opacity:1.0;stroke-width:19.315;stroke-miterlimit:0;stroke-linecap:round;stroke-linejoin:round">
                     <path d="M 81.698,-84.574 C 81.698,-84.574 -24.326,-52.409 -35.183,-55.244 C -39.578,-52.841 -85.078,-29.34 -83.666,-29.985 C -88.212,0.9589999999999996 -80.269,49.300999999999995 -51.334,84.574 C -51.334,84.574 -47.138000000000005,61.644 -33.746,17.223 C -33.746,17.223 10.816000000000003,2.712 84.86,2.915 " id="path_5" inkscape:label="Path 1" style="fill-opacity:1.0;fill:url(#linearGradient_6);fill-rule:nonzero"/>
                  </g>
               </g>
            </g>
            <g inkscape:groupmode="layer" id="bottomlip" inkscape:label="bottomlip" transform="matrix(1.0, 0.0, 0.0, 1.0, -264.392, -241.397)" style="">
               <g id="fill" inkscape:label="fill" transform="matrix(1.0, 0.0, 0.0, 1.0, 256.325, 349.158)" style="fill-opacity:1.0;fill:url(#linearGradient_7);fill-rule:nonzero">
                  <path d="M -236.504,-84.853 C -141.08599999999998,-49.00899999999999 -106.406,40.693999999999996 -6.807,84.192 C 56.308,111.756 105.38300000000001,90.598 134.245,62.623 C 184.0,14.396 198.749,-76.54599999999999 247.183,-89.216 C 247.183,-89.216 213.81199999999998,-76.831 173.76,-58.142 C 137.611,-41.275000000000006 88.14099999999999,-11.651000000000003 18.287,-50.27 C -74.49199999999999,-101.563 -115.441,-96.355 -169.62,-95.64 C -209.211,-95.117 -236.504,-84.853 -236.504,-84.853 Z" id="path_8" inkscape:label="Path 1" style="fill-opacity:1.0;fill:url(#linearGradient_9);fill-rule:nonzero"/>
               </g>
               <g id="shading" inkscape:label="shading" transform="matrix(1.0, 0.0, 0.0, 1.0, 256.325, 349.158)" opacity="0.35" style="fill-opacity:1.0;fill:url(#radialGradient_10);fill-rule:nonzero">
                  <path d="M -236.504,-84.853 C -141.08599999999998,-49.00899999999999 -106.406,40.693999999999996 -6.807,84.192 C 56.308,111.756 105.38300000000001,90.598 134.245,62.623 C 184.0,14.396 198.749,-76.54599999999999 247.183,-89.216 C 247.183,-89.216 213.81199999999998,-76.831 173.76,-58.142 C 137.611,-41.275000000000006 88.14099999999999,-11.651000000000003 18.287,-50.27 C -74.49199999999999,-101.563 -115.441,-96.355 -169.62,-95.64 C -209.211,-95.117 -236.504,-84.853 -236.504,-84.853 Z" id="path_11" inkscape:label="Path 1" style="fill-opacity:1.0;fill:url(#radialGradient_12);fill-rule:nonzero"/>
               </g>
               <g id="high" inkscape:label="high" transform="matrix(1.0, 0.0, 0.0, 1.0, 258.135, 311.608)" opacity="0.3" style="stroke:url(#linearGradient_13);stroke-opacity:1.0;stroke-width:19.315;stroke-miterlimit:0;stroke-linecap:round;stroke-linejoin:round">
                  <path d="M 148.60557599999999,6.411040000000005 C 115.19763999999998,21.394880000000004 72.36019999999999,34.1752 16.477,3.28 C -76.30199999999999,-48.013 -117.251,-42.80500000000001 -171.43,-42.09 C -202.11302499999996,-41.684675 -225.40956374999996,-35.42806125000001 -234.33967804687495,-32.63310464062501 " style=""/>
               </g>
               <g id="shade" inkscape:label="shade" transform="matrix(1.0, 0.0, 0.0, 1.0, 224.524, 349.22)" opacity="0.35" style="fill-opacity:1.0;fill:url(#linearGradient_14);fill-rule:nonzero">
                  <path d="M 278.515,-90.096 C 229.976,-76.72 215.72500000000002,15.030000000000001 166.157,61.719 C 137.204,88.99000000000001 88.119,111.61500000000001 24.995,84.132 C -78.024,39.28000000000001 -109.52399999999999,-49.22 -200.265,-83.211 C -200.265,-83.211 -177.415,-95.181 -137.815,-95.702 C -93.265,-96.29599999999999 -64.024,-109.22 50.039,-50.339 C -41.024,-91.72 -83.524,-52.72 -50.495,-11.213 C -36.32899999999999,6.589 64.476,110.28 161.993,50.349 C 217.576,16.189 230.476,-76.72 278.515,-90.096 Z" id="path_15" inkscape:label="Path 1" style="fill-opacity:1.0;fill:url(#linearGradient_16);fill-rule:nonzero"/>
               </g>
               <g id="outl" inkscape:label="outl" transform="matrix(1.0, 0.0, 0.0, 1.0, 258.789, 349.632)" style="stroke:url(#linearGradient_18);stroke-opacity:1.0;stroke-width:19.315;stroke-miterlimit:0;stroke-linecap:round;stroke-linejoin:round">
                  <path d="M -238.969,-85.326 C -143.551,-49.48199999999999 -108.87,40.220000000000006 -9.271,83.718 C 53.844,111.28200000000001 102.918,90.124 131.78,62.149 C 181.535,13.922000000000004 196.285,-77.01899999999999 244.719,-89.689 C 244.719,-89.689 211.34799999999998,-77.305 171.296,-58.616 C 135.147,-41.748999999999995 85.67699999999999,-12.125 15.823,-50.744 C -76.95599999999999,-102.037 -117.906,-96.82900000000001 -172.085,-96.114 C -211.67600000000002,-95.59100000000001 -238.969,-85.326 -238.969,-85.326 Z" id="path_17" inkscape:label="Path 1" style=""/>
               </g>
               <g id="spot" inkscape:label="spot" transform="matrix(1.0, 0.0, 0.0, 1.0, 0.0, 0.0)" style="">
                  <g id="Group_2" inkscape:label="Group 2" transform="matrix(1.0, 0.0, 0.0, 1.0, 224.063, 310.201)" style="fill-opacity:1.0;fill:rgb(255, 255, 255);fill-rule:nonzero">
                     <path d="M 3.756,-12.943 C 15.338000000000001,-8.276 23.045,1.3030000000000008 20.971,8.451 C 18.897,15.599 7.8260000000000005,17.61 -3.756,12.943 C -15.338000000000001,8.276 -23.045,-1.3030000000000008 -20.971,-8.451 C -18.897,-15.599 -7.8260000000000005,-17.61 3.756,-12.943 Z" id="path_19" inkscape:label="Path 1" style="fill-opacity:1.0;fill:rgb(255, 255, 255);fill-rule:nonzero"/>
                  </g>
                  <g id="g_20" inkscape:label="Group 1" transform="matrix(1.0, 0.0, 0.0, 1.0, 267.339, 338.733)" style="fill-opacity:1.0;fill:rgb(255, 255, 255);fill-rule:nonzero">
                     <path d="M 1.726,-5.947 C 7.047,-3.803 10.588,0.5990000000000002 9.635,3.883 C 8.682,7.167 3.5949999999999998,8.091000000000001 -1.726,5.947 C -7.047,3.803 -10.588,-0.5990000000000002 -9.635,-3.883 C -8.682,-7.167 -3.5949999999999998,-8.091000000000001 1.726,-5.947 Z" id="path_21" inkscape:label="Path 1" style="fill-opacity:1.0;fill:rgb(255, 255, 255);fill-rule:nonzero"/>
                  </g>
               </g>
            </g>
            <g inkscape:groupmode="layer" id="toplip" inkscape:label="toplip" transform="matrix(1.0, 0.0, 0.0, 1.0, -264.392, -241.39600000000002)" style="">
               <g id="g_22" inkscape:label="fill" transform="matrix(1.0, 0.0, 0.0, 1.0, 256.89, 165.435)" style="fill-opacity:1.0;fill:url(#linearGradient_23);fill-rule:nonzero">
                  <path d="M -241.971,96.232 C -250.337,89.203 -202.34799999999998,38.602000000000004 -156.969,-9.538 C -114.249,-54.857 -85.39,-98.935 -51.884,-98.874 C -26.373,-98.82799999999999 -20.89,-83.374 2.49,-82.658 C 26.11,-81.935 30.038000000000004,-98.964 57.496,-98.951 C 91.11,-98.93499999999999 116.10900000000001,-62.935 153.484,-14.604 C 207.33800000000002,55.038 258.11,89.56500000000001 245.42,95.406 C 218.23,107.92200000000001 106.607,14.21 -2.908,11.48 C -139.89,8.065000000000001 -215.39000000000001,118.565 -241.971,96.232 Z" id="path_24" inkscape:label="Path 1" style="fill-opacity:1.0;fill:url(#linearGradient_25);fill-rule:nonzero"/>
               </g>
               <g id="g_26" inkscape:label="shade" transform="matrix(1.0, 0.0, 0.0, 1.0, 256.914, 165.435)" opacity="0.35" style="fill-opacity:1.0;fill:url(#radialGradient_27);fill-rule:nonzero">
                  <path d="M -241.995,96.232 C -250.361,89.203 -202.37099999999998,38.602000000000004 -156.992,-9.538 C -114.27199999999999,-54.857 -85.414,-98.935 -51.908,-98.874 C -26.397000000000002,-98.82799999999999 -20.913999999999998,-83.374 2.466,-82.658 C 26.086000000000002,-81.935 30.014000000000003,-98.964 57.472,-98.951 C 91.086,-98.93499999999999 116.08600000000001,-62.935 153.461,-14.604 C 207.315,55.038 258.086,89.56500000000001 245.396,95.406 C 218.206,107.92200000000001 106.583,14.21 -2.932,11.48 C -139.914,8.065000000000001 -215.41400000000002,118.565 -241.995,96.232 Z" id="path_28" inkscape:label="Path 1" style="fill-opacity:1.0;fill:url(#radialGradient_29);fill-rule:nonzero"/>
               </g>
               <g id="highlight" inkscape:label="highlight" transform="matrix(1.0, 0.0, 0.0, 1.0, 255.448, 192.111)" opacity="0.35" style="stroke:url(#linearGradient_30);stroke-opacity:1.0;stroke-width:19.315;stroke-miterlimit:0;stroke-linecap:round;stroke-linejoin:round">
                  <path d="M -227.29155999999995,59.152752 C -210.92139999999995,38.43996 -182.75439999999998,8.670000000000002 -155.527,-20.214 C -112.80699999999999,-65.533 -83.94800000000001,-109.611 -50.442,-109.55 C -24.931,-109.50399999999999 -19.448,-94.05 3.932,-93.334 C 24.56842105263159,-92.70232631578948 30.173463933518015,-105.62118204986152 49.572062556057766,-108.88630199970842 " style=""/>
               </g>
               <g id="g_31" inkscape:label="high" transform="matrix(1.0, 0.0, 0.0, 1.0, 325.64, 103.464)" style="fill-opacity:1.0;fill:rgb(255, 255, 255);fill-rule:nonzero">
                  <path d="M 2.113,-7.282 C 8.629,-4.656000000000001 12.966,0.7329999999999997 11.799,4.755 C 10.632,8.777000000000001 4.4030000000000005,9.908 -2.113,7.282 C -8.629,4.656000000000001 -12.965,-0.7329999999999997 -11.798,-4.755 C -10.631,-8.777000000000001 -4.4030000000000005,-9.908 2.113,-7.282 Z" id="path_32" inkscape:label="Path 1" style="fill-opacity:1.0;fill:rgb(255, 255, 255);fill-rule:nonzero"/>
               </g>
               <g id="g_33" inkscape:label="outl" transform="matrix(1.0, 0.0, 0.0, 1.0, 256.904, 169.403)" style="stroke:url(#linearGradient_35);stroke-opacity:1.0;stroke-width:19.315;stroke-miterlimit:0;stroke-linecap:round;stroke-linejoin:round">
                  <path d="M -241.985,92.265 C -250.351,85.236 -202.362,34.635 -156.983,-13.505 C -114.263,-58.824000000000005 -85.404,-102.903 -51.898,-102.842 C -26.387000000000004,-102.79599999999999 -20.904,-87.342 2.476,-86.626 C 26.096,-85.903 30.024,-102.932 57.482,-102.919 C 91.096,-102.90299999999999 116.095,-66.902 153.47,-18.571 C 207.324,51.071 258.096,85.598 245.406,91.439 C 218.216,103.955 106.593,10.241999999999999 -2.922,7.512 C -139.904,4.0969999999999995 -215.40400000000002,114.598 -241.985,92.265 Z" id="path_34" inkscape:label="Path 1" style=""/>
               </g>
            </g>
         </g>
         <g inkscape:groupmode="layer" id="tonque" inkscape:label="tonque" transform="matrix(1.0, 0.0, 0.0, 1.0, -230.0, -208.0)" opacity="0.0" style="">
            <g id="Group_6" inkscape:label="Group 6" transform="matrix(1.0, 0.0, 0.0, 1.0, 239.001, 328.447)" style="fill-opacity:1.0;fill:url(#linearGradient_36);fill-rule:nonzero">
               <path d="M 100.808,-137.982 C 100.808,-137.982 96.827,-139.322 88.381,-140.781 C 79.791,-142.26500000000001 66.779,-144.02700000000002 49.439,-145.252 C 33.589,-146.372 14.122000000000002,-147.042 -8.891,-146.642 C -30.104999999999997,-147.447 -50.286,-146.423 -67.09,-144.787 C -79.406,-143.588 -89.909,-142.062 -97.674,-140.686 C -106.748,-139.079 -112.214,-137.249 -112.214,-137.249 C -113.057,-134.447 -89.237,-139.419 -73.97,-140.33 C -60.619,-141.126 -60,-141.173 -60,-141.173 C -60,-141.173 -27.875,-141.812 -9.916,-141.69 C -9.916,-141.69 20.593,-141.367 42.71,-140.523 C 42.71,-140.523 38.67,-140.675 55.687,-140.008 C 68.59,-139.502 98.245,-135.994 100.808,-137.982 Z" id="path_37" inkscape:label="Path 1" style="fill-opacity:1.0;fill:url(#linearGradient_38);fill-rule:nonzero"/>
            </g>
            <g id="Group_5" inkscape:label="Group 5" transform="matrix(1.0, 0.0, 0.0, 1.0, 213.196, 209.636)" style="stroke:rgb(140, 198, 63);stroke-opacity:1.0;stroke-width:18.0;stroke-miterlimit:0;stroke-linecap:round;stroke-linejoin:round">
               <path d="M 19.51268,-27.514139999999998 C 19.51268,-27.514139999999998 19.17836,-26.85978 19.17836,-26.85978 " style=""/>
            </g>
            <g id="Group_7" inkscape:label="Group 7" transform="matrix(1.0, 0.0, 0.0, 1.0, 239.001, 348.447)" opacity="0.0" style="stroke:rgb(255, 255, 255);stroke-opacity:1.0;stroke-width:18.0;stroke-miterlimit:0;stroke-linecap:round;stroke-linejoin:round">
               <path d="M 94.46844147200001,-139.63529510400002 C 92.7756784,-139.9848928 90.74588,-140.37248 88.381,-140.781 C 79.791,-142.26500000000001 66.779,-144.02700000000002 49.439,-145.252 C 33.589,-146.372 14.122000000000002,-147.042 -8.891,-146.642 C -30.104999999999997,-147.447 -50.286,-146.423 -67.09,-144.787 C -77.57170212765959,-143.76657446808508 -86.74023087369854,-142.50929968311453 -94.02538503029197,-141.30921453820443 " style=""/>
            </g>
            <g id="Group_4" inkscape:label="Group 4" transform="matrix(1.0, 0.0, 0.0, 1.0, 239.001, 328.447)" style="stroke:url(#linearGradient_40);stroke-opacity:1.0;stroke-width:18.0;stroke-miterlimit:0;stroke-linecap:round;stroke-linejoin:round">
               <path d="M 100.808,-137.982 C 100.808,-137.982 96.827,-139.322 88.381,-140.781 C 79.791,-142.26500000000001 66.779,-144.02700000000002 49.439,-145.252 C 33.589,-146.372 14.122000000000002,-147.042 -8.891,-146.642 C -30.104999999999997,-147.447 -50.286,-146.423 -67.09,-144.787 C -79.406,-143.588 -89.909,-142.062 -97.674,-140.686 C -106.748,-139.079 -112.214,-137.249 -112.214,-137.249 C -113.057,-134.447 -89.237,-139.419 -73.97,-140.33 C -60.619,-141.126 -60,-141.173 -60,-141.173 C -60,-141.173 -27.875,-141.812 -9.916,-141.69 C -9.916,-141.69 20.593,-141.367 42.71,-140.523 C 42.71,-140.523 38.67,-140.675 55.687,-140.008 C 68.59,-139.502 98.245,-135.994 100.808,-137.982 Z" id="path_39" inkscape:label="Path 1" style=""/>
            </g>
         </g>
      </g>
   </g>
</svg>
